<svg width="1920" height="746" viewBox="0 0 1920 746" fill="none" xmlns="http://www.w3.org/2000/svg">
<mask id="mask0_35_29750" style="mask-type:alpha" maskUnits="userSpaceOnUse" x="0" y="0" width="1920" height="746">
<rect width="1920" height="746" fill="#C4C4C4"/>
</mask>
<g mask="url(#mask0_35_29750)">
<path d="M1673.69 869.357H1581.09L1933.15 365.738H2025.75L1673.69 869.357Z" fill="#2D2D2D"/>
<path d="M1731.91 836.501H1721.54L2078.92 325.254H2089.29L1731.91 836.501Z" fill="#EE1827"/>
<path d="M-51.639 629.379H-434L23.1977 -24.6543H405.576L-51.639 629.379Z" fill="#202020"/>
<path d="M-24.5127 491.971H-37.9844L426.133 -171.951H439.622L-24.5127 491.971Z" fill="#EE1827"/>
<path d="M206.297 101.062H-61.4766L104.062 -135.775H371.836L206.297 101.062Z" fill="#2D2D2D"/>
<path d="M-105.128 490.185H-199.797L160.111 -24.6543H254.78L-105.128 490.185Z" fill="#3A3A3A"/>
<path d="M1428.56 844.789H1408.17L1995.69 4.3418H2016.06L1428.56 844.789Z" fill="#EFEFEF"/>
<path d="M1395.96 844.789H1385.01L1972.51 4.3418H1983.48L1395.96 844.789Z" fill="#EFEFEF"/>
<path d="M1369.58 844.789H1364L1951.52 4.3418H1957.09L1369.58 844.789Z" fill="#EFEFEF"/>
<path d="M1948.4 907.511H1749.73L2009.7 535.629H2208.36L1948.4 907.511Z" fill="#2D2D2D"/>
<path d="M1778.84 836.959H1444.77L1962.55 96.2539H2296.63L1778.84 836.959Z" fill="#202020"/>
<path d="M1845.07 69.8743H1646.41L1906.37 -302.008H2105.04L1845.07 69.8743Z" fill="#EE1827"/>
<path d="M1776.67 53.6868H1578L1837.97 -318.195H2036.64L1776.67 53.6868Z" fill="#202020"/>
</g>
</svg>
