<svg width="40" height="38" viewBox="0 0 40 38" fill="none" xmlns="http://www.w3.org/2000/svg">
<path fill-rule="evenodd" clip-rule="evenodd" d="M29.0925 0.176389C27.3699 0.551101 25.4122 1.76725 24.2786 3.16707C21.9724 6.01516 21.5231 9.81786 23.1267 12.915C23.3856 13.4149 23.6166 13.8662 23.6401 13.9178C23.6637 13.9694 20.9149 14.0117 17.5317 14.0117C11.0084 14.0117 10.8365 14.0262 10.5674 14.6017C10.5098 14.7248 10.4326 16.6564 10.3958 18.8943L10.3287 22.9632L9.73424 24.1181C9.16435 25.2256 8.67233 25.768 8.39364 25.5957C8.32178 25.5512 8.26294 25.4138 8.26294 25.2902C8.26294 24.9419 7.71883 24.4374 7.18287 24.2885C6.56828 24.1179 4.8382 24.1141 4.23338 24.2821C3.69416 24.4319 3.1299 25.0427 3.1299 25.4767C3.1299 25.7716 3.10286 25.7801 2.15963 25.7806C0.619219 25.7814 0 26.3286 0 27.6893C0 28.4082 0.145979 28.6596 0.563382 28.6596C0.931333 28.6596 1.12651 28.4241 1.12852 27.9773C1.13252 27.0702 1.19212 27.018 2.17553 27.0582L3.0673 27.0947L3.10236 30.8505C3.12164 32.9163 3.10649 34.7331 3.06868 34.8881C3.00721 35.1398 2.92345 35.1695 2.28245 35.1679C1.88783 35.1668 1.48044 35.1126 1.37716 35.0475C1.22354 34.9506 1.18223 34.5015 1.15005 32.5799C1.12639 31.1713 1.05766 30.167 0.978156 30.0712C0.81102 29.8698 0.347544 29.8645 0.150235 30.0618C0.0435683 30.1685 0.000125398 30.9223 0.000500987 32.6596C0.000876575 34.8623 0.0252897 35.1471 0.244132 35.5061C0.591676 36.0761 0.93271 36.2246 2.05835 36.2961C3.0509 36.359 3.05265 36.3598 3.15469 36.7557C3.2109 36.9737 3.42987 37.2976 3.6412 37.4755C4.01391 37.7892 4.07776 37.7989 5.75902 37.7989H7.49248L7.87771 37.4137C8.08954 37.2019 8.26294 36.9905 8.26294 36.9442C8.26294 36.8979 13.9388 36.8751 20.8761 36.8936C30.415 36.919 33.5771 36.8909 33.8492 36.7782C34.5656 36.4815 34.554 36.6504 34.5555 26.504L34.5569 17.2042L35.5185 16.7034C37.3808 15.7336 38.8939 13.8732 39.6447 11.6299C39.9622 10.6816 39.9999 10.3959 40 8.94124C40.0001 7.09172 39.7709 6.12583 38.9601 4.55938C38.3206 3.32369 36.6887 1.72118 35.4089 1.07217C34.3634 0.541961 33.9831 0.540835 33.851 1.06728C33.7705 1.38779 34.0758 1.86766 34.3602 1.86766C34.6456 1.86766 35.8488 2.72238 36.5798 3.44438C37.5063 4.35981 38.0657 5.26598 38.5049 6.56376C38.7926 7.41385 38.8432 7.77178 38.8421 8.947C38.8408 10.1484 38.7925 10.4696 38.4739 11.3938C37.3726 14.5888 34.5019 16.638 31.1041 16.6547C28.9213 16.6653 27.2199 15.957 25.6515 14.3846C23.2287 11.9556 22.6773 8.44746 24.2326 5.359C24.733 4.3652 25.9447 3.01846 26.8722 2.42516C28.2407 1.54966 29.3689 1.21852 31.0608 1.19548C32.3172 1.17833 32.6762 1.04813 32.6762 0.609317C32.6762 0.113416 32.3491 -0.0107791 31.071 -0.000387827C30.4045 0.0051208 29.5142 0.0846206 29.0925 0.176389ZM35.2004 5.29002C35.054 5.37015 33.7443 6.7766 32.2899 8.41529C30.8355 10.054 29.6003 11.3779 29.545 11.3574C29.4898 11.3369 29.1228 10.9538 28.7296 10.5062C26.9577 8.48928 26.7509 8.34969 26.3609 8.90656C26.2537 9.05955 26.166 9.22831 26.166 9.28164C26.166 9.43301 28.7898 12.3725 29.0486 12.511C29.442 12.7215 30.0151 12.6512 30.3366 12.3528C30.5036 12.1978 31.3397 11.2824 32.1947 10.3184C33.0496 9.35438 34.2683 7.98411 34.9028 7.27338C35.5373 6.56264 36.0564 5.92514 36.0564 5.85666C36.0564 5.64458 35.8216 5.28076 35.6397 5.2109C35.5444 5.17434 35.3466 5.20989 35.2004 5.29002ZM16.7763 18.0526C16.7763 21.1758 16.8278 21.3982 17.5517 21.3982C17.8406 21.3982 18.219 21.1759 19.0577 20.5134L20.178 19.6285L21.3348 20.5134C22.4355 21.3553 22.8806 21.54 23.2364 21.3025C23.6043 21.0568 23.662 20.6037 23.662 17.9636V15.2636H24.2376C24.7325 15.2636 24.8941 15.3351 25.3935 15.7747C26.0723 16.3721 27.2085 17.023 28.1378 17.3469L28.7951 17.5759V19.9224V22.2689L29.1113 22.4761C29.4072 22.6699 29.4432 22.669 29.6718 22.462C29.8937 22.2613 29.9193 22.0391 29.9503 20.0506L29.9844 17.8602L31.1738 17.8319C31.828 17.8164 32.5745 17.761 32.8327 17.7091L33.3021 17.6144V26.6426V35.6706H31.612H29.9218V29.8534C29.9218 24.049 29.9212 24.0359 29.6557 23.8936C29.4624 23.7902 29.3079 23.7884 29.0923 23.8866L28.7951 24.022V29.8463V35.6706H24.1869H19.5788V35.0446V34.4186L20.8379 34.4181C21.8735 34.4177 22.1696 34.3736 22.5051 34.1689C23.1168 33.7959 23.4248 33.2179 23.3915 32.5055C23.3658 31.9608 23.399 31.8822 23.761 31.6291C25.1384 30.6667 24.5258 28.5656 22.8012 28.3369L22.2014 28.2574L22.2008 27.7385C22.1999 27.0662 21.8968 26.4961 21.3655 26.1678C20.9581 25.9159 20.782 25.9053 17.0432 25.9053C14.8995 25.9053 13.1456 25.8752 13.1456 25.8386C13.1456 25.8018 13.2795 25.506 13.4432 25.1813C13.8656 24.3429 13.9416 23.86 13.7663 23.1291C13.5655 22.2923 12.8613 21.561 12.1458 21.4466L11.6432 21.3662V18.3149V15.2636H14.2097H16.7763V18.0526ZM22.4101 17.5246C22.4101 19.2983 22.3764 19.7659 22.2536 19.6946C22.1676 19.6445 21.7511 19.3314 21.3281 18.9986C20.3595 18.2364 20.0839 18.2271 19.1708 18.9256C18.7882 19.2183 18.3746 19.5313 18.2517 19.6213C18.0394 19.7767 18.0282 19.6717 18.0282 17.5243V15.2636H20.2192H22.4101V17.5246ZM12.2191 22.746C12.4461 22.8976 12.6448 23.3618 12.6448 23.7407C12.6448 23.9362 12.4775 24.4329 12.2731 24.8443C11.8034 25.7897 11.7932 26.2249 12.23 26.6809L12.5664 27.0321H16.5925C20.4796 27.0321 20.6264 27.0408 20.8485 27.2862C21.0307 27.4875 21.0537 27.6112 20.9591 27.8809L20.8395 28.2214L18.2133 28.284C16.7688 28.3184 15.5165 28.3922 15.4304 28.4479C15.1811 28.6093 15.2391 29.2582 15.516 29.4064C15.6669 29.4872 17.1204 29.536 19.3721 29.536C23.2341 29.536 23.2865 29.5444 23.2865 30.162C23.2865 30.7808 23.2406 30.7879 19.2746 30.7879C15.7196 30.7879 15.5536 30.7985 15.336 31.0388C15.1501 31.2443 15.1343 31.3452 15.2486 31.5962L15.3883 31.9028L18.6591 31.94C21.7288 31.975 21.9407 31.9922 22.1074 32.2203C22.3306 32.5259 22.3306 32.6806 22.1074 32.9863C21.9401 33.2151 21.7268 33.2314 18.4513 33.2663C16.2057 33.2904 14.9151 33.3512 14.8103 33.4382C14.6065 33.6074 14.5997 34.07 14.7982 34.2684C14.8986 34.3688 15.4556 34.4186 16.4794 34.4186C17.7042 34.4186 18.0496 34.4579 18.2071 34.6153C18.4493 34.8576 18.4628 35.3406 18.2327 35.5316C18.1101 35.6333 16.699 35.6643 13.2561 35.6408L8.45073 35.608L8.4178 31.3229L8.38488 27.0379L8.99621 26.7282C9.80823 26.3167 10.1238 25.9151 11.0274 24.1428C11.7543 22.7171 11.9073 22.5378 12.2191 22.746ZM7.07357 31.0383V36.6096H5.69642H4.31926L4.28659 31.1635C4.26868 28.1682 4.2817 25.6451 4.31563 25.5568C4.3617 25.4364 4.71689 25.405 5.72546 25.4316L7.07357 25.4671V31.0383Z" fill="#FF0000"/>
</svg>
