<svg width="40" height="41" viewBox="0 0 40 41" fill="none" xmlns="http://www.w3.org/2000/svg">
<path d="M15.6612 27.9496L13.1883 25.5464L13.1795 25.5546L13.0088 25.3719L13.1831 25.1927L13.1917 25.2011L14.7042 23.7882M15.6612 27.9496L15.487 28.1289L12.8346 25.5512L12.6465 25.3684L12.8382 25.1893L14.5335 23.6055L14.7042 23.7882M15.6612 27.9496L15.487 28.1289C16.6869 29.2949 17.3407 29.9421 17.6957 30.3499C17.8732 30.5537 17.9633 30.6838 18.0102 30.7783C18.052 30.8625 18.0607 30.9204 18.0602 30.9909L18.0602 30.9909C18.0578 31.3188 17.8602 31.627 17.5703 31.8157C17.2795 32.0049 16.9428 32.0452 16.6819 31.9074L16.6818 31.9074C16.6816 31.9073 16.6797 31.9062 16.6757 31.9038C16.6739 31.9026 16.6718 31.9013 16.6695 31.8998C16.6664 31.8978 16.6628 31.8955 16.6588 31.8927C16.6445 31.8831 16.6263 31.8701 16.6039 31.8533C16.5591 31.8199 16.502 31.7748 16.4335 31.7187C16.2967 31.6068 16.1199 31.4555 15.9149 31.2752C15.5052 30.9147 14.9879 30.4424 14.4624 29.9456L12.5448 28.1328L12.1231 27.7341V28.3145V29.8203C12.1231 30.5735 12.1195 30.9171 12.074 31.1286C12.0378 31.2968 11.9823 31.3633 11.7834 31.5622C11.537 31.8086 11.3065 31.9054 11.1016 31.9054C10.8967 31.9054 10.6662 31.8086 10.4198 31.5622L10.0801 31.2224V25.3705V19.5186M15.6612 27.9496C18.0543 30.2752 18.3133 30.5727 18.3102 30.9927L10.0801 19.5186M14.7042 23.7882L14.5335 23.6055C16.1935 22.0549 17.0854 21.2105 17.5639 20.6906C17.8036 20.4302 17.9255 20.2659 17.9889 20.1463C18.0457 20.0391 18.0568 19.9663 18.0568 19.8741C18.0568 19.6502 17.9334 19.3885 17.7244 19.1757C17.5151 18.9625 17.2601 18.8392 17.045 18.8392C16.9617 18.8392 16.8959 18.8481 16.8 18.8922C16.6935 18.9411 16.5464 19.0351 16.3116 19.2211C15.842 19.5931 15.0776 20.2865 13.6725 21.5784L12.5423 22.6177L12.1231 23.0031V22.4336V20.9244C12.1231 20.1691 12.1196 19.8247 12.074 19.6127C12.0378 19.4442 11.9823 19.3779 11.7834 19.1789C11.5333 18.9288 11.3206 18.8392 11.1016 18.8392C10.8826 18.8392 10.6699 18.9288 10.4198 19.1789L10.0801 19.5186M14.7042 23.7882C18.0172 20.6935 18.3068 20.3789 18.3068 19.8741C18.3068 19.258 17.6501 18.5892 17.045 18.5892C16.5941 18.5892 16.3067 18.8168 13.5033 21.3944L10.0801 19.5186M27.8693 22.9426C27.8259 22.5744 27.7773 22.3032 27.6833 22.0737C27.5858 21.8358 27.4467 21.6591 27.2533 21.4657L27.2533 21.4657C27.0603 21.2727 26.8935 21.1306 26.6766 21.048C26.4646 20.9673 26.2291 20.9528 25.9223 20.9528C25.604 20.9528 25.3622 20.9626 25.1421 21.0604C24.9228 21.1579 24.7508 21.3314 24.5323 21.5698L24.0412 22.1056L23.9742 22.1788L23.9756 22.2779L24.0184 25.4482L24.0612 28.6185L24.0625 28.7201L24.1344 28.792L24.5963 29.2535L24.773 29.0767L24.5963 29.2535C24.7981 29.4553 24.9686 29.6029 25.1851 29.6888C25.3989 29.7736 25.6327 29.7883 25.9359 29.7883C26.2341 29.7883 26.4657 29.773 26.6735 29.6943C26.887 29.6135 27.0497 29.4757 27.2329 29.29L27.2329 29.29C27.3626 29.1584 27.4886 28.994 27.5893 28.8343C27.6873 28.679 27.7748 28.5071 27.8103 28.361L27.9048 27.9726L27.98 27.6636H27.6619H26.7879C26.3925 27.6636 26.2023 27.6502 26.0672 27.6068C25.9481 27.5686 25.856 27.5019 25.6779 27.3238C25.4278 27.0737 25.3382 26.8611 25.3382 26.642C25.3382 26.423 25.4278 26.2104 25.6779 25.9603C25.785 25.8532 25.8454 25.7945 25.9074 25.7524C25.9608 25.7162 26.0212 25.6888 26.1269 25.6683C26.3641 25.6223 26.761 25.6205 27.6312 25.6205H29.2447L29.6003 25.9761L29.9516 26.3274L29.8977 27.6612C29.866 28.4457 29.815 28.9068 29.6792 29.2972C29.5449 29.6831 29.321 30.0185 28.9011 30.5369L29.0954 30.6942L28.9011 30.5369C28.2046 31.397 27.0951 31.8399 25.9584 31.842C24.822 31.8442 23.6895 31.4056 22.9518 30.5438L22.9518 30.5438C22.4938 30.0088 22.2547 29.6266 22.1184 28.9454C21.977 28.2378 21.9475 27.2114 21.9475 25.383C21.9475 24.1116 21.9591 23.2788 21.9915 22.7042C22.0241 22.1278 22.0771 21.8308 22.1507 21.6215L22.1508 21.6214L27.621 22.9719M27.8693 22.9426L27.621 22.9719M27.8693 22.9426C27.8693 22.9426 27.8693 22.9426 27.8693 22.9426L27.621 22.9719M27.8693 22.9426C27.9116 23.3012 27.9534 23.5105 28.0129 23.6588C28.0672 23.7942 28.1399 23.888 28.2733 24.0027M27.621 22.9719C27.7059 23.692 27.7992 23.9247 28.1103 24.1923M28.2733 24.0027C28.2733 24.0027 28.2733 24.0027 28.2733 24.0027L28.1103 24.1923M28.2733 24.0027C28.5077 24.2043 28.7304 24.2793 28.934 24.2671C29.1397 24.2547 29.3668 24.1508 29.6025 23.9151M28.2733 24.0027L28.1103 24.1923M28.1103 24.1923L29.6025 23.9151M29.6025 23.9151L29.7793 24.0918L29.6026 23.915C29.6026 23.9151 29.6025 23.9151 29.6025 23.9151ZM15.755 10.3624H16.2354L15.9598 9.96899L15.3962 9.16457C15.3962 9.16456 15.3962 9.16456 15.3962 9.16455C14.3632 7.68969 14.071 5.89508 14.5865 4.22608C15.1649 2.35339 16.6231 0.916869 18.4855 0.381402C18.825 0.283843 19.4507 0.238409 20.1118 0.252525C20.7708 0.266596 21.4178 0.338769 21.7965 0.454036C22.1699 0.567772 22.7045 0.869433 23.2276 1.24972C23.7488 1.62864 24.2277 2.06312 24.4987 2.42211C26.0056 4.41823 26.0507 7.10511 24.6106 9.16088L24.8154 9.30432L24.6106 9.16088L24.0445 9.969L23.7689 10.3624H24.2493H28.6997C31.1317 10.3624 32.3773 10.371 33.1218 10.4744C33.4872 10.5252 33.7139 10.5968 33.8932 10.6923C34.0747 10.7889 34.2235 10.9178 34.4296 11.1135L34.6017 10.9323L34.4296 11.1135C34.5096 11.1896 34.57 11.24 34.6188 11.2808C34.7186 11.3642 34.7702 11.4073 34.8432 11.5465C34.9592 11.7677 35.0921 12.1929 35.3095 13.1979C35.6804 14.9126 36.2805 18.2261 37.4832 24.8662C37.6791 25.9474 37.8909 27.1169 38.1203 28.382C38.4232 30.0529 38.9333 32.8389 39.2538 34.5732C39.4403 35.5831 39.5768 36.4072 39.659 37.0132C39.7001 37.3165 39.7273 37.5623 39.7406 37.7481C39.7546 37.9443 39.7506 38.046 39.7437 38.0794C39.6745 38.4117 39.5025 38.7903 39.2696 39.1374C39.0365 39.4848 38.7546 39.7826 38.4802 39.9641L38.4802 39.9641L37.9606 40.308H20.0021H2.04371L1.5241 39.9641L1.38613 40.1726L1.5241 39.9641C1.24894 39.782 0.967059 39.4842 0.734107 39.1364C0.501352 38.7889 0.329289 38.4092 0.259482 38.0741L0.259474 38.074C0.251517 38.0359 0.246149 37.9459 0.253524 37.7891C0.260584 37.639 0.278203 37.4461 0.306491 37.2135C0.363015 36.7488 0.460729 36.1374 0.59559 35.416C1.17384 32.3233 1.79177 28.9386 2.44712 25.2733C3.29818 20.5138 3.89867 17.2263 4.3125 15.0789C4.51946 14.0049 4.67936 13.2181 4.80032 12.6756C4.86085 12.4042 4.91111 12.1963 4.95219 12.0453C4.9955 11.886 5.0233 11.8108 5.03512 11.7882C5.27858 11.3226 5.87124 10.7939 6.42524 10.5625C6.59851 10.4902 6.8758 10.4355 7.60272 10.4034C8.3225 10.3717 9.45142 10.3624 11.3046 10.3624H15.755ZM22.6124 8.35476L22.6124 8.35475L23.3883 5.87407L23.6383 5.87477C23.6383 5.87476 23.6383 5.87475 23.6383 5.87474C23.6403 5.14879 23.3324 4.38472 22.8713 3.75876C22.4102 3.13297 21.7736 2.61481 21.0829 2.40793C19.3209 1.87998 17.5119 2.71807 16.7228 4.41312C15.6137 6.79499 17.3521 9.43367 20.0021 9.43367C21.0884 9.43367 21.9064 9.10016 22.6124 8.35476ZM33.1373 12.7627L33.1372 12.7626C33.1041 12.6765 33.0368 12.6376 33.0206 12.6283C32.995 12.6137 32.9708 12.6052 32.956 12.6004C32.925 12.5906 32.8912 12.5839 32.8614 12.5789C32.7993 12.5685 32.7161 12.5595 32.6174 12.5513C32.4182 12.5347 32.1331 12.5195 31.777 12.5056C31.0635 12.4779 30.0523 12.4548 28.844 12.4364C26.4268 12.3995 23.2141 12.381 20.0021 12.381C16.7902 12.381 13.5775 12.3995 11.1603 12.4364C9.95194 12.4548 8.94076 12.4779 8.22733 12.5056C7.87117 12.5195 7.58611 12.5347 7.38688 12.5513C7.2882 12.5595 7.20497 12.5685 7.14289 12.5789C7.11307 12.5839 7.07927 12.5906 7.04828 12.6004C7.03347 12.6052 7.00932 12.6137 6.98367 12.6283C6.96753 12.6376 6.90015 12.6765 6.86705 12.7626L6.86702 12.7627C6.84911 12.8094 6.82684 12.9061 6.80249 13.0183C6.77566 13.1419 6.74052 13.3131 6.69735 13.5303C6.61097 13.965 6.49162 14.588 6.34079 15.3913C6.03908 16.9982 5.61094 19.3292 5.06769 22.3235L5.31368 22.3681L5.06769 22.3235C3.69584 29.8859 3.04381 33.4613 2.66545 35.4949L2.91123 35.5406L2.66545 35.4949C2.52071 36.273 2.42819 36.8407 2.38538 37.232C2.36407 37.4269 2.3541 37.5864 2.3579 37.71C2.35979 37.7717 2.36528 37.8318 2.37729 37.8864C2.38843 37.937 2.41003 38.0064 2.45992 38.0666L2.46008 38.0668C2.49011 38.1029 2.52298 38.1221 2.53785 38.1302C2.55548 38.1397 2.57133 38.1457 2.58188 38.1494C2.60294 38.1567 2.6232 38.1613 2.63804 38.1643C2.66888 38.1705 2.70548 38.1753 2.74368 38.1794C2.8216 38.1879 2.92925 38.1956 3.062 38.2028C3.32867 38.2174 3.71091 38.2308 4.19063 38.2431C5.15078 38.2678 6.50948 38.2883 8.13299 38.3047C11.3804 38.3375 15.6915 38.3539 20.0021 38.3539C24.3128 38.3539 28.6239 38.3375 31.8713 38.3047C33.4948 38.2883 34.8535 38.2678 35.8137 38.2431C36.2934 38.2308 36.6756 38.2174 36.9423 38.2028C37.075 38.1956 37.1827 38.1879 37.2606 38.1794C37.2988 38.1753 37.3354 38.1705 37.3662 38.1643C37.3811 38.1613 37.4013 38.1567 37.4224 38.1494C37.433 38.1457 37.4488 38.1397 37.4664 38.1302C37.4813 38.1221 37.5142 38.1029 37.5442 38.0668L37.5444 38.0666C37.5943 38.0064 37.6159 37.937 37.627 37.8864C37.639 37.8318 37.6445 37.7717 37.6464 37.71C37.6502 37.5864 37.6402 37.4269 37.6189 37.232C37.5761 36.8407 37.4836 36.273 37.3388 35.4949L37.0931 35.5406L37.3388 35.4949C36.9605 33.4613 36.3084 29.8859 34.9366 22.3235L34.6906 22.3681L34.9366 22.3235C34.3933 19.3292 33.9652 16.9982 33.6635 15.3913C33.5127 14.588 33.3933 13.965 33.3069 13.5303C33.2638 13.3131 33.2286 13.1419 33.2018 13.0183C33.1774 12.9061 33.1552 12.8094 33.1373 12.7627Z" fill="#FF0000" stroke="#2E2E2E" stroke-width="0.5"/>
</svg>
