<svg width="1920" height="232" viewBox="0 0 1920 232" fill="none" xmlns="http://www.w3.org/2000/svg">
<path d="M2224.27 706H2703.37L2130.5 -113H1651.37L2224.27 706Z" fill="#202020"/>
<path d="M2197.11 535H2214L1631.92 -296H1615L2197.11 535Z" fill="#EE1827"/>
<path d="M2298.3 533H2417L1965.71 -112H1847L2298.3 533Z" fill="#3A3A3A"/>
<path d="M493.073 777.052H513.457L-74.0627 -62H-94.4329L493.073 777.052Z" fill="#EFEFEF"/>
<path d="M525.673 777.052H536.625L-50.8813 -62H-61.8467L525.673 777.052Z" fill="#EFEFEF"/>
<path d="M552.045 777.052H557.629L-29.8906 -62H-35.4608L552.045 777.052Z" fill="#EFEFEF"/>
<path d="M142.783 769.235H476.859L-40.9254 29.7598H-375.002L142.783 769.235Z" fill="#202020"/>
<path d="M7.29665 246.337H72.2148L-47.9476 74.7246H-112.866L7.29665 246.337Z" fill="#EE1827"/>
</svg>
