<svg width="25" height="26" viewBox="0 0 25 26" fill="none" xmlns="http://www.w3.org/2000/svg">
<path fill-rule="evenodd" clip-rule="evenodd" d="M2.8716 0.619039C1.94966 0.867538 1.07169 1.55182 0.532996 2.44157C-0.0178452 3.3514 0.000111275 2.99526 0.000111275 13.002C0.000111275 23.0643 -0.0220959 22.6445 0.560929 23.603C0.91312 24.1819 1.36091 24.6267 1.95573 24.9885C2.86345 25.5406 2.50813 25.5226 12.4916 25.5226C22.4751 25.5226 22.1198 25.5406 23.0275 24.9885C24.2616 24.238 25.0775 22.7976 24.9603 21.5762C24.8869 20.8099 24.1948 20.4282 23.5164 20.7798C23.2425 20.9218 23.1143 21.1824 22.9905 21.849C22.8878 22.4021 22.7359 22.7081 22.4102 23.0183C21.8523 23.5494 22.3742 23.523 12.4727 23.5209C3.8527 23.5191 3.4103 23.5114 3.07962 23.358C2.88878 23.2694 2.62732 23.0844 2.49868 22.9469C1.96874 22.3804 1.99529 22.9047 1.99529 13.002C1.99529 3.09934 1.96874 3.62364 2.49868 3.05717C2.62732 2.91962 2.88878 2.73459 3.07962 2.64608C3.41038 2.49261 3.85088 2.48505 12.4916 2.48505C21.1324 2.48505 21.5729 2.49261 21.9037 2.64608C22.0945 2.73459 22.3559 2.91962 22.4846 3.05717C23.0051 3.61355 22.9879 3.36775 22.9885 10.2821C22.9888 14.3303 23.0209 16.7259 23.0778 16.9309C23.3179 17.7973 24.4507 17.9554 24.8516 17.1784C25.0503 16.7932 25.0491 4.16264 24.8503 3.39749C24.51 2.08804 23.3814 0.955965 22.0768 0.615387C21.3292 0.420187 3.5968 0.423578 2.8716 0.619039ZM19.0686 8.24157C18.91 8.39695 17.1799 10.4802 15.2239 12.8707C13.2679 15.2614 11.5171 17.3829 11.3333 17.5854C10.9684 17.9872 10.6013 18.1137 10.221 17.9688C10.0943 17.9205 9.10574 17.0941 8.02418 16.1322C6.94262 15.1703 5.95406 14.3438 5.82741 14.2956C5.09926 14.0181 4.34812 14.7686 4.60749 15.5142C4.72277 15.8458 8.72214 19.4454 9.27993 19.7197C9.56315 19.859 9.87336 19.9215 10.3949 19.9445C11.6289 19.9989 12.1229 19.7106 13.3753 18.2052C15.4378 15.7262 20.3528 9.7117 20.5326 9.44668C20.8296 9.00898 20.7983 8.61615 20.4376 8.25462C20.189 8.00542 20.0809 7.95899 19.7498 7.95899C19.4236 7.95899 19.3081 8.0069 19.0686 8.24157Z" fill="#FF0000"/>
</svg>
