<svg width="55" height="20" viewBox="0 0 55 20" fill="none" xmlns="http://www.w3.org/2000/svg">
<path fill-rule="evenodd" clip-rule="evenodd" d="M16.6549 0.260366C15.6364 0.439742 14.3224 0.945035 11.6864 2.17117C9.71539 3.0879 7.80173 3.93562 7.43387 4.05489C7.066 4.17417 5.59245 4.42551 4.1594 4.61342C0.0381782 5.15378 -0.0711294 5.30032 0.0167758 10.1605C0.0763984 13.4537 0.0779269 13.4637 0.613193 14.1443C1.27038 14.9799 2.02178 15.3522 4.40706 16.0241C6.19249 16.527 6.26454 16.5683 6.59284 17.2753C7.37386 18.9564 9.69895 20.1816 11.6768 19.9542C12.8741 19.8166 14.4023 19.0058 15.1372 18.118L15.7151 17.4199H27.9009H40.0868L41.125 18.4279C43.234 20.4749 46.0651 20.5274 48.2018 18.5589C49.3818 17.4715 49.7533 16.6216 49.7533 15.0085C49.7533 13.3433 49.3688 12.5052 48.073 11.3458C46.02 9.50906 42.8583 9.66692 40.9651 11.7009C40.0717 12.661 39.7291 13.4687 39.6557 14.7883L39.597 15.8432L27.937 15.8911L16.2769 15.9388L16.1778 14.7388C15.9886 12.4512 14.4162 10.6692 12.1534 10.1776C9.50518 9.60218 6.8814 11.2303 6.17568 13.8864C5.92171 14.8415 5.99471 14.8304 3.92932 14.2296C1.97419 13.6609 1.70188 13.3607 1.56696 11.6274C1.47849 10.4926 1.51078 10.1793 1.72137 10.1225C2.95587 9.78953 3.13817 9.68677 3.19665 9.29054C3.28169 8.71291 2.90943 8.3306 2.26218 8.3306C1.96579 8.3306 1.6713 8.24861 1.60748 8.14825C1.41026 7.83866 1.72175 6.69303 2.03458 6.57654C2.19759 6.51588 3.28551 6.33817 4.45235 6.18161C6.6968 5.88055 8.14017 5.53237 9.51321 4.96123L10.3506 4.61287L11.376 5.55426C11.94 6.07217 12.8687 6.70342 13.4397 6.95718C14.326 7.35099 14.7078 7.41053 16.0476 7.36453C17.2949 7.32149 17.6605 7.24377 17.8275 6.98574C18.2233 6.3749 17.7493 6.02172 16.396 5.91914C14.9893 5.81248 15.0394 5.96792 15.6213 3.50768C15.933 2.19046 15.9857 2.10476 16.6129 1.89497C17.0106 1.76215 18.4811 1.6694 20.2915 1.66309L23.3076 1.65271L23.2535 3.73955L23.1995 5.82639L21.6904 5.91914C20.531 5.99037 20.1327 6.08701 19.9716 6.3365C19.8189 6.57246 19.8193 6.74979 19.9724 6.98574C20.1681 7.28699 21.0005 7.31797 31.5329 7.41591C40.924 7.50328 43.2554 7.57674 45.0433 7.842C47.8163 8.25343 50.5299 8.92307 51.5976 9.45972L52.4375 9.88191L51.7918 10.0151C50.9087 10.1974 50.6037 10.6897 50.9983 11.2956C51.1088 11.4653 51.603 11.6078 52.2854 11.6666L53.393 11.7623L53.4549 12.6898C53.4891 13.1999 53.4602 14.065 53.3907 14.6123C53.2705 15.5605 53.2288 15.621 52.5069 15.8963C51.8275 16.1552 51.7553 16.2441 51.8067 16.7562C51.8577 17.263 51.9395 17.333 52.533 17.3777C53.4272 17.4454 54.3909 16.8468 54.7568 15.9966C54.9776 15.4839 55.0316 14.7631 54.9841 12.9708C54.9246 10.727 54.895 10.576 54.3431 9.70624C53.8667 8.95572 53.5197 8.67507 52.3819 8.12099C50.1502 7.03379 46.3728 6.26435 41.9271 5.99111C40.7709 5.92006 39.653 5.75942 39.4428 5.63403C39.2326 5.50863 37.5987 4.50305 35.8119 3.39935C32.2206 1.18099 30.6846 0.472575 28.8334 0.181159C27.0616 -0.0980135 18.3697 -0.0412518 16.6549 0.260366ZM30.4818 2.23721C31.7129 2.72673 36.4712 5.54054 36.4772 5.7828C36.4793 5.8607 33.8794 5.90244 30.7001 5.87554L24.9193 5.82639L24.8651 3.71655L24.8108 1.60652L27.0627 1.68999C28.8946 1.7577 29.5323 1.85991 30.4818 2.23721ZM13.8878 3.87867C13.7778 4.4398 13.622 4.97013 13.5416 5.05713C13.4609 5.14413 13.0646 4.92116 12.6606 4.56185C12.2566 4.20236 11.9686 3.87014 12.0208 3.82339C12.1521 3.70597 14.0197 2.79481 14.0571 2.83006C14.074 2.84564 13.9977 3.31754 13.8878 3.87867ZM12.8654 12.1151C15.8326 13.8031 14.6365 18.3328 11.2205 18.3445C9.62634 18.3498 8.62785 17.7496 7.98614 16.3997C6.91236 14.1413 8.55982 11.6738 11.1435 11.6707C11.7915 11.6699 12.3248 11.8076 12.8654 12.1151ZM45.9755 11.8669C46.6346 12.1086 47.5062 12.8892 47.8681 13.5616C48.2861 14.3381 48.21 15.8534 47.7099 16.7173C46.8935 18.1272 44.9097 18.7483 43.3034 18.0968C41.3179 17.2916 40.6247 14.6316 41.9733 12.9925C42.9535 11.8012 44.5625 11.3486 45.9755 11.8669ZM18.3664 12.818C18.0593 13.116 18.0733 13.6147 18.396 13.8745C18.5841 14.0261 21.2789 14.0712 28.0734 14.0365C36.8024 13.9918 37.5056 13.9645 37.7011 13.6636C37.855 13.4269 37.855 13.2511 37.7011 13.0144C37.5056 12.7135 36.8011 12.6863 28.0438 12.6417C20.8558 12.6052 18.5422 12.6473 18.3664 12.818ZM10.5065 14.5297C9.82183 15.2072 9.69934 15.4325 9.80157 15.8282C10.0083 16.6275 10.8526 16.4791 11.8049 15.4763C12.6803 14.5546 12.673 14.5716 12.3957 14.0688C12.0705 13.4791 11.4047 13.6416 10.5065 14.5297ZM43.4878 13.8337C43.1686 14.1433 43.4257 14.7809 44.1645 15.5116C45.0385 16.376 45.7068 16.5325 46.029 15.9482C46.3063 15.4453 46.3135 15.4624 45.4381 14.5407C44.8773 13.95 44.4998 13.71 44.1322 13.71C43.8478 13.71 43.5577 13.7657 43.4878 13.8337Z" fill="#2B479D"/>
</svg>
