<svg width="26" height="26" viewBox="0 0 26 26" fill="none" xmlns="http://www.w3.org/2000/svg">
<path d="M5.95703 23.8327C5.5237 23.8327 5.14453 23.6702 4.81953 23.3452C4.49453 23.0202 4.33203 22.641 4.33203 22.2077V8.12435C4.33203 7.69102 4.49453 7.31185 4.81953 6.98685C5.14453 6.66185 5.5237 6.49935 5.95703 6.49935H8.9362V6.22852C8.9362 5.09102 9.32891 4.12956 10.1143 3.34414C10.8997 2.55872 11.8612 2.16602 12.9987 2.16602C14.1362 2.16602 15.0977 2.55872 15.8831 3.34414C16.6685 4.12956 17.0612 5.09102 17.0612 6.22852V6.49935H20.0404C20.4737 6.49935 20.8529 6.66185 21.1779 6.98685C21.5029 7.31185 21.6654 7.69102 21.6654 8.12435V22.2077C21.6654 22.641 21.5029 23.0202 21.1779 23.3452C20.8529 23.6702 20.4737 23.8327 20.0404 23.8327H5.95703ZM10.5612 6.22852V6.49935H15.4362V6.22852C15.4362 5.5424 15.2015 4.96463 14.732 4.49518C14.2626 4.02574 13.6848 3.79102 12.9987 3.79102C12.3126 3.79102 11.7348 4.02574 11.2654 4.49518C10.7959 4.96463 10.5612 5.5424 10.5612 6.22852ZM5.95703 22.2077H20.0404V8.12435H17.0612V10.5618C17.0612 10.7966 16.9845 10.9907 16.831 11.1441C16.6775 11.2976 16.4834 11.3743 16.2487 11.3743C16.014 11.3743 15.8199 11.2976 15.6664 11.1441C15.5129 10.9907 15.4362 10.7966 15.4362 10.5618V8.12435H10.5612V10.5618C10.5612 10.7966 10.4845 10.9907 10.331 11.1441C10.1775 11.2976 9.98342 11.3743 9.7487 11.3743C9.51397 11.3743 9.31988 11.2976 9.1664 11.1441C9.01293 10.9907 8.9362 10.7966 8.9362 10.5618V8.12435H5.95703V22.2077ZM5.95703 22.2077V8.12435V22.2077Z" fill="white"/>
</svg>
