<svg width="26" height="26" viewBox="0 0 26 26" fill="none" xmlns="http://www.w3.org/2000/svg">
<path d="M13.0013 22.7232L11.8909 21.7211C8.94783 19.0308 6.59158 16.6836 4.82214 14.6794C3.05269 12.6753 2.16797 10.644 2.16797 8.58568C2.16797 6.96068 2.71415 5.602 3.80651 4.50964C4.89887 3.41727 6.24852 2.87109 7.85547 2.87109C8.7763 2.87109 9.68811 3.09227 10.5909 3.53464C11.4937 3.977 12.2971 4.70373 13.0013 5.71484C13.7957 4.70373 14.6173 3.977 15.4659 3.53464C16.3145 3.09227 17.2082 2.87109 18.1471 2.87109C19.7541 2.87109 21.1037 3.41727 22.1961 4.50964C23.2885 5.602 23.8346 6.96068 23.8346 8.58568C23.8346 10.644 22.9499 12.6753 21.1805 14.6794C19.411 16.6836 17.0548 19.0308 14.1117 21.7211L13.0013 22.7232ZM13.0013 20.5836C15.7457 18.0558 17.9666 15.8621 19.6638 14.0023C21.361 12.1426 22.2096 10.3371 22.2096 8.58568C22.2096 7.39401 21.826 6.4145 21.0586 5.64714C20.2912 4.87977 19.3207 4.49609 18.1471 4.49609C17.2444 4.49609 16.3957 4.77596 15.6013 5.33568C14.8069 5.8954 14.1569 6.69887 13.6513 7.74609H12.3242C11.8367 6.69887 11.1912 5.8954 10.3878 5.33568C9.58429 4.77596 8.74019 4.49609 7.85547 4.49609C6.6638 4.49609 5.6888 4.87977 4.93047 5.64714C4.17214 6.4145 3.79297 7.39401 3.79297 8.58568C3.79297 10.3371 4.64158 12.1426 6.3388 14.0023C8.03602 15.8621 10.2569 18.0558 13.0013 20.5836Z" fill="white"/>
</svg>
