<svg width="26" height="26" viewBox="0 0 26 26" fill="none" xmlns="http://www.w3.org/2000/svg">
<path d="M6.0138 19.0931C7.1513 18.2987 8.27977 17.6893 9.39922 17.265C10.5187 16.8407 11.7194 16.6285 13.0013 16.6285C14.2832 16.6285 15.4885 16.8407 16.6169 17.265C17.7454 17.6893 18.8784 18.2987 20.0159 19.0931C20.8103 18.1181 21.3746 17.1341 21.7086 16.141C22.0426 15.148 22.2096 14.1007 22.2096 12.9993C22.2096 10.3813 21.3294 8.19206 19.569 6.43164C17.8086 4.67122 15.6194 3.79102 13.0013 3.79102C10.3832 3.79102 8.19401 4.67122 6.43359 6.43164C4.67318 8.19206 3.79297 10.3813 3.79297 12.9993C3.79297 14.1007 3.9645 15.148 4.30755 16.141C4.65061 17.1341 5.21936 18.1181 6.0138 19.0931ZM13.0013 13.8118C11.9541 13.8118 11.0739 13.4553 10.3607 12.7421C9.64748 12.0289 9.29089 11.1487 9.29089 10.1014C9.29089 9.05421 9.64748 8.174 10.3607 7.46081C11.0739 6.74761 11.9541 6.39102 13.0013 6.39102C14.0485 6.39102 14.9287 6.74761 15.6419 7.46081C16.3551 8.174 16.7117 9.05421 16.7117 10.1014C16.7117 11.1487 16.3551 12.0289 15.6419 12.7421C14.9287 13.4553 14.0485 13.8118 13.0013 13.8118ZM13.0013 23.8327C11.5207 23.8327 10.1214 23.5483 8.80339 22.9796C7.48533 22.4108 6.33429 21.6344 5.35026 20.6504C4.36623 19.6664 3.58984 18.5153 3.02109 17.1973C2.45234 15.8792 2.16797 14.4799 2.16797 12.9993C2.16797 11.5007 2.45234 10.0969 3.02109 8.78789C3.58984 7.47886 4.36623 6.33234 5.35026 5.34831C6.33429 4.36428 7.48533 3.58789 8.80339 3.01914C10.1214 2.45039 11.5207 2.16602 13.0013 2.16602C14.4999 2.16602 15.9037 2.45039 17.2128 3.01914C18.5218 3.58789 19.6683 4.36428 20.6523 5.34831C21.6364 6.33234 22.4128 7.47886 22.9815 8.78789C23.5503 10.0969 23.8346 11.5007 23.8346 12.9993C23.8346 14.4799 23.5503 15.8792 22.9815 17.1973C22.4128 18.5153 21.6364 19.6664 20.6523 20.6504C19.6683 21.6344 18.5218 22.4108 17.2128 22.9796C15.9037 23.5483 14.4999 23.8327 13.0013 23.8327ZM13.0013 22.2077C13.9944 22.2077 14.9648 22.0632 15.9128 21.7743C16.8607 21.4855 17.7951 20.9799 18.7159 20.2577C17.7951 19.6077 16.8562 19.1112 15.8992 18.7681C14.9423 18.425 13.9763 18.2535 13.0013 18.2535C12.0263 18.2535 11.0603 18.425 10.1034 18.7681C9.14644 19.1112 8.20755 19.6077 7.28672 20.2577C8.20755 20.9799 9.14193 21.4855 10.0898 21.7743C11.0378 22.0632 12.0082 22.2077 13.0013 22.2077ZM13.0013 12.1868C13.6152 12.1868 14.1162 11.9928 14.5044 11.6046C14.8926 11.2164 15.0867 10.7153 15.0867 10.1014C15.0867 9.48754 14.8926 8.9865 14.5044 8.59831C14.1162 8.21011 13.6152 8.01602 13.0013 8.01602C12.3874 8.01602 11.8864 8.21011 11.4982 8.59831C11.11 8.9865 10.9159 9.48754 10.9159 10.1014C10.9159 10.7153 11.11 11.2164 11.4982 11.6046C11.8864 11.9928 12.3874 12.1868 13.0013 12.1868Z" fill="white"/>
</svg>
