<svg width="22" height="21" viewBox="0 0 22 21"   xmlns="http://www.w3.org/2000/svg">
<path d="M10.9993 20.2448L9.88893 19.2398C6.94588 16.5417 4.58963 14.1877 2.82018 12.1777C1.05074 10.1677 0.166016 8.1305 0.166016 6.06618C0.166016 4.43645 0.712196 3.07381 1.80456 1.97827C2.89692 0.882731 4.24657 0.334961 5.85352 0.334961C6.77435 0.334961 7.68615 0.556785 8.58893 1.00043C9.49171 1.44408 10.2952 2.17293 10.9993 3.18699C11.7938 2.17293 12.6153 1.44408 13.4639 1.00043C14.3125 0.556785 15.2063 0.334961 16.1452 0.334961C17.7521 0.334961 19.1018 0.882731 20.1941 1.97827C21.2865 3.07381 21.8327 4.43645 21.8327 6.06618C21.8327 8.1305 20.948 10.1677 19.1785 12.1777C17.4091 14.1877 15.0528 16.5417 12.1098 19.2398L10.9993 20.2448ZM10.9993 18.099C13.7438 15.5639 15.9646 13.3637 17.6618 11.4986C19.3591 9.63348 20.2077 7.82267 20.2077 6.06618C20.2077 4.87104 19.824 3.88868 19.0566 3.11908C18.2893 2.34949 17.3188 1.96469 16.1452 1.96469C15.2424 1.96469 14.3938 2.24537 13.5993 2.80672C12.8049 3.36807 12.1549 4.17388 11.6494 5.22415H10.3223C9.83477 4.17388 9.18928 3.36807 8.38581 2.80672C7.58233 2.24537 6.73824 1.96469 5.85352 1.96469C4.66185 1.96469 3.68685 2.34949 2.92852 3.11908C2.17018 3.88868 1.79102 4.87104 1.79102 6.06618C1.79102 7.82267 2.63963 9.63348 4.33685 11.4986C6.03407 13.3637 8.2549 15.5639 10.9993 18.099Z"  />
</svg>
