<svg width="15" height="15" viewBox="0 0 15 15" xmlns="http://www.w3.org/2000/svg">
<g clip-path="url(#clip0_35_18852)">
<path d="M7.8125 15C5.5725 15 3.75 13.1775 3.75 10.9375V7.8125C3.75 7.64 3.89 7.5 4.0625 7.5C4.235 7.5 4.375 7.64 4.375 7.8125V10.9375C4.375 12.8331 5.9175 14.375 7.8125 14.375C9.7075 14.375 11.25 12.8331 11.25 10.9375V10.3125C11.25 10.14 11.39 10 11.5625 10C11.735 10 11.875 10.14 11.875 10.3125V10.9375C11.875 13.1775 10.0525 15 7.8125 15Z" />
<path d="M4.6875 8.12501H3.4375C1.88687 8.12501 0.625 6.86314 0.625 5.31251V4.0625C0.625 3.20125 1.32562 2.5 2.1875 2.5H5.9375C6.79937 2.5 7.5 3.20125 7.5 4.0625V5.31251C7.5 6.86314 6.23812 8.12501 4.6875 8.12501ZM2.1875 3.125C1.67062 3.125 1.25 3.54563 1.25 4.0625V5.31251C1.25 6.51876 2.23125 7.50001 3.4375 7.50001H4.6875C5.89375 7.50001 6.875 6.51876 6.875 5.31251V4.0625C6.875 3.54563 6.45437 3.125 5.9375 3.125H2.1875Z" />
<path d="M2.8125 3.125C2.64 3.125 2.5 2.985 2.5 2.8125V0.3125C2.5 0.14 2.64 0 2.8125 0C2.985 0 3.125 0.14 3.125 0.3125V2.8125C3.125 2.985 2.985 3.125 2.8125 3.125Z" />
<path d="M5.3125 3.125C5.14 3.125 5 2.985 5 2.8125V0.3125C5 0.14 5.14 0 5.3125 0C5.485 0 5.62501 0.14 5.62501 0.3125V2.8125C5.62501 2.985 5.485 3.125 5.3125 3.125Z" />
<path d="M5.3125 5H2.8125C2.64 5 2.5 4.86 2.5 4.6875C2.5 4.515 2.64 4.375 2.8125 4.375H5.3125C5.485 4.375 5.625 4.515 5.625 4.6875C5.625 4.86 5.485 5 5.3125 5Z" />
<path d="M10.9372 8.75001C10.8997 8.75001 10.8629 8.74376 10.8266 8.73001C10.6866 8.67751 10.6047 8.53313 10.6291 8.38626L11.1935 5.00001H9.68722C9.56972 5.00001 9.46347 4.93501 9.40972 4.83063C9.35597 4.72626 9.36535 4.60126 9.43285 4.50563L12.5579 0.130635C12.6447 0.0106346 12.8035 -0.0324904 12.9366 0.0256346C13.0716 0.0843846 13.1472 0.229385 13.1185 0.37376L12.5685 3.12501H14.0622C14.176 3.12501 14.281 3.18688 14.336 3.28626C14.391 3.38563 14.3879 3.50688 14.3272 3.60313L11.2022 8.60314C11.1435 8.69689 11.0422 8.75001 10.9372 8.75001ZM10.2947 4.37501H11.5622C11.6541 4.37501 11.741 4.41501 11.801 4.48563C11.8604 4.55563 11.886 4.64813 11.8704 4.73876L11.5029 6.94188L13.4985 3.75001H12.1872C12.0941 3.75001 12.0047 3.70813 11.9454 3.63563C11.886 3.56313 11.8622 3.46813 11.881 3.37626L12.2204 1.67876L10.2947 4.37501Z" />
</g>
<defs>
<clipPath id="clip0_35_18852">
<rect width="15" height="15" rx="5" />
</clipPath>
</defs>
</svg>
