<svg width="15" height="15" viewBox="0 0 15 15"  xmlns="http://www.w3.org/2000/svg">
<path d="M11.8158 1.98886L10.3145 1.63786C10.231 1.40817 10.1655 1.16677 10.1322 0.923407C10.1114 0.771363 10.0176 0.63912 9.88099 0.569215C8.47684 -0.149319 6.73729 -0.215 5.21891 0.529436C5.20066 0.544133 4.90033 0.634925 4.88317 0.962452C4.87082 1.19784 4.8348 1.4153 4.78349 1.61466L3.18294 1.98886C2.93054 2.04788 2.77374 2.30034 2.83273 2.55277C2.89158 2.80437 3.14339 2.96211 3.39664 2.90297L4.28095 2.69621C4.10946 2.93791 3.95281 3.08925 3.8922 3.14396C3.65324 3.35957 3.48928 3.64981 3.4305 3.96129C3.40741 4.08362 3.43387 4.21011 3.50407 4.31293C3.67524 4.56369 3.88097 4.82606 4.12474 5.07899C3.96205 6.33893 3.80332 8.4896 4.2701 10.2701C4.32214 10.4685 4.32457 10.3829 5.93357 12.155V13.3781C5.93357 14.2724 6.66117 15 7.55551 15C8.44985 15 9.17745 14.2724 9.17745 13.3781V12.155C10.7819 10.3879 10.7887 10.4692 10.8409 10.2701C11.3077 8.48957 11.149 6.3389 10.9863 5.07899C11.2301 4.82606 11.4358 4.56371 11.6069 4.31296C11.6771 4.21014 11.7036 4.08368 11.6805 3.96135C11.6218 3.6499 11.4578 3.35957 11.2188 3.14393C11.1379 3.07088 11.0167 2.92758 10.8839 2.73505C11.6156 2.90209 11.6149 2.91541 11.7094 2.91541C11.9225 2.91541 12.1154 2.76926 12.166 2.55279C12.225 2.30034 12.0682 2.04785 11.8158 1.98886ZM8.58907 8.33503C7.98186 7.8332 7.11795 7.84241 6.52186 8.33503C6.56328 7.76364 6.63694 7.14157 6.74281 6.47281C7.2623 6.55507 7.86637 6.55225 8.36812 6.47281C8.47402 7.14157 8.54765 7.76364 8.58907 8.33503ZM8.26721 5.53629C6.81489 5.78931 5.40428 5.29029 4.41431 3.97214C4.44244 3.9238 4.47846 3.87927 4.52103 3.84087C4.71913 3.66213 5.23352 3.13926 5.55439 2.29001C6.46389 3.77566 8.61421 3.79332 9.54334 2.31066C9.56121 2.33422 9.58136 2.3561 9.60348 2.37602C9.90575 3.03735 10.3045 3.58334 10.5899 3.84084C10.6325 3.87927 10.6685 3.92377 10.6967 3.97214C10.2014 4.63157 9.41978 5.33397 8.26721 5.53629ZM8.95632 1.18989C8.89504 1.90898 8.29018 2.47541 7.55548 2.47541C6.81046 2.47541 6.19891 1.89284 6.15238 1.15935C7.04916 0.859662 8.04054 0.861774 8.95632 1.18989ZM4.98751 5.79717C5.24244 5.96367 5.52314 6.11114 5.83134 6.22957C5.56113 7.89847 5.48096 9.29265 5.59108 10.3988L5.14988 9.92039C4.81898 8.56253 4.87261 6.96118 4.98751 5.79717ZM8.23867 13.3781C8.23867 13.7548 7.93217 14.0613 7.55545 14.0613C7.17873 14.0613 6.87224 13.7548 6.87224 13.3781C6.87224 12.7603 6.87224 9.7599 6.87224 9.58409C6.87224 9.20737 7.17873 8.90088 7.55545 8.90088C7.93217 8.90088 8.23867 9.20737 8.23867 9.58409V13.3781ZM9.96105 9.92039L9.51985 10.3988C9.62997 9.29262 9.5498 7.89844 9.27959 6.22951C9.58779 6.11108 9.86849 5.96361 10.1234 5.79711C10.2384 6.96113 10.292 8.5625 9.96105 9.92039Z" />
</svg>
