<svg width="15" height="15" viewBox="0 0 15 15"  xmlns="http://www.w3.org/2000/svg">
<g clip-path="url(#clip0_35_18829)">
<path d="M11.1782 0.299861L10.2459 1.23212L9.31363 0.299861C8.91381 -0.0999536 8.26325 -0.0999536 7.8634 0.299861L0.299861 7.86317C-0.0999536 8.26298 -0.0999536 8.91352 0.299861 9.31333L1.23215 10.2456L0.299861 11.1778C0.12824 11.3495 0.12824 11.6277 0.299861 11.7993L3.20028 14.6997C3.3719 14.8713 3.65016 14.8713 3.82181 14.6997L4.7541 13.7674L5.68638 14.6997C5.88006 14.8934 6.13758 15 6.41151 15C6.68543 15 6.94295 14.8933 7.13658 14.6997L7.96492 13.8714C7.96503 13.8713 7.96518 13.8712 7.9653 13.871C7.96542 13.8709 7.9655 13.8708 7.96562 13.8706L13.8714 7.96509C13.8714 7.96509 13.8714 7.96506 13.8715 7.96503L13.8715 7.96498L14.7002 7.13634C15.1 6.73653 15.1 6.08599 14.7002 5.68618L13.7679 4.75392L14.7002 3.82167C14.8718 3.65005 14.8718 3.37178 14.7002 3.20016L11.7998 0.299832C11.6281 0.12824 11.3498 0.12824 11.1782 0.299861ZM4.54694 9.83124L9.83157 4.54679L10.4531 5.1683L5.16847 10.4528L4.54694 9.83124ZM5.78998 11.0743L11.0746 5.78977L11.6961 6.41127L6.41148 11.6958L5.78998 11.0743ZM9.21003 3.92529L3.92541 9.20974L3.30387 8.58824L8.5885 3.30379L9.21003 3.92529ZM7.03301 12.3172L12.3176 7.03278L12.9392 7.65428L7.65452 12.9387L7.03301 12.3172ZM7.967 2.68228L2.68237 7.96673L2.06084 7.34523L7.34549 2.06078L7.967 2.68228ZM3.51106 13.7674L1.23215 11.4886L1.85368 10.8671L4.13259 13.1459L3.51106 13.7674ZM6.51502 14.0782C6.43295 14.1391 6.38998 14.1391 6.30789 14.0782L0.921394 8.69183C0.864265 8.63473 0.864265 8.54177 0.921394 8.48467L1.43933 7.96676L7.03298 13.5602L6.51502 14.0782ZM14.0786 6.30771C14.1357 6.36481 14.1357 6.45777 14.0786 6.51487L13.5607 7.03278L7.967 1.43927L8.48494 0.921364C8.54207 0.864265 8.635 0.864265 8.69212 0.921364L14.0786 6.30771ZM13.7679 3.51094L13.1463 4.13245L10.8674 1.85362L11.4889 1.23212L13.7679 3.51094Z" />
</g>
<defs>
<clipPath id="clip0_35_18829">
<rect width="15" height="15" rx="5" />
</clipPath>
</defs>
</svg>
