<svg width="15" height="15" viewBox="0 0 15 15"  xmlns="http://www.w3.org/2000/svg">
<path d="M7.5 0C3.35496 0 0 3.3544 0 7.5C0 11.645 3.3544 15 7.5 15C11.645 15 15 11.6456 15 7.5C15 3.35499 11.6456 0 7.5 0ZM7.5 14.1211C3.84076 14.1211 0.878906 11.1598 0.878906 7.5C0.878906 3.84076 3.84018 0.878906 7.5 0.878906C11.1592 0.878906 14.1211 3.84018 14.1211 7.5C14.1211 11.1592 11.1598 14.1211 7.5 14.1211Z" />
<path d="M7.5 2.92969C4.97168 2.92969 2.92969 4.98732 2.92969 7.5C2.92969 10.0048 4.96377 12.0703 7.5 12.0703C10.0319 12.0703 12.0703 10.0098 12.0703 7.5C12.0703 4.98932 10.0296 2.92969 7.5 2.92969ZM7.93945 3.83487C8.96461 3.95701 9.86218 4.50079 10.4531 5.28759L8.64823 6.32965C8.453 6.13808 8.21024 5.99505 7.93945 5.91964V3.83487ZM7.06055 3.83484V5.91961C6.78979 5.99499 6.547 6.13805 6.35177 6.32962L4.54687 5.28759C5.13782 4.50079 6.03539 3.95701 7.06055 3.83484ZM4.10634 8.95192C3.91485 8.50603 3.80859 8.01521 3.80859 7.5C3.80859 6.98479 3.91485 6.49397 4.10634 6.04811L5.9112 7.09017C5.87739 7.22118 5.85938 7.35853 5.85938 7.5C5.85938 7.64147 5.87739 7.77882 5.9112 7.90986L4.10634 8.95192ZM7.06055 11.1651C6.03539 11.043 5.13782 10.4992 4.54687 9.71241L6.35177 8.67035C6.547 8.86192 6.78976 9.00498 7.06055 9.08036V11.1651ZM6.73828 7.5C6.73828 7.07997 7.08 6.73828 7.5 6.73828C7.92003 6.73828 8.26172 7.07997 8.26172 7.5C8.26172 7.92003 7.92003 8.26172 7.5 8.26172C7.08 8.26172 6.73828 7.92003 6.73828 7.5ZM7.93945 11.1652V9.08039C8.21024 9.00501 8.453 8.86195 8.64823 8.67038L10.4531 9.71244C9.86218 10.4992 8.96461 11.043 7.93945 11.1652ZM9.0888 7.90986C9.12264 7.77882 9.14062 7.64147 9.14062 7.5C9.14062 7.35853 9.12261 7.22118 9.0888 7.09014L10.8937 6.04811C11.0851 6.49397 11.1914 6.98479 11.1914 7.5C11.1914 8.01521 11.0851 8.50603 10.8937 8.95189L9.0888 7.90986Z" />
</svg>
