<svg width="15" height="15" viewBox="0 0 15 15" xmlns="http://www.w3.org/2000/svg">
<path d="M12.7661 3.08914H10.5945V1.9429C10.5945 1.11497 9.92092 0.441406 9.09299 0.441406H5.90701C5.07908 0.441406 4.40552 1.11497 4.40552 1.9429V3.08911H2.23386C1.0021 3.08914 0 4.09124 0 5.323V12.325C0 13.5568 1.0021 14.5589 2.23386 14.5589H12.7661C13.9979 14.5589 15 13.5568 15 12.325V5.323C15 4.09124 13.9979 3.08914 12.7661 3.08914ZM5.28442 1.9429C5.28442 1.5996 5.56371 1.32031 5.90701 1.32031H9.09299C9.43629 1.32031 9.71558 1.5996 9.71558 1.9429V3.08911H5.28442V1.9429ZM0.878906 12.325V5.323C0.878906 4.72968 1.2624 4.22457 1.7944 4.04161V13.6064C1.2624 13.4234 0.878906 12.9183 0.878906 12.325ZM2.67331 13.68V3.96804H12.3267V13.68H2.67331ZM14.1211 12.325C14.1211 12.9183 13.7376 13.4234 13.2056 13.6064V4.04158C13.7376 4.22457 14.1211 4.72968 14.1211 5.323V12.325Z" />
<path d="M10.1489 7.50147H8.82324V6.17578C8.82324 5.93309 8.62648 5.73633 8.38379 5.73633H6.61865C6.37596 5.73633 6.1792 5.93309 6.1792 6.17578V7.50147H4.85352C4.61082 7.50147 4.41406 7.69822 4.41406 7.94092V9.70606C4.41406 9.94875 4.61082 10.1455 4.85352 10.1455H6.1792V11.4712C6.1792 11.7139 6.37596 11.9106 6.61865 11.9106H8.38379C8.62648 11.9106 8.82324 11.7139 8.82324 11.4712V10.1455H10.1489C10.3916 10.1455 10.5884 9.94875 10.5884 9.70606V7.94092C10.5884 7.69822 10.3916 7.50147 10.1489 7.50147ZM9.70947 9.2666H8.38379C8.14109 9.2666 7.94434 9.46336 7.94434 9.70606V11.0317H7.05811V9.70606C7.05811 9.46336 6.86135 9.2666 6.61865 9.2666H5.29297V8.38037H6.61865C6.86135 8.38037 7.05811 8.18361 7.05811 7.94092V6.61523H7.94434V7.94092C7.94434 8.18361 8.14109 8.38037 8.38379 8.38037H9.70947V9.2666Z" />
</svg>
