<svg width="15" height="15" viewBox="0 0 15 15"  xmlns="http://www.w3.org/2000/svg">
<g clip-path="url(#clip0_35_18834)">
<path d="M6.78286 6.80664C6.00658 6.80664 5.375 7.43881 5.375 8.21582C5.375 8.99286 6.00658 9.62503 6.78286 9.62503C7.55914 9.62503 8.19072 8.99286 8.19072 8.21582C8.19072 7.43881 7.55914 6.80664 6.78286 6.80664ZM6.78286 8.74612C6.49121 8.74612 6.25391 8.50823 6.25391 8.21582C6.25391 7.92341 6.49121 7.68555 6.78286 7.68555C7.07451 7.68555 7.31182 7.92344 7.31182 8.21582C7.31182 8.5082 7.07451 8.74612 6.78286 8.74612Z" />
<path d="M12.5363 2.32122C11.7796 1.58804 10.8987 1.0135 9.91793 0.613506C8.91967 0.206426 7.86516 0 6.78363 0C6.54135 0 6.3448 0.196084 6.34418 0.43834L6.34166 1.44683C4.696 1.55194 3.16342 2.24309 1.98691 3.41962C0.705615 4.70089 0 6.40441 0 8.21637C0 10.0283 0.705615 11.7319 1.98688 13.0131C3.26815 14.2944 4.97165 15 6.78363 15C8.59562 15 10.2991 14.2944 11.5804 13.0131C12.7575 11.836 13.4488 10.3024 13.5533 8.65582H14.5605C14.8032 8.65582 15 8.45906 15 8.21637C15 5.95427 14.125 3.86065 12.5363 2.32122ZM6.78363 14.1211C3.52775 14.1211 0.878906 11.4722 0.878906 8.21637C0.878906 5.1099 3.29024 2.55606 6.33943 2.32822L6.33522 4.01798C6.33492 4.13473 6.38109 4.24679 6.46353 4.32943C6.54598 4.41208 6.65795 4.45854 6.77467 4.45854C7.80275 4.45854 8.75297 4.84518 9.45032 5.54722C10.1447 6.24633 10.5272 7.19426 10.5272 8.21637C10.5272 8.45906 10.724 8.65582 10.9667 8.65582H12.6721C12.4466 11.7073 9.89171 14.1211 6.78363 14.1211ZM11.3866 7.77691C11.2894 6.68988 10.8318 5.69089 10.0739 4.92782C9.31154 4.16036 8.30921 3.69729 7.21518 3.59924L7.22194 0.891621C8.03563 0.939023 8.82899 1.11864 9.586 1.42737C10.4622 1.78471 11.2491 2.29781 11.9246 2.95245C13.2378 4.22484 14.004 5.92453 14.1087 7.77694H11.3866V7.77691Z" />
<path d="M6.77407 5.16211C5.09149 5.16211 3.72266 6.53259 3.72266 8.21713C3.72266 9.9017 5.09152 11.2722 6.77407 11.2722C8.45662 11.2722 9.82548 9.9017 9.82548 8.21713C9.82548 6.53259 8.45665 5.16211 6.77407 5.16211ZM6.77407 10.3933C5.57612 10.3933 4.60156 9.41707 4.60156 8.21713C4.60156 7.01722 5.57615 6.04102 6.77407 6.04102C7.97199 6.04102 8.94658 7.01722 8.94658 8.21713C8.94658 9.41707 7.97202 10.3933 6.77407 10.3933Z" />
<path d="M6.7832 12.0195C6.54051 12.0195 6.34375 12.2163 6.34375 12.459V13.0065C6.34375 13.2492 6.54051 13.446 6.7832 13.446C7.0259 13.446 7.22266 13.2492 7.22266 13.0065V12.459C7.22266 12.2163 7.0259 12.0195 6.7832 12.0195Z" />
<path d="M2.51826 7.77734H1.9707C1.72801 7.77734 1.53125 7.9741 1.53125 8.2168C1.53125 8.45949 1.72801 8.65625 1.9707 8.65625H2.51826C2.76096 8.65625 2.95771 8.45949 2.95771 8.2168C2.95771 7.9741 2.76096 7.77734 2.51826 7.77734Z" />
<path d="M3.4534 10.7967L3.06622 11.1839C2.89459 11.3555 2.89459 11.6337 3.06622 11.8053C3.15203 11.8912 3.2645 11.9341 3.37694 11.9341C3.48938 11.9341 3.60188 11.8912 3.68766 11.8053L4.07485 11.4182C4.24647 11.2465 4.24647 10.9683 4.07485 10.7967C3.90326 10.6251 3.625 10.6251 3.4534 10.7967Z" />
<path d="M10.1486 10.7967C9.97704 10.6251 9.69878 10.6251 9.52715 10.7967C9.35553 10.9683 9.35553 11.2465 9.52715 11.4182L9.91434 11.8053C10.0002 11.8912 10.1126 11.9341 10.2251 11.9341C10.3375 11.9341 10.45 11.8912 10.5358 11.8053C10.7074 11.6337 10.7074 11.3555 10.5358 11.1839L10.1486 10.7967Z" />
<path d="M3.56281 5.45574C3.64862 5.54155 3.76109 5.58447 3.87353 5.58447C3.98597 5.58447 4.09847 5.54158 4.18425 5.45574C4.35588 5.28412 4.35588 5.00589 4.18425 4.83426L3.79707 4.44708C3.62547 4.27545 3.34721 4.27545 3.17559 4.44708C3.00397 4.6187 3.00397 4.89693 3.17559 5.06855L3.56281 5.45574Z" />
</g>
<defs>
<clipPath id="clip0_35_18834">
<rect width="15" height="15" rx="5" />
</clipPath>
</defs>
</svg>
