<svg width="15" height="15" viewBox="0 0 15 15" xmlns="http://www.w3.org/2000/svg">
<path d="M11.0156 14.0628C10.1109 14.0628 9.375 13.3269 9.375 12.4222V6.2661C8.50078 5.70876 7.96875 4.75017 7.96875 3.70063C7.96875 2.5522 8.60531 1.51345 9.63 0.988917C9.77578 0.914854 9.94922 0.920948 10.0884 1.00626C10.2277 1.09204 10.3125 1.24298 10.3125 1.40657V3.43298L11.0156 3.71423L11.7188 3.43298V1.40657C11.7188 1.24298 11.8036 1.09204 11.9428 1.00626C12.082 0.920948 12.2555 0.914854 12.4012 0.988917C13.4259 1.51392 14.0625 2.5522 14.0625 3.7011C14.0625 4.75017 13.5305 5.70876 12.6562 6.26657V12.4222C12.6562 13.3269 11.9203 14.0628 11.0156 14.0628ZM9.375 2.37501C9.07641 2.74298 8.90625 3.20704 8.90625 3.70063C8.90625 4.4947 9.34734 5.21423 10.0575 5.57798C10.2141 5.65813 10.3125 5.81938 10.3125 5.99517V12.4222C10.3125 12.8099 10.628 13.1253 11.0156 13.1253C11.4033 13.1253 11.7188 12.8099 11.7188 12.4222V5.99517C11.7188 5.81938 11.8172 5.65813 11.9738 5.57798C12.6839 5.21423 13.125 4.49517 13.125 3.7011C13.125 3.20751 12.9548 2.74345 12.6562 2.37548V3.75032C12.6562 3.94204 12.5395 4.11407 12.3619 4.18579L11.19 4.65454C11.078 4.69954 10.9537 4.69954 10.8417 4.65454L9.66984 4.18579C9.49172 4.11407 9.375 3.94204 9.375 3.75032V2.37501Z" />
<path d="M8.00344 14.0625H6.99703C6.51 14.0625 6.09938 13.6823 6.06234 13.1972L6.00328 12.4308C5.68172 12.3333 5.37047 12.2039 5.07281 12.0445L4.48875 12.5447C4.11891 12.862 3.56016 12.84 3.21609 12.4964L2.50359 11.7834C2.15953 11.4394 2.13797 10.8802 2.45484 10.5103L2.955 9.92672C2.79563 9.62906 2.66625 9.31781 2.56875 8.99625L1.80281 8.93766C1.31766 8.90109 0.9375 8.49047 0.9375 8.00344V6.99656C0.9375 6.50953 1.31766 6.09891 1.80328 6.06187L2.56922 6.00328C2.66672 5.68125 2.79609 5.37 2.95547 5.07281L2.45484 4.48828C2.13797 4.11891 2.15953 3.56016 2.50406 3.21516L3.21563 2.50313C3.56016 2.15859 4.11938 2.1375 4.48875 2.45438L5.07281 2.95453C5.37047 2.79516 5.68172 2.66578 6.00328 2.56828L6.06234 1.80188C6.09938 1.31766 6.51 0.9375 6.99656 0.9375H7.5C7.75875 0.9375 7.96875 1.14703 7.96875 1.40625C7.96875 1.66547 7.75875 1.875 7.5 1.875H6.99656L6.91219 2.97234C6.89625 3.17672 6.74953 3.34687 6.55031 3.39281C6.09703 3.49734 5.66578 3.67594 5.26875 3.92484C5.09578 4.03406 4.87125 4.01766 4.71516 3.88313L3.87844 3.16641L3.16688 3.87891L3.88359 4.71516C4.01719 4.87078 4.03359 5.09531 3.92484 5.26875C3.67641 5.66625 3.49734 6.0975 3.39281 6.55031C3.34688 6.75 3.17625 6.89672 2.97188 6.91219L1.875 6.99656V8.00344L2.97188 8.08781C3.17625 8.10328 3.34688 8.25047 3.39281 8.44969C3.49734 8.90297 3.67594 9.33422 3.92484 9.73125C4.03359 9.90469 4.01672 10.1292 3.88359 10.2848L3.16688 11.1211L3.87891 11.8336L4.71516 11.1169C4.87125 10.9828 5.09578 10.9664 5.26875 11.0752C5.66625 11.3236 6.0975 11.5027 6.55031 11.6072C6.75 11.6536 6.89672 11.8238 6.91219 12.0277L6.99656 13.125H8.00297C8.02266 12.8672 8.24719 12.6745 8.50641 12.6938C8.76469 12.7134 8.95781 12.9389 8.93766 13.1972C8.90063 13.6823 8.49 14.0625 8.00344 14.0625Z" />
<path d="M4.21875 7.50079C4.21875 5.89111 5.36906 4.53032 6.9539 4.26501C7.20844 4.21954 7.45125 4.39439 7.49344 4.64986C7.53609 4.90532 7.36406 5.14673 7.10859 5.18939C5.9775 5.37923 5.15625 6.35142 5.15625 7.50079C5.15625 9.11939 6.76406 10.2481 8.2814 9.71142C8.52422 9.6247 8.79328 9.7522 8.88 9.99642C8.96625 10.2406 8.83875 10.5083 8.59453 10.5945C6.46031 11.3497 4.21875 9.75829 4.21875 7.50079Z" />
</svg>
