<svg width="20" height="20" viewBox="0 0 20 22"  xmlns="http://www.w3.org/2000/svg">
<path d="M9.98102 0.927734C8.04149 0.931439 6.1449 1.50205 4.52224 2.57008C2.89958 3.6381 1.6209 5.15744 0.841948 6.94302C0.0629925 8.72861 -0.182618 10.7034 0.135032 12.6268C0.452683 14.5502 1.31988 16.3392 2.63101 17.776C3.56743 18.7964 4.70395 19.6108 5.96895 20.1678C7.23395 20.7247 8.6 21.0123 9.98102 21.0123C11.362 21.0123 12.7281 20.7247 13.9931 20.1678C15.2581 19.6108 16.3946 18.7964 17.331 17.776C18.6422 16.3392 19.5094 14.5502 19.827 12.6268C20.1447 10.7034 19.899 8.72861 19.1201 6.94302C18.3411 5.15744 17.0625 3.6381 15.4398 2.57008C13.8171 1.50205 11.9205 0.931439 9.98102 0.927734ZM9.98102 19.0225C7.90948 19.0194 5.91993 18.2086 4.43101 16.7607C4.88306 15.6544 5.65205 14.7082 6.64027 14.0423C7.62849 13.3764 8.79132 13.0209 9.98102 13.0209C11.1707 13.0209 12.3335 13.3764 13.3218 14.0423C14.31 14.7082 15.079 15.6544 15.531 16.7607C14.0421 18.2086 12.0526 19.0194 9.98102 19.0225ZM7.98102 8.96987C7.98102 8.57223 8.09831 8.18351 8.31808 7.85288C8.53784 7.52225 8.8502 7.26455 9.21565 7.11238C9.5811 6.96021 9.98324 6.92039 10.3712 6.99797C10.7592 7.07555 11.1155 7.26703 11.3952 7.54821C11.6749 7.82939 11.8654 8.18763 11.9426 8.57764C12.0198 8.96764 11.9802 9.37189 11.8288 9.73927C11.6774 10.1066 11.4211 10.4207 11.0922 10.6416C10.7633 10.8625 10.3766 10.9804 9.98102 10.9804C9.45058 10.9804 8.94188 10.7686 8.5668 10.3915C8.19173 10.0145 7.98102 9.5031 7.98102 8.96987ZM16.891 15.0015C15.9976 13.4652 14.6224 12.2702 12.981 11.6037C13.4902 11.0233 13.822 10.3075 13.9365 9.54231C14.051 8.77708 13.9435 7.99488 13.6268 7.28957C13.3101 6.58425 12.7976 5.9858 12.1509 5.566C11.5042 5.14621 10.7508 4.92292 9.98102 4.92292C9.21123 4.92292 8.45779 5.14621 7.81111 5.566C7.16443 5.9858 6.65198 6.58425 6.33526 7.28957C6.01854 7.99488 5.911 8.77708 6.02554 9.54231C6.14008 10.3075 6.47185 11.0233 6.98101 11.6037C5.33961 12.2702 3.96448 13.4652 3.07101 15.0015C2.35895 13.7822 1.98273 12.3943 1.98101 10.9804C1.98101 8.8475 2.82386 6.80195 4.32416 5.29376C5.82445 3.78556 7.85928 2.93827 9.98102 2.93827C12.1028 2.93827 14.1376 3.78556 15.6379 5.29376C17.1382 6.80195 17.981 8.8475 17.981 10.9804C17.9793 12.3943 17.6031 13.7822 16.891 15.0015Z"/>
</svg>
