<svg width="60" height="84" viewBox="0 0 60 84" fill="none" xmlns="http://www.w3.org/2000/svg">
<mask id="path-1-inside-1_35_36126" fill="white">
<path fill-rule="evenodd" clip-rule="evenodd" d="M4.76545 0.315417C3.33239 0.832154 1.55341 2.39229 0.782494 3.80909L0.118271 5.0297L0.0362461 31.423C-0.0567747 61.3903 -0.148309 60.0765 2.1894 62.2833C4.25755 64.2355 5.28762 64.4399 13.055 64.4399H19.7932L19.9665 67.7242C20.2343 72.7953 21.6739 76.1885 24.9011 79.3552C27.0554 81.4692 30.0856 83.1078 32.8982 83.6797C33.8929 83.8821 38.9959 84 46.7458 84C58.2581 84 59.0492 83.967 59.5105 83.466C59.9571 82.9811 60.002 81.2479 59.9999 64.5628C59.9987 53.6071 59.8763 45.4277 59.6965 44.2959C59.1595 40.9117 57.8854 38.9306 50.0565 29.3058L42.7652 20.3421L42.7587 12.8318C42.7515 4.4826 42.6475 3.93725 40.6983 2.0224C38.6072 -0.0317019 39.5879 0.072813 21.8132 0.0109213C9.70299 -0.0311184 5.51972 0.0436185 4.76545 0.315417ZM24.268 16.4835L24.1908 30.1268L23.1393 30.2946C20.2675 30.7533 17.9554 33.1513 17.608 36.0316C17.3557 38.1242 18.2912 39.9226 21.6299 43.764L24.3394 46.881V54.2009V61.5205H15.2602C5.46682 61.5205 5.33962 61.5027 3.83316 59.9192L3.09018 59.1379L3.01113 32.5756C2.92376 3.16886 2.82866 4.69776 4.82756 3.43978C5.71646 2.88042 6.24576 2.84976 15.0551 2.84509L24.3453 2.84013L24.268 16.4835ZM31.472 18.605C31.472 27.2757 31.3596 34.3699 31.2226 34.3699C31.0853 34.3699 30.3783 33.746 29.6514 32.9831C28.9241 32.2203 28.0334 31.3678 27.6718 31.0884L27.0141 30.5805V16.9047C27.0141 9.38343 27.1032 3.14171 27.2123 3.03486C27.3211 2.92771 28.3241 2.84013 29.4412 2.84013H31.472V18.605ZM37.7043 3.27366C38.1736 3.51218 38.869 4.13606 39.2497 4.66039L39.9419 5.61358L40.0245 24.544C40.0753 36.1653 40.0001 43.4355 39.8302 43.3742C39.6777 43.3191 38.4033 42.0719 36.9985 40.6028L34.4439 37.9316V20.3858V2.84013H35.6475C36.3093 2.84013 37.2348 3.03515 37.7043 3.27366ZM7.24373 7.27852C7.16081 7.49018 7.12872 11.6034 7.17211 16.4186L7.25086 25.1737H8.58822H9.92558V16.1235V7.07329L8.65984 6.98337C7.81642 6.92352 7.34388 7.02191 7.24373 7.27852ZM14.2349 12.4742V18.0211H15.7208H17.2068V12.4742V6.92732H15.7208H14.2349V12.4742ZM48.9349 32.4121C55.3967 40.3903 55.7272 40.8635 56.4845 43.2271C56.9897 44.805 57.0304 46.2782 57.0304 63.0184V81.1051L44.9199 81.0199L32.8093 80.9346L30.792 79.996C28.4136 78.8893 25.6607 76.4305 24.5447 74.4167C23.4115 72.3714 22.8534 69.9258 22.8534 67.0061V64.4399H27.4878C31.9079 64.4399 32.1293 64.4676 32.2812 65.0375C32.6346 66.365 34.4314 69.64 35.5987 71.0845C36.2814 71.9288 37.6045 73.2218 38.5395 73.9575C40.1461 75.2219 42.8255 76.6924 43.5349 76.6985C43.8553 76.7015 44.7582 74.4649 44.5222 74.2535C44.4548 74.1934 43.7162 73.8071 42.8811 73.3949C40.9764 72.4555 38.4238 70.1818 37.0152 68.1709C35.1384 65.4915 34.6653 63.7162 34.4623 58.5955L34.2828 54.0651L27.8851 46.6259C24.3667 42.5346 21.2602 38.862 20.9817 38.4649C19.2931 36.0555 21.8664 32.5087 24.9076 33.0541C26.1386 33.2751 26.0996 33.2374 37.8482 45.5407C42.2543 50.1549 45.9321 53.9265 46.021 53.9221C46.1101 53.9177 46.6486 53.535 47.2174 53.0717L48.252 52.2291L45.5086 49.4434L42.7652 46.6577V35.9887C42.7652 30.1206 42.8657 25.3255 42.9881 25.3325C43.1106 25.3392 45.7868 28.5252 48.9349 32.4121ZM8.29103 46.2399C7.23422 46.6352 7.10227 47.2632 7.10227 51.8969C7.10227 55.9534 7.16319 56.5213 7.64583 56.9501C8.1041 57.3577 8.93921 57.4333 12.9783 57.4333C19.0553 57.4333 18.6927 57.795 18.6927 51.7314C18.6927 48.3915 18.5908 47.1899 18.2716 46.7602C17.89 46.2469 17.4213 46.188 13.2937 46.1334C10.7874 46.1001 8.53621 46.1483 8.29103 46.2399ZM15.7208 51.7404V54.5139H12.8975H10.0742V51.7404V48.967H12.8975H15.7208V51.7404ZM29.5141 52.8872L31.472 55.2017V58.3739V61.5462L29.3173 61.4603L27.1627 61.3745L27.0809 56.2757C27.0075 51.6762 27.1035 50.1228 27.4408 50.4579C27.5044 50.521 28.4373 51.6143 29.5141 52.8872Z"/>
</mask>
<path fill-rule="evenodd" clip-rule="evenodd" d="M4.76545 0.315417C3.33239 0.832154 1.55341 2.39229 0.782494 3.80909L0.118271 5.0297L0.0362461 31.423C-0.0567747 61.3903 -0.148309 60.0765 2.1894 62.2833C4.25755 64.2355 5.28762 64.4399 13.055 64.4399H19.7932L19.9665 67.7242C20.2343 72.7953 21.6739 76.1885 24.9011 79.3552C27.0554 81.4692 30.0856 83.1078 32.8982 83.6797C33.8929 83.8821 38.9959 84 46.7458 84C58.2581 84 59.0492 83.967 59.5105 83.466C59.9571 82.9811 60.002 81.2479 59.9999 64.5628C59.9987 53.6071 59.8763 45.4277 59.6965 44.2959C59.1595 40.9117 57.8854 38.9306 50.0565 29.3058L42.7652 20.3421L42.7587 12.8318C42.7515 4.4826 42.6475 3.93725 40.6983 2.0224C38.6072 -0.0317019 39.5879 0.072813 21.8132 0.0109213C9.70299 -0.0311184 5.51972 0.0436185 4.76545 0.315417ZM24.268 16.4835L24.1908 30.1268L23.1393 30.2946C20.2675 30.7533 17.9554 33.1513 17.608 36.0316C17.3557 38.1242 18.2912 39.9226 21.6299 43.764L24.3394 46.881V54.2009V61.5205H15.2602C5.46682 61.5205 5.33962 61.5027 3.83316 59.9192L3.09018 59.1379L3.01113 32.5756C2.92376 3.16886 2.82866 4.69776 4.82756 3.43978C5.71646 2.88042 6.24576 2.84976 15.0551 2.84509L24.3453 2.84013L24.268 16.4835ZM31.472 18.605C31.472 27.2757 31.3596 34.3699 31.2226 34.3699C31.0853 34.3699 30.3783 33.746 29.6514 32.9831C28.9241 32.2203 28.0334 31.3678 27.6718 31.0884L27.0141 30.5805V16.9047C27.0141 9.38343 27.1032 3.14171 27.2123 3.03486C27.3211 2.92771 28.3241 2.84013 29.4412 2.84013H31.472V18.605ZM37.7043 3.27366C38.1736 3.51218 38.869 4.13606 39.2497 4.66039L39.9419 5.61358L40.0245 24.544C40.0753 36.1653 40.0001 43.4355 39.8302 43.3742C39.6777 43.3191 38.4033 42.0719 36.9985 40.6028L34.4439 37.9316V20.3858V2.84013H35.6475C36.3093 2.84013 37.2348 3.03515 37.7043 3.27366ZM7.24373 7.27852C7.16081 7.49018 7.12872 11.6034 7.17211 16.4186L7.25086 25.1737H8.58822H9.92558V16.1235V7.07329L8.65984 6.98337C7.81642 6.92352 7.34388 7.02191 7.24373 7.27852ZM14.2349 12.4742V18.0211H15.7208H17.2068V12.4742V6.92732H15.7208H14.2349V12.4742ZM48.9349 32.4121C55.3967 40.3903 55.7272 40.8635 56.4845 43.2271C56.9897 44.805 57.0304 46.2782 57.0304 63.0184V81.1051L44.9199 81.0199L32.8093 80.9346L30.792 79.996C28.4136 78.8893 25.6607 76.4305 24.5447 74.4167C23.4115 72.3714 22.8534 69.9258 22.8534 67.0061V64.4399H27.4878C31.9079 64.4399 32.1293 64.4676 32.2812 65.0375C32.6346 66.365 34.4314 69.64 35.5987 71.0845C36.2814 71.9288 37.6045 73.2218 38.5395 73.9575C40.1461 75.2219 42.8255 76.6924 43.5349 76.6985C43.8553 76.7015 44.7582 74.4649 44.5222 74.2535C44.4548 74.1934 43.7162 73.8071 42.8811 73.3949C40.9764 72.4555 38.4238 70.1818 37.0152 68.1709C35.1384 65.4915 34.6653 63.7162 34.4623 58.5955L34.2828 54.0651L27.8851 46.6259C24.3667 42.5346 21.2602 38.862 20.9817 38.4649C19.2931 36.0555 21.8664 32.5087 24.9076 33.0541C26.1386 33.2751 26.0996 33.2374 37.8482 45.5407C42.2543 50.1549 45.9321 53.9265 46.021 53.9221C46.1101 53.9177 46.6486 53.535 47.2174 53.0717L48.252 52.2291L45.5086 49.4434L42.7652 46.6577V35.9887C42.7652 30.1206 42.8657 25.3255 42.9881 25.3325C43.1106 25.3392 45.7868 28.5252 48.9349 32.4121ZM8.29103 46.2399C7.23422 46.6352 7.10227 47.2632 7.10227 51.8969C7.10227 55.9534 7.16319 56.5213 7.64583 56.9501C8.1041 57.3577 8.93921 57.4333 12.9783 57.4333C19.0553 57.4333 18.6927 57.795 18.6927 51.7314C18.6927 48.3915 18.5908 47.1899 18.2716 46.7602C17.89 46.2469 17.4213 46.188 13.2937 46.1334C10.7874 46.1001 8.53621 46.1483 8.29103 46.2399ZM15.7208 51.7404V54.5139H12.8975H10.0742V51.7404V48.967H12.8975H15.7208V51.7404ZM29.5141 52.8872L31.472 55.2017V58.3739V61.5462L29.3173 61.4603L27.1627 61.3745L27.0809 56.2757C27.0075 51.6762 27.1035 50.1228 27.4408 50.4579C27.5044 50.521 28.4373 51.6143 29.5141 52.8872Z" fill="#FF0000" stroke="white" stroke-width="0.6" mask="url(#path-1-inside-1_35_36126)"/>
</svg>
