<svg width="60" height="84" viewBox="0 0 60 84" fill="none" xmlns="http://www.w3.org/2000/svg">
<path fill-rule="evenodd" clip-rule="evenodd" d="M6.43375 18.2376C5.19917 18.6818 4.16479 19.4164 3.51979 20.3068C2.27729 22.022 2.29167 21.8108 2.29167 38.3022V53.3685H1.49062C0.121666 53.3685 0 53.6768 0 57.1499C0 59.3341 0.0895835 60.432 0.32375 61.1195C0.795209 62.5031 1.95208 63.7408 3.42542 64.4376L4.6875 65.0347H30H55.3125L56.5746 64.4376C58.0479 63.7408 59.2048 62.5031 59.6763 61.1195C59.911 60.4301 60 59.3306 60 57.1137C60 53.6533 59.884 53.3685 58.4731 53.3685H57.7083V38.3022C57.7083 21.6724 57.7281 21.9474 56.4008 20.2218C56.0315 19.7416 55.2135 19.0579 54.5833 18.7022L53.4375 18.056L30.3125 18.0112C11.7585 17.9751 7.03854 18.0199 6.43375 18.2376ZM53.4731 20.7091C53.8365 20.9079 54.3521 21.3766 54.619 21.7508L55.1042 22.431L55.1602 37.8997L55.216 53.3685H53.8581H52.5V38.5916C52.5 25.436 52.4642 23.7789 52.1727 23.4874C51.8856 23.2006 50.7867 23.1601 43.256 23.1601C36.8531 23.1601 34.6031 23.2237 34.4167 23.4101C34.0592 23.7676 34.1081 24.6251 34.5115 25.0708C34.8335 25.4268 35.3604 25.4518 42.5337 25.4518H50.2113L50.1577 39.3581L50.1042 53.2643L48.1771 53.3243C47.1173 53.3572 46.25 53.3381 46.25 53.2816C46.25 53.2251 46.4933 52.9358 46.7908 52.6383C47.1819 52.2472 47.2977 51.9629 47.2096 51.6112C47.1423 51.3437 46.2896 49.7427 45.3146 48.0535C44.3394 46.3643 43.5417 44.9081 43.5417 44.8172C43.5417 44.7266 43.871 44.4489 44.2735 44.2001C45.5883 43.3876 45.679 42.4318 44.5075 41.7341C39.7719 38.9133 34.9746 36.2851 34.5615 36.2851C33.5583 36.2851 33.5417 36.3916 33.5417 42.8208C33.5417 48.1447 33.5823 48.9014 33.8865 49.2374C34.3267 49.7239 34.6158 49.7166 35.6404 49.1939C36.0981 48.9604 36.5527 48.8189 36.6506 48.8795C36.8408 48.997 39.1667 53.0324 39.1667 53.2449C39.1667 53.3145 32.5806 53.3472 24.5312 53.3179L9.89583 53.2643L9.84229 39.3581L9.78875 25.4518H17.43C24.2479 25.4518 25.1125 25.4147 25.4523 25.107C25.885 24.7156 25.9569 23.7837 25.5833 23.4101C25.3969 23.2237 23.1469 23.1601 16.744 23.1601C9.21333 23.1601 8.11437 23.2006 7.82729 23.4874C7.53583 23.7789 7.5 25.436 7.5 38.5916V53.3685H6.14583H4.79167V38.1395C4.79167 21.7808 4.76937 22.1439 5.83437 21.1801C6.86937 20.2435 6.53458 20.2554 30.3125 20.3029C51.2233 20.3445 52.8592 20.3733 53.4731 20.7091ZM29.05 23.6708C28.8529 23.9716 28.7712 24.357 28.851 24.6085C29.1621 25.5889 30.6494 25.667 31.0783 24.7254C31.6421 23.4881 29.7981 22.5291 29.05 23.6708ZM14.0744 32.5816C13.6456 33.1935 13.6652 33.492 14.1667 33.9935C14.5667 34.3935 14.861 34.4101 21.5454 34.4101C25.3746 34.4101 28.6631 34.3506 28.8531 34.2776C29.4254 34.0581 29.6454 33.1818 29.2717 32.6112L28.9487 32.1185H21.6737H14.3985L14.0744 32.5816ZM14.0744 38.6233C13.6456 39.2351 13.6652 39.5337 14.1667 40.0351C14.5671 40.4356 14.861 40.4518 21.6667 40.4518C28.4723 40.4518 28.7662 40.4356 29.1667 40.0351C29.6681 39.5337 29.6877 39.2351 29.259 38.6233L28.9348 38.1601H21.6667H14.3985L14.0744 38.6233ZM38.8537 41.1929C40.3375 42.0587 41.5917 42.8074 41.6408 42.8566C41.69 42.9058 41.4817 43.1416 41.1777 43.3808C40.2675 44.0966 40.2235 43.9747 43.301 49.2837C43.8917 50.3029 44.375 51.1949 44.375 51.2664C44.375 51.4337 42.1896 52.7435 41.9102 52.7435C41.7935 52.7435 40.8267 51.2402 39.7615 49.4026C37.7454 45.9245 37.3165 45.4926 36.4298 46.0464C36.2194 46.1777 35.9992 46.2851 35.9404 46.2851C35.8815 46.2851 35.8333 44.7851 35.8333 42.9518C35.8333 41.1185 35.906 39.6185 35.9948 39.6185C36.0835 39.6185 37.37 40.327 38.8537 41.1929ZM14.1667 44.6185C13.646 45.1391 13.6417 45.4804 14.1483 46.1058C14.545 46.5954 14.5683 46.5976 19.0613 46.5976C23.2894 46.5976 23.5942 46.572 23.871 46.1933C24.3033 45.6018 24.2325 44.8966 23.7035 44.5262C23.3206 44.2579 22.4925 44.2018 18.9119 44.2018C14.861 44.2018 14.5567 44.2285 14.1667 44.6185ZM57.665 57.6381C57.7594 60.5358 56.9806 61.9885 55.0456 62.526C54.5323 62.6685 46.0481 62.7385 29.8958 62.7333C4.05083 62.7247 4.59 62.7443 3.49854 61.7737C2.65833 61.0266 2.30104 59.8552 2.29625 57.8304C2.29375 56.7895 2.35458 55.8751 2.43125 55.7983C2.50812 55.7214 14.9535 55.6824 30.0875 55.7114L57.6042 55.7643L57.665 57.6381ZM24.85 58.1589C24.2919 58.3901 24.046 59.2122 24.3598 59.7985C24.6894 60.4143 25.4002 60.4843 30.59 60.4122C34.914 60.3522 35.2635 60.3191 35.5379 59.9433C35.9125 59.4304 35.9125 58.9733 35.5379 58.4604C35.2615 58.082 34.924 58.0531 30.2775 58.0116C27.5467 57.9872 25.1044 58.0535 24.85 58.1589Z" fill="#FF0000"/>
</svg>
