<svg width="61" height="84" viewBox="0 0 61 84" fill="none" xmlns="http://www.w3.org/2000/svg">
<mask id="path-1-outside-1_35_36142" maskUnits="userSpaceOnUse" x="3" y="11" width="58" height="62" fill="black">
<rect fill="white" x="3" y="11" width="58" height="62"/>
<path fill-rule="evenodd" clip-rule="evenodd" d="M27.7422 13.9649C22.6834 16.4278 18.0534 18.6726 14.0902 20.5839C5.72244 24.619 4.2714 25.3434 4.13956 25.5511C3.95423 25.8437 3.95311 58.1476 4.13844 58.4399C4.26261 58.6357 7.47064 60.2412 13.6226 63.1866C14.6512 63.6791 16.8813 64.7551 18.5785 65.5777C29.1631 70.7085 31.866 72 32.0195 72C32.215 72 34.5345 70.9142 39.4305 68.5314C44.5485 66.0404 48.4131 64.1685 50.2773 63.278C56.3219 60.3903 59.8213 58.6407 59.9459 58.4442C60.1344 58.1466 60.1338 25.8452 59.9451 25.5476C59.8172 25.3458 57.245 24.0598 50.2773 20.7142C48.2237 19.728 45.2487 18.2869 39.2435 15.3687C34.144 12.8908 32.2064 11.9924 31.9773 12C31.8594 12.004 29.9536 12.8882 27.7422 13.9649ZM33.9673 14.7853C35.0177 15.2897 37.3079 16.3965 39.0565 17.2447C40.805 18.0928 43.0773 19.1904 44.1058 19.6836C45.1344 20.1768 47.7432 21.4427 49.9033 22.4972C52.0633 23.5514 54.5247 24.7377 55.3734 25.1332C56.2221 25.5288 56.9163 25.9239 56.9163 26.0115C56.9163 26.0989 55.3384 26.9313 53.4098 27.8612L49.9033 29.5521L48.2201 28.7178C47.2944 28.2588 45.443 27.3566 44.1058 26.7128C42.7687 26.0689 39.1921 24.3388 36.1578 22.8679C33.1235 21.3972 29.3366 19.5662 27.7423 18.799C25.1846 17.5683 24.8878 17.3791 25.2177 17.1892C25.5816 16.9797 31.8965 13.8985 32.0036 13.8783C32.0334 13.8726 32.917 14.2809 33.9673 14.7853ZM26.8071 20.2975C34.2665 23.9186 42.7732 28.0392 45.1812 29.1977C46.5955 29.8782 47.7494 30.4837 47.7455 30.5432C47.7416 30.6026 46.6167 31.1794 45.2459 31.8247L42.7534 32.998L39.0348 31.1935C36.9896 30.2011 34.0118 28.761 32.4175 27.9932C26.6878 25.2339 22.7429 23.3206 20.2616 22.0974L17.7369 20.853L20.2229 19.6185C22.1867 18.6434 22.7956 18.4182 23.1216 18.5464C23.3486 18.6357 25.0071 19.4237 26.8071 20.2975ZM16.5526 22.287C16.9982 22.4825 19.2985 23.5885 21.6642 24.7448C24.0299 25.9011 26.6388 27.1665 27.4616 27.5569C28.2845 27.9473 30.725 29.1255 32.885 30.1749C35.045 31.2244 37.9695 32.6391 39.3837 33.3187L41.9552 34.5545V40.0339C41.9552 46.0413 41.9645 46.0919 43.0449 45.8754C43.3351 45.817 44.936 45.0956 46.6025 44.272C48.2688 43.4484 49.7353 42.7402 49.8612 42.6982C50.0323 42.6412 50.114 41.2017 50.1838 37.0118L50.2773 31.4015L54.1744 29.4786C56.3178 28.421 58.1483 27.6032 58.242 27.6613C58.4494 27.79 58.4705 56.9913 58.2633 57.3181C58.1846 57.4425 56.9866 58.0861 55.6012 58.7482C54.216 59.4103 51.5677 60.689 49.7162 61.5899C47.8648 62.4908 45.4243 63.6725 44.2928 64.2161C43.1614 64.7596 40.6367 65.9835 38.6824 66.9358C35.0205 68.7202 33.2203 69.5622 33.0666 69.5622C33.0182 69.5622 32.9785 62.8487 32.9785 54.6431V39.7243L35.956 38.2704C37.5935 37.4706 39.0662 36.7059 39.2287 36.5707C39.6237 36.242 39.6009 35.8853 39.1561 35.4394C38.821 35.1033 38.7251 35.0928 38.0808 35.3207C37.6916 35.4583 36.2595 36.1308 34.898 36.8147C33.5368 37.4987 32.2509 38.0585 32.0408 38.0585C31.8306 38.0585 31.1587 37.8053 30.5474 37.4959C29.2416 36.8349 29.0307 36.8132 28.5959 37.2949C28.0554 37.8939 28.3851 38.3902 29.7688 39.0608L31.0149 39.6646L31.0628 54.6133C31.0891 62.8352 31.0751 69.5622 31.0315 69.5622C30.8567 69.5622 29.127 68.7512 25.0305 66.7486C22.6647 65.5922 19.8876 64.2424 18.859 63.7492C17.8304 63.2558 15.5582 62.1583 13.8097 61.3099C12.0611 60.4618 9.57847 59.2631 8.29276 58.6466C7.00722 58.0298 5.89337 57.4278 5.81782 57.3086C5.61734 56.9928 5.64109 27.7877 5.84194 27.6632C5.93395 27.6062 7.59594 28.3278 9.53546 29.2667C11.4748 30.2056 13.9032 31.3778 14.9317 31.8716C15.9603 32.3653 18.5691 33.63 20.7291 34.6824C25.3316 36.9242 25.4077 36.9564 25.7821 36.8122C26.1836 36.6577 26.4553 36.0843 26.3085 35.7008C26.1821 35.3707 22.2041 33.3811 9.46159 27.2749C8.20149 26.671 7.17067 26.1118 7.17067 26.032C7.17067 25.9521 7.7809 25.5952 8.52652 25.2391C9.27214 24.883 11.1026 23.994 12.5941 23.2636C14.0855 22.5332 15.4039 21.9346 15.524 21.9337C15.6441 21.9325 16.1069 22.0916 16.5526 22.287ZM48.5006 36.9019V41.3709L46.2097 42.5039C44.9496 43.1272 43.8558 43.6005 43.7786 43.5557C43.7013 43.5111 43.6383 41.4737 43.6383 39.0282V34.5817L45.7422 33.5182C46.8994 32.9331 47.9935 32.4497 48.1734 32.4437C48.4762 32.4336 48.5006 32.7664 48.5006 36.9019ZM8.0156 48.1144C7.28999 48.842 7.63372 49.1206 11.846 51.2188C14.0574 52.3203 16.0458 53.2274 16.2648 53.2347C16.7774 53.2515 17.1276 52.8229 17.05 52.2736C16.9994 51.9151 16.3033 51.4997 12.9681 49.8379C10.7567 48.736 8.80611 47.8288 8.63331 47.822C8.46069 47.8153 8.18279 47.9467 8.0156 48.1144ZM8.14745 52.2271C7.64812 52.5776 7.61221 53.0856 8.05899 53.4745C8.47958 53.8407 12.3487 55.6856 12.696 55.6856C13.0751 55.6856 13.5609 54.8614 13.4117 54.4716C13.3144 54.2178 9.0236 51.9351 8.64397 51.9351C8.59946 51.9351 8.37598 52.0666 8.14745 52.2271Z"/>
</mask>
<path fill-rule="evenodd" clip-rule="evenodd" d="M27.7422 13.9649C22.6834 16.4278 18.0534 18.6726 14.0902 20.5839C5.72244 24.619 4.2714 25.3434 4.13956 25.5511C3.95423 25.8437 3.95311 58.1476 4.13844 58.4399C4.26261 58.6357 7.47064 60.2412 13.6226 63.1866C14.6512 63.6791 16.8813 64.7551 18.5785 65.5777C29.1631 70.7085 31.866 72 32.0195 72C32.215 72 34.5345 70.9142 39.4305 68.5314C44.5485 66.0404 48.4131 64.1685 50.2773 63.278C56.3219 60.3903 59.8213 58.6407 59.9459 58.4442C60.1344 58.1466 60.1338 25.8452 59.9451 25.5476C59.8172 25.3458 57.245 24.0598 50.2773 20.7142C48.2237 19.728 45.2487 18.2869 39.2435 15.3687C34.144 12.8908 32.2064 11.9924 31.9773 12C31.8594 12.004 29.9536 12.8882 27.7422 13.9649ZM33.9673 14.7853C35.0177 15.2897 37.3079 16.3965 39.0565 17.2447C40.805 18.0928 43.0773 19.1904 44.1058 19.6836C45.1344 20.1768 47.7432 21.4427 49.9033 22.4972C52.0633 23.5514 54.5247 24.7377 55.3734 25.1332C56.2221 25.5288 56.9163 25.9239 56.9163 26.0115C56.9163 26.0989 55.3384 26.9313 53.4098 27.8612L49.9033 29.5521L48.2201 28.7178C47.2944 28.2588 45.443 27.3566 44.1058 26.7128C42.7687 26.0689 39.1921 24.3388 36.1578 22.8679C33.1235 21.3972 29.3366 19.5662 27.7423 18.799C25.1846 17.5683 24.8878 17.3791 25.2177 17.1892C25.5816 16.9797 31.8965 13.8985 32.0036 13.8783C32.0334 13.8726 32.917 14.2809 33.9673 14.7853ZM26.8071 20.2975C34.2665 23.9186 42.7732 28.0392 45.1812 29.1977C46.5955 29.8782 47.7494 30.4837 47.7455 30.5432C47.7416 30.6026 46.6167 31.1794 45.2459 31.8247L42.7534 32.998L39.0348 31.1935C36.9896 30.2011 34.0118 28.761 32.4175 27.9932C26.6878 25.2339 22.7429 23.3206 20.2616 22.0974L17.7369 20.853L20.2229 19.6185C22.1867 18.6434 22.7956 18.4182 23.1216 18.5464C23.3486 18.6357 25.0071 19.4237 26.8071 20.2975ZM16.5526 22.287C16.9982 22.4825 19.2985 23.5885 21.6642 24.7448C24.0299 25.9011 26.6388 27.1665 27.4616 27.5569C28.2845 27.9473 30.725 29.1255 32.885 30.1749C35.045 31.2244 37.9695 32.6391 39.3837 33.3187L41.9552 34.5545V40.0339C41.9552 46.0413 41.9645 46.0919 43.0449 45.8754C43.3351 45.817 44.936 45.0956 46.6025 44.272C48.2688 43.4484 49.7353 42.7402 49.8612 42.6982C50.0323 42.6412 50.114 41.2017 50.1838 37.0118L50.2773 31.4015L54.1744 29.4786C56.3178 28.421 58.1483 27.6032 58.242 27.6613C58.4494 27.79 58.4705 56.9913 58.2633 57.3181C58.1846 57.4425 56.9866 58.0861 55.6012 58.7482C54.216 59.4103 51.5677 60.689 49.7162 61.5899C47.8648 62.4908 45.4243 63.6725 44.2928 64.2161C43.1614 64.7596 40.6367 65.9835 38.6824 66.9358C35.0205 68.7202 33.2203 69.5622 33.0666 69.5622C33.0182 69.5622 32.9785 62.8487 32.9785 54.6431V39.7243L35.956 38.2704C37.5935 37.4706 39.0662 36.7059 39.2287 36.5707C39.6237 36.242 39.6009 35.8853 39.1561 35.4394C38.821 35.1033 38.7251 35.0928 38.0808 35.3207C37.6916 35.4583 36.2595 36.1308 34.898 36.8147C33.5368 37.4987 32.2509 38.0585 32.0408 38.0585C31.8306 38.0585 31.1587 37.8053 30.5474 37.4959C29.2416 36.8349 29.0307 36.8132 28.5959 37.2949C28.0554 37.8939 28.3851 38.3902 29.7688 39.0608L31.0149 39.6646L31.0628 54.6133C31.0891 62.8352 31.0751 69.5622 31.0315 69.5622C30.8567 69.5622 29.127 68.7512 25.0305 66.7486C22.6647 65.5922 19.8876 64.2424 18.859 63.7492C17.8304 63.2558 15.5582 62.1583 13.8097 61.3099C12.0611 60.4618 9.57847 59.2631 8.29276 58.6466C7.00722 58.0298 5.89337 57.4278 5.81782 57.3086C5.61734 56.9928 5.64109 27.7877 5.84194 27.6632C5.93395 27.6062 7.59594 28.3278 9.53546 29.2667C11.4748 30.2056 13.9032 31.3778 14.9317 31.8716C15.9603 32.3653 18.5691 33.63 20.7291 34.6824C25.3316 36.9242 25.4077 36.9564 25.7821 36.8122C26.1836 36.6577 26.4553 36.0843 26.3085 35.7008C26.1821 35.3707 22.2041 33.3811 9.46159 27.2749C8.20149 26.671 7.17067 26.1118 7.17067 26.032C7.17067 25.9521 7.7809 25.5952 8.52652 25.2391C9.27214 24.883 11.1026 23.994 12.5941 23.2636C14.0855 22.5332 15.4039 21.9346 15.524 21.9337C15.6441 21.9325 16.1069 22.0916 16.5526 22.287ZM48.5006 36.9019V41.3709L46.2097 42.5039C44.9496 43.1272 43.8558 43.6005 43.7786 43.5557C43.7013 43.5111 43.6383 41.4737 43.6383 39.0282V34.5817L45.7422 33.5182C46.8994 32.9331 47.9935 32.4497 48.1734 32.4437C48.4762 32.4336 48.5006 32.7664 48.5006 36.9019ZM8.0156 48.1144C7.28999 48.842 7.63372 49.1206 11.846 51.2188C14.0574 52.3203 16.0458 53.2274 16.2648 53.2347C16.7774 53.2515 17.1276 52.8229 17.05 52.2736C16.9994 51.9151 16.3033 51.4997 12.9681 49.8379C10.7567 48.736 8.80611 47.8288 8.63331 47.822C8.46069 47.8153 8.18279 47.9467 8.0156 48.1144ZM8.14745 52.2271C7.64812 52.5776 7.61221 53.0856 8.05899 53.4745C8.47958 53.8407 12.3487 55.6856 12.696 55.6856C13.0751 55.6856 13.5609 54.8614 13.4117 54.4716C13.3144 54.2178 9.0236 51.9351 8.64397 51.9351C8.59946 51.9351 8.37598 52.0666 8.14745 52.2271Z" fill="#FF0000"/>
<path fill-rule="evenodd" clip-rule="evenodd" d="M27.7422 13.9649C22.6834 16.4278 18.0534 18.6726 14.0902 20.5839C5.72244 24.619 4.2714 25.3434 4.13956 25.5511C3.95423 25.8437 3.95311 58.1476 4.13844 58.4399C4.26261 58.6357 7.47064 60.2412 13.6226 63.1866C14.6512 63.6791 16.8813 64.7551 18.5785 65.5777C29.1631 70.7085 31.866 72 32.0195 72C32.215 72 34.5345 70.9142 39.4305 68.5314C44.5485 66.0404 48.4131 64.1685 50.2773 63.278C56.3219 60.3903 59.8213 58.6407 59.9459 58.4442C60.1344 58.1466 60.1338 25.8452 59.9451 25.5476C59.8172 25.3458 57.245 24.0598 50.2773 20.7142C48.2237 19.728 45.2487 18.2869 39.2435 15.3687C34.144 12.8908 32.2064 11.9924 31.9773 12C31.8594 12.004 29.9536 12.8882 27.7422 13.9649ZM33.9673 14.7853C35.0177 15.2897 37.3079 16.3965 39.0565 17.2447C40.805 18.0928 43.0773 19.1904 44.1058 19.6836C45.1344 20.1768 47.7432 21.4427 49.9033 22.4972C52.0633 23.5514 54.5247 24.7377 55.3734 25.1332C56.2221 25.5288 56.9163 25.9239 56.9163 26.0115C56.9163 26.0989 55.3384 26.9313 53.4098 27.8612L49.9033 29.5521L48.2201 28.7178C47.2944 28.2588 45.443 27.3566 44.1058 26.7128C42.7687 26.0689 39.1921 24.3388 36.1578 22.8679C33.1235 21.3972 29.3366 19.5662 27.7423 18.799C25.1846 17.5683 24.8878 17.3791 25.2177 17.1892C25.5816 16.9797 31.8965 13.8985 32.0036 13.8783C32.0334 13.8726 32.917 14.2809 33.9673 14.7853ZM26.8071 20.2975C34.2665 23.9186 42.7732 28.0392 45.1812 29.1977C46.5955 29.8782 47.7494 30.4837 47.7455 30.5432C47.7416 30.6026 46.6167 31.1794 45.2459 31.8247L42.7534 32.998L39.0348 31.1935C36.9896 30.2011 34.0118 28.761 32.4175 27.9932C26.6878 25.2339 22.7429 23.3206 20.2616 22.0974L17.7369 20.853L20.2229 19.6185C22.1867 18.6434 22.7956 18.4182 23.1216 18.5464C23.3486 18.6357 25.0071 19.4237 26.8071 20.2975ZM16.5526 22.287C16.9982 22.4825 19.2985 23.5885 21.6642 24.7448C24.0299 25.9011 26.6388 27.1665 27.4616 27.5569C28.2845 27.9473 30.725 29.1255 32.885 30.1749C35.045 31.2244 37.9695 32.6391 39.3837 33.3187L41.9552 34.5545V40.0339C41.9552 46.0413 41.9645 46.0919 43.0449 45.8754C43.3351 45.817 44.936 45.0956 46.6025 44.272C48.2688 43.4484 49.7353 42.7402 49.8612 42.6982C50.0323 42.6412 50.114 41.2017 50.1838 37.0118L50.2773 31.4015L54.1744 29.4786C56.3178 28.421 58.1483 27.6032 58.242 27.6613C58.4494 27.79 58.4705 56.9913 58.2633 57.3181C58.1846 57.4425 56.9866 58.0861 55.6012 58.7482C54.216 59.4103 51.5677 60.689 49.7162 61.5899C47.8648 62.4908 45.4243 63.6725 44.2928 64.2161C43.1614 64.7596 40.6367 65.9835 38.6824 66.9358C35.0205 68.7202 33.2203 69.5622 33.0666 69.5622C33.0182 69.5622 32.9785 62.8487 32.9785 54.6431V39.7243L35.956 38.2704C37.5935 37.4706 39.0662 36.7059 39.2287 36.5707C39.6237 36.242 39.6009 35.8853 39.1561 35.4394C38.821 35.1033 38.7251 35.0928 38.0808 35.3207C37.6916 35.4583 36.2595 36.1308 34.898 36.8147C33.5368 37.4987 32.2509 38.0585 32.0408 38.0585C31.8306 38.0585 31.1587 37.8053 30.5474 37.4959C29.2416 36.8349 29.0307 36.8132 28.5959 37.2949C28.0554 37.8939 28.3851 38.3902 29.7688 39.0608L31.0149 39.6646L31.0628 54.6133C31.0891 62.8352 31.0751 69.5622 31.0315 69.5622C30.8567 69.5622 29.127 68.7512 25.0305 66.7486C22.6647 65.5922 19.8876 64.2424 18.859 63.7492C17.8304 63.2558 15.5582 62.1583 13.8097 61.3099C12.0611 60.4618 9.57847 59.2631 8.29276 58.6466C7.00722 58.0298 5.89337 57.4278 5.81782 57.3086C5.61734 56.9928 5.64109 27.7877 5.84194 27.6632C5.93395 27.6062 7.59594 28.3278 9.53546 29.2667C11.4748 30.2056 13.9032 31.3778 14.9317 31.8716C15.9603 32.3653 18.5691 33.63 20.7291 34.6824C25.3316 36.9242 25.4077 36.9564 25.7821 36.8122C26.1836 36.6577 26.4553 36.0843 26.3085 35.7008C26.1821 35.3707 22.2041 33.3811 9.46159 27.2749C8.20149 26.671 7.17067 26.1118 7.17067 26.032C7.17067 25.9521 7.7809 25.5952 8.52652 25.2391C9.27214 24.883 11.1026 23.994 12.5941 23.2636C14.0855 22.5332 15.4039 21.9346 15.524 21.9337C15.6441 21.9325 16.1069 22.0916 16.5526 22.287ZM48.5006 36.9019V41.3709L46.2097 42.5039C44.9496 43.1272 43.8558 43.6005 43.7786 43.5557C43.7013 43.5111 43.6383 41.4737 43.6383 39.0282V34.5817L45.7422 33.5182C46.8994 32.9331 47.9935 32.4497 48.1734 32.4437C48.4762 32.4336 48.5006 32.7664 48.5006 36.9019ZM8.0156 48.1144C7.28999 48.842 7.63372 49.1206 11.846 51.2188C14.0574 52.3203 16.0458 53.2274 16.2648 53.2347C16.7774 53.2515 17.1276 52.8229 17.05 52.2736C16.9994 51.9151 16.3033 51.4997 12.9681 49.8379C10.7567 48.736 8.80611 47.8288 8.63331 47.822C8.46069 47.8153 8.18279 47.9467 8.0156 48.1144ZM8.14745 52.2271C7.64812 52.5776 7.61221 53.0856 8.05899 53.4745C8.47958 53.8407 12.3487 55.6856 12.696 55.6856C13.0751 55.6856 13.5609 54.8614 13.4117 54.4716C13.3144 54.2178 9.0236 51.9351 8.64397 51.9351C8.59946 51.9351 8.37598 52.0666 8.14745 52.2271Z" stroke="#FF0000" stroke-width="0.8" mask="url(#path-1-outside-1_35_36142)"/>
</svg>
