<svg width="60" height="84" viewBox="0 0 60 84" fill="none" xmlns="http://www.w3.org/2000/svg">
<path fill-rule="evenodd" clip-rule="evenodd" d="M43.5567 14.3128C41.1865 14.8237 39.2957 15.9148 37.2943 17.9269C34.4244 20.8121 33.288 23.4997 33.2769 27.4281C33.27 29.8918 33.6812 31.6369 34.7143 33.5303C35.1073 34.2506 35.4289 34.8835 35.4289 34.9368C35.4289 34.9902 31.2979 35.0339 26.2487 35.0339C16.5866 35.0339 16.1066 35.0773 15.7598 35.981C15.6888 36.1665 15.6304 38.9381 15.6304 42.1401V47.9617L14.714 49.7809C13.9183 51.3602 12.8419 52.7913 12.6531 52.5213C12.6194 52.4729 12.5006 52.1551 12.3891 51.8149C12.2774 51.4746 11.8687 50.9822 11.4808 50.7209C10.8565 50.3002 10.5218 50.2456 8.56588 50.2464C5.98623 50.2472 5.21597 50.5613 4.77019 51.794C4.5226 52.4785 4.43403 52.5381 3.65731 52.5427C1.2596 52.5569 0.19465 53.3189 0.0445981 55.1287C-0.0631475 56.4269 0.184023 56.9137 0.950954 56.9137C1.55137 56.9137 1.66912 56.7268 1.84418 55.4967L1.9836 54.5173L3.28739 54.4552L4.59117 54.3931L4.53594 60.4982L4.48071 66.6033L3.66689 66.67C3.21945 66.7064 2.6332 66.6812 2.36436 66.6139C1.87919 66.492 1.87565 66.4693 1.87565 63.3955C1.87565 59.6051 1.77999 59.0337 1.11684 58.8672C0.0950331 58.6109 0 58.9527 0 62.8883C0 66.9044 0.140466 67.4881 1.24356 68.0584C1.60535 68.2453 2.40562 68.3745 3.2034 68.3745C4.52948 68.3745 4.55407 68.3847 4.68787 68.994C4.76269 69.3347 5.10551 69.8504 5.4498 70.1401C6.04334 70.6394 6.20569 70.6667 8.58151 70.6667H11.0872L11.8166 69.9373L12.546 69.208H31.6036H50.6615L51.1729 68.6965L51.6845 68.1851V54.0172V39.8493L53.1775 39.0648C54.935 38.1415 57.0958 36.0827 58.1078 34.3669C60.4713 30.3604 60.6284 25.5519 58.5354 21.2809C57.4796 19.1263 55.2257 16.7691 53.1921 15.6926C51.825 14.9691 51.1406 14.9058 50.7869 15.4701C50.4405 16.0227 50.7523 16.4113 52.1313 17.1457C55.9195 19.1634 58.1701 22.9573 58.1841 27.3489C58.1945 30.6348 57.1758 33.2119 54.9773 35.4613C52.876 37.6111 50.2857 38.7706 47.2038 38.9408C44.8899 39.0685 43.3806 38.7731 41.4722 37.8185C34.9089 34.5353 32.9601 25.9661 37.4748 20.239C39.0339 18.2613 41.5033 16.6503 43.8337 16.0904C44.3872 15.9575 45.6293 15.8458 46.5938 15.8423C47.8711 15.8375 48.4328 15.7506 48.6614 15.522C49.064 15.1194 49.0594 14.7268 48.6478 14.315C48.2285 13.896 45.4963 13.8947 43.5567 14.3128ZM52.3124 22.2866C51.9859 22.5931 50.1052 24.6723 48.1331 26.9072C46.1612 29.142 44.4764 30.998 44.3895 31.0318C44.3026 31.0654 43.4467 30.1987 42.4874 29.1056C40.5338 26.8794 40.1199 26.6265 39.561 27.3168C39.0693 27.9236 39.2117 28.1816 41.3474 30.5538C43.4415 32.8799 43.5107 32.9353 44.3266 32.9435C45.1629 32.9518 45.2325 32.8864 49.3994 28.1574C51.2677 26.0372 53.0738 24.0044 53.413 23.6402C54.5701 22.3978 53.5416 21.1328 52.3124 22.2866ZM25.0086 40.7508C25.0086 42.9581 25.1028 44.84 25.2302 45.1747C25.717 46.4554 26.4421 46.3772 28.4473 44.8277C29.3372 44.1401 30.1546 43.5774 30.2636 43.5774C30.3724 43.5774 31.1889 44.1401 32.078 44.8277C33.8498 46.1982 34.5655 46.3843 35.1044 45.6148C35.3716 45.2336 35.4289 44.4233 35.4289 41.0304V36.9093H36.3413C36.9411 36.9093 37.3514 37.0287 37.5396 37.2577C38.0738 37.9087 40.8829 39.608 42.0139 39.9646L43.1399 40.3194V43.9206C43.1399 47.3087 43.1645 47.5352 43.5567 47.745C43.8504 47.9021 44.0952 47.903 44.3851 47.7477C44.7653 47.5443 44.8013 47.2682 44.854 44.1563L44.9114 40.785L46.6828 40.7508C47.6571 40.7318 48.8067 40.6464 49.2372 40.5605L50.0204 40.4049L49.9666 53.9207L49.9131 67.4368H47.4122H44.9114L44.857 58.743C44.8042 50.3075 44.7903 50.0428 44.388 49.8276C44.0946 49.6706 43.8518 49.6709 43.5567 49.8288C43.1501 50.0464 43.1399 50.2652 43.1399 58.7964V67.541H36.2625H29.3852V66.6287V65.7166L31.2087 65.6266C34.0107 65.4885 35.1096 64.6908 35.1232 62.7852C35.1292 61.9404 35.2332 61.7093 35.9047 61.05C36.5637 60.403 36.6791 60.1542 36.6785 59.383C36.6773 57.7651 35.7494 56.7407 34.0749 56.5084C33.2673 56.3963 33.244 56.3704 33.3053 55.6597C33.3855 54.7292 32.67 53.6117 31.6734 53.1112C31.0372 52.7913 30.265 52.7467 25.3733 52.7465C21.6535 52.7463 19.7985 52.674 19.7985 52.5294C19.7985 52.4102 20.0034 51.918 20.2539 51.4354C21.4143 49.1997 20.3143 46.5518 18.0314 46.0857L17.4018 45.9569L17.3454 41.6993C17.3141 39.3576 17.3347 37.3217 17.3908 37.1754C17.4685 36.9731 18.3945 36.9093 21.2509 36.9093H25.0086V40.7508ZM33.5533 40.2434C33.5533 42.0771 33.5114 43.5774 33.4601 43.5774C33.4088 43.5774 32.7474 43.1086 31.9902 42.5356C31.2331 41.9625 30.442 41.4937 30.2323 41.4937C30.0227 41.4937 29.2539 41.9606 28.524 42.5314C27.794 43.1021 27.1265 43.571 27.0406 43.5733C26.9547 43.5756 26.8843 42.0771 26.8843 40.2434V36.9093H30.2188H33.5533V40.2434ZM18.6404 48.4166C19.1179 49.098 19.0405 49.8288 18.3303 51.3464C17.6382 52.8251 17.6498 53.4761 18.3799 54.1372C18.7623 54.4836 19.3383 54.5227 24.8636 54.5786C28.805 54.6184 31.0224 54.7186 31.1985 54.8647C31.6032 55.2006 31.5253 56.0356 31.0661 56.2812C30.8323 56.4063 29.1317 56.4969 27.017 56.4969C23.9806 56.4969 23.3164 56.5517 23.0436 56.8243C22.6562 57.2119 22.6528 57.2396 22.9319 57.7609C23.1367 58.1437 23.4229 58.164 28.6168 58.164C33.2294 58.164 34.1583 58.2148 34.5488 58.4884C35.0586 58.8451 35.1496 59.4017 34.762 59.7893C34.5803 59.971 33.0264 60.0394 29.0773 60.0394C24.4958 60.0394 23.5698 60.0902 23.1795 60.3638C22.6089 60.7633 22.5799 61.4103 23.1192 61.6991C23.3627 61.8293 25.369 61.9148 28.1835 61.9148C33.0768 61.9148 33.3449 61.9635 33.3449 62.8525C33.3449 63.75 33.1029 63.7902 27.691 63.7902C23.2839 63.7902 22.4901 63.8377 22.21 64.1175C21.7573 64.5703 21.8004 64.9592 22.3458 65.3411C22.6951 65.586 23.3587 65.6656 25.0476 65.6656C27.0731 65.6656 27.3078 65.7054 27.5095 66.0823C27.7979 66.6212 27.4626 67.2841 26.8201 67.4453C26.1044 67.625 13.062 67.4606 12.7648 67.2682C12.5658 67.1394 12.5043 65.6102 12.5043 60.7964V54.4934L13.294 54.145C13.7283 53.9535 14.286 53.6084 14.5329 53.3781C15.0856 52.8632 16.2129 50.9616 16.985 49.2412C17.6161 47.8348 18.0735 47.6071 18.6404 48.4166ZM10.7875 60.3275C10.8267 66.1351 10.775 68.5108 10.6055 68.7148C10.2971 69.0865 6.86821 69.1155 6.50225 68.7496C6.31656 68.5639 6.25216 66.4751 6.25216 60.6399C6.25216 56.3171 6.31031 52.6288 6.38137 52.4435C6.49078 52.1587 6.83486 52.116 8.62173 52.166L10.7329 52.2252L10.7875 60.3275Z" fill="#FF0000"/>
</svg>
