<svg width="60" height="84" viewBox="0 0 60 84" fill="none" xmlns="http://www.w3.org/2000/svg">
<path d="M31.5325 70.7179L31.5132 70.7322L31.4949 70.7479C31.0783 71.1042 30.5481 71.3 29.9999 71.3C29.4517 71.3 28.9215 71.1042 28.5049 70.7479L28.5033 70.7465C28.0293 70.3357 22.5739 65.6079 17.2324 58.983C11.8431 52.2988 6.7 43.8397 6.7 35.9999C6.7 29.8204 9.15481 23.894 13.5244 19.5244C17.894 15.1548 23.8204 12.7 29.9999 12.7C36.1794 12.7 42.1059 15.1548 46.4755 19.5244C50.845 23.894 53.2998 29.8204 53.2998 35.9999C53.2998 43.8411 48.1925 52.3009 42.8229 58.9839C37.473 65.6425 32.0025 70.3688 31.5325 70.7179ZM29.5208 65.4601L29.9987 65.9089L30.4778 65.4613C33.6967 62.454 38.2316 57.6858 41.9678 52.3975C45.6838 47.138 48.6999 41.24 48.6999 35.9999C48.6999 31.0404 46.7297 26.284 43.2228 22.7771C39.7159 19.2701 34.9595 17.3 29.9999 17.3C25.0404 17.3 20.284 19.2701 16.7771 22.7771C13.2701 26.284 11.3 31.0404 11.3 35.9999C11.3 41.2402 14.3163 47.1308 18.0321 52.3865C21.7683 57.6709 26.303 62.4387 29.5208 65.4601ZM23.722 26.6043C25.5803 25.3627 27.765 24.7 29.9999 24.7C32.9969 24.7 35.871 25.8905 37.9902 28.0096C40.1094 30.1288 41.2999 33.003 41.2999 35.9999C41.2999 38.2348 40.6371 40.4196 39.3955 42.2778C38.1538 44.1361 36.389 45.5845 34.3242 46.4397C32.2594 47.295 29.9874 47.5188 27.7954 47.0828C25.6034 46.6467 23.59 45.5705 22.0096 43.9902C20.4293 42.4099 19.3531 40.3964 18.9171 38.2044C18.4811 36.0125 18.7049 33.7404 19.5601 31.6756C20.4154 29.6108 21.8637 27.846 23.722 26.6043ZM26.2776 41.5708C27.3794 42.307 28.6748 42.6999 29.9999 42.6999C31.7769 42.6999 33.481 41.994 34.7375 40.7375C35.994 39.481 36.6999 37.7769 36.6999 35.9999C36.6999 34.6748 36.307 33.3794 35.5708 32.2776C34.8345 31.1758 33.7882 30.3171 32.5639 29.8099C31.3396 29.3028 29.9925 29.1702 28.6928 29.4287C27.3932 29.6872 26.1993 30.3253 25.2623 31.2623C24.3253 32.1993 23.6872 33.3932 23.4287 34.6928C23.1702 35.9925 23.3028 37.3396 23.8099 38.5639C24.3171 39.7882 25.1758 40.8345 26.2776 41.5708Z" fill="#FF0000" stroke="white" stroke-width="1.4"/>
</svg>
