<svg width="60" height="84" viewBox="0 0 60 84" fill="none" xmlns="http://www.w3.org/2000/svg">
<path fill-rule="evenodd" clip-rule="evenodd" d="M38.3122 12.1919C37.5405 12.4267 36.9646 12.7438 30.9741 16.2331C27.9635 17.9867 22.0105 21.4542 17.7453 23.9389L9.99034 28.4564L7.22395 28.4577C5.70241 28.4583 4.09358 28.5598 3.64876 28.6833C2.55746 28.9863 0.960086 30.5222 0.412766 31.7947C-0.0299648 32.8235 -0.0307985 32.8675 0.0256627 50.5024L0.0823329 68.1789L0.711741 69.1969C1.44636 70.3848 2.7883 71.4766 3.88982 71.7824C4.4036 71.9251 12.7676 71.9985 28.6405 71.9991C55.021 72.0005 53.6301 72.0672 55.2601 70.7234C55.6875 70.3713 56.2917 69.6004 56.6027 69.0104C57.1655 67.9435 57.169 67.911 57.2342 62.9992C57.2936 58.528 57.334 58.0498 57.6615 57.9459C58.2397 57.7625 59.4881 56.3343 59.7452 55.5622C59.8943 55.1147 59.9796 53.0817 59.9766 50.0411C59.9712 44.4335 59.8533 43.9458 58.2224 42.7963L57.2728 42.1269V37.5913C57.2728 33.5246 57.2284 32.9373 56.8444 31.9108C56.2821 30.4076 54.8124 29.0536 53.2811 28.6275L52.1858 28.3227L48.2821 21.4621C45.8751 17.2315 44.0342 14.2363 43.48 13.6488C42.1676 12.2571 40.0556 11.6616 38.3122 12.1919ZM41.2121 15.286C41.4942 15.4964 41.758 15.7679 41.7984 15.8893C41.8945 16.1773 41.4088 16.4752 31.3339 22.3122C26.6358 25.0342 22.3618 27.5301 21.8359 27.8589C20.9259 28.4279 20.7644 28.4564 18.4504 28.4564C17.0978 28.4564 16.0206 28.3708 16.0206 28.2633C16.0206 28.1573 16.5598 27.7643 17.2186 27.3906C19.0096 26.3743 34.2832 17.4888 35.605 16.6942C38.308 15.0695 39.2245 14.6699 39.9754 14.7887C40.3738 14.8516 40.9302 15.0753 41.2121 15.286ZM44.0373 19.6112C44.3425 20.1319 44.5621 20.6485 44.5252 20.7594C44.4883 20.87 41.5636 22.6472 38.0257 24.7085L31.5935 28.4564H29.0753C26.9247 28.4564 26.6014 28.4144 26.862 28.1687C27.0297 28.0106 28.6671 27.013 30.5006 25.9524C34.3549 23.7222 36.5169 22.4645 40.2927 20.255C41.7824 19.3833 43.1095 18.6689 43.2418 18.6672C43.3741 18.6655 43.7321 19.0903 44.0373 19.6112ZM47.5645 25.7578C48.3479 27.1382 48.9448 28.3116 48.8911 28.3654C48.8373 28.4191 46.2243 28.4383 43.0845 28.4077L37.3759 28.3523L38.1051 27.8731C39.1181 27.2074 45.893 23.2562 46.029 23.2516C46.0901 23.2495 46.7812 24.3773 47.5645 25.7578ZM53.2746 31.587C54.432 32.2925 54.5643 32.9221 54.5643 37.7211V41.9988H49.8984C45.8297 41.9988 45.0634 42.0517 43.9085 42.4119C38.5441 44.0862 36.4604 50.713 39.8875 55.2011C40.7327 56.3083 41.9778 57.2146 43.5504 57.8677C44.575 58.2932 45.0798 58.3388 49.6161 58.4142L54.5643 58.4963V62.6399C54.5643 67.4676 54.4134 68.1151 53.1202 68.842L52.32 69.2919L28.5971 69.291C5.29281 69.2904 4.86216 69.2829 4.19525 68.8762C3.82169 68.6485 3.33 68.1568 3.10228 67.7832C2.69809 67.1205 2.68809 66.7005 2.68747 50.2738C2.68663 31.9604 2.65121 32.5246 3.85898 31.6243L4.45756 31.178L28.5213 31.1722C52.2956 31.1666 52.5933 31.1716 53.2746 31.587ZM56.7613 45.2188C57.2728 45.73 57.2728 45.7307 57.2728 50.219C57.2728 54.4301 57.2469 54.7336 56.8561 55.1245C56.4596 55.521 56.1631 55.5412 50.762 55.5391C45.2392 55.5372 45.0559 55.5237 44.0312 55.0466C42.8151 54.4803 41.529 53.0873 41.2307 52.0129C40.8913 50.7915 40.9863 48.8631 41.4315 47.9366C42.1299 46.4832 43.0929 45.6248 44.6154 45.099C45.5576 44.7733 46.442 44.72 50.9797 44.7141L56.25 44.7073L56.7613 45.2188ZM45.2036 47.7703C44.1729 48.3108 43.661 49.1087 43.661 50.1748C43.661 51.7401 44.76 52.8327 46.3347 52.8327C47.9002 52.8327 48.9959 51.702 48.9959 50.0865C48.9959 48.177 46.886 46.8884 45.2036 47.7703Z" fill="#FF0000"/>
</svg>
