<svg width="60" height="84" viewBox="0 0 60 84" fill="none" xmlns="http://www.w3.org/2000/svg">
<path fill-rule="evenodd" clip-rule="evenodd" d="M18.4468 12.2501C18.3081 12.3877 18.1947 13.0442 18.1947 13.7091V14.918L15.2007 14.9212C11.348 14.9251 11.1778 15.0008 11.0936 16.747L11.0312 18.0445H6.74127C2.71525 18.0445 2.43833 18.0693 2.23411 18.4476C1.90005 19.0671 1.93408 69.3619 2.26878 69.6939C2.46082 69.8845 6.64504 69.9441 19.8186 69.9441H37.1161L38.3931 70.5835C45.936 74.3609 54.9671 70.2613 57.0699 62.1052C58.8154 55.3344 54.5652 48.2538 47.7143 46.5184C47.021 46.3429 46.1936 46.1468 45.8759 46.0828L45.2981 45.9665V32.2394C45.2981 21.091 45.2458 18.4693 45.0195 18.283C44.8428 18.1375 43.2093 18.0329 40.5548 17.997L36.3687 17.9403L36.3059 16.7464C36.2141 15.0048 36.0254 14.918 32.3299 14.918H29.3302V13.9224C29.3302 13.3584 29.1884 12.7256 29.0031 12.4633C28.6808 12.0067 28.6043 12 23.6874 12C20.0877 12 18.6288 12.0696 18.4468 12.2501ZM27.1846 16.0123L27.1241 17.9403H23.6574H20.1907L20.1287 16.2912C20.0947 15.3843 20.1152 14.5168 20.1747 14.3632C20.2588 14.1458 21.05 14.0843 23.7637 14.0843H27.2449L27.1846 16.0123ZM18.1947 18.2113C18.1947 18.8762 18.3081 19.5327 18.4468 19.6703C18.6288 19.8508 20.0869 19.9204 23.6845 19.9204C29.4582 19.9204 29.3302 19.9611 29.3302 18.1273V16.9892L31.7989 17.0478L34.2677 17.1066V18.9825V20.8584L23.7099 20.9123L13.1522 20.9663V18.9843V17.0024H15.6734H18.1947V18.2113ZM11.0511 21.1024C11.0511 23.2105 9.99284 23.0473 23.6374 23.0438C30.761 23.0419 35.6546 22.9612 35.8432 22.843C36.0468 22.7155 36.1956 22.1811 36.2634 21.335L36.3687 20.0246H39.8354H43.3022L43.3564 32.9951L43.4104 45.9656L42.8311 46.0824C39.4972 46.7544 37.5491 47.6858 35.4917 49.5919C32.6862 52.1911 31.3441 55.2469 31.359 59.0014C31.3718 62.215 32.2334 64.7226 34.1437 67.1069C34.5007 67.5525 34.7929 67.951 34.7929 67.9927C34.7929 68.0342 27.891 68.0682 19.4553 68.0682H4.1177V43.9943V19.9204H7.58442H11.0511V21.1024ZM8.3618 28.2994C8.03761 28.621 8.03761 29.3534 8.3618 29.675C8.54796 29.8597 10.4706 29.9251 15.7081 29.9251C22.5069 29.9251 22.8113 29.9083 23.0197 29.522C23.3151 28.9743 23.2941 28.7608 22.9071 28.3767C22.6201 28.0922 21.662 28.0493 15.5955 28.0493C10.4454 28.0493 8.54775 28.1149 8.3618 28.2994ZM8.3618 34.3439C8.03761 34.6655 8.03761 35.3979 8.3618 35.7196C8.72655 36.0814 38.5883 36.0814 38.953 35.7196C39.3182 35.3573 39.2654 34.3697 38.8727 34.2203C38.6899 34.1507 31.8069 34.0938 23.5771 34.0938C12.2193 34.0938 8.55321 34.154 8.3618 34.3439ZM8.57674 40.2544C8.03005 40.6342 7.97374 41.2242 8.43975 41.6867C8.7276 41.9721 9.72307 42.0142 16.1716 42.0142C21.6484 42.0142 23.6389 41.9492 23.8255 41.7641C23.9642 41.6265 24.0776 41.249 24.0776 40.9251C24.0776 40.4849 23.9417 40.285 23.5387 40.1331C23.2277 40.016 20.0472 39.9299 16.0216 39.9299C10.046 39.9299 8.97657 39.9766 8.57674 40.2544ZM30.8827 40.1341C30.2631 40.3824 30.103 40.9429 30.4858 41.5225C30.8081 42.0102 30.8423 42.0142 34.7557 42.0142C39.0114 42.0142 39.2051 41.9667 39.2051 40.9251C39.2051 40.4849 39.0692 40.285 38.6662 40.1331C38.009 39.8853 31.5016 39.8861 30.8827 40.1341ZM26.3961 40.5414C26.1007 41.0892 26.1217 41.3026 26.5087 41.6867C26.9882 42.1622 27.5906 42.0884 27.9746 41.5071C28.2352 41.1127 28.2578 40.9043 28.0772 40.5691C27.7696 39.9991 26.6982 39.9814 26.3961 40.5414ZM8.43975 46.3018C8.25822 46.4821 8.10968 46.8037 8.10968 47.0166C8.10968 47.2294 8.25822 47.551 8.43975 47.7313C8.73243 48.0214 10.1674 48.0587 21.0599 48.0587C29.1298 48.0587 33.4894 47.9847 33.7563 47.843C34.2168 47.5985 34.3099 46.6207 33.9105 46.2245C33.7201 46.0357 30.6129 45.9744 21.2141 45.9744C10.1815 45.9744 8.73264 46.0115 8.43975 46.3018ZM47.0414 48.3691C51.995 49.6491 55.3832 53.9582 55.3832 58.9781C55.3832 61.0774 54.7526 63.318 53.7069 64.9346C52.2515 67.1846 49.3216 69.2121 46.7279 69.7638C46.1262 69.8918 44.7191 69.952 43.59 69.8982C41.7239 69.809 41.3824 69.724 39.7249 68.9348C32.7268 65.6037 31.1384 56.6788 36.5826 51.278C37.9361 49.9352 40.1268 48.6921 41.8424 48.2934C43.1431 47.991 45.7236 48.0285 47.0414 48.3691ZM8.32714 52.422C7.99412 53.0394 8.06472 53.4229 8.57674 53.7787C8.98245 54.0609 10.2853 54.1032 18.5428 54.1032C23.8419 54.1032 28.2679 54.0182 28.5526 53.9109C29.2329 53.6541 29.4122 53.1119 29.0151 52.5106L28.6902 52.0189H18.6174C8.87383 52.0189 8.53766 52.0321 8.32714 52.422ZM49.9204 53.2589C49.7471 53.3606 48.3762 55.2298 46.8739 57.4125C45.3717 59.5954 44.0634 61.3852 43.9665 61.3898C43.8696 61.3946 42.8502 60.648 41.7009 59.7309C40.5517 58.8138 39.4793 58.0634 39.3182 58.0634C38.6395 58.0634 38.1325 59.0729 38.5254 59.6417C38.8631 60.1303 43.8831 64.108 44.1621 64.108C44.3262 64.108 44.6645 63.8752 44.9139 63.5909C45.965 62.3913 51.3912 54.4326 51.3912 54.0901C51.3912 53.6641 50.8531 53.058 50.4833 53.0673C50.3469 53.0709 50.0938 53.157 49.9204 53.2589ZM8.3618 58.3136C8.03761 58.6352 8.03761 59.3676 8.3618 59.6892C8.54796 59.8739 10.4706 59.9393 15.7081 59.9393C22.5069 59.9393 22.8113 59.9225 23.0197 59.5362C23.3151 58.9885 23.2941 58.775 22.9071 58.3909C22.6201 58.1064 21.662 58.0634 15.5955 58.0634C10.4454 58.0634 8.54775 58.1291 8.3618 58.3136Z" fill="#FF0000"/>
</svg>
