<svg width="60" height="84" viewBox="0 0 60 84" fill="none" xmlns="http://www.w3.org/2000/svg">
<path fill-rule="evenodd" clip-rule="evenodd" d="M25.2057 12.3752C23.0559 13.1229 21.1604 15.0541 20.5334 17.136C20.1418 18.4356 20.0612 22.518 20.4089 23.4203C20.5876 23.8836 20.5621 23.9917 20.2736 23.9917C19.5237 23.9917 18.3164 24.7658 17.7495 25.6106C17.2579 26.3431 17.1582 26.7456 17.1582 28.0017C17.1582 29.2577 17.2579 29.6602 17.7495 30.3927C18.3713 31.3192 19.5374 32.0116 20.4758 32.0116C20.9745 32.0116 21.0608 32.1473 21.2899 33.2926C21.6139 34.9115 22.1916 35.8478 23.3207 36.5846C24.149 37.1252 24.1978 37.2146 24.0218 37.8744C23.9178 38.2645 23.7229 39.0017 23.5884 39.5125C23.3575 40.3907 23.1844 40.5402 20.4297 42.2415L17.5155 44.0416H14.5718C10.9452 44.0416 10.9248 44.0576 10.9248 46.927V48.8219L9.11254 50.6184L7.3 52.4146L7.98575 53.0622L8.67127 53.7098L9.79806 52.6156L10.9248 51.5213V57.2408V62.9602L8.94782 63.0246L6.9708 63.0889V64.0914V65.0939L7.93107 65.1623L8.89134 65.2309V67.6931V70.1552L7.19675 70.0708C5.63953 69.9932 5.44251 69.9277 4.76783 69.263L4.03351 68.5396L3.96279 64.5274C3.87806 59.7264 4.09813 58.6994 5.60315 56.8775L6.59618 55.6756L5.93439 55.0503L5.2726 54.4252L4.35797 55.304C3.85501 55.7874 3.11866 56.8323 2.72167 57.626L2 59.0689V63.991V68.9132L2.62338 69.842C2.96614 70.353 3.67041 71.0474 4.18851 71.3854L5.13025 72H30.3562H55.5821L56.5238 71.3854C57.0419 71.0474 57.7462 70.353 58.0889 69.842L58.7123 68.9132V63.991V59.0689L57.9879 57.626C57.4461 56.5467 56.6465 55.5778 54.8157 53.7827L52.3678 51.3825L51.7168 52.0526L51.0659 52.7225L53.3757 55.0634C56.6598 58.3915 56.6788 58.4429 56.6788 64.0313V68.5378L55.9445 69.2621C55.2696 69.928 55.0735 69.9932 53.5156 70.0708L51.821 70.1552V67.6931V65.2309L52.7813 65.1623L53.7415 65.0939V64.0914V63.0889L51.7645 63.0246L49.7875 62.9602V53.9961C49.7875 46.2433 49.74 44.965 49.4357 44.5368C49.1029 44.0681 48.9262 44.0416 46.1405 44.0416H43.1969L40.2826 42.2415C37.5279 40.5402 37.3548 40.3907 37.1239 39.5125C36.9895 39.0017 36.7934 38.2605 36.6881 37.8655C36.5114 37.203 36.5566 37.111 37.2748 36.6732C38.3564 36.0143 39.1192 34.8151 39.422 33.2988C39.6518 32.1471 39.7374 32.0116 40.2365 32.0116C41.1749 32.0116 42.341 31.3192 42.9628 30.3927C43.4545 29.6602 43.5541 29.2577 43.5541 28.0017C43.5541 26.7456 43.4545 26.3431 42.9628 25.6106C42.3977 24.7687 41.1891 23.9917 40.4449 23.9917C40.1541 23.9917 40.1353 23.8785 40.3332 23.3189C40.4679 22.9382 40.5361 21.5117 40.491 20.0329C40.42 17.7196 40.3389 17.2756 39.7849 16.1629C39.0544 14.6966 37.5408 13.2363 36.0446 12.5546C35.097 12.1228 34.5456 12.0673 30.6951 12.0161C26.9837 11.9669 26.2401 12.0154 25.2057 12.3752ZM34.7293 14.2076C35.672 14.4658 37.4362 15.9303 37.9233 16.859C38.2704 17.5209 38.6079 19.0906 38.403 19.0906C38.3273 19.0906 37.2888 18.5943 36.0952 17.9879C33.511 16.6746 31.9965 16.3235 29.5654 16.4736C27.6163 16.5942 26.1556 17.0952 23.6047 18.5181L22.1629 19.3221L22.312 18.4033C22.3938 17.8979 22.6022 17.2193 22.7748 16.8951C23.273 15.9599 24.7936 14.6308 25.7503 14.2947C26.8285 13.9159 33.4297 13.8518 34.7293 14.2076ZM35.5229 19.9995C38.2075 21.3462 38.3813 21.4734 38.447 22.1413C38.5318 23.0039 37.856 23.7689 37.0091 23.7689C36.6917 23.7689 35.8222 23.3608 35.0773 22.862C32.9945 21.4674 32.0216 21.1054 30.3562 21.1054C28.6907 21.1054 27.7178 21.4674 25.635 22.862C24.8901 23.3608 24.0207 23.7689 23.7032 23.7689C22.869 23.7689 22.1799 23.003 22.2653 22.1709C22.3281 21.5581 22.5601 21.3705 24.5946 20.2885C27.6697 18.6528 28.4987 18.4129 30.778 18.4976C32.5962 18.5653 32.7774 18.6225 35.5229 19.9995ZM33.859 24.5047C35.2705 25.4063 36.0654 25.7739 36.6033 25.7739H37.3605L37.3596 29.6168C37.3584 34.5898 37.4877 34.367 33.4329 36.3876L30.3756 37.911L27.4046 36.4652C23.2011 34.4194 23.3519 34.6682 23.3519 29.7667V25.7739H24.1137C24.6486 25.7739 25.4016 25.4353 26.6409 24.6375C28.9429 23.156 29.1128 23.093 30.6058 23.1703C31.7075 23.2271 32.1303 23.4007 33.859 24.5047ZM21.0924 28.0017C21.0924 29.7745 21.0459 30.0066 20.6909 30.0066C20.4699 30.0066 20.0632 29.8505 19.7871 29.6598C19.3648 29.3682 19.2848 29.1042 19.2848 28.0017C19.2848 26.8991 19.3648 26.6351 19.7871 26.3435C20.0632 26.1528 20.4699 25.9967 20.6909 25.9967C21.0459 25.9967 21.0924 26.2288 21.0924 28.0017ZM25.2534 26.2992C25.1831 26.4796 25.1587 26.9116 25.199 27.2589C25.2674 27.8479 25.3404 27.8903 26.2891 27.8903H27.3059V26.9992C27.3059 26.1098 27.3041 26.1078 26.3436 26.0394C25.6563 25.9904 25.3447 26.0646 25.2534 26.2992ZM33.3874 26.2992C33.3172 26.4796 33.2928 26.9116 33.333 27.2589C33.4015 27.8479 33.4744 27.8903 34.4232 27.8903H35.4399V26.9992C35.4399 26.1098 35.4381 26.1078 34.4776 26.0394C33.7903 25.9904 33.4787 26.0646 33.3874 26.2992ZM40.9252 26.3435C41.3475 26.6351 41.4275 26.8991 41.4275 28.0017C41.4275 29.1042 41.3475 29.3682 40.9252 29.6598C40.6491 29.8505 40.2424 30.0066 40.0214 30.0066C39.6665 30.0066 39.6199 29.7745 39.6199 28.0017C39.6199 26.2288 39.6665 25.9967 40.0214 25.9967C40.2424 25.9967 40.6491 26.1528 40.9252 26.3435ZM27.4189 32.8633C27.4189 34.1951 29.5308 35.2898 31.2638 34.856C32.2595 34.6068 33.2935 33.5916 33.2935 32.8633C33.2935 32.4536 33.1954 32.4255 32.2202 32.557C31.6298 32.6365 30.7911 32.7016 30.3562 32.7016C29.9212 32.7016 29.0825 32.6365 28.4921 32.557C27.5169 32.4255 27.4189 32.4536 27.4189 32.8633ZM30.3562 39.8088C30.6799 39.8088 31.7774 39.4118 32.795 38.9266L34.6451 38.0446L34.7788 38.6481C34.8523 38.9803 35.0057 39.5426 35.1198 39.8977C35.2337 40.253 35.327 40.5894 35.327 40.6456C35.327 40.7015 34.5981 41.4885 33.7072 42.3946L32.0874 44.0416H30.3562H28.625L27.0052 42.3946C26.1143 41.4885 25.3854 40.7015 25.3854 40.6456C25.3854 40.5894 25.4787 40.253 25.5926 39.8977C25.7067 39.5426 25.8601 38.9803 25.9335 38.6481L26.0673 38.0446L27.9173 38.9266C28.935 39.4118 30.0324 39.8088 30.3562 39.8088ZM25.0464 43.1505L25.929 44.0416L23.6802 44.0409L21.4313 44.0402L22.787 43.1505C23.5326 42.6612 24.1474 42.2605 24.1533 42.26C24.1592 42.2596 24.5611 42.6603 25.0464 43.1505ZM38.4861 43.5205L39.2729 44.0416H37.0281H34.7833L35.6634 43.1529C36.6465 42.1602 36.3806 42.1257 38.4861 43.5205ZM25.2021 50.2686C25.2536 53.3592 25.351 54.5684 25.5661 54.7798C25.9886 55.1958 34.7237 55.1958 35.1462 54.7798C35.3613 54.5684 35.4587 53.3592 35.5102 50.2686L35.5802 46.0465H41.5543H47.528V54.4851V62.9236L45.91 63.1605C42.2301 63.6991 39.629 65.873 38.7311 69.1609L38.4728 70.1064H37.0127H35.5529V67.5942C35.5529 63.88 35.8665 64.0914 30.3562 64.0914C24.8458 64.0914 25.1594 63.88 25.1594 67.5942V70.1064H23.6996H22.2395L21.9813 69.1609C21.0852 65.8794 18.5162 63.7054 14.9098 63.1765L13.1843 62.9234V54.4849V46.0465H19.1581H25.1321L25.2021 50.2686ZM33.2935 49.4996V52.9526H30.3562H27.4189V49.4996V46.0465H30.3562H33.2935V49.4996ZM15.0859 48.3541C15.0156 48.5345 14.9912 48.9665 15.0314 49.3138C15.0999 49.9028 15.1729 49.9451 16.1216 49.9451H17.1384V49.054C17.1384 48.1647 17.1365 48.1627 16.176 48.0943C15.4887 48.0453 15.1771 48.1195 15.0859 48.3541ZM19.1513 48.3581C19.0819 48.5363 19.0582 48.9665 19.0984 49.3138L19.1719 49.9451H21.2054H23.2389V49.054V48.1629L21.2582 48.0985C19.69 48.0475 19.2512 48.1017 19.1513 48.3581ZM39.4277 48.4294C39.0112 48.6316 38.4034 49.1953 38.077 49.6818C37.5503 50.4667 37.4827 50.7877 37.4784 52.5269C37.4753 53.7909 37.5726 54.5856 37.7525 54.7638C38.1041 55.112 40.3522 55.2806 41.9752 55.0808C44.3664 54.7861 45.45 53.5414 45.6563 50.8518C45.7586 49.5174 45.7089 49.0701 45.4082 48.6174C45.0438 48.0691 44.9572 48.0518 42.6085 48.0567C40.8202 48.0604 39.9862 48.158 39.4277 48.4294ZM43.461 51.0971C43.461 52.6325 43.0651 52.9526 41.1665 52.9526H39.6199V51.8514C39.6199 50.4076 40.0937 50.0565 42.0427 50.0565H43.461V51.0971ZM15.0829 52.3716C15.0142 52.5481 14.9912 52.9765 15.0314 53.3238L15.1048 53.9551H19.1719H23.2389V53.064V52.1729L19.2234 52.1121C15.8977 52.0617 15.1862 52.1063 15.0829 52.3716ZM16.688 65.7291C17.9206 66.2949 19.1628 67.5362 19.652 68.6907C20.2733 70.157 20.42 70.1064 15.5567 70.1064H11.1508V67.6559V65.2053L13.3538 65.2076C15.1841 65.2093 15.7481 65.2976 16.688 65.7291ZM49.5615 67.6559V70.1064H45.1556C40.2923 70.1064 40.439 70.157 41.0603 68.6907C41.5495 67.5362 42.7918 66.2949 44.0243 65.7291C44.9642 65.2976 45.5282 65.2093 47.3586 65.2076L49.5615 65.2053V67.6559ZM33.2935 68.1014V70.1064H30.3562H27.4189V68.1014V66.0964H30.3562H33.2935V68.1014Z" fill="#FF0000"/>
</svg>
