<svg width="24" height="24" viewBox="0 0 24 24" fill="none" xmlns="http://www.w3.org/2000/svg">
<rect width="24" height="24" rx="5" fill="#FF0000"/>
<path d="M12.5078 11.9615L16.7909 8.06104C17.0697 7.80733 17.0697 7.39712 16.7909 7.14341C16.5123 6.8897 16.0619 6.8897 15.7832 7.14341L11.4999 11.0439L7.21676 7.14341C6.93801 6.8897 6.48767 6.8897 6.20906 7.14341C5.93031 7.39712 5.93031 7.80733 6.20906 8.06104L10.4922 11.9615L6.20906 15.862C5.93031 16.1157 5.93031 16.5259 6.20906 16.7796C6.34791 16.9062 6.53047 16.9697 6.71291 16.9697C6.89534 16.9697 7.07778 16.9062 7.21676 16.7796L11.4999 12.8791L15.7832 16.7796C15.9222 16.9062 16.1047 16.9697 16.2871 16.9697C16.4695 16.9697 16.652 16.9062 16.7909 16.7796C17.0697 16.5259 17.0697 16.1157 16.7909 15.862L12.5078 11.9615Z" fill="white"/>
</svg>
