<svg width="41" height="41" viewBox="0 0 41 41" fill="none" xmlns="http://www.w3.org/2000/svg">
<path fill-rule="evenodd" clip-rule="evenodd" d="M14.4988 0.762728C12.9363 1.25688 12.0232 2.27464 10.1286 5.63386C9.62997 6.51812 9.54126 6.77847 9.66158 7.00621C9.74316 7.16092 10.4045 7.67312 11.1314 8.14476C16.2353 11.4565 17.4896 12.2296 17.7581 12.2296C18.1612 12.2296 18.5024 11.7372 19.9328 9.09065C20.587 7.88008 21.1678 6.88975 21.2235 6.88975C21.279 6.88975 22.0089 8.19932 22.8451 9.79984C24.0044 12.0186 24.3205 12.7371 24.1757 12.8248C21.7113 14.3175 21.2785 14.6362 21.2377 14.9873C21.2142 15.1908 21.29 15.4372 21.4062 15.5349C21.7431 15.8182 31.8766 16.9941 32.3602 16.8059C32.4911 16.7551 32.8452 16.1755 33.1475 15.5179C33.4496 14.8603 34.5756 12.4875 35.6498 10.2451C37.6548 6.05947 37.7464 5.76649 37.1505 5.44336C36.9334 5.32545 36.56 5.45822 35.2824 6.10767C33.853 6.83433 33.6679 6.8948 33.5161 6.68438C33.4229 6.55521 32.8422 5.56733 32.2258 4.4891C30.8491 2.08096 30.3985 1.53571 29.3572 1.01745L28.5422 0.611767L21.8501 0.583047C16.3552 0.559379 15.0402 0.591563 14.4988 0.762728ZM19.5577 3.60745C19.9963 4.50094 20.3551 5.28374 20.3551 5.34695C20.3551 5.57137 17.5765 10.4958 17.4492 10.4968C17.378 10.4973 16.7372 10.1197 16.0253 9.65754C15.3134 9.19542 13.9461 8.31059 12.9867 7.69102C12.0274 7.07159 11.2425 6.52894 11.2425 6.48507C11.2425 6.44134 11.6927 5.67456 12.2429 4.78107C13.8236 2.21446 14.186 1.99668 16.888 1.98845L18.7605 1.98282L19.5577 3.60745ZM28.6846 2.25645C29.6233 2.69692 29.8144 2.96536 32.1387 7.10623C33.0304 8.69506 33.1619 8.76217 34.2484 8.18286C34.6981 7.94315 35.1144 7.7652 35.1733 7.78742C35.2324 7.80965 34.4694 9.53848 33.4777 11.6293L31.6747 15.4308L30.6068 15.3473C28.4291 15.1768 24.1953 14.6236 24.2324 14.5142C24.2534 14.452 24.6231 14.1884 25.0538 13.9283C25.644 13.5718 25.8476 13.3618 25.8803 13.0756C25.9111 12.8075 25.1735 11.2581 23.3729 7.80835C21.9699 5.12022 20.7152 2.70991 20.5849 2.45186L20.3478 1.98282L24.2314 1.986C27.7075 1.98888 28.1748 2.01717 28.6846 2.25645ZM6.54378 11.8843C0.974833 12.2556 0.419106 12.3142 0.181181 12.5554C-0.245688 12.988 0.0538892 13.4102 1.37778 14.2416C2.0655 14.6736 2.86698 15.1767 3.15873 15.3598L3.68925 15.6926L2.33475 18.4712C1.16378 20.8729 0.96871 21.3782 0.896236 22.1962C0.791584 23.376 1.08191 24.4866 1.83726 25.7958C2.13484 26.3118 2.69726 27.286 3.08682 27.9607C3.47653 28.6354 4.62187 30.64 5.63223 32.4154C6.64259 34.1909 7.7129 35.9258 8.01077 36.2707C8.3364 36.6481 8.93 37.0865 9.5004 37.3711C10.4132 37.8266 10.5239 37.8462 12.4675 37.8972C15.3493 37.9727 15.0869 38.5273 15.0869 32.3625C15.0869 27.5758 15.0759 27.3723 14.8021 27.0947C14.5384 26.8274 14.3275 26.8061 11.9544 26.8061C10.5448 26.8061 9.39147 26.7505 9.39147 26.6824C9.39147 26.6144 9.72109 25.9813 10.124 25.2753C10.5268 24.5694 11.2419 23.3099 11.7128 22.4764C12.1838 21.643 12.5893 20.9357 12.6141 20.9045C12.639 20.8735 13.2687 21.0845 14.0138 21.3735C15.4494 21.9305 15.9207 22.0065 16.1975 21.726C16.463 21.4568 16.4063 21.1461 15.8825 20.0019C15.6152 19.4181 14.7182 17.4594 13.8891 15.6492C13.0599 13.8388 12.3815 12.3066 12.3815 12.2439C12.3815 12.1813 12.2644 12.0225 12.1211 11.8912C11.8053 11.6015 10.8039 11.6003 6.54378 11.8843ZM11.205 13.1316C11.2819 13.2309 11.6486 13.994 12.0199 14.8274C12.3912 15.6609 13.0483 17.1093 13.48 18.0462C13.9118 18.9832 14.23 19.785 14.1874 19.8283C14.1447 19.8715 13.7405 19.7668 13.289 19.5955C12.8375 19.4243 12.3316 19.319 12.1647 19.3614C11.959 19.4138 11.5379 20.0088 10.8566 21.2102C7.08954 27.8517 5.97851 29.7632 5.86233 29.8025C5.73603 29.8452 3.74023 26.4645 2.73029 24.4969C2.29189 23.643 2.2533 23.4684 2.30043 22.5486C2.34913 21.5998 2.44111 21.3587 3.81341 18.5866C4.61703 16.9629 5.25577 15.5017 5.23284 15.3393C5.19739 15.0882 3.75318 13.9678 3.20714 13.768C2.75279 13.6016 3.6051 13.487 7.06206 13.2497C9.16551 13.1052 10.9267 12.9791 10.9759 12.9691C11.0251 12.9593 11.1281 13.0325 11.205 13.1316ZM33.0273 17.6247C29.4176 19.7776 28.8208 20.1817 28.783 20.4984C28.7435 20.8289 29.4583 22.2584 31.2697 25.4711L31.6154 26.0845H28.477H25.3385V24.7039C25.3385 23.1087 25.2142 22.7651 24.6372 22.7651C24.2865 22.7651 23.7394 23.3108 20.6554 26.7367C18.689 28.921 17.0802 30.8249 17.0802 30.9676C17.0802 31.1103 17.5767 31.8822 18.1837 32.6827C18.7906 33.4833 20.3764 35.5758 21.7077 37.333C24.2795 40.7273 24.5811 40.9998 25.0778 40.3781C25.278 40.1275 25.3385 39.804 25.3385 38.9852V37.9188H28.0179C32.3995 37.9188 32.8903 37.6335 35.0315 33.8415C35.9784 32.1646 37.1956 30.0654 38.9438 27.0947C40.7421 24.0389 40.9987 23.4433 41 22.3223C41.0013 21.3396 40.6949 20.4995 39.3193 17.7138C38.1482 15.3424 38.0464 15.1861 37.6498 15.1539C37.3255 15.1275 36.254 15.7001 33.0273 17.6247ZM38.4532 19.0488L39.6014 21.394L39.5525 22.408C39.5077 23.3368 39.438 23.5342 38.7241 24.7564L37.9446 26.091L35.5403 26.0517L33.1358 26.0123L31.7948 23.5681C31.0571 22.2237 30.4721 21.0334 30.4946 20.9227C30.5235 20.7807 36.8499 16.8507 37.2662 16.7162C37.2876 16.7092 37.8217 17.759 38.4532 19.0488ZM23.9147 26.2186C23.9147 27.6218 23.4277 27.5277 30.6881 27.5277C34.1674 27.5277 37.0141 27.5557 37.0141 27.59C37.0141 27.6242 36.5132 28.5173 35.9011 29.5745C35.289 30.6316 34.3217 32.3083 33.7519 33.3006C33.1819 34.2928 32.5135 35.3208 32.2664 35.5849C31.4864 36.4188 31.1947 36.4756 27.7021 36.4756C24.157 36.4756 23.9183 36.5329 23.9106 37.3859L23.9063 37.8467L23.519 37.4012C23.0557 36.8682 18.7729 31.1933 18.7404 31.0692C18.7097 30.952 23.6729 25.363 23.8079 25.363C23.8666 25.3629 23.9147 25.7479 23.9147 26.2186ZM13.663 32.378V36.5068L12.0612 36.4491C10.2943 36.3856 9.91758 36.2547 9.11937 35.4271C8.52193 34.8078 6.66481 31.5657 6.75864 31.3056C6.79651 31.2007 7.2184 30.47 7.69624 29.682L8.56479 28.2493H11.1139H13.663V32.378Z" fill="#FF0000"/>
</svg>
