<svg width="24" height="31" viewBox="0 0 24 31" fill="none" xmlns="http://www.w3.org/2000/svg">
<path d="M10.4066 0.610909L10.4066 0.610913C7.94094 1.27879 6.16433 3.40361 5.99531 5.86748L5.99531 5.86749L5.9453 6.59615L5.92931 6.82903H5.69588H4.02471C3.49556 6.82903 3.06134 6.83887 2.74251 6.857C2.5828 6.86607 2.45524 6.87706 2.36066 6.88937C2.26325 6.90205 2.22471 6.91347 2.22013 6.91482C2.21978 6.91493 2.21963 6.91497 2.21967 6.91495M10.4066 0.610909L2.21967 6.91495M10.4066 0.610909C11.3368 0.358866 12.6874 0.410808 13.6486 0.739043C15.8785 1.50061 17.4636 3.53166 17.6419 5.84839L17.6996 6.59821L17.7174 6.82903H17.9489H19.6196C20.1485 6.82903 20.5826 6.83887 20.9014 6.857C21.0611 6.86607 21.1886 6.87706 21.2832 6.88937C21.3882 6.90305 21.4248 6.91526 21.4241 6.91495C21.5206 6.95899 21.5775 6.99767 21.6196 7.04345C21.6615 7.08886 21.7033 7.15704 21.7428 7.28115C21.8265 7.54381 21.8795 7.9839 21.9451 8.79916L21.9451 8.79918C22.0736 10.3951 22.2722 12.8258 22.5109 15.7196C22.5896 16.6757 22.736 18.5158 22.8361 19.8083C22.9362 21.1016 23.0822 22.8796 23.1606 23.76C23.2385 24.636 23.3298 25.9741 23.3631 26.7307L23.3631 26.7307L23.4214 28.0504L23.1505 28.6016L23.1505 28.6016C22.9448 29.0203 22.7684 29.2363 22.4675 29.4577C22.4103 29.4998 22.3618 29.5368 22.3186 29.5696C22.1765 29.6781 22.0927 29.742 21.9472 29.7975C21.7552 29.8707 21.4528 29.9258 20.8125 29.9604C19.6714 30.022 17.5523 30.0162 13.2904 30.0044C12.7845 30.003 12.2485 30.0016 11.6804 30.0001L2.07685 29.9754L1.67886 29.7717C1.10475 29.4778 0.687975 29.0466 0.43382 28.4902L0.433813 28.4902M10.4066 0.610909L0.433813 28.4902M2.21967 6.91495C2.12321 6.95899 2.06636 6.99767 2.02418 7.04345M2.21967 6.91495L2.02418 7.04345M1.69873 8.79916L1.69873 8.79918C1.57025 10.3951 1.37159 12.8258 1.13296 15.7196M1.69873 8.79916L0.483217 23.76C0.56159 22.8796 0.70758 21.1016 0.807743 19.8083C0.907842 18.5158 1.05419 16.6757 1.13296 15.7196M1.69873 8.79916C1.7643 7.9839 1.8173 7.54381 1.90097 7.28115M1.69873 8.79916L1.90097 7.28115M1.13296 15.7196L0.883811 15.6991L1.13296 15.7196ZM0.433813 28.4902C0.322063 28.2456 0.278773 28.138 0.260288 27.9387C0.239717 27.717 0.25148 27.3916 0.281182 26.7185C0.314303 25.9686 0.405326 24.636 0.483215 23.76L0.433813 28.4902ZM20.0658 8.64749H18.9934H18.1711H17.9211V8.89749V11.4305V14.2135M20.0658 8.64749L21.4963 26.1418L21.7453 26.1197C21.6832 25.4193 21.5507 23.8096 21.4509 22.543C21.1041 18.1355 20.8013 14.4025 20.7072 13.3728C20.6555 12.8062 20.5704 11.7292 20.5183 10.9807C20.4662 10.2313 20.3988 9.39103 20.3684 9.11387L20.3684 9.11384L20.3143 8.62023L20.2898 8.39749H20.0658H18.9934H17.9211H17.6711V8.64749V11.4305V14.1101M20.0658 8.64749L20.1199 9.1411L20.0658 8.64749ZM17.9211 14.2135L17.7441 14.0369L17.6711 14.1101M17.9211 14.2135H17.6711V14.1101M17.9211 14.2135L17.6021 14.5332C17.3414 14.7944 17.2115 14.8529 16.8921 14.8529L5.97272 14.1101M17.6711 14.1101L17.4251 14.3566C17.2994 14.4825 17.2282 14.5352 17.1665 14.563C17.109 14.5889 17.0382 14.6029 16.8921 14.6029C16.7998 14.6029 16.6958 14.5934 16.6049 14.5781C16.5598 14.5705 16.5205 14.5619 16.4894 14.5532C16.474 14.5489 16.4618 14.5449 16.4527 14.5416C16.4438 14.5383 16.44 14.5364 16.4401 14.5364C16.3581 14.4924 16.3285 14.4664 16.3045 14.4278C16.2744 14.3795 16.2389 14.2866 16.2096 14.0795C16.1507 13.6628 16.1312 12.9127 16.1067 11.4639L16.0598 8.69027L16.0557 8.4445H15.8098H11.8219H7.83398H7.58817L7.58401 8.69027L7.5371 11.4639C7.5126 12.9127 7.49317 13.6628 7.43423 14.0795C7.40494 14.2866 7.36945 14.3795 7.33933 14.4278C7.31532 14.4664 7.28576 14.4924 7.20376 14.5364C7.20376 14.5364 7.20373 14.5364 7.20369 14.5364C7.20313 14.5367 7.19929 14.5385 7.19112 14.5416C7.18202 14.5449 7.16983 14.5489 7.15438 14.5532C7.12332 14.5619 7.08406 14.5705 7.03888 14.5781C6.94801 14.5934 6.84405 14.6029 6.7517 14.6029C6.60562 14.6029 6.53482 14.5889 6.47734 14.563C6.41563 14.5352 6.34441 14.4825 6.21871 14.3566L5.97272 14.1101M5.97272 14.1101V11.4305V8.64749V8.39749H5.72272H4.65039H3.57806H3.35428L3.32958 8.6199L3.27479 9.11351L3.27478 9.11353C3.24402 9.39088 3.15631 10.4857 3.07977 11.5441C3.00299 12.6058 2.91748 13.6794 2.88992 13.9325L5.97272 14.1101ZM1.90097 7.28115C1.94051 7.15704 1.98233 7.08886 2.02418 7.04345M1.90097 7.28115L2.02418 7.04345M15.604 4.36144L15.604 4.36141C15.0936 3.37444 14.1531 2.5676 13.1463 2.26812C12.0044 1.9284 10.8883 2.01093 9.85872 2.51794L9.85871 2.51795C9.54022 2.67481 9.16336 2.97962 8.83682 3.30686C8.51025 3.63413 8.20609 4.01181 8.04952 4.33098L8.04951 4.331C7.91506 4.60513 7.77642 5.07465 7.68239 5.49031C7.63473 5.70101 7.59656 5.90649 7.57561 6.07616C7.56518 6.16066 7.55845 6.24069 7.55771 6.31027C7.55708 6.37052 7.5599 6.45531 7.58833 6.52952C7.61822 6.60752 7.6757 6.64713 7.697 6.66068C7.72399 6.67784 7.75009 6.68831 7.76753 6.69454C7.80333 6.70731 7.84283 6.7161 7.87845 6.72269C7.95213 6.73634 8.04988 6.74778 8.16329 6.7578C8.39217 6.77802 8.71055 6.79456 9.08564 6.80769C9.8371 6.834 10.8302 6.8471 11.8219 6.8471C12.8136 6.8471 13.8067 6.834 14.5582 6.80769C14.9333 6.79456 15.2516 6.77802 15.4805 6.7578C15.5939 6.74778 15.6917 6.73634 15.7654 6.72269C15.801 6.7161 15.8405 6.70731 15.8763 6.69454C15.8937 6.68831 15.9198 6.67784 15.9468 6.66068C15.9681 6.64713 16.0256 6.60752 16.0555 6.52952L16.0555 6.52946C16.084 6.45497 16.0865 6.36943 16.0857 6.30967C16.0848 6.24005 16.078 6.15974 16.0675 6.07493C16.0464 5.90462 16.0084 5.69847 15.9614 5.4886C15.8692 5.07702 15.7334 4.61161 15.604 4.36144ZM2.19288 22.543C2.09316 23.8096 1.96065 25.4193 1.89854 26.1196L2.88992 13.9326C2.84151 14.3761 2.62787 17.0161 2.19288 22.543Z" fill="white" stroke="white" stroke-width="0.5"/>
</svg>
