<svg width="20" height="31" viewBox="0 0 20 31" fill="none" xmlns="http://www.w3.org/2000/svg">
<path fill-rule="evenodd" clip-rule="evenodd" d="M8.24461 0.279664C5.10978 0.811338 2.42621 2.75523 1.04503 5.49489C0.074032 7.42112 -0.231093 9.56097 0.18856 11.5019C0.676967 13.7608 2.16329 16.7918 4.51416 20.3229C5.02236 21.0864 5.43826 21.7428 5.43826 21.7817C5.43826 21.8205 5.06485 21.9499 4.60843 22.0692C1.73342 22.8208 0.00687255 24.2194 2.52778e-05 25.8024C-0.00963594 28.0453 2.75047 29.6208 7.64252 30.1646C10.5098 30.4834 14.2723 29.9986 16.541 29.018C19.2119 27.8637 20.0589 25.9158 18.6595 24.1455C18.0469 23.3705 16.4239 22.5173 14.7099 22.0692C14.2535 21.9499 13.8801 21.8205 13.8801 21.7817C13.8801 21.7428 14.296 21.0864 14.8042 20.3229C16.06 18.4366 16.9532 16.899 17.7236 15.2973C19.2202 12.1857 19.5809 10.3546 19.14 8.10627C18.866 6.7089 18.43 5.64038 17.6678 4.49884C16.2065 2.3104 13.8729 0.789251 11.2537 0.317916C10.4957 0.18145 8.94031 0.161713 8.24461 0.279664ZM10.9915 2.07384C12.6051 2.32468 14.1299 3.1494 15.3393 4.42544C16.3824 5.52591 16.939 6.53183 17.3155 7.99574C17.5316 8.83644 17.5551 9.07789 17.515 10.0415C17.4759 10.9815 17.4199 11.2833 17.1146 12.2036C16.5377 13.9434 15.1763 16.536 13.4567 19.1697C12.1372 21.1909 9.82286 24.3389 9.65646 24.3389C9.49147 24.3389 7.18778 21.201 5.86166 19.1697C4.14206 16.536 2.78067 13.9434 2.20372 12.2036C1.42913 9.86849 1.72347 7.59894 3.06985 5.52422C3.61163 4.68944 4.86102 3.52224 5.72922 3.0401C6.53945 2.59 7.6049 2.18737 8.2885 2.0728C8.99087 1.95514 10.2309 1.95551 10.9915 2.07384ZM9.00259 3.7666C7.82402 3.88944 6.88369 4.27318 5.89543 5.03446C2.34498 7.76952 2.8906 13.4537 6.89213 15.4163C7.89108 15.9063 8.57834 16.0682 9.65918 16.0682C10.74 16.0682 11.4273 15.9063 12.4262 15.4163C16.1827 13.5739 16.9513 8.48343 13.9252 5.49019C12.6032 4.18258 10.8618 3.57281 9.00259 3.7666ZM10.5755 5.58963C12.3441 6.0074 13.6736 7.42366 13.9744 9.21003C14.4643 12.1202 11.9556 14.6868 9.02604 14.2728C7.15936 14.009 5.61347 12.4632 5.33414 10.5811C5.05256 8.68418 6.0305 6.80185 7.73632 5.95749C8.76069 5.45044 9.55225 5.3479 10.5755 5.58963ZM7.0937 23.9865C7.29077 24.2578 7.82242 24.9517 8.27519 25.5284C9.16768 26.6651 9.43669 26.8505 9.93954 26.6748C10.2022 26.5831 11.1432 25.476 12.2247 23.9865C12.6308 23.4271 12.6658 23.4188 13.7099 23.6354C15.1719 23.9389 16.7889 24.6828 17.2942 25.2845C18.1407 26.2926 16.6834 27.3977 13.6456 28.0516C10.4281 28.7442 6.68427 28.5614 3.93749 27.5775C2.56794 27.087 1.78013 26.4594 1.78013 25.8588C1.78013 25.1021 3.37357 24.1496 5.43826 23.6721C6.60267 23.4028 6.68071 23.4177 7.0937 23.9865Z" fill="white"/>
</svg>
