<svg width="40" height="24" viewBox="0 0 40 24" fill="none" xmlns="http://www.w3.org/2000/svg">
<path d="M39.7 0.199219H0V7.89922H39.7V0.199219Z" fill="black"/>
<path d="M39.7 7.89941H0V15.5994H39.7V7.89941Z" fill="#DF1E26"/>
<path d="M39.7 15.5996H0V23.2996H39.7V15.5996Z" fill="#F6D927"/>
<path d="M14.3984 5.69922V14.9992C14.3984 18.4992 19.0984 18.0992 19.8984 19.3992C20.6984 17.9992 25.3984 18.3992 25.3984 14.9992V5.69922H14.3984Z" fill="#F5D627"/>
<path d="M19.8984 19.4992C19.5984 18.9992 18.7984 18.6992 17.8984 18.3992C16.2984 17.8992 14.3984 17.1992 14.3984 14.9992V5.69922H25.4984V14.9992C25.4984 17.1992 23.4984 17.8992 21.9984 18.3992C20.9984 18.6992 20.1984 18.8992 19.8984 19.4992ZM14.3984 5.69922V14.8992C14.3984 17.0992 16.1984 17.6992 17.8984 18.1992C18.7984 18.4992 19.5984 18.7992 19.8984 19.1992C20.1984 18.6992 20.9984 18.4992 21.8984 18.1992C23.4984 17.6992 25.3984 16.9992 25.3984 14.8992V5.69922H14.3984Z" fill="black"/>
<path d="M19.4987 6.99922C19.5987 7.29922 19.3987 7.89922 19.2987 8.19922C19.1987 8.39922 18.7987 8.79921 18.7987 9.29921C18.6987 11.3992 19.3987 14.3992 19.8987 16.5992C20.2987 14.3992 21.0987 11.3992 20.9987 9.29921C20.8987 7.19921 20.5987 6.69922 20.5987 6.69922L19.4987 6.99922Z" fill="black"/>
<path d="M19.5969 7.29901C19.0969 7.29901 18.5969 7.19902 18.2969 6.99902C18.3969 7.19902 18.7969 7.29902 19.2969 7.39902L19.5969 7.29901Z" fill="#C92027"/>
<path d="M19.2969 7.39902C18.7969 7.29902 18.3969 7.19902 18.2969 6.99902C18.6969 7.09902 19.0969 7.19901 19.5969 7.29901C19.0969 7.29901 18.5969 7.19902 18.2969 6.99902C18.4969 7.19902 18.7969 7.29902 19.2969 7.39902Z" fill="black"/>
<path d="M19.3986 6.19887C18.5986 5.79887 18.0986 6.29887 18.5986 6.99887C18.6986 6.89887 19.1986 6.69886 19.3986 7.29886C19.2986 7.39886 18.9986 7.39886 18.4986 7.29886C18.6986 7.49886 19.4986 7.49886 19.5986 7.39886C19.6986 7.29886 19.3986 6.59886 19.3986 6.59886V6.19887Z" fill="#C92027"/>
<path d="M19.3973 7.49923C19.0973 7.49923 18.6973 7.39922 18.5973 7.29922C19.0973 7.29922 19.3973 7.29922 19.4973 7.19922C19.2973 6.79922 19.0973 6.79922 18.9973 6.79922C18.8973 6.79922 18.6973 6.89922 18.6973 6.89922C18.3973 6.59922 18.3973 6.19922 18.4973 6.09922C18.6973 5.89922 18.9973 5.89922 19.4973 6.09922C19.0973 5.89922 18.6973 5.89922 18.5973 6.09922C18.4973 6.29922 18.4973 6.59922 18.7973 6.89922C18.7973 6.79922 18.8973 6.79922 19.0973 6.79922C19.1973 6.79922 19.4973 6.89922 19.5973 7.29922C19.4973 7.39922 19.1973 7.39922 18.6973 7.29922C18.9973 7.49922 19.6973 7.49922 19.7973 7.39922C19.8973 7.29922 19.6973 6.89922 19.4973 6.59922C19.5973 6.69922 19.8973 7.29922 19.7973 7.39922C19.6973 7.49922 19.5973 7.49923 19.3973 7.49923Z" fill="black"/>
<path d="M20.4969 6.79932C20.5969 6.79932 20.8969 6.69933 20.9969 6.49933C20.6969 6.49933 20.0969 6.29933 19.8969 6.19933C19.6969 6.09933 19.2969 5.79932 19.2969 6.29932C19.2969 6.79932 19.7969 7.09933 19.6969 7.49933L20.4969 6.79932Z" fill="black"/>
<path d="M19.7993 6.49913C19.7993 6.49913 19.4993 6.39912 19.4993 6.29912C19.3993 6.19912 19.3993 6.59913 19.5993 6.69913C19.5993 6.59913 19.6993 6.49913 19.7993 6.49913Z" fill="#EFF6FB"/>
<path d="M19.5985 6.29883C19.4985 6.29883 19.3985 6.39883 19.4985 6.59883C19.4985 6.49883 19.5985 6.39883 19.7985 6.39883L19.5985 6.29883Z" fill="black"/>
<path d="M21.0977 10.0996V13.3996L24.7977 16.4996V8.39961C24.7977 7.79961 24.6977 7.29961 24.3977 7.09961V8.79961L21.0977 10.0996Z" fill="black"/>
<path d="M21.7992 15.9996H21.6992V9.09961H21.7992V15.9996Z" fill="#F5D627"/>
<path d="M22.6 15.9996H22.5V9.09961H22.6V15.9996Z" fill="#F5D627"/>
<path d="M23.3969 15.9996H23.2969V9.09961H23.3969V15.9996Z" fill="#F5D627"/>
<path d="M24.1977 15.9996H24.0977V9.09961H24.1977V15.9996Z" fill="#F5D627"/>
<path d="M20.3969 10.699C22.8969 10.699 23.9969 9.89904 24.4969 9.29904V7.09904C24.7969 6.99904 24.8969 6.79905 24.8969 6.49905C24.0969 7.09905 22.8969 5.59905 22.1969 7.19905C22.5969 7.99905 23.3969 7.89905 23.5969 7.49905C24.1969 7.99905 23.6969 9.69905 20.2969 9.69905V10.699H20.3969Z" fill="black"/>
<path d="M21.2965 16.0996C21.0965 16.3996 21.2965 16.5996 21.3965 16.6996C21.2965 16.4996 21.3965 16.3996 21.4965 16.1996L21.2965 16.0996Z" fill="#C92027"/>
<path d="M21.3977 16.6996C21.2977 16.6996 21.1977 16.5996 21.0977 16.3996C21.0977 16.2996 21.0977 16.1996 21.1977 16.0996C21.0977 16.1996 21.0977 16.2996 21.0977 16.3996C21.1977 16.4996 21.2977 16.5996 21.3977 16.6996C21.2977 16.4996 21.2977 16.3996 21.4977 16.1996C21.3977 16.3996 21.3977 16.4996 21.3977 16.6996Z" fill="black"/>
<path d="M22.2977 17.0996C22.2977 17.1996 22.2977 17.2996 22.0977 17.4996C22.3977 17.3996 22.5977 17.2996 22.4977 17.0996H22.2977Z" fill="#C92027"/>
<path d="M22.0977 17.4996C22.1977 17.2996 22.2977 17.1996 22.1977 17.0996C22.2977 17.1996 22.1977 17.2996 22.0977 17.4996C22.2977 17.3996 22.3977 17.2996 22.4977 17.2996C22.4977 17.2996 22.4977 17.1996 22.4977 17.0996C22.5977 17.1996 22.5977 17.1996 22.5977 17.2996C22.4977 17.3996 22.2977 17.3996 22.0977 17.4996Z" fill="black"/>
<path d="M23.3984 16.5994C23.4984 16.6994 23.4984 16.8994 23.3984 16.9994C23.5984 16.7994 23.6984 16.4994 23.4984 16.3994L23.3984 16.5994Z" fill="#C92027"/>
<path d="M23.3969 17.099C23.3969 16.899 23.3969 16.799 23.2969 16.699C23.3969 16.799 23.3969 16.899 23.3969 17.099C23.4969 16.899 23.5969 16.699 23.5969 16.599C23.5969 16.499 23.5969 16.499 23.4969 16.499C23.5969 16.499 23.5969 16.499 23.5969 16.599C23.6969 16.699 23.5969 16.899 23.3969 17.099Z" fill="black"/>
<path d="M23.2969 15.5994C23.3969 15.5994 23.4969 15.6994 23.5969 15.8994C23.5969 15.5994 23.5969 15.3994 23.2969 15.3994V15.5994Z" fill="#C92027"/>
<path d="M23.5969 15.8994C23.4969 15.6994 23.3969 15.6994 23.2969 15.5994C23.3969 15.5994 23.4969 15.6994 23.5969 15.8994C23.5969 15.5994 23.4969 15.3994 23.2969 15.3994C23.5969 15.3994 23.6969 15.5994 23.5969 15.8994Z" fill="black"/>
<path d="M20.8984 14.699L22.1984 15.899C22.1984 15.899 21.6984 15.999 21.4984 15.999C21.2984 15.999 21.0984 16.099 21.1984 16.099C21.2984 16.199 21.3984 16.199 21.3984 16.199C21.4984 16.299 21.4984 16.399 21.5984 16.299C21.6984 16.199 22.0984 16.099 22.0984 16.099C22.0984 16.099 22.0984 16.699 22.0984 16.799C22.0984 16.899 21.9984 17.099 21.9984 17.099C22.0984 17.099 22.0984 17.099 22.2984 17.099C22.4984 17.099 22.4984 17.199 22.3984 16.799C22.2984 16.499 22.3984 16.099 22.3984 16.099C22.3984 16.099 22.8984 16.399 23.0984 16.699C23.2984 16.899 23.1984 16.799 23.2984 16.699C23.3984 16.599 23.4984 16.599 23.5984 16.599C23.6984 16.599 23.3984 16.499 23.2984 16.399C23.1984 16.299 22.5984 15.999 22.5984 15.999C22.5984 15.999 22.9984 15.899 23.1984 15.899C23.3984 15.899 23.3984 15.899 23.3984 15.799C23.3984 15.699 23.3984 15.599 23.3984 15.499C23.3984 15.399 23.3984 15.399 23.1984 15.499C23.0984 15.599 22.3984 15.899 22.3984 15.899L21.2984 14.499L20.8984 14.699Z" fill="#C92027"/>
<path d="M22.4969 17.1992H22.3969C22.1969 17.1992 22.1969 17.1992 22.1969 17.1992H22.0969C22.0969 17.1992 22.0969 17.0992 22.0969 16.9992V16.8992C22.0969 16.7992 22.0969 16.3992 22.0969 16.1992C22.0969 16.1992 21.6969 16.2992 21.5969 16.3992C21.5969 16.3992 21.4969 16.4992 21.4969 16.3992C21.3969 16.3992 21.3969 16.2992 21.2969 16.2992L21.1969 16.1992C21.1969 16.1992 21.0969 16.1992 21.0969 16.0992C21.0969 15.9992 21.2969 15.9992 21.3969 15.9992C21.5969 15.9992 22.0969 15.8992 22.0969 15.8992L20.7969 14.6992L22.0969 15.8992C22.0969 15.8992 21.5969 15.9992 21.3969 15.9992C21.1969 15.9992 21.0969 15.9992 21.0969 16.0992C21.0969 16.0992 21.1969 16.0992 21.1969 16.1992C21.1969 16.1992 21.2969 16.1992 21.2969 16.2992C21.2969 16.3992 21.3969 16.3992 21.3969 16.3992H21.4969C21.5969 16.2992 21.9969 16.1992 21.9969 16.1992V16.8992V16.9992C21.9969 16.9992 21.8969 17.0992 21.9969 17.1992C22.0969 17.1992 22.0969 17.1992 22.2969 17.1992H22.4969C22.4969 17.0992 22.4969 17.0992 22.4969 17.1992C22.4969 17.1992 22.4969 17.0992 22.4969 16.9992V16.8992C22.3969 16.5992 22.4969 16.1992 22.4969 16.1992C22.4969 16.1992 22.9969 16.4992 23.1969 16.6992C23.2969 16.7992 23.2969 16.7992 23.2969 16.7992C23.2969 16.7992 23.2969 16.7992 23.2969 16.6992C23.2969 16.6992 23.2969 16.5992 23.3969 16.5992C23.4969 16.4992 23.5969 16.4992 23.6969 16.4992L23.5969 16.3992C23.4969 16.3992 23.4969 16.3992 23.3969 16.2992C23.2969 16.1992 22.6969 15.8992 22.6969 15.8992C22.6969 15.8992 23.0969 15.7992 23.2969 15.6992C23.3969 15.6992 23.4969 15.6992 23.4969 15.6992C23.4969 15.6992 23.4969 15.6992 23.4969 15.5992C23.4969 15.4992 23.4969 15.3992 23.4969 15.3992C23.4969 15.3992 23.4969 15.3992 23.4969 15.2992C23.4969 15.2992 23.3969 15.1992 23.3969 15.2992C23.2969 15.3992 22.5969 15.6992 22.5969 15.6992L21.4969 14.1992L22.5969 15.5992C22.5969 15.5992 23.1969 15.2992 23.3969 15.1992C23.4969 15.0992 23.4969 15.0992 23.5969 15.0992C23.5969 15.0992 23.5969 15.0992 23.5969 15.1992C23.5969 15.1992 23.5969 15.1992 23.5969 15.2992C23.5969 15.3992 23.5969 15.3992 23.5969 15.4992V15.5992C23.5969 15.5992 23.4969 15.5992 23.3969 15.6992C23.1969 15.6992 22.8969 15.7992 22.7969 15.7992C22.8969 15.7992 23.3969 16.0992 23.4969 16.1992C23.4969 16.1992 23.5969 16.1992 23.6969 16.2992C23.7969 16.3992 23.8969 16.3992 23.8969 16.3992H23.7969C23.6969 16.3992 23.5969 16.4992 23.5969 16.4992V16.5992C23.5969 16.5992 23.5969 16.6992 23.4969 16.6992C23.4969 16.6992 23.3969 16.6992 23.3969 16.5992C23.1969 16.3992 22.7969 16.0992 22.6969 16.0992C22.6969 16.0992 22.6969 16.4992 22.7969 16.7992V16.8992C22.5969 17.0992 22.5969 17.0992 22.4969 17.1992Z" fill="black"/>
<path d="M19.8984 18.2992L20.4984 17.5992C21.1984 17.9992 21.6984 17.8992 21.9984 17.2992C20.9984 17.4992 20.4984 16.5992 20.5984 14.5992L21.3984 15.7992V14.6992L22.2984 14.7992L19.8984 12.1992V18.2992Z" fill="black"/>
<path d="M18.5984 10.0996V13.3996L14.8984 16.4996V8.39961C14.8984 7.79961 14.9984 7.29961 15.2984 7.09961V8.79961L18.5984 10.0996Z" fill="black"/>
<path d="M17.9984 15.9996H17.8984V9.09961H17.9984V15.9996Z" fill="#F5D627"/>
<path d="M17.1977 15.9996H17.0977V9.09961H17.1977V15.9996Z" fill="#F5D627"/>
<path d="M16.3969 15.9996H16.2969V9.09961H16.3969V15.9996Z" fill="#F5D627"/>
<path d="M15.6977 15.9996H15.5977V9.09961H15.6977V15.9996Z" fill="#F5D627"/>
<path d="M19.3984 10.699C16.8984 10.699 15.7984 9.89904 15.2984 9.29904V7.09904C14.9984 6.99904 14.8984 6.79905 14.8984 6.49905C15.6984 7.09905 16.8984 5.59905 17.5984 7.19905C17.1984 7.99905 16.3984 7.89905 16.1984 7.49905C15.5984 7.99905 16.0984 9.69905 19.4984 9.69905V10.699H19.3984Z" fill="black"/>
<path d="M18.3992 16.0996C18.5992 16.3996 18.3992 16.5996 18.2992 16.6996C18.3992 16.4996 18.2992 16.3996 18.1992 16.1996L18.3992 16.0996Z" fill="#C92027"/>
<path d="M18.2992 16.6996C18.2992 16.4996 18.2992 16.3996 18.1992 16.1996C18.3992 16.2996 18.3992 16.4996 18.2992 16.6996C18.3992 16.5996 18.4992 16.4996 18.4992 16.3996C18.4992 16.2996 18.4992 16.1996 18.3992 16.0996C18.4992 16.1996 18.4992 16.2996 18.4992 16.3996C18.4992 16.5996 18.3992 16.5996 18.2992 16.6996Z" fill="black"/>
<path d="M17.4994 17.0996C17.4994 17.1996 17.4995 17.2996 17.6995 17.4996C17.3995 17.3996 17.1994 17.2996 17.2994 17.0996H17.4994Z" fill="#C92027"/>
<path d="M17.6969 17.4996C17.3969 17.4996 17.2969 17.3996 17.2969 17.2996C17.2969 17.1996 17.2969 17.1996 17.2969 17.0996C17.2969 17.1996 17.2969 17.1996 17.2969 17.2996C17.2969 17.2996 17.3969 17.3996 17.6969 17.4996C17.4969 17.3996 17.4969 17.1996 17.4969 17.0996C17.4969 17.1996 17.4969 17.2996 17.6969 17.4996Z" fill="black"/>
<path d="M16.3995 16.5994C16.2995 16.6994 16.2995 16.8994 16.3995 16.9994C16.0995 16.7994 16.0995 16.4994 16.2995 16.3994L16.3995 16.5994Z" fill="#C92027"/>
<path d="M16.3977 17.099C16.1977 16.999 16.0977 16.799 16.0977 16.599C16.0977 16.499 16.1977 16.499 16.1977 16.499L16.0977 16.599C16.0977 16.699 16.1977 16.899 16.3977 17.099C16.2977 16.899 16.2977 16.799 16.3977 16.699C16.2977 16.799 16.2977 16.899 16.3977 17.099Z" fill="black"/>
<path d="M16.3977 15.5994C16.2977 15.5994 16.1977 15.6994 16.0977 15.8994C16.0977 15.5994 16.0977 15.3994 16.3977 15.3994V15.5994Z" fill="#C92027"/>
<path d="M16.1 15.8988C16 15.5988 16.1 15.3988 16.4 15.2988C16.2 15.4988 16.1 15.5988 16.1 15.8988C16.2 15.6988 16.3 15.5988 16.4 15.5988C16.3 15.6988 16.2 15.7988 16.1 15.8988Z" fill="black"/>
<path d="M18.7982 14.699L17.4982 15.899C17.4982 15.899 17.9983 15.999 18.1983 15.999C18.3983 15.999 18.5982 16.099 18.4982 16.099C18.3982 16.199 18.2982 16.199 18.2982 16.199C18.1982 16.299 18.1983 16.399 18.0983 16.299C17.9983 16.199 17.5983 16.099 17.5983 16.099C17.5983 16.099 17.5983 16.699 17.5983 16.799C17.5983 16.899 17.6983 17.099 17.6983 17.099C17.5983 17.099 17.5983 17.099 17.3983 17.099C17.1983 17.099 17.1982 17.199 17.2982 16.799C17.3982 16.499 17.2982 16.099 17.2982 16.099C17.2982 16.099 16.7983 16.399 16.5983 16.699C16.3983 16.899 16.4983 16.799 16.3983 16.699C16.2983 16.599 16.1983 16.599 16.0983 16.599C15.9983 16.599 16.2983 16.499 16.3983 16.399C16.4983 16.299 17.0983 15.999 17.0983 15.999C17.0983 15.999 16.6982 15.899 16.4982 15.899C16.2982 15.899 16.2982 15.899 16.2982 15.799C16.2982 15.699 16.2982 15.599 16.2982 15.499C16.2982 15.399 16.2982 15.399 16.4982 15.499C16.5982 15.599 17.2982 15.899 17.2982 15.899L18.3983 14.499L18.7982 14.699Z" fill="#C92027"/>
<path d="M17.1977 17.1994C17.0977 17.1994 17.1977 17.0994 17.1977 16.9994V16.8994C17.2977 16.5994 17.1977 16.1994 17.1977 16.1994C17.1977 16.1994 16.6977 16.5994 16.5977 16.7994C16.4977 16.8994 16.4977 16.8994 16.4977 16.8994C16.4977 16.8994 16.4977 16.8994 16.3977 16.7994V16.6994C16.2977 16.5994 16.1977 16.5994 16.1977 16.5994H16.0977C16.0977 16.5994 16.0977 16.5994 16.2977 16.4994C16.3977 16.4994 16.3977 16.3994 16.4977 16.3994C16.5977 16.2994 17.0977 15.9994 17.1977 15.9994C17.0977 15.9994 16.7977 15.8994 16.5977 15.8994C16.4977 15.8994 16.3977 15.8994 16.3977 15.7994V15.6994C16.3977 15.5994 16.3977 15.4994 16.3977 15.4994C16.3977 15.4994 16.3977 15.4994 16.3977 15.3994V15.2994C16.3977 15.2994 16.4977 15.2994 16.5977 15.3994C16.6977 15.4994 17.3977 15.7994 17.3977 15.7994L18.4977 14.3994L17.3977 15.8994C17.3977 15.8994 16.6977 15.5994 16.5977 15.4994C16.4977 15.3994 16.4977 15.3994 16.4977 15.3994C16.4977 15.4994 16.4977 15.4994 16.4977 15.4994C16.4977 15.5994 16.4977 15.5994 16.4977 15.6994V15.7994C16.4977 15.7994 16.5977 15.7994 16.6977 15.7994C16.8977 15.7994 17.2977 15.8994 17.2977 15.8994C17.2977 15.8994 16.6977 16.2994 16.5977 16.2994C16.5977 16.2994 16.4977 16.2994 16.3977 16.3994C16.2977 16.3994 16.2977 16.4994 16.1977 16.4994C16.2977 16.4994 16.3977 16.5994 16.4977 16.5994C16.4977 16.5994 16.4977 16.6994 16.5977 16.6994V16.7994C16.5977 16.7994 16.5977 16.7994 16.6977 16.6994C16.8977 16.4994 17.2977 16.1994 17.3977 16.0994C17.3977 16.0994 17.4977 16.4994 17.3977 16.7994V16.8994C17.1977 17.0994 17.1977 17.0994 17.1977 17.1994C17.1977 17.0994 17.1977 17.0994 17.1977 17.1994L17.2977 17.0994C17.4977 17.0994 17.4977 17.0994 17.4977 17.0994C17.4977 17.0994 17.4977 16.9994 17.4977 16.8994V16.7994C17.4977 16.6994 17.4977 16.0994 17.4977 16.0994C17.4977 16.0994 17.8977 16.1994 17.9977 16.2994H18.0977C18.1977 16.2994 18.1977 16.1994 18.1977 16.1994C18.1977 16.0994 18.2977 16.0994 18.2977 16.0994H18.3977C18.3977 16.0994 18.2977 15.9994 18.0977 15.9994C17.8977 15.9994 17.3977 15.8994 17.3977 15.8994L18.6977 14.6994L17.3977 15.8994C17.3977 15.8994 17.8977 15.9994 18.0977 15.9994C18.1977 15.9994 18.3977 15.9994 18.3977 16.0994C18.3977 16.0994 18.2977 16.0994 18.2977 16.1994C18.2977 16.1994 18.1977 16.1994 18.1977 16.2994C18.1977 16.3994 18.0977 16.3994 17.9977 16.3994H17.8977C17.7977 16.2994 17.3977 16.1994 17.3977 16.1994C17.3977 16.3994 17.3977 16.7994 17.3977 16.8994V16.9994C17.3977 17.0994 17.4977 17.1994 17.3977 17.1994H17.2977C17.2977 17.1994 17.1977 17.1994 17.0977 17.1994H17.1977C17.1977 17.1994 17.2977 17.1994 17.1977 17.1994Z" fill="black"/>
<path d="M19.8977 18.2992L19.2977 17.5992C18.5977 17.9992 18.0977 17.8992 17.7977 17.2992C18.7977 17.4992 19.2977 16.5992 19.1977 14.5992L18.4977 15.7992V14.6992L17.5977 14.7992L19.9977 12.1992L19.8977 18.2992Z" fill="black"/>
</svg>
