<svg width="40" height="24" viewBox="0 0 40 24" fill="none" xmlns="http://www.w3.org/2000/svg">
<path d="M39.7 0.399414H0V23.5994H39.7V0.399414Z" fill="white"/>
<path d="M39.7 8.09961H0V23.4996H39.7V8.09961Z" fill="#2F3E98"/>
<path d="M39.7 15.7998H0V23.4998H39.7V15.7998Z" fill="#BC1F34"/>
<path d="M5.99872 5.7998C5.49872 5.7998 5.69872 6.39981 5.59872 6.69981C5.39872 8.89981 5.19871 11.1998 5.89871 13.3998C6.39871 15.0998 7.69871 16.5998 9.29871 17.4998C9.69871 17.6998 10.0987 17.9998 10.4987 18.0998C10.8987 17.9998 11.2987 17.6998 11.6987 17.4998C13.1987 16.5998 14.4987 15.0998 14.9987 13.3998C15.6987 11.1998 15.3987 8.89981 15.2987 6.59981C15.2987 6.29981 15.2987 5.7998 14.8987 5.7998H5.99872V5.7998Z" fill="white"/>
<path d="M10.4988 6.19922V17.7992C5.09882 15.1992 5.69883 10.8992 6.09883 6.19922H10.4988ZM10.4988 6.19922V17.7992C15.8988 15.1992 15.2988 10.8992 14.8988 6.19922H10.4988Z" fill="#BC1F34"/>
<path d="M11.0977 9.39922C11.6977 9.39922 12.1976 9.49921 12.7976 9.59921C12.5976 9.09921 12.5976 8.69922 12.7976 8.19922C12.1976 8.29922 11.6977 8.39922 11.0977 8.39922H9.79764C9.19764 8.39922 8.69766 8.29922 8.09766 8.19922C8.29766 8.69922 8.29766 9.09921 8.09766 9.59921C8.69766 9.49921 9.19764 9.39922 9.79764 9.39922H11.0977Z" fill="white"/>
<path d="M11.5992 11.4998C12.1992 11.4998 12.6992 11.5998 13.2992 11.6998C13.0992 11.1998 13.0992 10.7998 13.2992 10.2998C12.6992 10.3998 12.1992 10.4998 11.5992 10.4998H9.39923C8.79923 10.4998 8.29922 10.3998 7.69922 10.2998C7.89922 10.7998 7.89922 11.1998 7.69922 11.6998C8.19922 11.5998 8.79923 11.4998 9.39923 11.4998H11.5992Z" fill="white"/>
<path d="M9.69922 6.59961C9.79922 7.19961 9.89923 7.69961 9.89923 8.29961V15.4996H10.8992V8.29961C10.8992 7.69961 10.9992 7.19961 11.0992 6.59961C10.5992 6.79961 10.2992 6.79961 9.69922 6.59961Z" fill="white"/>
<path d="M8.19763 13.6992C7.59763 13.6992 7.09766 14.1992 7.09766 14.7992V14.8992C7.29766 15.1992 7.59764 15.4992 7.89764 15.7992C7.99764 15.7992 8.09764 15.8992 8.29764 15.8992C8.89764 15.8992 9.49765 15.3992 9.49765 14.7992C9.39765 14.2992 8.89763 13.6992 8.19763 13.6992Z" fill="#2F3E98"/>
<path d="M10.5 13.0996C9.7 13.0996 9 13.7996 9 14.5996C9 15.3996 9.7 16.0996 10.5 16.0996C11.3 16.0996 12 15.3996 12 14.5996C11.9 13.6996 11.3 13.0996 10.5 13.0996Z" fill="#2F3E98"/>
<path d="M12.6976 13.6992C12.0976 13.6992 11.5977 14.1992 11.5977 14.7992C11.5977 15.3992 12.0976 15.8992 12.6976 15.8992C12.7976 15.8992 12.8977 15.8992 13.0977 15.7992C13.3977 15.4992 13.6976 15.1992 13.8976 14.8992V14.7992C13.7976 14.2992 13.2976 13.6992 12.6976 13.6992Z" fill="#2F3E98"/>
<path d="M7.29688 15.2998C7.99687 16.1998 8.99689 17.0998 10.4969 17.7998C11.9969 17.0998 12.9969 16.1998 13.6969 15.2998H7.29688Z" fill="#2F3E98"/>
</svg>
