<svg width="40" height="24" viewBox="0 0 40 24" fill="none" xmlns="http://www.w3.org/2000/svg">
<path d="M39.7 0.0996094H0V11.6996H39.7V0.0996094Z" fill="#2F3E98"/>
<path d="M39.7 11.6992H0V23.2992H39.7V11.6992Z" fill="#BC1F34"/>
<path d="M0 0.0996094V23.2996L20.2 11.6996L0 0.0996094Z" fill="white"/>
<path d="M2.69846 20.9996L1.79843 20.4996L1.09845 21.1996L1.29843 20.1996L0.398438 19.6996L1.39844 19.5996L1.59845 18.5996L1.99844 19.4996L3.09845 19.3996L2.29843 20.0996L2.69846 20.9996Z" fill="#F3D02F"/>
<path d="M5.49921 9.59982L4.69922 8.2998H4.29919L5.29919 9.7998L5.49921 9.59982ZM4.8992 10.1998L3.29919 8.99982L3.19922 8.2998H3.79919L5.09921 9.89981L4.8992 10.1998ZM4.59921 10.4998L3.29919 9.7998L3.19922 9.39981L4.69922 10.3998L4.59921 10.4998Z" fill="#F3D02F"/>
<path d="M7.29919 9.2998L7.69922 7.89981L7.3992 7.59982L7.09921 9.39981L7.29919 9.2998ZM6.49921 9.2998L6.29919 7.2998L6.79919 6.7998L7.29919 7.19983L7.09921 9.2998H6.49921ZM6.09921 9.2998L5.69922 7.89981L5.99921 7.59982L6.29919 9.39981L6.09921 9.2998Z" fill="#F3D02F"/>
<path d="M8.79999 10.4998L10.1 9.7998L10.2 9.39981L8.70001 10.3998L8.79999 10.4998ZM8.29999 9.89981L9.60001 8.2998H10.3V8.89981L8.70001 10.1998L8.29999 9.89981ZM8 9.59982L8.79999 8.2998H9.20001L8.20001 9.7998L8 9.59982Z" fill="#F3D02F"/>
<path d="M9.09845 12.2992L10.4984 12.6992L10.7984 12.3992L8.99844 12.0992L9.09845 12.2992ZM9.09845 11.4992L11.0984 11.2992L11.5984 11.7992L11.1985 12.2992L9.09845 12.0992V11.4992ZM8.99844 11.0992L10.3984 10.6992L10.6985 10.9992L8.89844 11.2992L8.99844 11.0992Z" fill="#F3D02F"/>
<path d="M8 13.7994L8.79999 15.0994L9.20001 15.1994L8.20001 13.6994L8 13.7994ZM8.5 13.1994L10.1 14.3994L10.2 15.0994H9.60001L8.29999 13.4994L8.5 13.1994ZM8.79999 12.8994L10.1 13.5994L10.2 13.9994L8.70001 12.9994L8.79999 12.8994Z" fill="#F3D02F"/>
<path d="M6.09921 13.9994L5.69922 15.4994L5.99921 15.7994L6.29919 13.9994H6.09921ZM6.8992 13.9994L7.19922 15.9994L6.69922 16.4994L6.19922 16.0994L6.3992 13.9994H6.8992ZM7.29919 13.9994L7.69922 15.3994L7.3992 15.6994L7.09921 13.8994L7.29919 13.9994Z" fill="#F3D02F"/>
<path d="M4.59921 12.8994L3.29919 13.5994L3.19922 13.9994L4.69922 12.9994L4.59921 12.8994ZM5.19922 13.4994L3.99921 15.0994H3.29919V14.4994L4.8992 13.1994L5.19922 13.4994ZM5.49921 13.6994L4.79919 14.9994H4.3992L5.3992 13.4994L5.49921 13.6994Z" fill="#F3D02F"/>
<path d="M4.30078 11.0992L2.90079 10.6992L2.50079 10.9992L4.30078 11.2992V11.0992ZM4.30078 11.8992L2.30078 12.1992L1.80078 11.6992L2.20081 11.1992L4.30078 11.3992V11.8992ZM4.40079 12.2992L3.00079 12.6992L2.70081 12.3992L4.50079 12.0992L4.40079 12.2992Z" fill="#F3D02F"/>
<path d="M6.6969 9.19922C7.9969 9.19922 9.09689 10.2992 9.09689 11.5992C9.09689 12.8992 7.9969 13.9992 6.6969 13.9992C5.2969 13.9992 4.29688 12.8992 4.29688 11.5992C4.29688 10.2992 5.3969 9.19922 6.6969 9.19922Z" fill="#F3D02F"/>
<path d="M15.0977 12.4998L15.6977 11.6998L15.0977 10.7998L16.0977 11.1998L16.6977 10.2998V11.3998L17.6977 11.6998L16.6977 11.9998V12.9998L16.0977 12.1998L15.0977 12.4998Z" fill="#F3D02F"/>
<path d="M2.69846 2.09943L1.79843 2.59943L1.09845 1.89941L1.29843 2.89941L0.398438 3.39941L1.39844 3.49942L1.59845 4.49942L1.99844 3.59943L3.09845 3.69943L2.29843 2.99942L2.69846 2.09943Z" fill="#F3D02F"/>
</svg>
