<svg width="40" height="24" viewBox="0 0 40 24" fill="none" xmlns="http://www.w3.org/2000/svg">
<path d="M39.7 0.0996094H0V23.2996H39.7V0.0996094Z" fill="white"/>
<path d="M39.7 15.5H0V23.2H39.7V15.5Z" fill="#E81E25"/>
<path d="M39.7 7.7998H0V15.4998H39.7V7.7998Z" fill="#485FAA"/>
<path d="M8.80157 4.5C8.70157 4.5 8.70156 4.60001 8.60156 4.60001L8.80157 8.10001C8.90157 9.10001 9.30156 10 10.0016 10.6C10.5016 11.1 11.0016 11.4 11.7016 11.6C12.3016 11.4 12.9016 11.1 13.4016 10.6C14.1016 9.90001 14.5016 9.00001 14.6016 8.10001L14.8016 4.60001C14.7016 4.60001 14.7016 4.5 14.6016 4.5L14.4016 8.10001C14.3016 9.00001 14.0016 9.9 13.3016 10.5C12.9016 10.9 12.4016 11.2 11.8016 11.4C11.2016 11.2 10.7016 10.9 10.3016 10.5C9.70157 9.9 9.30157 9.00001 9.20157 8.10001L8.80157 4.5Z" fill="#E81E25"/>
<path d="M14.4008 4.4994C13.5008 4.0994 12.6008 3.89941 11.6008 3.89941C10.6008 3.89941 9.70078 4.0994 8.80078 4.4994L9.00076 8.09941C9.10076 8.99941 9.40077 9.8994 10.1008 10.4994C10.5008 10.8994 11.0008 11.1994 11.6008 11.3994C12.2008 11.1994 12.7008 10.8994 13.1008 10.4994C13.7008 9.8994 14.1008 8.99941 14.2008 8.09941" fill="#485FAA"/>
<path d="M11.8008 5.59981L11.9008 5.4998H11.7008L11.6008 5.2998L11.5008 5.4998H11.3008L11.4008 5.59981L11.3008 5.7998H11.5008L11.6008 5.9998L11.7008 5.7998H11.9008" fill="#F8E623"/>
<path d="M11 4.59921L11.1 4.39922H10.9L10.8 4.19922L10.7 4.39922H10.5L10.7 4.59921L10.5 4.69922H10.7L10.8 4.89922L10.9 4.69922H11.1" fill="#F8E623"/>
<path d="M12.6016 4.59921L12.7016 4.39922H12.5016L12.4016 4.19922L12.3016 4.39922H12.1016L12.2016 4.59921L12.1016 4.69922H12.3016L12.4016 4.89922L12.5016 4.69922H12.7016" fill="#F8E623"/>
<path d="M13.9008 8.69942L12.8008 7.19942L12.3008 7.79941L11.6008 6.39941L10.9008 7.79941L10.4008 7.19942L9.30078 8.69942C9.30078 8.89942 9.40076 9.09942 9.50076 9.19942C9.60076 9.29942 9.80076 9.39941 10.0008 9.39941C10.1008 9.39941 10.3008 9.39941 10.4008 9.29941C10.5008 9.29941 10.5008 9.19942 10.6008 9.19942C10.8008 9.09942 11.0008 9.19941 11.2008 9.29941C11.3008 9.39941 11.4008 9.39941 11.6008 9.39941C11.7008 9.39941 11.9008 9.39941 12.0008 9.29941C12.2008 9.19941 12.4008 9.19942 12.6008 9.19942C12.7008 9.19942 12.7008 9.19941 12.8008 9.29941C12.9008 9.39941 13.0008 9.39941 13.2008 9.39941C13.4008 9.39941 13.6008 9.29942 13.7008 9.19942C13.8008 9.09942 13.9008 8.89942 13.9008 8.69942Z" fill="white"/>
<path d="M9.60156 9.5C9.60156 9.6 9.70157 9.7 9.80157 9.8C10.0016 9.9 10.1016 9.9 10.3016 9.8C10.4016 9.8 10.4016 9.80001 10.5016 9.70001C10.6016 9.60001 10.7016 9.60001 10.9016 9.60001C11.0016 9.60001 11.2016 9.60001 11.3016 9.70001C11.5016 9.80001 11.7016 9.8 11.9016 9.8C12.0016 9.8 12.0016 9.80001 12.1016 9.70001C12.2016 9.60001 12.3016 9.60001 12.5016 9.60001C12.6016 9.60001 12.8016 9.60001 12.9016 9.70001C13.1016 9.80001 13.3016 9.8 13.5016 9.8H13.6016C13.7016 9.7 13.7016 9.6 13.8016 9.5C13.8016 9.5 13.7016 9.50001 13.7016 9.60001C13.6016 9.60001 13.6016 9.70001 13.5016 9.70001C13.3016 9.70001 13.1016 9.70001 12.9016 9.60001C12.8016 9.50001 12.7016 9.5 12.5016 9.5C12.4016 9.5 12.2016 9.50001 12.1016 9.60001C12.0016 9.60001 12.0016 9.70001 11.9016 9.70001C11.7016 9.70001 11.5016 9.70001 11.3016 9.60001C11.2016 9.50001 11.1016 9.5 10.9016 9.5C10.8016 9.5 10.6016 9.50001 10.5016 9.60001C10.4016 9.60001 10.4016 9.70001 10.3016 9.70001C10.1016 9.70001 9.90157 9.70001 9.70157 9.60001C9.70157 9.50001 9.70156 9.5 9.60156 9.5Z" fill="white"/>
<path d="M13.2 10.0994C13.1 10.1994 13 10.2994 12.9 10.3994C12.5 10.7994 12.1 11.0994 11.6 11.1994C11.1 10.9994 10.6 10.6994 10.3 10.3994C10.2 10.2994 10.1 10.1994 10 10.0994C10.1 10.0994 10.2 10.0994 10.3 10.0994C10.4 10.0994 10.4 10.0994 10.5 9.9994C10.6 9.8994 10.7 9.89941 10.9 9.89941C11 9.89941 11.2 9.8994 11.3 9.9994C11.5 10.0994 11.7 10.0994 11.9 10.0994C12 10.0994 12 10.0994 12.1 9.9994C12.2 9.8994 12.3 9.89941 12.5 9.89941C12.6 9.89941 12.8 9.8994 12.9 9.9994C12.9 10.0994 13.1 10.0994 13.2 10.0994Z" fill="white"/>
</svg>
