<svg width="19" height="26" viewBox="0 0 19 26" fill="none" xmlns="http://www.w3.org/2000/svg">
<g clip-path="url(#clip0_35_19771)">
<path fill-rule="evenodd" clip-rule="evenodd" d="M10.2157 0.0648466C10.079 0.0437338 9.94259 0.0226569 9.80661 0H8.47996C8.38181 0.016922 8.28197 0.0321519 8.18213 0.0473817C8.08229 0.0626116 7.98245 0.0778414 7.8843 0.0947642C4.65555 0.609196 2.29999 2.34202 0.87176 5.2797C-0.190949 7.46603 -0.218024 9.74714 0.445323 12.0689C1.00714 14.0318 1.89386 15.8594 2.99718 17.5651C4.00828 19.1233 5.06168 20.6533 6.11667 22.1856C6.52366 22.7767 6.93088 23.3682 7.33603 23.9617C7.40122 24.0566 7.46635 24.1518 7.53161 24.247C7.85258 24.7153 8.17511 25.1859 8.507 25.6472C8.84546 26.121 9.44112 26.1142 9.78633 25.6472C9.83443 25.5806 9.87844 25.5141 9.92173 25.4486C9.95767 25.3943 9.99317 25.3406 10.03 25.2884C10.4813 24.639 10.9351 23.9909 11.3888 23.3427C12.4393 21.8423 13.49 20.3415 14.511 18.8242C15.7362 16.9966 16.8191 15.081 17.5502 12.9962C18.1323 11.3446 18.4437 9.65913 18.2 7.8925C17.6856 4.17638 14.9171 1.11009 11.2755 0.257216C10.9241 0.174243 10.5691 0.119425 10.2157 0.0648466ZM9.18008 23.8108C9.16753 23.8248 9.15317 23.8408 9.13653 23.8602C8.34457 22.7501 7.57289 21.6671 6.80127 20.5773C5.54904 18.8039 4.33741 17.0169 3.32885 15.0946C2.57751 13.6528 1.95478 12.1569 1.65018 10.5459C0.858221 6.36949 3.74175 2.2608 7.94521 1.61775C12.2096 0.967948 16.1084 3.87855 16.6973 8.14294C16.9072 9.67272 16.6026 11.1415 16.0814 12.5698C15.3436 14.6004 14.2673 16.4618 13.0625 18.2421C12.1898 19.5345 11.2909 20.8138 10.3931 22.0914C10.0026 22.6472 9.61233 23.2026 9.22454 23.7587C9.21251 23.7747 9.19815 23.7907 9.18008 23.8108ZM9.12294 4.56901C6.62525 4.56901 4.5743 6.62675 4.5743 9.1312C4.5743 11.656 6.62525 13.7069 9.14329 13.7069C11.6613 13.7069 13.7123 11.656 13.7123 9.13796C13.719 6.61323 11.6613 4.56901 9.12294 4.56901ZM9.14329 12.184C7.47136 12.184 6.09729 10.8099 6.09729 9.1312C6.09729 7.45934 7.47812 6.08524 9.15681 6.092C10.8287 6.09877 12.196 7.47962 12.1893 9.15831C12.1825 10.8167 10.8084 12.184 9.14329 12.184Z" fill="white"/>
</g>
<defs>
<clipPath id="clip0_35_19771">
<rect width="18.85" height="26" fill="white"/>
</clipPath>
</defs>
</svg>
