<svg width="20" height="11" viewBox="0 0 20 11" fill="none" xmlns="http://www.w3.org/2000/svg">
<path d="M19.7708 5.26908C19.7706 5.26884 19.7704 5.26855 19.7701 5.26831L15.688 1.06775C15.3821 0.75307 14.8875 0.754241 14.5831 1.07049C14.2787 1.38671 14.2799 1.89817 14.5857 2.21289L17.3265 5.03308H0.78125C0.349765 5.03308 0 5.39473 0 5.84088C0 6.28703 0.349765 6.64868 0.78125 6.64868H17.3264L14.5857 9.46888C14.2799 9.7836 14.2787 10.2951 14.5831 10.6113C14.8875 10.9276 15.3822 10.9287 15.688 10.614L19.7702 6.41345C19.7704 6.41321 19.7706 6.41293 19.7709 6.41268C20.0769 6.09691 20.0759 5.5838 19.7708 5.26908Z" fill="#FF0000"/>
</svg>
