<svg width="1110" height="501" viewBox="0 0 1110 501" fill="none" xmlns="http://www.w3.org/2000/svg">
<g clip-path="url(#clip0_35_24564)">
<path d="M-131.397 729.179H-330.066L-70.0977 357.914H128.572L-131.397 729.179Z" fill="#2D2D2D"/>
<path d="M-101.137 485.679H-395.562L-43.5109 -17.1042H250.928L-101.137 485.679Z" fill="#202020"/>
<path d="M-39.1912 613.927H-104.109L16.0532 442.314H80.9579L-39.1912 613.927Z" fill="#EE1827"/>
<path d="M-80.2554 380.047H-90.6289L266.751 -130.338H277.138L-80.2554 380.047Z" fill="#EE1827"/>
<path d="M97.48 79.5396H-108.711L18.7574 -102.527H224.948L97.48 79.5396Z" fill="#2D2D2D"/>
<path d="M-142.322 378.675H-215.219L61.918 -17.1042H134.815L-142.322 378.675Z" fill="#3A3A3A"/>
<path d="M1106.64 55.3351H907.98L1167.94 -315.93H1366.61L1106.64 55.3351Z" fill="#EE1827"/>
<path d="M1038.24 39.1761H839.566L1099.54 -332.089H1298.2L1038.24 39.1761Z" fill="#202020"/>
<path d="M588.719 138.646H578.332L935.725 -371.753H946.099L588.719 138.646Z" fill="#202020"/>
<path d="M637.075 829.779H616.691L1204.21 -9.27368H1224.58L637.075 829.779Z" fill="#EFEFEF"/>
<path d="M604.475 829.779H593.523L1181.03 -9.27368H1192L604.475 829.779Z" fill="#EFEFEF"/>
<path d="M578.103 829.779H572.52L1160.04 -9.27368H1165.61L578.103 829.779Z" fill="#EFEFEF"/>
<path d="M987.362 821.962H653.285L1171.07 82.4863H1505.15L987.362 821.962Z" fill="#202020"/>
<path d="M882.217 854.306H789.609L1141.67 351.523H1234.27L882.217 854.306Z" fill="#2D2D2D"/>
<path d="M1148.28 336.266H1074.82L1170.95 198.962H1244.42L1148.28 336.266Z" fill="#2D2D2D"/>
<path d="M1122.85 299.064H1057.93L1178.1 127.451H1243.01L1122.85 299.064Z" fill="#EE1827"/>
<path d="M940.432 821.504H930.059L1287.44 311.106H1297.81L940.432 821.504Z" fill="#EE1827"/>
</g>
<defs>
<clipPath id="clip0_35_24564">
<rect width="1110" height="501" rx="5" fill="white"/>
</clipPath>
</defs>
</svg>
