<svg width="290" height="464" viewBox="0 0 290 464" fill="none" xmlns="http://www.w3.org/2000/svg">
<g clip-path="url(#clip0_35_46723)">
<path d="M847.14 -12.4102H-23.0996V611.94H847.14V-12.4102Z" fill="white"/>
<path d="M145.9 579H-440L161.1 -132H747L145.9 579Z" fill="#202020"/>
<path d="M-31.5796 188.13H-147L-8.98916 -8.9707H106.437L-31.5796 188.13Z" fill="#202020"/>
<path d="M238.857 52.0857H234.785L374.89 -148H378.957L238.857 52.0857Z" fill="#202020"/>
<path d="M346.898 326.494H289.797L336.903 259.224H394.004L346.898 326.494Z" fill="#3A3A3A"/>
<path d="M215.884 410.338H132.453L143.962 393.908H227.388L215.884 410.338Z" fill="#2D2D2D"/>
<path d="M-160.574 488.206H-455L-102.948 -14.5771H191.491L-160.574 488.206Z" fill="#202020"/>
<path d="M38.0425 82.0669H-168.148L-40.6801 -100H165.511L38.0425 82.0669Z" fill="#2D2D2D"/>
<path d="M-201.76 381.202H-274.656L2.48048 -14.5771H75.3773L-201.76 381.202Z" fill="#3A3A3A"/>
</g>
<defs>
<clipPath id="clip0_35_46723">
<rect width="290" height="464" rx="5" fill="white"/>
</clipPath>
</defs>
</svg>
