<svg width="24" height="25" viewBox="0 0 24 25" fill="none" xmlns="http://www.w3.org/2000/svg">
<path d="M3 8.12053H21C21.2652 8.12053 21.5196 8.015 21.7071 7.82715C21.8946 7.6393 22 7.38452 22 7.11886C22 6.8532 21.8946 6.59842 21.7071 6.41057C21.5196 6.22272 21.2652 6.11719 21 6.11719H3C2.73478 6.11719 2.48043 6.22272 2.29289 6.41057C2.10536 6.59842 2 6.8532 2 7.11886C2 7.38452 2.10536 7.6393 2.29289 7.82715C2.48043 8.015 2.73478 8.12053 3 8.12053ZM21 16.1339H3C2.73478 16.1339 2.48043 16.2395 2.29289 16.4273C2.10536 16.6152 2 16.8699 2 17.1356C2 17.4013 2.10536 17.656 2.29289 17.8439C2.48043 18.0317 2.73478 18.1373 3 18.1373H21C21.2652 18.1373 21.5196 18.0317 21.7071 17.8439C21.8946 17.656 22 17.4013 22 17.1356C22 16.8699 21.8946 16.6152 21.7071 16.4273C21.5196 16.2395 21.2652 16.1339 21 16.1339ZM21 11.1256H3C2.73478 11.1256 2.48043 11.2311 2.29289 11.4189C2.10536 11.6068 2 11.8616 2 12.1272C2 12.3929 2.10536 12.6477 2.29289 12.8355C2.48043 13.0234 2.73478 13.1289 3 13.1289H21C21.2652 13.1289 21.5196 13.0234 21.7071 12.8355C21.8946 12.6477 22 12.3929 22 12.1272C22 11.8616 21.8946 11.6068 21.7071 11.4189C21.5196 11.2311 21.2652 11.1256 21 11.1256Z" fill="white"/>
</svg>
