<svg style="display: none;" aria-hidden="true" xmlns="http://www.w3.org/2000/svg" xmlns:xlink="http://www.w3.org/1999/xlink"><symbol viewBox="0 0 26 26" fill="none" id="action01"><path d="M5.95703 21.125H20.0404V18.4167H5.95703V21.125ZM5.95703 16.7917H20.0404V14.0833H5.95703V16.7917ZM5.95703 12.4583H20.0404V10.6437L18.8758 9.75H7.1487L5.95703 10.6437V12.4583ZM9.28828 8.125H16.7362L12.9987 5.28125L9.28828 8.125ZM4.33203 22.75V11.8896L2.05703 13.6229L1.08203 12.3229L4.33203 9.85833V6.5H5.95703V8.6125L12.9987 3.25L24.9154 12.35L23.9404 13.6229L21.6654 11.8896V22.75H4.33203Z" fill="#fff"/></symbol><symbol viewBox="0 0 26 26" fill="none" id="action02"><path d="M13.0013 22.7232L11.8909 21.7211C8.94783 19.0308 6.59158 16.6836 4.82214 14.6794C3.05269 12.6753 2.16797 10.644 2.16797 8.58568C2.16797 6.96068 2.71415 5.602 3.80651 4.50964C4.89887 3.41727 6.24852 2.87109 7.85547 2.87109C8.7763 2.87109 9.68811 3.09227 10.5909 3.53464C11.4937 3.977 12.2971 4.70373 13.0013 5.71484C13.7957 4.70373 14.6173 3.977 15.4659 3.53464C16.3145 3.09227 17.2082 2.87109 18.1471 2.87109C19.7541 2.87109 21.1037 3.41727 22.1961 4.50964C23.2885 5.602 23.8346 6.96068 23.8346 8.58568C23.8346 10.644 22.9499 12.6753 21.1805 14.6794C19.411 16.6836 17.0548 19.0308 14.1117 21.7211L13.0013 22.7232ZM13.0013 20.5836C15.7457 18.0558 17.9666 15.8621 19.6638 14.0023C21.361 12.1426 22.2096 10.3371 22.2096 8.58568C22.2096 7.39401 21.826 6.4145 21.0586 5.64714C20.2912 4.87977 19.3207 4.49609 18.1471 4.49609C17.2444 4.49609 16.3957 4.77596 15.6013 5.33568C14.8069 5.8954 14.1569 6.69887 13.6513 7.74609H12.3242C11.8367 6.69887 11.1912 5.8954 10.3878 5.33568C9.58429 4.77596 8.74019 4.49609 7.85547 4.49609C6.6638 4.49609 5.6888 4.87977 4.93047 5.64714C4.17214 6.4145 3.79297 7.39401 3.79297 8.58568C3.79297 10.3371 4.64158 12.1426 6.3388 14.0023C8.03602 15.8621 10.2569 18.0558 13.0013 20.5836Z" fill="#fff"/></symbol><symbol viewBox="0 0 26 26" fill="none" id="action03"><path d="M5.95703 23.8327C5.5237 23.8327 5.14453 23.6702 4.81953 23.3452C4.49453 23.0202 4.33203 22.641 4.33203 22.2077V8.12435C4.33203 7.69102 4.49453 7.31185 4.81953 6.98685C5.14453 6.66185 5.5237 6.49935 5.95703 6.49935H8.9362V6.22852C8.9362 5.09102 9.32891 4.12956 10.1143 3.34414C10.8997 2.55872 11.8612 2.16602 12.9987 2.16602C14.1362 2.16602 15.0977 2.55872 15.8831 3.34414C16.6685 4.12956 17.0612 5.09102 17.0612 6.22852V6.49935H20.0404C20.4737 6.49935 20.8529 6.66185 21.1779 6.98685C21.5029 7.31185 21.6654 7.69102 21.6654 8.12435V22.2077C21.6654 22.641 21.5029 23.0202 21.1779 23.3452C20.8529 23.6702 20.4737 23.8327 20.0404 23.8327H5.95703ZM10.5612 6.22852V6.49935H15.4362V6.22852C15.4362 5.5424 15.2015 4.96463 14.732 4.49518C14.2626 4.02574 13.6848 3.79102 12.9987 3.79102C12.3126 3.79102 11.7348 4.02574 11.2654 4.49518C10.7959 4.96463 10.5612 5.5424 10.5612 6.22852ZM5.95703 22.2077H20.0404V8.12435H17.0612V10.5618C17.0612 10.7966 16.9845 10.9907 16.831 11.1441C16.6775 11.2976 16.4834 11.3743 16.2487 11.3743C16.014 11.3743 15.8199 11.2976 15.6664 11.1441C15.5129 10.9907 15.4362 10.7966 15.4362 10.5618V8.12435H10.5612V10.5618C10.5612 10.7966 10.4845 10.9907 10.331 11.1441C10.1775 11.2976 9.98342 11.3743 9.7487 11.3743C9.51397 11.3743 9.31988 11.2976 9.1664 11.1441C9.01293 10.9907 8.9362 10.7966 8.9362 10.5618V8.12435H5.95703V22.2077ZM5.95703 22.2077V8.12435V22.2077Z" fill="#fff"/></symbol><symbol viewBox="0 0 26 26" fill="none" id="action04"><path d="M6.0138 19.0931C7.1513 18.2987 8.27977 17.6893 9.39922 17.265C10.5187 16.8407 11.7194 16.6285 13.0013 16.6285C14.2832 16.6285 15.4885 16.8407 16.6169 17.265C17.7454 17.6893 18.8784 18.2987 20.0159 19.0931C20.8103 18.1181 21.3746 17.1341 21.7086 16.141C22.0426 15.148 22.2096 14.1007 22.2096 12.9993C22.2096 10.3813 21.3294 8.19206 19.569 6.43164C17.8086 4.67122 15.6194 3.79102 13.0013 3.79102C10.3832 3.79102 8.19401 4.67122 6.43359 6.43164C4.67318 8.19206 3.79297 10.3813 3.79297 12.9993C3.79297 14.1007 3.9645 15.148 4.30755 16.141C4.65061 17.1341 5.21936 18.1181 6.0138 19.0931ZM13.0013 13.8118C11.9541 13.8118 11.0739 13.4553 10.3607 12.7421C9.64748 12.0289 9.29089 11.1487 9.29089 10.1014C9.29089 9.05421 9.64748 8.174 10.3607 7.46081C11.0739 6.74761 11.9541 6.39102 13.0013 6.39102C14.0485 6.39102 14.9287 6.74761 15.6419 7.46081C16.3551 8.174 16.7117 9.05421 16.7117 10.1014C16.7117 11.1487 16.3551 12.0289 15.6419 12.7421C14.9287 13.4553 14.0485 13.8118 13.0013 13.8118ZM13.0013 23.8327C11.5207 23.8327 10.1214 23.5483 8.80339 22.9796C7.48533 22.4108 6.33429 21.6344 5.35026 20.6504C4.36623 19.6664 3.58984 18.5153 3.02109 17.1973C2.45234 15.8792 2.16797 14.4799 2.16797 12.9993C2.16797 11.5007 2.45234 10.0969 3.02109 8.78789C3.58984 7.47886 4.36623 6.33234 5.35026 5.34831C6.33429 4.36428 7.48533 3.58789 8.80339 3.01914C10.1214 2.45039 11.5207 2.16602 13.0013 2.16602C14.4999 2.16602 15.9037 2.45039 17.2128 3.01914C18.5218 3.58789 19.6683 4.36428 20.6523 5.34831C21.6364 6.33234 22.4128 7.47886 22.9815 8.78789C23.5503 10.0969 23.8346 11.5007 23.8346 12.9993C23.8346 14.4799 23.5503 15.8792 22.9815 17.1973C22.4128 18.5153 21.6364 19.6664 20.6523 20.6504C19.6683 21.6344 18.5218 22.4108 17.2128 22.9796C15.9037 23.5483 14.4999 23.8327 13.0013 23.8327ZM13.0013 22.2077C13.9944 22.2077 14.9648 22.0632 15.9128 21.7743C16.8607 21.4855 17.7951 20.9799 18.7159 20.2577C17.7951 19.6077 16.8562 19.1112 15.8992 18.7681C14.9423 18.425 13.9763 18.2535 13.0013 18.2535C12.0263 18.2535 11.0603 18.425 10.1034 18.7681C9.14644 19.1112 8.20755 19.6077 7.28672 20.2577C8.20755 20.9799 9.14193 21.4855 10.0898 21.7743C11.0378 22.0632 12.0082 22.2077 13.0013 22.2077ZM13.0013 12.1868C13.6152 12.1868 14.1162 11.9928 14.5044 11.6046C14.8926 11.2164 15.0867 10.7153 15.0867 10.1014C15.0867 9.48754 14.8926 8.9865 14.5044 8.59831C14.1162 8.21011 13.6152 8.01602 13.0013 8.01602C12.3874 8.01602 11.8864 8.21011 11.4982 8.59831C11.11 8.9865 10.9159 9.48754 10.9159 10.1014C10.9159 10.7153 11.11 11.2164 11.4982 11.6046C11.8864 11.9928 12.3874 12.1868 13.0013 12.1868Z" fill="#fff"/></symbol><symbol viewBox="0 0 22 21" id="heart"><path d="M10.9993 20.2448L9.88893 19.2398C6.94588 16.5417 4.58963 14.1877 2.82018 12.1777C1.05074 10.1677 0.166016 8.1305 0.166016 6.06618C0.166016 4.43645 0.712196 3.07381 1.80456 1.97827C2.89692 0.882731 4.24657 0.334961 5.85352 0.334961C6.77435 0.334961 7.68615 0.556785 8.58893 1.00043C9.49171 1.44408 10.2952 2.17293 10.9993 3.18699C11.7938 2.17293 12.6153 1.44408 13.4639 1.00043C14.3125 0.556785 15.2063 0.334961 16.1452 0.334961C17.7521 0.334961 19.1018 0.882731 20.1941 1.97827C21.2865 3.07381 21.8327 4.43645 21.8327 6.06618C21.8327 8.1305 20.948 10.1677 19.1785 12.1777C17.4091 14.1877 15.0528 16.5417 12.1098 19.2398L10.9993 20.2448ZM10.9993 18.099C13.7438 15.5639 15.9646 13.3637 17.6618 11.4986C19.3591 9.63348 20.2077 7.82267 20.2077 6.06618C20.2077 4.87104 19.824 3.88868 19.0566 3.11908C18.2893 2.34949 17.3188 1.96469 16.1452 1.96469C15.2424 1.96469 14.3938 2.24537 13.5993 2.80672C12.8049 3.36807 12.1549 4.17388 11.6494 5.22415H10.3223C9.83477 4.17388 9.18928 3.36807 8.38581 2.80672C7.58233 2.24537 6.73824 1.96469 5.85352 1.96469C4.66185 1.96469 3.68685 2.34949 2.92852 3.11908C2.17018 3.88868 1.79102 4.87104 1.79102 6.06618C1.79102 7.82267 2.63963 9.63348 4.33685 11.4986C6.03407 13.3637 8.2549 15.5639 10.9993 18.099Z"/></symbol><symbol viewBox="0 0 15 15" id="menu01"><path d="M14.7 5.4H13.5V0.6C13.4997 0.268799 13.2312 0.000292969 12.9 0H2.1C1.7688 0.000292969 1.50029 0.268799 1.5 0.6V5.4H0.3C0.134326 5.4 0 5.53433 0 5.7V8.1C0 8.26567 0.134326 8.4 0.3 8.4H1.5V11.1C1.5 11.1806 1.53267 11.2578 1.59053 11.3139C1.53164 11.4341 1.50073 11.5661 1.5 11.7V12.3C1.50059 12.7969 1.90313 13.1994 2.4 13.2V14.1C2.40059 14.5969 2.80313 14.9994 3.3 15H4.5C4.99688 14.9994 5.39941 14.5969 5.4 14.1V13.2H9.6V14.1C9.60059 14.5969 10.0031 14.9994 10.5 15H11.7C12.1969 14.9994 12.5994 14.5969 12.6 14.1V13.2C13.0969 13.1994 13.4994 12.7969 13.5 12.3V11.7C13.4993 11.5661 13.4684 11.4341 13.4096 11.3139C13.4673 11.2578 13.5 11.1806 13.5 11.1V8.4H14.7C14.8657 8.4 15 8.26567 15 8.1V5.7C15 5.53433 14.8657 5.4 14.7 5.4ZM12.6 10.8V8.86055L12.9 8.6606V10.8H12.6ZM4.2 10.8V9.9C4.2 9.82046 4.16836 9.74414 4.11211 9.68789L3.51211 9.08789C3.45586 9.03164 3.37954 9 3.3 9H3V3.9C3.00059 3.40313 3.40313 3.00059 3.9 3H11.1C11.5969 3.00059 11.9994 3.40313 12 3.9V9H11.7C11.6205 9 11.5441 9.03164 11.4879 9.08789L10.8879 9.68789C10.8316 9.74414 10.8 9.82046 10.8 9.9V10.8H4.2ZM2.1 10.8V8.6606L2.4 8.86055V10.8H2.1ZM3 9.6H3.17578L3.6 10.0242V10.8H3V9.6ZM11.4 10.0242L11.8242 9.6H12V10.8H11.4V10.0242ZM2.1 0.6H12.9V7.93945L12.6 8.1394V3.9C12.599 3.07192 11.9281 2.40103 11.1 2.4H3.9C3.07192 2.40103 2.40103 3.07192 2.4 3.9V8.1394L2.1 7.93945V0.6ZM0.6 7.8V6H1.5V7.8H0.6ZM4.8 14.1C4.79985 14.2655 4.66553 14.3999 4.5 14.4H3.3C3.13447 14.3999 3.00015 14.2655 3 14.1V13.2H4.8V14.1ZM12 14.1C11.9999 14.2655 11.8655 14.3999 11.7 14.4H10.5C10.3345 14.3999 10.2001 14.2655 10.2 14.1V13.2H12V14.1ZM12.9 12.3C12.8999 12.4655 12.7655 12.5999 12.6 12.6H2.4C2.23447 12.5999 2.10015 12.4655 2.1 12.3V11.7C2.10015 11.5345 2.23447 11.4001 2.4 11.4H12.6C12.7655 11.4001 12.8999 11.5345 12.9 11.7V12.3ZM14.4 7.8H13.5V6H14.4V7.8Z"/><path d="M4.99378 8.39961H10.0079C10.0488 8.39961 10.0891 8.39126 10.1266 8.37515L11.5195 7.77515C11.6295 7.72769 11.7009 7.61943 11.7009 7.49961V4.19961C11.7063 3.87427 11.4476 3.60591 11.1223 3.59961H3.87948C3.55414 3.60591 3.29544 3.87427 3.30086 4.19961V7.49961C3.30086 7.61943 3.3722 7.72769 3.48221 7.77515L4.87513 8.37515C4.91263 8.39126 4.95292 8.39961 4.99378 8.39961V8.39961zM3.87948 4.19961H11.1009V7.30215L9.94613 7.79961H9.02489L9.19627 7.49961H10.0509C10.2165 7.49961 10.3509 7.36528 10.3509 7.19961 10.3509 7.03394 10.2165 6.89961 10.0509 6.89961H8.25086C8.08519 6.89961 7.95086 7.03394 7.95086 7.19961 7.95086 7.36528 8.08519 7.49961 8.25086 7.49961H8.50531L8.33392 7.79961H6.02489L6.19627 7.49961H7.05086C7.21654 7.49961 7.35086 7.36528 7.35086 7.19961 7.35086 7.03394 7.21654 6.89961 7.05086 6.89961H5.25086C5.08519 6.89961 4.95086 7.03394 4.95086 7.19961 4.95086 7.36528 5.08519 7.49961 5.25086 7.49961H5.50531L5.33392 7.79961H5.0556L3.89955 7.30156 3.87948 4.19961zM6.60156 11.6992H5.40156C5.23589 11.6992 5.10156 11.8335 5.10156 11.9992 5.10156 12.1649 5.23589 12.2992 5.40156 12.2992H6.60156C6.76724 12.2992 6.90156 12.1649 6.90156 11.9992 6.90156 11.8335 6.76724 11.6992 6.60156 11.6992zM9.60157 11.6992H8.40156C8.23589 11.6992 8.10156 11.8335 8.10156 11.9992 8.10156 12.1649 8.23589 12.2992 8.40156 12.2992H9.60157C9.76725 12.2992 9.90157 12.1649 9.90157 11.9992 9.90157 11.8335 9.76725 11.6992 9.60157 11.6992z"/></symbol><symbol viewBox="0 0 15 15" id="menu02"><path d="M11.8158 1.98886L10.3145 1.63786C10.231 1.40817 10.1655 1.16677 10.1322 0.923407C10.1114 0.771363 10.0176 0.63912 9.88099 0.569215C8.47684 -0.149319 6.73729 -0.215 5.21891 0.529436C5.20066 0.544133 4.90033 0.634925 4.88317 0.962452C4.87082 1.19784 4.8348 1.4153 4.78349 1.61466L3.18294 1.98886C2.93054 2.04788 2.77374 2.30034 2.83273 2.55277C2.89158 2.80437 3.14339 2.96211 3.39664 2.90297L4.28095 2.69621C4.10946 2.93791 3.95281 3.08925 3.8922 3.14396C3.65324 3.35957 3.48928 3.64981 3.4305 3.96129C3.40741 4.08362 3.43387 4.21011 3.50407 4.31293C3.67524 4.56369 3.88097 4.82606 4.12474 5.07899C3.96205 6.33893 3.80332 8.4896 4.2701 10.2701C4.32214 10.4685 4.32457 10.3829 5.93357 12.155V13.3781C5.93357 14.2724 6.66117 15 7.55551 15C8.44985 15 9.17745 14.2724 9.17745 13.3781V12.155C10.7819 10.3879 10.7887 10.4692 10.8409 10.2701C11.3077 8.48957 11.149 6.3389 10.9863 5.07899C11.2301 4.82606 11.4358 4.56371 11.6069 4.31296C11.6771 4.21014 11.7036 4.08368 11.6805 3.96135C11.6218 3.6499 11.4578 3.35957 11.2188 3.14393C11.1379 3.07088 11.0167 2.92758 10.8839 2.73505C11.6156 2.90209 11.6149 2.91541 11.7094 2.91541C11.9225 2.91541 12.1154 2.76926 12.166 2.55279C12.225 2.30034 12.0682 2.04785 11.8158 1.98886ZM8.58907 8.33503C7.98186 7.8332 7.11795 7.84241 6.52186 8.33503C6.56328 7.76364 6.63694 7.14157 6.74281 6.47281C7.2623 6.55507 7.86637 6.55225 8.36812 6.47281C8.47402 7.14157 8.54765 7.76364 8.58907 8.33503ZM8.26721 5.53629C6.81489 5.78931 5.40428 5.29029 4.41431 3.97214C4.44244 3.9238 4.47846 3.87927 4.52103 3.84087C4.71913 3.66213 5.23352 3.13926 5.55439 2.29001C6.46389 3.77566 8.61421 3.79332 9.54334 2.31066C9.56121 2.33422 9.58136 2.3561 9.60348 2.37602C9.90575 3.03735 10.3045 3.58334 10.5899 3.84084C10.6325 3.87927 10.6685 3.92377 10.6967 3.97214C10.2014 4.63157 9.41978 5.33397 8.26721 5.53629ZM8.95632 1.18989C8.89504 1.90898 8.29018 2.47541 7.55548 2.47541C6.81046 2.47541 6.19891 1.89284 6.15238 1.15935C7.04916 0.859662 8.04054 0.861774 8.95632 1.18989ZM4.98751 5.79717C5.24244 5.96367 5.52314 6.11114 5.83134 6.22957C5.56113 7.89847 5.48096 9.29265 5.59108 10.3988L5.14988 9.92039C4.81898 8.56253 4.87261 6.96118 4.98751 5.79717ZM8.23867 13.3781C8.23867 13.7548 7.93217 14.0613 7.55545 14.0613C7.17873 14.0613 6.87224 13.7548 6.87224 13.3781C6.87224 12.7603 6.87224 9.7599 6.87224 9.58409C6.87224 9.20737 7.17873 8.90088 7.55545 8.90088C7.93217 8.90088 8.23867 9.20737 8.23867 9.58409V13.3781ZM9.96105 9.92039L9.51985 10.3988C9.62997 9.29262 9.5498 7.89844 9.27959 6.22951C9.58779 6.11108 9.86849 5.96361 10.1234 5.79711C10.2384 6.96113 10.292 8.5625 9.96105 9.92039Z"/></symbol><symbol viewBox="0 0 15 15" id="menu03"><path d="M7.5 0C3.35496 0 0 3.3544 0 7.5C0 11.645 3.3544 15 7.5 15C11.645 15 15 11.6456 15 7.5C15 3.35499 11.6456 0 7.5 0ZM7.5 14.1211C3.84076 14.1211 0.878906 11.1598 0.878906 7.5C0.878906 3.84076 3.84018 0.878906 7.5 0.878906C11.1592 0.878906 14.1211 3.84018 14.1211 7.5C14.1211 11.1592 11.1598 14.1211 7.5 14.1211Z"/><path d="M7.5 2.92969C4.97168 2.92969 2.92969 4.98732 2.92969 7.5C2.92969 10.0048 4.96377 12.0703 7.5 12.0703C10.0319 12.0703 12.0703 10.0098 12.0703 7.5C12.0703 4.98932 10.0296 2.92969 7.5 2.92969ZM7.93945 3.83487C8.96461 3.95701 9.86218 4.50079 10.4531 5.28759L8.64823 6.32965C8.453 6.13808 8.21024 5.99505 7.93945 5.91964V3.83487ZM7.06055 3.83484V5.91961C6.78979 5.99499 6.547 6.13805 6.35177 6.32962L4.54687 5.28759C5.13782 4.50079 6.03539 3.95701 7.06055 3.83484ZM4.10634 8.95192C3.91485 8.50603 3.80859 8.01521 3.80859 7.5C3.80859 6.98479 3.91485 6.49397 4.10634 6.04811L5.9112 7.09017C5.87739 7.22118 5.85938 7.35853 5.85938 7.5C5.85938 7.64147 5.87739 7.77882 5.9112 7.90986L4.10634 8.95192ZM7.06055 11.1651C6.03539 11.043 5.13782 10.4992 4.54687 9.71241L6.35177 8.67035C6.547 8.86192 6.78976 9.00498 7.06055 9.08036V11.1651ZM6.73828 7.5C6.73828 7.07997 7.08 6.73828 7.5 6.73828C7.92003 6.73828 8.26172 7.07997 8.26172 7.5C8.26172 7.92003 7.92003 8.26172 7.5 8.26172C7.08 8.26172 6.73828 7.92003 6.73828 7.5ZM7.93945 11.1652V9.08039C8.21024 9.00501 8.453 8.86195 8.64823 8.67038L10.4531 9.71244C9.86218 10.4992 8.96461 11.043 7.93945 11.1652ZM9.0888 7.90986C9.12264 7.77882 9.14062 7.64147 9.14062 7.5C9.14062 7.35853 9.12261 7.22118 9.0888 7.09014L10.8937 6.04811C11.0851 6.49397 11.1914 6.98479 11.1914 7.5C11.1914 8.01521 11.0851 8.50603 10.8937 8.95189L9.0888 7.90986Z"/></symbol><symbol viewBox="0 0 15 15" id="menu04"><path d="M11.0156 14.0628C10.1109 14.0628 9.375 13.3269 9.375 12.4222V6.2661C8.50078 5.70876 7.96875 4.75017 7.96875 3.70063C7.96875 2.5522 8.60531 1.51345 9.63 0.988917C9.77578 0.914854 9.94922 0.920948 10.0884 1.00626C10.2277 1.09204 10.3125 1.24298 10.3125 1.40657V3.43298L11.0156 3.71423L11.7188 3.43298V1.40657C11.7188 1.24298 11.8036 1.09204 11.9428 1.00626C12.082 0.920948 12.2555 0.914854 12.4012 0.988917C13.4259 1.51392 14.0625 2.5522 14.0625 3.7011C14.0625 4.75017 13.5305 5.70876 12.6562 6.26657V12.4222C12.6562 13.3269 11.9203 14.0628 11.0156 14.0628ZM9.375 2.37501C9.07641 2.74298 8.90625 3.20704 8.90625 3.70063C8.90625 4.4947 9.34734 5.21423 10.0575 5.57798C10.2141 5.65813 10.3125 5.81938 10.3125 5.99517V12.4222C10.3125 12.8099 10.628 13.1253 11.0156 13.1253C11.4033 13.1253 11.7188 12.8099 11.7188 12.4222V5.99517C11.7188 5.81938 11.8172 5.65813 11.9738 5.57798C12.6839 5.21423 13.125 4.49517 13.125 3.7011C13.125 3.20751 12.9548 2.74345 12.6562 2.37548V3.75032C12.6562 3.94204 12.5395 4.11407 12.3619 4.18579L11.19 4.65454C11.078 4.69954 10.9537 4.69954 10.8417 4.65454L9.66984 4.18579C9.49172 4.11407 9.375 3.94204 9.375 3.75032V2.37501Z"/><path d="M8.00344 14.0625H6.99703C6.51 14.0625 6.09938 13.6823 6.06234 13.1972L6.00328 12.4308C5.68172 12.3333 5.37047 12.2039 5.07281 12.0445L4.48875 12.5447C4.11891 12.862 3.56016 12.84 3.21609 12.4964L2.50359 11.7834C2.15953 11.4394 2.13797 10.8802 2.45484 10.5103L2.955 9.92672C2.79563 9.62906 2.66625 9.31781 2.56875 8.99625L1.80281 8.93766C1.31766 8.90109 0.9375 8.49047 0.9375 8.00344V6.99656C0.9375 6.50953 1.31766 6.09891 1.80328 6.06187L2.56922 6.00328C2.66672 5.68125 2.79609 5.37 2.95547 5.07281L2.45484 4.48828C2.13797 4.11891 2.15953 3.56016 2.50406 3.21516L3.21563 2.50313C3.56016 2.15859 4.11938 2.1375 4.48875 2.45438L5.07281 2.95453C5.37047 2.79516 5.68172 2.66578 6.00328 2.56828L6.06234 1.80188C6.09938 1.31766 6.51 0.9375 6.99656 0.9375H7.5C7.75875 0.9375 7.96875 1.14703 7.96875 1.40625C7.96875 1.66547 7.75875 1.875 7.5 1.875H6.99656L6.91219 2.97234C6.89625 3.17672 6.74953 3.34687 6.55031 3.39281C6.09703 3.49734 5.66578 3.67594 5.26875 3.92484C5.09578 4.03406 4.87125 4.01766 4.71516 3.88313L3.87844 3.16641L3.16688 3.87891L3.88359 4.71516C4.01719 4.87078 4.03359 5.09531 3.92484 5.26875C3.67641 5.66625 3.49734 6.0975 3.39281 6.55031C3.34688 6.75 3.17625 6.89672 2.97188 6.91219L1.875 6.99656V8.00344L2.97188 8.08781C3.17625 8.10328 3.34688 8.25047 3.39281 8.44969C3.49734 8.90297 3.67594 9.33422 3.92484 9.73125C4.03359 9.90469 4.01672 10.1292 3.88359 10.2848L3.16688 11.1211L3.87891 11.8336L4.71516 11.1169C4.87125 10.9828 5.09578 10.9664 5.26875 11.0752C5.66625 11.3236 6.0975 11.5027 6.55031 11.6072C6.75 11.6536 6.89672 11.8238 6.91219 12.0277L6.99656 13.125H8.00297C8.02266 12.8672 8.24719 12.6745 8.50641 12.6938C8.76469 12.7134 8.95781 12.9389 8.93766 13.1972C8.90063 13.6823 8.49 14.0625 8.00344 14.0625Z"/><path d="M4.21875 7.50079C4.21875 5.89111 5.36906 4.53032 6.9539 4.26501C7.20844 4.21954 7.45125 4.39439 7.49344 4.64986C7.53609 4.90532 7.36406 5.14673 7.10859 5.18939C5.9775 5.37923 5.15625 6.35142 5.15625 7.50079C5.15625 9.11939 6.76406 10.2481 8.2814 9.71142C8.52422 9.6247 8.79328 9.7522 8.88 9.99642C8.96625 10.2406 8.83875 10.5083 8.59453 10.5945C6.46031 11.3497 4.21875 9.75829 4.21875 7.50079Z"/></symbol><symbol viewBox="0 0 15 15" id="menu05"><path d="M12.7661 3.08914H10.5945V1.9429C10.5945 1.11497 9.92092 0.441406 9.09299 0.441406H5.90701C5.07908 0.441406 4.40552 1.11497 4.40552 1.9429V3.08911H2.23386C1.0021 3.08914 0 4.09124 0 5.323V12.325C0 13.5568 1.0021 14.5589 2.23386 14.5589H12.7661C13.9979 14.5589 15 13.5568 15 12.325V5.323C15 4.09124 13.9979 3.08914 12.7661 3.08914ZM5.28442 1.9429C5.28442 1.5996 5.56371 1.32031 5.90701 1.32031H9.09299C9.43629 1.32031 9.71558 1.5996 9.71558 1.9429V3.08911H5.28442V1.9429ZM0.878906 12.325V5.323C0.878906 4.72968 1.2624 4.22457 1.7944 4.04161V13.6064C1.2624 13.4234 0.878906 12.9183 0.878906 12.325ZM2.67331 13.68V3.96804H12.3267V13.68H2.67331ZM14.1211 12.325C14.1211 12.9183 13.7376 13.4234 13.2056 13.6064V4.04158C13.7376 4.22457 14.1211 4.72968 14.1211 5.323V12.325Z"/><path d="M10.1489 7.50147H8.82324V6.17578C8.82324 5.93309 8.62648 5.73633 8.38379 5.73633H6.61865C6.37596 5.73633 6.1792 5.93309 6.1792 6.17578V7.50147H4.85352C4.61082 7.50147 4.41406 7.69822 4.41406 7.94092V9.70606C4.41406 9.94875 4.61082 10.1455 4.85352 10.1455H6.1792V11.4712C6.1792 11.7139 6.37596 11.9106 6.61865 11.9106H8.38379C8.62648 11.9106 8.82324 11.7139 8.82324 11.4712V10.1455H10.1489C10.3916 10.1455 10.5884 9.94875 10.5884 9.70606V7.94092C10.5884 7.69822 10.3916 7.50147 10.1489 7.50147ZM9.70947 9.2666H8.38379C8.14109 9.2666 7.94434 9.46336 7.94434 9.70606V11.0317H7.05811V9.70606C7.05811 9.46336 6.86135 9.2666 6.61865 9.2666H5.29297V8.38037H6.61865C6.86135 8.38037 7.05811 8.18361 7.05811 7.94092V6.61523H7.94434V7.94092C7.94434 8.18361 8.14109 8.38037 8.38379 8.38037H9.70947V9.2666Z"/></symbol><symbol viewBox="0 0 15 15" id="menu06"><g clip-path="url(#kclip0_35_18822)"><path d="M8.63825 3.93067C8.14213 3.40251 7.30823 3.37265 6.77426 3.87427C6.2439 4.3737 6.21856 5.20728 6.71819 5.73779L8.73657 7.88235C9.22782 8.40407 10.0627 8.4447 10.6002 7.93836C11.1305 7.43894 11.1559 6.60536 10.6562 6.07485L8.63825 3.93067ZM9.99756 7.29852C9.8231 7.46288 9.54501 7.45889 9.3765 7.27989L7.35809 5.13533C7.19063 4.9575 7.20109 4.67959 7.3764 4.5145C7.55318 4.34841 7.8315 4.35556 7.9979 4.53272L10.0163 6.67728C10.1829 6.85415 10.1745 7.13194 9.99756 7.29852Z"/><path d="M12.654 5.63142L9.13837 1.89606C9.05534 1.80785 8.93953 1.75781 8.81836 1.75781H7.5V0.439453C7.5 0.196758 7.30324 0 7.06055 0H4.42383C4.18113 0 3.98438 0.196758 3.98438 0.439453V2.03019L2.33757 3.88283C2.26608 3.96328 2.22656 4.06717 2.22656 4.1748V11.9239C2.22659 12.2612 2.35395 12.5693 2.56307 12.8027C2.35395 13.0361 2.22656 13.3443 2.22656 13.6816C2.22656 14.4086 2.81798 15 3.54492 15H11.4551C12.182 15 12.7734 14.4086 12.7734 13.6816C12.7734 13.3442 12.6459 13.0362 12.4367 12.8027C12.6459 12.5693 12.7734 12.2612 12.7734 11.9238V5.93262C12.7734 5.82067 12.7307 5.71295 12.654 5.63142ZM4.86328 0.878906H6.62109V1.75781H4.86328V0.878906ZM11.4551 14.1211H3.54492C3.30261 14.1211 3.10547 13.924 3.10547 13.6816C3.10547 13.4393 3.30261 13.2422 3.54492 13.2422C3.78762 13.2422 3.98438 13.0454 3.98438 12.8027C3.98438 12.56 3.78762 12.3633 3.54492 12.3633C3.30261 12.3633 3.10547 12.1661 3.10547 11.9238C3.10547 11.6815 3.30261 11.4844 3.54492 11.4844C3.78762 11.4844 3.98438 11.2876 3.98438 11.0449C3.98438 10.8022 3.78762 10.6055 3.54492 10.6055C3.39085 10.6055 3.24302 10.6323 3.10547 10.6811V4.34188L4.62117 2.63672H8.62846L11.8945 6.1069V10.6811C11.757 10.6323 11.6091 10.6055 11.4551 10.6055C11.2124 10.6055 11.0156 10.8022 11.0156 11.0449C11.0156 11.2876 11.2124 11.4844 11.4551 11.4844C11.6974 11.4844 11.8945 11.6815 11.8945 11.9238C11.8945 12.1661 11.6974 12.3633 11.4551 12.3633C11.3944 12.3633 11.3366 12.3756 11.284 12.3978C11.1263 12.4645 11.0156 12.6207 11.0156 12.8027C11.0156 12.9848 11.1263 13.1409 11.284 13.2076C11.3366 13.2299 11.3944 13.2422 11.4551 13.2422C11.6974 13.2422 11.8945 13.4393 11.8945 13.6816C11.8945 13.924 11.6974 14.1211 11.4551 14.1211Z"/><path d="M7.85963 9.03735C7.77757 8.91855 7.64242 8.84766 7.49805 8.84766C7.35367 8.84766 7.21853 8.91855 7.13646 9.03735C7.12709 9.05092 6.90429 9.37418 6.67847 9.76348C6.2314 10.5342 6.17969 10.8639 6.17969 11.0449C6.17969 11.7719 6.7711 12.3633 7.49805 12.3633C8.22499 12.3633 8.81641 11.7719 8.81641 11.0449C8.81641 10.8639 8.7647 10.5342 8.31763 9.76348C8.09181 9.37418 7.869 9.05092 7.85963 9.03735ZM7.49805 11.4844C7.25573 11.4844 7.05859 11.2872 7.05859 11.0454C7.06217 10.9111 7.24498 10.5281 7.49813 10.1016C7.75108 10.5276 7.93375 10.9104 7.9375 11.0452C7.93729 11.2874 7.74024 11.4844 7.49805 11.4844Z"/></g><defs><clipPath id="kclip0_35_18822"><rect width="15" height="15" rx="5"/></clipPath></defs></symbol><symbol viewBox="0 0 15 15" id="menu07"><g clip-path="url(#lclip0_35_18829)"><path d="M11.1782 0.299861L10.2459 1.23212L9.31363 0.299861C8.91381 -0.0999536 8.26325 -0.0999536 7.8634 0.299861L0.299861 7.86317C-0.0999536 8.26298 -0.0999536 8.91352 0.299861 9.31333L1.23215 10.2456L0.299861 11.1778C0.12824 11.3495 0.12824 11.6277 0.299861 11.7993L3.20028 14.6997C3.3719 14.8713 3.65016 14.8713 3.82181 14.6997L4.7541 13.7674L5.68638 14.6997C5.88006 14.8934 6.13758 15 6.41151 15C6.68543 15 6.94295 14.8933 7.13658 14.6997L7.96492 13.8714C7.96503 13.8713 7.96518 13.8712 7.9653 13.871C7.96542 13.8709 7.9655 13.8708 7.96562 13.8706L13.8714 7.96509C13.8714 7.96509 13.8714 7.96506 13.8715 7.96503L13.8715 7.96498L14.7002 7.13634C15.1 6.73653 15.1 6.08599 14.7002 5.68618L13.7679 4.75392L14.7002 3.82167C14.8718 3.65005 14.8718 3.37178 14.7002 3.20016L11.7998 0.299832C11.6281 0.12824 11.3498 0.12824 11.1782 0.299861ZM4.54694 9.83124L9.83157 4.54679L10.4531 5.1683L5.16847 10.4528L4.54694 9.83124ZM5.78998 11.0743L11.0746 5.78977L11.6961 6.41127L6.41148 11.6958L5.78998 11.0743ZM9.21003 3.92529L3.92541 9.20974L3.30387 8.58824L8.5885 3.30379L9.21003 3.92529ZM7.03301 12.3172L12.3176 7.03278L12.9392 7.65428L7.65452 12.9387L7.03301 12.3172ZM7.967 2.68228L2.68237 7.96673L2.06084 7.34523L7.34549 2.06078L7.967 2.68228ZM3.51106 13.7674L1.23215 11.4886L1.85368 10.8671L4.13259 13.1459L3.51106 13.7674ZM6.51502 14.0782C6.43295 14.1391 6.38998 14.1391 6.30789 14.0782L0.921394 8.69183C0.864265 8.63473 0.864265 8.54177 0.921394 8.48467L1.43933 7.96676L7.03298 13.5602L6.51502 14.0782ZM14.0786 6.30771C14.1357 6.36481 14.1357 6.45777 14.0786 6.51487L13.5607 7.03278L7.967 1.43927L8.48494 0.921364C8.54207 0.864265 8.635 0.864265 8.69212 0.921364L14.0786 6.30771ZM13.7679 3.51094L13.1463 4.13245L10.8674 1.85362L11.4889 1.23212L13.7679 3.51094Z"/></g><defs><clipPath id="lclip0_35_18829"><rect width="15" height="15" rx="5"/></clipPath></defs></symbol><symbol viewBox="0 0 15 15" id="menu08"><g clip-path="url(#mclip0_35_18834)"><path d="M6.78286 6.80664C6.00658 6.80664 5.375 7.43881 5.375 8.21582C5.375 8.99286 6.00658 9.62503 6.78286 9.62503C7.55914 9.62503 8.19072 8.99286 8.19072 8.21582C8.19072 7.43881 7.55914 6.80664 6.78286 6.80664ZM6.78286 8.74612C6.49121 8.74612 6.25391 8.50823 6.25391 8.21582C6.25391 7.92341 6.49121 7.68555 6.78286 7.68555C7.07451 7.68555 7.31182 7.92344 7.31182 8.21582C7.31182 8.5082 7.07451 8.74612 6.78286 8.74612Z"/><path d="M12.5363 2.32122C11.7796 1.58804 10.8987 1.0135 9.91793 0.613506C8.91967 0.206426 7.86516 0 6.78363 0C6.54135 0 6.3448 0.196084 6.34418 0.43834L6.34166 1.44683C4.696 1.55194 3.16342 2.24309 1.98691 3.41962C0.705615 4.70089 0 6.40441 0 8.21637C0 10.0283 0.705615 11.7319 1.98688 13.0131C3.26815 14.2944 4.97165 15 6.78363 15C8.59562 15 10.2991 14.2944 11.5804 13.0131C12.7575 11.836 13.4488 10.3024 13.5533 8.65582H14.5605C14.8032 8.65582 15 8.45906 15 8.21637C15 5.95427 14.125 3.86065 12.5363 2.32122ZM6.78363 14.1211C3.52775 14.1211 0.878906 11.4722 0.878906 8.21637C0.878906 5.1099 3.29024 2.55606 6.33943 2.32822L6.33522 4.01798C6.33492 4.13473 6.38109 4.24679 6.46353 4.32943C6.54598 4.41208 6.65795 4.45854 6.77467 4.45854C7.80275 4.45854 8.75297 4.84518 9.45032 5.54722C10.1447 6.24633 10.5272 7.19426 10.5272 8.21637C10.5272 8.45906 10.724 8.65582 10.9667 8.65582H12.6721C12.4466 11.7073 9.89171 14.1211 6.78363 14.1211ZM11.3866 7.77691C11.2894 6.68988 10.8318 5.69089 10.0739 4.92782C9.31154 4.16036 8.30921 3.69729 7.21518 3.59924L7.22194 0.891621C8.03563 0.939023 8.82899 1.11864 9.586 1.42737C10.4622 1.78471 11.2491 2.29781 11.9246 2.95245C13.2378 4.22484 14.004 5.92453 14.1087 7.77694H11.3866V7.77691Z"/><path d="M6.77407 5.16211C5.09149 5.16211 3.72266 6.53259 3.72266 8.21713 3.72266 9.9017 5.09152 11.2722 6.77407 11.2722 8.45662 11.2722 9.82548 9.9017 9.82548 8.21713 9.82548 6.53259 8.45665 5.16211 6.77407 5.16211zM6.77407 10.3933C5.57612 10.3933 4.60156 9.41707 4.60156 8.21713 4.60156 7.01722 5.57615 6.04102 6.77407 6.04102 7.97199 6.04102 8.94658 7.01722 8.94658 8.21713 8.94658 9.41707 7.97202 10.3933 6.77407 10.3933zM6.7832 12.0195C6.54051 12.0195 6.34375 12.2163 6.34375 12.459V13.0065C6.34375 13.2492 6.54051 13.446 6.7832 13.446 7.0259 13.446 7.22266 13.2492 7.22266 13.0065V12.459C7.22266 12.2163 7.0259 12.0195 6.7832 12.0195zM2.51826 7.77734H1.9707C1.72801 7.77734 1.53125 7.9741 1.53125 8.2168 1.53125 8.45949 1.72801 8.65625 1.9707 8.65625H2.51826C2.76096 8.65625 2.95771 8.45949 2.95771 8.2168 2.95771 7.9741 2.76096 7.77734 2.51826 7.77734zM3.4534 10.7967L3.06622 11.1839C2.89459 11.3555 2.89459 11.6337 3.06622 11.8053 3.15203 11.8912 3.2645 11.9341 3.37694 11.9341 3.48938 11.9341 3.60188 11.8912 3.68766 11.8053L4.07485 11.4182C4.24647 11.2465 4.24647 10.9683 4.07485 10.7967 3.90326 10.6251 3.625 10.6251 3.4534 10.7967zM10.1486 10.7967C9.97704 10.6251 9.69878 10.6251 9.52715 10.7967 9.35553 10.9683 9.35553 11.2465 9.52715 11.4182L9.91434 11.8053C10.0002 11.8912 10.1126 11.9341 10.2251 11.9341 10.3375 11.9341 10.45 11.8912 10.5358 11.8053 10.7074 11.6337 10.7074 11.3555 10.5358 11.1839L10.1486 10.7967zM3.56281 5.45574C3.64862 5.54155 3.76109 5.58447 3.87353 5.58447 3.98597 5.58447 4.09847 5.54158 4.18425 5.45574 4.35588 5.28412 4.35588 5.00589 4.18425 4.83426L3.79707 4.44708C3.62547 4.27545 3.34721 4.27545 3.17559 4.44708 3.00397 4.6187 3.00397 4.89693 3.17559 5.06855L3.56281 5.45574z"/></g><defs><clipPath id="mclip0_35_18834"><rect width="15" height="15" rx="5"/></clipPath></defs></symbol><symbol viewBox="0 0 15 15" id="menu09"><g clip-path="url(#nclip0_35_18852)"><path d="M7.8125 15C5.5725 15 3.75 13.1775 3.75 10.9375V7.8125C3.75 7.64 3.89 7.5 4.0625 7.5C4.235 7.5 4.375 7.64 4.375 7.8125V10.9375C4.375 12.8331 5.9175 14.375 7.8125 14.375C9.7075 14.375 11.25 12.8331 11.25 10.9375V10.3125C11.25 10.14 11.39 10 11.5625 10C11.735 10 11.875 10.14 11.875 10.3125V10.9375C11.875 13.1775 10.0525 15 7.8125 15Z"/><path d="M4.6875 8.12501H3.4375C1.88687 8.12501 0.625 6.86314 0.625 5.31251V4.0625C0.625 3.20125 1.32562 2.5 2.1875 2.5H5.9375C6.79937 2.5 7.5 3.20125 7.5 4.0625V5.31251C7.5 6.86314 6.23812 8.12501 4.6875 8.12501ZM2.1875 3.125C1.67062 3.125 1.25 3.54563 1.25 4.0625V5.31251C1.25 6.51876 2.23125 7.50001 3.4375 7.50001H4.6875C5.89375 7.50001 6.875 6.51876 6.875 5.31251V4.0625C6.875 3.54563 6.45437 3.125 5.9375 3.125H2.1875Z"/><path d="M2.8125 3.125C2.64 3.125 2.5 2.985 2.5 2.8125V.3125C2.5.14 2.64 0 2.8125 0 2.985 0 3.125.14 3.125.3125V2.8125C3.125 2.985 2.985 3.125 2.8125 3.125zM5.3125 3.125C5.14 3.125 5 2.985 5 2.8125V.3125C5 .14 5.14 0 5.3125 0 5.485 0 5.62501.14 5.62501.3125V2.8125C5.62501 2.985 5.485 3.125 5.3125 3.125zM5.3125 5H2.8125C2.64 5 2.5 4.86 2.5 4.6875 2.5 4.515 2.64 4.375 2.8125 4.375H5.3125C5.485 4.375 5.625 4.515 5.625 4.6875 5.625 4.86 5.485 5 5.3125 5zM10.9372 8.75001C10.8997 8.75001 10.8629 8.74376 10.8266 8.73001 10.6866 8.67751 10.6047 8.53313 10.6291 8.38626L11.1935 5.00001H9.68722C9.56972 5.00001 9.46347 4.93501 9.40972 4.83063 9.35597 4.72626 9.36535 4.60126 9.43285 4.50563L12.5579.130635C12.6447.0106346 12.8035-.0324904 12.9366.0256346 13.0716.0843846 13.1472.229385 13.1185.37376L12.5685 3.12501H14.0622C14.176 3.12501 14.281 3.18688 14.336 3.28626 14.391 3.38563 14.3879 3.50688 14.3272 3.60313L11.2022 8.60314C11.1435 8.69689 11.0422 8.75001 10.9372 8.75001zM10.2947 4.37501H11.5622C11.6541 4.37501 11.741 4.41501 11.801 4.48563 11.8604 4.55563 11.886 4.64813 11.8704 4.73876L11.5029 6.94188 13.4985 3.75001H12.1872C12.0941 3.75001 12.0047 3.70813 11.9454 3.63563 11.886 3.56313 11.8622 3.46813 11.881 3.37626L12.2204 1.67876 10.2947 4.37501z"/></g><defs><clipPath id="nclip0_35_18852"><rect width="15" height="15" rx="5"/></clipPath></defs></symbol><symbol viewBox="0 0 20 22" id="p01"><path d="M9.98102 0.927734C8.04149 0.931439 6.1449 1.50205 4.52224 2.57008C2.89958 3.6381 1.6209 5.15744 0.841948 6.94302C0.0629925 8.72861 -0.182618 10.7034 0.135032 12.6268C0.452683 14.5502 1.31988 16.3392 2.63101 17.776C3.56743 18.7964 4.70395 19.6108 5.96895 20.1678C7.23395 20.7247 8.6 21.0123 9.98102 21.0123C11.362 21.0123 12.7281 20.7247 13.9931 20.1678C15.2581 19.6108 16.3946 18.7964 17.331 17.776C18.6422 16.3392 19.5094 14.5502 19.827 12.6268C20.1447 10.7034 19.899 8.72861 19.1201 6.94302C18.3411 5.15744 17.0625 3.6381 15.4398 2.57008C13.8171 1.50205 11.9205 0.931439 9.98102 0.927734ZM9.98102 19.0225C7.90948 19.0194 5.91993 18.2086 4.43101 16.7607C4.88306 15.6544 5.65205 14.7082 6.64027 14.0423C7.62849 13.3764 8.79132 13.0209 9.98102 13.0209C11.1707 13.0209 12.3335 13.3764 13.3218 14.0423C14.31 14.7082 15.079 15.6544 15.531 16.7607C14.0421 18.2086 12.0526 19.0194 9.98102 19.0225ZM7.98102 8.96987C7.98102 8.57223 8.09831 8.18351 8.31808 7.85288C8.53784 7.52225 8.8502 7.26455 9.21565 7.11238C9.5811 6.96021 9.98324 6.92039 10.3712 6.99797C10.7592 7.07555 11.1155 7.26703 11.3952 7.54821C11.6749 7.82939 11.8654 8.18763 11.9426 8.57764C12.0198 8.96764 11.9802 9.37189 11.8288 9.73927C11.6774 10.1066 11.4211 10.4207 11.0922 10.6416C10.7633 10.8625 10.3766 10.9804 9.98102 10.9804C9.45058 10.9804 8.94188 10.7686 8.5668 10.3915C8.19173 10.0145 7.98102 9.5031 7.98102 8.96987ZM16.891 15.0015C15.9976 13.4652 14.6224 12.2702 12.981 11.6037C13.4902 11.0233 13.822 10.3075 13.9365 9.54231C14.051 8.77708 13.9435 7.99488 13.6268 7.28957C13.3101 6.58425 12.7976 5.9858 12.1509 5.566C11.5042 5.14621 10.7508 4.92292 9.98102 4.92292C9.21123 4.92292 8.45779 5.14621 7.81111 5.566C7.16443 5.9858 6.65198 6.58425 6.33526 7.28957C6.01854 7.99488 5.911 8.77708 6.02554 9.54231C6.14008 10.3075 6.47185 11.0233 6.98101 11.6037C5.33961 12.2702 3.96448 13.4652 3.07101 15.0015C2.35895 13.7822 1.98273 12.3943 1.98101 10.9804C1.98101 8.8475 2.82386 6.80195 4.32416 5.29376C5.82445 3.78556 7.85928 2.93827 9.98102 2.93827C12.1028 2.93827 14.1376 3.78556 15.6379 5.29376C17.1382 6.80195 17.981 8.8475 17.981 10.9804C17.9793 12.3943 17.6031 13.7822 16.891 15.0015Z"/></symbol><symbol viewBox="0 0 24 24" id="p02"><path d="M7.5 10H8.5C8.76522 10 9.01957 9.89464 9.20711 9.70711C9.39464 9.51957 9.5 9.26522 9.5 9C9.5 8.73478 9.39464 8.48043 9.20711 8.29289C9.01957 8.10536 8.76522 8 8.5 8H7.5C7.23478 8 6.98043 8.10536 6.79289 8.29289C6.60536 8.48043 6.5 8.73478 6.5 9C6.5 9.26522 6.60536 9.51957 6.79289 9.70711C6.98043 9.89464 7.23478 10 7.5 10ZM11.5 16H7.5C7.23478 16 6.98043 16.1054 6.79289 16.2929C6.60536 16.4804 6.5 16.7348 6.5 17C6.5 17.2652 6.60536 17.5196 6.79289 17.7071C6.98043 17.8946 7.23478 18 7.5 18H11.5C11.7652 18 12.0196 17.8946 12.2071 17.7071C12.3946 17.5196 12.5 17.2652 12.5 17C12.5 16.7348 12.3946 16.4804 12.2071 16.2929C12.0196 16.1054 11.7652 16 11.5 16ZM11.5 12H7.5C7.23478 12 6.98043 12.1054 6.79289 12.2929C6.60536 12.4804 6.5 12.7348 6.5 13C6.5 13.2652 6.60536 13.5196 6.79289 13.7071C6.98043 13.8946 7.23478 14 7.5 14H11.5C11.7652 14 12.0196 13.8946 12.2071 13.7071C12.3946 13.5196 12.5 13.2652 12.5 13C12.5 12.7348 12.3946 12.4804 12.2071 12.2929C12.0196 12.1054 11.7652 12 11.5 12ZM18.42 9.38C18.4966 9.19789 18.5175 8.99718 18.4801 8.80319C18.4428 8.6092 18.3488 8.43062 18.21 8.29L12.21 2.29C12.1273 2.21222 12.0328 2.14808 11.93 2.1C11.9002 2.09576 11.8699 2.09576 11.84 2.1L11.56 2H5.5C4.70435 2 3.94129 2.31607 3.37868 2.87868C2.81607 3.44129 2.5 4.20435 2.5 5V19C2.5 19.7956 2.81607 20.5587 3.37868 21.1213C3.94129 21.6839 4.70435 22 5.5 22H11.5C11.7652 22 12.0196 21.8946 12.2071 21.7071C12.3946 21.5196 12.5 21.2652 12.5 21C12.5 20.7348 12.3946 20.4804 12.2071 20.2929C12.0196 20.1054 11.7652 20 11.5 20H5.5C5.23478 20 4.98043 19.8946 4.79289 19.7071C4.60536 19.5196 4.5 19.2652 4.5 19V5C4.5 4.73478 4.60536 4.48043 4.79289 4.29289C4.98043 4.10536 5.23478 4 5.5 4H10.5V7C10.5 7.79565 10.8161 8.55871 11.3787 9.12132C11.9413 9.68393 12.7044 10 13.5 10H17.5C17.6974 9.99901 17.8901 9.93961 18.0539 9.82928C18.2176 9.71895 18.345 9.56262 18.42 9.38ZM13.5 8C13.2348 8 12.9804 7.89464 12.7929 7.70711C12.6054 7.51957 12.5 7.26522 12.5 7V5.41L15.09 8H13.5ZM20.5 12H15.5C15.2348 12 14.9804 12.1054 14.7929 12.2929C14.6054 12.4804 14.5 12.7348 14.5 13V21C14.5005 21.1809 14.55 21.3583 14.6434 21.5133C14.7367 21.6682 14.8703 21.795 15.03 21.88C15.1864 21.9603 15.3611 21.9979 15.5367 21.9892C15.7123 21.9804 15.8824 21.9255 16.03 21.83L18 20.53L20 21.83C20.1494 21.9164 20.3186 21.9627 20.4912 21.9643C20.6637 21.9659 20.8338 21.9229 20.9848 21.8393C21.1358 21.7558 21.2626 21.6346 21.3529 21.4875C21.4432 21.3404 21.4938 21.1725 21.5 21V13C21.5 12.7348 21.3946 12.4804 21.2071 12.2929C21.0196 12.1054 20.7652 12 20.5 12ZM19.5 19.12L18.56 18.49C18.3946 18.3782 18.1996 18.3185 18 18.3185C17.8004 18.3185 17.6054 18.3782 17.44 18.49L16.5 19.12V14H19.5V19.12Z"/></symbol><symbol viewBox="0 0 22 20" id="p03"><path d="M2.66275 11.2135L8.82377 17.7065C10.0068 18.9532 11.9932 18.9532 13.1762 17.7065L19.3372 11.2135C21.5542 8.87699 21.5543 5.08882 19.3373 2.75235C17.1203 0.415881 13.5258 0.415883 11.3088 2.75235V2.75235C11.1409 2.92925 10.8591 2.92925 10.6912 2.75235V2.75235C8.47421 0.415883 4.87975 0.415882 2.66275 2.75235C0.44575 5.08883 0.445751 8.87699 2.66275 11.2135Z"/></symbol><symbol viewBox="0 0 16 22" id="p04"><path d="M8 0.927734C5.87827 0.927734 3.84344 1.77503 2.34315 3.28322C0.842855 4.79141 0 6.83696 0 8.96986C0 14.3983 7.05 20.5304 7.35 20.7918C7.53113 20.9475 7.76165 21.0331 8 21.0331C8.23835 21.0331 8.46887 20.9475 8.65 20.7918C9 20.5304 16 14.3983 16 8.96986C16 6.83696 15.1571 4.79141 13.6569 3.28322C12.1566 1.77503 10.1217 0.927734 8 0.927734ZM8 18.6707C5.87 16.6601 2 12.3274 2 8.96986C2 7.37018 2.63214 5.83602 3.75736 4.70488C4.88258 3.57374 6.4087 2.93827 8 2.93827C9.5913 2.93827 11.1174 3.57374 12.2426 4.70488C13.3679 5.83602 14 7.37018 14 8.96986C14 12.3274 10.13 16.6702 8 18.6707ZM8 4.9488C7.20887 4.9488 6.43552 5.18463 5.77772 5.62647C5.11992 6.06831 4.60723 6.69631 4.30448 7.43106C4.00173 8.16582 3.92252 8.97432 4.07686 9.75433C4.2312 10.5343 4.61216 11.2508 5.17157 11.8132C5.73098 12.3755 6.44371 12.7585 7.21964 12.9137C7.99556 13.0688 8.79983 12.9892 9.53073 12.6848C10.2616 12.3805 10.8864 11.8651 11.3259 11.2038C11.7654 10.5426 12 9.76515 12 8.96986C12 7.90341 11.5786 6.88063 10.8284 6.12654C10.0783 5.37244 9.06087 4.9488 8 4.9488ZM8 10.9804C7.60444 10.9804 7.21776 10.8625 6.88886 10.6416C6.55996 10.4206 6.30362 10.1066 6.15224 9.73926C6.00087 9.37188 5.96126 8.96763 6.03843 8.57762C6.1156 8.18762 6.30608 7.82938 6.58579 7.5482C6.86549 7.26702 7.22186 7.07554 7.60982 6.99796C7.99778 6.92038 8.39991 6.9602 8.76537 7.11237C9.13082 7.26454 9.44318 7.52224 9.66294 7.85287C9.8827 8.1835 10 8.57221 10 8.96986C10 9.50309 9.78929 10.0145 9.41421 10.3915C9.03914 10.7686 8.53043 10.9804 8 10.9804Z"/></symbol><symbol viewBox="0 0 24 24" id="p05"><path d="M19 9.50001H18.68L17.43 6.38001C17.2068 5.82527 16.8228 5.3499 16.3275 5.01492C15.8321 4.67993 15.248 4.50063 14.65 4.50001H8.65C7.95529 4.49802 7.28142 4.7372 6.74342 5.17673C6.20541 5.61625 5.83662 6.22886 5.7 6.91001L5.18 9.50001H5C4.20435 9.50001 3.44129 9.81608 2.87868 10.3787C2.31607 10.9413 2 11.7044 2 12.5V15.5C2 15.7652 2.10536 16.0196 2.29289 16.2071C2.48043 16.3947 2.73478 16.5 3 16.5H4C4 17.2957 4.31607 18.0587 4.87868 18.6213C5.44129 19.1839 6.20435 19.5 7 19.5C7.79565 19.5 8.55871 19.1839 9.12132 18.6213C9.68393 18.0587 10 17.2957 10 16.5H14C14 17.2957 14.3161 18.0587 14.8787 18.6213C15.4413 19.1839 16.2044 19.5 17 19.5C17.7956 19.5 18.5587 19.1839 19.1213 18.6213C19.6839 18.0587 20 17.2957 20 16.5H21C21.2652 16.5 21.5196 16.3947 21.7071 16.2071C21.8946 16.0196 22 15.7652 22 15.5V12.5C22 11.7044 21.6839 10.9413 21.1213 10.3787C20.5587 9.81608 19.7956 9.50001 19 9.50001ZM13 6.50001H14.65C14.8486 6.50181 15.0421 6.56269 15.206 6.67488C15.3698 6.78708 15.4965 6.94552 15.57 7.13001L16.52 9.50001H13V6.50001ZM7.66 7.30001C7.70675 7.07074 7.83242 6.86511 8.01514 6.71894C8.19786 6.57277 8.42605 6.49529 8.66 6.50001H11V9.50001H7.22L7.66 7.30001ZM7 17.5C6.80222 17.5 6.60888 17.4414 6.44443 17.3315C6.27998 17.2216 6.15181 17.0654 6.07612 16.8827C6.00043 16.7 5.98063 16.4989 6.01921 16.3049C6.0578 16.1109 6.15304 15.9328 6.29289 15.7929C6.43275 15.6531 6.61093 15.5578 6.80491 15.5192C6.99889 15.4806 7.19996 15.5004 7.38268 15.5761C7.56541 15.6518 7.72159 15.78 7.83147 15.9444C7.94135 16.1089 8 16.3022 8 16.5C8 16.7652 7.89464 17.0196 7.70711 17.2071C7.51957 17.3947 7.26522 17.5 7 17.5ZM17 17.5C16.8022 17.5 16.6089 17.4414 16.4444 17.3315C16.28 17.2216 16.1518 17.0654 16.0761 16.8827C16.0004 16.7 15.9806 16.4989 16.0192 16.3049C16.0578 16.1109 16.153 15.9328 16.2929 15.7929C16.4327 15.6531 16.6109 15.5578 16.8049 15.5192C16.9989 15.4806 17.2 15.5004 17.3827 15.5761C17.5654 15.6518 17.7216 15.78 17.8315 15.9444C17.9414 16.1089 18 16.3022 18 16.5C18 16.7652 17.8946 17.0196 17.7071 17.2071C17.5196 17.3947 17.2652 17.5 17 17.5ZM20 14.5H19.22C18.9388 14.1907 18.5961 13.9435 18.2138 13.7743C17.8315 13.6052 17.418 13.5178 17 13.5178C16.582 13.5178 16.1685 13.6052 15.7862 13.7743C15.4039 13.9435 15.0612 14.1907 14.78 14.5H9.22C8.93882 14.1907 8.59609 13.9435 8.21378 13.7743C7.83148 13.6052 7.41805 13.5178 7 13.5178C6.58195 13.5178 6.16852 13.6052 5.78622 13.7743C5.40391 13.9435 5.06118 14.1907 4.78 14.5H4V12.5C4 12.2348 4.10536 11.9804 4.29289 11.7929C4.48043 11.6054 4.73478 11.5 5 11.5H19C19.2652 11.5 19.5196 11.6054 19.7071 11.7929C19.8946 11.9804 20 12.2348 20 12.5V14.5Z"/></symbol><symbol viewBox="0 0 24 24" fill="none" id="search"><circle cx="11" cy="11" r="8" stroke="red" stroke-width="2" stroke-linecap="round" stroke-linejoin="round"/><path d="M16.5 16.957L21.5 21.957" stroke="red" stroke-width="2" stroke-linecap="round" stroke-linejoin="round"/></symbol></svg>