<svg width="1920" height="720" viewBox="0 0 1920 720" fill="none" xmlns="http://www.w3.org/2000/svg">
<path d="M-65.639 626.28H-448L9.19772 -27.7529H391.576L-65.639 626.28Z" fill="#202020"/>
<path d="M-38.5127 488.872H-51.9844L412.133 -175.05H425.622L-38.5127 488.872Z" fill="#EE1827"/>
<path d="M192.297 97.9644H-75.4766L90.0624 -138.873H357.836L192.297 97.9644Z" fill="#2D2D2D"/>
<path d="M-119.128 487.087H-213.797L146.111 -27.7529H240.78L-119.128 487.087Z" fill="#3A3A3A"/>
<path d="M1245.56 758.552H1225.17L1812.69 -81.8955H1833.06L1245.56 758.552Z" fill="#EFEFEF"/>
<path d="M1212.96 758.552H1202.01L1789.51 -81.8955H1800.48L1212.96 758.552Z" fill="#EFEFEF"/>
<path d="M1186.58 758.552H1181L1768.52 -81.8955H1774.09L1186.58 758.552Z" fill="#EFEFEF"/>
<path d="M1765.4 821.274H1566.73L1936.7 299.143H2135.36L1765.4 821.274Z" fill="#2D2D2D"/>
<path d="M1595.84 750.723H1261.77L1779.55 10.0176H2113.63L1595.84 750.723Z" fill="#202020"/>
<path d="M1490.69 783.121H1398.09L1750.15 279.502H1842.75L1490.69 783.121Z" fill="#2D2D2D"/>
<path d="M1548.91 750.263H1538.54L1895.92 239.017H1906.29L1548.91 750.263Z" fill="#EE1827"/>
<path d="M1632.07 63.77H1433.41L1693.37 -308.112H1892.04L1632.07 63.77Z" fill="#EE1827"/>
<path d="M1563.67 47.584H1365L1624.97 -324.298H1823.64L1563.67 47.584Z" fill="#202020"/>
</svg>
