<svg width="320" height="1033" viewBox="0 0 320 1033" fill="none" xmlns="http://www.w3.org/2000/svg">
<path d="M-136.531 262.69H-296.91L-105.141 -11.6406H55.2454L-136.531 262.69Z" fill="#202020"/>
<path d="M-125.154 205.055H-130.805L63.8666 -73.4238H69.5246L-125.154 205.055Z" fill="#EE1827"/>
<path d="M-28.3402 41.0901H-140.656L-71.2219 -58.25H41.0942L-28.3402 41.0901Z" fill="#2D2D2D"/>
<path d="M26.3661 1060.35H13.9355L372.222 547.824H384.645L26.3661 1060.35Z" fill="#EFEFEF"/>
<path d="M6.49136 1060.35H-0.1875L358.091 547.824H364.778L6.49136 1060.35Z" fill="#EFEFEF"/>
<path d="M-9.59496 1060.35H-13L345.287 547.824H348.684L-9.59496 1060.35Z" fill="#EFEFEF"/>
<path d="M343.383 1098.6H222.229L447.846 780.191H569.001L343.383 1098.6Z" fill="#2D2D2D"/>
<path d="M239.982 1055.58H36.252L352.012 603.875H555.742L239.982 1055.58Z" fill="#202020"/>
<path d="M175.862 1075.34H119.387L334.086 768.215H390.553L175.862 1075.34Z" fill="#2D2D2D"/>
<path d="M211.365 1055.3H205.039L422.98 743.525H429.306L211.365 1055.3Z" fill="#EE1827"/>
</svg>
