<svg width="20" height="20" viewBox="0 0 20 20" fill="none" xmlns="http://www.w3.org/2000/svg">
<path d="M12.4987 13.3327H7.4987C7.27768 13.3327 7.06572 13.4205 6.90944 13.5768C6.75316 13.733 6.66536 13.945 6.66536 14.166C6.66536 14.387 6.75316 14.599 6.90944 14.7553C7.06572 14.9116 7.27768 14.9993 7.4987 14.9993H12.4987C12.7197 14.9993 12.9317 14.9116 13.088 14.7553C13.2442 14.599 13.332 14.387 13.332 14.166C13.332 13.945 13.2442 13.733 13.088 13.5768C12.9317 13.4205 12.7197 13.3327 12.4987 13.3327ZM7.4987 8.33268H8.33203C8.55304 8.33268 8.76501 8.24488 8.92129 8.0886C9.07757 7.93232 9.16536 7.72036 9.16536 7.49935C9.16536 7.27834 9.07757 7.06637 8.92129 6.91009C8.76501 6.75381 8.55304 6.66602 8.33203 6.66602H7.4987C7.27768 6.66602 7.06572 6.75381 6.90944 6.91009C6.75316 7.06637 6.66536 7.27834 6.66536 7.49935C6.66536 7.72036 6.75316 7.93232 6.90944 8.0886C7.06572 8.24488 7.27768 8.33268 7.4987 8.33268ZM12.4987 9.99935H7.4987C7.27768 9.99935 7.06572 10.0871 6.90944 10.2434C6.75316 10.3997 6.66536 10.6117 6.66536 10.8327C6.66536 11.0537 6.75316 11.2657 6.90944 11.4219C7.06572 11.5782 7.27768 11.666 7.4987 11.666H12.4987C12.7197 11.666 12.9317 11.5782 13.088 11.4219C13.2442 11.2657 13.332 11.0537 13.332 10.8327C13.332 10.6117 13.2442 10.3997 13.088 10.2434C12.9317 10.0871 12.7197 9.99935 12.4987 9.99935ZM16.4237 12.741C16.3444 12.6651 16.251 12.6057 16.1487 12.566C16.0492 12.5209 15.9413 12.4976 15.832 12.4976C15.7228 12.4976 15.6148 12.5209 15.5154 12.566C15.4131 12.6057 15.3196 12.6651 15.2404 12.741C15.1668 12.822 15.1076 12.915 15.0654 13.016C15.0015 13.1678 14.9841 13.335 15.0153 13.4967C15.0464 13.6584 15.1247 13.8072 15.2404 13.9243C15.3182 14.0016 15.4106 14.0627 15.5121 14.1042C15.6136 14.1456 15.7224 14.1666 15.832 14.166C15.9409 14.1647 16.0485 14.142 16.1487 14.0993C16.2497 14.0571 16.3427 13.998 16.4237 13.9243C16.5393 13.8072 16.6177 13.6584 16.6488 13.4967C16.6799 13.335 16.6625 13.1678 16.5987 13.016C16.5565 12.915 16.4973 12.822 16.4237 12.741ZM16.6654 7.44935C16.6567 7.37279 16.6399 7.29737 16.6154 7.22435V7.14935C16.5753 7.06367 16.5219 6.9849 16.457 6.91602L11.457 1.91602C11.3881 1.8512 11.3094 1.79775 11.2237 1.75768C11.1988 1.75415 11.1736 1.75415 11.1487 1.75768C11.064 1.70913 10.9706 1.67797 10.8737 1.66602H5.83203C5.16899 1.66602 4.53311 1.92941 4.06426 2.39825C3.59542 2.86709 3.33203 3.50297 3.33203 4.16602V15.8327C3.33203 16.4957 3.59542 17.1316 4.06426 17.6004C4.53311 18.0693 5.16899 18.3327 5.83203 18.3327H12.4987C12.7197 18.3327 12.9317 18.2449 13.088 18.0886C13.2442 17.9323 13.332 17.7204 13.332 17.4993C13.332 17.2783 13.2442 17.0664 13.088 16.9101C12.9317 16.7538 12.7197 16.666 12.4987 16.666H5.83203C5.61102 16.666 5.39906 16.5782 5.24278 16.4219C5.0865 16.2657 4.9987 16.0537 4.9987 15.8327V4.16602C4.9987 3.945 5.0865 3.73304 5.24278 3.57676C5.39906 3.42048 5.61102 3.33268 5.83203 3.33268H9.9987V5.83268C9.9987 6.49572 10.2621 7.13161 10.7309 7.60045C11.1998 8.06929 11.8357 8.33268 12.4987 8.33268H14.9987V9.99935C14.9987 10.2204 15.0865 10.4323 15.2428 10.5886C15.3991 10.7449 15.611 10.8327 15.832 10.8327C16.053 10.8327 16.265 10.7449 16.4213 10.5886C16.5776 10.4323 16.6654 10.2204 16.6654 9.99935V7.49935C16.6654 7.49935 16.6654 7.49935 16.6654 7.44935ZM12.4987 6.66602C12.2777 6.66602 12.0657 6.57822 11.9094 6.42194C11.7532 6.26566 11.6654 6.0537 11.6654 5.83268V4.50768L13.8237 6.66602H12.4987ZM15.832 14.9993C15.611 14.9993 15.3991 15.0871 15.2428 15.2434C15.0865 15.3997 14.9987 15.6117 14.9987 15.8327V17.4993C14.9987 17.7204 15.0865 17.9323 15.2428 18.0886C15.3991 18.2449 15.611 18.3327 15.832 18.3327C16.053 18.3327 16.265 18.2449 16.4213 18.0886C16.5776 17.9323 16.6654 17.7204 16.6654 17.4993V15.8327C16.6654 15.6117 16.5776 15.3997 16.4213 15.2434C16.265 15.0871 16.053 14.9993 15.832 14.9993Z" fill="#FF0000"/>
</svg>
