<svg width="20" height="20" viewBox="0 0 20 20" fill="none" xmlns="http://www.w3.org/2000/svg">
<path d="M5.51797 10.8994C5.41456 10.9368 5.32064 10.9965 5.24287 11.0743C5.16511 11.152 5.1054 11.246 5.06797 11.3494C5.00735 11.5008 4.99251 11.6667 5.02529 11.8265C5.05807 11.9863 5.13703 12.133 5.25237 12.2483C5.36771 12.3636 5.51437 12.4426 5.67417 12.4754C5.83396 12.5082 5.99986 12.4933 6.1513 12.4327C6.25229 12.3905 6.3453 12.3313 6.4263 12.2577C6.49991 12.1767 6.5591 12.0837 6.6013 11.9827C6.64795 11.8838 6.67079 11.7753 6.66797 11.666C6.6649 11.4454 6.57858 11.2341 6.4263 11.0744C6.30912 10.9587 6.1603 10.8804 5.99865 10.8493C5.83699 10.8181 5.66973 10.8356 5.51797 10.8994ZM16.468 7.56603L15.3346 4.2077C15.1618 3.71873 14.8411 3.29562 14.4171 2.997C13.993 2.69838 13.4866 2.53903 12.968 2.54103H7.03464C6.516 2.53903 6.00959 2.69838 5.58555 2.997C5.16151 3.29562 4.84084 3.71873 4.66797 4.2077L3.53464 7.59103C3.00157 7.73063 2.52957 8.04242 2.19199 8.47795C1.85442 8.91348 1.6702 9.44834 1.66797 9.99937V13.3327C1.66942 13.8485 1.83037 14.3512 2.12875 14.7719C2.42713 15.1926 2.84834 15.5108 3.33464 15.6827V16.666C3.33464 16.887 3.42243 17.099 3.57871 17.2553C3.73499 17.4116 3.94695 17.4994 4.16797 17.4994C4.38898 17.4994 4.60094 17.4116 4.75722 17.2553C4.9135 17.099 5.0013 16.887 5.0013 16.666V15.8327H15.0013V16.666C15.0013 16.887 15.0891 17.099 15.2454 17.2553C15.4017 17.4116 15.6136 17.4994 15.8346 17.4994C16.0556 17.4994 16.2676 17.4116 16.4239 17.2553C16.5802 17.099 16.668 16.887 16.668 16.666V15.6827C17.1543 15.5108 17.5755 15.1926 17.8739 14.7719C18.1722 14.3512 18.3332 13.8485 18.3346 13.3327V9.99937C18.3324 9.44834 18.1482 8.91348 17.8106 8.47795C17.473 8.04242 17.001 7.73063 16.468 7.59103V7.56603ZM6.24297 4.7327C6.29887 4.56718 6.40538 4.42342 6.54744 4.32174C6.68951 4.22005 6.85993 4.16558 7.03464 4.16603H12.968C13.1497 4.15655 13.3295 4.20681 13.48 4.30913C13.6305 4.41145 13.7433 4.56022 13.8013 4.7327L14.6763 7.49937H5.3263L6.24297 4.7327ZM16.668 13.3327C16.668 13.5537 16.5802 13.7657 16.4239 13.922C16.2676 14.0782 16.0556 14.166 15.8346 14.166H4.16797C3.94695 14.166 3.73499 14.0782 3.57871 13.922C3.42243 13.7657 3.33464 13.5537 3.33464 13.3327V9.99937C3.33464 9.77835 3.42243 9.56639 3.57871 9.41011C3.73499 9.25383 3.94695 9.16603 4.16797 9.16603H15.8346C16.0556 9.16603 16.2676 9.25383 16.4239 9.41011C16.5802 9.56639 16.668 9.77835 16.668 9.99937V13.3327ZM13.8513 10.8994C13.7479 10.9368 13.654 10.9965 13.5762 11.0743C13.4984 11.152 13.4387 11.246 13.4013 11.3494C13.3407 11.5008 13.3258 11.6667 13.3586 11.8265C13.3914 11.9863 13.4704 12.133 13.5857 12.2483C13.701 12.3636 13.8477 12.4426 14.0075 12.4754C14.1673 12.5082 14.3332 12.4933 14.4846 12.4327C14.588 12.3953 14.682 12.3356 14.7597 12.2578C14.8375 12.18 14.8972 12.0861 14.9346 11.9827C14.9813 11.8838 15.0041 11.7753 15.0013 11.666C14.9982 11.4454 14.9119 11.2341 14.7596 11.0744C14.6424 10.9587 14.4936 10.8804 14.332 10.8493C14.1703 10.8181 14.0031 10.8356 13.8513 10.8994ZM10.8346 10.8327H9.16797C8.94695 10.8327 8.73499 10.9205 8.57871 11.0768C8.42243 11.2331 8.33464 11.445 8.33464 11.666C8.33464 11.887 8.42243 12.099 8.57871 12.2553C8.73499 12.4116 8.94695 12.4994 9.16797 12.4994H10.8346C11.0556 12.4994 11.2676 12.4116 11.4239 12.2553C11.5802 12.099 11.668 11.887 11.668 11.666C11.668 11.445 11.5802 11.2331 11.4239 11.0768C11.2676 10.9205 11.0556 10.8327 10.8346 10.8327Z" fill="#FF0000"/>
</svg>
