<svg width="25" height="41" viewBox="0 0 25 41" fill="none" xmlns="http://www.w3.org/2000/svg">
<path d="M9.932 37V33.352H14.096V32.464H9.932V29.884H14.18V28.996H8.936V37H9.932Z" fill="white"/>
<path d="M12.4998 0C5.59643 0 0 5.59622 0 12.5002C0 19.4036 5.59643 25 12.4998 25C19.4036 25 19.4036 0 12.4998 0Z" fill="#2B479D"/>
<path d="M12.4793 2.16797L12.7842 3.10627H13.7711L12.9727 3.68614L13.2776 4.62444L12.4793 4.04419L11.6811 4.62444L11.9861 3.68614L11.1875 3.10627H12.1744L12.4793 2.16797Z" fill="#F8D12E"/>
<path d="M12.4793 19.8809L12.7842 20.8196H13.7711L12.9727 21.3995L13.2776 22.3377L12.4793 21.7579L11.6811 22.3377L11.9861 21.3995L11.1875 20.8196H12.1744L12.4793 19.8809Z" fill="#F8D12E"/>
<path d="M17.3385 3.73828L17.6432 4.67679H18.6301L17.8317 5.25704L18.1366 6.19534L17.3385 5.61509L16.5401 6.19534L16.845 5.25704L16.0469 4.67679H17.0337L17.3385 3.73828Z" fill="#F8D12E"/>
<path d="M20.6551 7.00977L20.9598 7.94806H21.9467L21.1483 8.52815L21.4533 9.46645L20.6551 8.88657L19.8567 9.46645L20.1617 8.52815L19.3633 7.94806H20.3499L20.6551 7.00977Z" fill="#F8D12E"/>
<path d="M20.7371 15.2773L21.0419 16.216H22.0287L21.2303 16.7959L21.5355 17.734L20.7371 17.1543L19.9387 17.734L20.2437 16.7959L19.4453 16.216H20.4322L20.7371 15.2773Z" fill="#F8D12E"/>
<path d="M4.42051 7.00977L4.72525 7.94806H5.71189L4.91372 8.52815L5.21847 9.46645L4.42051 8.88657L3.62218 9.46645L3.92708 8.52815L3.12891 7.94806H4.11576L4.42051 7.00977Z" fill="#F8D12E"/>
<path d="M21.4246 10.9531L21.7293 11.8914H22.7162L21.9178 12.4713L22.2227 13.4098L21.4246 12.8302L20.6262 13.4098L20.9314 12.4713L20.1328 11.8914H21.1195L21.4246 10.9531Z" fill="#F8D12E"/>
<path d="M3.66676 10.9531L3.9715 11.8914H4.95814L4.15981 12.4713L4.46493 13.4098L3.66676 12.8302L2.86837 13.4098L3.17333 12.4713L2.375 11.8914H3.3618L3.66676 10.9531Z" fill="#F8D12E"/>
<path d="M4.31519 15.2773L4.61994 16.216H5.60658L4.80846 16.7959L5.11315 17.734L4.31519 17.1543L3.51686 17.734L3.82177 16.7959L3.02344 16.216H4.01029L4.31519 15.2773Z" fill="#F8D12E"/>
<path d="M17.4832 18.6895L17.7879 19.6278H18.7747L17.9762 20.208L18.2813 21.1463L17.4832 20.5664L16.6846 21.1463L16.9898 20.208L16.1914 19.6278H17.1783L17.4832 18.6895Z" fill="#F8D12E"/>
<path d="M7.77597 3.73828L8.08066 4.67679H9.06752L8.26919 5.25704L8.5743 6.19534L7.77597 5.61509L6.9778 6.19534L7.2827 5.25704L6.48438 4.67679H7.47102L7.77597 3.73828Z" fill="#F8D12E"/>
<path d="M7.4166 18.6309L7.7215 19.5696H8.70836L7.91003 20.1492L8.21493 21.0875L7.4166 20.508L6.61843 21.0875L6.92333 20.1492L6.125 19.5696H7.11164L7.4166 18.6309Z" fill="#F8D12E"/>
</svg>
