<svg width="825" height="387" viewBox="0 0 825 387" fill="none" xmlns="http://www.w3.org/2000/svg">
<g clip-path="url(#clip0_35_18670)">
<path d="M-42.8183 515.34H-171.238L198.302 -12.4102H326.722L-42.8183 515.34Z" fill="#DFDFDF"/>
<path d="M-87.6608 611.22H-102.801L333.859 -12.4102H349.009L-87.6608 611.22Z" fill="#EFEFEF"/>
<path d="M-71.9711 611.22H-80.1211L356.549 -12.4102H364.699L-71.9711 611.22Z" fill="#EFEFEF"/>
<path d="M-54.6391 611.22H-58.7891L377.881 -12.4102H382.031L-54.6391 611.22Z" fill="#EFEFEF"/>
<path d="M-97.6603 542.26H-245.32L-52.1003 266.32H95.5597L-97.6603 542.26Z" fill="#2D2D2D"/>
<path d="M-75.17 361.28H-294L-32.34 -12.4102H186.5L-75.17 361.28Z" fill="#202020"/>
<path d="M-29.1289 456.601H-77.3789L11.9311 329.051H60.1711L-29.1289 456.601Z" fill="#EE1827"/>
<path d="M-59.6494 282.77H-67.3594L198.261 -96.5703H205.981L-59.6494 282.77Z" fill="#EE1827"/>
<path d="M72.4492 59.4196H-80.8008L13.9392 -75.9004H167.189L72.4492 59.4196Z" fill="#2D2D2D"/>
<path d="M-105.781 281.75H-159.961L46.0191 -12.4102H100.199L-105.781 281.75Z" fill="#3A3A3A"/>
<path d="M822.502 41.4302H674.852L868.062 -234.51H1015.72L822.502 41.4302Z" fill="#EE1827"/>
<path d="M771.66 29.4205H624L817.22 -246.52H964.88L771.66 29.4205Z" fill="#202020"/>
<path d="M437.56 103.35H429.84L695.47 -276H703.18L437.56 103.35Z" fill="#202020"/>
<path d="M473.502 617.03H458.352L895.022 -6.58984H910.162L473.502 617.03Z" fill="#EFEFEF"/>
<path d="M449.269 617.03H441.129L877.789 -6.58984H885.939L449.269 617.03Z" fill="#EFEFEF"/>
<path d="M429.669 617.03H425.52L862.189 -6.58984H866.329L429.669 617.03Z" fill="#EFEFEF"/>
<path d="M733.851 611.219H485.551L870.391 61.6094H1118.69L733.851 611.219Z" fill="#202020"/>
<path d="M655.701 635.26H586.871L848.541 261.57H917.361L655.701 635.26Z" fill="#2D2D2D"/>
<path d="M853.452 250.23H798.852L870.302 148.18H924.912L853.452 250.23Z" fill="#2D2D2D"/>
<path d="M834.551 222.579H786.301L875.611 95.0293H923.861L834.551 222.579Z" fill="#EE1827"/>
<path d="M698.972 610.879H691.262L956.882 231.529H964.592L698.972 610.879Z" fill="#EE1827"/>
</g>
<defs>
<clipPath id="clip0_35_18670">
<rect width="825" height="387" rx="5" fill="white"/>
</clipPath>
</defs>
</svg>
