<svg width="711" height="562" viewBox="0 0 711 562" fill="none" xmlns="http://www.w3.org/2000/svg">
<path d="M132.484 417.388H64.75L259.661 139.029H327.396L132.484 417.388Z" fill="#DFDFDF"/>
<path d="M108.833 467.959H100.848L331.161 139.029H339.152L108.833 467.959Z" fill="#EFEFEF"/>
<path d="M117.107 467.959H112.809L343.127 139.029H347.426L117.107 467.959Z" fill="#EFEFEF"/>
<path d="M126.247 467.959H124.059L354.377 139.029H356.566L126.247 467.959Z" fill="#EFEFEF"/>
<path d="M103.558 431.586H25.6758L127.588 286.043H205.471L103.558 431.586Z" fill="#2D2D2D"/>
<path d="M115.42 336.13H0L138.011 139.029H253.437L115.42 336.13Z" fill="#202020"/>
<path d="M139.703 386.404H114.254L161.36 319.129H186.804L139.703 386.404Z" fill="#EE1827"/>
<path d="M123.606 294.719H119.539L259.639 94.6387H263.71L123.606 294.719Z" fill="#EE1827"/>
<path d="M193.28 176.915H112.449L162.419 105.541H243.25L193.28 176.915Z" fill="#2D2D2D"/>
<path d="M99.2761 294.182H70.6992L179.342 139.029H207.919L99.2761 294.182Z" fill="#3A3A3A"/>
<path d="M588.889 167.426H511.012L612.919 21.8828H690.801L588.889 167.426Z" fill="#EE1827"/>
<path d="M562.074 161.092H484.191L586.104 15.5488H663.986L562.074 161.092Z" fill="#202020"/>
<path d="M385.857 200.086H381.785L521.89 0H525.957L385.857 200.086Z" fill="#202020"/>
<path d="M294.811 561.022H286.82L517.139 232.098H525.125L294.811 561.022Z" fill="#EFEFEF"/>
<path d="M282.032 561.022H277.738L508.052 232.098H512.35L282.032 561.022Z" fill="#EFEFEF"/>
<path d="M271.697 561.022H269.508L499.826 232.098H502.01L271.697 561.022Z" fill="#EFEFEF"/>
<path d="M608.601 495.57H530.719L632.631 350.027H710.514L608.601 495.57Z" fill="#2D2D2D"/>
<path d="M432.132 557.958H301.168L504.149 268.07H635.113L432.132 557.958Z" fill="#202020"/>
<path d="M500.913 480.637H464.609L602.626 283.537H638.924L500.913 480.637Z" fill="#2D2D2D"/>
<path d="M605.216 277.556H576.418L614.104 223.73H642.908L605.216 277.556Z" fill="#2D2D2D"/>
<path d="M493.898 474.493H436.797L483.903 407.223H541.004L493.898 474.493Z" fill="#3A3A3A"/>
<path d="M595.246 262.973H569.797L616.903 195.697H642.352L595.246 262.973Z" fill="#EE1827"/>
<path d="M523.735 467.779H519.668L659.767 267.693H663.834L523.735 467.779Z" fill="#EE1827"/>
<path d="M362.884 558.338H279.453L290.962 541.908H374.388L362.884 558.338Z" fill="#2D2D2D"/>
</svg>
