<svg width="30" height="30" viewBox="0 0 30 30" fill="none" xmlns="http://www.w3.org/2000/svg">
<path fill-rule="evenodd" clip-rule="evenodd" d="M3.74421 0.171667C3.65483 0.278958 3.58181 0.718125 3.54921 1.34354L3.49712 2.34375L2.96181 2.37479C2.62139 2.39458 2.36848 2.47042 2.26712 2.58312C2.06025 2.81333 1.24744 5.445 0.909519 6.97917C-0.284022 12.3974 -0.302147 17.2744 0.850874 22.7604C1.13046 24.091 1.86712 26.707 2.11598 27.2531C2.24775 27.5423 2.62035 27.7083 3.13744 27.7083H3.54921V28.6226C3.54921 30.0009 3.54806 30 5.26796 30C6.98785 30 6.98671 30.0009 6.98671 28.6226V27.7083L8.1065 27.7068C8.72233 27.7058 9.27785 27.6707 9.34087 27.6286C9.61233 27.4474 9.69504 27.0443 9.69504 25.902V24.707L11.0577 23.744C11.9227 23.1327 12.458 22.6826 12.5229 22.5119C12.5799 22.3617 12.6107 21.491 12.5923 20.5399C12.553 18.4924 12.5847 18.5417 11.3049 18.5417H10.4545L10.2359 17.7865C9.62004 15.6597 9.6389 13.4545 10.2905 11.3802L10.4622 10.8333H11.3211C12.1315 10.8333 12.1924 10.8174 12.4026 10.5501C12.6125 10.2833 12.6235 10.1716 12.5925 8.61083C12.5545 6.69823 12.7295 6.99354 11.0492 6.00688L9.95546 5.36458L9.92608 4.06698C9.88733 2.35969 9.93619 2.41062 8.3015 2.37292L7.03879 2.34375L6.98671 1.34354C6.9541 0.718125 6.88108 0.278958 6.79171 0.171667C6.67202 0.0280207 6.42306 0 5.26796 0C4.11285 0 3.86389 0.0280207 3.74421 0.171667ZM23.2234 0.171667C23.134 0.278958 23.061 0.718125 23.0284 1.34354L22.9763 2.34375L21.7307 2.37333C20.0646 2.41281 20.112 2.36365 20.1106 4.0526L20.1094 5.36458L18.8514 6.0851C17.9996 6.57292 17.5626 6.88625 17.4984 7.05542C17.4461 7.19281 17.4034 7.97552 17.4034 8.79479C17.4034 10.1441 17.4237 10.3103 17.6193 10.5589C17.8215 10.8159 17.8899 10.8333 18.6979 10.8333H19.5606L19.7792 11.5885C20.1122 12.7387 20.2159 13.4742 20.2159 14.6875C20.2159 15.8866 20.1129 16.6116 19.7756 17.7865L19.5588 18.5417H18.7093C17.4305 18.5417 17.4621 18.4926 17.4228 20.5399C17.4044 21.491 17.4351 22.3617 17.4922 22.5119C17.5571 22.6826 18.0923 23.1327 18.9573 23.744L20.32 24.707V25.902C20.32 27.0443 20.4027 27.4474 20.6742 27.6286C20.7372 27.6707 21.2927 27.7058 21.9086 27.7068L23.0284 27.7083V28.6226C23.0284 30.0009 23.0272 30 24.7471 30C26.467 30 26.4659 30.0009 26.4659 28.6226V27.7083H26.8776C27.3947 27.7083 27.7673 27.5423 27.8991 27.2531C27.9551 27.13 28.1934 26.3969 28.4285 25.6241C30.0864 20.1732 30.4465 14.075 29.4343 8.59375C29.0093 6.29208 28.0696 2.94573 27.7465 2.58312C27.6458 2.47021 27.3945 2.39469 27.0533 2.37479L26.518 2.34375L26.4659 1.34354C26.4333 0.718125 26.3602 0.278958 26.2709 0.171667C26.1512 0.0280207 25.9022 0 24.7471 0C23.592 0 23.3431 0.0280207 23.2234 0.171667ZM8.75754 4.82177C8.79723 5.75844 8.84671 6.07323 8.96587 6.14833C9.05181 6.2024 9.62556 6.54042 10.2409 6.89937L11.3597 7.55208L11.3607 8.55594L11.3617 9.55979L10.632 9.60104C10.0824 9.63208 9.85212 9.69281 9.699 9.84719C9.32317 10.226 8.82702 11.9994 8.59973 13.776L8.5364 14.2708H4.84494C2.81452 14.2708 1.15348 14.2356 1.15358 14.1927C1.15744 13.0042 1.54369 9.76604 1.89587 7.96875C2.10879 6.8824 2.87764 4.04125 3.04514 3.72229C3.13431 3.55229 3.35389 3.54042 5.92358 3.56604L8.70546 3.59375L8.75754 4.82177ZM26.9709 3.72396C27.1392 4.04469 27.9075 6.88927 28.1315 8.02083C28.3789 9.27083 28.7129 11.8881 28.806 13.3073L28.8692 14.2708H25.1722H21.4754L21.4266 13.9323C21.3998 13.7461 21.3298 13.2422 21.2711 12.8125C21.137 11.8321 20.5851 10.1184 20.3161 9.84719C20.163 9.69281 19.9326 9.63208 19.3831 9.60104L18.6534 9.55979L18.6542 8.55594L18.655 7.55208L19.8053 6.88844C20.4379 6.52344 21.0234 6.15677 21.1065 6.07365C21.2197 5.96042 21.2575 5.64208 21.2575 4.80156C21.2575 4.185 21.2888 3.64927 21.327 3.61115C21.3651 3.57292 22.6292 3.54167 24.1358 3.54167C26.6389 3.54167 26.8835 3.5574 26.9709 3.72396ZM8.62796 15.7812C8.72264 16.89 9.35483 19.1497 9.66994 19.5052C9.79629 19.6477 9.9991 19.6875 10.5999 19.6875H11.3683L11.339 20.9053L11.3096 22.1232L9.96181 23.0785C9.22056 23.604 8.57931 24.1223 8.53692 24.2304C8.49442 24.3386 8.4564 24.8841 8.45233 25.4427L8.44504 26.4583H5.75098H3.05681L2.68192 25.1823C2.47577 24.4804 2.21098 23.5011 2.09358 23.006C1.52171 20.5948 0.987436 15.691 1.2765 15.5061C1.35202 15.4578 3.03098 15.4297 5.00754 15.4435L8.60129 15.4688L8.62796 15.7812ZM28.7386 15.5069C29.0278 15.6902 28.4933 20.5951 27.9215 23.006C27.8041 23.5011 27.5393 24.4804 27.3332 25.1823L26.9583 26.4583H24.2641H21.57L21.5685 25.4427C21.5675 24.8384 21.5148 24.33 21.4383 24.1874C21.3675 24.0555 20.7237 23.538 20.0075 23.0374L18.7055 22.1271L18.6761 20.9073L18.6468 19.6875H19.4151C20.017 19.6875 20.2181 19.648 20.3424 19.5052C20.6599 19.1409 21.3617 16.657 21.3617 15.8976C21.3617 15.7095 21.393 15.5243 21.4312 15.4861C21.533 15.3843 28.5768 15.4044 28.7386 15.5069Z" fill="white"/>
</svg>
