<svg width="30" height="30" viewBox="0 0 30 30" fill="none" xmlns="http://www.w3.org/2000/svg">
<path fill-rule="evenodd" clip-rule="evenodd" d="M10.2627 0.284914C9.86084 0.446381 9.25652 0.702768 8.91986 0.854535C8.40772 1.08547 8.2172 1.12 7.75339 1.06555C7.25002 1.00641 7.1378 1.03467 6.5315 1.37346C4.49671 2.51051 2.51286 4.48932 1.38178 6.51017C1.03405 7.13152 1.00315 7.24949 1.06057 7.73431C1.11819 8.21997 1.07351 8.38894 0.589765 9.51515C-0.0167473 10.9274 -0.122391 11.4786 0.122615 11.9522C0.342462 12.3768 0.808569 12.6445 1.73807 12.8797L2.50409 13.0736L2.43415 13.4913C2.12275 15.3509 2.09477 16.5275 2.32662 18.0293C2.8157 21.1987 4.04939 23.6681 6.23857 25.8594C7.47477 27.0969 8.25291 27.6783 9.69298 28.4407C11.5262 29.4112 13.387 29.8994 15.5867 29.987C17.9492 30.0811 19.9866 29.668 22.0843 28.6696C23.5085 27.9917 24.5645 27.2528 25.7729 26.0887C27.85 24.0878 29.1732 21.6767 29.8043 18.7424C30.0625 17.5423 30.0658 14.6721 29.8105 13.4876C29.1675 10.5042 27.7997 8.03305 25.6713 6.00918C22.3916 2.89071 18.0963 1.63767 13.4462 2.44323L13.0803 2.50655L12.8862 1.74083C12.4497 0.0190355 11.8093 -0.336339 10.2627 0.284914ZM11.6068 1.62703C11.8107 2.25673 12.4064 4.50372 12.3746 4.52249C12.3613 4.53032 12.1157 4.62085 11.8286 4.7237C11.1015 4.98416 9.65749 5.76531 8.96464 6.27297C7.13279 7.61509 5.43737 9.83381 4.72355 11.823C4.62062 12.1099 4.53001 12.3553 4.52218 12.3686C4.50328 12.4005 2.25334 11.8047 1.62042 11.6001C1.18448 11.4592 1.12936 11.4099 1.18876 11.2136C1.33794 10.7206 1.99435 9.19013 2.23267 8.77958C2.53029 8.2668 2.54407 8.09772 2.31681 7.75111C2.15323 7.50171 2.16534 7.46562 2.70828 6.58443C3.47336 5.34276 5.34311 3.47452 6.58578 2.71005C7.46768 2.16755 7.50379 2.15545 7.75339 2.3189C8.09486 2.54243 8.28756 2.53169 8.71932 2.26508C9.05473 2.05792 11.221 1.1347 11.3766 1.13251C11.415 1.13199 11.5187 1.35458 11.6068 1.62703ZM18.1221 3.54524C20.663 3.89655 23.0975 5.13738 25.0431 7.07259C26.2204 8.24375 26.8043 9.04295 27.5229 10.4671C28.4441 12.2926 28.8312 13.9592 28.8312 16.0996C28.8312 17.6365 28.735 18.3179 28.3117 19.7772C27.2122 23.5684 24.0143 26.8974 20.2843 28.1337C18.6617 28.6715 17.8228 28.8072 16.1086 28.8088C14.7875 28.8101 14.3615 28.768 13.3822 28.5396C10.7563 27.9274 8.62871 26.7125 6.82243 24.7939C4.35578 22.1741 3.09912 18.5449 3.43265 15.0044C3.58725 13.363 3.53151 13.4575 4.34492 13.4584C4.72898 13.4587 5.46598 13.4165 5.98271 13.3646C7.42174 13.22 7.90205 12.8961 8.88656 11.4058C9.47501 10.5149 10.5526 9.4438 11.4632 8.84466C12.8999 7.89943 13.228 7.4071 13.3714 5.98185C13.4234 5.46553 13.4655 4.72766 13.465 4.34214L13.4642 3.6411L13.8294 3.57267C15.0873 3.33683 16.5477 3.32755 18.1221 3.54524ZM8.92184 3.93003C8.54958 4.341 8.79511 4.88663 9.35235 4.88663C9.60508 4.88663 9.89738 4.56922 9.89738 4.29479C9.89738 3.81696 9.24514 3.57309 8.92184 3.93003ZM16.2485 4.86055C15.9116 5.2614 15.0125 6.96307 15.0125 7.20005C15.0125 7.79679 15.6897 7.89974 16.0909 7.36392C16.5386 6.76593 17.2048 5.50162 17.2048 5.24983C17.2048 4.74321 16.5658 4.48306 16.2485 4.86055ZM12.1527 6.49702C12.052 6.89788 11.69 7.26191 10.7519 7.90538C9.62252 8.68007 8.70137 9.60391 7.87209 10.7938C7.16369 11.8103 6.70374 12.1881 6.175 12.1881H5.82404L6.30726 11.2233C7.40243 9.03659 8.91506 7.5064 11.0952 6.37978C12.0651 5.87869 12.1443 5.8546 12.1765 6.05142C12.1957 6.16825 12.1849 6.36883 12.1527 6.49702ZM20.7541 7.02576C20.2086 7.33774 19.6947 7.70615 19.6119 7.84446C19.4787 8.06747 19.4819 8.12713 19.6405 8.36892C19.8845 8.74109 20.1857 8.71678 20.9789 8.26106C21.3432 8.05172 21.8359 7.76905 22.0736 7.63272C22.564 7.35161 22.6974 7.03421 22.4706 6.68822C22.2314 6.32356 21.8514 6.39825 20.7541 7.02576ZM3.91107 8.93677C3.68444 9.187 3.69185 9.50607 3.92924 9.72074C4.45046 10.1921 5.11908 9.58357 4.77856 8.94772C4.63941 8.68799 4.14209 8.68174 3.91107 8.93677ZM14.6472 9.22663C13.1406 9.53726 11.4478 10.6031 10.5582 11.8009C8.38329 14.7298 8.62433 18.551 11.1422 21.0602C11.8684 21.7838 12.9037 22.4738 13.4174 22.5765C13.8266 22.6583 14.0956 22.3951 14.0526 21.9555C14.0252 21.6758 13.9286 21.581 13.3491 21.2645C11.4201 20.2114 10.2709 18.2809 10.2743 16.0996C10.2769 14.468 10.8317 13.1321 11.9852 11.9795C13.1387 10.8269 14.4757 10.2726 16.1086 10.27C19.3776 10.2648 21.9444 12.829 21.9444 16.0996C21.9444 18.4244 20.6976 20.3786 18.5203 21.4661C18.0766 21.6878 18.0108 22.2137 18.3951 22.4654C18.7462 22.6952 19.1513 22.5599 20.0924 21.8985C21.9343 20.6042 23.0082 18.6933 23.13 16.4934C23.3851 11.8834 19.1902 8.28975 14.6472 9.22663ZM23.2827 10.6816C23.1341 10.7856 23.0507 10.9522 23.0507 11.1451C23.0507 11.6618 23.3458 11.7709 24.7442 11.7709C25.8345 11.7709 25.9972 11.7473 26.1824 11.5623C26.4579 11.287 26.4458 11.0858 26.1349 10.7753C25.893 10.5336 25.8125 10.5192 24.6967 10.5192C23.7958 10.5192 23.4594 10.5578 23.2827 10.6816ZM15.8769 11.4672C15.4225 11.6359 15.4791 12.4032 15.9571 12.5548C16.2836 12.6583 16.6828 12.3476 16.6828 11.9898C16.6828 11.5557 16.3025 11.3091 15.8769 11.4672ZM13.5858 12.2523C13.4256 12.4967 13.423 12.5537 13.5606 12.7999C13.8531 13.3231 14.6211 13.1444 14.6211 12.5532C14.6211 11.9788 13.9021 11.7698 13.5858 12.2523ZM17.7863 12.1434C17.4312 12.4983 17.6943 13.1269 18.198 13.1269C18.4586 13.1269 18.7706 12.782 18.7706 12.4939C18.7706 12.0676 18.101 11.8291 17.7863 12.1434ZM12.2173 13.6022C11.7763 13.9108 12.014 14.6133 12.5594 14.6133C13.1047 14.6133 13.3424 13.9108 12.9014 13.6022C12.7739 13.5129 12.6199 13.4398 12.5594 13.4398C12.4988 13.4398 12.3448 13.5129 12.2173 13.6022ZM19.3159 13.6022C18.7566 13.9936 19.3106 14.8566 19.9255 14.5519C20.2456 14.3934 20.3194 13.9176 20.0672 13.6392C19.8481 13.3974 19.6242 13.3864 19.3159 13.6022ZM15.384 13.8829C14.791 14.0395 14.0396 14.8209 13.8825 15.4447C13.7205 16.0872 13.7276 16.333 13.9247 16.9107C14.1064 17.4438 14.7095 18.0613 15.2817 18.3002C16.7148 18.8985 18.4478 17.7092 18.4552 16.1224C18.4581 15.4952 18.2689 15.0386 17.7843 14.5026C17.1894 13.8446 16.35 13.628 15.384 13.8829ZM16.8277 15.1985C16.9361 15.2926 17.0896 15.5224 17.1687 15.7093C17.548 16.6047 16.6093 17.5358 15.7107 17.1557C15.2236 16.9497 14.9875 16.6342 14.9754 16.1731C14.9495 15.1847 16.1085 14.5749 16.8277 15.1985ZM4.84182 15.1683C4.62458 15.3854 4.63356 15.7686 4.86051 15.9631C5.25782 16.3037 6.94478 17.1949 7.19208 17.1949C7.53 17.1949 7.70517 17.0151 7.70517 16.6686C7.70517 16.3282 7.57499 16.2136 6.42314 15.5402C5.46191 14.9783 5.11397 14.8965 4.84182 15.1683ZM24.6217 15.1546C24.362 15.4672 24.5365 15.8713 25.0863 16.2308C26.6016 17.2215 27.3507 17.4104 27.4946 16.8379C27.5977 16.4273 27.388 16.2066 26.3093 15.5909C25.2634 14.9941 24.8449 14.8858 24.6217 15.1546ZM11.6267 15.6645C11.4086 15.8238 11.3764 16.2867 11.5673 16.5166C11.765 16.7545 12.2591 16.7124 12.449 16.4415C12.6638 16.1351 12.654 15.9856 12.4028 15.7346C12.1605 15.4925 11.895 15.4685 11.6267 15.6645ZM19.8145 15.7346C19.5633 15.9856 19.5534 16.1351 19.7683 16.4415C19.9473 16.6969 20.4211 16.7556 20.6288 16.5482C20.8328 16.3443 20.7836 15.7577 20.5522 15.6339C20.2525 15.4737 20.0476 15.5016 19.8145 15.7346ZM12.1492 17.776C11.9292 17.9958 11.9418 18.375 12.1761 18.5868C12.4144 18.8023 12.6044 18.8049 12.9014 18.5971C13.3363 18.2928 13.0999 17.6121 12.5594 17.6121C12.4241 17.6121 12.2395 17.6858 12.1492 17.776ZM19.2478 17.776C18.8999 18.1237 19.2033 18.7595 19.7172 18.7595C19.9652 18.7595 20.2321 18.4191 20.2321 18.103C20.2321 17.6544 19.5848 17.4394 19.2478 17.776ZM13.6555 19.281C13.3926 19.5436 13.3894 19.8227 13.6463 20.055C14.1005 20.4657 14.8501 19.9714 14.5726 19.444C14.348 19.0172 13.9842 18.9525 13.6555 19.281ZM17.7863 19.2363C17.5923 19.4303 17.5702 19.9174 17.7476 20.0946C18.0474 20.3942 18.7706 20.1061 18.7706 19.6872C18.7706 19.1899 18.1276 18.8954 17.7863 19.2363ZM23.8047 19.652C23.4494 19.9006 23.5192 20.2389 24.1425 21.2914C24.8797 22.5363 24.8399 22.4841 25.1106 22.5634C25.28 22.6131 25.4154 22.5602 25.6059 22.3698C25.9198 22.0562 25.9071 22.0094 25.1377 20.6457C24.49 19.4975 24.2649 19.3298 23.8047 19.652ZM15.7433 19.8025C15.5102 20.0355 15.4822 20.2401 15.6425 20.5396C15.7665 20.7708 16.3535 20.8199 16.5575 20.6161C16.7652 20.4087 16.7064 19.9352 16.4507 19.7563C16.1441 19.5417 15.9945 19.5515 15.7433 19.8025ZM6.1631 20.5567C5.78134 20.7406 5.74146 21.1487 6.07708 21.4371C6.33754 21.661 6.45383 21.6801 7.55912 21.6801C8.69344 21.6801 8.77246 21.6662 9.01475 21.424C9.33492 21.1041 9.33492 21.0044 9.01475 20.6845C8.77194 20.4418 8.69678 20.4288 7.57937 20.4355C6.9309 20.4393 6.29359 20.4939 6.1631 20.5567ZM15.7073 22.1838C15.4806 22.434 15.488 22.7531 15.7254 22.9677C16.1012 23.3076 16.6828 23.0476 16.6828 22.5399C16.6828 22.047 16.0427 21.8134 15.7073 22.1838ZM20.591 23.292C20.4546 23.5001 20.4297 23.7842 20.4581 24.8131C20.4888 25.9214 20.5182 26.0965 20.6957 26.2261C20.8072 26.3073 20.9743 26.3739 21.0672 26.3739C21.1601 26.3739 21.3273 26.3073 21.4388 26.2261C21.6162 26.0965 21.6457 25.9214 21.6763 24.8131C21.7166 23.353 21.608 23.0361 21.0672 23.0361C20.855 23.0361 20.7066 23.1159 20.591 23.292ZM10.8891 24.1355C9.79121 24.7877 9.50476 25.0919 9.68035 25.4197C9.95511 25.9328 10.1501 25.9125 11.3415 25.2474C12.6182 24.5345 12.8581 24.2594 12.5768 23.8304C12.3148 23.4306 11.9707 23.4929 10.8891 24.1355ZM16.2447 24.6789C15.9071 25.0707 15.0125 26.7194 15.0125 26.95C15.0125 27.4578 15.6457 27.7132 15.9767 27.3387C16.0654 27.2384 16.3781 26.7357 16.6714 26.2218C17.205 25.2871 17.3147 24.8565 17.0795 24.6215C16.8949 24.4371 16.4253 24.4693 16.2447 24.6789Z" fill="white"/>
</svg>
