<svg width="30" height="30" viewBox="0 0 30 30" fill="none" xmlns="http://www.w3.org/2000/svg">
<path fill-rule="evenodd" clip-rule="evenodd" d="M12.9253 0.108376C10.948 0.356225 8.34955 1.37076 6.52799 2.60604C5.27645 3.45475 3.45375 5.27745 2.60504 6.52899C0.775985 9.22593 -0.128486 12.3999 0.0147206 15.6187C0.142397 18.4894 1.02957 21.1559 2.63297 23.4891L3.19142 24.3016L2.99735 24.7288C2.58691 25.6326 2.79296 26.5863 3.56579 27.3602C4.18073 27.9759 4.745 28.1838 5.54525 28.0893C7.57828 27.8493 8.42959 25.392 6.98179 23.9424C6.29234 23.252 5.49303 23.0882 4.25785 23.384C4.02209 23.4404 3.94049 23.3577 3.40008 22.5138C1.87692 20.135 1.19059 17.7794 1.19414 14.942C1.19883 11.2107 2.58034 7.89487 5.23716 5.23816C7.25007 3.22514 9.56075 1.9982 12.4917 1.38618C13.5956 1.15564 15.947 1.12614 17.159 1.32771C17.9588 1.4607 18.0371 1.45758 18.2273 1.2855C18.6269 0.923838 18.4185 0.377383 17.8343 0.255022C16.5332 -0.0173201 14.4299 -0.080168 12.9253 0.108376ZM19.9498 1.25955C19.7361 1.56441 19.7447 1.79068 19.9781 2.00184C20.3572 2.34496 20.934 2.13682 20.934 1.65696C20.934 1.06757 20.2715 0.800122 19.9498 1.25955ZM23.6642 2.13161C22.1232 2.89954 21.7966 4.83657 23.0044 6.0458C23.6939 6.73619 24.4932 6.90003 25.7283 6.60424C25.9641 6.54775 26.0457 6.63051 26.5861 7.47442C28.0895 9.82221 28.8023 12.2659 28.7947 15.0462C28.7844 18.7735 27.3965 22.1027 24.749 24.75C22.7179 26.7812 20.3344 28.038 17.4293 28.6096C16.2972 28.8324 13.9139 28.8592 12.8273 28.6616C12.1532 28.539 12.0399 28.5424 11.8111 28.6923C11.5 28.8961 11.4746 29.2734 11.755 29.5272C12.0248 29.7712 13.6015 30.0015 14.9931 30C17.9851 29.9968 20.9688 29.0734 23.4582 27.3803C24.7066 26.5313 26.5303 24.7076 27.3793 23.4592C29.192 20.7939 30.0977 17.6539 29.9714 14.473C29.9058 12.8226 29.7176 11.7779 29.2071 10.2314C28.774 8.91951 28.1403 7.64441 27.3494 6.49356C26.8032 5.69883 26.7916 5.66715 26.9408 5.37855C27.165 4.94507 27.2284 4.17089 27.0838 3.6335C26.919 3.02107 26.0604 2.14151 25.4678 1.97787C24.7959 1.79246 24.2517 1.83884 23.6642 2.13161ZM25.305 3.19856C25.666 3.39222 26.041 3.94659 26.041 4.28668C26.041 4.66137 25.7329 5.1973 25.3959 5.40877C24.9045 5.71697 24.2453 5.63797 23.8282 5.22096C23.2059 4.59852 23.3992 3.5078 24.1931 3.16271C24.647 2.96531 24.8844 2.97302 25.305 3.19856ZM12.7596 4.52682C12.6457 4.64084 12.5959 4.8889 12.5959 5.3428V5.99483L11.6905 6.3515C11.1925 6.54765 10.6739 6.75339 10.5379 6.80863C10.3792 6.87304 10.2649 6.87304 10.2186 6.80863C10.058 6.58465 9.25183 5.92646 9.13822 5.92646C9.0711 5.92646 8.34433 6.59267 7.52293 7.40699C5.80925 9.10618 5.78549 9.16132 6.46713 9.85588C6.84234 10.2381 6.89049 10.336 6.80586 10.5439C6.75156 10.6771 6.54665 11.1935 6.3505 11.6915L5.99384 12.5969H5.28583C4.69258 12.5969 4.56042 12.6295 4.46995 12.7985C4.40617 12.9177 4.36208 13.8306 4.36208 15.0319C4.36208 17.4323 4.34499 17.3913 5.34587 17.3913H6.00197L6.35456 18.294C6.54853 18.7904 6.75239 19.3091 6.80763 19.4466C6.87204 19.6069 6.87204 19.7223 6.80763 19.7686C6.58365 19.9292 5.92546 20.7354 5.92546 20.849C5.92546 20.9161 6.59167 21.6429 7.40599 22.4643C9.1204 24.1934 9.17282 24.2152 9.88 23.4946L10.3342 23.0318L10.8136 23.269C11.0773 23.3995 11.5863 23.6135 11.9445 23.7446L12.5959 23.9829V24.6402C12.5959 25.6441 12.5498 25.6251 14.9931 25.6251C17.4364 25.6251 17.3903 25.6441 17.3903 24.6402V23.9829L18.0417 23.7446C18.4 23.6135 18.9089 23.3995 19.1726 23.269L19.652 23.0318L20.1062 23.4946C20.8134 24.2152 20.8658 24.1934 22.5802 22.4643C23.3945 21.6429 24.0607 20.9161 24.0607 20.849C24.0607 20.7354 23.4026 19.9292 23.1786 19.7686C23.1142 19.7223 23.1142 19.6069 23.1786 19.4466C23.2338 19.3091 23.4377 18.7904 23.6316 18.294L23.9842 17.3913H24.6403C25.6412 17.3913 25.6241 17.4323 25.6241 15.0319C25.6241 13.8306 25.58 12.9177 25.5162 12.7985C25.4258 12.6295 25.2936 12.5969 24.7004 12.5969H23.9924L23.6357 11.6915C23.4396 11.1935 23.2346 10.6771 23.1803 10.5439C23.0957 10.336 23.1439 10.2381 23.5191 9.85588C24.2007 9.16132 24.1769 9.10618 22.4633 7.40699C21.6419 6.59267 20.9151 5.92646 20.848 5.92646C20.7344 5.92646 19.9282 6.58465 19.7676 6.80863C19.7213 6.87304 19.607 6.87304 19.4483 6.80863C19.3123 6.75339 18.7937 6.54765 18.2957 6.3515L17.3903 5.99483V5.3428C17.3903 4.34494 17.4347 4.36308 14.9931 4.36308C13.2506 4.36308 12.8975 4.38893 12.7596 4.52682ZM16.2438 6.11876C16.2438 6.8695 16.3386 6.96507 17.3903 7.27546C17.8202 7.4024 18.512 7.69132 18.9276 7.91759C19.6518 8.31188 19.6959 8.32251 19.9868 8.17211C20.1536 8.08581 20.3831 7.89695 20.4968 7.7525C20.6104 7.60804 20.7447 7.48985 20.795 7.48985C20.8455 7.48985 21.2591 7.86454 21.7144 8.3224L22.5421 9.15496L22.1699 9.54706C21.6157 10.1307 21.6091 10.2313 22.0702 11.0708C22.295 11.4802 22.5832 12.167 22.7107 12.5969C23.0225 13.649 23.1179 13.7434 23.8684 13.7434H24.4776V14.9941V16.2448H23.8684C23.1219 16.2448 23.0225 16.341 22.7191 17.3577C22.5964 17.7692 22.3076 18.4613 22.0774 18.8958C21.6767 19.652 21.6655 19.6985 21.8155 19.9884C21.9016 20.1549 22.0902 20.3841 22.2347 20.4978C22.3792 20.6114 22.4974 20.7457 22.4974 20.796C22.4974 20.8465 22.1245 21.2584 21.669 21.7113L20.8406 22.5348L20.3684 22.0997C20.1088 21.8604 19.8468 21.6645 19.7861 21.6645C19.7255 21.6645 19.3224 21.8518 18.8904 22.0807C18.4584 22.3096 17.7682 22.5974 17.3567 22.7201C16.34 23.0235 16.2438 23.1229 16.2438 23.8694V24.4786H14.9931H13.7424V23.8694C13.7424 23.1188 13.6407 23.0137 12.6232 22.7132C12.2083 22.5906 11.5181 22.3045 11.0895 22.0774C10.661 21.8504 10.2607 21.6645 10.2001 21.6645C10.1394 21.6645 9.87739 21.8604 9.61776 22.0997L9.14562 22.5348L8.31723 21.7113C7.86166 21.2584 7.48885 20.8465 7.48885 20.796C7.48885 20.7457 7.60704 20.6114 7.7515 20.4978C7.89595 20.3841 8.0846 20.1549 8.17069 19.9884C8.32067 19.6985 8.30952 19.652 7.90877 18.8958C7.67864 18.4613 7.38984 17.7692 7.26706 17.3577C6.96366 16.341 6.86433 16.2448 6.11776 16.2448H5.50856V14.9941V13.7434H6.11776C6.8685 13.7434 6.96407 13.6486 7.27446 12.5969C7.4014 12.167 7.68875 11.478 7.91305 11.0659C8.37206 10.223 8.36591 10.1259 7.81633 9.54706L7.44414 9.15496L8.27179 8.3224C8.72705 7.86454 9.14072 7.48985 9.19117 7.48985C9.24151 7.48985 9.37575 7.60804 9.48936 7.7525C9.60307 7.89695 9.83257 8.08581 9.99944 8.17211C10.2903 8.32251 10.3344 8.31188 11.0586 7.91759C11.4742 7.69132 12.166 7.4024 12.5959 7.27546C13.6477 6.96507 13.7424 6.8695 13.7424 6.11876V5.50956H14.9931H16.2438V6.11876ZM13.6217 10.3382C12.4235 10.6765 11.2096 11.7393 10.5948 12.9883C10.261 13.6661 10.2508 13.7259 10.2508 14.9941C10.2508 16.2715 10.259 16.3179 10.6078 17.0287C11.0804 17.9917 11.9955 18.9068 12.9585 19.3794C13.6693 19.7282 13.7157 19.7364 14.9931 19.7364C16.2705 19.7364 16.3169 19.7282 17.0277 19.3794C17.9907 18.9068 18.9058 17.9917 19.3784 17.0287C19.7272 16.3179 19.7354 16.2715 19.7354 14.9941C19.7354 13.7167 19.7272 13.6703 19.3784 12.9595C18.9091 12.0031 17.99 11.081 17.0428 10.6162C16.392 10.2969 16.2344 10.2638 15.2189 10.2339C14.5174 10.2132 13.928 10.2517 13.6217 10.3382ZM16.5086 11.6599C17.169 11.9783 18.0057 12.8141 18.3334 13.4828C18.55 13.9247 18.5889 14.1546 18.5889 14.9941C18.5889 16.1904 18.3672 16.7374 17.5517 17.5527C16.7364 18.3682 16.1894 18.5899 14.9931 18.5899C14.1536 18.5899 13.9237 18.551 13.4818 18.3344C12.8156 18.008 11.9776 17.1707 11.6622 16.5163C11.3343 15.8361 11.2587 14.7138 11.4889 13.9436C11.8035 12.8916 12.8142 11.8456 13.8466 11.5038C14.5545 11.2695 15.8572 11.3459 16.5086 11.6599ZM6.15799 24.7672C7.02723 25.6365 6.23199 27.1585 5.02673 26.9324C4.58564 26.8497 4.07556 26.3396 3.99281 25.8985C3.76674 24.6932 5.28875 23.898 6.15799 24.7672ZM9.22473 28.0045C8.88818 28.3764 9.14406 28.9603 9.64361 28.9603C9.90543 28.9603 10.1987 28.6479 10.1987 28.369C10.1987 27.8915 9.54752 27.6478 9.22473 28.0045Z" fill="white"/>
</svg>
