<svg width="30" height="30" viewBox="0 0 30 30" fill="none" xmlns="http://www.w3.org/2000/svg">
<path fill-rule="evenodd" clip-rule="evenodd" d="M12.4963 2.10461C9.52654 2.44638 6.58348 3.3697 3.30692 4.98743C1.05828 6.09777 0.059061 6.72868 0.0105628 7.06882C-0.0289099 7.34633 -0.0483748 7.31099 1.71626 10.1652C1.94734 10.5391 3.10542 12.4352 4.28982 14.3789C5.47411 16.3226 6.51596 17.9985 6.60501 18.1033C6.85653 18.399 7.13088 18.3382 8.41782 17.7009C10.4283 16.7053 12.0949 16.2665 14.2906 16.1545C15.661 16.0846 15.976 15.9561 15.976 15.4663C15.976 14.904 15.6136 14.7697 14.3108 14.8494C12.2661 14.9746 10.273 15.464 8.38857 16.3037C7.77386 16.5776 7.25615 16.7826 7.23788 16.7592C7.21961 16.736 6.50519 15.5669 5.65027 14.1614C4.79525 12.7559 3.91249 11.3124 3.68838 10.9536C1.9717 8.20364 1.5152 7.38548 1.62416 7.25412C1.68723 7.17822 2.67894 6.64876 3.82811 6.07755C7.22114 4.39109 10.1094 3.54672 13.4478 3.26541C16.6882 2.99237 20.5625 3.64513 23.9209 5.03005C24.8871 5.42848 25.1592 5.43718 25.395 5.07714C25.6528 4.6836 25.4636 4.33629 24.8415 4.06117C22.9825 3.23877 19.5456 2.32253 17.4755 2.09732C16.2545 1.96455 13.6807 1.96825 12.4963 2.10461ZM12.9476 4.49722C12.4483 4.55703 11.9236 4.65 11.7817 4.70394C11.4168 4.84269 11.3195 5.31223 11.5978 5.59061C11.8051 5.79787 11.8908 5.80352 13.4335 5.71055C15.2852 5.59887 17.1175 5.68641 18.7501 5.96446C19.845 6.15095 19.8882 6.15062 20.1034 5.95587C20.3758 5.70924 20.3861 5.45001 20.1354 5.14945C19.7134 4.64391 15.1681 4.23146 12.9476 4.49722ZM8.15359 5.47078C7.17938 5.80667 7.06368 5.89845 7.06096 6.33755C7.05726 6.94997 7.4185 7.00543 8.7559 6.59754C9.69933 6.30971 9.96172 6.08777 9.83406 5.68543C9.6641 5.14977 9.2411 5.09584 8.15359 5.47078ZM26.6078 5.32626C26.5158 5.43098 25.8172 6.54415 25.0552 7.8001C23.183 10.8863 23.0268 11.1303 22.9461 11.0938C22.9077 11.0766 22.4982 10.8509 22.036 10.5926C21.5579 10.3253 21.0902 10.1378 20.951 10.1576C20.6834 10.1957 20.4415 10.5425 18.9002 13.0984C18.3854 13.9522 17.1388 16.0088 16.1301 17.6686L14.2961 20.6865L13.9491 20.6215C12.9431 20.4327 11.607 21.3125 11.1426 22.4694C10.952 22.9444 10.8048 23.1459 10.5761 23.2445C10.189 23.4116 9.71879 23.9075 9.56732 24.3085C9.50371 24.4769 9.45162 25.1421 9.45162 25.7868C9.45162 26.7844 9.4813 26.9859 9.6505 27.139C9.82786 27.2996 10.2785 27.319 13.8292 27.319C17.3023 27.319 17.8308 27.2972 17.98 27.1482C18.2077 26.9204 18.2235 24.7672 18.0012 24.2354C17.8491 23.8713 17.1201 23.1869 16.8843 23.1869C16.813 23.1869 16.6747 22.9461 16.5769 22.6518C16.4793 22.3575 16.2031 21.8939 15.9634 21.6217L15.5276 21.1265L18.3203 16.475C19.8562 13.9166 21.1527 11.7802 21.2015 11.7274C21.3253 11.5929 22.312 12.1891 22.2468 12.359C22.1991 12.4833 21.246 14.0469 19.8555 16.2819C18.6388 18.2375 18.5728 18.3667 18.6443 18.6521C18.6974 18.8632 19.0234 19.1054 20.0521 19.6976C21.404 20.476 21.8116 20.598 22.0988 20.3108C22.1854 20.2241 22.8323 19.2088 23.5363 18.0544C24.2404 16.9001 25.892 14.194 27.2066 12.041C28.5213 9.88792 29.6884 7.97376 29.8002 7.78727C30.01 7.43746 30.0532 7.13189 29.9362 6.82699C29.8993 6.73042 29.3351 6.35266 28.6828 5.98729C28.0303 5.62192 27.4706 5.28092 27.4387 5.22948C27.3369 5.06474 26.7807 5.12944 26.6078 5.32626ZM27.8908 6.94051C28.1557 7.09568 28.3968 7.26227 28.4267 7.31066C28.4767 7.39157 27.7752 8.58564 26.0314 11.3885C25.6593 11.9866 24.9386 13.161 24.43 13.9983C22.5098 17.1591 21.7143 18.4644 21.5609 18.7053L21.4028 18.954L20.8515 18.6539C20.5484 18.489 20.2792 18.299 20.2535 18.2319C20.2277 18.1648 20.462 17.6986 20.7741 17.1958C21.0863 16.6931 21.7431 15.6213 22.2338 14.8139C22.7245 14.0065 23.4575 12.8076 23.8627 12.1497C24.2679 11.4918 24.7319 10.7334 24.8938 10.4642C25.0558 10.1951 25.4473 9.55898 25.7639 9.05062C26.0805 8.54226 26.532 7.79608 26.7673 7.39233C27.0026 6.98857 27.2433 6.65833 27.3022 6.65833C27.3612 6.65833 27.626 6.78534 27.8908 6.94051ZM12.8769 10.702C11.7854 10.8131 10.3471 11.1057 9.1428 11.4618C8.21905 11.735 7.92393 12.0302 8.1276 12.4774C8.30115 12.8584 8.67065 12.9041 9.52404 12.6499C10.8946 12.2417 12.4248 11.9768 13.8964 11.8931C15.1359 11.8225 15.3729 11.7801 15.5003 11.6058C15.7095 11.3197 15.6866 11.0447 15.4323 10.7905C15.1868 10.5449 14.6136 10.5251 12.8769 10.702ZM14.4113 21.9493C14.7774 22.1231 15.3236 22.6736 15.3236 22.869C15.3236 22.9256 14.6593 22.9694 13.8012 22.9694C12.9432 22.9694 12.2789 22.9256 12.2789 22.869C12.2789 22.6798 12.8165 22.1296 13.173 21.9539C13.6272 21.73 13.9465 21.7288 14.4113 21.9493ZM16.585 24.3575C16.819 24.5137 16.9547 24.9202 16.9547 25.465V26.0175L13.8284 25.9886L10.7021 25.9597L10.7044 25.3433C10.7062 24.8946 10.7625 24.6654 10.9116 24.5006C11.1086 24.2829 11.2185 24.2744 13.7909 24.2759C15.2618 24.2769 16.5192 24.3135 16.585 24.3575Z" fill="white"/>
</svg>
