<svg width="30" height="20" viewBox="0 0 30 20" fill="none" xmlns="http://www.w3.org/2000/svg">
<path fill-rule="evenodd" clip-rule="evenodd" d="M3.00583 0.334284C1.8126 0.752097 1.04323 1.42227 0.482292 2.53268C-0.314583 4.10994 -0.0211457 6.08529 1.2049 7.39799L1.69521 7.92294H0.847604H0V9.69643V11.4699H7.1875C11.1406 11.4699 14.375 11.5076 14.375 11.5537C14.375 11.6355 13.7022 12.8235 11.616 16.4253C10.1781 18.9079 9.79167 19.5923 9.79167 19.656C9.79167 19.6865 12.1354 19.7114 15 19.7114C17.8646 19.7114 20.2083 19.6841 20.2083 19.6507C20.2083 19.6172 19.9333 19.1126 19.5972 18.5292C19.261 17.9458 18.6484 16.8817 18.2357 16.1644C17.8231 15.4472 17.4493 14.8232 17.4049 14.7777C17.3204 14.6909 16.6684 15.0145 16.6673 15.1438C16.6668 15.2098 17.9134 17.4144 18.4456 18.2885C18.5553 18.4686 18.6452 18.6748 18.6454 18.7464C18.6457 18.8483 17.8474 18.8768 15 18.8768C12.3071 18.8768 11.3542 18.8452 11.3542 18.756C11.3542 18.6488 11.9708 17.5507 13.542 14.8604C13.81 14.4014 14.236 13.6626 14.4886 13.2186C14.7412 12.7747 14.9714 12.4109 15 12.4105C15.0286 12.41 15.2805 12.8092 15.5598 13.2978C15.839 13.7863 16.1084 14.2113 16.1585 14.2423C16.2506 14.2994 16.8765 13.9759 16.8732 13.8729C16.8723 13.8422 16.591 13.325 16.2482 12.7235C15.9055 12.1218 15.625 11.5937 15.625 11.5498C15.625 11.5059 18.8594 11.4699 22.8125 11.4699H30V9.69643V7.92294H29.1524H28.3048L28.7946 7.39851C29.8121 6.30917 30.2079 4.82716 29.8523 3.43799C29.757 3.06556 29.6394 2.72119 29.591 2.67279C29.5427 2.62438 29.354 2.66194 29.1718 2.75635C28.8683 2.91346 28.8475 2.95602 28.9254 3.26075C28.9722 3.44373 29.009 4.01605 29.0072 4.53245C29.0044 5.33917 28.9655 5.54479 28.731 5.99297C28.3873 6.6503 27.8583 7.18058 27.1597 7.56824C26.6652 7.84271 26.5227 7.87078 25.625 7.87026C24.7436 7.86984 24.5749 7.83792 24.0819 7.57826C23.3269 7.18068 22.6545 6.45157 22.3867 5.7405C22.0768 4.9174 22.1396 3.60752 22.5246 2.86328C23.563 0.856315 26.2327 0.359634 27.9352 1.85667C28.1406 2.03736 28.3495 2.18362 28.3992 2.18174C28.5355 2.17652 28.9583 1.80096 28.9583 1.68506C28.9583 1.48069 28.0803 0.796956 27.4086 0.478249C26.7716 0.175922 26.635 0.150884 25.625 0.150884C24.6117 0.150884 24.4798 0.175296 23.8309 0.483152C22.1288 1.29072 21.1287 2.97584 21.28 4.78188C21.3596 5.73341 21.6732 6.50279 22.2946 7.27092L22.822 7.92294H15.0009H7.1799L7.69458 7.30357C8.44458 6.40097 8.68885 5.70681 8.69385 4.46286C8.69604 3.90828 8.66354 3.42005 8.62156 3.37801C8.57958 3.33597 8.39208 3.34556 8.2049 3.39939L7.86458 3.49725L7.86052 4.27571C7.85271 5.76293 7.23448 6.85561 6.03125 7.50888C5.40333 7.8497 5.30698 7.87078 4.375 7.87046C3.54021 7.87026 3.31458 7.83239 2.9324 7.62833C2.28083 7.28052 1.64635 6.65855 1.29479 6.02301C1.0174 5.52163 0.989583 5.38111 0.989583 4.48028C0.989583 3.63882 1.02823 3.41045 1.24552 2.9676C1.8374 1.76142 3.03635 1.00571 4.375 0.995065C5.40646 0.986823 6.06448 1.26891 6.86854 2.06375L7.53917 2.72672L7.88958 2.55939L8.23989 2.39205L8.05229 2.06928C7.72292 1.5028 6.73948 0.677715 6.08417 0.418159C5.16094 0.0524033 3.90844 0.0182897 3.00583 0.334284ZM29.1667 9.58355C29.1667 9.9805 29.1382 10.3795 29.1034 10.4703C29.0462 10.6197 27.7068 10.6353 15 10.6353C2.29323 10.6353 0.95375 10.6197 0.896562 10.4703C0.861771 10.3795 0.833333 9.9805 0.833333 9.58355V8.86185H15H29.1667V9.58355Z" fill="white"/>
</svg>
