<svg width="21" height="31" viewBox="0 0 21 31" fill="none" xmlns="http://www.w3.org/2000/svg">
<path fill-rule="evenodd" clip-rule="evenodd" d="M8.55492 0.144942C8.3828 0.169284 7.86769 0.240012 7.41016 0.302172C6.09589 0.48061 4.213 1.07192 3.04373 1.67336C1.81583 2.3051 0.672636 3.34449 0.253809 4.21004L0.00105306 4.7324V15.284C0.00105306 27.1629 -0.0629966 26.1944 0.807933 27.4873C1.80654 28.9695 3.4491 29.5931 7.49184 30.0249C10.7764 30.3756 15.3109 29.9999 17.8127 29.1698C18.928 28.7997 20.0792 27.6218 20.5608 26.358C20.7519 25.8566 20.7598 25.4141 20.7598 15.284V4.7324L20.5059 4.21004C20.3662 3.92274 19.9198 3.35693 19.5138 2.95283C18.3014 1.74597 16.1665 0.797473 13.6142 0.331738C12.7668 0.177119 9.24632 0.0471568 8.55492 0.144942ZM13.2778 1.48636C15.5975 1.90362 17.508 2.68225 18.5479 3.63419C19.2002 4.23114 19.6645 5.0572 19.6645 5.62041C19.6645 6.65541 18.5922 7.83019 16.8947 8.65479C14.1952 9.96601 10.2355 10.3295 6.67724 9.59242C4.09616 9.05784 2.02769 7.86895 1.36644 6.54007C1.02574 5.85526 1.02522 5.38639 1.36466 4.70419C2.18448 3.05678 4.97033 1.74984 8.55492 1.33111C9.57168 1.21233 12.2426 1.30009 13.2778 1.48636ZM8.30592 2.43277C6.21419 2.90582 4.97523 3.64736 4.47347 4.72655C4.16324 5.39371 4.16324 5.84711 4.47347 6.51427C5.75968 9.28047 12.7648 9.86165 15.5843 7.43602C16.102 6.99066 16.533 6.16575 16.533 5.62041C16.533 5.07601 16.1019 4.25037 15.5843 3.80323C14.9819 3.28275 14.3479 2.96693 13.229 2.63001C12.4364 2.39129 12.0811 2.34846 10.6412 2.31764C9.45068 2.29225 8.78118 2.32527 8.30592 2.43277ZM12.8136 3.72968C16.0984 4.59345 16.1 6.61895 12.8165 7.51981C11.635 7.84388 9.12584 7.84388 7.94436 7.51981C6.41259 7.09952 5.47761 6.37961 5.47761 5.62041C5.47761 4.71777 6.64835 3.95461 8.60708 3.58049C9.68726 3.37427 11.7385 3.44698 12.8136 3.72968ZM1.87873 8.85903C2.25771 9.14633 2.61228 9.38139 2.66663 9.38139C2.72775 9.38139 2.76541 11.929 2.76541 16.0676C2.76541 21.7168 2.74288 22.7538 2.61989 22.7538C2.53988 22.7538 2.16435 22.6579 1.78537 22.5406L1.09637 22.3275V15.3321C1.09637 11.4846 1.11733 8.33667 1.14299 8.33667C1.16866 8.33667 1.49975 8.57174 1.87873 8.85903ZM19.6645 15.3267V22.3167L19.0184 22.5352C17.8734 22.9225 17.9955 23.6915 17.9955 16.0913V9.42893L18.3345 9.24527C18.5209 9.14424 18.8613 8.9003 19.0908 8.70306C19.3203 8.50592 19.5433 8.34273 19.5863 8.34064C19.6293 8.33845 19.6645 11.4822 19.6645 15.3267ZM5.03511 16.8872C5.04982 20.4585 5.04043 23.3806 5.01414 23.3806C4.98785 23.3806 4.72926 23.3297 4.43957 23.2675L3.91288 23.1543V16.5876V10.021L4.46054 10.2073L5.00819 10.3938L5.03511 16.8872ZM16.848 16.5813V23.1543L16.3213 23.2675C16.0316 23.3297 15.773 23.3806 15.7467 23.3806C15.7205 23.3806 15.7111 20.4581 15.7258 16.8862L15.7527 10.3918L16.2743 10.2082C16.5611 10.1071 16.8076 10.0208 16.8219 10.0164C16.8362 10.0119 16.848 12.9661 16.848 16.5813ZM6.93292 10.8527L7.45961 10.9658V17.3299V23.694L7.12058 23.6926C6.93417 23.6918 6.67589 23.6628 6.54685 23.6282L6.31214 23.5652V17.1523C6.31214 13.6253 6.33331 10.7395 6.35918 10.7395C6.38505 10.7395 6.64323 10.7904 6.93292 10.8527ZM14.4487 17.1523V23.5652L14.214 23.6282C14.0849 23.6628 13.8267 23.6918 13.6403 23.6926L13.3013 23.694V17.3274V10.9608L13.7446 10.8613C13.9885 10.8066 14.2467 10.7569 14.3183 10.7507C14.4214 10.7418 14.4487 12.0857 14.4487 17.1523ZM9.75455 17.5302V23.903H9.5068C9.37056 23.903 9.11238 23.8736 8.93306 23.8377L8.60708 23.7724V17.4649V11.1574H9.18081H9.75455V17.5302ZM12.1538 17.4649V23.7724L11.8278 23.8377C11.6485 23.8736 11.3903 23.903 11.2541 23.903H11.0063V17.5302V11.1574H11.5801H12.1538V17.4649ZM2.20075 23.9024C4.87707 24.7122 7.94238 25.0992 11.0585 25.0207C13.9833 24.947 16.2488 24.6023 18.718 23.8554C19.2015 23.7092 19.6121 23.5895 19.6307 23.5895C19.6493 23.5895 19.6645 23.9571 19.6645 24.4063C19.6645 26.5021 18.6358 27.8193 16.6393 28.2796C14.517 28.769 12.8402 28.9514 10.4326 28.955C7.99464 28.9586 6.78114 28.8337 4.43446 28.3378C3.45264 28.1303 3.13062 28.0128 2.6611 27.6902C1.6144 26.9712 1.09637 25.884 1.09637 24.4063C1.09637 23.9571 1.11222 23.5895 1.13152 23.5895C1.15092 23.5895 1.63202 23.7304 2.20075 23.9024Z" fill="white"/>
</svg>
