<svg width="30" height="31" viewBox="0 0 30 31" fill="none" xmlns="http://www.w3.org/2000/svg">
<path fill-rule="evenodd" clip-rule="evenodd" d="M25.935 0.258734C24.9952 0.548673 24.0677 1.65948 23.9029 2.69232L23.8356 3.11366L23.3642 2.75317C22.7155 2.25689 22.1916 2.12862 21.4648 2.28789C20.8922 2.41345 20.8837 2.42117 16.4084 6.89101L11.9254 11.3685H11.3523C10.4654 11.3685 10.0033 11.8346 10.0033 12.7291C10.0033 13.1162 10.07 13.2304 10.6488 13.8342L11.2942 14.5075L7.14474 18.669L2.99513 22.8304L3.04254 23.4022L3.08984 23.9739L2.64005 24.0356C1.56699 24.183 0.453811 25.1168 0.156763 26.1188C-0.201133 27.3263 0.0525717 28.3447 0.93038 29.224C1.80819 30.1033 2.82488 30.3575 4.03027 29.999C5.0306 29.7014 5.9628 28.5863 6.10992 27.5114L6.17149 27.0609L6.74225 27.1082L7.31301 27.1557L11.4673 22.999L15.6217 18.8424L16.307 19.5015L16.9922 20.1607L17.5787 20.1119C18.0744 20.0708 18.211 20.012 18.4603 19.7324C18.7112 19.4512 18.7554 19.3126 18.7554 18.8058V18.2101L23.2251 13.7195C27.6873 9.23651 27.695 9.22795 27.8204 8.65433C27.9794 7.92635 27.8513 7.40148 27.3559 6.75167L26.996 6.27951L27.4166 6.21208C28.4753 6.04259 29.5607 5.11589 29.8522 4.13273C30.0523 3.45777 30.0494 2.88342 29.8424 2.18529C29.6099 1.40085 28.7059 0.495339 27.9228 0.262386C27.2488 0.0618922 26.5769 0.0606402 25.935 0.258734ZM27.8493 1.18C28.258 1.35555 28.8097 1.9227 28.9597 2.32118C29.1247 2.75974 29.0932 3.72161 28.9004 4.12855C28.4787 5.01903 27.39 5.53723 26.4272 5.30584C25.4015 5.05932 24.5498 3.8217 24.7539 2.87403C24.9125 2.13739 25.484 1.37779 26.0487 1.15287C26.4341 0.999341 27.4653 1.01489 27.8493 1.18ZM26.4048 1.96633C25.9673 2.15492 25.632 2.68835 25.632 3.1957C25.632 3.60712 25.6854 3.72318 26.0364 4.07491C26.3899 4.42893 26.5018 4.48007 26.9236 4.48007C27.3279 4.48007 27.4695 4.42204 27.7955 4.12281C28.1555 3.79238 28.1846 3.72203 28.1846 3.18547C28.1846 2.67489 28.1457 2.56635 27.8587 2.27891C27.5087 1.92834 26.8311 1.78274 26.4048 1.96633ZM27.3004 3.0215C27.4487 3.29913 27.0708 3.74092 26.8175 3.58593C26.4509 3.36143 26.3934 3.1266 26.6529 2.91317C26.9167 2.69629 27.1472 2.7348 27.3004 3.0215ZM22.6132 3.29412C22.9922 3.54544 26.3325 6.86471 26.6847 7.3398C26.9111 7.64529 26.9864 7.86238 26.9864 8.20993C26.9864 8.63544 26.9341 8.7275 26.3405 9.34683L25.6945 10.0206L22.8994 7.22426L20.1043 4.42788L20.7729 3.77557C21.3871 3.17628 21.4787 3.12326 21.8986 3.12326C22.15 3.12326 22.4716 3.20018 22.6132 3.29412ZM22.298 7.87219L25.0576 10.638L21.6205 14.0822C19.7302 15.9764 18.1577 17.5263 18.1263 17.5263C18.0947 17.5263 17.0066 16.4695 15.7082 15.178C14.34 13.8171 13.2664 12.8296 13.1549 12.8296C12.91 12.8296 12.7123 13.0259 12.7123 13.2688C12.7123 13.376 13.8358 14.584 15.3171 16.0693C16.7552 17.5112 17.9218 18.7637 17.9218 18.8655C17.9218 19.0931 17.7257 19.3006 17.5109 19.3006C17.2947 19.3006 10.8369 12.8249 10.8369 12.6082C10.8369 12.2904 11.1245 12.1525 11.5023 12.2893C11.6888 12.3568 11.9087 12.4122 11.9909 12.4122C12.0731 12.4122 13.7809 10.7683 15.7859 8.75922C17.791 6.75011 19.4555 5.10629 19.4849 5.10629C19.5143 5.10629 20.7801 6.3509 22.298 7.87219ZM14.6908 18.5149L14.3778 18.8285L12.8453 17.2933L11.3128 15.7583L11.6179 15.4393L11.9229 15.1203L13.4634 16.6608L15.0038 18.2013L14.6908 18.5149ZM12.2735 17.9738L13.7595 19.4652L13.4412 19.7706L13.1228 20.0762L11.5934 18.5442L10.064 17.0122L10.3122 16.7474C10.4488 16.6018 10.6117 16.4826 10.674 16.4826C10.7364 16.4826 11.4562 17.1537 12.2735 17.9738ZM12.1902 21.0197L11.8772 21.3334L10.3448 19.7982L8.81221 18.2631L9.11728 17.9442L9.42235 17.6252L10.9628 19.1657L12.5032 20.7062L12.1902 21.0197ZM9.0928 24.1265C7.90408 25.3183 6.86488 26.2933 6.7833 26.2933C6.59503 26.2933 3.98317 23.7122 3.89732 23.4412C3.84647 23.2807 4.28064 22.7906 6.00552 21.0613L8.17779 18.8834L9.71586 20.4216L11.254 21.9598L9.0928 24.1265ZM3.62465 24.9548C4.61488 25.2045 5.45435 26.4519 5.25503 27.3775C5.0703 28.2353 4.36701 29.045 3.69717 29.1709C2.26329 29.4403 1.06562 28.6595 0.960179 27.3865C0.934652 27.0776 0.945071 26.6573 0.983413 26.4525C1.10032 25.8285 1.79444 25.1767 2.60514 24.9296C2.97992 24.8155 3.08244 24.818 3.62465 24.9548Z" fill="white"/>
</svg>
