<svg width="30" height="31" viewBox="0 0 30 31" fill="none" xmlns="http://www.w3.org/2000/svg">
<path fill-rule="evenodd" clip-rule="evenodd" d="M26.5911 0.272257C26.3153 0.370142 25.9777 0.621637 25.6864 0.946285C25.1003 1.59923 24.9005 2.32774 25.0864 3.13419C25.194 3.60139 25.1839 3.70418 24.9929 4.07912C24.8281 4.40262 24.738 4.48214 24.6028 4.42318C24.5061 4.38092 24.2798 4.32551 24.0999 4.30004C23.7863 4.25559 23.7535 4.28762 23.3126 5.07248L22.8525 5.89135L22.2676 5.85702C21.7594 5.82717 21.6674 5.85159 21.5648 6.0436C21.4023 6.3478 21.5154 6.63039 21.8524 6.76219C22.008 6.82303 22.7682 7.04332 23.5417 7.25172C24.3151 7.46012 25.6135 7.81461 26.4271 8.03939C28.1287 8.50951 28.4847 8.54092 28.6479 8.23537C28.8284 7.89757 28.6751 7.63032 28.2229 7.49466C27.7641 7.35691 27.761 7.35096 27.9688 6.98708C28.1778 6.62079 28.1684 6.58552 27.7648 6.21506L27.4046 5.88457L27.6665 5.4444C27.8106 5.2024 27.998 5.00433 28.083 5.00433C28.3853 5.00433 29.0455 4.58775 29.3992 4.17388C30.28 3.14296 30.182 1.71235 29.1679 0.798936C28.406 0.112699 27.5399 -0.0642872 26.5911 0.272257ZM28.3022 1.34774C29.2303 1.91459 29.1692 3.43004 28.1997 3.89087C27.998 3.98677 27.738 4.06514 27.6219 4.06514C27.3448 4.06514 27.1321 4.28877 26.8171 4.91156C26.6751 5.19217 26.5068 5.42175 26.4428 5.42175C26.379 5.42175 26.1701 5.32481 25.9787 5.20636L25.6308 4.99087L25.9519 4.42099C26.2061 3.96955 26.2581 3.78119 26.2019 3.51467C26.0274 2.68745 26.025 2.20856 26.1937 1.88172C26.4285 1.42694 26.9296 1.14393 27.5 1.14393C27.7816 1.14393 28.1019 1.22533 28.3022 1.34774ZM27.0505 2.34683C26.954 2.5497 26.875 2.75225 26.875 2.79712C26.875 2.87852 27.5389 3.2303 27.6926 3.2303C27.7643 3.2303 28.125 2.57318 28.125 2.44253C28.125 2.3676 27.465 1.97888 27.337 1.97846C27.276 1.97825 27.1471 2.14397 27.0505 2.34683ZM25.625 6.15537C27.0417 6.93406 26.9103 6.84547 26.8334 6.97007C26.7708 7.0715 24.0929 6.41928 23.9268 6.26202C23.834 6.17426 24.2511 5.39994 24.3592 5.45953C24.3966 5.48009 24.9661 5.79326 25.625 6.15537ZM20.6721 7.97146C20.4529 8.30654 20.6122 8.61491 21.069 8.74013C21.2545 8.79095 22.7344 9.17529 24.3575 9.59407L27.3088 10.3557L27.5222 10.1418C27.772 9.89159 27.7145 9.43545 27.4217 9.34477C26.8583 9.17029 21.1154 7.71756 20.9892 7.71756C20.906 7.71756 20.7634 7.83183 20.6721 7.97146ZM2.17917 9.17467C1.19573 9.35165 0.533437 9.87552 0.159479 10.7722C0.020729 11.1048 0 12.2503 0 19.5725C0 25.8767 0.0317708 28.0982 0.126667 28.4199C0.295729 28.9931 1.15865 29.8576 1.73083 30.027C2.0301 30.1156 3.19385 30.1531 5.585 30.1516C8.6751 30.1495 9.05125 30.1307 9.42708 29.959C10.0382 29.6799 10.44 29.3013 10.7314 28.7298C10.9787 28.2446 10.991 28.1281 11.0243 25.9642L11.0591 23.7051L11.8929 23.6673C12.9474 23.6193 13.0208 23.537 13.0208 22.4045V21.5825L15.3906 21.6436C18.2199 21.7166 18.246 21.7166 22.3398 21.6431C24.1136 21.6113 25.6722 21.6122 25.8033 21.6452C26.0257 21.7011 26.0418 21.7589 26.0432 22.5118C26.0442 22.9556 26.0892 23.3891 26.1434 23.4751C26.2959 23.7174 29.3899 23.7665 29.7466 23.5323L30 23.366V19.6712C30 16.4515 29.979 15.9554 29.8364 15.8125C29.7008 15.6768 29.3793 15.6485 27.9741 15.6485C26.7092 15.6485 26.2469 15.6831 26.1633 15.7839C26.1017 15.8584 26.0373 16.2927 26.0204 16.7492L25.9896 17.5791L24.3915 17.608C23.5125 17.6239 22.8103 17.6004 22.831 17.5558C22.8518 17.5112 23.0293 17.1598 23.2254 16.7748C23.5804 16.0781 23.581 16.0739 23.3796 15.8506C23.2682 15.7272 22.9992 15.5353 22.7816 15.4242L22.3861 15.2219L22.8336 14.3788C23.0799 13.9151 23.3354 13.5147 23.4016 13.489C23.4677 13.4633 23.8478 13.5396 24.2461 13.6584C25.1671 13.9331 25.4818 13.934 25.6271 13.6618C25.776 13.383 25.6779 13.097 25.3886 12.9666C25.2608 12.9091 24.5 12.6855 23.6979 12.4699C22.8958 12.2542 21.5885 11.895 20.7929 11.6717C19.9972 11.4484 19.2372 11.2656 19.1039 11.2656C18.6472 11.2656 18.5217 11.973 18.9394 12.1929C19.0357 12.2437 19.3842 12.3451 19.7135 12.4182C20.0429 12.4913 20.3125 12.5905 20.3125 12.6388C20.3125 12.687 20.1843 12.9565 20.0276 13.2376L19.7427 13.7489L19.2337 13.4905C18.4753 13.1054 18.3384 13.1826 17.7178 14.3463C17.4261 14.8931 17.1875 15.4353 17.1875 15.5511C17.1875 15.6908 17.3625 15.8705 17.7083 16.0859C18.4416 16.5425 18.4043 16.7038 17.4867 17.0431C17.2216 17.1411 16.9214 17.3136 16.8195 17.4263C16.6491 17.615 16.491 17.6313 14.8276 17.6313H13.0208V16.8038C13.0208 15.7189 12.9512 15.6485 11.8776 15.6485H11.0618L11.023 13.3266C10.9875 11.2042 10.9652 10.9688 10.7632 10.5873C10.4433 9.98311 10.0661 9.61452 9.50448 9.35739C9.03594 9.14284 8.84635 9.13011 5.83333 9.10997C4.08594 9.09838 2.44156 9.12739 2.17917 9.17467ZM19.747 9.65554C19.5494 9.8536 19.5402 10.0188 19.7135 10.256C19.8317 10.4175 21.6354 10.9409 25.3799 11.8999C26.4761 12.1807 26.7025 12.1155 26.6459 11.5354C26.6151 11.2186 26.5955 11.2081 25.4167 10.8799C22.9844 10.2029 20.2524 9.49159 20.0841 9.49159C19.9888 9.49159 19.8371 9.56537 19.747 9.65554ZM3.95833 19.614V29.1103H3.48958H3.02083V19.614V10.1177H3.48958H3.95833V19.614ZM5.9375 19.614V29.1103H5.46875H5V19.614V10.1177H5.46875H5.9375V19.614ZM7.99531 19.6401L8.02198 29.1103H7.50052H6.97917V19.6836C6.97917 14.4989 7.0126 10.2233 7.05354 10.1824C7.09437 10.1414 7.31708 10.1219 7.54833 10.1389L7.96875 10.1699L7.99531 19.6401ZM1.93656 28.979C1.84115 29.0746 1.43604 28.7655 1.24479 28.4514C1.04875 28.1294 1.0424 27.851 1.04208 19.5756L1.04167 11.0324L1.48438 10.6011L1.92708 10.1699L1.95365 19.5526C1.96833 24.7131 1.96062 28.9549 1.93656 28.979ZM9.4424 10.4793C9.56229 10.5634 9.73677 10.7936 9.83021 10.9909C9.98271 11.3129 10 12.1937 10 19.6611C10 26.5962 9.97573 28.0195 9.85365 28.2546C9.65281 28.6412 9.20604 29.0427 9.07021 28.9586C8.99187 28.9101 8.95833 26.1094 8.95833 19.6079C8.95833 9.72837 8.93729 10.1249 9.4424 10.4793ZM21.9531 13.2597C22.0821 13.3081 22.1875 13.3729 22.1875 13.4039C22.1875 13.4503 21.5892 14.5711 21.499 14.6938C21.4842 14.7139 21.2829 14.6239 21.0517 14.4937L20.6314 14.2571L20.9562 13.6463C21.3005 12.9993 21.2797 13.0073 21.9531 13.2597ZM20.6218 15.3987C21.5402 15.8927 22.2917 16.3172 22.2917 16.3421C22.2917 16.367 22.1965 16.5742 22.0802 16.8026C21.9083 17.1401 21.8352 17.1998 21.6896 17.1216C20.3088 16.3796 18.5717 15.4043 18.4929 15.3267C18.3856 15.221 18.7122 14.5006 18.8673 14.5006C18.9139 14.5006 19.7033 14.9048 20.6218 15.3987ZM11.9792 19.6662V22.6403H11.5104H11.0417V19.6662V16.6921H11.5104H11.9792V19.6662ZM28.9583 19.6662V22.6403H27.9688H26.9792V19.6662V16.6921H27.9688H28.9583V19.6662ZM19.6927 17.1644C20.0453 17.347 20.0649 17.4351 19.8323 17.7907C19.7129 17.9732 19.6845 18.1602 19.7336 18.4393C19.9275 19.5389 19.9186 19.76 19.6654 20.1358C19.3598 20.5893 18.9449 20.7964 18.3595 20.7875C17.5391 20.7751 16.9802 20.162 16.9796 19.2733C16.9791 18.604 17.4317 18.0858 18.1808 17.8984C18.6094 17.7911 18.7335 17.7037 18.9062 17.3874C19.1379 16.963 19.2452 16.9325 19.6927 17.1644ZM15.9657 19.1221C15.92 19.5289 15.9985 19.9867 16.1978 20.4749C16.2669 20.6442 16.1539 20.6576 14.6466 20.6576H13.0208V19.6662V18.6748H14.5184H16.016L15.9657 19.1221ZM23.9583 19.6662V20.6576H22.2805C20.8644 20.6576 20.6117 20.6342 20.6602 20.5076C20.8526 20.0052 20.9489 19.4139 20.8941 19.0705L20.8308 18.6748H22.3946H23.9583V19.6662ZM26.0196 19.6401L25.9896 20.6054L25.4948 20.6372L25 20.669V19.6719V18.6748H25.5248H26.0495L26.0196 19.6401ZM17.9167 19.3531V19.8227H18.4375H18.9583V19.3531V18.8835H18.4375H17.9167V19.3531Z" fill="white"/>
</svg>
