<svg width="29" height="31" viewBox="0 0 29 31" fill="none" xmlns="http://www.w3.org/2000/svg">
<path fill-rule="evenodd" clip-rule="evenodd" d="M5.63797 0.544099C5.55823 0.640243 5.52748 1.08766 5.54697 1.86392C5.57178 2.84853 5.60607 3.057 5.75898 3.15335C5.89178 3.23708 5.99101 3.23708 6.12381 3.15335C6.27672 3.057 6.31101 2.84853 6.33582 1.86392C6.36647 0.647237 6.29955 0.398682 5.9414 0.398682C5.84081 0.398682 5.70426 0.464135 5.63797 0.544099ZM14.5929 1.54698C14.4135 1.72664 14.3844 1.89492 14.3844 2.75437C14.3844 3.85465 14.4818 4.15676 14.8363 4.15676C15.2576 4.15676 15.3225 3.97376 15.3225 2.78621C15.3225 1.90734 15.2873 1.63102 15.1588 1.5022C14.9442 1.28736 14.8442 1.2953 14.5929 1.54698ZM0.129564 2.18972C0.0415894 2.27783 0 2.69863 0 3.50129C0 4.6569 0.00573306 4.68581 0.257461 4.80064C0.455299 4.89094 0.552654 4.88687 0.677528 4.78311C0.811574 4.67172 0.834922 4.4264 0.810948 3.38458C0.781762 2.1226 0.781449 2.12113 0.520445 2.09055C0.376705 2.07374 0.20086 2.11832 0.129564 2.18972ZM10.0034 3.45212C8.84497 4.03817 8.98005 5.78202 10.2126 6.15178C11.6963 6.59701 12.7798 4.94951 11.7648 3.7917C11.4927 3.48135 10.9509 3.21985 10.5759 3.21787C10.5164 3.21755 10.2588 3.32299 10.0034 3.45212ZM18.0198 4.34654C17.7168 4.61775 17.687 4.70408 17.6393 5.4485L17.5876 6.25617L16.8459 6.62697C16.4381 6.83095 15.849 7.18901 15.537 7.42264L14.9697 7.84761L14.3717 7.51586C13.2475 6.89212 12.8733 7.06739 12.0579 8.59912C11.3686 9.89388 11.3122 10.0677 11.4575 10.4504L11.5649 10.7334H8.65255C5.84696 10.7334 5.73616 10.741 5.62869 10.9422C5.54947 11.0905 5.54947 11.2114 5.62869 11.3597C5.73855 11.5654 5.84696 11.5685 12.8246 11.5685H19.9089V12.8739V14.1795L10.3974 14.1527L0.885998 14.1261V12.8734V11.6207L2.57752 11.592C4.13938 11.5656 4.27749 11.5475 4.37923 11.3571C4.45688 11.2119 4.45646 11.0893 4.37787 10.9422C4.27259 10.7453 4.16137 10.7336 2.41982 10.7367C1.13283 10.739 0.523156 10.7786 0.407872 10.8672C0.0551405 11.1384 -5.7263e-08 11.4404 0.000104178 13.1014L0.000208356 14.7525L4.0612 19.0325L8.1223 23.3125L8.12627 25.6825C8.12877 27.1167 8.1738 28.1481 8.24051 28.2947C8.30409 28.4345 8.73406 28.754 9.2568 29.0502C9.75515 29.3324 10.5138 29.7659 10.9425 30.0134C11.8383 30.5303 12.1042 30.5643 12.4608 30.207C12.704 29.9636 12.7167 29.8888 12.7167 28.7009C12.7167 27.7037 12.6835 27.4177 12.5529 27.2868C12.345 27.0786 12.1503 27.0786 11.9423 27.2868C11.8166 27.4128 11.7786 27.6795 11.7786 28.4351C11.7786 28.9765 11.7576 29.4194 11.7319 29.4194C11.7062 29.4194 11.0964 29.0846 10.3768 28.6754L9.06845 27.9314L9.06376 25.622C9.06052 24.0576 9.01852 23.2206 8.93346 23.0273C8.86435 22.8704 7.17794 21.0284 5.18569 18.934C3.19355 16.8397 1.56353 15.1007 1.56353 15.0697C1.56353 15.0388 5.55437 15.0134 10.4322 15.0134C15.4823 15.0134 19.2859 15.0529 19.2661 15.1051C19.247 15.1555 17.8946 16.6001 16.2609 18.3151C14.6271 20.0303 12.9957 21.744 12.6356 22.1236C12.27 22.5089 11.9362 22.9697 11.8797 23.1669C11.8241 23.3611 11.7786 23.9945 11.7786 24.5744C11.7786 25.4635 11.8085 25.6561 11.9692 25.8017C12.2134 26.0231 12.331 26.0194 12.5442 25.7836C12.6824 25.6306 12.7167 25.3676 12.7167 24.4609V23.3292L13.3694 22.6423C13.7285 22.2645 14.6348 21.3101 15.3836 20.5212L16.745 19.087L17.1804 19.2583L17.6157 19.4295V20.0434C17.6157 20.381 17.6811 20.814 17.761 21.0056C18.019 21.6238 18.2266 21.6945 19.7862 21.6945H21.1806L21.535 21.3395C21.8711 21.0029 21.8894 20.9467 21.8894 20.2466V19.5086L22.6451 19.1565C23.0607 18.9629 23.654 18.6025 23.9635 18.3556L24.5263 17.9069L25.1903 18.2348C26.3391 18.8022 26.6437 18.6582 27.4779 17.1535C28.3719 15.5407 28.3358 15.1003 27.2621 14.5277L26.6449 14.1985L26.6385 12.8907L26.632 11.5829L27.2881 11.205C27.9956 10.7975 28.198 10.488 28.1078 9.95047C28.0364 9.52476 26.9228 7.53026 26.6493 7.3385C26.3113 7.10132 25.8811 7.15258 25.1686 7.51513L24.5179 7.84615L24.0636 7.45573C23.8136 7.24099 23.2223 6.87302 22.7493 6.63793L21.8894 6.21045V5.5438C21.8894 4.77966 21.7129 4.35677 21.319 4.17712C21.1521 4.10091 20.5206 4.05237 19.6972 4.05237C18.3654 4.05237 18.3445 4.05602 18.0198 4.34654ZM11.0936 4.32076C11.2874 4.51493 11.3094 5.00243 11.1323 5.17979C11.0635 5.24869 10.8618 5.30506 10.6841 5.30506C10.2857 5.30506 10.1108 5.14169 10.1108 4.76964C10.1108 4.41962 10.3567 4.15676 10.6841 4.15676C10.8192 4.15676 11.0035 4.23056 11.0936 4.32076ZM3.26266 4.57756C2.45484 4.9875 2.17351 6.05918 2.68874 6.76414C2.93307 7.09829 3.50428 7.39257 3.90881 7.39257C4.31835 7.39257 4.88539 7.09714 5.13764 6.75234C5.46077 6.31066 5.48589 5.63494 5.19486 5.21028C4.65858 4.42745 3.9898 4.20843 3.26266 4.57756ZM21.0555 5.83767C21.0841 6.27402 21.1702 6.70651 21.2468 6.79859C21.3235 6.89076 21.7723 7.15331 22.2444 7.38224C22.7166 7.61106 23.329 7.98551 23.6056 8.21444C24.2924 8.78285 24.4959 8.81563 25.2068 8.4727C25.5321 8.31591 25.8777 8.15212 25.9748 8.1089C26.1179 8.04522 26.2517 8.21058 26.6784 8.97858C26.9682 9.50012 27.2053 10.0073 27.2053 10.1055C27.2053 10.2137 27.0365 10.3604 26.7769 10.4776C26.5414 10.584 26.213 10.7979 26.0473 10.9529L25.746 11.2347V12.855V14.4754L26.0445 14.7744C26.2086 14.9388 26.537 15.1609 26.7741 15.2679C27.0114 15.375 27.2053 15.5312 27.2053 15.6149C27.2053 15.8695 26.2245 17.6211 26.0814 17.6222C26.0078 17.6228 25.7161 17.5058 25.4333 17.3622C24.6541 16.9668 24.2784 17.0107 23.5193 17.5863C23.1675 17.853 22.5447 18.2252 22.1352 18.4136C21.2082 18.8399 21.0555 19.0461 21.0555 19.8709C21.0555 20.8318 20.9978 20.8728 19.699 20.8372L18.6059 20.8071L18.553 20.0242C18.4891 19.0811 18.3758 18.8582 17.8297 18.6007L17.4115 18.4036L18.1475 17.5959L18.8834 16.7881H19.6886C20.7248 16.7881 21.746 16.4662 21.9195 16.085C22.022 15.8597 22.0061 15.7979 21.8028 15.6332C21.5746 15.448 21.5534 15.4484 21.0938 15.6457C20.8333 15.7575 20.4313 15.8793 20.2005 15.9162C19.8115 15.9785 19.7889 15.969 19.8889 15.7855C19.9481 15.6766 20.1879 15.4019 20.4218 15.1749L20.847 14.7623V13.1181C20.847 11.36 20.7784 11.0396 20.3616 10.8493C20.2202 10.7848 19.5493 10.7334 18.8489 10.7334C17.438 10.7334 17.3971 10.6862 18.3554 10.1638C19.5088 9.53509 20.8198 9.7159 21.833 10.6433C22.7374 11.4711 23.0675 12.74 22.6711 13.8651C22.4622 14.4581 22.474 14.671 22.7232 14.8047C23.0448 14.977 23.3104 14.7686 23.4871 14.2054C23.9776 12.6416 23.6432 11.1713 22.5477 10.0741C20.9533 8.4774 18.3468 8.54828 16.8376 10.2295L16.3851 10.7334H14.8073C13.4236 10.7334 13.1781 10.7071 12.8116 10.5199C12.5819 10.4025 12.3692 10.2421 12.3391 10.1636C12.2859 10.0247 13.018 8.5606 13.3162 8.20943C13.4538 8.04752 13.5175 8.06182 14.1633 8.39963C14.9932 8.83379 15.2035 8.81166 15.9252 8.21413C16.1957 7.99021 16.8013 7.61899 17.271 7.38913C18.3942 6.8394 18.5538 6.62989 18.5538 5.70519V4.98531L19.7786 5.01465L21.0034 5.04408L21.0555 5.83767ZM4.31741 5.50466C4.77355 6.00939 4.15502 6.7775 3.59058 6.40712C3.11652 6.09603 3.33865 5.30506 3.90006 5.30506C4.03046 5.30506 4.21818 5.39484 4.31741 5.50466ZM7.5142 6.80756C7.43446 6.90371 7.40371 7.35113 7.4232 8.12738C7.44801 9.112 7.4823 9.32047 7.63521 9.41682C7.76801 9.50054 7.86724 9.50054 8.00004 9.41682C8.15295 9.32047 8.18724 9.112 8.21205 8.12738C8.2427 6.9107 8.17578 6.66215 7.81763 6.66215C7.71704 6.66215 7.58049 6.7276 7.5142 6.80756Z" fill="white"/>
</svg>
