<svg width="30" height="30" viewBox="0 0 30 30" fill="none" xmlns="http://www.w3.org/2000/svg">
<path fill-rule="evenodd" clip-rule="evenodd" d="M6.53852 0.195012C6.36576 0.301742 6.10663 0.516453 5.96266 0.671962L5.70091 0.954839L5.67327 11.2607C5.64573 21.4983 5.64699 21.5671 5.8565 21.6787C6.00653 21.7587 6.12778 21.759 6.27677 21.6796C6.48397 21.5692 6.48617 21.4613 6.48617 11.5706C6.48617 4.1852 6.518 1.5036 6.60814 1.30682C6.68531 1.13818 6.8678 1.00039 7.10547 0.931492C7.35539 0.859053 9.95291 0.833204 14.8775 0.854258C21.98 0.884693 22.2829 0.893865 22.4945 1.0845C22.7013 1.27086 22.7148 1.38728 22.7148 2.98667C22.7148 3.92369 22.6859 4.69029 22.6505 4.69029C22.6152 4.69029 22.4032 4.58784 22.1793 4.46266L21.7725 4.23502V3.21931C21.7725 2.43499 21.735 2.16639 21.608 2.03986C21.466 1.89863 21.0304 1.87612 18.4356 1.87612C16.2356 1.87612 15.3939 1.90968 15.302 2.00119C15.1207 2.18161 15.1207 13.2442 15.302 13.4247C15.3939 13.5162 16.2356 13.5497 18.4356 13.5497C21.0304 13.5497 21.466 13.5272 21.608 13.386C21.7404 13.2541 21.7725 12.9619 21.7725 11.8875V10.5529L22.2436 10.7216L22.7148 10.8902V11.6757C22.7148 12.5245 22.8823 12.9244 23.2381 12.9244C23.547 12.9244 23.6011 12.743 23.6571 11.5183C23.7184 10.177 23.7517 10.1454 24.6462 10.5811C25.2769 10.8883 25.6429 10.8732 26.2346 10.5158C26.4142 10.4073 26.6215 10.3186 26.6953 10.3186C26.8064 10.3186 27.898 10.7974 28.0462 10.9111C28.0704 10.9296 27.9802 11.0615 27.8457 11.204C27.6355 11.4267 27.618 11.4999 27.7209 11.7247C27.921 12.1619 28.2323 12.0537 29.0148 11.2746C29.4081 10.8832 29.7297 10.48 29.7297 10.3786C29.7297 10.107 28.3816 8.75521 28.1106 8.75521C27.6265 8.75521 27.4983 9.16952 27.863 9.5559C28.1771 9.8887 28.0342 9.97062 27.6027 9.70515C27.1306 9.41477 26.339 9.40925 25.9082 9.69327C25.5118 9.95457 25.2575 9.95457 24.8611 9.69327C24.6721 9.56861 24.3699 9.48596 24.1021 9.48554L23.6571 9.48481V7.35177C23.6571 5.38466 23.6722 5.21081 23.8504 5.11575C23.9958 5.03831 24.1633 5.07615 24.5262 5.26845C25.0984 5.57175 25.6824 5.59604 26.1176 5.33474C26.6486 5.0158 26.7598 5.00954 27.2533 5.27105C27.5159 5.4102 27.8314 5.52412 27.9543 5.52412C28.1722 5.52412 28.171 5.53215 27.9068 5.84483C27.7577 6.02119 27.6357 6.22287 27.6357 6.29302C27.6357 6.48803 27.8624 6.67064 28.1045 6.67064C28.3586 6.67064 29.7297 5.34235 29.7297 5.09616C29.7297 4.91959 28.2497 3.43955 28.0732 3.43955C27.918 3.43955 27.6357 3.74181 27.6357 3.90806C27.6357 3.9855 27.7577 4.19322 27.9068 4.36958C28.2351 4.75814 28.188 4.76607 27.5532 4.42972C26.9335 4.1013 26.5947 4.10192 25.8926 4.43253L25.3333 4.69592L24.8363 4.43253C24.563 4.28766 24.1892 4.16915 24.0057 4.16915H23.6722L23.6385 2.61291C23.6012 0.890738 23.544 0.724702 22.8205 0.234515L22.4744 0L14.6635 0.000417083C7.2263 0.00072977 6.83754 0.01011 6.53852 0.195012ZM7.7164 1.98868C7.54553 2.08781 7.53317 2.47168 7.53317 7.69729C7.53317 11.9156 7.56417 13.3304 7.65881 13.4247C7.83817 13.6032 13.8243 13.6032 14.0037 13.4247C14.0982 13.3305 14.1293 11.9277 14.1293 7.75159C14.1293 2.84701 14.1103 2.18474 13.9648 2.03986C13.8229 1.89863 13.3953 1.87653 10.85 1.87924C9.04149 1.88122 7.82874 1.92354 7.7164 1.98868ZM9.41779 7.76504V12.7159H9.05992C8.31623 12.7159 8.37078 13.1131 8.37078 7.70177V2.81418H8.89428H9.41779V7.76504ZM11.3024 7.77098V12.7279L10.8574 12.6958L10.4124 12.6638L10.3852 7.73898L10.358 2.81418H10.8302H11.3024V7.77098ZM13.187 7.77098V12.7279L12.742 12.6958L12.2971 12.6638L12.2698 7.73898L12.2426 2.81418H12.7148H13.187V7.77098ZM17.0358 7.73898L17.0086 12.6638H16.5374H16.0663L16.0391 7.73898L16.0118 2.81418H16.5374H17.063L17.0358 7.73898ZM18.9204 7.73898L18.8932 12.6638H18.4221H17.9509L17.9237 7.73898L17.8965 2.81418H18.4221H18.9476L18.9204 7.73898ZM20.8302 7.76504V12.7159H20.4723C19.7288 12.7159 19.7832 13.1055 19.7832 7.77129C19.7832 5.12128 19.8146 2.92184 19.853 2.8837C19.8913 2.84544 20.1269 2.81418 20.3765 2.81418H20.8302V7.76504ZM0.168001 3.3175C-0.141913 3.65832 0.0201636 4.06492 0.465875 4.06492C0.906769 4.06492 1.08874 3.60548 0.772543 3.2906C0.556755 3.07589 0.380439 3.08371 0.168001 3.3175ZM3.76719 5.30962C3.58083 5.65628 3.80415 5.96074 4.21584 5.92102C4.52083 5.89163 4.5492 5.85786 4.5492 5.52412C4.5492 5.19038 4.52083 5.15661 4.21584 5.12722C3.96602 5.10304 3.85368 5.14879 3.76719 5.30962ZM22.4269 5.49859L22.7148 5.54778V7.7247C22.7148 9.27573 22.6808 9.90173 22.5963 9.90173C22.531 9.90173 22.319 9.80406 22.1251 9.68472L21.7725 9.46782V7.38054C21.7725 5.4325 21.7847 5.29857 21.9557 5.37132C22.0564 5.41426 22.2685 5.47149 22.4269 5.49859ZM1.02068 7.24827C0.916821 7.47528 0.931479 7.54532 1.12319 7.73606C1.31479 7.92691 1.38515 7.9415 1.61319 7.8381C1.78699 7.75931 1.87933 7.6335 1.87933 7.47539C1.87933 6.95091 1.2348 6.78049 1.02068 7.24827ZM2.88143 9.02318C2.79096 9.11334 2.71694 9.25071 2.71694 9.32847C2.71694 9.40622 2.79096 9.5436 2.88143 9.63375C3.19773 9.94853 3.65925 9.76738 3.65925 9.32847C3.65925 8.88956 3.19773 8.70841 2.88143 9.02318ZM0.159206 10.8993C-0.15699 11.2142 0.0249798 11.6736 0.465875 11.6736C0.746473 11.6736 0.937028 11.4839 0.937028 11.2046C0.937028 10.7657 0.475507 10.5845 0.159206 10.8993ZM3.85786 12.8079C3.64302 12.9811 3.62909 13.0361 3.73934 13.277C3.8742 13.5716 4.25217 13.6474 4.47591 13.4247C4.66825 13.2332 4.62543 12.8401 4.39906 12.7196C4.13637 12.5796 4.14223 12.5786 3.85786 12.8079ZM22.8778 14.3026C22.7421 14.4954 22.7148 14.9233 22.7148 16.8562C22.7148 18.2803 22.6756 19.1781 22.6136 19.1781C22.558 19.1781 22.346 19.0991 22.1425 19.0025L21.7725 18.8268V17.8112C21.7725 17.027 21.735 16.7584 21.608 16.6319C21.466 16.4906 21.0304 16.4681 18.4356 16.4681C16.2356 16.4681 15.3939 16.5017 15.302 16.5932C15.1207 16.7736 15.1207 27.8363 15.302 28.0167C15.3939 28.1082 16.2356 28.1418 18.4356 28.1418C21.0304 28.1418 21.466 28.1192 21.608 27.978C21.7406 27.8459 21.7725 27.5523 21.7725 26.4629C21.7725 25.1594 21.7796 25.1156 21.975 25.2197C22.0864 25.279 22.2984 25.3276 22.4461 25.3276H22.7148V27.0312C22.7148 28.6306 22.7013 28.747 22.4945 28.9334C22.2829 29.124 21.98 29.1332 14.8775 29.1636C7.28838 29.196 6.81629 29.1748 6.62783 28.7922C6.57872 28.6924 6.51496 27.3729 6.48617 25.86C6.43916 23.3875 6.41528 23.0975 6.25059 22.9942C6.11699 22.9104 6.01774 22.9105 5.88414 22.9944C5.71662 23.0998 5.70091 23.3648 5.70091 26.0891V29.0684L6.0549 29.432C6.24965 29.6319 6.53244 29.8464 6.68342 29.9086C6.87461 29.9874 9.32963 30.0133 14.7764 29.9938C22.4875 29.9662 22.5988 29.9628 22.8839 29.7508C23.5743 29.2377 23.5999 29.1451 23.6571 26.9619C23.7089 24.9817 23.7117 24.9625 23.9467 24.9292C24.0771 24.9108 24.3418 24.9929 24.5349 25.1116C24.9997 25.3976 25.7946 25.4012 26.2223 25.1191C26.618 24.8582 26.8112 24.8581 27.2406 25.1187C27.4291 25.2331 27.7172 25.327 27.8806 25.3272L28.1779 25.3276L27.9068 25.6483C27.7577 25.8246 27.6357 26.0324 27.6357 26.1098C27.6357 26.2761 27.918 26.5783 28.0732 26.5783C28.2529 26.5783 29.7297 25.0967 29.7297 24.9163C29.7297 24.6727 28.3522 23.3472 28.099 23.3472C27.8617 23.3472 27.6357 23.5314 27.6357 23.7248C27.6357 23.795 27.7577 23.9967 27.9068 24.173C28.2205 24.5442 28.0761 24.5885 27.5692 24.2766C27.1035 23.99 26.3873 23.99 25.8995 24.2766C25.441 24.5459 25.2876 24.5476 24.8664 24.2885C24.6829 24.1756 24.3476 24.0692 24.1211 24.0519L23.7094 24.0205L23.6812 21.8676C23.6536 19.7747 23.6589 19.7127 23.8681 19.6466C24.0011 19.6046 24.2203 19.6592 24.443 19.79C25.065 20.1553 25.4485 20.1694 26.157 19.853L26.7905 19.57L27.1377 19.7739C27.3286 19.886 27.6131 20.0098 27.7697 20.0489C28.1091 20.1338 28.1256 20.2283 27.8451 20.4809C27.4846 20.8057 27.6398 21.2627 28.1106 21.2627C28.3816 21.2627 29.7297 19.9109 29.7297 19.6393C29.7297 19.5379 29.4081 19.1346 29.0148 18.7432C28.2323 17.9641 27.921 17.8559 27.7209 18.2932C27.618 18.518 27.6355 18.5912 27.8457 18.8139C28.1837 19.172 28.029 19.2607 27.5418 18.9882C27.0359 18.7051 26.4417 18.6982 25.9332 18.9696C25.4422 19.2316 25.2162 19.2317 24.7851 18.97C24.5966 18.8556 24.2657 18.7618 24.0497 18.7616L23.6571 18.7612V16.5798C23.6571 14.7358 23.6316 14.3731 23.4926 14.2346C23.2651 14.0082 23.0697 14.0298 22.8778 14.3026ZM1.15324 14.6615C1.0343 14.7445 0.937028 14.9007 0.937028 15.0089C0.937028 15.4598 1.69632 15.6273 1.83054 15.2061C1.98718 14.7148 1.5644 14.3749 1.15324 14.6615ZM3.76761 16.6697C3.6069 16.9687 3.63244 17.0712 3.91398 17.2549C4.23542 17.4646 4.60155 17.3045 4.60155 16.9544C4.60155 16.4815 3.98246 16.2702 3.76761 16.6697ZM7.65881 16.5932C7.56417 16.6874 7.53317 18.1025 7.53317 22.3221C7.53317 27.7558 7.53935 27.9292 7.73567 28.0339C7.86141 28.1009 9.04903 28.1418 10.8693 28.1418C13.3942 28.1418 13.8231 28.119 13.9648 27.978C14.1103 27.8331 14.1293 27.1709 14.1293 22.2663C14.1293 18.0901 14.0982 16.6873 14.0037 16.5932C13.8243 16.4147 7.83817 16.4147 7.65881 16.5932ZM9.41779 22.2528V27.2037H8.89428H8.37078V22.3136C8.37078 18.4991 8.39957 17.412 8.50166 17.371C8.57369 17.3421 8.80927 17.3147 9.02516 17.3102L9.41779 17.302V22.2528ZM11.3024 22.2528V27.2037H10.8312H10.3601V22.3223C10.3601 19.6375 10.3915 17.4096 10.4299 17.3715C10.4683 17.3332 10.6803 17.302 10.9011 17.302H11.3024V22.2528ZM13.187 22.2528V27.2037H12.7159H12.2447V22.3223C12.2447 19.6375 12.2761 17.4096 12.3145 17.3715C12.3529 17.3332 12.5649 17.302 12.7857 17.302H13.187V22.2528ZM17.0358 22.2789L17.063 27.2037H16.5385H16.0139V22.3223C16.0139 19.6375 16.0475 17.4074 16.0887 17.3666C16.1297 17.3256 16.3536 17.3061 16.586 17.3231L17.0086 17.3541L17.0358 22.2789ZM18.9204 22.2789L18.9476 27.2037H18.4231H17.8985V22.3223C17.8985 19.6375 17.9322 17.4074 17.9733 17.3666C18.0143 17.3256 18.2382 17.3061 18.4706 17.3231L18.8932 17.3541L18.9204 22.2789ZM20.8302 22.2586V27.2152L20.3328 27.1834L19.8355 27.1516L19.8083 22.3117C19.7869 18.509 19.8093 17.454 19.913 17.3886C19.9855 17.3427 20.2216 17.3045 20.4375 17.3035L20.8302 17.302V22.2586ZM0.100574 18.4992C-0.227663 18.8929 0.385883 19.5037 0.781338 19.1769C0.968857 19.0221 0.984981 18.6421 0.811387 18.4693C0.637794 18.2965 0.256159 18.3126 0.100574 18.4992ZM22.31 20.0284L22.7148 20.1492V22.3214C22.7148 23.6124 22.6747 24.4937 22.616 24.4937C22.5618 24.4937 22.3498 24.3954 22.1449 24.275L21.7725 24.0562V21.9819C21.7725 20.8412 21.8023 19.9077 21.8389 19.9077C21.8754 19.9077 22.0874 19.962 22.31 20.0284ZM2.88143 20.3841C2.79096 20.4743 2.71694 20.6116 2.71694 20.6894C2.71694 20.7672 2.79096 20.9045 2.88143 20.9947C3.19773 21.3095 3.65925 21.1283 3.65925 20.6894C3.65925 20.2505 3.19773 20.0693 2.88143 20.3841ZM1.09366 22.3054C0.708152 22.7295 1.34704 23.3143 1.75369 22.9095C1.94603 22.718 1.90321 22.325 1.67684 22.2044C1.39279 22.0531 1.30997 22.0674 1.09366 22.3054ZM3.86614 24.1836C3.6226 24.426 3.6137 24.4961 3.79525 24.7434C3.88582 24.8666 4.0347 24.9168 4.24023 24.8936C4.51465 24.8625 4.5492 24.819 4.5492 24.5057C4.5492 24.0421 4.18212 23.869 3.86614 24.1836ZM0.120362 26.078C-0.184736 26.3817 0.198573 26.9729 0.615178 26.8413C0.879966 26.7577 1.00864 26.3208 0.831175 26.1079C0.67559 25.9213 0.293956 25.9052 0.120362 26.078Z" fill="white"/>
</svg>
