<svg width="22" height="31" viewBox="0 0 22 31" fill="none" xmlns="http://www.w3.org/2000/svg">
<path fill-rule="evenodd" clip-rule="evenodd" d="M1.17322 0.485967C0.686564 0.629181 0.233329 1.1107 0.0925109 1.63398C0.0154402 1.92087 -0.0139639 6.70606 0.00613652 15.6812C0.0355405 28.785 0.0447293 29.3066 0.253314 29.6515C0.372423 29.8485 0.630857 30.1074 0.827611 30.2267C1.17058 30.4346 1.58476 30.4436 10.8909 30.4436C20.197 30.4436 20.6112 30.4346 20.9542 30.2267C21.1509 30.1074 21.4094 29.8485 21.5285 29.6515C21.7375 29.3058 21.7451 28.8095 21.7451 15.432C21.7451 2.05454 21.7375 1.55818 21.5285 1.21251C21.4094 1.01546 21.1509 0.756636 20.9542 0.637349C20.6121 0.429832 20.1814 0.419594 11.0632 0.400729C5.59209 0.389456 1.3779 0.425691 1.17322 0.485967ZM20.372 1.7956L20.654 2.07789V15.432V28.7861L20.372 29.0684L20.0901 29.3508H10.8909H1.6917L1.40983 29.0684L1.12785 28.7861V15.432V2.07789L1.40983 1.7956L1.6917 1.5132H10.8909H20.0901L20.372 1.7956ZM2.09313 2.59346C2.05867 2.68318 2.04707 2.92981 2.0674 3.14147L2.10416 3.52625H5.72223H9.3403V3.00861V2.49097L5.74796 2.4606C2.73175 2.43506 2.14562 2.45634 2.09313 2.59346ZM10.3721 2.57057C10.3406 2.65327 10.3282 8.49273 10.3445 15.547L10.374 28.373H10.8909H11.4078V15.432V2.49097L10.9186 2.45554C10.5943 2.43207 10.4101 2.47083 10.3721 2.57057ZM12.4305 2.59346C12.396 2.68318 12.3844 2.92981 12.4047 3.14147L12.4415 3.52625H16.0596H19.6776V3.00861V2.49097L16.0853 2.4606C13.0691 2.43506 12.483 2.45634 12.4305 2.59346ZM2.09313 4.66402C2.05867 4.75375 2.04707 5.00038 2.0674 5.21203L2.10416 5.59681H5.72223H9.3403V5.07917V4.56153L5.74796 4.53116C2.73175 4.50563 2.14562 4.52691 2.09313 4.66402ZM12.4305 4.66402C12.396 4.75375 12.3844 5.00038 12.4047 5.21203L12.4415 5.59681H16.0596H19.6776V5.07917V4.56153L16.0853 4.53116C13.0691 4.50563 12.483 4.52691 12.4305 4.66402ZM2.09313 6.73459C2.05867 6.82431 2.04707 7.07094 2.0674 7.2826L2.10416 7.66738H5.72223H9.3403V7.14974V6.6321L5.74796 6.60173C2.73175 6.57619 2.14562 6.59747 2.09313 6.73459ZM12.4305 6.73459C12.396 6.82431 12.3844 7.07094 12.4047 7.2826L12.4415 7.66738H16.0596H19.6776V7.14974V6.6321L16.0853 6.60173C13.0691 6.57619 12.483 6.59747 12.4305 6.73459ZM2.09313 8.80515C2.05867 8.89488 2.04707 9.14151 2.0674 9.35316L2.10416 9.73794H5.72223H9.3403V9.2203V8.70266L5.74796 8.67229C2.73175 8.64676 2.14562 8.66804 2.09313 8.80515ZM12.4305 8.80515C12.396 8.89488 12.3844 9.14151 12.4047 9.35316L12.4415 9.73794H16.0596H19.6776V9.2203V8.70266L16.0853 8.67229C13.0691 8.64676 12.483 8.66804 12.4305 8.80515ZM2.09313 10.8757C2.05867 10.9654 2.04707 11.2121 2.0674 11.4237L2.10416 11.8085H5.72223H9.3403V11.2909V10.7732L5.74796 10.7429C2.73175 10.7173 2.14562 10.7386 2.09313 10.8757ZM12.4305 10.8757C12.396 10.9654 12.3844 11.2121 12.4047 11.4237L12.4415 11.8085H16.0596H19.6776V11.2909V10.7732L16.0853 10.7429C13.0691 10.7173 12.483 10.7386 12.4305 10.8757ZM2.09313 12.9463C2.05867 13.036 2.04707 13.2826 2.0674 13.4943L2.10416 13.8791H5.72223H9.3403V13.3614V12.8438L5.74796 12.8134C2.73175 12.7879 2.14562 12.8092 2.09313 12.9463ZM12.4305 12.9463C12.396 13.036 12.3844 13.2826 12.4047 13.4943L12.4415 13.8791H16.0596H19.6776V13.3614V12.8438L16.0853 12.8134C13.0691 12.7879 12.483 12.8092 12.4305 12.9463ZM2.09313 15.0169C2.05867 15.1066 2.04707 15.3532 2.0674 15.5649L2.10416 15.9496H5.72223H9.3403V15.432V14.9144L5.74796 14.884C2.73175 14.8585 2.14562 14.8797 2.09313 15.0169ZM12.4305 15.0169C12.396 15.1066 12.3844 15.3532 12.4047 15.5649L12.4415 15.9496H16.0596H19.6776V15.432V14.9144L16.0853 14.884C13.0691 14.8585 12.483 14.8797 12.4305 15.0169ZM2.09313 17.0874C2.05867 17.1771 2.04707 17.4238 2.0674 17.6354L2.10416 18.0202H5.72223H9.3403V17.5026V16.9849L5.74796 16.9546C2.73175 16.929 2.14562 16.9503 2.09313 17.0874ZM12.4305 17.0874C12.396 17.1771 12.3844 17.4238 12.4047 17.6354L12.4415 18.0202H16.0596H19.6776V17.5026V16.9849L16.0853 16.9546C13.0691 16.929 12.483 16.9503 12.4305 17.0874ZM2.09313 19.158C2.05867 19.2477 2.04707 19.4943 2.0674 19.706L2.10416 20.0908H5.72223H9.3403V19.5731V19.0555L5.74796 19.0251C2.73175 18.9996 2.14562 19.0209 2.09313 19.158ZM12.4305 19.158C12.396 19.2477 12.3844 19.4943 12.4047 19.706L12.4415 20.0908H16.0596H19.6776V19.5731V19.0555L16.0853 19.0251C13.0691 18.9996 12.483 19.0209 12.4305 19.158ZM2.09313 21.2285C2.05867 21.3183 2.04707 21.5649 2.0674 21.7766L2.10416 22.1613H5.72223H9.3403V21.6437V21.1261L5.74796 21.0957C2.73175 21.0702 2.14562 21.0914 2.09313 21.2285ZM12.4305 21.2285C12.396 21.3183 12.3844 21.5649 12.4047 21.7766L12.4415 22.1613H16.0596H19.6776V21.6437V21.1261L16.0853 21.0957C13.0691 21.0702 12.483 21.0914 12.4305 21.2285ZM2.09313 23.2991C2.05867 23.3888 2.04707 23.6355 2.0674 23.8471L2.10416 24.2319H5.72223H9.3403V23.7143V23.1966L5.74796 23.1663C2.73175 23.1407 2.14562 23.162 2.09313 23.2991ZM12.4305 23.2991C12.396 23.3888 12.3844 23.6355 12.4047 23.8471L12.4415 24.2319H16.0596H19.6776V23.7143V23.1966L16.0853 23.1663C13.0691 23.1407 12.483 23.162 12.4305 23.2991ZM2.09313 25.3697C2.05867 25.4594 2.04707 25.706 2.0674 25.9177L2.10416 26.3025H5.72223H9.3403V25.7848V25.2672L5.74796 25.2368C2.73175 25.2113 2.14562 25.2326 2.09313 25.3697ZM12.4305 25.3697C12.396 25.4594 12.3844 25.706 12.4047 25.9177L12.4415 26.3025H16.0596H19.6776V25.7848V25.2672L16.0853 25.2368C13.0691 25.2113 12.483 25.2326 12.4305 25.3697ZM2.09313 27.4402C2.05867 27.53 2.04707 27.7766 2.0674 27.9883L2.10416 28.373H5.72223H9.3403V27.8554V27.3378L5.74796 27.3074C2.73175 27.2818 2.14562 27.3031 2.09313 27.4402ZM12.4305 27.4402C12.396 27.53 12.3844 27.7766 12.4047 27.9883L12.4415 28.373H16.0596H19.6776V27.8554V27.3378L16.0853 27.3074C13.0691 27.2818 12.483 27.3031 12.4305 27.4402Z" fill="white"/>
</svg>
