<svg width="30" height="31" viewBox="0 0 30 31" fill="none" xmlns="http://www.w3.org/2000/svg">
<path fill-rule="evenodd" clip-rule="evenodd" d="M14.5828 0.607327C14.3318 0.858431 14.322 1.00793 14.5366 1.31432C14.8426 1.75143 15.6257 1.48885 15.6257 0.949192C15.6257 0.744094 15.2332 0.398682 15 0.398682C14.8853 0.398682 14.6976 0.492572 14.5828 0.607327ZM11.5839 0.873141C7.80273 1.99148 4.8985 4.543 3.36305 8.0955C2.92879 9.10044 2.50945 10.6913 2.41726 11.6844C2.35312 12.3741 2.33748 12.4067 1.98968 12.5718C1.18144 12.9555 0.66573 13.9533 0.124472 16.1809C-0.0913011 17.0689 0.0295694 17.7333 0.557583 18.5624C0.754584 18.8716 0.916858 19.1999 0.918318 19.292C0.919778 19.3841 0.709845 19.9426 0.45173 20.5329C-0.061996 21.7079 -0.0980799 21.898 0.146268 22.1425C0.342331 22.3386 0.854493 22.3588 0.997786 22.176C1.054 22.1044 1.30252 21.5644 1.5501 20.9763C1.79758 20.3883 2.06059 19.907 2.13453 19.907C2.37189 19.907 4.41199 20.3516 4.49083 20.4205C4.53275 20.4571 4.52024 20.6566 4.46299 20.8638C4.33471 21.3286 3.10786 26.4641 2.68883 28.2901C2.51957 29.0278 2.38107 29.7404 2.38107 29.8736C2.38107 30.1595 2.6347 30.4436 2.89 30.4436C3.39976 30.4436 3.38923 30.4774 4.92916 23.9234C5.19874 22.7759 5.44059 21.772 5.46666 21.6927C5.49857 21.595 5.70684 21.731 6.11148 22.1139C11.2271 26.9544 18.7707 26.9562 23.884 22.1181L24.477 21.557L24.5991 22.01C24.6663 22.2591 24.9946 23.6131 25.3289 25.0188C25.6631 26.4246 26.0763 28.1591 26.247 28.8734C26.5585 30.1763 26.7055 30.4436 27.11 30.4436C27.3653 30.4436 27.6189 30.1595 27.6189 29.8736C27.6189 29.7404 27.4804 29.0278 27.3112 28.2901C26.8921 26.4641 25.6653 21.3286 25.537 20.8638C25.4798 20.6566 25.4672 20.4571 25.5092 20.4205C25.5976 20.3432 27.9358 19.8758 27.9846 19.9257C28.0026 19.9442 28.2163 20.4286 28.4595 21.0024C28.7027 21.5762 28.9474 22.1044 29.0032 22.176C29.1452 22.3588 29.6577 22.3386 29.8537 22.1425C30.0981 21.898 30.062 21.7079 29.5483 20.5329C29.2902 19.9426 29.0802 19.3841 29.0817 19.292C29.0831 19.1999 29.2454 18.8716 29.4424 18.5624C29.9704 17.7333 30.0913 17.0689 29.8755 16.1809C29.3356 13.9591 28.8184 12.9554 28.0169 12.5749C27.6673 12.409 27.6609 12.3933 27.5395 11.4325C26.9411 6.69236 23.5796 2.57871 19.0943 1.09723C17.5044 0.57217 17.2592 0.538161 16.9913 0.806166C16.5601 1.23754 16.7819 1.66912 17.5337 1.8617C19.871 2.46072 21.5821 3.41601 23.1598 5.00296C25.1752 7.03026 26.3708 9.77259 26.405 12.4467L26.4196 13.5929L25.8721 13.8877L25.3246 14.1825V13.1984C25.3246 10.4154 24.3055 7.8782 22.4045 5.92851C20.5932 4.07073 18.4084 3.02302 15.9125 2.81521C12.7491 2.5518 9.85607 3.62455 7.63013 5.88636C6.29951 7.23849 5.36686 8.9329 4.92207 10.8062C4.83029 11.1927 4.72558 12.1067 4.68929 12.8373L4.62328 14.1655L4.06043 13.8436L3.49748 13.5215L3.56308 12.3589C3.8433 7.38965 7.26543 3.23501 12.1321 1.95559C12.9938 1.72911 13.2271 1.56334 13.2271 1.17735C13.2271 0.904229 12.9189 0.605345 12.6453 0.612856C12.5351 0.615881 12.0575 0.733036 11.5839 0.873141ZM16.9435 4.14512C19.2834 4.62813 21.459 6.16991 22.7732 8.27629C23.3207 9.15406 23.8237 10.4137 23.6267 10.4137C23.5542 10.4137 22.5103 10.1776 21.3071 9.88902C17.7164 9.02804 17.3015 8.94573 16.126 8.86071C15.5067 8.81595 14.4933 8.81595 13.874 8.86071C12.6985 8.94573 12.2836 9.02804 8.69293 9.88902C7.48965 10.1776 6.44583 10.4137 6.37335 10.4137C6.17634 10.4137 6.67933 9.15406 7.22684 8.27629C9.28582 4.97594 13.1042 3.35247 16.9435 4.14512ZM18.8065 10.4982C21.8554 11.2296 24.0013 11.7676 24.0453 11.8116C24.1335 11.8998 24.2024 13.4291 24.1346 13.791L24.0636 14.1693H21.3233C18.2221 14.1693 17.935 14.2194 17.1663 14.8964C16.9173 15.1155 16.5746 15.5462 16.4044 15.8536L16.095 16.4122L16.0629 19.3072L16.0308 22.2021H15H13.9692L13.9371 19.3072L13.905 16.4122L13.5956 15.8536C13.4254 15.5462 13.0827 15.1155 12.8337 14.8964C12.065 14.2194 11.7779 14.1693 8.67667 14.1693H5.93638L5.86536 13.791C5.79757 13.4291 5.8665 11.8998 5.95473 11.8116C6.02638 11.7398 12.2187 10.2502 13.2271 10.0621C13.3705 10.0353 14.2856 10.0268 15.2607 10.0432C16.9211 10.0711 17.1462 10.0999 18.8065 10.4982ZM14.3894 11.1456C13.2735 11.6184 12.8266 12.761 13.3414 13.8248C13.9715 15.127 16.0285 15.127 16.6586 13.8248C17.0916 12.9301 16.8332 11.9155 16.0383 11.3893C15.5803 11.086 14.8014 10.9709 14.3894 11.1456ZM15.5214 12.5001C15.954 12.9328 15.6293 13.6477 15 13.6477C14.6187 13.6477 14.27 13.3236 14.27 12.9696C14.27 12.6155 14.6187 12.2915 15 12.2915C15.1739 12.2915 15.4056 12.3842 15.5214 12.5001ZM2.42654 14.2601C2.54491 14.3676 3.11109 14.6998 3.68468 14.9985C4.69211 15.5231 4.75239 15.5404 5.45759 15.5074L6.18761 15.4733L6.21785 16.5165C6.2531 17.7326 6.12785 18.1562 5.52829 18.8489L5.13492 19.3035L4.25337 19.1273C1.89018 18.6551 2.02899 18.7126 1.61017 18.0338C1.33453 17.587 1.2339 17.3069 1.2339 16.9858C1.2339 16.5264 1.80206 14.4201 1.98665 14.1953C2.12807 14.0231 2.17218 14.0296 2.42654 14.2601ZM28.0134 14.1953C28.1979 14.4201 28.7661 16.5264 28.7661 16.9858C28.7661 17.3067 28.6656 17.5869 28.3906 18.0326L28.015 18.6413L27.113 18.8477C26.6169 18.9613 25.9104 19.1128 25.5429 19.1845L24.8747 19.3147L24.4765 18.8545C23.8719 18.1559 23.7469 17.7347 23.7822 16.5165L23.8124 15.4733L24.5424 15.5074C25.2473 15.5404 25.3084 15.5229 26.3153 14.9997C26.8889 14.7016 27.4507 14.3694 27.5639 14.2614C27.806 14.0301 27.87 14.0207 28.0134 14.1953ZM11.472 15.4388C11.9709 15.5884 12.5478 16.2023 12.6981 16.7438C12.7612 16.9711 12.809 18.1687 12.8093 19.5295L12.8099 21.9165L12.4296 21.8547C11.8032 21.753 9.99081 20.7988 9.2393 20.1748C8.85281 19.854 8.27797 19.2778 7.96177 18.8944L7.38693 18.1973V16.757V15.3168H9.22595C10.3279 15.3168 11.2281 15.3657 11.472 15.4388ZM22.6131 16.7373V18.1577L22.2461 18.6579C21.8185 19.2405 20.832 20.1764 20.1522 20.6442C19.5279 21.0739 18.0053 21.7841 17.5501 21.8581L17.1901 21.9165L17.1907 19.5295C17.191 18.1687 17.2388 16.9711 17.3019 16.7438C17.4426 16.2368 18.0242 15.589 18.4656 15.4474C18.6531 15.3873 19.663 15.3333 20.7098 15.3275L22.6131 15.3168V16.7373ZM8.76333 21.2931C10.7422 22.8055 13.3406 23.5467 15.9125 23.3326C18.4917 23.1179 21.0512 21.8329 22.7175 19.9166L23.2783 19.2716L23.6959 19.6892L24.1135 20.1069L23.5903 20.7111C21.8376 22.7354 18.9346 24.2051 16.069 24.519C12.649 24.8936 8.67489 23.3274 6.41131 20.7129L5.88966 20.1104L6.29388 19.6964L6.6981 19.2822L7.34991 19.9967C7.70845 20.3897 8.34451 20.9731 8.76333 21.2931Z" fill="white"/>
</svg>
