<svg width="1673" height="204" viewBox="0 0 1673 204" fill="none" xmlns="http://www.w3.org/2000/svg">
<path d="M380.899 230.029H315.98L486.143 -11.9463H551.061L380.899 230.029Z" fill="#EE1827"/>
<path d="M64.5555 564.969H44.1719L631.692 -275.34H652.062L64.5555 564.969Z" fill="#EFEFEF"/>
<path d="M31.9559 564.969H21.0039L608.51 -275.34H619.476L31.9559 564.969Z" fill="#EFEFEF"/>
<path d="M5.58359 564.969H0L587.52 -275.34H593.09L5.58359 564.969Z" fill="#EFEFEF"/>
<path d="M1400.9 230.029H1335.98L1506.14 -11.9463H1571.06L1400.9 230.029Z" fill="#EE1827"/>
<path d="M1084.56 564.969H1064.17L1651.69 -275.34H1672.06L1084.56 564.969Z" fill="#EFEFEF"/>
<path d="M1051.96 564.969H1041L1628.51 -275.34H1639.48L1051.96 564.969Z" fill="#EFEFEF"/>
<path d="M1025.58 564.969H1020L1607.52 -275.34H1613.09L1025.58 564.969Z" fill="#EFEFEF"/>
</svg>
