<svg width="6" height="13" viewBox="0 0 6 13" fill="none" xmlns="http://www.w3.org/2000/svg">
<path fill-rule="evenodd" clip-rule="evenodd" d="M2.38736 0.818307C1.7418 0.966663 1.20417 1.28784 0.746281 1.79859C0.46152 2.1162 0.300985 2.39873 0.132779 2.87813L0.014973 3.21387L0.00288387 6.88606C-0.00570357 9.50435 0.00450974 10.6407 0.0386094 10.8456C0.222489 11.951 1.29246 12.8442 2.4328 12.8442C3.54312 12.8442 4.58316 12.005 4.81031 10.9258C4.85908 10.6942 4.87013 10.0608 4.87075 7.47193C4.87154 3.96099 4.87605 4.02646 4.60196 3.57387C3.85652 2.34304 2.13461 2.34304 1.38917 3.57387C1.11942 4.01932 1.11967 4.01609 1.11967 6.94007V9.57847L1.24152 9.70114C1.39426 9.85491 1.57047 9.86259 1.73221 9.72254L1.84918 9.62132L1.87003 6.92119C1.89074 4.23495 1.89133 4.22022 1.98304 4.04761C2.10076 3.82606 2.29181 3.63406 2.51058 3.51751C2.75391 3.38783 3.23722 3.38783 3.48055 3.51751C3.69932 3.63406 3.89037 3.82606 4.00809 4.04761L4.10026 4.2211V7.51646V10.8119L3.96157 11.0955C3.78507 11.4564 3.49163 11.7518 3.13317 11.9295C2.87063 12.0596 2.82281 12.0691 2.4328 12.0691C2.04278 12.0691 1.99496 12.0596 1.73242 11.9295C1.37396 11.7518 1.08052 11.4564 0.904023 11.0955L0.765332 10.8118V7.0758V3.33978L0.860044 3.08109C1.12767 2.3503 1.54483 1.92441 2.27614 1.63546C2.62355 1.49819 3.36758 1.49819 3.71499 1.63546C4.43488 1.91992 4.83403 2.32097 5.12888 3.05616L5.2258 3.29781L5.24664 6.45954L5.26748 9.62127L5.38446 9.72254C5.54682 9.86314 5.72237 9.85495 5.87665 9.69963L6 9.57545L5.98808 6.39466L5.97615 3.21387L5.85835 2.87813C5.66288 2.32097 5.50601 2.06899 5.10078 1.66102C4.69187 1.24932 4.4345 1.08808 3.89183 0.903501C3.4823 0.76421 2.79255 0.725138 2.38736 0.818307Z" fill="#FF0000"/>
</svg>
