<svg width="16" height="9" viewBox="0 0 16 9" fill="none" xmlns="http://www.w3.org/2000/svg">
<path d="M15.8167 3.94529C15.8165 3.94511 15.8163 3.94489 15.8161 3.94471L12.5504 0.747869C12.3057 0.508382 11.91 0.509274 11.6665 0.749959C11.423 0.990613 11.4239 1.37986 11.6686 1.61938L13.8612 3.76569H0.625C0.279812 3.76569 0 4.04092 0 4.38046C0 4.72 0.279812 4.99524 0.625 4.99524H13.8611L11.6686 7.14155C11.4239 7.38107 11.423 7.77031 11.6665 8.01097C11.91 8.25168 12.3058 8.25251 12.5504 8.01306L15.8161 4.81622C15.8163 4.81603 15.8165 4.81582 15.8167 4.81563C16.0615 4.57532 16.0607 4.18481 15.8167 3.94529Z" fill="black"/>
</svg>
