<svg width="32" height="16" viewBox="0 0 32 16" fill="none" xmlns="http://www.w3.org/2000/svg">
<path d="M31.4718 6.9854C31.4714 6.98504 31.4711 6.98462 31.4707 6.98425L25.0072 0.675549C24.523 0.202942 23.7398 0.204701 23.2578 0.679674C22.7759 1.15459 22.7777 1.92273 23.262 2.3954L27.6015 6.63097H1.40495C0.721763 6.63097 0.167969 7.17412 0.167969 7.84418C0.167969 8.51423 0.721763 9.05739 1.40495 9.05739H27.6015L23.262 13.293C22.7778 13.7656 22.7759 14.5338 23.2579 15.0087C23.7399 15.4837 24.5231 15.4854 25.0073 15.0128L31.4707 8.7041C31.4711 8.70374 31.4714 8.70331 31.4718 8.70295C31.9563 8.22871 31.9548 7.45807 31.4718 6.9854Z" fill="white"/>
</svg>
