<svg width="31" height="24" viewBox="0 0 31 24" fill="none" xmlns="http://www.w3.org/2000/svg">
<path d="M15 5.90625C14.7413 5.90625 14.5312 6.11627 14.5312 6.375C14.5312 6.63373 14.7413 6.84375 15 6.84375C15.2587 6.84375 15.4688 6.63373 15.4688 6.375C15.4688 6.11627 15.2587 5.90625 15 5.90625Z" fill="white"/>
<path fill-rule="evenodd" clip-rule="evenodd" d="M14.332 6.3748C14.332 6.00562 14.6316 5.70605 15.0008 5.70605C15.37 5.70605 15.6695 6.00562 15.6695 6.3748C15.6695 6.74399 15.37 7.04355 15.0008 7.04355C14.6316 7.04355 14.332 6.74399 14.332 6.3748ZM14.532 6.3748C14.532 6.11608 14.7421 5.90605 15.0008 5.90605C15.2595 5.90605 15.4695 6.11608 15.4695 6.3748C15.4695 6.63353 15.2595 6.84355 15.0008 6.84355C14.7421 6.84355 14.532 6.63353 14.532 6.3748Z" fill="white"/>
<path d="M7.21875 14.3438C7.47748 14.3438 7.6875 14.1337 7.6875 13.875C7.6875 13.6163 7.47748 13.4062 7.21875 13.4062C6.96002 13.4062 6.75 13.6163 6.75 13.875C6.75 14.1337 6.96002 14.3438 7.21875 14.3438Z" fill="white"/>
<path fill-rule="evenodd" clip-rule="evenodd" d="M7.88828 13.8748C7.88828 14.244 7.58872 14.5436 7.21953 14.5436C6.85035 14.5436 6.55078 14.244 6.55078 13.8748C6.55078 13.5056 6.85035 13.2061 7.21953 13.2061C7.58872 13.2061 7.88828 13.5056 7.88828 13.8748ZM7.68828 13.8748C7.68828 14.1335 7.47826 14.3436 7.21953 14.3436C6.9608 14.3436 6.75078 14.1335 6.75078 13.8748C6.75078 13.6161 6.9608 13.4061 7.21953 13.4061C7.47826 13.4061 7.68828 13.6161 7.68828 13.8748Z" fill="white"/>
<path d="M18.75 1.21875C14.53 1.21875 11.0663 4.1283 10.7985 7.79315C6.77948 7.99475 3 10.8928 3 14.8125C3 16.4506 3.64819 18.0377 4.82812 19.2953C5.06158 20.2577 4.77814 21.2778 4.07483 21.9811C3.9408 22.1151 3.9007 22.3167 3.97321 22.4919C4.04572 22.667 4.21655 22.7812 4.40625 22.7812C5.7431 22.7812 7.03143 22.257 7.98871 21.3333C8.92126 21.6511 10.138 21.8438 11.25 21.8438C15.4695 21.8438 18.9327 18.9349 19.2014 15.2708C20.1828 15.2272 21.2036 15.046 22.0113 14.7708C22.9686 15.6945 24.2569 16.2188 25.5938 16.2188C25.7834 16.2188 25.9543 16.1045 26.0268 15.9294C26.0993 15.7542 26.0592 15.5526 25.9252 15.4186C25.2219 14.7153 24.9384 13.6952 25.1719 12.7328C26.3518 11.4752 27 9.88806 27 8.25C27 4.17719 22.9294 1.21875 18.75 1.21875ZM11.25 20.9062C10.1437 20.9062 8.883 20.6891 8.03851 20.3531C7.8576 20.2809 7.65088 20.3284 7.51923 20.4721C6.95325 21.0908 6.21735 21.5222 5.41553 21.7205C5.85736 20.874 5.97015 19.8761 5.70135 18.9305C5.68011 18.856 5.64075 18.7879 5.58673 18.7324C4.52325 17.6371 3.9375 16.2449 3.9375 14.8125C3.9375 11.5093 7.28613 8.71875 11.25 8.71875C14.993 8.71875 18.2812 11.3216 18.2812 14.8125C18.2812 18.1727 15.1271 20.9062 11.25 20.9062V20.9062ZM24.4133 12.1699C24.3593 12.2256 24.3199 12.2937 24.2986 12.368C24.0298 13.3136 24.1426 14.3115 24.5845 15.158C23.7827 14.9599 23.0468 14.5283 22.4808 13.9096C22.3491 13.7661 22.1424 13.7184 21.9615 13.7906C21.2296 14.0817 20.1855 14.2833 19.1999 14.332C19.0629 12.5594 18.1787 10.8933 16.667 9.65625H22.7812C23.0402 9.65625 23.25 9.44641 23.25 9.1875C23.25 8.92859 23.0402 8.71875 22.7812 8.71875H15.2269C14.1628 8.17712 12.9681 7.86127 11.7383 7.79498C12.0077 4.64667 15.0496 2.15625 18.75 2.15625C22.7139 2.15625 26.0625 4.94678 26.0625 8.25C26.0625 9.68243 25.4767 11.0746 24.4133 12.1699V12.1699Z" fill="white"/>
<path fill-rule="evenodd" clip-rule="evenodd" d="M3.97399 22.4917C3.90148 22.3165 3.94158 22.1149 4.07561 21.9809C4.77892 21.2776 5.06237 20.2575 4.82891 19.2951C3.64897 18.0375 3.00078 16.4504 3.00078 14.8123C3.00078 10.8926 6.78026 7.99456 10.7992 7.79296C11.0671 4.1281 14.5307 1.21855 18.7508 1.21855C22.9302 1.21855 27.0008 4.17699 27.0008 8.2498C27.0008 9.88787 26.3526 11.475 25.1727 12.7326C24.9392 13.695 25.2226 14.7151 25.926 15.4184C26.06 15.5524 26.1001 15.754 26.0276 15.9292C25.9551 16.1043 25.7842 16.2186 25.5945 16.2186C24.2577 16.2186 22.9693 15.6943 22.0121 14.7706C21.2044 15.0458 20.1836 15.227 19.2021 15.2706C18.9335 18.9347 15.4703 21.8436 11.2508 21.8436C10.1388 21.8436 8.92205 21.6509 7.98949 21.3331C7.03221 22.2568 5.74388 22.7811 4.40703 22.7811C4.21733 22.7811 4.0465 22.6668 3.97399 22.4917ZM8.03986 21.5605C7.05535 22.4681 5.75516 22.9811 4.40703 22.9811C4.13642 22.9811 3.89267 22.818 3.78921 22.5683C3.6858 22.3184 3.74294 22.0307 3.93419 21.8395C4.57578 21.1979 4.84165 20.2724 4.64618 19.3924C3.45687 18.1062 2.80078 16.487 2.80078 14.8123C2.80078 10.8083 6.59305 7.88241 10.6149 7.60362C10.987 3.89845 14.5132 1.01855 18.7508 1.01855C22.9994 1.01855 27.2008 4.02939 27.2008 8.2498C27.2008 9.92447 26.5447 11.5437 25.3554 12.8299C25.1599 13.7099 25.4258 14.6354 26.0674 15.277C26.2586 15.4682 26.3158 15.7558 26.2124 16.0057C26.1089 16.2555 25.8651 16.4186 25.5945 16.4186C24.2464 16.4186 22.9462 15.9055 21.9617 14.998C21.2029 15.2426 20.2835 15.407 19.3863 15.4612C19.0128 19.165 15.4873 22.0436 11.2508 22.0436C10.164 22.0436 8.97843 21.8632 8.03986 21.5605ZM7.52001 20.4719C7.65166 20.3282 7.85839 20.2808 8.03929 20.3529C8.88378 20.6889 10.1445 20.9061 11.2508 20.9061C15.1279 20.9061 18.282 18.1725 18.282 14.8123C18.282 11.3214 14.9938 8.71855 11.2508 8.71855C7.28691 8.71855 3.93828 11.5091 3.93828 14.8123C3.93828 16.2447 4.52404 17.6369 5.58751 18.7322C5.64153 18.7877 5.6809 18.8558 5.70214 18.9303C5.94616 19.7888 5.87569 20.6903 5.53004 21.4826C5.49495 21.563 5.45703 21.6423 5.41631 21.7203C5.50339 21.6988 5.5897 21.6745 5.6751 21.6475C6.37598 21.4261 7.0155 21.0234 7.52001 20.4719ZM5.77975 21.4008C6.38287 21.1812 6.93182 20.8186 7.37244 20.3369C7.56013 20.132 7.85512 20.0641 8.11338 20.1671C8.92983 20.4919 10.1645 20.7061 11.2508 20.7061C15.0452 20.7061 18.082 18.0361 18.082 14.8123C18.082 11.4626 14.9168 8.91855 11.2508 8.91855C7.36168 8.91855 4.13828 11.6521 4.13828 14.8123C4.13828 16.189 4.70106 17.532 5.73081 18.5927M5.77975 21.4008C6.08537 20.607 6.13496 19.7215 5.89451 18.8757C5.86425 18.7695 5.80792 18.672 5.73081 18.5927M24.1071 12.3129C24.1374 12.2068 24.1936 12.1098 24.2705 12.0304L24.4141 12.1697C24.36 12.2254 24.3207 12.2935 24.2994 12.3678C24.0554 13.2263 24.1259 14.1279 24.4715 14.9201C24.5066 15.0005 24.5445 15.0798 24.5853 15.1578C24.4982 15.1363 24.4119 15.112 24.3265 15.0851C23.6256 14.8638 22.9861 14.4609 22.4816 13.9094C22.3499 13.7659 22.1432 13.7182 21.9623 13.7904C21.2304 14.0815 20.1863 14.2831 19.2007 14.3318C19.071 12.653 18.271 11.0698 16.9025 9.85605C16.8261 9.78822 16.7478 9.72153 16.6678 9.65605H22.782C23.0409 9.65605 23.2508 9.44622 23.2508 9.1873C23.2508 8.92839 23.0409 8.71855 22.782 8.71855H15.2276C14.2213 8.20628 13.098 7.89597 11.9387 7.80776C11.8723 7.80271 11.8058 7.79838 11.7391 7.79479C11.7448 7.7281 11.7518 7.66171 11.76 7.59563C12.1376 4.54208 15.1288 2.15605 18.7508 2.15605C22.7146 2.15605 26.0633 4.94658 26.0633 8.2498C26.0633 9.68224 25.4775 11.0744 24.4141 12.1697L24.2705 12.0304C25.3004 10.9697 25.8633 9.62655 25.8633 8.2498C25.8633 5.08963 22.6399 2.35605 18.7508 2.35605C15.2122 2.35605 12.3293 4.68065 11.9599 7.60879C13.126 7.69829 14.2575 8.00776 15.2753 8.51855H22.782C23.1514 8.51855 23.4508 8.81794 23.4508 9.1873C23.4508 9.55667 23.1514 9.85605 22.782 9.85605H17.1992C18.4529 11.0333 19.2103 12.5283 19.382 14.1207C20.293 14.0578 21.228 13.8672 21.8882 13.6046M24.2218 14.8384C23.6187 14.6189 23.0698 14.2561 22.6291 13.7744C22.4416 13.5699 22.1465 13.5017 21.8882 13.6046M24.1071 12.3129C23.8667 13.1588 23.9162 14.0446 24.2218 14.8384Z" fill="white"/>
<path d="M15 13.4062H9.09375C8.83484 13.4062 8.625 13.6161 8.625 13.875C8.625 14.1339 8.83484 14.3438 9.09375 14.3438H15C15.2589 14.3438 15.4688 14.1339 15.4688 13.875C15.4688 13.6161 15.2589 13.4062 15 13.4062Z" fill="white"/>
<path fill-rule="evenodd" clip-rule="evenodd" d="M9.09453 13.2061H15.0008C15.3701 13.2061 15.6695 13.5054 15.6695 13.8748C15.6695 14.2442 15.3701 14.5436 15.0008 14.5436H9.09453C8.72516 14.5436 8.42578 14.2442 8.42578 13.8748C8.42578 13.5054 8.72516 13.2061 9.09453 13.2061ZM9.09453 13.4061H15.0008C15.2597 13.4061 15.4695 13.6159 15.4695 13.8748C15.4695 14.1337 15.2597 14.3436 15.0008 14.3436H9.09453C8.83562 14.3436 8.62578 14.1337 8.62578 13.8748C8.62578 13.6159 8.83562 13.4061 9.09453 13.4061Z" fill="white"/>
<path d="M15 16.2188H7.21875C6.95984 16.2188 6.75 16.4286 6.75 16.6875C6.75 16.9464 6.95984 17.1562 7.21875 17.1562H15C15.2589 17.1562 15.4688 16.9464 15.4688 16.6875C15.4688 16.4286 15.2589 16.2188 15 16.2188Z" fill="white"/>
<path fill-rule="evenodd" clip-rule="evenodd" d="M7.21953 16.0186H15.0008C15.3701 16.0186 15.6695 16.3179 15.6695 16.6873C15.6695 17.0567 15.3701 17.3561 15.0008 17.3561H7.21953C6.85016 17.3561 6.55078 17.0567 6.55078 16.6873C6.55078 16.3179 6.85016 16.0186 7.21953 16.0186ZM7.21953 16.2186H15.0008C15.2597 16.2186 15.4695 16.4284 15.4695 16.6873C15.4695 16.9462 15.2597 17.1561 15.0008 17.1561H7.21953C6.96062 17.1561 6.75078 16.9462 6.75078 16.6873C6.75078 16.4284 6.96062 16.2186 7.21953 16.2186Z" fill="white"/>
<path d="M22.7812 5.90625H16.875C16.6161 5.90625 16.4062 6.11609 16.4062 6.375C16.4062 6.63391 16.6161 6.84375 16.875 6.84375H22.7812C23.0402 6.84375 23.25 6.63391 23.25 6.375C23.25 6.11609 23.0402 5.90625 22.7812 5.90625Z" fill="white"/>
<path fill-rule="evenodd" clip-rule="evenodd" d="M16.8758 5.70605H22.782C23.1514 5.70605 23.4508 6.00544 23.4508 6.3748C23.4508 6.74417 23.1514 7.04355 22.782 7.04355H16.8758C16.5064 7.04355 16.207 6.74417 16.207 6.3748C16.207 6.00544 16.5064 5.70605 16.8758 5.70605ZM16.8758 5.90605H22.782C23.0409 5.90605 23.2508 6.11589 23.2508 6.3748C23.2508 6.63372 23.0409 6.84355 22.782 6.84355H16.8758C16.6169 6.84355 16.407 6.63372 16.407 6.3748C16.407 6.11589 16.6169 5.90605 16.8758 5.90605Z" fill="white"/>
</svg>
