<svg width="10" height="12" viewBox="0 0 10 12" fill="none" xmlns="http://www.w3.org/2000/svg">
<path d="M5.91615 5.95425L9.80995 1.96969C10.0634 1.71051 10.0634 1.29145 9.80995 1.03227C9.55667 0.773096 9.14714 0.773096 8.89386 1.03227L4.99994 5.01683L1.10614 1.03227C0.85274 0.773096 0.443335 0.773096 0.190051 1.03227C-0.0633505 1.29145 -0.0633505 1.71051 0.190051 1.96969L4.08385 5.95425L0.190051 9.9388C-0.0633505 10.198 -0.0633505 10.617 0.190051 10.8762C0.316278 11.0055 0.482246 11.0704 0.648097 11.0704C0.813947 11.0704 0.979797 11.0055 1.10614 10.8762L4.99994 6.89166L8.89386 10.8762C9.0202 11.0055 9.18605 11.0704 9.3519 11.0704C9.51775 11.0704 9.6836 11.0055 9.80995 10.8762C10.0634 10.617 10.0634 10.198 9.80995 9.9388L5.91615 5.95425Z" fill="#C4C4C4"/>
</svg>
