<svg width="32" height="32" viewBox="0 0 32 32" fill="none" xmlns="http://www.w3.org/2000/svg">
<g clip-path="url(#clip0_35_35824)">
<path d="M22.0987 11.0333L19.5938 10.9414L19.0508 25.7717L21.5557 25.8632L22.0987 11.0333Z" fill="black" fill-opacity="0.2"/>
<path d="M17.2526 10.9873H14.7461V25.8176H17.2526V10.9873Z" fill="black" fill-opacity="0.2"/>
<path d="M12.9483 25.7717L12.4053 10.9414L9.90039 11.0333L10.4435 25.8636L12.9483 25.7717Z" fill="black" fill-opacity="0.2"/>
<path d="M1.08594 4.80469V7.31119H3.69775L5.76975 30.8571C5.82656 31.5042 6.36844 32.0005 7.018 32.0005H24.9393C25.5889 32.0005 26.1311 31.5038 26.1875 30.8567L28.2596 7.31119H30.9136V4.80469H1.08594ZM23.7913 29.494H8.16563L6.21388 7.31119H25.7435L23.7913 29.494Z" fill="black" fill-opacity="0.2"/>
<path d="M20.0932 0H11.9052C10.7534 0 9.81641 0.937 9.81641 2.08875V6.05744H12.3229V2.5065H19.6754V6.05744H22.1819V2.08875C22.1819 0.937 21.2449 0 20.0932 0Z" fill="black" fill-opacity="0.2"/>
</g>
<defs>
<clipPath id="clip0_35_35824">
<rect width="32" height="32" fill="white"/>
</clipPath>
</defs>
</svg>
