<svg width="25" height="24" viewBox="0 0 25 24" fill="none" xmlns="http://www.w3.org/2000/svg">
<g clip-path="url(#clip0_35_25071)">
<path fill-rule="evenodd" clip-rule="evenodd" d="M4.42953 0.161074C4.27224 0.318362 4.26846 0.429503 4.26846 4.86854V9.41493L2.24843 9.43901C0.35702 9.46156 0.221154 9.47307 0.114201 9.61941C0.0184429 9.75052 0 10.6115 0 14.955C0 20.0269 0.00330201 20.1375 0.161074 20.2953C0.313369 20.4476 0.429503 20.4564 2.2953 20.4564H4.26846V22.016C4.26846 23.4718 4.27957 23.5897 4.43541 23.7878L4.60228 24H12.6099C20.5101 24 20.6196 23.9978 20.7785 23.8389C20.9288 23.6886 20.9396 23.5705 20.9396 22.0761V20.4743L22.0872 20.4428C23.212 20.412 23.245 20.4059 23.7444 20.1375C24.3029 19.8373 24.7064 19.4195 24.9862 18.8518C25.1669 18.485 25.1679 18.4621 25.1905 14.133C25.2099 10.434 25.1958 9.75898 25.0964 9.62295C24.9862 9.47203 24.8669 9.46172 22.9596 9.43901L20.9396 9.41493V6.528V3.64107L19.0319 1.82054L17.1242 0H10.8574C4.69796 0 4.58787 0.00273826 4.42953 0.161074ZM16.4317 2.13423C16.475 3.28655 16.5233 3.47911 16.8624 3.85329C17.2183 4.24607 17.4448 4.30631 18.7248 4.34899L19.9329 4.38926V6.88591V9.38255L12.6242 9.40309L5.31544 9.4237V5.19447V0.965315L10.8523 0.986013L16.3893 1.00671L16.4317 2.13423ZM18.4194 2.61004C18.7867 2.96029 19.0872 3.27745 19.0872 3.31474C19.0872 3.35203 18.8005 3.38255 18.4501 3.38255C17.8376 3.38255 17.8049 3.37297 17.6045 3.13474C17.4203 2.91592 17.396 2.81573 17.396 2.27662V1.66631L17.5737 1.81973C17.6716 1.90413 18.0521 2.25978 18.4194 2.61004ZM24.2398 14.2752C24.2379 18.5207 24.2489 18.4305 23.6672 18.9831C23.2579 19.372 22.8271 19.4899 21.8154 19.4899H20.9396V18.2278C20.9396 16.8387 20.8876 16.6711 20.4564 16.6711C19.9776 16.6711 19.9772 16.6736 19.954 19.9784L19.9329 22.9933H12.6443H5.3557L5.33452 20.3154L5.31326 17.6376H11.6365C17.8524 17.6376 17.9625 17.6348 18.1208 17.4765C18.3167 17.2806 18.3278 17.0165 18.1486 16.8184C18.0215 16.678 17.7023 16.6711 11.2673 16.6711H4.51917L4.39385 16.8502C4.29358 16.9932 4.26846 17.2765 4.26846 18.2612V19.4932L2.63758 19.4715L1.00671 19.4497L0.985933 14.9597L0.965074 10.4698H12.6034H24.2416L24.2398 14.2752ZM15.5899 12.7988C15.4055 13.0024 15.4545 13.2763 15.7091 13.4657C15.9644 13.6556 16.3034 13.5573 16.4419 13.2532C16.6553 12.7851 15.9451 12.4062 15.5899 12.7988ZM17.8446 12.7708C17.6148 13.0008 17.7057 13.4183 18.011 13.5344C18.448 13.7005 18.8158 13.2783 18.6159 12.8397C18.5468 12.6878 18.465 12.6443 18.2491 12.6443C18.0962 12.6443 17.9143 12.7012 17.8446 12.7708ZM20.0997 12.7708C19.7364 13.1342 20.1891 13.757 20.6428 13.5181C20.8656 13.4009 20.9368 13.2936 20.9384 13.0728C20.9401 12.8304 20.7308 12.6443 20.4564 12.6443C20.3299 12.6443 20.1693 12.7012 20.0997 12.7708ZM7.49581 20.2659C7.28931 20.5284 7.28722 20.6286 7.48285 20.8703L7.63675 21.0604H12.4027H17.1686L17.3225 20.8703C17.5201 20.6264 17.5177 20.4171 17.3154 20.2148C17.158 20.0573 17.047 20.0537 12.4086 20.0537H7.66268L7.49581 20.2659Z" fill="#FF0000"/>
</g>
<defs>
<clipPath id="clip0_35_25071">
<rect width="25" height="24" fill="white"/>
</clipPath>
</defs>
</svg>
