<svg width="30" height="31" viewBox="0 0 30 31" fill="none" xmlns="http://www.w3.org/2000/svg">
<path d="M17.7488 15.3984L29.4304 3.59264C30.1907 2.82472 30.1907 1.58311 29.4304 0.815194C28.6706 0.0472791 27.442 0.0472791 26.6821 0.815194L15.0001 12.6209L3.31849 0.815194C2.55827 0.0472791 1.33003 0.0472791 0.570166 0.815194C-0.190055 1.58311 -0.190055 2.82472 0.570166 3.59264L12.2518 15.3984L0.570166 27.2041C-0.190055 27.972 -0.190055 29.2137 0.570166 29.9816C0.948853 30.3646 1.44677 30.5571 1.94433 30.5571C2.44189 30.5571 2.93945 30.3646 3.31849 29.9816L15.0001 18.1758L26.6821 29.9816C27.0612 30.3646 27.5587 30.5571 28.0563 30.5571C28.5538 30.5571 29.0514 30.3646 29.4304 29.9816C30.1907 29.2137 30.1907 27.972 29.4304 27.2041L17.7488 15.3984Z" fill="white" fill-opacity="0.3"/>
</svg>
