<svg width="41" height="40" viewBox="0 0 41 40" fill="none" xmlns="http://www.w3.org/2000/svg">
<path fill-rule="evenodd" clip-rule="evenodd" d="M6.1456 0.177747C6.03497 0.287506 5.96644 0.826226 5.96644 1.58491C5.96644 2.56607 5.92225 2.81432 5.74772 2.81432C5.43808 2.81432 4.50213 3.66292 4.22473 4.19512C3.92509 4.76998 3.92509 5.89482 4.22473 6.46969C4.50213 7.00189 5.43808 7.85048 5.74772 7.85048C5.91329 7.85048 5.96644 8.04837 5.96644 8.66516C5.96644 9.28194 5.91329 9.47983 5.74772 9.47983C5.43808 9.47983 4.50213 10.3284 4.22473 10.8606C3.92509 11.4355 3.92509 12.5603 4.22473 13.1352C4.50213 13.6674 5.43808 14.516 5.74772 14.516C5.91329 14.516 5.96644 14.7139 5.96644 15.3307C5.96644 15.9474 5.91329 16.1453 5.74772 16.1453C5.43808 16.1453 4.50213 16.9939 4.22473 17.5261C3.92509 18.101 3.92509 19.2258 4.22473 19.8007C4.50213 20.3329 5.43808 21.1815 5.74772 21.1815C5.89045 21.1815 5.96644 21.3335 5.96644 21.6189C5.96644 21.9745 5.86716 22.1031 5.43554 22.3063C3.53766 23.1998 3.53766 26.1249 5.43554 27.0184L5.96644 27.2684V29.4537C5.96644 31.8553 6.01302 31.9944 6.81744 31.9944H7.31012V33.1498C7.31012 33.8508 7.38059 34.375 7.48928 34.4829C7.62454 34.6171 9.78518 34.6606 16.2979 34.6606C21.044 34.6606 24.9273 34.6984 24.9273 34.7445C24.9273 34.7905 24.8467 34.9738 24.7483 35.1518C24.6497 35.3297 24.4256 36.3593 24.2502 37.4397C23.9745 39.1369 23.9594 39.4441 24.1391 39.6986C24.5354 40.2598 24.6193 40.2164 27.4486 37.9904C27.888 37.6445 28.3595 37.0241 28.8811 36.1048L29.6585 34.7347L31.7245 34.6934C32.9367 34.6691 33.8717 34.5849 33.9871 34.49C34.1399 34.3642 34.1838 33.5232 34.1838 30.7172V27.1061L36.8711 22.5601C39.7687 17.6583 39.8538 17.4424 39.2659 16.4859C38.8511 15.8109 38.1772 15.5046 37.2927 15.5888C36.8777 15.6284 36.4376 15.7764 36.2597 15.9359C36.0894 16.0889 35.5539 16.8818 35.0695 17.6979L34.1891 19.1818L34.1864 10.7843L34.1838 2.38669L33.8519 2.15622C33.5822 1.96869 33.0297 1.92559 30.8991 1.92559H28.2778L27.316 0.962795L26.3543 0H16.3395C8.74936 0 6.28131 0.0431037 6.1456 0.177747ZM25.4015 3.47391C25.4353 4.97558 25.5076 5.67205 25.6435 5.80684C25.7793 5.94163 26.4813 6.01332 27.9949 6.04694L30.1527 6.09494V16.0591V26.0232L28.7848 28.3423L27.417 30.6613H17.3635H7.31012V28.9649V27.2684L7.84103 27.0184C8.9097 26.5154 9.54631 25.1956 8.96987 24.6781C8.57303 24.3218 8.30445 24.4394 7.83714 25.1737C7.62738 25.5036 7.42299 25.7733 7.38283 25.7733C7.34282 25.7733 7.31012 24.7474 7.31012 23.4934C7.31012 21.2181 7.31087 21.2135 7.66426 21.1255C7.85894 21.0769 8.2604 20.7715 8.55616 20.4465C9.43418 19.4824 9.45747 18.6442 8.60916 18.5433C8.28653 18.5048 8.16933 18.5982 7.91194 19.0987C7.74189 19.4295 7.53676 19.7003 7.45643 19.7003C7.36656 19.7003 7.31012 18.7073 7.31012 17.1241V14.5481L7.66426 14.46C7.85894 14.4114 8.2604 14.106 8.55616 13.781C9.43418 12.8169 9.45747 11.9787 8.60916 11.8778C8.28653 11.8393 8.16933 11.9327 7.91194 12.4332C7.74189 12.764 7.53676 13.0348 7.45643 13.0348C7.36656 13.0348 7.31012 12.0418 7.31012 10.4586V7.88263L7.66426 7.79449C7.85894 7.74591 8.2604 7.44048 8.55616 7.1155C9.43418 6.15137 9.45747 5.31315 8.60916 5.21228C8.28653 5.17376 8.16933 5.26723 7.91194 5.76774C7.74189 6.09849 7.53676 6.36926 7.45643 6.36926C7.36671 6.36926 7.31012 5.39639 7.31012 3.85118V1.3331H16.3316H25.3531L25.4015 3.47391ZM28.0625 3.48087L29.1748 4.59179H28.0215H26.8682V3.48087C26.8682 2.86987 26.8867 2.36996 26.9092 2.36996C26.9318 2.36996 27.4509 2.86987 28.0625 3.48087ZM32.8401 12.4534V21.5L32.2056 22.5596L31.571 23.6194L31.5325 14.368L31.4942 5.11659L30.6415 4.26163L29.7889 3.40681H31.3144H32.8401V12.4534ZM5.96644 5.3324C5.96644 6.36793 5.8155 6.62359 5.52377 6.08279C5.2204 5.52037 5.42509 4.29555 5.82237 4.29555C5.90165 4.29555 5.96644 4.76213 5.96644 5.3324ZM11.6731 7.48862C11.4905 7.61541 11.3412 7.84485 11.3412 7.9986C11.3412 8.15236 11.4905 8.3818 11.6731 8.50859C11.9624 8.70974 12.9487 8.73922 19.4033 8.73922C25.8579 8.73922 26.8441 8.70974 27.1335 8.50859C27.5575 8.21397 27.5575 7.78323 27.1335 7.48862C26.8441 7.28747 25.8579 7.25799 19.4033 7.25799C12.9487 7.25799 11.9624 7.28747 11.6731 7.48862ZM5.96644 11.9979C5.96644 13.0334 5.8155 13.2891 5.52377 12.7483C5.2204 12.1859 5.42509 10.9611 5.82237 10.9611C5.90165 10.9611 5.96644 11.4276 5.96644 11.9979ZM11.6731 11.4879C11.4905 11.6147 11.3412 11.8442 11.3412 11.9979C11.3412 12.1517 11.4905 12.3811 11.6731 12.5079C11.9624 12.709 12.9487 12.7385 19.4033 12.7385C25.8579 12.7385 26.8441 12.709 27.1335 12.5079C27.5575 12.2133 27.5575 11.7825 27.1335 11.4879C26.8441 11.2868 25.8579 11.2573 19.4033 11.2573C12.9487 11.2573 11.9624 11.2868 11.6731 11.4879ZM11.6731 15.4872C11.4905 15.614 11.3412 15.8435 11.3412 15.9972C11.3412 16.151 11.4905 16.3804 11.6731 16.5072C11.9624 16.7083 12.9487 16.7378 19.4033 16.7378C25.8579 16.7378 26.8441 16.7083 27.1335 16.5072C27.5575 16.2126 27.5575 15.7818 27.1335 15.4872C26.8441 15.2861 25.8579 15.2566 19.4033 15.2566C12.9487 15.2566 11.9624 15.2861 11.6731 15.4872ZM38.0356 17.0637C38.2793 17.3054 38.2606 17.6437 37.982 18.0385C37.7396 18.3818 37.6067 18.3611 36.9541 17.8776C36.6766 17.672 36.6751 17.6452 36.9202 17.2742C37.1936 16.8602 37.7287 16.7591 38.0356 17.0637ZM5.96644 18.6634C5.96644 19.6989 5.8155 19.9546 5.52377 19.4138C5.2204 18.8514 5.42509 17.6266 5.82237 17.6266C5.90165 17.6266 5.96644 18.0931 5.96644 18.6634ZM36.5869 19.2138C37.0551 19.4882 37.1508 19.8081 36.8042 19.9401C36.5479 20.0375 35.6767 19.5606 35.6767 19.3227C35.6767 18.9023 35.9912 18.8647 36.5869 19.2138ZM11.6731 19.4865C11.4905 19.6133 11.3412 19.8428 11.3412 19.9965C11.3412 20.1503 11.4905 20.3797 11.6731 20.5065C11.9624 20.7076 12.9487 20.7371 19.4033 20.7371C25.8579 20.7371 26.8441 20.7076 27.1335 20.5065C27.5575 20.2119 27.5575 19.7811 27.1335 19.4865C26.8441 19.2854 25.8579 19.2559 19.4033 19.2559C12.9487 19.2559 11.9624 19.2854 11.6731 19.4865ZM35.9753 21.2775C35.9753 21.4635 27.6021 35.7372 27.3093 36.0503C27.1461 36.2246 26.1841 35.6443 26.2395 35.4049C26.2632 35.3024 27.7648 32.71 29.5764 29.6442C31.388 26.5783 33.2423 23.4367 33.6967 22.6627C34.1514 21.8888 34.6149 21.1079 34.7269 20.9273L34.9304 20.5991L35.4529 20.9049C35.7402 21.0731 35.9753 21.2407 35.9753 21.2775ZM11.6731 23.4858C11.4905 23.6126 11.3412 23.8421 11.3412 23.9958C11.3412 24.628 11.833 24.7364 14.7004 24.7364C17.5678 24.7364 18.0596 24.628 18.0596 23.9958C18.0596 23.3636 17.5678 23.2552 14.7004 23.2552C12.5023 23.2552 11.9436 23.2977 11.6731 23.4858ZM5.96151 24.6994L5.95644 25.8473L5.66292 25.4976C5.31028 25.0778 5.28221 24.3332 5.60171 23.8807C5.7295 23.6996 5.86387 23.5514 5.9003 23.5514C5.93673 23.5514 5.9642 24.0681 5.96151 24.6994ZM32.8401 31.4019V33.3275H31.7203C31.1045 33.3275 30.6006 33.2994 30.6006 33.2652C30.6006 33.2308 30.9473 32.6143 31.371 31.895C31.7947 31.1757 32.2819 30.3378 32.4534 30.033C32.6251 29.7281 32.7823 29.4783 32.8027 29.4775C32.8232 29.4769 32.8401 30.3429 32.8401 31.4019ZM26.242 32.6239L25.8919 33.2535L17.2729 33.2917L8.6538 33.3299V32.6622V31.9944H17.6229H26.592L26.242 32.6239ZM26.2465 37.2326C26.2189 37.2491 26.0788 37.3519 25.935 37.4609C25.7015 37.6382 25.6738 37.6174 25.6738 37.2656C25.6738 36.9125 25.7059 36.8891 25.9852 37.0374C26.1565 37.1283 26.274 37.2162 26.2465 37.2326Z" fill="#FF0000"/>
</svg>
