<svg width="41" height="40" viewBox="0 0 41 40" fill="none" xmlns="http://www.w3.org/2000/svg">
<path fill-rule="evenodd" clip-rule="evenodd" d="M8.22731 0.166667C8.12343 0.270556 8.06065 0.785 8.06065 1.53236C8.06065 2.19194 8.03093 2.76125 7.9944 2.79764C7.95801 2.83403 7.38801 2.68778 6.72759 2.4725C6.06732 2.25736 5.28287 2.04222 4.9844 1.99444C4.4562 1.91 4.41593 1.93403 3.45551 2.90986C2.64051 3.73792 2.41801 3.89375 2.17468 3.80778C2.01259 3.75042 1.60745 3.70028 1.27426 3.69625C0.779121 3.69014 0.607732 3.75931 0.33676 4.07444L0.00509294 4.46V17.284C0.00509294 31.9551 -0.165185 30.3271 1.46343 31.2224C1.99815 31.5163 3.0294 32.0913 3.75509 32.5C4.48079 32.9088 5.48079 33.4713 5.97732 33.75C6.47384 34.0288 7.47384 34.5913 8.19954 35C8.92523 35.4088 9.92523 35.9713 10.4218 36.25C10.9183 36.5288 11.9183 37.0913 12.644 37.5C13.3697 37.9088 14.4009 38.4875 14.9356 38.7861C15.4704 39.0849 16.1266 39.3646 16.394 39.4081C16.6613 39.4514 17.0291 39.6024 17.2113 39.7435C17.5031 39.9694 17.8188 40 19.8662 40C21.9795 40 22.2218 39.9749 22.543 39.7222C22.7372 39.5694 23.068 39.4444 23.2781 39.4444C23.6227 39.4444 24.2479 39.1181 28.1995 36.8744C29.918 35.8988 37.2243 31.795 38.269 31.2188C39.7209 30.4178 39.7207 30.4185 39.7243 28.0951C39.727 26.2614 39.7076 26.1103 39.4495 25.9722C39.2522 25.8667 39.0913 25.8667 38.894 25.9722C38.6383 26.109 38.6162 26.2631 38.6162 27.9094V29.6981L37.6093 30.2492C37.0554 30.5522 36.1648 31.0469 35.6301 31.3485C35.0954 31.65 34.1579 32.1779 33.5468 32.5217C32.9356 32.8656 31.8419 33.481 31.1162 33.8894C30.3905 34.2979 29.3905 34.8601 28.894 35.1389C28.3975 35.4176 27.3975 35.9801 26.6718 36.3889C23.9466 37.9239 23.4338 38.1944 23.2498 38.1944C23.0916 38.1944 23.0606 36.1603 23.0606 25.774V13.3538L23.8593 12.9082C24.2984 12.6632 25.1423 12.1899 25.7343 11.8564C26.3262 11.5228 27.2951 10.9779 27.887 10.6454C28.479 10.3128 29.479 9.75028 30.1093 9.39542C30.7395 9.04042 31.7706 8.45958 32.4009 8.10458C33.0312 7.74972 34.0155 7.19556 34.5884 6.87319C35.1613 6.55069 36.1948 5.96611 36.885 5.57403C37.5751 5.18195 38.2469 4.86111 38.378 4.86111C38.6007 4.86111 38.6162 5.45667 38.6162 13.9535C38.6162 22.9036 38.6205 23.0481 38.894 23.1944C39.0913 23.3 39.2522 23.3 39.4495 23.1944C39.723 23.0481 39.7273 22.9036 39.7273 13.7529V4.46L39.3957 4.07444C39.1247 3.75931 38.9533 3.69014 38.4582 3.69625C38.125 3.70028 37.7247 3.74917 37.5687 3.80486C37.3394 3.88681 37.093 3.71458 36.2843 2.9075C35.1293 1.75486 35.2047 1.76486 33.0245 2.47264C32.3555 2.69 31.7773 2.83708 31.7398 2.79958C31.7025 2.76208 31.6718 2.19194 31.6718 1.53236C31.6718 0.309306 31.5581 0 31.109 0C30.7288 0 27.8543 1.47056 26.5905 2.31153C24.0708 3.98819 21.8036 6.55403 20.5404 9.15833C20.2077 9.84431 19.9044 10.4054 19.8662 10.4054C19.828 10.4054 19.5247 9.84431 19.192 9.15833C17.9301 6.55653 15.6013 3.92306 13.1137 2.28486C11.8584 1.45819 8.99273 0 8.62343 0C8.49718 0 8.31898 0.0750001 8.22731 0.166667ZM10.4806 2.10403C12.0409 2.90556 13.3684 3.82667 14.5786 4.94722C15.7473 6.02958 17.0979 7.66833 17.5248 8.5225L17.8123 9.09722L17.1379 8.45458C16.195 7.55611 14.7051 6.38889 14.5012 6.38889C14.244 6.38889 13.894 6.79111 13.894 7.08653C13.894 7.2425 14.16 7.52889 14.5537 7.79722C15.4056 8.37778 17.8773 10.8494 18.4579 11.7014L18.9073 12.3611L18.4493 12.3828C18.1973 12.3946 17.835 12.3911 17.644 12.3751C17.2448 12.3414 3.6162 4.72833 3.6162 4.53889C3.6162 4.36639 4.8194 3.19444 4.99648 3.19444C5.36232 3.19444 8.20898 4.24153 9.54995 4.86931C11.265 5.67208 11.7412 5.71556 11.7412 5.06944C11.7412 4.68444 11.6463 4.60458 10.4912 4.01722L9.2412 3.38181L9.20009 2.45472C9.17759 1.94486 9.20412 1.52778 9.25912 1.52778C9.31412 1.52778 9.86384 1.78708 10.4806 2.10403ZM30.5323 2.44639L30.4912 3.365L28.6856 4.29222C26.1565 5.59125 24.2779 6.87736 22.5945 8.46222L21.9201 9.09722L22.2076 8.5225C22.9076 7.12236 25.2598 4.62806 27.019 3.42069C27.8316 2.86278 30.2423 1.54097 30.4629 1.53222C30.5236 1.52972 30.5548 1.94111 30.5323 2.44639ZM35.5044 3.77764C35.8409 4.09833 36.1162 4.42903 36.1162 4.51236C36.1162 4.64958 22.783 12.2099 22.1816 12.4136C22.0418 12.461 21.6847 12.461 21.3879 12.4135L20.8484 12.3272L21.2862 11.6844C21.9848 10.659 24.4031 8.34375 25.8384 7.32639C27.4894 6.15625 30.857 4.45736 32.9362 3.74569C33.8068 3.44778 34.603 3.20194 34.7058 3.19931C34.8084 3.19667 35.1679 3.45681 35.5044 3.77764ZM2.77801 5.53722C3.99412 6.23069 8.12884 8.55681 11.9495 10.6968C13.1336 11.3599 14.6804 12.2285 15.387 12.6268L16.6718 13.351V25.7076C16.6718 35.7369 16.6376 38.0774 16.4906 38.1338C16.3159 38.2008 15.9172 37.9979 13.0606 36.3889C12.335 35.9801 11.335 35.4174 10.8384 35.1385C9.31634 34.2832 6.06982 32.4564 4.10232 31.3479C3.56759 31.0467 2.67704 30.5522 2.12315 30.2492L1.1162 29.6981V17.2796C1.1162 5.64055 1.1312 4.86111 1.3544 4.86111C1.48551 4.86111 2.12606 5.16542 2.77801 5.53722ZM30.6301 13.2869C27.6509 15.0022 25.1197 16.46 25.0051 16.5263C24.8397 16.6218 24.7873 17.0386 24.7509 18.5476C24.6993 20.6958 24.7506 21.0394 25.1562 21.2565C25.404 21.3892 25.9459 21.1226 29.1476 19.2938C31.1852 18.1299 33.1961 16.9769 33.6162 16.7317C34.0363 16.4864 34.8972 15.9896 35.5291 15.6278C36.1611 15.266 36.7391 14.8558 36.8138 14.7163C36.8884 14.5768 36.9495 13.6288 36.9495 12.6094C36.9495 10.6571 36.8038 10.1211 36.2819 10.1535C36.1526 10.1614 33.6093 11.5715 30.6301 13.2869ZM35.5319 14.2371C35.4332 14.3261 33.4461 15.4842 31.1162 16.8104C28.7863 18.1367 26.6769 19.3406 26.4287 19.4857L25.9773 19.7497L25.9812 18.5207L25.9851 17.2917L30.8076 14.5454L35.6301 11.799L35.6708 12.9372C35.6994 13.7361 35.658 14.1235 35.5319 14.2371ZM21.922 14.4097L21.9641 15.1389H19.8734H17.7829V14.4676C17.7829 14.0983 17.8262 13.7531 17.8791 13.7C17.932 13.6471 18.854 13.6211 19.9277 13.6422L21.8801 13.6806L21.922 14.4097ZM21.8801 17.0139V17.7083H19.8662H17.8523L17.8083 17.1729C17.7304 16.2235 17.6963 16.2381 19.898 16.2808L21.8801 16.3194V17.0139ZM21.9495 26.1806V33.4722H19.8662H17.7829V26.1806V18.8889H19.8662H21.9495V26.1806ZM19.5431 22.2569C19.3279 22.4146 19.3094 22.7815 19.343 26.235C19.3766 29.6831 19.4029 30.0536 19.6231 30.1925C19.8004 30.3043 19.932 30.3043 20.1093 30.1925C20.3295 30.0536 20.3558 29.6831 20.3894 26.235C20.423 22.7815 20.4045 22.4146 20.1893 22.2569C20.0587 22.1615 19.9134 22.0833 19.8662 22.0833C19.819 22.0833 19.6737 22.1615 19.5431 22.2569ZM21.9495 35.4167V36.1111H19.8662H17.7829V35.4167V34.7222H19.8662H21.9495V35.4167ZM21.9233 37.9726C21.9519 38.4235 21.905 38.6928 21.7844 38.7692C21.5756 38.9015 18.3343 38.9319 18.0026 38.8046C17.8451 38.7442 17.7829 38.5343 17.7829 38.0639C17.7829 37.7028 17.8262 37.3642 17.8791 37.3111C17.932 37.2582 18.854 37.2322 19.9277 37.2533L21.8801 37.2917L21.9233 37.9726Z" fill="#FF0000"/>
</svg>
