<svg width="41" height="40" viewBox="0 0 41 40" fill="none" xmlns="http://www.w3.org/2000/svg">
<path fill-rule="evenodd" clip-rule="evenodd" d="M13.8262 0.227471C11.1289 0.802447 8.67811 2.47017 7.1155 4.7941C5.93486 6.55013 5.43486 8.23396 5.32406 10.8279L5.24408 12.7024L4.60593 13.119C3.55206 13.807 3.34254 14.395 3.34615 16.6544C3.34962 18.7732 3.51818 19.3696 4.29963 20.0272C4.88113 20.5165 5.53664 20.684 6.88376 20.6878L7.99455 20.691L8.32557 21.4556C8.5076 21.8762 8.85126 22.3819 9.08924 22.5793C9.32723 22.7769 9.81862 23.2171 10.1814 23.5575C10.8329 24.1689 10.841 24.1872 10.841 25.0506C10.841 25.9927 10.6799 27.0111 10.3565 28.1147L10.1531 28.809L8.86556 29.2738C8.15742 29.5295 6.80753 30.1056 5.86585 30.554C2.98361 31.9266 1.61733 33.0894 0.768541 34.8925C0.11081 36.2895 -0.213404 38.6138 0.153715 39.2998C0.534024 40.0107 -0.0301234 39.9864 16.121 39.9864H31.1344L31.5403 39.5805C31.904 39.2167 31.9458 39.0836 31.9438 38.2962C31.9382 36.2957 31.3044 34.5514 30.1066 33.2409C28.9118 31.9336 26.8296 30.7257 23.5457 29.4346C22.7057 29.1043 21.9463 28.779 21.8584 28.7116C21.5743 28.4943 21.2083 26.6233 21.1967 25.3297L21.1853 24.0714L21.7407 23.5999C22.9112 22.6061 23.6011 21.8066 23.7677 21.2507L23.9369 20.6863L25.0603 20.6854C25.6783 20.685 26.4199 20.6192 26.7083 20.5391C27.3788 20.3529 28.1219 19.7007 28.4116 19.044L28.6382 18.5305L30.165 18.5828C32.0551 18.6475 33.0691 18.4584 34.5582 17.7635C36.6244 16.7993 38.0515 15.403 39.0394 13.3789C40.3523 10.689 40.3193 7.93376 38.9408 5.14108C37.431 2.0825 34.1258 0.00961607 30.7434 3.54428e-05C28.3335 -0.00676819 25.9074 0.966291 24.198 2.62527L23.6022 3.20344L22.9649 2.64248C20.4888 0.46296 17.0209 -0.453447 13.8262 0.227471ZM17.9223 1.53002C19.3802 1.84993 21.2472 2.81702 22.2695 3.78174L22.7984 4.28091L22.5098 4.84686C22.3509 5.15816 22.1842 5.41281 22.1392 5.41281C22.0942 5.41281 21.7176 5.10234 21.3026 4.72301C19.988 3.52154 17.7357 2.64068 15.9784 2.64068C14.2454 2.64068 12.0191 3.51029 10.6774 4.71134C8.9354 6.2709 8.10591 8.19411 7.96484 11.0011L7.88278 12.633H7.27906H6.67548V11.1279C6.67548 8.18564 7.50941 6.07984 9.43915 4.14928C10.3968 3.19122 10.866 2.84145 11.8129 2.37964C12.462 2.0632 13.3368 1.71427 13.7568 1.6043C14.6417 1.3727 17.0127 1.33049 17.9223 1.53002ZM32.6341 1.59097C35.4104 2.32979 37.6635 4.61123 38.3967 7.42544C38.6469 8.38641 38.6745 9.94986 38.4596 10.9947C38.2157 12.1801 37.3301 13.8722 36.5036 14.7318C33.3103 18.0533 28.3936 18.1918 25.1416 15.0523C22.4228 12.4275 21.897 8.49069 23.8241 5.18787C24.7566 3.58971 26.742 2.1143 28.6529 1.59958C29.6069 1.34271 31.684 1.33813 32.6341 1.59097ZM18.4817 4.48918C19.4778 4.89921 20.6667 5.80006 21.1987 6.54763C21.5304 7.01389 21.5367 7.06623 21.4038 8.26867C21.3286 8.95084 21.2797 9.63384 21.2955 9.78657C21.3229 10.0518 21.243 10.064 19.5191 10.0575C17.8915 10.0514 17.6321 10.0153 16.8809 9.69049C12.3265 7.72174 11.6223 7.53749 10.5176 8.0261C10.1609 8.18397 9.86902 8.25159 9.86902 8.17647C9.86902 7.82921 10.5299 6.80894 11.2306 6.07429C12.1478 5.11276 12.6289 4.7984 13.8687 4.35061C15.1706 3.88033 17.1471 3.93976 18.4817 4.48918ZM30.1688 4.19093C29.7794 4.58041 30.0728 5.27396 30.627 5.27396C30.9992 5.27396 31.2519 5.02126 31.2519 4.64914C31.2519 4.27702 30.9992 4.02431 30.627 4.02431C30.4667 4.02431 30.2605 4.09929 30.1688 4.19093ZM28.8299 6.97112C28.7111 7.14079 28.6137 7.32824 28.6137 7.38767C28.6137 7.64815 29.2038 8.05095 29.5857 8.05095H30.0022V10.6891V13.3272H29.177C28.4817 13.3272 28.3177 13.3758 28.1357 13.6359C27.8574 14.033 27.8628 14.1037 28.1972 14.438C28.4506 14.6914 28.66 14.7157 30.5961 14.7157C32.2913 14.7157 32.7794 14.6723 33.0259 14.4995C33.731 14.0058 33.2276 13.3657 32.0833 13.301L31.3213 13.2578L31.2838 10.1447C31.2596 8.13343 31.1922 6.96612 31.0933 6.84699C30.9933 6.72647 30.6114 6.66246 29.9931 6.66246C29.1718 6.66246 29.0174 6.70342 28.8299 6.97112ZM13.618 9.77019C14.4198 10.1029 15.5227 10.5705 16.0687 10.8093C17.2771 11.3377 18.857 11.5808 20.3574 11.4693L21.4734 11.3863L22.0148 12.6691C22.5543 13.9478 22.5563 13.9593 22.6063 16.1277L22.6562 18.3035L21.5471 19.1477C20.5296 19.9223 20.3802 19.992 19.7387 19.992C19.1513 19.992 19.0041 20.046 18.8182 20.3298C18.3608 21.0278 19.1424 21.5141 20.4416 21.34C20.8222 21.2889 21.2604 21.0601 21.8212 20.6193C22.6051 20.0034 22.6432 19.9891 22.6432 20.3094C22.6432 20.4941 22.5027 20.8537 22.3308 21.1087C21.9741 21.6377 18.4613 24.7762 17.8945 25.0724C17.4238 25.3183 14.5776 25.345 14.1295 25.1077C13.4326 24.7385 9.6856 21.3076 9.50343 20.8719C9.22171 20.1977 9.23503 13.1635 9.52065 11.8059C9.89915 10.0064 10.5881 9.16119 11.6741 9.16411C11.9414 9.1648 12.8161 9.43751 13.618 9.77019ZM10.9203 12.8511C10.6187 13.1528 10.6457 13.7038 10.9707 13.8778C11.1184 13.9568 11.8994 14.0215 12.7063 14.0215C13.9883 14.0215 14.2084 13.9865 14.4511 13.7438C14.6038 13.5911 14.7288 13.4036 14.7288 13.3272C14.7288 13.2509 14.6038 13.0634 14.4511 12.9107C14.2072 12.6669 13.9883 12.633 12.6559 12.633C11.4616 12.633 11.092 12.6795 10.9203 12.8511ZM17.6099 12.7829C17.2732 12.979 17.2898 13.6928 17.6354 13.8778C17.7832 13.9568 18.5371 14.0215 19.3108 14.0215C20.9324 14.0215 21.2547 13.9064 21.2547 13.3272C21.2547 13.0672 21.1578 12.8686 20.9862 12.7767C20.6408 12.5919 17.9292 12.5969 17.6099 12.7829ZM7.92513 16.6596V19.2978H6.7556C5.69992 19.2978 5.54441 19.2628 5.15883 18.9383L4.73159 18.5788V16.6896C4.73159 14.8285 4.73714 14.7946 5.10468 14.411C5.45819 14.0419 5.54205 14.0215 6.70145 14.0215H7.92513V16.6596ZM11.5699 14.8077C11.2123 14.9521 11.3912 15.5763 11.9508 16.1359C12.3923 16.5776 12.574 16.673 12.844 16.6052C13.0304 16.5584 13.2225 16.3953 13.271 16.2428C13.3193 16.0902 13.4501 15.9654 13.5613 15.9654C13.8522 15.9654 14.0695 15.3182 13.8908 14.9844C13.7681 14.7552 13.6002 14.7174 12.7453 14.7267C12.1943 14.7327 11.6655 14.7692 11.5699 14.8077ZM18.2593 14.822C17.8634 15.0931 17.9395 15.423 18.5434 16.0533C19.055 16.5873 19.2157 16.6788 19.5116 16.6045C19.7065 16.5555 19.8662 16.4547 19.8662 16.3804C19.8662 16.306 20.0536 16.0783 20.2827 15.874C20.7529 15.4552 20.7964 15.2492 20.4812 14.9339C20.2511 14.7039 18.5564 14.6185 18.2593 14.822ZM26.6346 17.7363C26.995 17.8844 27.2244 18.0687 27.2247 18.2103C27.2265 18.9929 26.6447 19.2978 25.1494 19.2978H24.0317V17.6385V15.9791L25.0383 16.7366C25.5921 17.1531 26.3103 17.603 26.6346 17.7363ZM15.1453 18.0796C14.7565 18.2854 14.6213 18.7926 14.874 19.0971C15.115 19.3877 16.854 19.3743 17.1488 19.0796C17.413 18.8153 17.4244 18.5963 17.1903 18.2761C16.9547 17.9538 15.6243 17.826 15.1453 18.0796ZM14.1797 20.8869C13.9262 21.1922 14.0628 21.7 14.4511 21.8957C14.6491 21.9955 15.3053 22.0707 15.9784 22.0707C17.2915 22.0707 17.8295 21.8838 17.8983 21.4041C17.9877 20.7804 17.736 20.6863 15.9784 20.6863C14.7246 20.6863 14.3076 20.7328 14.1797 20.8869ZM14.8954 22.7968C14.6314 23.0607 14.6929 23.7121 14.9973 23.875C15.145 23.954 15.6136 24.0187 16.0387 24.0187C16.6264 24.0187 16.878 23.9522 17.0892 23.741C17.4236 23.4066 17.429 23.3359 17.1507 22.9388C16.9637 22.6717 16.8085 22.6302 15.9983 22.6302C15.4552 22.6302 14.992 22.7001 14.8954 22.7968ZM13.9911 26.4632C14.8758 26.7296 17.2982 26.7176 18.0784 26.443C18.4126 26.3255 18.9166 26.0443 19.1985 25.8182C19.4805 25.5921 19.746 25.4072 19.7886 25.4072C19.8313 25.4072 19.8662 25.6597 19.8662 25.9684C19.8662 26.601 20.2412 28.5414 20.4326 28.899C20.7246 29.4446 19.0077 30.2983 17.0663 30.5729C15.2711 30.8267 12.7954 30.3238 11.8539 29.5141L11.492 29.2028L11.7914 28.0295C11.9559 27.3841 12.0915 26.6707 12.0926 26.4441C12.0935 26.2173 12.132 25.8919 12.1778 25.7205C12.2611 25.4101 12.2631 25.4105 12.8047 25.8394C13.1035 26.0761 13.6374 26.3569 13.9911 26.4632ZM11.1203 30.6285C12.2459 31.4371 13.5524 31.8195 15.4617 31.8993C17.8665 31.9997 19.7733 31.5286 21.0214 30.5256L21.5532 30.0982L22.1676 30.3328C22.5056 30.462 22.782 30.6235 22.782 30.6916C22.782 30.8805 21.4252 31.9124 20.6811 32.2895C19.3007 32.9889 18.0091 33.2511 15.9784 33.244C13.2282 33.2341 11.3661 32.6398 9.88346 31.299L9.13437 30.6214L9.67519 30.3784C9.97274 30.2447 10.2628 30.1337 10.32 30.1317C10.3771 30.1297 10.7372 30.3533 11.1203 30.6285ZM8.70533 32.0564C11.4508 34.5721 15.9143 35.3462 19.9288 34.0028C21.3997 33.5106 22.2691 32.9918 23.3788 31.9441L24.1839 31.1839L24.8367 31.425C26.034 31.8674 28.1046 33.105 28.8316 33.8128C29.9421 34.8941 30.5525 36.3298 30.556 37.8689L30.5576 38.5979H28.2666H25.9756V37.7619C25.9756 36.998 25.9446 36.9117 25.6176 36.7627C25.0449 36.5017 24.8069 36.7544 24.7259 37.7095L24.6565 38.5284L16.0131 38.5643L7.36973 38.6V37.8809C7.36973 37.1112 7.10661 36.654 6.66382 36.654C6.20673 36.654 5.98123 37.0471 5.98123 37.8441V38.5979H3.67022H1.35907L1.43863 37.5912C1.64246 35.0131 2.76825 33.6321 6.0197 31.972C6.80031 31.5735 7.5233 31.2454 7.62619 31.243C7.72893 31.2408 8.21463 31.6067 8.70533 32.0564Z" fill="#FF0000"/>
</svg>
