<svg width="10" height="10" viewBox="0 0 10 10" fill="none" xmlns="http://www.w3.org/2000/svg">
<path d="M6.10138 4.99968L9.84024 1.26065C9.94309 1.15772 9.99984 1.02041 10 0.873984C10 0.72748 9.94325 0.59 9.84024 0.487236L9.5126 0.159675C9.40959 0.0565041 9.27228 0 9.12569 0C8.97935 0 8.84203 0.0565041 8.73902 0.159675L5.00016 3.89846L1.26114 0.159675C1.15829 0.0565041 1.02089 0 0.87439 0C0.728049 0 0.59065 0.0565041 0.487805 0.159675L0.16 0.487236C-0.0533333 0.700569 -0.0533333 1.04756 0.16 1.26065L3.89894 4.99968L0.16 8.73854C0.0570732 8.84163 0.000406504 8.97895 0.000406504 9.12537C0.000406504 9.27179 0.0570732 9.40911 0.16 9.51212L0.487724 9.83968C0.590569 9.94277 0.728049 9.99935 0.874309 9.99935C1.02081 9.99935 1.15821 9.94277 1.26106 9.83968L5.00008 6.10082L8.73894 9.83968C8.84195 9.94277 8.97927 9.99935 9.12561 9.99935H9.12577C9.27219 9.99935 9.40951 9.94277 9.51252 9.83968L9.84016 9.51212C9.94301 9.40919 9.99976 9.27179 9.99976 9.12537C9.99976 8.97895 9.94301 8.84163 9.84016 8.73862L6.10138 4.99968Z" fill="black" fill-opacity="0.2"/>
</svg>
