<svg width="27" height="26" viewBox="0 0 27 26" fill="none" xmlns="http://www.w3.org/2000/svg">
<path fill-rule="evenodd" clip-rule="evenodd" d="M9.56346 0.246925C9.21495 0.386864 8.69091 0.609066 8.39897 0.740597C7.95486 0.940741 7.78966 0.970663 7.38746 0.923474C6.95096 0.872218 6.85365 0.896716 6.32789 1.19033C4.56341 2.17578 2.8431 3.89075 1.86228 5.64215C1.56075 6.18065 1.53395 6.2829 1.58374 6.70307C1.63371 7.12397 1.59497 7.27042 1.17548 8.24646C0.64954 9.47038 0.55793 9.94814 0.770388 10.3586C0.961031 10.7266 1.36522 10.9585 2.17124 11.1624L2.8355 11.3304L2.77485 11.6925C2.50482 13.3041 2.48056 14.3238 2.68161 15.6254C3.10571 18.3722 4.17551 20.5123 6.07388 22.4115C7.14586 23.484 7.82062 23.9879 9.06939 24.6486C10.6591 25.4897 12.2726 25.9128 14.1802 25.9887C16.2288 26.0702 17.9955 25.7123 19.8146 24.847C21.0496 24.2595 21.9653 23.6191 23.0132 22.6102C24.8144 20.8761 25.9618 18.7865 26.5091 16.2434C26.7329 15.2033 26.7358 12.7158 26.5144 11.6892C25.9568 9.10363 24.7708 6.96198 22.9251 5.20796C20.0811 2.50528 16.3563 1.41932 12.324 2.11747L12.0067 2.17234L11.8384 1.50872C11.4599 0.0164975 10.9046 -0.291494 9.56346 0.246925ZM10.729 1.41009C10.9057 1.95584 11.4224 3.90322 11.3948 3.91949C11.3833 3.92627 11.1703 4.00474 10.9213 4.09387C10.2908 4.3196 9.03861 4.9966 8.43781 5.43658C6.8493 6.59975 5.37911 8.52263 4.76011 10.2466C4.67086 10.4952 4.59228 10.7079 4.5855 10.7194C4.56911 10.7471 2.61806 10.2307 2.06922 10.0535C1.69119 9.93133 1.6434 9.88857 1.6949 9.71844C1.82426 9.29121 2.39347 7.96478 2.60014 7.60897C2.85822 7.16456 2.87017 7.01802 2.6731 6.71763C2.53125 6.50148 2.54175 6.4702 3.01256 5.70651C3.67601 4.63039 5.29737 3.01125 6.37496 2.34871C7.1397 1.87855 7.17102 1.86806 7.38746 2.00971C7.68357 2.20344 7.85067 2.19413 8.22508 1.96307C8.51593 1.78353 10.3944 0.98341 10.5293 0.981511C10.5627 0.981059 10.6526 1.17397 10.729 1.41009ZM16.3788 3.07254C18.5821 3.37701 20.6932 4.4524 22.3803 6.12958C23.4012 7.14458 23.9076 7.83722 24.5307 9.07145C25.3296 10.6536 25.6652 12.0979 25.6652 13.953C25.6652 15.285 25.5818 15.8755 25.2147 17.1402C24.2613 20.426 21.4882 23.3111 18.2537 24.3826C16.8467 24.8486 16.1192 24.9662 14.6328 24.9676C13.4871 24.9687 13.1177 24.9323 12.2685 24.7343C9.99146 24.2038 8.1465 23.1508 6.58018 21.4881C4.4412 19.2175 3.35148 16.0723 3.6407 13.0038C3.77477 11.5813 3.72643 11.6632 4.43179 11.6639C4.76482 11.6642 5.40392 11.6277 5.85201 11.5827C7.09987 11.4574 7.51637 11.1766 8.3701 9.88504C8.88037 9.11294 9.81485 8.18463 10.6045 7.66537C11.8503 6.84617 12.1348 6.41949 12.2592 5.18427C12.3042 4.73679 12.3407 4.09731 12.3404 3.76319L12.3396 3.15562L12.6563 3.09632C13.7471 2.89192 15.0135 2.88388 16.3788 3.07254ZM8.40069 3.40602C8.07789 3.7622 8.2908 4.23508 8.77401 4.23508C8.99317 4.23508 9.24663 3.95999 9.24663 3.72215C9.24663 3.30803 8.68104 3.09668 8.40069 3.40602ZM14.7541 4.21248C14.4619 4.55988 13.6823 6.03466 13.6823 6.24005C13.6823 6.75722 14.2695 6.84645 14.6174 6.38206C15.0056 5.8638 15.5833 4.76807 15.5833 4.54985C15.5833 4.11078 15.0292 3.88532 14.7541 4.21248ZM11.2024 5.63075C11.115 5.97816 10.8011 6.29365 9.98766 6.85133C9.00829 7.52272 8.20951 8.32339 7.49039 9.35467C6.8761 10.2356 6.47725 10.563 6.01875 10.563H5.71441L6.13344 9.72684C7.08312 7.83171 8.39481 6.50555 10.2853 5.52915C11.1263 5.09487 11.1951 5.07398 11.223 5.24457C11.2396 5.34582 11.2303 5.51965 11.2024 5.63075ZM18.6611 6.08899C18.1881 6.35937 17.7424 6.67866 17.6706 6.79853C17.5551 6.99181 17.5579 7.04352 17.6954 7.25306C17.907 7.57561 18.1683 7.55454 18.856 7.15959C19.172 6.97816 19.5992 6.73318 19.8053 6.61502C20.2306 6.3714 20.3462 6.09631 20.1495 5.79646C19.9421 5.48042 19.6126 5.54515 18.6611 6.08899ZM4.05557 7.7452C3.85905 7.96207 3.86547 8.2386 4.07132 8.42464C4.52331 8.83315 5.10311 8.30577 4.80782 7.75469C4.68715 7.52959 4.2559 7.52417 4.05557 7.7452ZM13.3654 7.99642C12.059 8.26563 10.5911 9.18933 9.81965 10.2275C7.93368 12.7658 8.1427 16.0775 10.3261 18.2521C10.9558 18.8793 11.8536 19.4773 12.2991 19.5663C12.6538 19.6372 12.8871 19.4091 12.8498 19.0281C12.8261 18.7857 12.7424 18.7035 12.2398 18.4292C10.5671 17.5166 9.57052 15.8435 9.57351 13.953C9.57578 12.5389 10.0568 11.3812 11.0571 10.3822C12.0574 9.38333 13.2167 8.90294 14.6328 8.90068C17.4674 8.89616 19.6933 11.1185 19.6933 13.953C19.6933 15.9678 18.6121 17.6615 16.724 18.604C16.3393 18.7961 16.2822 19.2519 16.6155 19.47C16.9199 19.6692 17.2713 19.5519 18.0873 18.9787C19.6845 17.857 20.6157 16.2009 20.7214 14.2943C20.9426 10.299 17.3049 7.18445 13.3654 7.99642ZM20.8538 9.2574C20.7249 9.34753 20.6526 9.4919 20.6526 9.65904C20.6526 10.1069 20.9085 10.2014 22.1211 10.2014C23.0666 10.2014 23.2077 10.181 23.3683 10.0206C23.6072 9.78208 23.5967 9.6077 23.3271 9.33858C23.1173 9.12912 23.0476 9.11665 22.0799 9.11665C21.2987 9.11665 21.0071 9.1501 20.8538 9.2574ZM14.4318 9.9382C14.0378 10.0845 14.0868 10.7494 14.5013 10.8808C14.7845 10.9706 15.1307 10.7013 15.1307 10.3912C15.1307 10.0149 14.8009 9.80124 14.4318 9.9382ZM12.4451 10.6186C12.3061 10.8304 12.3039 10.8799 12.4232 11.0932C12.6768 11.5467 13.3428 11.3918 13.3428 10.8794C13.3428 10.3816 12.7194 10.2005 12.4451 10.6186ZM16.0876 10.5243C15.7796 10.8319 16.0078 11.3766 16.4446 11.3766C16.6705 11.3766 16.9411 11.0778 16.9411 10.8281C16.9411 10.4586 16.3604 10.2519 16.0876 10.5243ZM11.2583 11.7886C10.876 12.056 11.0821 12.6648 11.555 12.6648C12.0279 12.6648 12.234 12.056 11.8516 11.7886C11.741 11.7112 11.6075 11.6478 11.555 11.6478C11.5025 11.6478 11.369 11.7112 11.2583 11.7886ZM17.4139 11.7886C16.929 12.1278 17.4094 12.8757 17.9426 12.6117C18.2201 12.4743 18.2841 12.062 18.0654 11.8207C17.8755 11.611 17.6813 11.6015 17.4139 11.7886ZM14.0044 12.0318C13.4902 12.1675 12.8386 12.8448 12.7024 13.3854C12.5619 13.9423 12.568 14.1552 12.7389 14.656C12.8965 15.118 13.4195 15.6532 13.9156 15.8602C15.1584 16.3787 16.6612 15.348 16.6676 13.9727C16.6701 13.4292 16.5061 13.0335 16.0859 12.5689C15.57 11.9987 14.8421 11.8109 14.0044 12.0318ZM15.2563 13.1721C15.3503 13.2536 15.4834 13.4527 15.552 13.6147C15.8809 14.3907 15.0669 15.1977 14.2877 14.8683C13.8653 14.6898 13.6606 14.4163 13.6501 14.0167C13.6276 13.16 14.6327 12.6316 15.2563 13.1721ZM4.86268 13.1458C4.6743 13.3341 4.68208 13.6661 4.87888 13.8347C5.22341 14.1298 6.68627 14.9022 6.90072 14.9022C7.19374 14.9022 7.34564 14.7465 7.34564 14.4461C7.34564 14.1511 7.23276 14.0518 6.23393 13.4682C5.40039 12.9812 5.09867 12.9103 4.86268 13.1458ZM22.0149 13.134C21.7897 13.4049 21.941 13.7551 22.4178 14.0667C23.7318 14.9253 24.3814 15.089 24.5062 14.5929C24.5956 14.237 24.4137 14.0457 23.4784 13.5121C22.5714 12.9949 22.2085 12.901 22.0149 13.134ZM10.7462 13.5759C10.5571 13.714 10.5292 14.1151 10.6947 14.3143C10.8662 14.5205 11.2946 14.4841 11.4593 14.2493C11.6456 13.9838 11.6371 13.8542 11.4192 13.6366C11.2091 13.4268 10.9789 13.406 10.7462 13.5759ZM17.8464 13.6366C17.6285 13.8542 17.62 13.9838 17.8062 14.2493C17.9615 14.4706 18.3724 14.5215 18.5524 14.3417C18.7293 14.1651 18.6867 13.6567 18.486 13.5494C18.2261 13.4105 18.0485 13.4348 17.8464 13.6366ZM11.1993 15.4058C11.0086 15.5964 11.0194 15.925 11.2227 16.1086C11.4292 16.2954 11.5941 16.2976 11.8516 16.1175C12.2287 15.8538 12.0237 15.2638 11.555 15.2638C11.4377 15.2638 11.2776 15.3277 11.1993 15.4058ZM17.3549 15.4058C17.0532 15.7072 17.3163 16.2582 17.762 16.2582C17.977 16.2582 18.2084 15.9632 18.2084 15.6892C18.2084 15.3005 17.6471 15.1141 17.3549 15.4058ZM12.5055 16.7102C12.2775 16.9378 12.2747 17.1796 12.4975 17.381C12.8914 17.737 13.5414 17.3086 13.3008 16.8515C13.106 16.4816 12.7905 16.4255 12.5055 16.7102ZM16.0876 16.6714C15.9193 16.8396 15.9002 17.2617 16.054 17.4153C16.314 17.6749 16.9411 17.4253 16.9411 17.0622C16.9411 16.6313 16.3835 16.376 16.0876 16.6714ZM21.3064 17.0318C20.9984 17.2472 21.0588 17.5403 21.5994 18.4526C22.2386 19.5315 22.2041 19.4862 22.4389 19.555C22.5858 19.598 22.7032 19.5522 22.8684 19.3872C23.1406 19.1154 23.1296 19.0748 22.4624 17.8929C21.9007 16.8979 21.7055 16.7525 21.3064 17.0318ZM14.3159 17.1622C14.1138 17.3641 14.0895 17.5414 14.2286 17.801C14.336 18.0014 14.8451 18.044 15.022 17.8673C15.2021 17.6875 15.1511 17.2772 14.9294 17.1222C14.6635 16.9361 14.5338 16.9446 14.3159 17.1622ZM6.00843 17.8158C5.67739 17.9752 5.64281 18.3289 5.93384 18.5788C6.1597 18.7728 6.26054 18.7894 7.219 18.7894C8.20263 18.7894 8.27115 18.7774 8.48126 18.5675C8.75889 18.2902 8.75889 18.2038 8.48126 17.9265C8.2707 17.7163 8.20552 17.705 7.23656 17.7107C6.67423 17.7141 6.12159 17.7614 6.00843 17.8158ZM14.2847 19.2259C14.0882 19.4428 14.0946 19.7193 14.3005 19.9054C14.6263 20.1999 15.1307 19.9746 15.1307 19.5346C15.1307 19.1074 14.5756 18.9049 14.2847 19.2259ZM18.5197 20.1864C18.4014 20.3668 18.3798 20.613 18.4044 21.5047C18.431 22.4652 18.4566 22.617 18.6105 22.7293C18.7071 22.7997 18.8521 22.8574 18.9326 22.8574C19.0132 22.8574 19.1581 22.7997 19.2548 22.7293C19.4087 22.617 19.4342 22.4652 19.4608 21.5047C19.4958 20.2393 19.4015 19.9646 18.9326 19.9646C18.7486 19.9646 18.6199 20.0337 18.5197 20.1864ZM10.1066 20.9174C9.15457 21.4827 8.90617 21.7464 9.05844 22.0304C9.29669 22.4751 9.46579 22.4575 10.4989 21.8811C11.606 21.2633 11.8141 21.0248 11.5701 20.653C11.3429 20.3066 11.0445 20.3605 10.1066 20.9174ZM14.7507 21.3884C14.458 21.7279 13.6823 23.1569 13.6823 23.3566C13.6823 23.7968 14.2313 24.0181 14.5184 23.6936C14.5953 23.6066 14.8664 23.171 15.1208 22.7256C15.5834 21.9155 15.6786 21.5423 15.4746 21.3387C15.3146 21.1788 14.9073 21.2068 14.7507 21.3884Z" fill="#FF0000"/>
</svg>
