<svg width="19" height="19" viewBox="0 0 19 19" fill="none" xmlns="http://www.w3.org/2000/svg">
<g clip-path="url(#clip0_35_19060)">
<path d="M15.2955 17.9979C15.1471 17.9979 14.9997 17.954 14.8733 17.8683L10.0959 14.6277L7.53361 16.4714C7.33265 16.6159 7.07364 16.6523 6.84029 16.5689C6.60724 16.4852 6.43025 16.2922 6.36708 16.0528L5.08051 11.1771L0.483458 9.41934C0.194056 9.30863 0.00212334 9.03176 1.74993e-05 8.7219C-0.00208834 8.41204 0.186033 8.13257 0.474032 8.01795L17.9537 1.06266C18.033 1.02896 18.117 1.00951 18.2016 1.0043C18.2319 1.00249 18.2623 1.00249 18.2924 1.0042C18.4677 1.01462 18.6399 1.08602 18.7743 1.21779C18.7882 1.23143 18.8015 1.24536 18.814 1.25991C18.9253 1.38706 18.9865 1.54209 18.998 1.70003C19.0008 1.73974 19.0006 1.77995 18.9971 1.82016C18.9947 1.84884 18.9906 1.87742 18.9848 1.9058L16.0343 17.3866C15.9869 17.6353 15.8176 17.8435 15.5837 17.9405C15.491 17.979 15.393 17.9979 15.2955 17.9979ZM10.5154 13.0946L14.7709 15.9811L17.0666 3.93533L8.77495 11.9141L10.4953 13.0811C10.5022 13.0854 10.5089 13.09 10.5154 13.0946ZM6.97286 12.4527L7.54264 14.6117L8.77024 13.7284L7.16278 12.638C7.08808 12.5874 7.0241 12.5244 6.97286 12.4527ZM2.82144 8.70275L5.978 9.9096C6.20412 9.99603 6.3748 10.1862 6.43657 10.4202L6.83688 11.9373C6.85523 11.7623 6.93455 11.5977 7.06341 11.4736L14.9642 3.87115L2.82144 8.70275Z" fill="white"/>
</g>
<defs>
<clipPath id="clip0_35_19060">
<rect width="19" height="19" fill="white"/>
</clipPath>
</defs>
</svg>
