<svg width="20" height="30" viewBox="0 0 20 30" fill="none" xmlns="http://www.w3.org/2000/svg">
<path fill-rule="evenodd" clip-rule="evenodd" d="M8.73114 0.216447C8.08148 0.483591 7.48041 1.03711 7.1689 1.65507C6.9903 2.00944 6.9403 2.28137 6.91001 3.06226C6.8738 3.99811 6.8647 4.03319 6.63367 4.12099C6.50225 4.17098 6.36305 4.17858 6.32441 4.13797C6.28567 4.09735 5.98823 3.36768 5.6634 2.51644C4.98709 0.744075 4.77886 0.452824 4.18791 0.452824C3.81815 0.452824 2.11361 1.05671 1.67828 1.34196C1.55915 1.42 1.41939 1.64231 1.3678 1.83601C1.31612 2.02971 1.23338 3.50153 1.18395 5.10683L1.09409 8.02544L0.816065 8.57745C0.663076 8.88099 0.416943 9.48816 0.268926 9.92668L0 10.724V19.7905V28.8569L0.286842 29.2174C0.444615 29.4157 0.759597 29.6728 0.986782 29.7889L1.39988 30H9.80216H18.2044L18.6175 29.7889C18.8447 29.6728 19.1597 29.4157 19.3175 29.2174L19.6043 28.8569V19.7905V10.724L19.3354 9.92668C19.1874 9.48816 18.9401 8.87883 18.7858 8.57258L18.5053 8.01578L18.4183 5.10196C18.3705 3.49937 18.2889 2.02971 18.237 1.83601C18.1851 1.64231 18.0452 1.42 17.926 1.34196C17.4907 1.05671 15.7862 0.452824 15.4164 0.452824C14.8255 0.452824 14.6172 0.744075 13.9409 2.51644C13.6161 3.36768 13.3186 4.09735 13.2799 4.13797C13.2413 4.17858 13.1021 4.17098 12.9706 4.12099C12.7396 4.03319 12.7305 3.99811 12.6943 3.06226C12.6498 1.91433 12.4515 1.42582 11.7715 0.789756C10.9331 0.00558326 9.77524 -0.212784 8.73114 0.216447ZM10.7968 1.25088C11.2333 1.50667 11.5369 1.87268 11.6342 2.26017L11.6965 2.50828L11.148 2.20755C10.6522 1.93562 10.5229 1.90673 9.80216 1.90673C9.08421 1.90673 8.9512 1.93619 8.4655 2.20258C7.86218 2.53341 7.77457 2.45556 8.12041 1.89604C8.68124 0.988519 9.86304 0.703647 10.7968 1.25088ZM4.36463 1.85983C4.73289 2.74128 5.21587 4.04342 5.26418 4.28523C5.30883 4.5081 5.27422 4.55163 4.96299 4.66409C4.76957 4.73407 4.3758 4.93058 4.08792 5.10092C3.79995 5.27127 3.53262 5.3797 3.4937 5.34199C3.38676 5.23834 2.29952 2.39862 2.29877 2.22106C2.2983 2.11403 2.55081 1.96498 3.11887 1.73705C3.57033 1.55592 3.99562 1.41447 4.064 1.42272C4.13238 1.43098 4.26764 1.62768 4.36463 1.85983ZM16.4339 1.72879C17.048 1.96677 17.3062 2.11291 17.3062 2.22237C17.3062 2.39196 16.2094 5.24369 16.1044 5.34706C16.0689 5.38204 15.8044 5.27127 15.5164 5.10092C15.2285 4.93058 14.838 4.73529 14.6487 4.66681C14.4595 4.59834 14.3046 4.49413 14.3046 4.43522C14.3046 4.313 14.5416 3.63491 14.9425 2.61024C15.3979 1.44627 15.423 1.39083 15.4936 1.39083C15.5309 1.39083 15.9542 1.54288 16.4339 1.72879ZM10.7968 3.12689C11.0169 3.25587 11.2838 3.48343 11.39 3.63257C11.6536 4.0028 11.5938 4.01725 9.80216 4.01725C8.00738 4.01725 7.95035 4.00327 8.21721 3.62844C8.78883 2.8257 9.91059 2.60752 10.7968 3.12689ZM2.48159 6.31967C2.36274 6.4463 2.23058 6.54986 2.18799 6.54986C2.09504 6.54986 2.08687 5.90395 2.17205 5.2828L2.23358 4.83369L2.46574 5.46168L2.6978 6.08958L2.48159 6.31967ZM17.4884 6.05741C17.4914 6.3283 17.4589 6.54986 17.4163 6.54986C17.3737 6.54986 17.2384 6.44293 17.1156 6.31217C16.9108 6.09418 16.9024 6.04944 17.0139 5.77282C17.0809 5.60688 17.184 5.32445 17.2432 5.1451L17.3507 4.81915L17.4168 5.192C17.4532 5.39715 17.4855 5.78651 17.4884 6.05741ZM13.2728 5.17306C14.1008 5.41497 15.4298 6.12832 16.0614 6.66983C17.2059 7.65117 17.8784 8.66966 18.3974 10.2081L18.6663 11.0054L18.6945 19.5412C18.7098 24.236 18.6971 28.2163 18.6658 28.3864C18.6268 28.5996 18.516 28.7525 18.3095 28.8785C18.0183 29.056 17.7724 29.0613 9.80216 29.0613C1.83192 29.0613 1.58598 29.056 1.29482 28.8785C1.08827 28.7525 0.977495 28.5996 0.938474 28.3864C0.907239 28.2163 0.894482 24.236 0.909865 19.5412L0.938006 11.0054L1.20693 10.2081C1.56975 9.13257 1.91503 8.47118 2.4829 7.76364C3.61085 6.35813 5.27778 5.34527 6.94828 5.05046C7.20238 5.00562 8.61324 4.98095 10.0836 4.99559C12.2018 5.01678 12.864 5.05365 13.2728 5.17306ZM6.72766 8.26172L6.75364 9.59838H9.80216H12.8507L12.8767 8.26172L12.9027 6.92506H9.80216H6.70158L6.72766 8.26172ZM11.8658 8.28517V8.70727H9.80216H7.73855V8.28517V7.86307H9.80216H11.8658V8.28517ZM2.98051 16.3009C2.54875 16.4056 2.23349 16.6358 2.04213 16.986C1.88914 17.266 1.87601 17.6798 1.87601 22.2219V27.1537L2.14634 27.5081C2.6357 28.1497 2.3165 28.124 9.80216 28.124C17.2878 28.124 16.9686 28.1497 17.458 27.5081L17.7283 27.1537V22.2219C17.7283 17.4304 17.7229 17.2807 17.5374 16.965C17.4324 16.7863 17.2002 16.5542 17.0215 16.4491C16.7035 16.2623 16.552 16.2578 9.98976 16.2428C6.30105 16.2344 3.14692 16.2606 2.98051 16.3009ZM16.6308 17.3557C16.7057 17.4305 16.7434 17.8393 16.7434 18.5751V19.6819H9.80216H2.86092V18.5751C2.86092 17.8393 2.89862 17.4305 2.97348 17.3557C3.13632 17.1928 16.468 17.1928 16.6308 17.3557ZM14.9424 21.2062L14.9706 21.7456H15.4302H15.8898L15.918 21.2062L15.9461 20.6668H16.3213H16.6965L16.7222 23.7623C16.7477 26.8245 16.7458 26.8595 16.5477 27.0218C16.3612 27.1746 15.8974 27.186 9.81266 27.186C4.04993 27.186 3.25319 27.1687 3.06944 27.0399C2.8612 26.8941 2.86092 26.8902 2.86092 23.8195C2.86092 22.1285 2.88934 20.7166 2.92414 20.6818C2.95894 20.6471 5.6709 20.6294 8.95082 20.6427L14.9143 20.6668L14.9424 21.2062Z" fill="white"/>
</svg>
