<svg width="26" height="32" viewBox="0 0 26 32" fill="none" xmlns="http://www.w3.org/2000/svg">
<mask id="path-1-outside-1_35_30612" maskUnits="userSpaceOnUse" x="0" y="0" width="26" height="32" fill="black">
<rect fill="white" width="26" height="32"/>
<path fill-rule="evenodd" clip-rule="evenodd" d="M11.6968 1.10447C11.4809 1.17495 11.1593 1.32221 10.982 1.43179C10.5461 1.70112 9.85529 2.45585 9.70145 2.83062L9.57599 3.13605H8.40655C7.28504 3.13605 6.92417 3.20596 6.75745 3.45556C6.71949 3.51242 6.68782 3.86558 6.68697 4.24027L6.68556 4.92159H5.09154C3.69129 4.92159 3.43182 4.94612 2.95828 5.12327C2.27422 5.37926 1.5991 6.00411 1.25956 6.69539L1 7.22401V18.0783V28.9325L1.21615 29.3713C1.48003 29.9071 2.13194 30.5242 2.72202 30.7969L3.16145 31H12.794H22.4266L22.866 30.7969C23.4561 30.5242 24.108 29.9071 24.3719 29.3713L24.588 28.9325V18.0783V7.22401L24.3285 6.69539C23.9889 6.00411 23.3138 5.37926 22.6298 5.12327C22.1562 4.94612 21.8967 4.92159 20.4965 4.92159H18.9025V4.22363C18.9025 3.58149 18.8826 3.50998 18.6548 3.33086C18.4337 3.15691 18.2789 3.13605 17.2072 3.13605H16.0072L15.7255 2.63703C15.1414 1.60217 14.1797 1.04865 12.888 1.00401C12.3942 0.986903 11.9394 1.02534 11.6968 1.10447ZM13.3109 2.3941C13.8368 2.53798 14.5159 3.25408 14.6567 3.81286C14.8166 4.44795 15.0094 4.53451 16.3336 4.56618L17.4458 4.59268V6.00232V7.41196H12.794H8.14219V6.00232V4.59268L9.22038 4.56589C10.4657 4.53498 10.6164 4.45594 10.8666 3.70282C11.0606 3.11847 11.695 2.51467 12.2542 2.38189C12.697 2.27673 12.89 2.27898 13.3109 2.3941ZM6.68556 7.32522C6.68556 8.29854 6.69129 8.32494 6.96025 8.5939L7.23495 8.8686H12.794H18.3531L18.6278 8.5939C18.8967 8.32494 18.9025 8.29854 18.9025 7.32522V6.33124H20.3572C22.0722 6.33124 22.434 6.43048 22.8591 7.01717L23.1314 7.39317V18.1048V28.8164L22.7997 29.1292C22.6172 29.3013 22.3106 29.4859 22.1183 29.5392C21.6362 29.6731 3.95179 29.6731 3.4697 29.5392C3.27742 29.4859 2.97087 29.3013 2.78837 29.1292L2.45663 28.8164V18.1125V7.40858L2.70097 7.04912C3.11277 6.44307 3.4883 6.33565 5.20544 6.3333L6.68556 6.33124V7.32522ZM7.99663 12.2126L6.76403 13.3953L6.12311 12.7765C5.77061 12.4362 5.41735 12.1578 5.33813 12.1578C4.79937 12.1578 4.45128 12.648 4.65286 13.1232C4.71131 13.2609 5.13477 13.7555 5.59403 14.2222C6.77719 15.4249 6.67532 15.4446 8.57326 13.6479C9.40007 12.8651 10.1171 12.1489 10.1666 12.0565C10.4066 11.6082 10.038 11.03 9.51227 11.03C9.2779 11.03 9.01758 11.2331 7.99663 12.2126ZM11.5887 13.0331C11.2996 13.3408 11.3188 13.7841 11.632 14.0304C11.8742 14.221 11.9722 14.2252 16.1368 14.2252C18.4867 14.2252 20.4953 14.1867 20.6203 14.1392C20.7448 14.0918 20.8988 13.9271 20.9627 13.7729C21.0589 13.5408 21.0539 13.4447 20.9339 13.2126C20.8542 13.0584 20.7205 12.9061 20.6368 12.874C20.5532 12.8419 18.5291 12.8156 16.1389 12.8156H11.7931L11.5887 13.0331ZM9.17593 16.8741C9.07256 16.9322 8.48784 17.4633 7.87652 18.0543L6.76507 19.1288L6.12358 18.5096C5.50766 17.9149 5.29791 17.8157 4.94428 17.9514C4.70229 18.0442 4.5258 18.5395 4.63265 18.826C4.68161 18.9575 5.10986 19.4561 5.58435 19.9343C6.79345 21.1528 6.67588 21.1748 8.5742 19.3766C9.4027 18.5918 10.1202 17.8757 10.1686 17.7852C10.3169 17.5082 10.2677 17.2349 10.0259 16.9933C9.7787 16.746 9.47844 16.7039 9.17593 16.8741ZM11.5901 18.7398C11.2919 19.0176 11.3121 19.5114 11.632 19.763C11.8742 19.9536 11.9722 19.9578 16.1384 19.9578C19.1035 19.9578 20.468 19.9256 20.6302 19.8516C20.9808 19.6919 21.1141 19.2938 20.9339 18.9451C20.8542 18.791 20.7205 18.6386 20.6368 18.6065C20.5532 18.5745 18.5297 18.5481 16.1402 18.5481C11.898 18.5481 11.7909 18.5527 11.5901 18.7398ZM7.98018 23.6722L6.74204 24.8493L6.12405 24.2361C5.52317 23.6397 5.31417 23.542 4.94428 23.6839C4.70229 23.7768 4.5258 24.2721 4.63265 24.5586C4.68161 24.6901 5.10986 25.1888 5.58435 25.6668C6.74373 26.8353 6.7473 26.8352 8.02576 25.6261C10.4614 23.3224 10.5272 23.227 10.0259 22.7259C9.56903 22.2689 9.3496 22.3703 7.98018 23.6722ZM11.5723 24.4687C11.2925 24.7485 11.3217 25.2515 11.632 25.4955C11.8743 25.6862 11.9716 25.6903 16.1846 25.6903H20.4895L20.7454 25.4702C21.0773 25.1848 21.097 24.7048 20.7873 24.454C20.5861 24.2911 20.3091 24.2807 16.1667 24.2807C11.8856 24.2807 11.7549 24.2861 11.5723 24.4687Z"/>
</mask>
<path fill-rule="evenodd" clip-rule="evenodd" d="M11.6968 1.10447C11.4809 1.17495 11.1593 1.32221 10.982 1.43179C10.5461 1.70112 9.85529 2.45585 9.70145 2.83062L9.57599 3.13605H8.40655C7.28504 3.13605 6.92417 3.20596 6.75745 3.45556C6.71949 3.51242 6.68782 3.86558 6.68697 4.24027L6.68556 4.92159H5.09154C3.69129 4.92159 3.43182 4.94612 2.95828 5.12327C2.27422 5.37926 1.5991 6.00411 1.25956 6.69539L1 7.22401V18.0783V28.9325L1.21615 29.3713C1.48003 29.9071 2.13194 30.5242 2.72202 30.7969L3.16145 31H12.794H22.4266L22.866 30.7969C23.4561 30.5242 24.108 29.9071 24.3719 29.3713L24.588 28.9325V18.0783V7.22401L24.3285 6.69539C23.9889 6.00411 23.3138 5.37926 22.6298 5.12327C22.1562 4.94612 21.8967 4.92159 20.4965 4.92159H18.9025V4.22363C18.9025 3.58149 18.8826 3.50998 18.6548 3.33086C18.4337 3.15691 18.2789 3.13605 17.2072 3.13605H16.0072L15.7255 2.63703C15.1414 1.60217 14.1797 1.04865 12.888 1.00401C12.3942 0.986903 11.9394 1.02534 11.6968 1.10447ZM13.3109 2.3941C13.8368 2.53798 14.5159 3.25408 14.6567 3.81286C14.8166 4.44795 15.0094 4.53451 16.3336 4.56618L17.4458 4.59268V6.00232V7.41196H12.794H8.14219V6.00232V4.59268L9.22038 4.56589C10.4657 4.53498 10.6164 4.45594 10.8666 3.70282C11.0606 3.11847 11.695 2.51467 12.2542 2.38189C12.697 2.27673 12.89 2.27898 13.3109 2.3941ZM6.68556 7.32522C6.68556 8.29854 6.69129 8.32494 6.96025 8.5939L7.23495 8.8686H12.794H18.3531L18.6278 8.5939C18.8967 8.32494 18.9025 8.29854 18.9025 7.32522V6.33124H20.3572C22.0722 6.33124 22.434 6.43048 22.8591 7.01717L23.1314 7.39317V18.1048V28.8164L22.7997 29.1292C22.6172 29.3013 22.3106 29.4859 22.1183 29.5392C21.6362 29.6731 3.95179 29.6731 3.4697 29.5392C3.27742 29.4859 2.97087 29.3013 2.78837 29.1292L2.45663 28.8164V18.1125V7.40858L2.70097 7.04912C3.11277 6.44307 3.4883 6.33565 5.20544 6.3333L6.68556 6.33124V7.32522ZM7.99663 12.2126L6.76403 13.3953L6.12311 12.7765C5.77061 12.4362 5.41735 12.1578 5.33813 12.1578C4.79937 12.1578 4.45128 12.648 4.65286 13.1232C4.71131 13.2609 5.13477 13.7555 5.59403 14.2222C6.77719 15.4249 6.67532 15.4446 8.57326 13.6479C9.40007 12.8651 10.1171 12.1489 10.1666 12.0565C10.4066 11.6082 10.038 11.03 9.51227 11.03C9.2779 11.03 9.01758 11.2331 7.99663 12.2126ZM11.5887 13.0331C11.2996 13.3408 11.3188 13.7841 11.632 14.0304C11.8742 14.221 11.9722 14.2252 16.1368 14.2252C18.4867 14.2252 20.4953 14.1867 20.6203 14.1392C20.7448 14.0918 20.8988 13.9271 20.9627 13.7729C21.0589 13.5408 21.0539 13.4447 20.9339 13.2126C20.8542 13.0584 20.7205 12.9061 20.6368 12.874C20.5532 12.8419 18.5291 12.8156 16.1389 12.8156H11.7931L11.5887 13.0331ZM9.17593 16.8741C9.07256 16.9322 8.48784 17.4633 7.87652 18.0543L6.76507 19.1288L6.12358 18.5096C5.50766 17.9149 5.29791 17.8157 4.94428 17.9514C4.70229 18.0442 4.5258 18.5395 4.63265 18.826C4.68161 18.9575 5.10986 19.4561 5.58435 19.9343C6.79345 21.1528 6.67588 21.1748 8.5742 19.3766C9.4027 18.5918 10.1202 17.8757 10.1686 17.7852C10.3169 17.5082 10.2677 17.2349 10.0259 16.9933C9.7787 16.746 9.47844 16.7039 9.17593 16.8741ZM11.5901 18.7398C11.2919 19.0176 11.3121 19.5114 11.632 19.763C11.8742 19.9536 11.9722 19.9578 16.1384 19.9578C19.1035 19.9578 20.468 19.9256 20.6302 19.8516C20.9808 19.6919 21.1141 19.2938 20.9339 18.9451C20.8542 18.791 20.7205 18.6386 20.6368 18.6065C20.5532 18.5745 18.5297 18.5481 16.1402 18.5481C11.898 18.5481 11.7909 18.5527 11.5901 18.7398ZM7.98018 23.6722L6.74204 24.8493L6.12405 24.2361C5.52317 23.6397 5.31417 23.542 4.94428 23.6839C4.70229 23.7768 4.5258 24.2721 4.63265 24.5586C4.68161 24.6901 5.10986 25.1888 5.58435 25.6668C6.74373 26.8353 6.7473 26.8352 8.02576 25.6261C10.4614 23.3224 10.5272 23.227 10.0259 22.7259C9.56903 22.2689 9.3496 22.3703 7.98018 23.6722ZM11.5723 24.4687C11.2925 24.7485 11.3217 25.2515 11.632 25.4955C11.8743 25.6862 11.9716 25.6903 16.1846 25.6903H20.4895L20.7454 25.4702C21.0773 25.1848 21.097 24.7048 20.7873 24.454C20.5861 24.2911 20.3091 24.2807 16.1667 24.2807C11.8856 24.2807 11.7549 24.2861 11.5723 24.4687Z" fill="white"/>
<path fill-rule="evenodd" clip-rule="evenodd" d="M11.6968 1.10447C11.4809 1.17495 11.1593 1.32221 10.982 1.43179C10.5461 1.70112 9.85529 2.45585 9.70145 2.83062L9.57599 3.13605H8.40655C7.28504 3.13605 6.92417 3.20596 6.75745 3.45556C6.71949 3.51242 6.68782 3.86558 6.68697 4.24027L6.68556 4.92159H5.09154C3.69129 4.92159 3.43182 4.94612 2.95828 5.12327C2.27422 5.37926 1.5991 6.00411 1.25956 6.69539L1 7.22401V18.0783V28.9325L1.21615 29.3713C1.48003 29.9071 2.13194 30.5242 2.72202 30.7969L3.16145 31H12.794H22.4266L22.866 30.7969C23.4561 30.5242 24.108 29.9071 24.3719 29.3713L24.588 28.9325V18.0783V7.22401L24.3285 6.69539C23.9889 6.00411 23.3138 5.37926 22.6298 5.12327C22.1562 4.94612 21.8967 4.92159 20.4965 4.92159H18.9025V4.22363C18.9025 3.58149 18.8826 3.50998 18.6548 3.33086C18.4337 3.15691 18.2789 3.13605 17.2072 3.13605H16.0072L15.7255 2.63703C15.1414 1.60217 14.1797 1.04865 12.888 1.00401C12.3942 0.986903 11.9394 1.02534 11.6968 1.10447ZM13.3109 2.3941C13.8368 2.53798 14.5159 3.25408 14.6567 3.81286C14.8166 4.44795 15.0094 4.53451 16.3336 4.56618L17.4458 4.59268V6.00232V7.41196H12.794H8.14219V6.00232V4.59268L9.22038 4.56589C10.4657 4.53498 10.6164 4.45594 10.8666 3.70282C11.0606 3.11847 11.695 2.51467 12.2542 2.38189C12.697 2.27673 12.89 2.27898 13.3109 2.3941ZM6.68556 7.32522C6.68556 8.29854 6.69129 8.32494 6.96025 8.5939L7.23495 8.8686H12.794H18.3531L18.6278 8.5939C18.8967 8.32494 18.9025 8.29854 18.9025 7.32522V6.33124H20.3572C22.0722 6.33124 22.434 6.43048 22.8591 7.01717L23.1314 7.39317V18.1048V28.8164L22.7997 29.1292C22.6172 29.3013 22.3106 29.4859 22.1183 29.5392C21.6362 29.6731 3.95179 29.6731 3.4697 29.5392C3.27742 29.4859 2.97087 29.3013 2.78837 29.1292L2.45663 28.8164V18.1125V7.40858L2.70097 7.04912C3.11277 6.44307 3.4883 6.33565 5.20544 6.3333L6.68556 6.33124V7.32522ZM7.99663 12.2126L6.76403 13.3953L6.12311 12.7765C5.77061 12.4362 5.41735 12.1578 5.33813 12.1578C4.79937 12.1578 4.45128 12.648 4.65286 13.1232C4.71131 13.2609 5.13477 13.7555 5.59403 14.2222C6.77719 15.4249 6.67532 15.4446 8.57326 13.6479C9.40007 12.8651 10.1171 12.1489 10.1666 12.0565C10.4066 11.6082 10.038 11.03 9.51227 11.03C9.2779 11.03 9.01758 11.2331 7.99663 12.2126ZM11.5887 13.0331C11.2996 13.3408 11.3188 13.7841 11.632 14.0304C11.8742 14.221 11.9722 14.2252 16.1368 14.2252C18.4867 14.2252 20.4953 14.1867 20.6203 14.1392C20.7448 14.0918 20.8988 13.9271 20.9627 13.7729C21.0589 13.5408 21.0539 13.4447 20.9339 13.2126C20.8542 13.0584 20.7205 12.9061 20.6368 12.874C20.5532 12.8419 18.5291 12.8156 16.1389 12.8156H11.7931L11.5887 13.0331ZM9.17593 16.8741C9.07256 16.9322 8.48784 17.4633 7.87652 18.0543L6.76507 19.1288L6.12358 18.5096C5.50766 17.9149 5.29791 17.8157 4.94428 17.9514C4.70229 18.0442 4.5258 18.5395 4.63265 18.826C4.68161 18.9575 5.10986 19.4561 5.58435 19.9343C6.79345 21.1528 6.67588 21.1748 8.5742 19.3766C9.4027 18.5918 10.1202 17.8757 10.1686 17.7852C10.3169 17.5082 10.2677 17.2349 10.0259 16.9933C9.7787 16.746 9.47844 16.7039 9.17593 16.8741ZM11.5901 18.7398C11.2919 19.0176 11.3121 19.5114 11.632 19.763C11.8742 19.9536 11.9722 19.9578 16.1384 19.9578C19.1035 19.9578 20.468 19.9256 20.6302 19.8516C20.9808 19.6919 21.1141 19.2938 20.9339 18.9451C20.8542 18.791 20.7205 18.6386 20.6368 18.6065C20.5532 18.5745 18.5297 18.5481 16.1402 18.5481C11.898 18.5481 11.7909 18.5527 11.5901 18.7398ZM7.98018 23.6722L6.74204 24.8493L6.12405 24.2361C5.52317 23.6397 5.31417 23.542 4.94428 23.6839C4.70229 23.7768 4.5258 24.2721 4.63265 24.5586C4.68161 24.6901 5.10986 25.1888 5.58435 25.6668C6.74373 26.8353 6.7473 26.8352 8.02576 25.6261C10.4614 23.3224 10.5272 23.227 10.0259 22.7259C9.56903 22.2689 9.3496 22.3703 7.98018 23.6722ZM11.5723 24.4687C11.2925 24.7485 11.3217 25.2515 11.632 25.4955C11.8743 25.6862 11.9716 25.6903 16.1846 25.6903H20.4895L20.7454 25.4702C21.0773 25.1848 21.097 24.7048 20.7873 24.454C20.5861 24.2911 20.3091 24.2807 16.1667 24.2807C11.8856 24.2807 11.7549 24.2861 11.5723 24.4687Z" stroke="#FF0000" stroke-width="2" mask="url(#path-1-outside-1_35_30612)"/>
</svg>
