<svg width="20" height="30" viewBox="0 0 20 30" fill="none" xmlns="http://www.w3.org/2000/svg">
<path fill-rule="evenodd" clip-rule="evenodd" d="M8.24459 0.0773616C5.10977 0.607977 2.4262 2.548 1.04503 5.28221C0.0740318 7.20461 -0.231093 9.3402 0.18856 11.2772C0.676966 13.5317 2.16329 16.5566 4.51415 20.0807C5.02235 20.8426 5.43825 21.4978 5.43825 21.5366C5.43825 21.5753 5.06484 21.7045 4.60842 21.8235C1.73341 22.5736 0.00687253 23.9695 2.52778e-05 25.5493C-0.00963592 27.7877 2.75047 29.3601 7.6425 29.9028C10.5098 30.2209 14.2722 29.7371 16.5409 28.7585C19.2118 27.6065 20.0588 25.6625 18.6595 23.8957C18.0469 23.1222 16.4239 22.2707 14.7099 21.8235C14.2535 21.7045 13.8801 21.5753 13.8801 21.5366C13.8801 21.4978 14.296 20.8426 14.8042 20.0807C16.0599 18.1982 16.9532 16.6637 17.7235 15.0652C19.2202 11.9597 19.5808 10.1322 19.14 7.88839C18.866 6.4938 18.4299 5.42741 17.6677 4.28814C16.2064 2.10406 13.8728 0.585935 11.2537 0.115538C10.4956 -0.0206572 8.94029 -0.040355 8.24459 0.0773616ZM10.9915 1.86797C12.6051 2.11831 14.1299 2.94139 15.3393 4.21489C16.3823 5.31317 16.939 6.31709 17.3154 7.77808C17.5315 8.61711 17.5551 8.85808 17.5149 9.81979C17.4758 10.7579 17.4199 11.0591 17.1146 11.9776C16.5376 13.7139 15.1763 16.3013 13.4567 18.9298C12.1372 20.947 9.82284 24.0887 9.65644 24.0887C9.49145 24.0887 7.18777 20.9571 5.86165 18.9298C4.14205 16.3013 2.78067 13.7139 2.20372 11.9776C1.42913 9.6471 1.72347 7.38207 3.06985 5.31148C3.61162 4.47836 4.86101 3.31349 5.72921 2.8323C6.53944 2.3831 7.60489 1.98127 8.28849 1.86693C8.99085 1.7495 10.2309 1.74987 10.9915 1.86797ZM9.00257 3.55736C7.824 3.67996 6.88368 4.06293 5.89542 4.8227C2.34498 7.55231 2.8906 13.2252 6.89212 15.1839C7.89107 15.6729 8.57832 15.8345 9.65916 15.8345C10.74 15.8345 11.4273 15.6729 12.4262 15.1839C16.1826 13.3452 16.9513 8.2648 13.9252 5.27752C12.6032 3.97251 10.8617 3.36395 9.00257 3.55736ZM10.5755 5.37676C12.344 5.7937 13.6736 7.20714 13.9743 8.98996C14.4642 11.8943 11.9556 14.4558 9.02602 14.0427C7.15935 13.7794 5.61346 12.2367 5.33413 10.3583C5.05255 8.46516 6.03049 6.58657 7.7363 5.74389C8.76067 5.23785 9.55223 5.13551 10.5755 5.37676ZM7.09369 23.737C7.29076 24.0078 7.82241 24.7003 8.27517 25.2758C9.16766 26.4103 9.43667 26.5953 9.93952 26.42C10.2022 26.3284 11.1431 25.2236 12.2246 23.737C12.6308 23.1787 12.6658 23.1704 13.7098 23.3866C15.1719 23.6895 16.7888 24.4319 17.2941 25.0324C18.1407 26.0385 16.6834 27.1415 13.6456 27.794C10.4281 28.4852 6.68426 28.3028 3.93748 27.3209C2.56793 26.8314 1.78012 26.205 1.78012 25.6056C1.78012 24.8505 3.37357 23.8998 5.43825 23.4232C6.60266 23.1545 6.6807 23.1693 7.09369 23.737Z" fill="white"/>
</svg>
