<svg width="30" height="30" viewBox="0 0 30 30" fill="none" xmlns="http://www.w3.org/2000/svg">
<path fill-rule="evenodd" clip-rule="evenodd" d="M10.6387 3.15196C8.14441 3.69505 6.08856 5.69612 5.48198 8.17143L5.32121 8.82764L5.0839 8.64098C4.95343 8.53828 4.78712 8.45433 4.71434 8.45433C4.52552 8.45433 4.12144 8.88354 4.1222 9.08324C4.12323 9.32205 5.15809 10.7706 5.41013 10.8858C5.52559 10.9386 5.69443 10.9542 5.78532 10.9204C6.0865 10.8086 7.38419 9.86175 7.44168 9.71187C7.61014 9.27308 7.34573 8.92331 6.8457 8.92331H6.53626L6.59816 8.53621C6.63221 8.32329 6.83172 7.78949 7.04154 7.34996C7.33626 6.73249 7.57544 6.39885 8.09376 5.88231C9.23753 4.7423 10.3369 4.25689 11.9814 4.16582C12.8179 4.11939 12.9653 4.08618 13.0835 3.91754C13.2706 3.65021 13.2545 3.42388 13.0323 3.20167C12.8719 3.04128 12.7257 3.01521 12.024 3.02149C11.5726 3.02562 10.9491 3.08433 10.6387 3.15196ZM19.2698 3.18864C18.8421 3.45277 18.6825 3.67545 18.5536 4.18777C18.4888 4.44505 18.4067 4.6908 18.371 4.73395C18.3355 4.777 17.9914 4.94921 17.6065 5.11655L16.9066 5.42083L16.5257 5.14487C16.0169 4.77634 15.4427 4.71116 14.9443 4.96535C14.3804 5.25312 13.2445 6.49274 13.1672 6.90479C13.0807 7.36571 13.177 7.7727 13.4741 8.20135C13.7039 8.53293 13.7145 8.58724 13.6028 8.86028C13.5358 9.02386 13.3971 9.37448 13.2944 9.63936C13.1117 10.1101 13.0974 10.1223 12.6518 10.1814C12.3644 10.2196 12.0894 10.3316 11.9074 10.4849C11.4176 10.8969 11.3439 11.1442 11.3439 12.3752C11.3439 13.3818 11.3649 13.523 11.5579 13.8103C11.795 14.1636 12.2475 14.4246 12.7577 14.5024C13.0764 14.5509 13.1083 14.5908 13.4066 15.3135C13.685 15.9877 13.7059 16.0962 13.592 16.2737C13.1082 17.0275 13.0287 17.4214 13.2533 17.9543C13.3853 18.2677 13.938 18.8802 14.5609 19.4034C15.231 19.9663 15.972 19.9867 16.5984 19.4597C16.8789 19.2236 16.896 19.2209 17.1875 19.3695C17.3526 19.4537 17.6985 19.6019 17.9562 19.6988C18.3936 19.8635 18.4291 19.9014 18.4921 20.2706C18.5925 20.8587 18.8493 21.2325 19.3153 21.4687C19.666 21.6465 19.8801 21.6795 20.6732 21.6777C22.1182 21.6745 22.6784 21.3147 22.8432 20.2839C22.8935 19.9695 22.961 19.8595 23.1523 19.7809C23.2868 19.7257 23.6255 19.5807 23.9049 19.4587L24.413 19.2371L24.7572 19.4757C25.2541 19.82 25.6572 19.9147 26.1119 19.794C26.6482 19.6514 27.9809 18.3198 28.1232 17.7842C28.2391 17.3478 28.1232 16.7772 27.8572 16.474C27.5678 16.1442 27.5667 16.082 27.8419 15.4753C27.9904 15.1476 28.1357 14.8079 28.1648 14.7205C28.1968 14.6241 28.3581 14.5392 28.5742 14.5051C29.0836 14.4244 29.4843 14.2036 29.7405 13.8624C29.9365 13.6011 29.9665 13.4454 29.995 12.5379C30.0127 11.9723 29.982 11.3585 29.9267 11.1739C29.7744 10.6652 29.3497 10.3144 28.7388 10.1924L28.217 10.0882L27.8944 9.30028C27.5778 8.52693 27.5751 8.50873 27.7472 8.31916C28.0453 7.99097 28.1553 7.69419 28.1553 7.21808C28.1553 6.66561 27.8969 6.25084 27.084 5.49812C26.2275 4.70525 25.5509 4.60713 24.7818 5.1642C24.5273 5.34851 24.3678 5.4076 24.2783 5.35076C24.2063 5.30499 23.8668 5.15951 23.5242 5.02744C22.9091 4.7906 22.9002 4.78216 22.8394 4.37667C22.7605 3.85019 22.4492 3.38646 22.035 3.17841C21.5514 2.93538 19.6684 2.94242 19.2698 3.18864ZM21.5448 4.25689C21.5964 4.32143 21.6677 4.61576 21.7034 4.91104C21.7855 5.59051 21.9482 5.77388 22.6409 5.96851C22.9473 6.05461 23.4865 6.27025 23.8389 6.44772C24.5484 6.80499 24.5783 6.80152 25.2395 6.28339C25.4274 6.13612 25.6583 6.01559 25.7526 6.01559C25.9612 6.01559 27.0085 7.03114 27.0071 7.23205C27.0066 7.31103 26.8381 7.5867 26.6329 7.84464C26.4277 8.10259 26.2592 8.38689 26.2587 8.47637C26.2582 8.56594 26.3852 8.88251 26.541 9.17985C26.6968 9.47728 26.9232 10.0161 27.0441 10.3772C27.2823 11.0884 27.4733 11.2644 28.0103 11.2668C28.1746 11.2676 28.4188 11.31 28.553 11.361C28.7956 11.4532 28.7969 11.4592 28.7702 12.3693L28.7433 13.2849L28.1232 13.3787C27.3868 13.4901 27.2307 13.602 27.0943 14.1165C27.0377 14.3298 26.8264 14.8583 26.6246 15.291C26.4228 15.7238 26.2577 16.1277 26.2577 16.1887C26.2577 16.2495 26.4265 16.5257 26.6329 16.8023C26.8393 17.0789 27.0081 17.3491 27.0081 17.403C27.0081 17.5318 25.8699 18.6782 25.742 18.6782C25.6875 18.6782 25.4183 18.5094 25.1437 18.303C24.869 18.0967 24.5842 17.9279 24.5107 17.9279C24.4372 17.9279 24.0907 18.0721 23.7407 18.2484C23.3907 18.4246 22.8693 18.6372 22.5821 18.7206C21.9399 18.9073 21.7961 19.0636 21.7146 19.6631C21.6001 20.5063 21.6599 20.4604 20.676 20.4604C20.1924 20.4604 19.7713 20.4192 19.7402 20.3688C19.7091 20.3185 19.6594 20.0546 19.6297 19.7826C19.5535 19.084 19.4123 18.9069 18.7857 18.7248C18.4906 18.639 17.9628 18.4246 17.6129 18.2484C17.2628 18.0721 16.9015 17.9283 16.81 17.9289C16.7184 17.9294 16.4324 18.0978 16.1745 18.303C15.9166 18.5083 15.6409 18.6767 15.5619 18.6772C15.3589 18.6786 14.3454 17.6302 14.3454 17.4189C14.3454 17.3226 14.4858 17.0706 14.6572 16.8589C15.1352 16.2687 15.1382 16.2078 14.7299 15.3613C14.5274 14.9415 14.3096 14.4081 14.2459 14.176C14.0911 13.6115 13.8917 13.4566 13.2193 13.3786C12.8121 13.3313 12.6278 13.2647 12.5615 13.1409C12.4493 12.9313 12.4416 11.6451 12.5514 11.4719C12.5949 11.4033 12.9075 11.3128 13.2462 11.2708C13.5849 11.2288 13.9042 11.1684 13.9557 11.1366C14.0073 11.1047 14.144 10.7942 14.2595 10.4465C14.3751 10.0989 14.6078 9.52577 14.7766 9.17309C14.9456 8.82042 15.0592 8.46164 15.0294 8.37582C14.9995 8.28999 14.8334 8.03355 14.6602 7.80581C14.4871 7.57807 14.3454 7.32604 14.3454 7.24575C14.3454 7.03855 15.3828 6.01559 15.593 6.01559C15.6891 6.01559 15.9437 6.15676 16.1587 6.32935C16.7363 6.79299 16.8147 6.79993 17.5158 6.44969C17.8614 6.27701 18.4296 6.04186 18.7783 5.92705C19.1271 5.81224 19.4484 5.648 19.4924 5.56208C19.5364 5.47617 19.6007 5.15425 19.6353 4.84669C19.67 4.53913 19.7496 4.25493 19.8123 4.21506C20.0066 4.09153 21.4404 4.12624 21.5448 4.25689ZM19.2229 6.85002C17.4997 7.32069 16.0387 8.61425 15.398 10.2365C15.1028 10.9842 15.0069 11.4991 15.0043 12.3507C14.9962 15.0094 16.8968 17.3318 19.5238 17.8728C20.8594 18.1478 21.9462 17.9963 23.2504 17.3534C24.1846 16.893 25.1229 16.0089 25.5566 15.1804L25.8322 14.654L25.6369 14.3916C25.4177 14.0969 25.0988 14.0091 24.8867 14.1851C24.8089 14.2496 24.5961 14.5272 24.4137 14.8021C23.9502 15.5003 23.3283 16.0238 22.5058 16.408C21.9073 16.6875 21.6737 16.7433 20.9402 16.7819C19.5777 16.8536 18.5861 16.5015 17.6128 15.6004C16.5397 14.607 16.0031 13.1146 16.2164 11.7173C16.6756 8.70908 19.841 6.99127 22.577 8.26561C23.2603 8.58386 24.0833 9.32448 24.5327 10.0254C24.8136 10.4636 24.8841 10.5179 25.1726 10.5179C25.4012 10.5179 25.5397 10.4564 25.6427 10.3094C25.8506 10.0126 25.8307 9.91062 25.4416 9.28021C25.0167 8.59193 24.1011 7.73668 23.3745 7.34939C22.1436 6.69328 20.5141 6.49734 19.2229 6.85002ZM20.0994 9.39352C19.2289 9.57173 18.4808 10.1241 18.0454 10.91C17.7912 11.3691 17.7691 11.4839 17.7691 12.3469C17.7691 13.0835 17.8065 13.3535 17.9432 13.6045C18.2605 14.1867 18.9179 14.7963 19.5192 15.0662C20.0265 15.2938 20.1776 15.3191 20.8074 15.2813C21.6909 15.2283 22.3197 14.932 22.866 14.3114C24.1978 12.7985 23.7102 10.4403 21.8961 9.62079C21.3429 9.37082 20.6425 9.28228 20.0994 9.39352ZM21.5591 10.7479C21.946 10.9479 22.3814 11.5603 22.4577 12.0116C22.5797 12.7339 22.1298 13.6024 21.4518 13.953C21.0628 14.1541 20.2287 14.1356 19.8044 13.9163C19.0814 13.5429 18.6833 12.5665 18.9386 11.7929C19.2918 10.7229 20.5447 10.2232 21.5591 10.7479ZM25.3812 11.9088C25.1535 12.1603 25.1815 12.6334 25.4345 12.8106C25.7204 13.0109 25.853 12.9947 26.1212 12.7263C26.4004 12.4473 26.4148 12.1757 26.1639 11.9248C25.9298 11.6907 25.5849 11.6837 25.3812 11.9088ZM5.51743 13.9773C5.2608 14.234 5.15331 14.4223 5.15331 14.6153C5.15331 14.8561 5.09487 14.9138 4.66922 15.0937L4.18513 15.2982L3.88433 15.1122C3.53249 14.8948 2.99878 14.8716 2.63832 15.0579C2.26979 15.2485 1.42083 16.1765 1.34739 16.4688C1.26044 16.8154 1.36202 17.3536 1.55449 17.5664C1.70569 17.7334 1.70598 17.7646 1.55853 18.0738C1.47214 18.2549 1.40142 18.4601 1.40142 18.5296C1.40142 18.6001 1.22423 18.7006 1.00071 18.7568C0.769877 18.815 0.481732 18.9812 0.320682 19.1491C0.0559859 19.4252 0.0397591 19.4881 0.0104943 20.3491C-0.0175511 21.1756 -0.000385964 21.2873 0.200247 21.586C0.35717 21.8195 0.552831 21.9582 0.87812 22.0667C1.29064 22.2041 1.3518 22.2623 1.50384 22.6629C1.66771 23.0947 1.66733 23.1163 1.48996 23.4472C1.16036 24.0622 1.26625 24.5309 1.887 25.2044C2.32879 25.6836 2.86006 25.9944 3.2374 25.9944C3.37435 25.9944 3.6412 25.9074 3.83058 25.8009C4.16938 25.6105 4.18194 25.6101 4.63667 25.779C5.05445 25.9341 5.10594 25.9858 5.17526 26.3195C5.32168 27.0242 5.79957 27.3076 6.84166 27.3076C7.88769 27.3076 8.36793 27.007 8.52157 26.2559C8.57157 26.0111 8.66049 25.9272 9.0308 25.7752L9.47943 25.5911L9.83821 25.7928C10.0356 25.9037 10.309 25.9944 10.4459 25.9944C10.8233 25.9944 11.3545 25.6836 11.7963 25.2044C12.4171 24.5309 12.523 24.0622 12.1934 23.4472C12.016 23.1163 12.0156 23.0947 12.1795 22.6629C12.3309 22.2641 12.394 22.2035 12.7998 22.0667C13.516 21.825 13.642 21.5777 13.642 20.4127C13.642 19.4623 13.6358 19.4345 13.3626 19.1494C13.2073 18.9873 12.9141 18.8152 12.7024 18.7618C12.3593 18.6754 12.3055 18.6206 12.1591 18.2085C12.0015 17.7646 12.0022 17.742 12.1859 17.4409C12.3954 17.0971 12.4313 16.6175 12.271 16.3037C12.1189 16.0057 11.3388 15.215 11.0438 15.0597C10.6865 14.8716 10.1519 14.8942 9.799 15.1122L9.49819 15.2982L9.02376 15.0977C8.59811 14.9179 8.54361 14.8612 8.49334 14.5468C8.45469 14.3051 8.33416 14.1058 8.10521 13.9047C7.78057 13.6197 7.75178 13.6132 6.82741 13.6132H5.88165L5.51743 13.9773ZM7.38625 15.0201C7.45979 15.6214 7.59739 15.8517 7.94922 15.9621C8.13972 16.022 8.58535 16.2018 8.93953 16.3617C9.63757 16.6769 9.57632 16.6827 10.2861 16.2352C10.4779 16.1143 10.5209 16.1294 10.8254 16.4246C11.0074 16.601 11.1563 16.7837 11.1563 16.8306C11.1563 16.8775 11.0508 17.0413 10.9218 17.1946C10.6299 17.5415 10.6284 17.7239 10.9124 18.2843C11.0361 18.5284 11.1836 18.9003 11.2402 19.1105C11.3703 19.5934 11.5638 19.7651 12.0943 19.8677C12.4854 19.9434 12.5187 19.9725 12.5468 20.2647C12.6036 20.8552 12.5076 21.0232 12.1134 21.0232C11.66 21.0232 11.3758 21.2262 11.2928 21.6095C11.2565 21.7771 11.1055 22.1558 10.9571 22.4509C10.6276 23.1065 10.6239 23.2313 10.9218 23.6697C11.0508 23.8594 11.1563 24.0466 11.1563 24.0856C11.1563 24.1877 10.5728 24.7751 10.4714 24.7751C10.4245 24.7751 10.2608 24.6695 10.1075 24.5406C9.74656 24.2369 9.52014 24.245 8.7964 24.5874C8.46933 24.7421 8.13729 24.8688 8.0585 24.8688C7.73564 24.869 7.50453 25.1516 7.44206 25.6226L7.38025 26.0882H6.82956C6.3028 26.0882 6.27888 26.0779 6.27888 25.8507C6.27888 25.7201 6.21875 25.4694 6.14531 25.2935C6.03754 25.0356 5.93342 24.9526 5.60748 24.8649C5.38518 24.805 5.00352 24.6548 4.75936 24.5311C4.19517 24.2452 3.92438 24.2474 3.57583 24.5406C3.42256 24.6695 3.2631 24.7751 3.22137 24.7751C3.11856 24.7751 2.52698 24.1958 2.52698 24.0951C2.52698 24.0509 2.63251 23.8594 2.76148 23.6697C3.05938 23.2313 3.05572 23.1065 2.72621 22.4509C2.57782 22.1558 2.42681 21.7771 2.39051 21.6095C2.3074 21.2258 2.0232 21.0232 1.56809 21.0232H1.21382V20.4711V19.9189L1.62512 19.8573C2.09758 19.7864 2.26782 19.6272 2.43412 19.1003C2.49931 18.894 2.65239 18.526 2.77433 18.2827C3.05319 17.726 3.05169 17.5965 2.76148 17.216C2.63251 17.0469 2.52698 16.8759 2.52698 16.836C2.52698 16.796 2.67987 16.6067 2.86672 16.4154L3.20655 16.0674L3.58427 16.341C4.04087 16.6717 4.10175 16.6747 4.66397 16.3931C4.90728 16.2713 5.32683 16.0995 5.59631 16.0113C6.03191 15.8687 6.09672 15.8127 6.18198 15.5059C6.2347 15.3161 6.27803 15.094 6.27832 15.0124C6.27916 14.7729 6.38449 14.7287 6.885 14.758C7.30999 14.7828 7.36046 14.8092 7.38625 15.0201ZM6.08462 17.394C5.18042 17.6496 4.45292 18.2394 4.0057 19.0795C3.82786 19.4136 3.79475 19.6221 3.79409 20.4135C3.79315 21.4959 3.9618 21.9444 4.63377 22.6457C5.26174 23.301 5.78747 23.5059 6.84166 23.5059C7.89219 23.5059 8.37797 23.3177 9.04215 22.6536C9.71336 21.9823 9.89008 21.5156 9.89008 20.4135C9.89008 19.5511 9.86785 19.4355 9.6145 18.978C8.92087 17.7261 7.37096 17.0305 6.08462 17.394ZM7.57159 18.6363C8.28811 18.9356 8.80615 19.68 8.8084 20.4135C8.81028 21.0183 8.42468 21.7255 7.9178 22.047C7.17399 22.5187 6.43421 22.5135 5.70681 22.0316C5.33659 21.7863 4.87164 20.9407 4.87248 20.5139C4.87501 19.0982 6.30158 18.1058 7.57159 18.6363ZM23.9678 22.803C23.0982 22.9737 22.881 23.1154 22.881 23.5122C22.881 23.746 23.1528 24.0247 23.3809 24.0247C23.6683 24.0247 23.5428 24.2959 22.9979 24.8529C22.3072 25.5587 21.5839 26.0189 20.6606 26.3399C20.0218 26.562 19.7862 26.5945 18.8477 26.5908C17.9045 26.5869 17.6809 26.5536 17.0669 26.325C16.6806 26.1812 16.2716 26.0025 16.1578 25.9279C15.8693 25.7389 15.5711 25.8076 15.3417 26.116C15.1615 26.3582 15.1575 26.3977 15.2888 26.6319C15.4511 26.9215 15.9773 27.2056 16.9249 27.5152C17.7797 27.7945 19.7778 27.8227 20.696 27.5685C21.9972 27.2084 23.3965 26.3031 24.1658 25.3239C24.5706 24.8087 24.6183 24.7753 24.7263 24.9321C24.9609 25.2724 25.0496 25.3378 25.2765 25.3378C25.4035 25.3378 25.5964 25.2487 25.7052 25.1399C25.9169 24.9282 25.9173 24.9529 25.681 23.5728C25.5721 22.9365 25.3356 22.6098 24.9972 22.6283C24.8909 22.6341 24.4276 22.7127 23.9678 22.803Z" fill="white"/>
</svg>
