<svg width="30" height="30" viewBox="0 0 30 30" fill="none" xmlns="http://www.w3.org/2000/svg">
<path fill-rule="evenodd" clip-rule="evenodd" d="M5.60849 7.12509C5.22616 7.33379 5.16081 7.53761 5.16081 8.52053V9.41739H4.0545C3.31909 9.41739 2.91051 9.45508 2.83569 9.5299C2.65746 9.70813 2.699 10.1479 2.90451 10.2579C3.1509 10.3897 8.85831 10.3897 9.1047 10.2579C9.31021 10.1479 9.35175 9.70813 9.17352 9.5299C9.09551 9.45189 8.60686 9.41739 7.57969 9.41739H6.09836V8.66735V7.91732H13.8331H21.5679V14.0583V20.1992H18.1496H14.7313L14.6173 19.8186C14.4741 19.3409 13.8831 18.6612 13.3764 18.3916C12.8576 18.1157 11.5597 18.096 11.0791 18.3568C10.5932 18.6205 9.97212 19.3127 9.82493 19.7547L9.69245 20.1523L7.89536 20.1778L6.09836 20.2032V18.8887V17.5741H6.8484C7.47346 17.5741 7.62966 17.5428 7.78595 17.3866C8.01171 17.1608 8.02361 16.9813 7.82617 16.7838C7.698 16.6557 7.26523 16.6365 4.50453 16.6365C1.74382 16.6365 1.31105 16.6557 1.18289 16.7838C0.97494 16.9918 1.00007 17.2573 1.24402 17.4281C1.41549 17.5483 1.78011 17.5741 3.30662 17.5741H5.16081L5.16222 19.1913C5.16306 20.0809 5.20366 20.8719 5.25241 20.9492C5.32573 21.0653 5.72072 21.098 7.51687 21.1367L9.69254 21.1836L9.82296 21.5751C10.0098 22.1363 10.5957 22.7585 11.181 23.0177C12.4973 23.6002 13.9933 22.9952 14.5937 21.6376L14.8152 21.1367H18.9918H23.1684L23.3546 21.5711C23.9706 23.0082 25.4312 23.6215 26.7983 23.0173C27.3838 22.7585 27.9697 22.1363 28.1561 21.5751L28.2861 21.1836L28.8975 21.1367C29.9472 21.0563 30.0486 20.8255 29.9852 18.662C29.952 17.5296 29.9013 17.0592 29.7821 16.7801C29.3922 15.8669 26.9727 11.6564 26.7117 11.4368C26.4301 11.1999 26.4203 11.1987 24.6154 11.1987C23.618 11.1987 22.7353 11.1731 22.6538 11.1418C22.5256 11.0927 22.5055 10.8397 22.5055 9.28304V7.48126L22.2636 7.25391L22.0216 7.02664L13.9428 7.00611C6.94131 6.9883 5.82994 7.00414 5.60849 7.12509ZM5.36923 11.4385C5.16916 11.5785 5.16081 11.6424 5.16081 13.0323V14.4802H4.42952C3.98578 14.4802 3.65398 14.5244 3.58573 14.5927C3.4075 14.7709 3.44904 15.2107 3.65455 15.3207C3.90347 15.4539 12.231 15.4539 12.4799 15.3207C12.7245 15.1897 12.7245 14.7082 12.4799 14.5772C12.3653 14.5159 11.1561 14.4802 9.19846 14.4802H6.09836V13.0323C6.09836 11.6424 6.09002 11.5785 5.88994 11.4385C5.77537 11.3582 5.65818 11.2925 5.62959 11.2925C5.60099 11.2925 5.4838 11.3582 5.36923 11.4385ZM0.12149 12.1046C-0.0715514 12.1825 -0.0229866 12.7714 0.185618 12.883C0.291186 12.9395 1.06598 12.9801 2.0399 12.9801C3.8504 12.9801 4.12951 12.913 4.12951 12.4778C4.12951 12.0672 4.00885 12.0422 2.07159 12.0499C1.06354 12.054 0.185993 12.0786 0.12149 12.1046ZM27.5616 14.6194L28.9277 17.0555L28.9573 18.6274L28.9869 20.1992H28.6251C28.2764 20.1992 28.2594 20.1842 28.1523 19.7839C27.9981 19.2071 27.2712 18.49 26.6224 18.2745C26.0392 18.0807 25.1442 18.1237 24.6576 18.3688C24.1316 18.6338 23.5592 19.2516 23.3813 19.7463C23.2313 20.1634 23.194 20.1992 22.9088 20.1992H22.5992V16.1657V12.1323L24.3973 12.1577L26.1955 12.1832L27.5616 14.6194ZM12.8796 19.202C13.2779 19.3685 13.6621 19.8319 13.7874 20.2972C14.0844 21.4002 12.9293 22.5613 11.8297 22.2651C11.1182 22.0735 10.6052 21.4055 10.6007 20.6644C10.5938 19.5571 11.8302 18.7636 12.8796 19.202ZM26.5456 19.2892C27.8095 19.947 27.5536 21.8871 26.1532 22.2641C25.0303 22.5665 23.8896 21.4199 24.1929 20.2937C24.4747 19.2472 25.568 18.7804 26.5456 19.2892Z" fill="white"/>
</svg>
