<svg width="30" height="30" viewBox="0 0 30 30" fill="none" xmlns="http://www.w3.org/2000/svg">
<path fill-rule="evenodd" clip-rule="evenodd" d="M13.4066 0.059971C10.2241 0.455909 7.42927 1.68097 5.11235 3.69552C4.26634 4.43108 2.96449 5.87258 2.70891 6.35663C2.562 6.63496 2.56577 6.6577 2.79056 6.84038L3.02637 7.03209L3.47337 6.50036C5.09675 4.56905 6.59597 3.30465 8.3309 2.40331C10.7319 1.1561 12.8907 0.673843 15.5919 0.781618C19.2628 0.927934 22.458 2.33676 25.0819 4.96598C27.1982 7.08662 28.5333 9.6332 29.0689 12.5708C29.2997 13.8367 29.2965 16.2507 29.0624 17.5374C28.119 22.7216 24.41 26.9794 19.4106 28.617C17.8856 29.1166 16.7019 29.296 14.9462 29.2937C12.6633 29.2906 10.7645 28.8639 8.77303 27.906C7.8847 27.4788 7.61681 27.4408 7.50714 27.7266C7.40235 27.9997 7.56813 28.1521 8.42239 28.5681C9.52984 29.1074 10.6103 29.4793 11.9166 29.7709C12.8334 29.9755 13.2119 30.0031 15.0456 29.9997C17.2493 29.9958 17.9671 29.8933 19.6645 29.3402C23.4414 28.1096 26.637 25.3584 28.4168 21.8051C29.0016 20.6377 29.3108 19.7909 29.6677 18.3796C29.9275 17.3522 29.9435 17.1628 29.9444 15.1038C29.9453 13.1553 29.9196 12.8055 29.7082 11.8755C28.6603 7.2684 25.8345 3.64169 21.6623 1.54945C20.5755 1.00452 18.7633 0.40962 17.5785 0.209069C16.4008 0.00960979 14.3889 -0.0622074 13.4066 0.059971ZM14.4496 3.91693C12.9351 4.61196 5.26512 8.7548 5.03785 9.00055L4.76469 9.29606L4.76508 14.9812C4.76548 21.5159 4.69803 21.0504 5.72095 21.577C6.0418 21.7422 8.18439 22.8676 10.4821 24.078C13.5571 25.6977 14.7493 26.2787 14.9984 26.2787C15.2484 26.2787 16.5793 25.6254 20.0964 23.7762C23.9452 21.7525 24.8917 21.2155 25.0425 20.9701C25.2201 20.6809 25.2278 20.3926 25.2032 14.9322L25.1774 9.19792L24.9291 8.95297C24.6906 8.71765 23.5788 8.10616 20.2605 6.38554C19.4137 5.94649 18.6761 5.55403 18.6215 5.5134C18.3207 5.2899 15.1687 3.73059 15.0216 3.73248C14.9255 3.73367 14.6681 3.81671 14.4496 3.91693ZM16.0655 5.01336C16.5972 5.28196 17.1096 5.56128 17.204 5.63419C17.3555 5.7509 16.8348 6.04075 12.8121 8.07865L8.24826 10.3907L7.12779 9.82878C5.82724 9.17647 5.79893 9.30431 7.43553 8.4425C7.96069 8.16596 8.94905 7.64427 9.63196 7.2833C10.3149 6.92223 11.7676 6.15469 12.8602 5.57757C13.9529 5.00045 14.9036 4.52753 14.9728 4.52664C15.0422 4.52574 15.5339 4.74467 16.0655 5.01336ZM1.58189 4.77834C1.47719 4.90449 1.48424 5.13415 1.62102 6.04483C1.88048 7.77281 2.06186 7.91505 3.74554 7.71112C4.33339 7.6399 4.89253 7.54047 4.98818 7.49011C5.2089 7.37389 5.21565 6.92332 4.99802 6.83978C4.90792 6.80511 4.34501 6.85846 3.74723 6.95818C2.89138 7.10092 2.64424 7.11314 2.58415 7.0159C2.54213 6.94795 2.43267 6.44037 2.34088 5.88788C2.2492 5.3354 2.12573 4.82513 2.06663 4.75381C1.92309 4.58087 1.73794 4.59021 1.58189 4.77834ZM19.3084 6.72098C19.8384 7 20.2584 7.24148 20.2415 7.25757C20.1678 7.3279 18.4091 8.22765 15.0157 9.93129C13.008 10.9392 11.257 11.8807 11.1209 12.0254L10.8736 12.2884L10.8437 14.6647C10.8273 15.9715 10.7937 17.0408 10.769 17.0408C10.7443 17.0408 10.5565 16.8552 10.3518 16.6285C9.88406 16.1101 9.53282 15.9566 9.02672 16.0492L8.63863 16.1201V13.6028C8.63863 11.1008 8.64003 11.0845 8.86213 10.9422C9.26145 10.6863 18.1215 6.21856 18.2347 6.21607C18.2952 6.21468 18.7783 6.44196 19.3084 6.72098ZM22.6197 8.46336L24.0636 9.22315L22.2738 10.1272C21.2896 10.6244 19.2521 11.657 17.746 12.4218L15.0079 13.8125L13.5615 13.0792C12.7661 12.6759 12.1161 12.3183 12.117 12.2846C12.1189 12.2214 20.9377 7.72801 21.0907 7.71231C21.1376 7.70755 21.8257 8.04547 22.6197 8.46336ZM7.84736 13.5921C7.83951 15.7161 7.86375 16.1949 7.99169 16.4424C8.1674 16.7821 8.48268 16.8935 8.99623 16.7971C9.32899 16.7347 9.39088 16.7668 9.93184 17.2829C10.5872 17.9081 10.8552 17.9697 11.2902 17.5959L11.5689 17.3564L11.6186 15.1552L11.6683 12.954L13.1086 13.689L14.5489 14.4241L14.5745 19.9081L14.6002 25.3921L13.1839 24.6466C12.4049 24.2367 10.3819 23.1719 8.6883 22.2804L5.60901 20.6595L5.58328 15.2729L5.55765 9.88639L6.70722 10.4628L7.85689 11.0392L7.84736 13.5921ZM24.5318 15.1425C24.5318 20.0036 24.5187 20.411 24.3579 20.596C24.2205 20.754 18.5213 23.8113 15.9139 25.1256L15.3915 25.3888L15.4173 19.9108L15.4429 14.4327L19.9128 12.163C22.3713 10.9147 24.4162 9.89225 24.4573 9.89106C24.4983 9.88987 24.5318 12.253 24.5318 15.1425ZM0.115946 15.4713C-0.0122919 15.5996 -0.0389128 16.2653 0.0600219 16.8643C0.127965 17.2751 0.400035 17.4406 0.656908 17.2274C0.783358 17.1224 0.798556 16.9653 0.741539 16.35C0.655219 15.4164 0.453774 15.1335 0.115946 15.4713ZM0.413942 17.9546C0.24915 18.1194 0.263355 18.3089 0.497381 19.0667C0.676179 19.6455 0.729222 19.7227 0.947553 19.7227C1.28618 19.7227 1.33147 19.5349 1.1785 18.765C1.01063 17.9206 0.737466 17.6311 0.413942 17.9546ZM1.10321 20.3921C1.0298 20.5294 1.06556 20.7277 1.24197 21.1617C1.51832 21.8418 1.77727 22.1415 2.0111 22.0518C2.30781 21.9379 2.294 21.6445 1.95905 20.9505C1.60871 20.2247 1.30048 20.0235 1.10321 20.3921ZM2.30622 22.4705C2.08053 22.5616 2.17679 22.9594 2.55455 23.4962C3.01267 24.1472 3.20021 24.2788 3.41536 24.1003C3.66289 23.8948 3.60548 23.6815 3.12461 23.0206C2.69619 22.4318 2.58584 22.3576 2.30622 22.4705ZM3.7962 24.4571C3.52582 24.5663 3.68068 24.9784 4.1972 25.5246C4.48606 25.8301 4.77343 26.08 4.83581 26.08C4.97567 26.08 5.26135 25.8037 5.26135 25.6682C5.26135 25.5249 4.15946 24.3899 4.02943 24.3992C3.96943 24.4035 3.86454 24.4296 3.7962 24.4571ZM5.57921 26.1992C5.34657 26.4318 5.46716 26.6788 6.03117 27.1241C6.68865 27.6432 7.07863 27.6949 7.12829 27.2696C7.15243 27.0621 7.04704 26.9377 6.51819 26.5494C5.82913 26.0434 5.76059 26.0178 5.57921 26.1992Z" fill="white"/>
</svg>
