<svg width="16" height="22" viewBox="0 0 16 22" fill="none" xmlns="http://www.w3.org/2000/svg">
<path d="M8 0.927734C5.87827 0.927734 3.84344 1.77503 2.34315 3.28322C0.842855 4.79141 0 6.83696 0 8.96986C0 14.3983 7.05 20.5304 7.35 20.7918C7.53113 20.9475 7.76165 21.0331 8 21.0331C8.23835 21.0331 8.46887 20.9475 8.65 20.7918C9 20.5304 16 14.3983 16 8.96986C16 6.83696 15.1571 4.79141 13.6569 3.28322C12.1566 1.77503 10.1217 0.927734 8 0.927734ZM8 18.6707C5.87 16.6601 2 12.3274 2 8.96986C2 7.37018 2.63214 5.83602 3.75736 4.70488C4.88258 3.57374 6.4087 2.93827 8 2.93827C9.5913 2.93827 11.1174 3.57374 12.2426 4.70488C13.3679 5.83602 14 7.37018 14 8.96986C14 12.3274 10.13 16.6702 8 18.6707ZM8 4.9488C7.20887 4.9488 6.43552 5.18463 5.77772 5.62647C5.11992 6.06831 4.60723 6.69631 4.30448 7.43106C4.00173 8.16582 3.92252 8.97432 4.07686 9.75433C4.2312 10.5343 4.61216 11.2508 5.17157 11.8132C5.73098 12.3755 6.44371 12.7585 7.21964 12.9137C7.99556 13.0688 8.79983 12.9892 9.53073 12.6848C10.2616 12.3805 10.8864 11.8651 11.3259 11.2038C11.7654 10.5426 12 9.76515 12 8.96986C12 7.90341 11.5786 6.88063 10.8284 6.12654C10.0783 5.37244 9.06087 4.9488 8 4.9488ZM8 10.9804C7.60444 10.9804 7.21776 10.8625 6.88886 10.6416C6.55996 10.4206 6.30362 10.1066 6.15224 9.73926C6.00087 9.37188 5.96126 8.96763 6.03843 8.57762C6.1156 8.18762 6.30608 7.82938 6.58579 7.5482C6.86549 7.26702 7.22186 7.07554 7.60982 6.99796C7.99778 6.92038 8.39991 6.9602 8.76537 7.11237C9.13082 7.26454 9.44318 7.52224 9.66294 7.85287C9.8827 8.1835 10 8.57221 10 8.96986C10 9.50309 9.78929 10.0145 9.41421 10.3915C9.03914 10.7686 8.53043 10.9804 8 10.9804Z" fill=" #fff"/>
</svg>
