<svg width="20" height="20" viewBox="0 0 20 20" fill="none" xmlns="http://www.w3.org/2000/svg">
<path d="M18.1114 3.126L16.0948 1.10937C16.0174 1.03197 15.9256 0.970575 15.8245 0.928685C15.7234 0.886795 15.615 0.865234 15.5056 0.865234C15.3962 0.865234 15.2878 0.886795 15.1867 0.928685C15.0856 0.970575 14.9938 1.03197 14.9164 1.10937L11.0997 4.92611C10.9434 5.08236 10.8556 5.29428 10.8555 5.51527V7.53191C10.8555 7.75292 10.9433 7.96487 11.0996 8.12115C11.2559 8.27743 11.4678 8.36523 11.6889 8.36524H13.7059C13.9269 8.36518 14.1388 8.27735 14.2951 8.12107L18.1114 4.30433C18.1888 4.22697 18.2502 4.13512 18.2921 4.03403C18.334 3.93294 18.3555 3.82459 18.3555 3.71516C18.3555 3.60574 18.334 3.49739 18.2921 3.3963C18.2502 3.2952 18.1888 3.20336 18.1114 3.126ZM13.3608 6.69857H12.5222V5.86036L15.5056 2.87696L16.3438 3.71516L13.3608 6.69857ZM15.8307 9.16683C15.6097 9.16683 15.3978 9.25463 15.2415 9.41091C15.0852 9.56719 14.9974 9.77915 14.9974 10.0002V11.9932L13.7637 10.7594C13.3293 10.3259 12.7406 10.0824 12.1269 10.0824C11.5132 10.0824 10.9245 10.3259 10.4902 10.7594L9.90849 11.3411L7.83675 9.26933C7.40286 8.83609 6.81477 8.59276 6.20162 8.59276C5.58847 8.59276 5.00038 8.83609 4.56649 9.26933L3.33073 10.5052V5.8335C3.33102 5.61257 3.41891 5.40078 3.57512 5.24456C3.73134 5.08834 3.94314 5.00045 4.16406 5.00016H9.16406C9.38508 5.00016 9.59704 4.91237 9.75332 4.75609C9.9096 4.59981 9.9974 4.38784 9.9974 4.16683C9.9974 3.94582 9.9096 3.73386 9.75332 3.57758C9.59704 3.42129 9.38508 3.3335 9.16406 3.3335H4.16406C3.50124 3.33422 2.86578 3.59785 2.39709 4.06653C1.92841 4.53521 1.66479 5.17068 1.66406 5.8335V15.8335C1.66479 16.4963 1.92841 17.1318 2.39709 17.6005C2.86578 18.0692 3.50124 18.3328 4.16406 18.3335H14.1641C14.8269 18.3328 15.4623 18.0692 15.931 17.6005C16.3997 17.1318 16.6633 16.4963 16.6641 15.8335V10.0002C16.6641 9.77915 16.5763 9.56719 16.42 9.41091C16.2637 9.25463 16.0517 9.16683 15.8307 9.16683ZM4.16406 16.6668C3.94314 16.6665 3.73134 16.5787 3.57512 16.4224C3.41891 16.2662 3.33102 16.0544 3.33073 15.8335V12.8619L5.7449 10.4477C5.86847 10.3313 6.03185 10.2665 6.20164 10.2665C6.37143 10.2665 6.53481 10.3313 6.65839 10.4477L9.29839 13.087C9.30546 13.0946 9.30805 13.1051 9.31543 13.1125L12.87 16.6668H4.16406ZM14.9974 15.8335C14.9933 15.9942 14.9414 16.15 14.8484 16.281L11.0869 12.5195L11.6685 11.9378C11.7903 11.8166 11.9551 11.7486 12.1269 11.7486C12.2987 11.7486 12.4635 11.8166 12.5853 11.9378L14.9974 14.3499V15.8335Z" fill="black" fill-opacity="0.6"/>
</svg>
