<svg width="31" height="32" viewBox="0 0 31 32" fill="none" xmlns="http://www.w3.org/2000/svg">
<path d="M29.7008 4.47001L26.1718 0.940913C26.0364 0.805466 25.8756 0.698019 25.6987 0.624711C25.5218 0.551404 25.3322 0.513672 25.1407 0.513672C24.9492 0.513672 24.7595 0.551404 24.5826 0.624711C24.4057 0.698019 24.245 0.805466 24.1096 0.940913L17.4303 7.6202C17.1568 7.89364 17.0031 8.2645 17.003 8.65124V12.1803C17.003 12.5671 17.1567 12.938 17.4302 13.2115C17.7037 13.485 18.0746 13.6387 18.4614 13.6387H21.9912C22.3779 13.6386 22.7488 13.4849 23.0222 13.2114L29.7008 6.53209C29.8363 6.39671 29.9437 6.23598 30.017 6.05907C30.0903 5.88216 30.128 5.69254 30.128 5.50105C30.128 5.30956 30.0903 5.11994 30.017 4.94303C29.9437 4.76612 29.8363 4.60539 29.7008 4.47001ZM21.3873 10.722H19.9197V9.25513L25.1407 4.03418L26.6076 5.50105L21.3873 10.722ZM25.7096 15.0415C25.3229 15.0415 24.9519 15.1951 24.6784 15.4686C24.4049 15.7421 24.2513 16.113 24.2513 16.4998V19.9876L22.0923 17.8285C21.3321 17.0698 20.302 16.6437 19.228 16.6437C18.1539 16.6437 17.1238 17.0698 16.3636 17.8285L15.3457 18.8464L11.7202 15.2208C10.9609 14.4627 9.93171 14.0368 8.8587 14.0368C7.78568 14.0368 6.75652 14.4627 5.99721 15.2208L3.83464 17.3836V9.20813C3.83514 8.82151 3.98894 8.45087 4.26233 8.17749C4.53571 7.90411 4.90635 7.7503 5.29297 7.7498H14.043C14.4297 7.7498 14.8007 7.59615 15.0742 7.32266C15.3477 7.04917 15.5013 6.67824 15.5013 6.29147C15.5013 5.90469 15.3477 5.53376 15.0742 5.26027C14.8007 4.98678 14.4297 4.83313 14.043 4.83313H5.29297C4.13304 4.8344 3.02097 5.29574 2.20078 6.11594C1.38058 6.93614 0.919235 8.0482 0.917969 9.20813V26.7081C0.919235 27.8681 1.38058 28.9801 2.20078 29.8003C3.02097 30.6205 4.13304 31.0819 5.29297 31.0831H22.793C23.9529 31.0819 25.065 30.6205 25.8852 29.8003C26.7054 28.9801 27.1667 27.8681 27.168 26.7081V16.4998C27.168 16.113 27.0143 15.7421 26.7408 15.4686C26.4673 15.1951 26.0964 15.0415 25.7096 15.0415ZM5.29297 28.1665C4.90635 28.166 4.53571 28.0122 4.26233 27.7388C3.98894 27.4654 3.83514 27.0948 3.83464 26.7081V21.5078L8.05943 17.283C8.27569 17.0793 8.5616 16.9658 8.85873 16.9658C9.15586 16.9658 9.44178 17.0793 9.65804 17.283L14.278 21.9017C14.2904 21.9151 14.295 21.9335 14.3079 21.9464L20.5284 28.1665H5.29297ZM24.2513 26.7081C24.2441 26.9893 24.1533 27.2619 23.9906 27.4913L17.4079 20.9086L18.4258 19.8907C18.6389 19.6786 18.9273 19.5596 19.228 19.5596C19.5286 19.5596 19.817 19.6786 20.0301 19.8907L24.2513 24.1119V26.7081Z" fill="white"/>
</svg>
