<svg width="435" height="435" viewBox="0 0 435 435" fill="none" xmlns="http://www.w3.org/2000/svg">
<path opacity="0.01129" d="M175.954 401.614C143.982 406.725 52.1968 362.464 51.5443 337.016C50.8918 311.569 65.6818 307.654 80.5805 306.24C95.4793 304.826 167.472 326.685 182.806 346.042C198.248 365.509 208.036 396.502 175.954 401.614Z" fill="url(#paint0_linear_35_26061)"/>
<path opacity="0.022581" d="M174.104 399.983C142.892 404.876 53.2824 361.811 52.5212 336.908C51.7599 312.004 66.1149 308.089 80.7962 306.784C95.5862 305.479 165.73 326.685 181.064 345.716C196.506 364.748 205.315 395.089 174.104 399.983Z" fill="url(#paint1_linear_35_26061)"/>
<path opacity="0.033871" d="M172.255 398.351C141.805 403.027 54.3697 361.267 53.6084 336.907C52.8472 312.438 66.5497 308.632 81.2309 307.327C95.9122 306.022 164.316 326.793 179.432 345.39C194.657 363.986 202.705 393.675 172.255 398.351Z" fill="url(#paint2_linear_35_26061)"/>
<path opacity="0.045161" d="M170.405 396.719C140.825 401.178 55.3474 360.723 54.5862 336.798C53.8249 312.873 66.9837 309.067 81.5562 307.871C96.1287 306.566 162.684 326.793 177.8 345.063C192.916 363.224 199.985 392.26 170.405 396.719Z" fill="url(#paint3_linear_35_26061)"/>
<path opacity="0.056451" d="M168.563 395.088C139.744 399.221 56.4418 360.18 55.5718 336.69C54.8106 313.308 67.4256 309.502 81.8893 308.306C96.3531 307.11 161.059 326.793 176.067 344.628C191.183 362.463 197.382 390.847 168.563 395.088Z" fill="url(#paint4_linear_35_26061)"/>
<path opacity="0.067742" d="M166.708 393.457C138.76 397.372 57.5233 359.527 56.6533 336.69C55.7833 313.744 67.9633 310.155 82.3183 308.959C96.6733 307.762 159.64 326.902 174.538 344.411C189.437 361.702 194.657 389.434 166.708 393.457Z" fill="url(#paint5_linear_35_26061)"/>
<path opacity="0.079032" d="M164.859 391.718C137.672 395.415 58.5018 358.875 57.6318 336.472C56.7618 314.07 68.398 310.481 82.6443 309.285C96.8905 308.089 158.008 326.794 172.798 343.868C187.697 360.941 192.047 388.129 164.859 391.718Z" fill="url(#paint6_linear_35_26061)"/>
<path opacity="0.090322" d="M163.011 390.086C136.585 393.566 59.5898 358.331 58.7198 336.363C57.8498 314.504 68.9423 310.916 83.0798 309.828C97.2173 308.741 156.486 326.793 171.276 343.432C185.849 360.179 189.329 386.714 163.011 390.086Z" fill="url(#paint7_linear_35_26061)"/>
<path opacity="0.1016" d="M161.053 388.455C135.497 391.608 60.5685 357.678 59.5897 336.363C58.7197 314.94 69.1597 311.46 83.1885 310.372C97.2172 309.285 154.637 326.902 169.318 343.106C184.108 359.418 186.718 385.301 161.053 388.455Z" fill="url(#paint8_linear_35_26061)"/>
<path opacity="0.1129" d="M159.21 386.824C134.415 389.76 61.5526 357.135 60.5739 336.255C59.5951 315.375 69.6001 311.895 83.5201 310.917C97.4401 309.829 153.12 326.903 167.693 342.78C182.374 358.658 184.005 383.888 159.21 386.824Z" fill="url(#paint9_linear_35_26061)"/>
<path opacity="0.1242" d="M157.355 385.193C133.43 387.911 62.6341 356.591 61.6554 336.146C60.6766 315.701 70.1379 312.439 83.9491 311.351C97.7604 310.264 151.592 326.903 166.055 342.345C180.628 357.788 181.389 382.474 157.355 385.193Z" fill="url(#paint10_linear_35_26061)"/>
<path opacity="0.1355" d="M155.508 383.561C132.344 386.062 63.7232 356.047 62.6357 336.146C61.657 316.245 70.5745 312.982 84.277 312.004C97.9795 311.025 149.962 327.011 164.426 342.127C178.889 357.026 178.672 381.06 155.508 383.561Z" fill="url(#paint11_linear_35_26061)"/>
<path opacity="0.1468" d="M153.662 381.821C131.26 384.105 64.7046 355.286 63.7259 335.929C62.7471 316.571 71.1209 313.309 84.7146 312.33C98.3084 311.351 148.551 326.903 162.797 341.584C177.043 356.265 175.956 379.646 153.662 381.821Z" fill="url(#paint12_linear_35_26061)"/>
<path opacity="0.1581" d="M151.809 380.19C130.277 382.148 65.7881 354.743 64.7006 335.82C63.6131 316.898 71.5519 313.744 85.0369 312.874C98.5219 312.004 146.916 326.903 161.162 341.258C175.299 355.504 173.342 378.233 151.809 380.19Z" fill="url(#paint13_linear_35_26061)"/>
<path opacity="0.1694" d="M149.965 378.558C129.193 380.298 66.8796 354.198 65.6834 335.82C64.5959 317.441 71.9909 314.287 85.3671 313.417C98.7434 312.547 145.288 327.011 159.426 340.822C173.563 354.742 170.627 376.818 149.965 378.558Z" fill="url(#paint14_linear_35_26061)"/>
<path opacity="0.1806" d="M148.006 376.927C128.104 378.449 67.7481 353.654 66.6606 335.711C65.5731 317.876 72.3156 314.722 85.6918 313.961C98.9593 313.091 143.656 327.011 157.793 340.496C171.822 353.981 168.016 375.404 148.006 376.927Z" fill="url(#paint15_linear_35_26061)"/>
<path opacity="0.1919" d="M146.161 375.296C127.021 376.601 68.8396 353.003 67.6434 335.603C66.4471 318.203 72.7546 315.266 85.9134 314.396C99.0721 313.635 142.028 327.011 155.948 340.061C170.086 353.22 165.301 373.991 146.161 375.296Z" fill="url(#paint16_linear_35_26061)"/>
<path opacity="0.2032" d="M144.306 373.665C125.927 374.753 69.8118 352.459 68.7243 335.603C67.5281 318.746 73.2918 315.81 86.3418 315.049C99.3918 314.288 140.499 327.12 154.419 339.844C168.231 352.459 162.684 372.578 144.306 373.665Z" fill="url(#paint17_linear_35_26061)"/>
<path opacity="0.2145" d="M142.459 372.034C124.95 372.795 70.9015 351.915 69.7053 335.494C68.509 319.072 73.729 316.245 86.6703 315.484C99.6115 314.722 138.87 327.12 152.682 339.409C166.493 351.697 159.968 371.164 142.459 372.034Z" fill="url(#paint18_linear_35_26061)"/>
<path opacity="0.2258" d="M140.607 370.294C123.86 370.838 71.986 351.263 70.7898 335.385C69.5935 319.508 74.2698 316.68 87.1023 316.028C99.9348 315.375 137.454 327.12 151.156 339.083C164.75 350.937 157.355 369.75 140.607 370.294Z" fill="url(#paint19_linear_35_26061)"/>
<path opacity="0.2371" d="M138.763 368.663C122.885 368.989 72.9688 350.61 71.7726 335.276C70.4676 319.942 74.7088 317.115 87.4326 316.462C100.156 315.81 135.826 327.12 149.42 338.647C163.014 350.175 154.64 368.336 138.763 368.663Z" fill="url(#paint20_linear_35_26061)"/>
<path opacity="0.2484" d="M136.914 367.031C121.798 367.14 74.0567 350.066 72.7517 335.167C71.4467 320.268 75.0355 317.55 87.7592 317.006C100.374 316.353 134.195 327.12 147.789 338.212C161.274 349.413 152.03 366.922 136.914 367.031Z" fill="url(#paint21_linear_35_26061)"/>
<path opacity="0.2597" d="M135.067 365.4C120.821 365.291 75.1455 349.523 73.8405 335.168C72.5355 320.813 75.5805 318.203 88.1955 317.55C100.702 317.006 132.783 327.229 146.159 337.886C159.427 348.544 149.313 365.509 135.067 365.4Z" fill="url(#paint22_linear_35_26061)"/>
<path opacity="0.271" d="M133.107 363.769C119.622 363.334 76.1221 348.87 74.7083 335.059C73.4033 321.139 75.9046 318.638 88.3021 318.094C100.7 317.55 130.932 327.229 144.308 337.56C157.685 347.783 146.701 364.095 133.107 363.769Z" fill="url(#paint23_linear_35_26061)"/>
<path opacity="0.2823" d="M131.255 362.137C118.531 361.485 77.0976 348.326 75.7926 334.95C74.3789 321.574 76.4451 319.072 88.7339 318.529C101.023 317.985 129.406 327.229 142.674 337.125C155.941 347.021 143.979 362.681 131.255 362.137Z" fill="url(#paint24_linear_35_26061)"/>
<path opacity="0.2935" d="M129.414 360.397C117.56 359.527 78.1924 347.674 76.7787 334.841C75.3649 322.009 76.8874 319.507 89.0674 319.072C101.247 318.637 127.782 327.229 140.941 336.799C154.209 346.26 141.267 361.267 129.414 360.397Z" fill="url(#paint25_linear_35_26061)"/>
<path opacity="0.3048" d="M127.559 358.766C116.466 357.678 79.1652 347.129 77.7515 334.732C76.3377 322.334 77.3165 319.942 89.3877 319.507C101.459 319.072 126.254 327.228 139.304 336.363C152.463 345.498 138.652 359.853 127.559 358.766Z" fill="url(#paint26_linear_35_26061)"/>
<path opacity="0.3161" d="M125.716 357.135C115.493 355.83 80.2583 346.477 78.8445 334.624C77.4308 322.77 77.757 320.377 89.8283 320.051C101.791 319.616 124.737 327.228 137.678 336.037C150.62 344.737 135.938 358.549 125.716 357.135Z" fill="url(#paint27_linear_35_26061)"/>
<path opacity="0.3274" d="M123.867 355.504C114.406 353.872 81.3462 345.934 79.8237 334.624C78.3012 323.314 78.1924 321.03 90.1549 320.595C102.117 320.16 123.106 327.337 136.047 335.602C148.88 343.976 133.329 357.135 123.867 355.504Z" fill="url(#paint28_linear_35_26061)"/>
<path opacity="0.3387" d="M122.015 353.872C113.315 352.024 82.3212 345.39 80.9075 334.515C79.385 323.64 78.7325 321.465 90.5862 321.139C102.331 320.812 121.689 327.337 134.412 335.276C147.136 343.215 130.606 355.721 122.015 353.872Z" fill="url(#paint29_linear_35_26061)"/>
<path opacity="0.35" d="M120.166 352.241C112.336 350.174 83.4081 344.846 81.8856 334.406C80.3631 323.966 79.1668 321.899 90.9118 321.573C102.657 321.247 119.948 327.337 132.672 334.949C145.396 342.453 127.996 354.307 120.166 352.241Z" fill="url(#paint30_linear_35_26061)"/>
<path d="M94.5 346.477L56.4375 334.949V278.399L94.5 290.036V346.477Z" fill="url(#paint31_linear_35_26061)"/>
<path d="M94.5 346.477L132.671 334.949V278.399L94.5 290.036V346.477Z" fill="url(#paint32_radial_35_26061)"/>
<path d="M94.5 346.477L132.671 334.949V278.399L94.5 290.036V346.477Z" fill="#FF0000"/>
<path d="M94.5 266.002L56.4375 278.399L94.5 290.036L132.671 278.399L94.5 266.002Z" fill="url(#paint33_radial_35_26061)"/>
<path opacity="0.01" d="M307.326 420.863C265.783 427.497 174.868 353.764 168.561 337.343C162.253 320.922 179.762 303.195 198.576 301.455C217.39 299.715 296.016 323.749 315.917 348.979C335.927 374.1 348.868 414.229 307.326 420.863Z" fill="url(#paint34_linear_35_26061)"/>
<path opacity="0.019355" d="M305.476 418.905C265.021 425.213 175.302 353.329 168.994 337.343C162.687 321.357 180.739 304.174 198.901 302.543C217.062 300.803 294.274 324.075 314.067 348.762C333.859 373.339 345.931 412.489 305.476 418.905Z" fill="url(#paint35_linear_35_26061)"/>
<path opacity="0.029032" d="M303.522 416.839C264.046 422.821 175.632 352.894 169.325 337.234C163.017 321.574 181.505 305.044 199.122 303.413C216.631 301.782 292.43 324.184 312.222 348.327C331.797 372.469 342.999 410.858 303.522 416.839Z" fill="url(#paint36_linear_35_26061)"/>
<path opacity="0.03871" d="M301.674 414.882C263.285 420.646 176.068 352.46 169.76 337.235C163.453 322.01 182.484 306.023 199.34 304.501C216.305 302.87 290.582 324.511 310.265 348.11C329.84 371.708 340.063 409.118 301.674 414.882Z" fill="url(#paint37_linear_35_26061)"/>
<path opacity="0.048387" d="M299.714 412.815C262.413 418.252 176.392 352.024 170.084 337.125C163.777 322.226 183.243 306.892 199.556 305.37C215.868 303.847 288.839 324.619 308.306 347.674C327.772 370.946 337.016 407.486 299.714 412.815Z" fill="url(#paint38_linear_35_26061)"/>
<path opacity="0.058064" d="M297.867 410.857C261.545 415.969 176.829 351.697 170.521 337.234C164.214 322.77 184.224 307.98 199.884 306.566C215.544 305.152 287.101 325.054 306.459 347.674C325.707 370.076 334.081 405.746 297.867 410.857Z" fill="url(#paint39_linear_35_26061)"/>
<path opacity="0.067742" d="M295.909 408.792C260.674 413.577 177.154 351.154 170.847 337.126C164.539 322.988 184.984 308.851 199.992 307.437C214.999 306.023 285.143 325.163 304.392 347.239C323.64 369.316 331.144 404.007 295.909 408.792Z" fill="url(#paint40_linear_35_26061)"/>
<path opacity="0.077419" d="M293.946 406.834C259.69 411.293 177.366 350.828 171.168 337.125C164.86 323.423 185.849 309.829 200.204 308.524C214.668 307.219 283.289 325.489 302.429 347.021C321.678 368.554 328.203 402.375 293.946 406.834Z" fill="url(#paint41_linear_35_26061)"/>
<path opacity="0.087097" d="M292.098 404.767C258.93 408.9 177.802 350.284 171.603 337.016C165.296 323.64 186.72 310.699 200.531 309.394C214.342 308.089 281.55 325.597 300.581 346.586C319.612 367.684 325.267 400.635 292.098 404.767Z" fill="url(#paint42_linear_35_26061)"/>
<path opacity="0.096774" d="M290.142 402.81C258.061 406.617 178.13 349.958 171.931 337.017C165.732 324.075 187.482 311.678 200.641 310.482C213.8 309.285 279.702 325.924 298.625 346.369C317.547 366.923 322.332 399.004 290.142 402.81Z" fill="url(#paint43_linear_35_26061)"/>
<path opacity="0.1065" d="M288.291 400.853C257.189 404.442 178.563 349.632 172.364 337.017C166.165 324.402 188.459 312.657 200.965 311.46C213.471 310.264 277.96 326.033 296.774 346.152C315.479 366.162 319.285 397.264 288.291 400.853Z" fill="url(#paint44_linear_35_26061)"/>
<path opacity="0.1161" d="M286.336 398.786C256.321 402.049 178.891 349.088 172.692 336.908C166.493 324.728 189.222 313.526 201.185 312.439C213.038 311.351 276.113 326.25 294.818 345.825C313.523 365.291 316.351 395.524 286.336 398.786Z" fill="url(#paint45_linear_35_26061)"/>
<path opacity="0.1258" d="M284.486 396.829C255.559 399.766 179.325 348.762 173.126 336.908C166.927 325.054 190.2 314.506 201.51 313.418C212.82 312.331 274.372 326.468 292.969 345.499C311.456 364.531 313.414 393.893 284.486 396.829Z" fill="url(#paint46_linear_35_26061)"/>
<path opacity="0.1355" d="M282.532 394.763C254.583 397.373 179.654 348.218 173.455 336.799C167.256 325.38 190.964 315.375 201.621 314.397C212.279 313.418 272.418 326.685 290.905 345.173C309.393 363.769 310.48 392.153 282.532 394.763Z" fill="url(#paint47_linear_35_26061)"/>
<path opacity="0.1452" d="M280.574 392.806C253.712 395.089 179.98 347.892 173.781 336.799C167.582 325.707 191.834 316.354 201.839 315.484C211.844 314.506 270.677 327.012 288.947 344.956C307.326 363.008 307.544 390.522 280.574 392.806Z" fill="url(#paint48_linear_35_26061)"/>
<path opacity="0.1548" d="M278.721 390.739C252.839 392.696 180.411 347.456 174.212 336.799C168.014 326.141 192.7 317.333 202.161 316.463C211.514 315.593 268.934 327.229 287.095 344.738C305.365 362.138 304.604 388.781 278.721 390.739Z" fill="url(#paint49_linear_35_26061)"/>
<path opacity="0.1645" d="M276.764 388.782C251.969 390.413 180.738 347.022 174.539 336.799C168.341 326.577 193.571 318.312 202.271 317.551C211.079 316.681 266.977 327.556 285.138 344.521C303.299 361.377 301.559 387.151 276.764 388.782Z" fill="url(#paint50_linear_35_26061)"/>
<path opacity="0.1742" d="M274.917 386.715C251.209 388.02 181.174 346.587 174.975 336.69C168.885 326.794 194.442 319.182 202.598 318.42C210.754 317.659 265.238 327.664 283.29 344.085C301.234 360.615 298.624 385.41 274.917 386.715Z" fill="url(#paint51_linear_35_26061)"/>
<path opacity="0.1839" d="M272.961 384.757C250.232 385.845 181.502 346.151 175.303 336.69C169.213 327.229 195.313 320.16 202.817 319.507C210.321 318.855 263.391 327.99 281.335 343.867C299.17 359.745 295.69 383.67 272.961 384.757Z" fill="url(#paint52_linear_35_26061)"/>
<path opacity="0.1935" d="M271.11 382.691C249.469 383.452 181.827 345.716 175.737 336.581C169.647 327.446 196.182 321.03 203.033 320.377C209.884 319.725 261.649 328.098 279.375 343.432C297.21 358.983 292.752 382.038 271.11 382.691Z" fill="url(#paint53_linear_35_26061)"/>
<path opacity="0.2032" d="M269.156 380.734C248.493 381.169 182.156 345.39 176.066 336.581C169.976 327.881 197.054 322.009 203.253 321.465C209.561 320.921 259.803 328.425 277.421 343.324C295.147 358.223 289.818 380.299 269.156 380.734Z" fill="url(#paint54_linear_35_26061)"/>
<path opacity="0.2129" d="M267.306 378.777C247.731 378.886 182.59 344.956 176.5 336.582C170.41 328.208 197.923 322.988 203.578 322.444C209.233 321.901 258.062 328.643 275.571 342.998C293.079 357.353 286.881 378.668 267.306 378.777Z" fill="url(#paint55_linear_35_26061)"/>
<path opacity="0.2226" d="M265.347 376.71C246.859 376.493 182.914 344.52 176.824 336.473C170.734 328.534 198.683 323.858 203.794 323.423C208.797 322.988 256.212 328.86 273.612 342.672C291.012 356.592 283.834 376.928 265.347 376.71Z" fill="url(#paint56_linear_35_26061)"/>
<path opacity="0.2323" d="M263.393 374.753C245.884 374.209 183.244 344.085 177.154 336.473C171.064 328.86 199.557 324.836 203.907 324.401C208.257 323.966 254.258 329.078 271.658 342.345C289.058 355.83 280.902 375.188 263.393 374.753Z" fill="url(#paint57_linear_35_26061)"/>
<path opacity="0.2419" d="M261.544 372.686C245.123 371.816 183.679 343.65 177.589 336.472C171.499 329.295 200.427 325.815 204.233 325.488C208.039 325.162 252.627 329.295 269.809 342.236C286.992 354.96 277.965 373.556 261.544 372.686Z" fill="url(#paint58_linear_35_26061)"/>
<path opacity="0.2516" d="M259.583 370.729C244.141 369.641 184.002 343.324 177.912 336.472C171.822 329.621 201.293 326.794 204.447 326.467C207.601 326.141 250.775 329.512 267.848 341.91C284.922 354.199 275.026 371.816 259.583 370.729Z" fill="url(#paint59_linear_35_26061)"/>
<path opacity="0.2613" d="M257.734 368.662C243.379 367.249 184.436 342.78 178.346 336.364C172.365 329.947 202.162 327.664 204.664 327.446C207.165 327.229 248.925 329.73 265.89 341.584C282.855 353.437 272.089 370.185 257.734 368.662Z" fill="url(#paint60_linear_35_26061)"/>
<path opacity="0.271" d="M255.782 366.705C242.514 364.965 184.768 342.454 178.678 336.364C172.697 330.274 203.038 328.643 204.887 328.425C206.736 328.208 247.082 329.948 263.938 341.258C280.903 352.568 269.158 368.445 255.782 366.705Z" fill="url(#paint61_linear_35_26061)"/>
<path opacity="0.2806" d="M253.927 364.639C241.638 362.573 185.197 341.911 179.216 336.256C173.234 330.601 204.011 329.513 205.316 329.404C206.621 329.296 245.444 330.166 262.192 340.932C278.831 351.807 266.216 366.706 253.927 364.639Z" fill="url(#paint62_linear_35_26061)"/>
<path opacity="0.2903" d="M251.975 362.681C240.774 360.288 185.529 341.583 179.548 336.255C173.567 330.926 204.887 330.491 205.43 330.382C206.083 330.273 243.602 330.382 260.132 340.713C276.77 351.045 263.177 365.073 251.975 362.681Z" fill="url(#paint63_linear_35_26061)"/>
<path opacity="0.3" d="M250.12 360.724C239.898 358.005 185.958 341.257 179.977 336.255C173.995 331.361 205.75 331.47 205.75 331.47C205.75 331.47 241.855 330.709 258.385 340.496C274.698 350.175 260.234 363.334 250.12 360.724Z" fill="url(#paint64_linear_35_26061)"/>
<path d="M204.883 346.477L166.82 334.95V233.269L204.883 244.905V346.477Z" fill="url(#paint65_linear_35_26061)"/>
<path d="M204.883 346.477L243.054 334.95V233.269L204.883 244.905V346.477Z" fill="url(#paint66_radial_35_26061)"/>
<path d="M204.883 346.477L243.054 334.95V233.269L204.883 244.905V346.477Z" fill="#FF0000"/>
<path d="M204.883 220.871L166.82 233.269L204.883 244.905L243.054 233.269L204.883 220.871Z" fill="url(#paint67_radial_35_26061)"/>
<path opacity="0.01" d="M433.256 428.148C432.821 428.04 285.682 355.503 277.634 334.841C269.587 314.178 291.772 291.776 315.588 289.601C339.296 287.426 432.929 318.963 433.582 319.289C434.234 319.724 433.691 428.257 433.256 428.148Z" fill="url(#paint68_linear_35_26061)"/>
<path opacity="0.019355" d="M431.517 426.082C430.647 425.865 286.227 355.069 278.18 334.841C270.132 314.614 292.97 292.972 315.916 290.906C338.862 288.731 430.865 319.181 432.17 320.051C433.475 320.704 432.278 426.3 431.517 426.082Z" fill="url(#paint69_linear_35_26061)"/>
<path opacity="0.029032" d="M429.78 423.907C428.583 423.581 286.665 354.525 278.726 334.732C270.678 315.048 294.168 294.168 316.245 292.102C338.43 290.036 428.801 319.398 430.758 320.595C432.716 321.791 430.976 424.233 429.78 423.907Z" fill="url(#paint70_linear_35_26061)"/>
<path opacity="0.03871" d="M427.929 421.732C426.297 421.297 286.989 353.872 279.05 334.623C271.111 315.375 295.036 295.256 316.46 293.298C337.775 291.341 426.624 319.616 429.234 321.138C431.952 322.769 429.669 422.167 427.929 421.732Z" fill="url(#paint71_linear_35_26061)"/>
<path opacity="0.048387" d="M426.193 419.666C424.127 419.122 287.537 353.437 279.598 334.732C271.66 316.027 296.237 296.561 316.791 294.712C337.345 292.755 424.562 319.942 427.933 322.008C431.305 323.857 428.26 420.21 426.193 419.666Z" fill="url(#paint72_linear_35_26061)"/>
<path opacity="0.058064" d="M424.45 417.491C421.949 416.838 287.969 352.893 280.031 334.623C272.092 316.353 297.322 297.757 317.114 295.908C336.907 294.059 422.493 320.159 426.517 322.552C430.541 324.944 426.952 418.143 424.45 417.491Z" fill="url(#paint73_linear_35_26061)"/>
<path opacity="0.067742" d="M422.706 415.425C419.77 414.664 288.509 352.35 280.57 334.624C272.631 316.789 298.405 298.954 317.436 297.214C336.468 295.474 420.423 320.486 425.099 323.314C429.775 325.924 425.643 416.186 422.706 415.425Z" fill="url(#paint74_linear_35_26061)"/>
<path opacity="0.077419" d="M420.973 413.25C417.711 412.38 288.951 351.807 281.012 334.515C273.073 317.224 299.499 300.042 317.661 298.41C335.822 296.67 418.254 320.704 423.583 323.858C429.021 327.012 424.236 414.12 420.973 413.25Z" fill="url(#paint75_linear_35_26061)"/>
<path opacity="0.087097" d="M419.226 411.184C415.528 410.205 289.378 351.371 281.548 334.515C273.609 317.659 300.688 301.346 318.088 299.715C335.488 298.084 416.29 320.921 422.271 324.51C428.252 328.099 422.923 412.163 419.226 411.184Z" fill="url(#paint76_linear_35_26061)"/>
<path opacity="0.096774" d="M417.491 409.009C413.358 407.921 289.927 350.827 281.988 334.406C274.049 318.094 301.672 302.434 318.311 300.911C334.949 299.389 414.119 321.139 420.862 325.162C427.496 329.077 421.623 410.096 417.491 409.009Z" fill="url(#paint77_linear_35_26061)"/>
<path opacity="0.1065" d="M415.746 406.833C411.179 405.637 290.357 350.174 282.527 334.297C274.697 318.419 302.864 303.521 318.632 302.107C334.51 300.584 412.049 321.356 419.444 325.706C426.73 330.164 420.314 408.029 415.746 406.833Z" fill="url(#paint78_linear_35_26061)"/>
<path opacity="0.1161" d="M413.903 404.767C408.901 403.462 290.689 349.739 282.859 334.406C275.029 319.072 303.739 304.934 318.856 303.521C333.863 302.107 409.879 321.791 417.927 326.467C425.974 331.143 418.906 406.072 413.903 404.767Z" fill="url(#paint79_linear_35_26061)"/>
<path opacity="0.1258" d="M412.159 402.592C406.722 401.178 291.229 349.196 283.399 334.297C275.569 319.398 304.932 306.022 319.178 304.717C333.424 303.412 407.809 321.9 416.509 327.12C425.209 332.231 417.597 404.006 412.159 402.592Z" fill="url(#paint80_linear_35_26061)"/>
<path opacity="0.1355" d="M410.423 400.526C404.659 399.004 291.668 348.652 283.838 334.297C276.008 319.834 306.023 307.219 319.399 306.022C332.884 304.717 405.638 322.226 414.99 327.772C424.561 333.319 416.295 402.049 410.423 400.526Z" fill="url(#paint81_linear_35_26061)"/>
<path opacity="0.1452" d="M408.684 398.351C402.485 396.72 292.104 348.108 284.383 334.188C276.553 320.268 307.111 308.415 319.835 307.218C332.45 306.022 403.681 322.443 413.686 328.425C423.8 334.297 414.882 399.982 408.684 398.351Z" fill="url(#paint82_linear_35_26061)"/>
<path opacity="0.1548" d="M406.941 396.284C400.307 394.544 292.645 347.673 284.815 334.188C276.985 320.703 308.196 309.611 320.05 308.523C331.904 307.436 401.504 322.661 412.27 329.077C423.036 335.384 413.575 398.024 406.941 396.284Z" fill="url(#paint83_linear_35_26061)"/>
<path opacity="0.1645" d="M405.203 394.11C398.134 392.261 293.082 347.13 285.361 334.08C277.639 321.139 309.394 310.808 320.378 309.72C331.471 308.633 399.439 322.879 410.858 329.621C422.277 336.473 412.272 395.959 405.203 394.11Z" fill="url(#paint84_linear_35_26061)"/>
<path opacity="0.1742" d="M403.457 391.935C395.953 389.977 293.62 346.477 285.79 333.971C278.068 321.465 310.367 311.895 320.698 310.916C331.03 309.937 397.367 323.096 409.438 330.273C421.51 337.451 410.852 394.001 403.457 391.935Z" fill="url(#paint85_linear_35_26061)"/>
<path opacity="0.1839" d="M401.717 389.869C393.887 387.803 294.055 346.043 286.333 333.971C278.612 322.009 311.563 313.091 321.025 312.221C330.486 311.351 395.301 323.423 408.025 330.926C420.748 338.539 409.547 391.935 401.717 389.869Z" fill="url(#paint86_linear_35_26061)"/>
<path opacity="0.1935" d="M399.871 387.694C391.606 385.519 294.383 345.499 286.662 333.971C278.941 322.444 312.436 314.396 321.244 313.526C329.944 312.765 393.128 323.64 406.504 331.579C419.881 339.517 408.244 389.869 399.871 387.694Z" fill="url(#paint87_linear_35_26061)"/>
<path opacity="0.2032" d="M398.132 385.627C389.432 383.343 294.928 344.954 287.207 333.97C279.485 322.878 313.633 315.592 321.572 314.83C329.51 314.069 391.063 323.965 405.2 332.339C419.229 340.604 406.831 387.91 398.132 385.627Z" fill="url(#paint88_linear_35_26061)"/>
<path opacity="0.2129" d="M396.392 383.452C387.257 381.06 295.364 344.411 287.642 333.862C279.921 323.314 314.721 316.68 321.79 316.027C328.859 315.375 388.889 324.184 403.679 332.884C418.469 341.692 405.527 385.845 396.392 383.452Z" fill="url(#paint89_linear_35_26061)"/>
<path opacity="0.2226" d="M394.649 381.386C385.079 378.885 295.795 343.976 288.183 333.862C280.462 323.748 315.805 317.985 322.222 317.332C328.529 316.788 386.928 324.401 402.37 333.645C417.813 342.671 404.219 383.887 394.649 381.386Z" fill="url(#paint90_linear_35_26061)"/>
<path opacity="0.2323" d="M392.909 379.211C382.904 376.601 296.339 343.323 288.618 333.753C281.005 324.183 316.893 319.072 322.439 318.528C327.985 317.984 384.753 324.618 400.848 334.188C417.051 343.758 402.805 381.821 392.909 379.211Z" fill="url(#paint91_linear_35_26061)"/>
<path opacity="0.2419" d="M391.172 377.036C380.841 374.317 296.777 342.78 289.164 333.645C281.552 324.51 318.092 320.16 322.768 319.725C327.553 319.29 382.689 324.836 399.437 334.732C416.293 344.846 401.503 379.864 391.172 377.036Z" fill="url(#paint92_linear_35_26061)"/>
<path opacity="0.2516" d="M389.43 374.97C378.663 372.143 297.318 342.345 289.597 333.645C281.985 325.054 319.068 321.465 323.092 321.03C327.007 320.704 380.621 325.163 398.13 335.494C415.53 345.825 400.196 377.798 389.43 374.97Z" fill="url(#paint93_linear_35_26061)"/>
<path opacity="0.2613" d="M387.693 372.795C376.492 369.859 297.757 341.801 290.145 333.645C282.532 325.489 320.268 322.661 323.422 322.335C326.576 322.009 378.558 325.38 396.72 336.146C414.772 346.912 398.786 375.731 387.693 372.795Z" fill="url(#paint94_linear_35_26061)"/>
<path opacity="0.271" d="M385.84 370.728C374.204 367.683 298.079 341.257 290.466 333.645C282.854 325.923 321.242 323.857 323.526 323.64C325.919 323.422 376.27 325.706 395.084 336.798C414.006 347.891 397.476 373.773 385.84 370.728Z" fill="url(#paint95_linear_35_26061)"/>
<path opacity="0.2806" d="M384.107 368.554C372.036 365.4 298.629 340.714 291.017 333.536C283.404 326.359 322.337 325.054 323.968 324.836C325.599 324.728 374.319 325.924 393.786 337.451C413.252 348.979 396.178 371.708 384.107 368.554Z" fill="url(#paint96_linear_35_26061)"/>
<path opacity="0.2903" d="M382.363 366.487C369.966 363.225 299.061 340.278 291.448 333.536C283.836 326.793 323.421 326.25 324.182 326.141C324.943 326.032 372.141 326.141 392.26 338.103C412.487 350.066 394.87 369.75 382.363 366.487Z" fill="url(#paint97_linear_35_26061)"/>
<path opacity="0.3" d="M380.623 364.313C367.791 360.941 299.496 339.626 291.992 333.428C284.488 327.229 324.508 327.338 324.508 327.338C324.508 327.338 370.074 326.359 390.954 338.756C411.834 351.045 393.456 367.684 380.623 364.313Z" fill="url(#paint98_linear_35_26061)"/>
<path d="M315.266 346.477L277.203 334.95V153.881L315.266 165.517V346.477Z" fill="url(#paint99_linear_35_26061)"/>
<path d="M315.266 346.477L353.437 334.95V153.881L315.266 165.517V346.477Z" fill="url(#paint100_radial_35_26061)"/>
<path d="M315.266 346.477L353.437 334.95V153.881L315.266 165.517V346.477Z" fill="#FF0000"/>
<path d="M315.266 141.483L277.203 153.881L315.266 165.517L353.437 153.881L315.266 141.483Z" fill="url(#paint101_radial_35_26061)"/>
<path d="M75.4728 193.684C76.0166 194.01 77.3216 194.663 78.7353 194.663C81.2366 194.663 82.1066 193.031 81.9978 191.835C81.9978 189.769 80.1491 188.899 78.1916 188.899H77.1041V187.376H78.1916C79.6053 187.376 81.4541 186.615 81.4541 184.875C81.4541 183.679 80.6928 182.7 78.8441 182.7C77.6478 182.7 76.5603 183.244 75.9078 183.679L75.3641 182.265C76.1253 181.721 77.6478 181.178 79.1703 181.178C82.1066 181.178 83.4116 182.918 83.4116 184.658C83.4116 186.18 82.5416 187.485 80.6928 188.138C82.5416 188.464 83.9553 189.878 83.9553 191.944C83.9553 194.336 82.1066 196.294 78.6266 196.294C76.9953 196.294 75.5816 195.75 74.8203 195.315L75.4728 193.684Z" fill="black"/>
<path d="M95.2619 183.026H89.7156L89.1719 186.832C89.4981 186.832 89.8244 186.724 90.3681 186.724C91.4556 186.724 92.6519 186.941 93.5219 187.485C94.7181 188.137 95.5881 189.442 95.5881 191.291C95.5881 194.119 93.3044 196.294 90.1506 196.294C88.5194 196.294 87.2144 195.859 86.4531 195.424L86.9969 193.901C87.6494 194.227 88.8456 194.662 90.1506 194.662C91.9994 194.662 93.6306 193.466 93.6306 191.509C93.6306 189.66 92.3256 188.246 89.3894 188.246C88.5194 188.246 87.8669 188.355 87.3231 188.355L88.3019 181.286H95.2619V183.026Z" fill="black"/>
<path d="M104.726 185.418C104.726 188.463 103.094 190.095 101.246 190.095C99.3969 190.095 97.8744 188.681 97.7656 185.636C97.7656 182.7 99.3969 181.068 101.354 181.068C103.312 181.068 104.726 182.7 104.726 185.418ZM99.2881 185.527C99.2881 187.376 99.9406 188.79 101.137 188.79C102.442 188.79 102.986 187.376 102.986 185.418C102.986 183.678 102.442 182.156 101.137 182.156C99.9406 182.265 99.2881 183.678 99.2881 185.527ZM101.028 196.185L109.619 181.068H110.924L102.333 196.185H101.028ZM114.187 191.508C114.187 194.553 112.556 196.185 110.707 196.185C108.858 196.185 107.336 194.771 107.227 191.835C107.227 188.898 108.858 187.267 110.816 187.267C112.882 187.158 114.187 188.681 114.187 191.508ZM108.858 191.617C108.858 193.466 109.511 194.88 110.816 194.88C112.121 194.88 112.664 193.466 112.664 191.508C112.664 189.768 112.121 188.246 110.816 188.246C109.511 188.355 108.858 189.768 108.858 191.617Z" fill="black"/>
<path d="M194.121 139.091H188.575L188.031 142.897C188.357 142.897 188.684 142.788 189.228 142.788C190.315 142.788 191.511 143.006 192.381 143.549C193.577 144.202 194.447 145.507 194.447 147.356C194.447 150.183 192.164 152.358 189.01 152.358C187.379 152.358 186.074 151.923 185.312 151.488L185.856 149.966C186.509 150.292 187.705 150.727 189.01 150.727C190.859 150.727 192.49 149.531 192.49 147.573C192.49 145.724 191.185 144.311 188.249 144.311C187.379 144.311 186.726 144.419 186.183 144.419L187.161 137.351H194.121V139.091Z" fill="black"/>
<path d="M206.407 137.46V138.765L199.991 152.141H197.925L204.232 139.2H197.055V137.569H206.407V137.46Z" fill="black"/>
<path d="M215.108 141.592C215.108 144.637 213.477 146.268 211.628 146.268C209.78 146.268 208.257 144.855 208.148 141.81C208.148 138.873 209.78 137.242 211.737 137.242C213.695 137.242 215.108 138.765 215.108 141.592ZM209.671 141.701C209.671 143.55 210.323 144.963 211.52 144.963C212.825 144.963 213.368 143.55 213.368 141.592C213.368 139.852 212.825 138.33 211.52 138.33C210.323 138.438 209.671 139.852 209.671 141.701ZM211.411 152.358L220.002 137.242H221.307L212.716 152.358H211.411ZM224.57 147.682C224.57 150.727 222.938 152.358 221.09 152.358C219.241 152.358 217.718 150.945 217.61 148.008C217.61 145.072 219.241 143.441 221.198 143.441C223.265 143.223 224.57 144.855 224.57 147.682ZM219.241 147.791C219.241 149.64 219.893 151.053 221.198 151.053C222.503 151.053 223.047 149.64 223.047 147.682C223.047 145.942 222.503 144.42 221.198 144.42C219.893 144.42 219.241 145.942 219.241 147.791Z" fill="black"/>
<path d="M293.514 58.8341L290.904 60.2479L290.469 58.7253L293.623 56.9854H295.363V71.6666H293.405V58.8341H293.514Z" fill="black"/>
<path d="M310.482 64.1626C310.482 69.1651 308.633 71.8838 305.37 71.8838C302.543 71.8838 300.585 69.1651 300.477 64.3801C300.477 59.4863 302.543 56.7676 305.588 56.7676C308.742 56.7676 310.482 59.4863 310.482 64.1626ZM302.543 64.3801C302.543 68.1863 303.739 70.3613 305.479 70.3613C307.545 70.3613 308.524 67.9688 308.524 64.2713C308.524 60.6826 307.545 58.2901 305.588 58.2901C303.848 58.2901 302.543 60.3563 302.543 64.3801Z" fill="black"/>
<path d="M322.114 64.1626C322.114 69.1651 320.266 71.8838 317.003 71.8838C314.176 71.8838 312.218 69.1651 312.109 64.3801C312.109 59.4863 314.176 56.7676 317.221 56.7676C320.374 56.7676 322.114 59.4863 322.114 64.1626ZM314.176 64.3801C314.176 68.1863 315.372 70.3613 317.112 70.3613C319.178 70.3613 320.157 67.9688 320.157 64.2713C320.157 60.6826 319.287 58.2901 317.221 58.2901C315.372 58.2901 314.176 60.3563 314.176 64.3801Z" fill="black"/>
<path d="M330.491 61.1176C330.491 64.1626 328.86 65.7938 327.011 65.7938C325.163 65.7938 323.64 64.3801 323.531 61.3351C323.531 58.3988 325.162 56.7676 327.12 56.7676C329.186 56.7676 330.491 58.2901 330.491 61.1176ZM325.162 61.2263C325.162 63.0751 325.815 64.4888 327.011 64.4888C328.316 64.4888 328.86 63.0751 328.86 61.1176C328.86 59.3776 328.316 57.8551 327.011 57.8551C325.815 57.9638 325.162 59.3776 325.162 61.2263ZM326.902 71.8838L335.494 56.7676H336.799L328.207 71.8838H326.902ZM340.061 67.2076C340.061 70.2526 338.43 71.8838 336.581 71.8838C334.732 71.8838 333.21 70.4701 333.101 67.5338C333.101 64.5976 334.732 62.9663 336.69 62.9663C338.756 62.7488 340.061 64.3801 340.061 67.2076ZM334.732 67.3163C334.732 69.1651 335.385 70.5788 336.69 70.5788C337.995 70.5788 338.539 69.1651 338.539 67.2076C338.539 65.4676 337.995 63.9451 336.69 63.9451C335.385 63.9451 334.732 65.4676 334.732 67.3163Z" fill="black"/>
<path d="M94.5031 207.169C85.8031 207.169 78.7344 214.238 78.7344 222.938C78.7344 231.638 85.8031 238.706 94.5031 238.706C103.203 238.706 110.272 231.638 110.272 222.938C110.272 214.238 103.312 207.169 94.5031 207.169ZM94.5031 212.715C96.8956 212.715 98.9619 214.673 98.9619 217.174H97.3306C97.3306 215.651 96.0256 214.346 94.5031 214.346C92.9806 214.346 91.6756 215.651 91.6756 217.174H90.0444C90.1531 214.673 92.1106 212.715 94.5031 212.715ZM103.203 229.136C103.203 230.006 102.551 230.659 101.681 230.659H87.3256C86.5644 230.659 85.8031 230.006 85.8031 229.136V220.763C85.8031 220.001 86.4556 219.24 87.3256 219.24H101.681C102.442 219.24 103.203 219.893 103.203 220.763V229.136Z" fill="black"/>
<path d="M198.688 179.981C198.688 180.09 198.796 180.307 199.014 180.307H210.976C211.085 180.307 211.303 180.199 211.303 179.981V170.737H198.796V179.981H198.688ZM200.862 177.697L204.016 175.087L205.865 176.175L208.149 172.912C208.257 172.695 208.584 172.586 208.801 172.804C209.019 173.021 209.128 173.347 208.91 173.565L206.083 177.589L204.016 176.392L201.406 178.567C201.297 178.676 201.189 178.676 201.08 178.676C200.971 178.676 200.754 178.567 200.645 178.459C200.645 178.132 200.645 177.806 200.862 177.697Z" fill="black"/>
<path d="M204.887 162.581C196.296 162.581 189.336 169.541 189.336 178.132C189.336 186.724 196.296 193.684 204.887 193.684C213.478 193.684 220.438 186.724 220.438 178.132C220.547 169.541 213.587 162.581 204.887 162.581ZM207.388 188.355C207.171 188.572 206.845 188.572 206.627 188.355L205.431 187.159V187.92C205.431 188.246 205.213 188.464 204.887 188.464C204.561 188.464 204.343 188.246 204.343 187.92V187.05L203.147 188.246C202.93 188.464 202.603 188.464 202.386 188.246C202.168 188.029 202.168 187.702 202.386 187.485L204.343 185.527V181.939C204.343 181.612 204.561 181.395 204.887 181.395C205.213 181.395 205.431 181.612 205.431 181.939V185.527L207.388 187.485C207.606 187.92 207.606 188.246 207.388 188.355ZM213.478 169.65C213.478 170.302 212.935 170.737 212.391 170.737H212.282V180.09C212.282 180.742 211.738 181.286 211.086 181.286H199.015C198.362 181.286 197.818 180.742 197.818 180.09V170.737H197.71C197.057 170.737 196.622 170.194 196.622 169.65V168.997C196.622 168.345 197.166 167.91 197.71 167.91H212.5C213.152 167.91 213.587 168.454 213.587 168.997V169.65H213.478Z" fill="black"/>
<path d="M315.269 82.6504C306.569 82.6504 299.5 89.7191 299.5 98.4191C299.5 107.119 306.569 114.188 315.269 114.188C323.969 114.188 331.038 107.119 331.038 98.4191C331.038 89.7191 324.078 82.6504 315.269 82.6504ZM315.269 86.4566C317.661 86.4566 319.619 88.4141 319.619 90.8066C319.619 93.1991 317.661 95.1566 315.269 95.1566C312.876 95.1566 310.919 93.1991 310.919 90.8066C310.919 88.4141 312.876 86.4566 315.269 86.4566ZM315.486 108.859C310.593 108.859 308.309 106.793 308.309 106.793C308.309 106.793 308.418 96.5704 311.68 96.5704C313.203 96.5704 313.529 97.2229 315.378 97.2229C317.226 97.2229 317.553 96.5704 319.075 96.5704C322.338 96.5704 322.446 106.793 322.446 106.793C322.446 106.793 320.38 108.859 315.486 108.859Z" fill="black"/>
<defs>
<linearGradient id="paint0_linear_35_26061" x1="50.6238" y1="346.673" x2="200.954" y2="361.656" gradientUnits="userSpaceOnUse">
<stop stop-color="#F8F7F7"/>
<stop offset="0.1113" stop-color="#F9F8F8"/>
<stop offset="1" stop-color="#FDFDFD"/>
</linearGradient>
<linearGradient id="paint1_linear_35_26061" x1="51.6447" y1="346.256" x2="198.73" y2="360.916" gradientUnits="userSpaceOnUse">
<stop stop-color="#F0F0F0"/>
<stop offset="0.3353" stop-color="#F5F5F5"/>
<stop offset="1" stop-color="#FAFAFA"/>
</linearGradient>
<linearGradient id="paint2_linear_35_26061" x1="52.6666" y1="345.839" x2="196.512" y2="360.175" gradientUnits="userSpaceOnUse">
<stop stop-color="#E9E8E8"/>
<stop offset="0.4911" stop-color="#F3F3F3"/>
<stop offset="1" stop-color="#F8F8F8"/>
</linearGradient>
<linearGradient id="paint3_linear_35_26061" x1="53.688" y1="345.421" x2="194.298" y2="359.436" gradientUnits="userSpaceOnUse">
<stop stop-color="#E1E1E1"/>
<stop offset="0.0542797" stop-color="#E3E3E3"/>
<stop offset="0.5639" stop-color="#F1F1F1"/>
<stop offset="1" stop-color="#F6F6F6"/>
</linearGradient>
<linearGradient id="paint4_linear_35_26061" x1="54.7163" y1="345.005" x2="192.097" y2="358.697" gradientUnits="userSpaceOnUse">
<stop stop-color="#DAD9D9"/>
<stop offset="0.1802" stop-color="#E2E1E1"/>
<stop offset="0.6219" stop-color="#EFEFEF"/>
<stop offset="1" stop-color="#F4F4F4"/>
</linearGradient>
<linearGradient id="paint5_linear_35_26061" x1="55.7302" y1="344.588" x2="189.887" y2="357.959" gradientUnits="userSpaceOnUse">
<stop stop-color="#D3D2D2"/>
<stop offset="0.2421" stop-color="#DFDEDE"/>
<stop offset="0.6504" stop-color="#ECECEC"/>
<stop offset="1" stop-color="#F1F1F1"/>
</linearGradient>
<linearGradient id="paint6_linear_35_26061" x1="56.7491" y1="344.171" x2="187.689" y2="357.221" gradientUnits="userSpaceOnUse">
<stop stop-color="#CBCACA"/>
<stop offset="0.3147" stop-color="#DCDCDC"/>
<stop offset="0.6839" stop-color="#EAEAEA"/>
<stop offset="1" stop-color="#EFEFEF"/>
</linearGradient>
<linearGradient id="paint7_linear_35_26061" x1="57.7686" y1="343.754" x2="185.499" y2="356.484" gradientUnits="userSpaceOnUse">
<stop stop-color="#C4C3C3"/>
<stop offset="0.3617" stop-color="#DADADA"/>
<stop offset="0.7059" stop-color="#E8E8E8"/>
<stop offset="1" stop-color="#EDEDED"/>
</linearGradient>
<linearGradient id="paint8_linear_35_26061" x1="58.7865" y1="343.337" x2="183.314" y2="355.749" gradientUnits="userSpaceOnUse">
<stop stop-color="#BDBBBB"/>
<stop offset="0.0558685" stop-color="#C1C0C0"/>
<stop offset="0.4012" stop-color="#D8D7D7"/>
<stop offset="0.724" stop-color="#E5E5E5"/>
<stop offset="1" stop-color="#EAEAEA"/>
</linearGradient>
<linearGradient id="paint9_linear_35_26061" x1="59.8084" y1="342.92" x2="181.142" y2="355.013" gradientUnits="userSpaceOnUse">
<stop stop-color="#B5B4B4"/>
<stop offset="0.1087" stop-color="#BEBEBE"/>
<stop offset="0.4346" stop-color="#D5D5D5"/>
<stop offset="0.7395" stop-color="#E3E3E3"/>
<stop offset="1" stop-color="#E8E8E8"/>
</linearGradient>
<linearGradient id="paint10_linear_35_26061" x1="60.8175" y1="342.503" x2="178.966" y2="354.279" gradientUnits="userSpaceOnUse">
<stop stop-color="#AEACAC"/>
<stop offset="0.1623" stop-color="#BDBCBC"/>
<stop offset="0.4686" stop-color="#D4D3D3"/>
<stop offset="0.7552" stop-color="#E1E1E1"/>
<stop offset="1" stop-color="#E6E6E6"/>
</linearGradient>
<linearGradient id="paint11_linear_35_26061" x1="61.8328" y1="342.086" x2="176.806" y2="353.545" gradientUnits="userSpaceOnUse">
<stop stop-color="#A6A5A5"/>
<stop offset="0.2008" stop-color="#BABABA"/>
<stop offset="0.493" stop-color="#D1D1D1"/>
<stop offset="0.7664" stop-color="#DFDFDF"/>
<stop offset="1" stop-color="#E4E4E4"/>
</linearGradient>
<linearGradient id="paint12_linear_35_26061" x1="62.8481" y1="341.67" x2="174.656" y2="352.813" gradientUnits="userSpaceOnUse">
<stop stop-color="#9F9D9D"/>
<stop offset="0.2348" stop-color="#B8B7B7"/>
<stop offset="0.5145" stop-color="#CECECE"/>
<stop offset="0.7763" stop-color="#DCDCDC"/>
<stop offset="1" stop-color="#E1E1E1"/>
</linearGradient>
<linearGradient id="paint13_linear_35_26061" x1="63.854" y1="341.252" x2="172.509" y2="352.082" gradientUnits="userSpaceOnUse">
<stop stop-color="#989696"/>
<stop offset="0.2649" stop-color="#B6B5B5"/>
<stop offset="0.5337" stop-color="#CCCCCC"/>
<stop offset="0.7851" stop-color="#DADADA"/>
<stop offset="1" stop-color="#DFDFDF"/>
</linearGradient>
<linearGradient id="paint14_linear_35_26061" x1="64.8665" y1="340.835" x2="170.379" y2="351.351" gradientUnits="userSpaceOnUse">
<stop stop-color="#908E8E"/>
<stop offset="0.02735" stop-color="#949292"/>
<stop offset="0.2961" stop-color="#B3B2B2"/>
<stop offset="0.5541" stop-color="#CACACA"/>
<stop offset="0.7946" stop-color="#D8D8D8"/>
<stop offset="1" stop-color="#DDDDDD"/>
</linearGradient>
<linearGradient id="paint15_linear_35_26061" x1="65.8715" y1="340.418" x2="168.256" y2="350.622" gradientUnits="userSpaceOnUse">
<stop stop-color="#898787"/>
<stop offset="0.0543497" stop-color="#918F8F"/>
<stop offset="0.3156" stop-color="#B0AFAF"/>
<stop offset="0.5665" stop-color="#C7C7C7"/>
<stop offset="0.8002" stop-color="#D5D5D5"/>
<stop offset="1" stop-color="#DADADA"/>
</linearGradient>
<linearGradient id="paint16_linear_35_26061" x1="66.8793" y1="340.002" x2="166.148" y2="349.896" gradientUnits="userSpaceOnUse">
<stop stop-color="#817F7F"/>
<stop offset="0.0910749" stop-color="#8E8D8D"/>
<stop offset="0.3422" stop-color="#AEADAD"/>
<stop offset="0.5833" stop-color="#C5C5C5"/>
<stop offset="0.808" stop-color="#D3D3D3"/>
<stop offset="1" stop-color="#D8D8D8"/>
</linearGradient>
<linearGradient id="paint17_linear_35_26061" x1="67.8726" y1="339.585" x2="164.043" y2="349.17" gradientUnits="userSpaceOnUse">
<stop stop-color="#7A7878"/>
<stop offset="0.1189" stop-color="#8C8B8B"/>
<stop offset="0.3623" stop-color="#ACABAB"/>
<stop offset="0.5961" stop-color="#C3C3C3"/>
<stop offset="0.8139" stop-color="#D1D1D1"/>
<stop offset="1" stop-color="#D6D6D6"/>
</linearGradient>
<linearGradient id="paint18_linear_35_26061" x1="68.8718" y1="339.168" x2="161.958" y2="348.446" gradientUnits="userSpaceOnUse">
<stop stop-color="#737070"/>
<stop offset="0.1445" stop-color="#8A8888"/>
<stop offset="0.3807" stop-color="#AAA8A8"/>
<stop offset="0.6078" stop-color="#C0C0C0"/>
<stop offset="0.8193" stop-color="#CECECE"/>
<stop offset="1" stop-color="#D3D3D3"/>
</linearGradient>
<linearGradient id="paint19_linear_35_26061" x1="69.8618" y1="338.753" x2="159.882" y2="347.725" gradientUnits="userSpaceOnUse">
<stop stop-color="#6B6969"/>
<stop offset="0.1681" stop-color="#878686"/>
<stop offset="0.3978" stop-color="#A7A6A6"/>
<stop offset="0.6186" stop-color="#BEBEBE"/>
<stop offset="0.8243" stop-color="#CCCCCC"/>
<stop offset="1" stop-color="#D1D1D1"/>
</linearGradient>
<linearGradient id="paint20_linear_35_26061" x1="70.8537" y1="338.336" x2="157.826" y2="347.004" gradientUnits="userSpaceOnUse">
<stop stop-color="#646161"/>
<stop offset="0.1943" stop-color="#868484"/>
<stop offset="0.4168" stop-color="#A6A4A4"/>
<stop offset="0.6306" stop-color="#BCBCBC"/>
<stop offset="0.8298" stop-color="#CACACA"/>
<stop offset="1" stop-color="#CFCFCF"/>
</linearGradient>
<linearGradient id="paint21_linear_35_26061" x1="71.8368" y1="337.92" x2="155.78" y2="346.287" gradientUnits="userSpaceOnUse">
<stop stop-color="#5C5A5A"/>
<stop offset="0.2144" stop-color="#838282"/>
<stop offset="0.4313" stop-color="#A3A2A2"/>
<stop offset="0.6398" stop-color="#BABABA"/>
<stop offset="0.8341" stop-color="#C8C8C8"/>
<stop offset="1" stop-color="#CDCDCD"/>
</linearGradient>
<linearGradient id="paint22_linear_35_26061" x1="72.8145" y1="337.506" x2="153.749" y2="345.573" gradientUnits="userSpaceOnUse">
<stop stop-color="#555252"/>
<stop offset="0.0126566" stop-color="#585555"/>
<stop offset="0.2315" stop-color="#807E7E"/>
<stop offset="0.4448" stop-color="#A09F9F"/>
<stop offset="0.6484" stop-color="#B7B7B7"/>
<stop offset="0.838" stop-color="#C5C5C5"/>
<stop offset="1" stop-color="#CACACA"/>
</linearGradient>
<linearGradient id="paint23_linear_35_26061" x1="73.7811" y1="337.093" x2="151.728" y2="344.862" gradientUnits="userSpaceOnUse">
<stop stop-color="#4E4B4B"/>
<stop offset="0.0352051" stop-color="#555353"/>
<stop offset="0.2491" stop-color="#7E7C7C"/>
<stop offset="0.4575" stop-color="#9E9D9D"/>
<stop offset="0.6564" stop-color="#B5B5B5"/>
<stop offset="0.8417" stop-color="#C3C3C3"/>
<stop offset="1" stop-color="#C8C8C8"/>
</linearGradient>
<linearGradient id="paint24_linear_35_26061" x1="74.7384" y1="336.681" x2="149.721" y2="344.154" gradientUnits="userSpaceOnUse">
<stop stop-color="#464343"/>
<stop offset="0.0606587" stop-color="#535151"/>
<stop offset="0.2689" stop-color="#7C7A7A"/>
<stop offset="0.4718" stop-color="#9C9B9B"/>
<stop offset="0.6654" stop-color="#B3B3B3"/>
<stop offset="0.8459" stop-color="#C1C1C1"/>
<stop offset="1" stop-color="#C6C6C6"/>
</linearGradient>
<linearGradient id="paint25_linear_35_26061" x1="75.6965" y1="336.273" x2="147.738" y2="343.453" gradientUnits="userSpaceOnUse">
<stop stop-color="#3F3C3C"/>
<stop offset="0.0764062" stop-color="#504E4E"/>
<stop offset="0.2811" stop-color="#797777"/>
<stop offset="0.4807" stop-color="#999898"/>
<stop offset="0.6711" stop-color="#B0B0B0"/>
<stop offset="0.8485" stop-color="#BEBEBE"/>
<stop offset="1" stop-color="#C3C3C3"/>
</linearGradient>
<linearGradient id="paint26_linear_35_26061" x1="76.6298" y1="335.87" x2="145.755" y2="342.759" gradientUnits="userSpaceOnUse">
<stop stop-color="#383434"/>
<stop offset="0.0989066" stop-color="#4F4C4C"/>
<stop offset="0.2986" stop-color="#787575"/>
<stop offset="0.4933" stop-color="#989696"/>
<stop offset="0.6791" stop-color="#AEAEAE"/>
<stop offset="0.8522" stop-color="#BCBCBC"/>
<stop offset="1" stop-color="#C1C1C1"/>
</linearGradient>
<linearGradient id="paint27_linear_35_26061" x1="77.5618" y1="335.472" x2="143.797" y2="342.074" gradientUnits="userSpaceOnUse">
<stop stop-color="#302D2D"/>
<stop offset="0.1167" stop-color="#4C4A4A"/>
<stop offset="0.3124" stop-color="#757373"/>
<stop offset="0.5033" stop-color="#959494"/>
<stop offset="0.6854" stop-color="#ACACAC"/>
<stop offset="0.8551" stop-color="#BABABA"/>
<stop offset="1" stop-color="#BFBFBF"/>
</linearGradient>
<linearGradient id="paint28_linear_35_26061" x1="78.475" y1="335.079" x2="141.847" y2="341.395" gradientUnits="userSpaceOnUse">
<stop stop-color="#292525"/>
<stop offset="0.1366" stop-color="#4B4848"/>
<stop offset="0.3279" stop-color="#737171"/>
<stop offset="0.5145" stop-color="#939292"/>
<stop offset="0.6925" stop-color="#AAAAAA"/>
<stop offset="0.8584" stop-color="#B8B8B8"/>
<stop offset="1" stop-color="#BDBDBD"/>
</linearGradient>
<linearGradient id="paint29_linear_35_26061" x1="79.369" y1="334.689" x2="139.905" y2="340.722" gradientUnits="userSpaceOnUse">
<stop stop-color="#211E1E"/>
<stop offset="0.1492" stop-color="#474545"/>
<stop offset="0.3377" stop-color="#706E6E"/>
<stop offset="0.5216" stop-color="#908F8F"/>
<stop offset="0.697" stop-color="#A7A7A7"/>
<stop offset="0.8604" stop-color="#B5B5B5"/>
<stop offset="1" stop-color="#BABABA"/>
</linearGradient>
<linearGradient id="paint30_linear_35_26061" x1="80.2494" y1="334.302" x2="137.979" y2="340.056" gradientUnits="userSpaceOnUse">
<stop stop-color="#1A1616"/>
<stop offset="0.1673" stop-color="#454343"/>
<stop offset="0.3517" stop-color="#6E6C6C"/>
<stop offset="0.5317" stop-color="#8E8D8D"/>
<stop offset="0.7034" stop-color="#A5A5A5"/>
<stop offset="0.8634" stop-color="#B3B3B3"/>
<stop offset="1" stop-color="#B8B8B8"/>
</linearGradient>
<linearGradient id="paint31_linear_35_26061" x1="-39.6958" y1="293.583" x2="110.666" y2="400.201" gradientUnits="userSpaceOnUse">
<stop offset="0.2318" stop-color="#FF5959"/>
<stop offset="0.3851" stop-color="#FF4848"/>
<stop offset="0.5386" stop-color="#FF6565"/>
<stop offset="0.692" stop-color="#FF4747"/>
<stop offset="0.8456" stop-color="#FF3232"/>
<stop offset="1" stop-color="#F25500"/>
<stop offset="1" stop-color="#FF0000"/>
</linearGradient>
<radialGradient id="paint32_radial_35_26061" cx="0" cy="0" r="1" gradientUnits="userSpaceOnUse" gradientTransform="translate(155.813 184.411) scale(316.878)">
<stop stop-color="#FFFF00"/>
<stop offset="0.1012" stop-color="#F7D000"/>
<stop offset="0.2242" stop-color="#EF9E00"/>
<stop offset="0.3501" stop-color="#E97300"/>
<stop offset="0.4767" stop-color="#E35000"/>
<stop offset="0.6042" stop-color="#DF3500"/>
<stop offset="0.733" stop-color="#DB2100"/>
<stop offset="0.8638" stop-color="#DA1600"/>
<stop offset="1" stop-color="#D91200"/>
</radialGradient>
<radialGradient id="paint33_radial_35_26061" cx="0" cy="0" r="1" gradientUnits="userSpaceOnUse" gradientTransform="translate(55.1873 276.045) scale(82.1352)">
<stop stop-color="#FF2828"/>
<stop offset="1" stop-color="#F00202"/>
</radialGradient>
<linearGradient id="paint34_linear_35_26061" x1="165.43" y1="352.799" x2="339.243" y2="370.122" gradientUnits="userSpaceOnUse">
<stop stop-color="#F8F7F7"/>
<stop offset="0.1113" stop-color="#F9F8F8"/>
<stop offset="1" stop-color="#FDFDFD"/>
</linearGradient>
<linearGradient id="paint35_linear_35_26061" x1="165.897" y1="352.402" x2="336.76" y2="369.432" gradientUnits="userSpaceOnUse">
<stop stop-color="#F0F0F0"/>
<stop offset="0.3353" stop-color="#F5F5F5"/>
<stop offset="1" stop-color="#FAFAFA"/>
</linearGradient>
<linearGradient id="paint36_linear_35_26061" x1="166.368" y1="352.006" x2="334.284" y2="368.741" gradientUnits="userSpaceOnUse">
<stop stop-color="#E9E8E8"/>
<stop offset="0.4911" stop-color="#F3F3F3"/>
<stop offset="1" stop-color="#F8F8F8"/>
</linearGradient>
<linearGradient id="paint37_linear_35_26061" x1="166.835" y1="351.61" x2="331.807" y2="368.053" gradientUnits="userSpaceOnUse">
<stop stop-color="#E1E1E1"/>
<stop offset="0.0542797" stop-color="#E3E3E3"/>
<stop offset="0.5639" stop-color="#F1F1F1"/>
<stop offset="1" stop-color="#F6F6F6"/>
</linearGradient>
<linearGradient id="paint38_linear_35_26061" x1="167.296" y1="351.213" x2="329.33" y2="367.362" gradientUnits="userSpaceOnUse">
<stop stop-color="#DAD9D9"/>
<stop offset="0.1802" stop-color="#E2E1E1"/>
<stop offset="0.6219" stop-color="#EFEFEF"/>
<stop offset="1" stop-color="#F4F4F4"/>
</linearGradient>
<linearGradient id="paint39_linear_35_26061" x1="167.758" y1="350.816" x2="326.859" y2="366.673" gradientUnits="userSpaceOnUse">
<stop stop-color="#D3D2D2"/>
<stop offset="0.2421" stop-color="#DFDEDE"/>
<stop offset="0.6504" stop-color="#ECECEC"/>
<stop offset="1" stop-color="#F1F1F1"/>
</linearGradient>
<linearGradient id="paint40_linear_35_26061" x1="168.216" y1="350.42" x2="324.388" y2="365.985" gradientUnits="userSpaceOnUse">
<stop stop-color="#CBCACA"/>
<stop offset="0.3147" stop-color="#DCDCDC"/>
<stop offset="0.6839" stop-color="#EAEAEA"/>
<stop offset="1" stop-color="#EFEFEF"/>
</linearGradient>
<linearGradient id="paint41_linear_35_26061" x1="168.669" y1="350.023" x2="321.917" y2="365.296" gradientUnits="userSpaceOnUse">
<stop stop-color="#C4C3C3"/>
<stop offset="0.3617" stop-color="#DADADA"/>
<stop offset="0.7059" stop-color="#E8E8E8"/>
<stop offset="1" stop-color="#EDEDED"/>
</linearGradient>
<linearGradient id="paint42_linear_35_26061" x1="169.126" y1="349.626" x2="319.454" y2="364.609" gradientUnits="userSpaceOnUse">
<stop stop-color="#BDBBBB"/>
<stop offset="0.0558685" stop-color="#C1C0C0"/>
<stop offset="0.4012" stop-color="#D8D7D7"/>
<stop offset="0.724" stop-color="#E5E5E5"/>
<stop offset="1" stop-color="#EAEAEA"/>
</linearGradient>
<linearGradient id="paint43_linear_35_26061" x1="169.581" y1="349.23" x2="316.996" y2="363.922" gradientUnits="userSpaceOnUse">
<stop stop-color="#B5B4B4"/>
<stop offset="0.1087" stop-color="#BEBEBE"/>
<stop offset="0.4346" stop-color="#D5D5D5"/>
<stop offset="0.7395" stop-color="#E3E3E3"/>
<stop offset="1" stop-color="#E8E8E8"/>
</linearGradient>
<linearGradient id="paint44_linear_35_26061" x1="170.031" y1="348.833" x2="314.538" y2="363.235" gradientUnits="userSpaceOnUse">
<stop stop-color="#AEACAC"/>
<stop offset="0.1623" stop-color="#BDBCBC"/>
<stop offset="0.4686" stop-color="#D4D3D3"/>
<stop offset="0.7552" stop-color="#E1E1E1"/>
<stop offset="1" stop-color="#E6E6E6"/>
</linearGradient>
<linearGradient id="paint45_linear_35_26061" x1="170.484" y1="348.436" x2="312.088" y2="362.55" gradientUnits="userSpaceOnUse">
<stop stop-color="#A6A5A5"/>
<stop offset="0.2008" stop-color="#BABABA"/>
<stop offset="0.493" stop-color="#D1D1D1"/>
<stop offset="0.7664" stop-color="#DFDFDF"/>
<stop offset="1" stop-color="#E4E4E4"/>
</linearGradient>
<linearGradient id="paint46_linear_35_26061" x1="170.933" y1="348.041" x2="309.64" y2="361.865" gradientUnits="userSpaceOnUse">
<stop stop-color="#9F9D9D"/>
<stop offset="0.2348" stop-color="#B8B7B7"/>
<stop offset="0.5145" stop-color="#CECECE"/>
<stop offset="0.7763" stop-color="#DCDCDC"/>
<stop offset="1" stop-color="#E1E1E1"/>
</linearGradient>
<linearGradient id="paint47_linear_35_26061" x1="171.384" y1="347.644" x2="307.199" y2="361.18" gradientUnits="userSpaceOnUse">
<stop stop-color="#989696"/>
<stop offset="0.2649" stop-color="#B6B5B5"/>
<stop offset="0.5337" stop-color="#CCCCCC"/>
<stop offset="0.7851" stop-color="#DADADA"/>
<stop offset="1" stop-color="#DFDFDF"/>
</linearGradient>
<linearGradient id="paint48_linear_35_26061" x1="171.83" y1="347.248" x2="304.761" y2="360.497" gradientUnits="userSpaceOnUse">
<stop stop-color="#908E8E"/>
<stop offset="0.02735" stop-color="#949292"/>
<stop offset="0.2961" stop-color="#B3B2B2"/>
<stop offset="0.5541" stop-color="#CACACA"/>
<stop offset="0.7946" stop-color="#D8D8D8"/>
<stop offset="1" stop-color="#DDDDDD"/>
</linearGradient>
<linearGradient id="paint49_linear_35_26061" x1="172.272" y1="346.852" x2="302.326" y2="359.814" gradientUnits="userSpaceOnUse">
<stop stop-color="#898787"/>
<stop offset="0.0543497" stop-color="#918F8F"/>
<stop offset="0.3156" stop-color="#B0AFAF"/>
<stop offset="0.5665" stop-color="#C7C7C7"/>
<stop offset="0.8002" stop-color="#D5D5D5"/>
<stop offset="1" stop-color="#DADADA"/>
</linearGradient>
<linearGradient id="paint50_linear_35_26061" x1="172.716" y1="346.457" x2="299.901" y2="359.133" gradientUnits="userSpaceOnUse">
<stop stop-color="#817F7F"/>
<stop offset="0.0910749" stop-color="#8E8D8D"/>
<stop offset="0.3422" stop-color="#AEADAD"/>
<stop offset="0.5833" stop-color="#C5C5C5"/>
<stop offset="0.808" stop-color="#D3D3D3"/>
<stop offset="1" stop-color="#D8D8D8"/>
</linearGradient>
<linearGradient id="paint51_linear_35_26061" x1="173.16" y1="346.061" x2="297.483" y2="358.452" gradientUnits="userSpaceOnUse">
<stop stop-color="#7A7878"/>
<stop offset="0.1189" stop-color="#8C8B8B"/>
<stop offset="0.3623" stop-color="#ACABAB"/>
<stop offset="0.5961" stop-color="#C3C3C3"/>
<stop offset="0.8139" stop-color="#D1D1D1"/>
<stop offset="1" stop-color="#D6D6D6"/>
</linearGradient>
<linearGradient id="paint52_linear_35_26061" x1="173.603" y1="345.665" x2="295.072" y2="357.772" gradientUnits="userSpaceOnUse">
<stop stop-color="#737070"/>
<stop offset="0.1445" stop-color="#8A8888"/>
<stop offset="0.3807" stop-color="#AAA8A8"/>
<stop offset="0.6078" stop-color="#C0C0C0"/>
<stop offset="0.8193" stop-color="#CECECE"/>
<stop offset="1" stop-color="#D3D3D3"/>
</linearGradient>
<linearGradient id="paint53_linear_35_26061" x1="174.042" y1="345.271" x2="292.665" y2="357.094" gradientUnits="userSpaceOnUse">
<stop stop-color="#6B6969"/>
<stop offset="0.1681" stop-color="#878686"/>
<stop offset="0.3978" stop-color="#A7A6A6"/>
<stop offset="0.6186" stop-color="#BEBEBE"/>
<stop offset="0.8243" stop-color="#CCCCCC"/>
<stop offset="1" stop-color="#D1D1D1"/>
</linearGradient>
<linearGradient id="paint54_linear_35_26061" x1="174.484" y1="344.876" x2="290.271" y2="356.417" gradientUnits="userSpaceOnUse">
<stop stop-color="#646161"/>
<stop offset="0.1943" stop-color="#868484"/>
<stop offset="0.4168" stop-color="#A6A4A4"/>
<stop offset="0.6306" stop-color="#BCBCBC"/>
<stop offset="0.8298" stop-color="#CACACA"/>
<stop offset="1" stop-color="#CFCFCF"/>
</linearGradient>
<linearGradient id="paint55_linear_35_26061" x1="174.921" y1="344.483" x2="287.882" y2="355.742" gradientUnits="userSpaceOnUse">
<stop stop-color="#5C5A5A"/>
<stop offset="0.2144" stop-color="#838282"/>
<stop offset="0.4313" stop-color="#A3A2A2"/>
<stop offset="0.6398" stop-color="#BABABA"/>
<stop offset="0.8341" stop-color="#C8C8C8"/>
<stop offset="1" stop-color="#CDCDCD"/>
</linearGradient>
<linearGradient id="paint56_linear_35_26061" x1="175.357" y1="344.088" x2="285.502" y2="355.066" gradientUnits="userSpaceOnUse">
<stop stop-color="#555252"/>
<stop offset="0.0126566" stop-color="#585555"/>
<stop offset="0.2315" stop-color="#807E7E"/>
<stop offset="0.4448" stop-color="#A09F9F"/>
<stop offset="0.6484" stop-color="#B7B7B7"/>
<stop offset="0.838" stop-color="#C5C5C5"/>
<stop offset="1" stop-color="#CACACA"/>
</linearGradient>
<linearGradient id="paint57_linear_35_26061" x1="175.797" y1="343.692" x2="283.137" y2="354.39" gradientUnits="userSpaceOnUse">
<stop stop-color="#4E4B4B"/>
<stop offset="0.0352051" stop-color="#555353"/>
<stop offset="0.2491" stop-color="#7E7C7C"/>
<stop offset="0.4575" stop-color="#9E9D9D"/>
<stop offset="0.6564" stop-color="#B5B5B5"/>
<stop offset="0.8417" stop-color="#C3C3C3"/>
<stop offset="1" stop-color="#C8C8C8"/>
</linearGradient>
<linearGradient id="paint58_linear_35_26061" x1="176.232" y1="343.293" x2="280.779" y2="353.713" gradientUnits="userSpaceOnUse">
<stop stop-color="#464343"/>
<stop offset="0.0606587" stop-color="#535151"/>
<stop offset="0.2689" stop-color="#7C7A7A"/>
<stop offset="0.4718" stop-color="#9C9B9B"/>
<stop offset="0.6654" stop-color="#B3B3B3"/>
<stop offset="0.8459" stop-color="#C1C1C1"/>
<stop offset="1" stop-color="#C6C6C6"/>
</linearGradient>
<linearGradient id="paint59_linear_35_26061" x1="176.665" y1="342.891" x2="278.429" y2="353.033" gradientUnits="userSpaceOnUse">
<stop stop-color="#3F3C3C"/>
<stop offset="0.0764062" stop-color="#504E4E"/>
<stop offset="0.2811" stop-color="#797777"/>
<stop offset="0.4807" stop-color="#999898"/>
<stop offset="0.6711" stop-color="#B0B0B0"/>
<stop offset="0.8485" stop-color="#BEBEBE"/>
<stop offset="1" stop-color="#C3C3C3"/>
</linearGradient>
<linearGradient id="paint60_linear_35_26061" x1="177.099" y1="342.478" x2="276.093" y2="352.344" gradientUnits="userSpaceOnUse">
<stop stop-color="#383434"/>
<stop offset="0.0989066" stop-color="#4F4C4C"/>
<stop offset="0.2986" stop-color="#787575"/>
<stop offset="0.4933" stop-color="#989696"/>
<stop offset="0.6791" stop-color="#AEAEAE"/>
<stop offset="0.8522" stop-color="#BCBCBC"/>
<stop offset="1" stop-color="#C1C1C1"/>
</linearGradient>
<linearGradient id="paint61_linear_35_26061" x1="177.541" y1="342.052" x2="273.778" y2="351.644" gradientUnits="userSpaceOnUse">
<stop stop-color="#302D2D"/>
<stop offset="0.1167" stop-color="#4C4A4A"/>
<stop offset="0.3124" stop-color="#757373"/>
<stop offset="0.5033" stop-color="#959494"/>
<stop offset="0.6854" stop-color="#ACACAC"/>
<stop offset="0.8551" stop-color="#BABABA"/>
<stop offset="1" stop-color="#BFBFBF"/>
</linearGradient>
<linearGradient id="paint62_linear_35_26061" x1="177.971" y1="341.608" x2="271.465" y2="350.926" gradientUnits="userSpaceOnUse">
<stop stop-color="#292525"/>
<stop offset="0.1366" stop-color="#4B4848"/>
<stop offset="0.3279" stop-color="#737171"/>
<stop offset="0.5145" stop-color="#939292"/>
<stop offset="0.6925" stop-color="#AAAAAA"/>
<stop offset="0.8584" stop-color="#B8B8B8"/>
<stop offset="1" stop-color="#BDBDBD"/>
</linearGradient>
<linearGradient id="paint63_linear_35_26061" x1="178.416" y1="341.14" x2="269.179" y2="350.186" gradientUnits="userSpaceOnUse">
<stop stop-color="#211E1E"/>
<stop offset="0.1492" stop-color="#474545"/>
<stop offset="0.3377" stop-color="#706E6E"/>
<stop offset="0.5216" stop-color="#908F8F"/>
<stop offset="0.697" stop-color="#A7A7A7"/>
<stop offset="0.8604" stop-color="#B5B5B5"/>
<stop offset="1" stop-color="#BABABA"/>
</linearGradient>
<linearGradient id="paint64_linear_35_26061" x1="178.85" y1="340.649" x2="266.895" y2="349.424" gradientUnits="userSpaceOnUse">
<stop stop-color="#1A1616"/>
<stop offset="0.1673" stop-color="#454343"/>
<stop offset="0.3517" stop-color="#6E6C6C"/>
<stop offset="0.5317" stop-color="#8E8D8D"/>
<stop offset="0.7034" stop-color="#A5A5A5"/>
<stop offset="0.8634" stop-color="#B3B3B3"/>
<stop offset="1" stop-color="#B8B8B8"/>
</linearGradient>
<linearGradient id="paint65_linear_35_26061" x1="70.687" y1="258.518" x2="261.886" y2="340.046" gradientUnits="userSpaceOnUse">
<stop offset="0.2318" stop-color="#FF5959"/>
<stop offset="0.3851" stop-color="#FF4848"/>
<stop offset="0.5386" stop-color="#FF6565"/>
<stop offset="0.692" stop-color="#FF4747"/>
<stop offset="0.8456" stop-color="#FF3232"/>
<stop offset="1" stop-color="#F25500"/>
<stop offset="1" stop-color="#FF0000"/>
</linearGradient>
<radialGradient id="paint66_radial_35_26061" cx="0" cy="0" r="1" gradientUnits="userSpaceOnUse" gradientTransform="translate(266.196 76.9988) scale(523.486)">
<stop stop-color="#FFFF00"/>
<stop offset="0.1012" stop-color="#F7D000"/>
<stop offset="0.2242" stop-color="#EF9E00"/>
<stop offset="0.3501" stop-color="#E97300"/>
<stop offset="0.4767" stop-color="#E35000"/>
<stop offset="0.6042" stop-color="#DF3500"/>
<stop offset="0.733" stop-color="#DB2100"/>
<stop offset="0.8638" stop-color="#DA1600"/>
<stop offset="1" stop-color="#D91200"/>
</radialGradient>
<radialGradient id="paint67_radial_35_26061" cx="0" cy="0" r="1" gradientUnits="userSpaceOnUse" gradientTransform="translate(165.57 230.914) scale(82.1352)">
<stop stop-color="#FF2828"/>
<stop offset="1" stop-color="#F00202"/>
</radialGradient>
<linearGradient id="paint68_linear_35_26061" x1="274.148" y1="348.559" x2="441.476" y2="365.236" gradientUnits="userSpaceOnUse">
<stop stop-color="#F8F7F7"/>
<stop offset="0.1113" stop-color="#F9F8F8"/>
<stop offset="1" stop-color="#FDFDFD"/>
</linearGradient>
<linearGradient id="paint69_linear_35_26061" x1="274.725" y1="348.263" x2="439.579" y2="364.693" gradientUnits="userSpaceOnUse">
<stop stop-color="#F0F0F0"/>
<stop offset="0.3353" stop-color="#F5F5F5"/>
<stop offset="1" stop-color="#FAFAFA"/>
</linearGradient>
<linearGradient id="paint70_linear_35_26061" x1="275.301" y1="347.966" x2="437.716" y2="364.154" gradientUnits="userSpaceOnUse">
<stop stop-color="#E9E8E8"/>
<stop offset="0.4911" stop-color="#F3F3F3"/>
<stop offset="1" stop-color="#F8F8F8"/>
</linearGradient>
<linearGradient id="paint71_linear_35_26061" x1="275.87" y1="347.671" x2="435.89" y2="363.62" gradientUnits="userSpaceOnUse">
<stop stop-color="#E1E1E1"/>
<stop offset="0.0542797" stop-color="#E3E3E3"/>
<stop offset="0.5639" stop-color="#F1F1F1"/>
<stop offset="1" stop-color="#F6F6F6"/>
</linearGradient>
<linearGradient id="paint72_linear_35_26061" x1="276.443" y1="347.375" x2="434.118" y2="363.09" gradientUnits="userSpaceOnUse">
<stop stop-color="#DAD9D9"/>
<stop offset="0.1802" stop-color="#E2E1E1"/>
<stop offset="0.6219" stop-color="#EFEFEF"/>
<stop offset="1" stop-color="#F4F4F4"/>
</linearGradient>
<linearGradient id="paint73_linear_35_26061" x1="277.007" y1="347.078" x2="432.394" y2="362.565" gradientUnits="userSpaceOnUse">
<stop stop-color="#D3D2D2"/>
<stop offset="0.2421" stop-color="#DFDEDE"/>
<stop offset="0.6504" stop-color="#ECECEC"/>
<stop offset="1" stop-color="#F1F1F1"/>
</linearGradient>
<linearGradient id="paint74_linear_35_26061" x1="277.566" y1="346.781" x2="430.73" y2="362.047" gradientUnits="userSpaceOnUse">
<stop stop-color="#CBCACA"/>
<stop offset="0.3147" stop-color="#DCDCDC"/>
<stop offset="0.6839" stop-color="#EAEAEA"/>
<stop offset="1" stop-color="#EFEFEF"/>
</linearGradient>
<linearGradient id="paint75_linear_35_26061" x1="278.136" y1="346.486" x2="429.146" y2="361.537" gradientUnits="userSpaceOnUse">
<stop stop-color="#C4C3C3"/>
<stop offset="0.3617" stop-color="#DADADA"/>
<stop offset="0.7059" stop-color="#E8E8E8"/>
<stop offset="1" stop-color="#EDEDED"/>
</linearGradient>
<linearGradient id="paint76_linear_35_26061" x1="278.689" y1="346.188" x2="427.62" y2="361.032" gradientUnits="userSpaceOnUse">
<stop stop-color="#BDBBBB"/>
<stop offset="0.0558685" stop-color="#C1C0C0"/>
<stop offset="0.4012" stop-color="#D8D7D7"/>
<stop offset="0.724" stop-color="#E5E5E5"/>
<stop offset="1" stop-color="#EAEAEA"/>
</linearGradient>
<linearGradient id="paint77_linear_35_26061" x1="279.252" y1="345.89" x2="426.174" y2="360.534" gradientUnits="userSpaceOnUse">
<stop stop-color="#B5B4B4"/>
<stop offset="0.1087" stop-color="#BEBEBE"/>
<stop offset="0.4346" stop-color="#D5D5D5"/>
<stop offset="0.7395" stop-color="#E3E3E3"/>
<stop offset="1" stop-color="#E8E8E8"/>
</linearGradient>
<linearGradient id="paint78_linear_35_26061" x1="279.803" y1="345.592" x2="424.783" y2="360.042" gradientUnits="userSpaceOnUse">
<stop stop-color="#AEACAC"/>
<stop offset="0.1623" stop-color="#BDBCBC"/>
<stop offset="0.4686" stop-color="#D4D3D3"/>
<stop offset="0.7552" stop-color="#E1E1E1"/>
<stop offset="1" stop-color="#E6E6E6"/>
</linearGradient>
<linearGradient id="paint79_linear_35_26061" x1="280.364" y1="345.294" x2="423.459" y2="359.556" gradientUnits="userSpaceOnUse">
<stop stop-color="#A6A5A5"/>
<stop offset="0.2008" stop-color="#BABABA"/>
<stop offset="0.493" stop-color="#D1D1D1"/>
<stop offset="0.7664" stop-color="#DFDFDF"/>
<stop offset="1" stop-color="#E4E4E4"/>
</linearGradient>
<linearGradient id="paint80_linear_35_26061" x1="280.913" y1="344.997" x2="422.171" y2="359.076" gradientUnits="userSpaceOnUse">
<stop stop-color="#9F9D9D"/>
<stop offset="0.2348" stop-color="#B8B7B7"/>
<stop offset="0.5145" stop-color="#CECECE"/>
<stop offset="0.7763" stop-color="#DCDCDC"/>
<stop offset="1" stop-color="#E1E1E1"/>
</linearGradient>
<linearGradient id="paint81_linear_35_26061" x1="281.469" y1="344.699" x2="420.929" y2="358.599" gradientUnits="userSpaceOnUse">
<stop stop-color="#989696"/>
<stop offset="0.2649" stop-color="#B6B5B5"/>
<stop offset="0.5337" stop-color="#CCCCCC"/>
<stop offset="0.7851" stop-color="#DADADA"/>
<stop offset="1" stop-color="#DFDFDF"/>
</linearGradient>
<linearGradient id="paint82_linear_35_26061" x1="282.018" y1="344.4" x2="419.714" y2="358.124" gradientUnits="userSpaceOnUse">
<stop stop-color="#908E8E"/>
<stop offset="0.02735" stop-color="#949292"/>
<stop offset="0.2961" stop-color="#B3B2B2"/>
<stop offset="0.5541" stop-color="#CACACA"/>
<stop offset="0.7946" stop-color="#D8D8D8"/>
<stop offset="1" stop-color="#DDDDDD"/>
</linearGradient>
<linearGradient id="paint83_linear_35_26061" x1="282.564" y1="344.102" x2="418.52" y2="357.652" gradientUnits="userSpaceOnUse">
<stop stop-color="#898787"/>
<stop offset="0.0543497" stop-color="#918F8F"/>
<stop offset="0.3156" stop-color="#B0AFAF"/>
<stop offset="0.5665" stop-color="#C7C7C7"/>
<stop offset="0.8002" stop-color="#D5D5D5"/>
<stop offset="1" stop-color="#DADADA"/>
</linearGradient>
<linearGradient id="paint84_linear_35_26061" x1="283.113" y1="343.803" x2="417.35" y2="357.182" gradientUnits="userSpaceOnUse">
<stop stop-color="#817F7F"/>
<stop offset="0.0910749" stop-color="#8E8D8D"/>
<stop offset="0.3422" stop-color="#AEADAD"/>
<stop offset="0.5833" stop-color="#C5C5C5"/>
<stop offset="0.808" stop-color="#D3D3D3"/>
<stop offset="1" stop-color="#D8D8D8"/>
</linearGradient>
<linearGradient id="paint85_linear_35_26061" x1="283.652" y1="343.503" x2="416.188" y2="356.713" gradientUnits="userSpaceOnUse">
<stop stop-color="#7A7878"/>
<stop offset="0.1189" stop-color="#8C8B8B"/>
<stop offset="0.3623" stop-color="#ACABAB"/>
<stop offset="0.5961" stop-color="#C3C3C3"/>
<stop offset="0.8139" stop-color="#D1D1D1"/>
<stop offset="1" stop-color="#D6D6D6"/>
</linearGradient>
<linearGradient id="paint86_linear_35_26061" x1="284.196" y1="343.203" x2="415.044" y2="356.245" gradientUnits="userSpaceOnUse">
<stop stop-color="#737070"/>
<stop offset="0.1445" stop-color="#8A8888"/>
<stop offset="0.3807" stop-color="#AAA8A8"/>
<stop offset="0.6078" stop-color="#C0C0C0"/>
<stop offset="0.8193" stop-color="#CECECE"/>
<stop offset="1" stop-color="#D3D3D3"/>
</linearGradient>
<linearGradient id="paint87_linear_35_26061" x1="284.741" y1="342.902" x2="413.914" y2="355.777" gradientUnits="userSpaceOnUse">
<stop stop-color="#6B6969"/>
<stop offset="0.1681" stop-color="#878686"/>
<stop offset="0.3978" stop-color="#A7A6A6"/>
<stop offset="0.6186" stop-color="#BEBEBE"/>
<stop offset="0.8243" stop-color="#CCCCCC"/>
<stop offset="1" stop-color="#D1D1D1"/>
</linearGradient>
<linearGradient id="paint88_linear_35_26061" x1="285.282" y1="342.6" x2="412.79" y2="355.308" gradientUnits="userSpaceOnUse">
<stop stop-color="#646161"/>
<stop offset="0.1943" stop-color="#868484"/>
<stop offset="0.4168" stop-color="#A6A4A4"/>
<stop offset="0.6306" stop-color="#BCBCBC"/>
<stop offset="0.8298" stop-color="#CACACA"/>
<stop offset="1" stop-color="#CFCFCF"/>
</linearGradient>
<linearGradient id="paint89_linear_35_26061" x1="285.823" y1="342.296" x2="411.674" y2="354.839" gradientUnits="userSpaceOnUse">
<stop stop-color="#5C5A5A"/>
<stop offset="0.2144" stop-color="#838282"/>
<stop offset="0.4313" stop-color="#A3A2A2"/>
<stop offset="0.6398" stop-color="#BABABA"/>
<stop offset="0.8341" stop-color="#C8C8C8"/>
<stop offset="1" stop-color="#CDCDCD"/>
</linearGradient>
<linearGradient id="paint90_linear_35_26061" x1="286.359" y1="341.989" x2="410.56" y2="354.368" gradientUnits="userSpaceOnUse">
<stop stop-color="#555252"/>
<stop offset="0.0126566" stop-color="#585555"/>
<stop offset="0.2315" stop-color="#807E7E"/>
<stop offset="0.4448" stop-color="#A09F9F"/>
<stop offset="0.6484" stop-color="#B7B7B7"/>
<stop offset="0.838" stop-color="#C5C5C5"/>
<stop offset="1" stop-color="#CACACA"/>
</linearGradient>
<linearGradient id="paint91_linear_35_26061" x1="286.897" y1="341.676" x2="409.455" y2="353.892" gradientUnits="userSpaceOnUse">
<stop stop-color="#4E4B4B"/>
<stop offset="0.0352051" stop-color="#555353"/>
<stop offset="0.2491" stop-color="#7E7C7C"/>
<stop offset="0.4575" stop-color="#9E9D9D"/>
<stop offset="0.6564" stop-color="#B5B5B5"/>
<stop offset="0.8417" stop-color="#C3C3C3"/>
<stop offset="1" stop-color="#C8C8C8"/>
</linearGradient>
<linearGradient id="paint92_linear_35_26061" x1="287.438" y1="341.356" x2="408.358" y2="353.408" gradientUnits="userSpaceOnUse">
<stop stop-color="#464343"/>
<stop offset="0.0606587" stop-color="#535151"/>
<stop offset="0.2689" stop-color="#7C7A7A"/>
<stop offset="0.4718" stop-color="#9C9B9B"/>
<stop offset="0.6654" stop-color="#B3B3B3"/>
<stop offset="0.8459" stop-color="#C1C1C1"/>
<stop offset="1" stop-color="#C6C6C6"/>
</linearGradient>
<linearGradient id="paint93_linear_35_26061" x1="287.974" y1="341.021" x2="407.261" y2="352.91" gradientUnits="userSpaceOnUse">
<stop stop-color="#3F3C3C"/>
<stop offset="0.0764062" stop-color="#504E4E"/>
<stop offset="0.2811" stop-color="#797777"/>
<stop offset="0.4807" stop-color="#999898"/>
<stop offset="0.6711" stop-color="#B0B0B0"/>
<stop offset="0.8485" stop-color="#BEBEBE"/>
<stop offset="1" stop-color="#C3C3C3"/>
</linearGradient>
<linearGradient id="paint94_linear_35_26061" x1="288.517" y1="340.664" x2="406.175" y2="352.391" gradientUnits="userSpaceOnUse">
<stop stop-color="#383434"/>
<stop offset="0.0989066" stop-color="#4F4C4C"/>
<stop offset="0.2986" stop-color="#787575"/>
<stop offset="0.4933" stop-color="#989696"/>
<stop offset="0.6791" stop-color="#AEAEAE"/>
<stop offset="0.8522" stop-color="#BCBCBC"/>
<stop offset="1" stop-color="#C1C1C1"/>
</linearGradient>
<linearGradient id="paint95_linear_35_26061" x1="289.053" y1="340.285" x2="405.086" y2="351.85" gradientUnits="userSpaceOnUse">
<stop stop-color="#302D2D"/>
<stop offset="0.1167" stop-color="#4C4A4A"/>
<stop offset="0.3124" stop-color="#757373"/>
<stop offset="0.5033" stop-color="#959494"/>
<stop offset="0.6854" stop-color="#ACACAC"/>
<stop offset="0.8551" stop-color="#BABABA"/>
<stop offset="1" stop-color="#BFBFBF"/>
</linearGradient>
<linearGradient id="paint96_linear_35_26061" x1="289.601" y1="339.884" x2="404.013" y2="351.287" gradientUnits="userSpaceOnUse">
<stop stop-color="#292525"/>
<stop offset="0.1366" stop-color="#4B4848"/>
<stop offset="0.3279" stop-color="#737171"/>
<stop offset="0.5145" stop-color="#939292"/>
<stop offset="0.6925" stop-color="#AAAAAA"/>
<stop offset="0.8584" stop-color="#B8B8B8"/>
<stop offset="1" stop-color="#BDBDBD"/>
</linearGradient>
<linearGradient id="paint97_linear_35_26061" x1="290.141" y1="339.462" x2="402.934" y2="350.704" gradientUnits="userSpaceOnUse">
<stop stop-color="#211E1E"/>
<stop offset="0.1492" stop-color="#474545"/>
<stop offset="0.3377" stop-color="#706E6E"/>
<stop offset="0.5216" stop-color="#908F8F"/>
<stop offset="0.697" stop-color="#A7A7A7"/>
<stop offset="0.8604" stop-color="#B5B5B5"/>
<stop offset="1" stop-color="#BABABA"/>
</linearGradient>
<linearGradient id="paint98_linear_35_26061" x1="290.683" y1="339.027" x2="401.862" y2="350.108" gradientUnits="userSpaceOnUse">
<stop stop-color="#1A1616"/>
<stop offset="0.1673" stop-color="#454343"/>
<stop offset="0.3517" stop-color="#6E6C6C"/>
<stop offset="0.5317" stop-color="#8E8D8D"/>
<stop offset="0.7034" stop-color="#A5A5A5"/>
<stop offset="0.8634" stop-color="#B3B3B3"/>
<stop offset="1" stop-color="#B8B8B8"/>
</linearGradient>
<linearGradient id="paint99_linear_35_26061" x1="181.07" y1="196.837" x2="393.676" y2="250.125" gradientUnits="userSpaceOnUse">
<stop offset="0.2318" stop-color="#FF5959"/>
<stop offset="0.3851" stop-color="#FF4848"/>
<stop offset="0.5386" stop-color="#FF6565"/>
<stop offset="0.692" stop-color="#FF4747"/>
<stop offset="0.8456" stop-color="#FF3232"/>
<stop offset="1" stop-color="#F25500"/>
<stop offset="1" stop-color="#FF0000"/>
</linearGradient>
<radialGradient id="paint100_radial_35_26061" cx="0" cy="0" r="1" gradientUnits="userSpaceOnUse" gradientTransform="translate(376.579 -111.944) scale(888.346 888.346)">
<stop stop-color="#FFFF00"/>
<stop offset="0.1012" stop-color="#F7D000"/>
<stop offset="0.2242" stop-color="#EF9E00"/>
<stop offset="0.3501" stop-color="#E97300"/>
<stop offset="0.4767" stop-color="#E35000"/>
<stop offset="0.6042" stop-color="#DF3500"/>
<stop offset="0.733" stop-color="#DB2100"/>
<stop offset="0.8638" stop-color="#DA1600"/>
<stop offset="1" stop-color="#D91200"/>
</radialGradient>
<radialGradient id="paint101_radial_35_26061" cx="0" cy="0" r="1" gradientUnits="userSpaceOnUse" gradientTransform="translate(275.953 151.526) scale(82.1352)">
<stop stop-color="#FF2828"/>
<stop offset="1" stop-color="#F00202"/>
</radialGradient>
</defs>
</svg>
