<svg width="30" height="30" viewBox="0 0 30 30" fill="none" xmlns="http://www.w3.org/2000/svg">
<mask id="path-1-inside-1_35_32609" fill="white">
<path fill-rule="evenodd" clip-rule="evenodd" d="M6.72231 0.202378C6.32903 0.442359 6.16216 0.879703 6.16216 1.67019V2.26395L5.02188 2.32928C3.2948 2.42817 2.33493 2.80883 1.36641 3.77855C0.805634 4.34011 0.392993 5.07599 0.18001 5.89452C-0.059934 6.81651 -0.060038 25.5973 0.179906 26.5193C0.590465 28.0972 1.9507 29.4534 3.52882 29.858C4.06544 29.9956 4.91352 30.0156 9.17754 29.9909L14.1948 29.962L14.4986 29.6216C15.1363 28.907 14.7492 27.8434 13.7939 27.6853C13.5755 27.6493 11.3124 27.6181 8.76459 27.6162C4.47922 27.6131 4.10104 27.5983 3.71588 27.4198C3.48686 27.3137 3.17312 27.092 3.01874 26.9271C2.38604 26.2517 2.41466 26.7617 2.41466 16.1702V6.48775L2.70551 5.93047C2.91714 5.52501 3.1347 5.28742 3.50362 5.0588C3.96613 4.77234 4.10468 4.7415 5.07507 4.70941L6.13926 4.67418L6.17798 5.52668C6.21463 6.33582 6.23378 6.39438 6.55534 6.68199C6.81933 6.91811 6.99411 6.98501 7.34689 6.98501C8.17467 6.98501 8.55452 6.43648 8.55577 5.23959L8.5564 4.69252H11.1588H13.7613V5.32108C13.7613 6.41741 14.1794 7.00585 14.9584 7.00585C15.7373 7.00585 16.1555 6.41741 16.1555 5.32108V4.69252H18.81H21.4644V5.48447C21.4644 6.2462 21.478 6.28997 21.8184 6.63072C22.1137 6.92634 22.2474 6.98459 22.6251 6.98272C23.4385 6.97855 23.7546 6.5411 23.7546 5.41955V4.67408L24.8823 4.70941C25.924 4.74192 26.0487 4.76859 26.5172 5.0588C26.8861 5.28742 27.1037 5.52501 27.3153 5.93047L27.6062 6.48775V10.0456C27.6062 12.0477 27.6506 13.7584 27.7078 13.958C28.004 14.9919 29.2667 15.2218 29.8042 14.3397C29.9858 14.0414 29.9997 13.7537 30 10.2633C30.0004 6.17232 29.9589 5.79208 29.3984 4.76078C29.0796 4.17401 28.3852 3.43812 27.8039 3.07069C27.1032 2.62793 26.2082 2.39556 24.9421 2.32762L23.7546 2.26395V1.48794C23.7546 0.738924 23.7419 0.699222 23.3874 0.344408C23.0491 0.00574501 22.9828 -0.0188469 22.5424 0.0307541C22.2138 0.0678507 21.9791 0.170179 21.7912 0.358267C21.5506 0.599186 21.5134 0.731525 21.4802 1.46387L21.4424 2.29583H18.8127H16.1829L16.1341 1.53671C16.0811 0.707454 15.8987 0.318044 15.4725 0.1236C14.8699 -0.151186 14.1502 0.106927 13.9092 0.684217C13.8279 0.879182 13.7613 1.32153 13.7613 1.66728V2.29583H11.1588H8.5564L8.55577 1.80087C8.55411 0.36504 7.69 -0.388354 6.72231 0.202378ZM6.81339 11.2604C6.53046 11.3743 6.1631 11.949 6.16258 12.2786C6.16206 12.6027 6.42241 13.0847 6.70524 13.283C7.1566 13.5996 8.09525 13.3977 8.34508 12.9304C8.51403 12.6145 8.46979 11.8578 8.26784 11.6082C7.91963 11.178 7.35418 11.0427 6.81339 11.2604ZM11.9396 11.2516C11.5197 11.4237 11.315 11.7736 11.315 12.3189C11.315 12.773 11.3572 12.8753 11.655 13.1416C12.4208 13.8266 13.5456 13.3362 13.5508 12.315C13.5526 11.9369 13.4945 11.8031 13.1991 11.5075C12.8342 11.1421 12.4149 11.057 11.9396 11.2516ZM17.0149 11.2604C16.6966 11.3885 16.3645 11.9638 16.3641 12.388C16.3635 12.8932 16.9315 13.4457 17.4515 13.4457C17.8995 13.4457 18.3961 13.212 18.5466 12.9304C18.6056 12.8201 18.6538 12.5346 18.6538 12.2959C18.6538 11.9412 18.5891 11.7969 18.2999 11.5075C17.9295 11.1367 17.5186 11.0577 17.0149 11.2604ZM22.1411 11.2516C21.7788 11.4001 21.5456 11.7546 21.491 12.2402C21.4424 12.6716 21.4684 12.741 21.8052 13.0781C22.5972 13.871 23.7546 13.3686 23.7546 12.232C23.7546 11.7175 23.1957 11.1504 22.698 11.1597C22.5061 11.1634 22.2556 11.2047 22.1411 11.2516ZM21.3603 16.004C20.9882 16.0838 20.2464 16.3654 19.7119 16.6299C16.346 18.2953 14.8869 22.51 16.5042 25.895C17.6495 28.2919 19.8536 29.8095 22.4362 29.9794C26.7045 30.26 30.2461 26.7148 29.9657 22.4421C29.7211 18.7141 26.6082 15.8234 22.8698 15.8524C22.4117 15.856 21.7325 15.9241 21.3603 16.004ZM6.57584 16.5584C6.23441 16.9002 6.10886 17.283 6.20828 17.6792C6.42074 18.5267 7.49221 18.8448 8.12897 18.2493C8.40566 17.9906 8.45199 17.8741 8.45001 17.4418C8.44647 16.6805 8.0204 16.2592 7.25404 16.2592C6.97526 16.2592 6.7957 16.3385 6.57584 16.5584ZM11.655 16.5632C11.3541 16.8323 11.315 16.9293 11.315 17.4054C11.315 17.8815 11.3541 17.9785 11.655 18.2476C12.1434 18.6845 12.7865 18.6777 13.2328 18.231C13.496 17.9675 13.5531 17.8265 13.5531 17.4391C13.5531 17.042 13.4973 16.9119 13.1991 16.6134C12.7227 16.1365 12.1527 16.118 11.655 16.5632ZM24.529 18.486C28.0281 19.7575 28.7193 24.4456 25.7421 26.7147C24.1704 27.9125 21.7428 27.9257 20.1407 26.7452C18.7491 25.7196 17.9363 23.8335 18.2213 22.2909C18.6197 20.1342 20.0126 18.693 22.1411 18.2355C22.7508 18.1044 23.7742 18.2117 24.529 18.486ZM22.2791 19.5637C21.8389 19.8371 21.7767 20.1131 21.7767 21.7973V23.3659L22.1307 23.7202L22.4846 24.0744H23.7546H25.0246L25.3785 23.7202C25.6766 23.4217 25.7324 23.2916 25.7324 22.8946C25.7324 22.234 25.3092 21.8065 24.611 21.7615L24.1189 21.7299L24.0669 20.8613C24.0177 20.0407 23.9961 19.9759 23.6748 19.689C23.2794 19.3357 22.7263 19.286 22.2791 19.5637ZM6.81339 21.4724C6.51942 21.5906 6.1631 22.1653 6.16258 22.522C6.16195 22.9545 6.58355 23.4878 7.01014 23.5944C7.82522 23.7979 8.4523 23.3487 8.4523 22.5614C8.4523 22.2971 8.4041 21.9907 8.34508 21.8804C8.11742 21.4546 7.35938 21.2526 6.81339 21.4724ZM11.655 21.6692C11.3541 21.9383 11.315 22.0353 11.315 22.5114C11.315 22.9875 11.3541 23.0845 11.655 23.3536C12.4197 24.0376 13.5531 23.5347 13.5531 22.5114C13.5531 21.4881 12.4197 20.9852 11.655 21.6692Z"/>
</mask>
<path fill-rule="evenodd" clip-rule="evenodd" d="M6.72231 0.202378C6.32903 0.442359 6.16216 0.879703 6.16216 1.67019V2.26395L5.02188 2.32928C3.2948 2.42817 2.33493 2.80883 1.36641 3.77855C0.805634 4.34011 0.392993 5.07599 0.18001 5.89452C-0.059934 6.81651 -0.060038 25.5973 0.179906 26.5193C0.590465 28.0972 1.9507 29.4534 3.52882 29.858C4.06544 29.9956 4.91352 30.0156 9.17754 29.9909L14.1948 29.962L14.4986 29.6216C15.1363 28.907 14.7492 27.8434 13.7939 27.6853C13.5755 27.6493 11.3124 27.6181 8.76459 27.6162C4.47922 27.6131 4.10104 27.5983 3.71588 27.4198C3.48686 27.3137 3.17312 27.092 3.01874 26.9271C2.38604 26.2517 2.41466 26.7617 2.41466 16.1702V6.48775L2.70551 5.93047C2.91714 5.52501 3.1347 5.28742 3.50362 5.0588C3.96613 4.77234 4.10468 4.7415 5.07507 4.70941L6.13926 4.67418L6.17798 5.52668C6.21463 6.33582 6.23378 6.39438 6.55534 6.68199C6.81933 6.91811 6.99411 6.98501 7.34689 6.98501C8.17467 6.98501 8.55452 6.43648 8.55577 5.23959L8.5564 4.69252H11.1588H13.7613V5.32108C13.7613 6.41741 14.1794 7.00585 14.9584 7.00585C15.7373 7.00585 16.1555 6.41741 16.1555 5.32108V4.69252H18.81H21.4644V5.48447C21.4644 6.2462 21.478 6.28997 21.8184 6.63072C22.1137 6.92634 22.2474 6.98459 22.6251 6.98272C23.4385 6.97855 23.7546 6.5411 23.7546 5.41955V4.67408L24.8823 4.70941C25.924 4.74192 26.0487 4.76859 26.5172 5.0588C26.8861 5.28742 27.1037 5.52501 27.3153 5.93047L27.6062 6.48775V10.0456C27.6062 12.0477 27.6506 13.7584 27.7078 13.958C28.004 14.9919 29.2667 15.2218 29.8042 14.3397C29.9858 14.0414 29.9997 13.7537 30 10.2633C30.0004 6.17232 29.9589 5.79208 29.3984 4.76078C29.0796 4.17401 28.3852 3.43812 27.8039 3.07069C27.1032 2.62793 26.2082 2.39556 24.9421 2.32762L23.7546 2.26395V1.48794C23.7546 0.738924 23.7419 0.699222 23.3874 0.344408C23.0491 0.00574501 22.9828 -0.0188469 22.5424 0.0307541C22.2138 0.0678507 21.9791 0.170179 21.7912 0.358267C21.5506 0.599186 21.5134 0.731525 21.4802 1.46387L21.4424 2.29583H18.8127H16.1829L16.1341 1.53671C16.0811 0.707454 15.8987 0.318044 15.4725 0.1236C14.8699 -0.151186 14.1502 0.106927 13.9092 0.684217C13.8279 0.879182 13.7613 1.32153 13.7613 1.66728V2.29583H11.1588H8.5564L8.55577 1.80087C8.55411 0.36504 7.69 -0.388354 6.72231 0.202378ZM6.81339 11.2604C6.53046 11.3743 6.1631 11.949 6.16258 12.2786C6.16206 12.6027 6.42241 13.0847 6.70524 13.283C7.1566 13.5996 8.09525 13.3977 8.34508 12.9304C8.51403 12.6145 8.46979 11.8578 8.26784 11.6082C7.91963 11.178 7.35418 11.0427 6.81339 11.2604ZM11.9396 11.2516C11.5197 11.4237 11.315 11.7736 11.315 12.3189C11.315 12.773 11.3572 12.8753 11.655 13.1416C12.4208 13.8266 13.5456 13.3362 13.5508 12.315C13.5526 11.9369 13.4945 11.8031 13.1991 11.5075C12.8342 11.1421 12.4149 11.057 11.9396 11.2516ZM17.0149 11.2604C16.6966 11.3885 16.3645 11.9638 16.3641 12.388C16.3635 12.8932 16.9315 13.4457 17.4515 13.4457C17.8995 13.4457 18.3961 13.212 18.5466 12.9304C18.6056 12.8201 18.6538 12.5346 18.6538 12.2959C18.6538 11.9412 18.5891 11.7969 18.2999 11.5075C17.9295 11.1367 17.5186 11.0577 17.0149 11.2604ZM22.1411 11.2516C21.7788 11.4001 21.5456 11.7546 21.491 12.2402C21.4424 12.6716 21.4684 12.741 21.8052 13.0781C22.5972 13.871 23.7546 13.3686 23.7546 12.232C23.7546 11.7175 23.1957 11.1504 22.698 11.1597C22.5061 11.1634 22.2556 11.2047 22.1411 11.2516ZM21.3603 16.004C20.9882 16.0838 20.2464 16.3654 19.7119 16.6299C16.346 18.2953 14.8869 22.51 16.5042 25.895C17.6495 28.2919 19.8536 29.8095 22.4362 29.9794C26.7045 30.26 30.2461 26.7148 29.9657 22.4421C29.7211 18.7141 26.6082 15.8234 22.8698 15.8524C22.4117 15.856 21.7325 15.9241 21.3603 16.004ZM6.57584 16.5584C6.23441 16.9002 6.10886 17.283 6.20828 17.6792C6.42074 18.5267 7.49221 18.8448 8.12897 18.2493C8.40566 17.9906 8.45199 17.8741 8.45001 17.4418C8.44647 16.6805 8.0204 16.2592 7.25404 16.2592C6.97526 16.2592 6.7957 16.3385 6.57584 16.5584ZM11.655 16.5632C11.3541 16.8323 11.315 16.9293 11.315 17.4054C11.315 17.8815 11.3541 17.9785 11.655 18.2476C12.1434 18.6845 12.7865 18.6777 13.2328 18.231C13.496 17.9675 13.5531 17.8265 13.5531 17.4391C13.5531 17.042 13.4973 16.9119 13.1991 16.6134C12.7227 16.1365 12.1527 16.118 11.655 16.5632ZM24.529 18.486C28.0281 19.7575 28.7193 24.4456 25.7421 26.7147C24.1704 27.9125 21.7428 27.9257 20.1407 26.7452C18.7491 25.7196 17.9363 23.8335 18.2213 22.2909C18.6197 20.1342 20.0126 18.693 22.1411 18.2355C22.7508 18.1044 23.7742 18.2117 24.529 18.486ZM22.2791 19.5637C21.8389 19.8371 21.7767 20.1131 21.7767 21.7973V23.3659L22.1307 23.7202L22.4846 24.0744H23.7546H25.0246L25.3785 23.7202C25.6766 23.4217 25.7324 23.2916 25.7324 22.8946C25.7324 22.234 25.3092 21.8065 24.611 21.7615L24.1189 21.7299L24.0669 20.8613C24.0177 20.0407 23.9961 19.9759 23.6748 19.689C23.2794 19.3357 22.7263 19.286 22.2791 19.5637ZM6.81339 21.4724C6.51942 21.5906 6.1631 22.1653 6.16258 22.522C6.16195 22.9545 6.58355 23.4878 7.01014 23.5944C7.82522 23.7979 8.4523 23.3487 8.4523 22.5614C8.4523 22.2971 8.4041 21.9907 8.34508 21.8804C8.11742 21.4546 7.35938 21.2526 6.81339 21.4724ZM11.655 21.6692C11.3541 21.9383 11.315 22.0353 11.315 22.5114C11.315 22.9875 11.3541 23.0845 11.655 23.3536C12.4197 24.0376 13.5531 23.5347 13.5531 22.5114C13.5531 21.4881 12.4197 20.9852 11.655 21.6692Z" fill="white" stroke="#FF0000" mask="url(#path-1-inside-1_35_32609)"/>
</svg>
