<svg width="30" height="30" viewBox="0 0 30 30" fill="none" xmlns="http://www.w3.org/2000/svg">
<path fill-rule="evenodd" clip-rule="evenodd" d="M7.86494 0.281614C7.04563 0.714556 6.48267 1.37111 6.24519 2.17113C5.91827 3.27191 5.91827 26.7222 6.24519 27.823C6.48695 28.637 7.05649 29.2914 7.89594 29.7198C8.41804 29.9861 8.7704 30 15.0282 30C20.2284 30 21.7078 29.9596 22.071 29.8074C22.7764 29.5118 23.4724 28.8585 23.7625 28.2198C24.0107 27.6735 24.0248 26.9603 24.0248 14.9971C24.0248 3.03387 24.0107 2.32058 23.7625 1.77433C23.4724 1.13564 22.7764 0.482367 22.071 0.186738C21.7069 0.0342794 20.2349 -0.00458548 14.9982 0.000415497C8.75482 0.00641667 8.35603 0.0221344 7.86494 0.281614ZM10.457 1.79448C10.457 2.34802 10.5317 2.52648 10.93 2.9247C11.5499 3.54468 11.9993 3.60398 15.6217 3.54354C18.1587 3.50124 18.5958 3.46038 18.9415 3.23362C19.3938 2.93713 19.7445 2.21042 19.7445 1.57044V1.13721L20.6376 1.13778C21.2711 1.13807 21.6635 1.21937 21.988 1.41726C22.9367 1.99566 22.888 1.25995 22.888 14.9971C22.888 28.7342 22.9367 27.9985 21.988 28.5769C21.552 28.8428 21.2251 28.8559 15.0046 28.8563L8.47849 28.8569L8.01954 28.4707C7.13479 27.7263 7.17066 28.2947 7.17066 14.9971C7.17066 1.69946 7.13479 2.26786 8.01954 1.52343C8.42162 1.18508 8.60122 1.13721 9.46782 1.13721H10.457V1.79448ZM18.5993 1.53014C18.5948 2.34687 18.5905 2.34802 15.2544 2.39531C13.2288 2.42403 12.0829 2.38574 11.8912 2.28315C11.6843 2.17241 11.6001 1.98409 11.6001 1.63231V1.13721H15.1008H18.6015L18.5993 1.53014ZM11.2023 26.4542C10.9438 26.7126 10.9905 26.9565 11.3462 27.2056C11.6122 27.3921 12.2216 27.4281 15.1052 27.4281C18.8272 27.4281 19.1027 27.3771 19.008 26.7056L18.9587 26.3564L15.1674 26.3184C12.3384 26.2901 11.3319 26.3246 11.2023 26.4542Z" fill="white"/>
</svg>
