<svg width="29" height="31" viewBox="0 0 29 31" fill="none" xmlns="http://www.w3.org/2000/svg">
<path fill-rule="evenodd" clip-rule="evenodd" d="M11.9034 1.25003C9.36713 2.48394 7.04579 3.60859 5.05881 4.5661C0.863563 6.58767 0.136071 6.95059 0.0699698 7.05468C-0.0229474 7.20124 -0.02351 23.3853 0.0694072 23.5318C0.131665 23.6299 1.74004 24.4342 4.82441 25.9099C5.34009 26.1566 6.45819 26.6957 7.30907 27.1078C12.6158 29.6783 13.9709 30.3253 14.0479 30.3253C14.1458 30.3253 15.3088 29.7814 17.7634 28.5876C20.3294 27.3396 22.267 26.4018 23.2016 25.9556C26.2321 24.5089 27.9866 23.6324 28.049 23.5339C28.1435 23.3848 28.1432 7.20199 28.0486 7.0529C27.9845 6.95181 26.6949 6.30752 23.2016 4.6314C22.172 4.13733 20.6804 3.41534 17.6697 1.95332C15.113 0.711901 14.1415 0.261798 14.0267 0.265649C13.9676 0.267622 13.0121 0.710585 11.9034 1.25003ZM15.0244 1.66105C15.551 1.91377 16.6992 2.46825 17.5759 2.89318C18.4526 3.3181 19.5918 3.86798 20.1075 4.11506C20.6231 4.36214 21.9311 4.99638 23.014 5.52465C24.097 6.05282 25.3311 6.64714 25.7566 6.84527C26.182 7.0435 26.5301 7.24145 26.5301 7.28532C26.5301 7.3291 25.739 7.74614 24.7721 8.21202L23.014 9.05915L22.1702 8.64117C21.7061 8.41119 20.7778 7.95921 20.1075 7.63669C19.4371 7.31407 17.6439 6.44731 16.1226 5.71038C14.6013 4.97355 12.7028 4.05625 11.9035 3.67191C10.6211 3.05533 10.4723 2.96054 10.6377 2.86537C10.8201 2.76043 13.9862 1.21678 14.0399 1.20663C14.0548 1.20381 14.4978 1.40833 15.0244 1.66105ZM11.4346 4.42264C15.1744 6.23677 19.4393 8.30118 20.6466 8.88159C21.3557 9.22252 21.9342 9.52588 21.9322 9.55566C21.9303 9.58544 21.3663 9.87442 20.679 10.1977L19.4294 10.7855L17.565 9.88147C16.5397 9.3843 15.0467 8.66278 14.2474 8.27816C11.3747 6.89572 9.39694 5.93717 8.15292 5.32435L6.88715 4.70092L8.13351 4.08246C9.1181 3.59393 9.42338 3.4811 9.58681 3.54536C9.70064 3.59008 10.5321 3.98485 11.4346 4.42264ZM6.29336 5.41933C6.51679 5.51732 7.67005 6.07142 8.85613 6.65071C10.0422 7.22999 11.3502 7.86395 11.7627 8.05954C12.1753 8.25514 13.3989 8.84542 14.4818 9.37115C15.5647 9.89697 17.031 10.6057 17.74 10.9462L19.0292 11.5653V14.3104C19.0292 17.3201 19.0339 17.3455 19.5755 17.237C19.7211 17.2078 20.5237 16.8464 21.3592 16.4338C22.1946 16.0211 22.9298 15.6663 22.993 15.6453C23.0787 15.6167 23.1197 14.8955 23.1547 12.7964L23.2016 9.98566L25.1555 9.02232C26.2301 8.49246 27.1478 8.08275 27.1948 8.11187C27.2987 8.17632 27.3093 22.806 27.2054 22.9698C27.166 23.0321 26.5653 23.3545 25.8708 23.6862C25.1763 24.018 23.8485 24.6586 22.9203 25.1099C21.9921 25.5612 20.7685 26.1533 20.2012 26.4256C19.634 26.6979 18.3682 27.3111 17.3884 27.7882C15.5525 28.6822 14.6499 29.104 14.5728 29.104C14.5486 29.104 14.5287 25.7406 14.5287 21.6296V14.1553L16.0214 13.427C16.8424 13.0263 17.5808 12.6432 17.6623 12.5754C17.8603 12.4107 17.8488 12.232 17.6259 12.0086C17.4579 11.8403 17.4098 11.835 17.0868 11.9492C16.8916 12.0181 16.1736 12.355 15.491 12.6976C14.8086 13.0404 14.1638 13.3208 14.0586 13.3208C13.9532 13.3208 13.6163 13.194 13.3098 13.039C12.6551 12.7078 12.5494 12.6969 12.3314 12.9382C12.0604 13.2383 12.2257 13.487 12.9195 13.8229L13.5442 14.1255L13.5682 21.6147C13.5814 25.7338 13.5744 29.104 13.5525 29.104C13.4649 29.104 12.5977 28.6977 10.5438 27.6944C9.35775 27.115 7.9654 26.4388 7.44971 26.1917C6.93403 25.9445 5.79483 25.3947 4.91817 24.9696C4.0415 24.5447 2.79682 23.9442 2.15222 23.6353C1.5077 23.3263 0.949261 23.0247 0.911381 22.965C0.81087 22.8068 0.822777 8.17519 0.923477 8.11281C0.969607 8.08425 1.80286 8.44576 2.77526 8.91616C3.74756 9.38655 4.96505 9.97382 5.48073 10.2212C5.99642 10.4685 7.30438 11.1021 8.38732 11.6294C10.6948 12.7525 10.7329 12.7687 10.9207 12.6964C11.122 12.619 11.2582 12.3317 11.1846 12.1396C11.1212 11.9742 9.12682 10.9775 2.73822 7.91825C2.10646 7.61574 1.58965 7.33558 1.58965 7.29556C1.58965 7.25554 1.89559 7.07676 2.26942 6.89835C2.64324 6.71995 3.56098 6.27454 4.30872 5.90861C5.05646 5.54269 5.71748 5.24281 5.77767 5.24234C5.83787 5.24177 6.06993 5.32144 6.29336 5.41933ZM22.3108 12.7413V14.9803L21.1623 15.5479C20.5305 15.8602 19.9821 16.0973 19.9434 16.0749C19.9047 16.0525 19.8731 15.0318 19.8731 13.8066V11.5789L20.9279 11.0461C21.5081 10.753 22.0566 10.5108 22.1468 10.5078C22.2986 10.5027 22.3108 10.6695 22.3108 12.7413ZM2.01326 18.3587C1.64947 18.7233 1.8218 18.8629 3.93368 19.914C5.0424 20.4659 6.03927 20.9203 6.14906 20.924C6.40606 20.9324 6.58167 20.7177 6.54276 20.4425C6.51735 20.2629 6.16838 20.0548 4.49624 19.2222C3.38752 18.6702 2.40959 18.2157 2.32295 18.2123C2.23641 18.2089 2.09708 18.2748 2.01326 18.3587ZM2.07936 20.4192C1.82902 20.5948 1.81102 20.8493 2.03501 21.0441C2.24588 21.2276 4.1857 22.1519 4.35982 22.1519C4.54987 22.1519 4.79346 21.739 4.71864 21.5437C4.66989 21.4165 2.51863 20.2729 2.3283 20.2729C2.30598 20.2729 2.19394 20.3388 2.07936 20.4192Z" fill="#01A944"/>
</svg>
