<svg width="15" height="15" viewBox="0 0 15 15" fill="none" xmlns="http://www.w3.org/2000/svg">
<path d="M4.28378 9.77873L2.77502 8.27C2.47938 7.97501 2.08751 7.8125 1.67003 7.8125H0.62501C0.45251 7.8125 0.3125 7.95251 0.3125 8.12501C0.3125 8.29751 0.45251 8.43749 0.62501 8.43749H1.67C1.91624 8.43749 2.15812 8.53748 2.33249 8.71186L3.30811 9.68747H0.62501C0.45251 9.68747 0.3125 9.82748 0.3125 9.99998C0.3125 10.1725 0.45251 10.3125 0.62501 10.3125H4.0625C4.18874 10.3125 4.3025 10.2362 4.35125 10.1194C4.4 10.0025 4.37313 9.86812 4.28378 9.77873Z" fill="#FF0000"/>
<path d="M4.06252 11.25C3.89002 11.25 3.75001 11.39 3.75001 11.5625V12.5C3.75001 12.6725 3.60938 12.8125 3.4375 12.8125H1.5625C1.39062 12.8125 1.24999 12.6725 1.24999 12.5V11.25C1.24999 11.0775 1.10998 10.9375 0.93748 10.9375C0.76498 10.9375 0.625 11.0775 0.625 11.25V12.5C0.625 13.0169 1.04562 13.4375 1.5625 13.4375H3.4375C3.95438 13.4375 4.375 13.0169 4.375 12.5V11.5625C4.375 11.39 4.23502 11.25 4.06252 11.25Z" fill="#FF0000"/>
<path d="M13.5819 5.97312C12.7206 5.5225 10.7875 5.3125 7.5 5.3125C4.21248 5.3125 2.27938 5.5225 1.41812 5.97312C0.436875 6.48561 0 7.34187 0 8.74999C0 10.1037 0.30999 11.2812 0.323115 11.3306C0.359355 11.4675 0.483105 11.5625 0.62499 11.5625H3.36375L4.54749 12.1544C4.59123 12.1763 4.63937 12.1875 4.6875 12.1875H10.3125C10.3606 12.1875 10.4087 12.1763 10.4519 12.1544L11.6362 11.5625H14.375C14.5169 11.5625 14.6406 11.4675 14.6769 11.3306C14.69 11.2812 15 10.1037 15 8.74999C15 7.34187 14.5631 6.48561 13.5819 5.97312ZM14.1281 10.9375H11.5631C11.5144 10.9375 11.4662 10.9487 11.4231 10.9706L10.2387 11.5625H4.76124L3.5775 10.9706C3.53376 10.9487 3.48563 10.9375 3.43749 10.9375H0.87249C0.785625 10.5394 0.62499 9.67935 0.62499 8.74996C0.62499 7.57308 0.938731 6.92872 1.70687 6.52683C2.45561 6.13557 4.40438 5.93746 7.5 5.93746C10.5956 5.93746 12.5444 6.1356 13.2931 6.52683C14.0613 6.92869 14.375 7.57308 14.375 8.74996C14.375 9.67935 14.2144 10.5394 14.1281 10.9375Z" fill="#FF0000"/>
<path d="M14.3749 9.6875H11.6917L12.6667 8.71188C12.8417 8.53751 13.083 8.43752 13.3299 8.43752H14.3749C14.5474 8.43752 14.6874 8.29751 14.6874 8.12501C14.6874 7.95251 14.5474 7.8125 14.3749 7.8125H13.3299C12.9124 7.8125 12.5205 7.97501 12.2249 8.27L10.7161 9.77876C10.6274 9.86815 10.6005 10.0025 10.6486 10.1194C10.6967 10.2363 10.8111 10.3125 10.9374 10.3125H14.3749C14.5474 10.3125 14.6874 10.1725 14.6874 10C14.6873 9.82748 14.5474 9.6875 14.3749 9.6875Z" fill="#FF0000"/>
<path d="M11.2207 7.9925C11.1688 7.88249 11.0589 7.8125 10.9376 7.8125H4.06262C3.94136 7.8125 3.83138 7.88249 3.7795 7.9925C3.72826 8.10187 3.74449 8.23189 3.82262 8.32499L5.38511 10.2C5.4445 10.2712 5.53262 10.3125 5.62511 10.3125H9.37511C9.4676 10.3125 9.55572 10.2712 9.61511 10.2L11.1776 8.32499C11.2557 8.23186 11.272 8.10187 11.2207 7.9925ZM9.22824 9.6875H5.77136L4.72948 8.43749H10.2701L9.22824 9.6875Z" fill="#FF0000"/>
<path d="M13.7243 6.12563C13.3687 5.30813 12.1787 2.61376 11.765 2.26187C11.2493 1.82374 9.77244 1.5625 7.81246 1.5625H7.18747C5.22748 1.5625 3.75059 1.82374 3.23497 2.26126C2.82121 2.61314 1.63058 5.30752 1.27559 6.12502C1.20748 6.28378 1.27996 6.46753 1.4381 6.53626C1.5956 6.60502 1.78061 6.53312 1.84934 6.37439C2.55496 4.75003 3.4181 2.94502 3.63997 2.73815C3.88058 2.53378 4.89871 2.18752 7.18747 2.18752H7.81246C10.1012 2.18752 11.1193 2.53378 11.3587 2.73689C11.5818 2.94502 12.4449 4.74938 13.1506 6.37439C13.2018 6.49252 13.3175 6.56251 13.4375 6.56251C13.4787 6.56251 13.5218 6.55439 13.5618 6.53687C13.7199 6.46814 13.7924 6.28375 13.7243 6.12563Z" fill="#FF0000"/>
<path d="M14.0625 10.9375C13.89 10.9375 13.75 11.0775 13.75 11.25V12.5C13.75 12.6725 13.6094 12.8125 13.4375 12.8125H11.5625C11.3906 12.8125 11.25 12.6725 11.25 12.5V11.5625C11.25 11.39 11.11 11.25 10.9375 11.25C10.765 11.25 10.625 11.39 10.625 11.5625V12.5C10.625 13.0169 11.0456 13.4375 11.5625 13.4375H13.4375C13.9544 13.4375 14.375 13.0169 14.375 12.5V11.25C14.3751 11.0775 14.235 10.9375 14.0625 10.9375Z" fill="#FF0000"/>
</svg>
