<svg width="15" height="15" viewBox="0 0 15 15" fill="none" xmlns="http://www.w3.org/2000/svg">
<path d="M14.7 5.4H13.5V0.6C13.4997 0.268799 13.2312 0.000292969 12.9 0H2.1C1.7688 0.000292969 1.50029 0.268799 1.5 0.6V5.4H0.3C0.134326 5.4 0 5.53433 0 5.7V8.1C0 8.26567 0.134326 8.4 0.3 8.4H1.5V11.1C1.5 11.1806 1.53267 11.2578 1.59053 11.3139C1.53164 11.4341 1.50073 11.5661 1.5 11.7V12.3C1.50059 12.7969 1.90313 13.1994 2.4 13.2V14.1C2.40059 14.5969 2.80313 14.9994 3.3 15H4.5C4.99688 14.9994 5.39941 14.5969 5.4 14.1V13.2H9.6V14.1C9.60059 14.5969 10.0031 14.9994 10.5 15H11.7C12.1969 14.9994 12.5994 14.5969 12.6 14.1V13.2C13.0969 13.1994 13.4994 12.7969 13.5 12.3V11.7C13.4993 11.5661 13.4684 11.4341 13.4096 11.3139C13.4673 11.2578 13.5 11.1806 13.5 11.1V8.4H14.7C14.8657 8.4 15 8.26567 15 8.1V5.7C15 5.53433 14.8657 5.4 14.7 5.4ZM12.6 10.8V8.86055L12.9 8.6606V10.8H12.6ZM4.2 10.8V9.9C4.2 9.82046 4.16836 9.74414 4.11211 9.68789L3.51211 9.08789C3.45586 9.03164 3.37954 9 3.3 9H3V3.9C3.00059 3.40313 3.40313 3.00059 3.9 3H11.1C11.5969 3.00059 11.9994 3.40313 12 3.9V9H11.7C11.6205 9 11.5441 9.03164 11.4879 9.08789L10.8879 9.68789C10.8316 9.74414 10.8 9.82046 10.8 9.9V10.8H4.2ZM2.1 10.8V8.6606L2.4 8.86055V10.8H2.1ZM3 9.6H3.17578L3.6 10.0242V10.8H3V9.6ZM11.4 10.0242L11.8242 9.6H12V10.8H11.4V10.0242ZM2.1 0.6H12.9V7.93945L12.6 8.1394V3.9C12.599 3.07192 11.9281 2.40103 11.1 2.4H3.9C3.07192 2.40103 2.40103 3.07192 2.4 3.9V8.1394L2.1 7.93945V0.6ZM0.6 7.8V6H1.5V7.8H0.6ZM4.8 14.1C4.79985 14.2655 4.66553 14.3999 4.5 14.4H3.3C3.13447 14.3999 3.00015 14.2655 3 14.1V13.2H4.8V14.1ZM12 14.1C11.9999 14.2655 11.8655 14.3999 11.7 14.4H10.5C10.3345 14.3999 10.2001 14.2655 10.2 14.1V13.2H12V14.1ZM12.9 12.3C12.8999 12.4655 12.7655 12.5999 12.6 12.6H2.4C2.23447 12.5999 2.10015 12.4655 2.1 12.3V11.7C2.10015 11.5345 2.23447 11.4001 2.4 11.4H12.6C12.7655 11.4001 12.8999 11.5345 12.9 11.7V12.3ZM14.4 7.8H13.5V6H14.4V7.8Z" fill="#FF0000"/>
<path d="M4.99378 8.39961H10.0079C10.0488 8.39961 10.0891 8.39126 10.1266 8.37515L11.5195 7.77515C11.6295 7.72769 11.7009 7.61943 11.7009 7.49961V4.19961C11.7063 3.87427 11.4476 3.60591 11.1223 3.59961H3.87948C3.55414 3.60591 3.29544 3.87427 3.30086 4.19961V7.49961C3.30086 7.61943 3.3722 7.72769 3.48221 7.77515L4.87513 8.37515C4.91263 8.39126 4.95292 8.39961 4.99378 8.39961ZM3.87948 4.19961H11.1009V7.30215L9.94613 7.79961H9.02489L9.19627 7.49961H10.0509C10.2165 7.49961 10.3509 7.36528 10.3509 7.19961C10.3509 7.03394 10.2165 6.89961 10.0509 6.89961H8.25086C8.08519 6.89961 7.95086 7.03394 7.95086 7.19961C7.95086 7.36528 8.08519 7.49961 8.25086 7.49961H8.50531L8.33392 7.79961H6.02489L6.19627 7.49961H7.05086C7.21654 7.49961 7.35086 7.36528 7.35086 7.19961C7.35086 7.03394 7.21654 6.89961 7.05086 6.89961H5.25086C5.08519 6.89961 4.95086 7.03394 4.95086 7.19961C4.95086 7.36528 5.08519 7.49961 5.25086 7.49961H5.50531L5.33392 7.79961H5.0556L3.89955 7.30156L3.87948 4.19961Z" fill="#FF0000"/>
<path d="M6.60156 11.6992H5.40156C5.23589 11.6992 5.10156 11.8335 5.10156 11.9992C5.10156 12.1649 5.23589 12.2992 5.40156 12.2992H6.60156C6.76724 12.2992 6.90156 12.1649 6.90156 11.9992C6.90156 11.8335 6.76724 11.6992 6.60156 11.6992Z" fill="#FF0000"/>
<path d="M9.60157 11.6992H8.40156C8.23589 11.6992 8.10156 11.8335 8.10156 11.9992C8.10156 12.1649 8.23589 12.2992 8.40156 12.2992H9.60157C9.76725 12.2992 9.90157 12.1649 9.90157 11.9992C9.90157 11.8335 9.76725 11.6992 9.60157 11.6992Z" fill="#FF0000"/>
</svg>
