<svg width="15" height="15" viewBox="0 0 15 15" fill="none" xmlns="http://www.w3.org/2000/svg">
<g clip-path="url(#clip0_35_18961)">
<path d="M8.63825 3.93067C8.14213 3.40251 7.30823 3.37265 6.77426 3.87427C6.2439 4.3737 6.21856 5.20728 6.71819 5.73779L8.73657 7.88235C9.22782 8.40407 10.0627 8.4447 10.6002 7.93836C11.1305 7.43894 11.1559 6.60536 10.6562 6.07485L8.63825 3.93067ZM9.99756 7.29852C9.8231 7.46288 9.54501 7.45889 9.3765 7.27989L7.35809 5.13533C7.19063 4.9575 7.20109 4.67959 7.3764 4.5145C7.55318 4.34841 7.8315 4.35556 7.9979 4.53272L10.0163 6.67728C10.1829 6.85415 10.1745 7.13194 9.99756 7.29852Z" fill="#FF0000"/>
<path d="M12.654 5.63142L9.13837 1.89606C9.05534 1.80785 8.93953 1.75781 8.81836 1.75781H7.5V0.439453C7.5 0.196758 7.30324 0 7.06055 0H4.42383C4.18113 0 3.98438 0.196758 3.98438 0.439453V2.03019L2.33757 3.88283C2.26608 3.96328 2.22656 4.06717 2.22656 4.1748V11.9239C2.22659 12.2612 2.35395 12.5693 2.56307 12.8027C2.35395 13.0361 2.22656 13.3443 2.22656 13.6816C2.22656 14.4086 2.81798 15 3.54492 15H11.4551C12.182 15 12.7734 14.4086 12.7734 13.6816C12.7734 13.3442 12.6459 13.0362 12.4367 12.8027C12.6459 12.5693 12.7734 12.2612 12.7734 11.9238V5.93262C12.7734 5.82067 12.7307 5.71295 12.654 5.63142ZM4.86328 0.878906H6.62109V1.75781H4.86328V0.878906ZM11.4551 14.1211H3.54492C3.30261 14.1211 3.10547 13.924 3.10547 13.6816C3.10547 13.4393 3.30261 13.2422 3.54492 13.2422C3.78762 13.2422 3.98438 13.0454 3.98438 12.8027C3.98438 12.56 3.78762 12.3633 3.54492 12.3633C3.30261 12.3633 3.10547 12.1661 3.10547 11.9238C3.10547 11.6815 3.30261 11.4844 3.54492 11.4844C3.78762 11.4844 3.98438 11.2876 3.98438 11.0449C3.98438 10.8022 3.78762 10.6055 3.54492 10.6055C3.39085 10.6055 3.24302 10.6323 3.10547 10.6811V4.34188L4.62117 2.63672H8.62846L11.8945 6.1069V10.6811C11.757 10.6323 11.6091 10.6055 11.4551 10.6055C11.2124 10.6055 11.0156 10.8022 11.0156 11.0449C11.0156 11.2876 11.2124 11.4844 11.4551 11.4844C11.6974 11.4844 11.8945 11.6815 11.8945 11.9238C11.8945 12.1661 11.6974 12.3633 11.4551 12.3633C11.3944 12.3633 11.3366 12.3756 11.284 12.3978C11.1263 12.4645 11.0156 12.6207 11.0156 12.8027C11.0156 12.9848 11.1263 13.1409 11.284 13.2076C11.3366 13.2299 11.3944 13.2422 11.4551 13.2422C11.6974 13.2422 11.8945 13.4393 11.8945 13.6816C11.8945 13.924 11.6974 14.1211 11.4551 14.1211Z" fill="#FF0000"/>
<path d="M7.85963 9.03735C7.77757 8.91855 7.64242 8.84766 7.49805 8.84766C7.35367 8.84766 7.21853 8.91855 7.13646 9.03735C7.12709 9.05092 6.90429 9.37418 6.67847 9.76348C6.2314 10.5342 6.17969 10.8639 6.17969 11.0449C6.17969 11.7719 6.7711 12.3633 7.49805 12.3633C8.22499 12.3633 8.81641 11.7719 8.81641 11.0449C8.81641 10.8639 8.7647 10.5342 8.31763 9.76348C8.09181 9.37418 7.869 9.05092 7.85963 9.03735ZM7.49805 11.4844C7.25573 11.4844 7.05859 11.2872 7.05859 11.0454C7.06217 10.9111 7.24498 10.5281 7.49813 10.1016C7.75108 10.5276 7.93375 10.9104 7.9375 11.0452C7.93729 11.2874 7.74024 11.4844 7.49805 11.4844Z" fill="#FF0000"/>
</g>
<defs>
<clipPath id="clip0_35_18961">
<rect width="15" height="15" rx="5" fill="white"/>
</clipPath>
</defs>
</svg>
