<svg width="1920" height="776" viewBox="0 0 1920 776" fill="none" xmlns="http://www.w3.org/2000/svg">
<path d="M2164.27 706H2643.37L2070.5 -113H1591.37L2164.27 706Z" fill="#202020"/>
<path d="M2137.1 535H2154L1571.92 -296H1555L2137.1 535Z" fill="#EE1827"/>
<path d="M2238.29 533H2357L1905.71 -112H1787L2238.29 533Z" fill="#3A3A3A"/>
<path d="M433.073 1137.05H453.457L-134.063 298H-154.433L433.073 1137.05Z" fill="#EFEFEF"/>
<path d="M465.673 1137.05H476.625L-110.881 298H-121.847L465.673 1137.05Z" fill="#EFEFEF"/>
<path d="M492.045 1137.05H497.629L-89.8906 298H-95.4608L492.045 1137.05Z" fill="#EFEFEF"/>
<path d="M82.783 1129.24H416.859L-100.925 389.76H-435.002L82.783 1129.24Z" fill="#202020"/>
<path d="M-52.7034 606.337H12.2148L-107.948 434.725H-172.866L-52.7034 606.337Z" fill="#EE1827"/>
</svg>
