<svg width="26" height="26" viewBox="0 0 26 26" fill="none" xmlns="http://www.w3.org/2000/svg">
<path d="M20.3204 18.6796C19.8155 17.9223 19.6893 16.9126 20.068 15.9029C20.4466 15.0194 21.2039 14.3883 22.2136 14.1359L24.1068 13.7572C24.1068 13.7572 24.233 13.7572 24.233 13.6311V12.3689C24.233 12.3689 24.233 12.2427 24.1068 12.2427L22.2136 11.8641C21.2039 11.7379 20.4466 10.9806 20.068 10.0971C19.6893 9.21362 19.8155 8.20391 20.3204 7.32036L21.4563 5.67961V5.5534L20.4466 4.54369H20.3204L18.6796 5.67961C17.9223 6.18446 16.9126 6.31068 15.9029 5.93204C15.0194 5.5534 14.3883 4.79612 14.1359 3.78641L13.7572 1.8932L13.6311 1.76699H12.3689C12.3689 1.76699 12.2427 1.76699 12.2427 1.8932L11.8641 3.78641C11.6117 4.66991 10.9806 5.5534 10.0971 5.93204C9.08739 6.31068 8.07768 6.18446 7.32036 5.67961L5.67961 4.54369H5.5534L4.54369 5.5534V5.67961L5.67961 7.32036C6.18446 8.07768 6.31068 9.08739 5.93204 10.0971C5.5534 10.9806 4.66991 11.6117 3.78641 11.8641L1.8932 12.2427L1.76699 12.3689V13.7572C1.76699 13.7572 1.76699 13.8835 1.8932 13.8835L3.78641 14.1359C4.79612 14.2621 5.5534 15.0194 5.93204 15.9029C6.31068 16.7864 6.18446 17.7961 5.67961 18.6796L4.54369 20.3204V20.4466L5.5534 21.4563H5.67961L7.32036 20.3204C7.82522 19.9417 8.33007 19.8155 8.96116 19.8155C9.33978 19.8155 9.71848 19.9417 10.0971 20.068C10.9806 20.4466 11.6117 21.2039 11.8641 22.2136L12.2427 24.1068L12.3689 24.233H13.7572C13.7572 24.233 13.8835 24.233 13.8835 24.1068L14.2621 22.2136C14.5146 21.2039 15.1456 20.4466 16.0291 20.068C16.9126 19.6893 17.9223 19.8155 18.8058 20.3204L20.4466 21.4563H20.5728L21.5825 20.4466V20.3204L20.3204 18.6796ZM22.5922 10.0971L24.4854 10.4757C25.3689 10.602 26 11.4854 26 12.3689V13.7572C26 14.6408 25.3689 15.398 24.4854 15.6505L22.5922 16.0291C22.2136 16.1554 21.9612 16.4078 21.7088 16.6602C21.5825 17.0388 21.5825 17.4175 21.8349 17.7961L22.9709 19.4369C23.4757 20.1942 23.3495 21.2039 22.7185 21.8349L21.7088 22.7185C21.0777 23.3495 20.068 23.4757 19.3107 22.9709L17.6699 21.8349C17.4175 21.5825 16.9126 21.5825 16.6602 21.7088C16.2815 21.8349 16.0291 22.2136 15.9029 22.5922L15.5243 24.4854C15.398 25.3689 14.5146 26 13.6311 26H12.3689C11.4854 26 10.7282 25.3689 10.4757 24.4854L10.0971 22.5922C9.97087 22.2136 9.71847 21.9612 9.46601 21.7088C9.08739 21.5825 8.70877 21.5825 8.33008 21.8349L6.68934 22.9709C5.93204 23.4757 4.92233 23.3495 4.29126 22.7185L3.28155 21.7088C2.65049 21.0777 2.52428 20.068 3.02912 19.3107L4.16505 17.6699C4.41748 17.4175 4.41748 16.9126 4.29126 16.6602C4.16505 16.2815 3.78641 16.0291 3.40777 15.9029L1.51456 15.5243C0.631068 15.398 0 14.6408 0 13.6311V12.3689C0 11.3592 0.631068 10.602 1.51456 10.4757L3.40777 10.0971C3.78641 9.97087 4.16505 9.71847 4.29126 9.33978C4.29126 9.33978 4.29126 9.21362 4.41748 9.21362C4.54369 8.96116 4.41748 8.58253 4.29126 8.33008L3.02912 6.68934C2.52428 5.93204 2.65049 4.92233 3.28155 4.29126L4.29126 3.28155C4.92233 2.65049 5.93204 2.52428 6.68934 3.02912L8.33008 4.16505C8.58253 4.41748 9.08739 4.41748 9.33978 4.29126C9.71847 4.16505 9.97087 3.78641 10.0971 3.40777L10.4757 1.51456C10.602 0.631068 11.3592 0 12.3689 0H13.7572C14.6408 0 15.398 0.631068 15.6505 1.51456L16.0291 3.40777C16.1554 3.78641 16.4078 4.03883 16.6602 4.29126C17.0388 4.41748 17.4175 4.41748 17.7961 4.16505L19.4369 3.02912C20.1942 2.52428 21.2039 2.65049 21.8349 3.28155L22.7185 4.29126C23.3495 4.92233 23.4757 5.93204 22.9709 6.68934L21.8349 8.33008C21.5825 8.58253 21.5825 9.08739 21.7088 9.33978C21.8349 9.71847 22.2136 9.97087 22.5922 10.0971ZM9.84464 13C9.84464 14.767 11.233 16.1554 13 16.1554C14.767 16.1554 16.1554 14.767 16.1554 13C16.1554 11.233 14.767 9.84464 13 9.84464C11.233 9.84464 9.84464 11.233 9.84464 13ZM8.07768 13C8.07768 10.3495 10.3495 8.07768 13 8.07768C15.7767 8.07768 17.9223 10.3495 17.9223 13C17.9223 15.6505 15.7767 17.9223 13 17.9223C10.3495 17.9223 8.07768 15.6505 8.07768 13Z" fill="white"/>
</svg>
