<svg width="26" height="19" viewBox="0 0 26 19" fill="none" xmlns="http://www.w3.org/2000/svg">
<g clip-path="url(#clip0_35_19798)">
<path d="M24.1374 12.3737C24.2245 11.2409 24.3117 10.1081 24.3989 8.97527C24.3989 7.49392 24.2245 5.83829 23.876 3.8341C23.7017 3.13699 23.3531 2.52702 22.8303 2.17847C22.3946 1.91705 21.8718 1.74277 21.2618 1.74277C20.0419 1.74277 18.822 1.74277 17.5149 1.74277H15.9464H12.8094C10.1952 1.74277 7.49391 1.74277 4.87976 1.74277C3.57269 1.74277 2.52702 2.52702 2.26561 3.74696C2.09133 4.44407 1.91705 5.05404 1.91705 5.66402V5.75115C1.74277 6.97112 1.65563 8.19104 1.65563 9.41096C1.65563 11.0666 1.91705 12.7223 2.17847 14.2908C2.43989 15.7721 3.39841 16.5563 4.9669 16.5563C6.0997 16.5563 7.31965 16.5563 8.45247 16.5563H10.8052H14.9007C16.992 16.5563 19.1705 16.5563 21.2618 16.5563C22.5689 16.5563 23.6146 15.7721 23.876 14.5521C24.0503 13.8551 24.1374 13.158 24.2245 12.548L24.1374 12.3737ZM21.1747 0C23.3531 0 25.0959 1.48136 25.4445 3.65983C25.7059 5.22832 25.8802 6.70969 25.9673 8.19104C26.0545 9.67239 25.9673 11.1537 25.7059 12.8094C25.6188 13.5936 25.5316 14.2908 25.3573 15.075C24.9216 16.9049 23.266 18.2991 21.349 18.2991C19.2576 18.2991 17.0792 18.2991 14.9878 18.2991H12.6351C11.8509 18.2991 11.0666 18.2991 10.2823 18.2991C10.1081 18.2991 9.93382 18.2991 9.75955 18.2991C8.19104 18.2991 6.53542 18.2991 4.87976 18.2991H4.79263C2.96271 18.2991 0.87139 17.1663 0.522832 14.5521L0.435693 14.2036C0.261416 12.8965 0 11.5894 0 10.1953V10.1081V10.0209V8.2782C0 8.10388 0 8.01678 0 7.84251V7.75535C0 7.31965 0.0871383 6.97112 0.0871383 6.53543L0.174277 5.92543C0.261416 5.05404 0.435693 4.09552 0.60997 3.22413C1.04566 1.39422 2.7013 0 4.61835 0C6.70969 0 8.88816 0 10.9795 0H13.3322C13.9422 0 14.465 0 15.075 0C15.2493 0 15.5107 0 15.685 0C17.4277 0 19.2576 0 21.0004 0H21.1747ZM11.0666 11.5023L15.1622 9.14953L11.0666 6.79679V11.5023ZM18.3863 9.14953L9.41096 14.3779V3.92124L18.3863 9.14953Z" fill="white"/>
</g>
<defs>
<clipPath id="clip0_35_19798">
<rect width="26" height="18.85" fill="white"/>
</clipPath>
</defs>
</svg>
