<svg width="26" height="26" viewBox="0 0 26 26" fill="none" xmlns="http://www.w3.org/2000/svg">
<g clip-path="url(#clip0_35_19765)">
<path d="M8.15896 8.41287C8.01395 8.70293 7.8689 8.99299 7.72385 9.28314C7.2887 10.2984 7.43375 11.3138 8.15896 12.1841C9.75455 14.2148 11.4951 16.1004 13.6709 17.5509C14.6862 18.2761 15.8466 18.4212 17.007 17.6959C17.152 17.5509 17.2971 17.5509 17.4421 17.4059L17.7322 17.2608C18.1673 16.9707 18.6025 16.9707 19.0377 17.4059C20.4882 18.5663 21.9386 19.7266 23.5341 20.887L23.8243 21.032C23.9693 21.032 23.9693 21.1772 23.9693 21.1772C23.9693 21.1772 23.9693 21.1772 23.8243 21.3222C23.6793 21.6123 23.3891 21.7573 23.2441 21.9024C22.9539 22.3375 22.6639 22.6276 22.3738 23.0627C21.9386 23.6429 21.3584 23.9331 20.4882 23.9331C19.6179 24.0781 18.8926 23.788 18.1673 23.3529C14.8312 21.9024 11.9303 20.0168 9.46441 17.841C7.5788 16.2455 6.12831 14.2148 4.67782 11.894C3.37239 10.1534 2.64714 8.70293 2.06694 7.25244C1.9219 6.67224 1.77685 6.2371 1.77685 5.6569V5.36681C1.77685 5.22176 1.77685 4.93166 1.9219 4.78661C2.06694 4.35147 2.21199 4.06137 2.50209 3.77127L2.79219 3.33612C3.37239 2.90097 3.95258 2.46583 4.38773 2.03068C4.53277 2.03068 4.53277 1.88563 4.53277 1.88563C4.53277 1.88563 4.53277 1.88563 4.67782 2.03068L4.82287 2.17573C5.98327 3.62622 7.14365 5.22176 8.30408 6.67224C8.59414 7.10739 8.59414 7.54254 8.30408 7.97769C8.30408 8.12273 8.30407 8.26776 8.15896 8.41287ZM25.7099 20.887C25.5648 20.3068 25.2748 19.8717 24.8396 19.5816L22.5188 17.841L22.2287 17.5509C21.5035 16.9707 20.7782 16.3905 20.053 15.9554C19.1827 15.2301 18.1673 15.085 17.152 15.5202C16.8619 15.6652 16.5718 15.8104 16.1367 15.9554L15.8466 16.1004C15.2664 16.3905 14.8312 16.3905 14.3961 15.9554L13.8159 15.5202C13.0907 14.94 12.3654 14.3598 11.7852 13.7797C11.3501 13.0544 10.6248 12.0391 9.89958 11.1688L9.60952 11.0237C9.31938 10.5886 9.31938 10.2984 9.60952 9.71823C9.75455 9.5732 9.75455 9.42817 9.89958 9.13811L10.0446 8.99299C10.7699 7.68759 10.6248 6.52719 9.75455 5.36681L8.59414 3.91631C7.8689 2.90097 7.14365 2.03068 6.41841 1.16039C5.98327 0.580195 5.54812 0.145049 4.96793 0H4.38773H4.09763C4.09763 0 3.95258 0 3.95258 0.145049C3.66248 0.290097 3.51743 0.290097 3.37239 0.435147C2.64714 1.01534 1.9219 1.74059 1.19665 2.32078C0.761506 2.75593 0.471408 3.19108 0.32636 3.62622C-0.108787 4.93166 -0.108787 6.38215 0.32636 7.68759C1.0516 9.42817 1.9219 11.3138 3.22734 13.3445C5.25802 16.5356 7.43375 19.0014 10.1896 21.032C12.8005 22.9177 15.8466 24.9484 19.6179 25.9638H19.7629H20.7782H21.0684C21.3584 25.9638 21.5035 25.8186 21.7936 25.8186C22.6639 25.6736 23.3891 25.0934 24.1143 24.3682L24.5495 23.788C24.8396 23.3529 25.2748 23.0627 25.5648 22.6276C25.7099 22.4826 25.855 22.1925 25.855 22.0474C25.855 22.0474 25.855 21.9024 26 21.9024L25.7099 20.887ZM17.7322 2.90097C17.5871 2.90097 17.4421 2.75593 17.2971 2.75593C17.007 2.46583 16.8619 2.17573 16.8619 1.74059C17.007 1.30544 17.2971 1.16039 17.7322 1.16039C17.8773 1.16039 17.8773 1.16039 18.0223 1.16039C20.7782 2.17573 22.8089 4.06137 24.1143 6.67224C24.4045 6.8173 24.5495 7.10739 24.5495 7.39749C24.8396 8.26776 24.5495 8.70293 24.1143 8.84796C23.9693 8.84796 23.8243 8.99299 23.6793 8.99299C23.5341 8.99299 23.3891 8.99299 23.3891 8.99299C23.2441 8.70293 23.099 8.5579 22.9539 8.12273C22.3738 6.8173 21.6486 5.6569 20.6332 4.64156C19.7629 3.91631 18.7475 3.33613 17.7322 2.90097ZM16.4268 6.67224C16.2818 6.67224 16.1367 6.52719 15.9916 6.38215C15.7016 6.09205 15.5565 5.80195 15.7016 5.36681C15.8466 4.93166 16.2818 4.78661 16.7169 4.78661L17.007 4.93166C17.152 4.93166 17.2971 5.07671 17.4421 5.07671C19.1827 5.947 20.3431 7.25244 21.0684 8.99299C21.2134 9.42817 21.0684 10.0084 20.4882 10.2984C20.3431 10.2984 20.198 10.2984 20.198 10.2984C19.7629 10.2984 19.4728 10.0084 19.3277 9.71823C19.0377 8.99299 18.7475 8.41287 18.3125 7.97769C17.5871 7.39749 17.007 6.96235 16.4268 6.67224ZM15.4114 11.0237C15.2664 10.7336 14.9763 10.4436 14.6862 10.2984C14.251 10.1534 14.106 9.71823 14.251 9.13811C14.3961 8.84796 14.6862 8.5579 15.1214 8.41287H15.2664L15.5564 8.70293C15.8466 8.70293 15.9916 8.84796 16.1367 8.99299C16.5718 9.28314 16.8619 9.71823 17.152 10.2984C17.2971 10.8786 17.152 11.3138 16.7169 11.4588C16.5718 11.6039 16.4268 11.6039 16.2818 11.6039C16.1367 11.6039 16.1367 11.6039 15.9916 11.6039C15.7016 11.4588 15.5564 11.3138 15.4114 11.0237Z" fill="white"/>
</g>
<defs>
<clipPath id="clip0_35_19765">
<rect width="26" height="26" fill="white"/>
</clipPath>
</defs>
</svg>
