<svg width="26" height="26" viewBox="0 0 26 26" fill="none" xmlns="http://www.w3.org/2000/svg">
<path fill-rule="evenodd" clip-rule="evenodd" d="M6.61326 19.2055L7.17603 18.6427H18.0618L18.6245 19.2055H19.6536V20.6125C19.6536 21.2341 20.1574 21.738 20.7791 21.738H22.7488C23.3704 21.738 23.8743 21.2341 23.8743 20.6125V15.8289C23.8743 15.6667 23.8057 15.5206 23.6959 15.4179L24.0492 11.8854C24.0805 11.5719 23.857 10.8027 23.7382 10.394C23.7218 10.3376 23.7073 10.288 23.6959 10.2474C26.4082 8.74042 25.0259 7.06024 22.5704 8.43005L20.7363 4.82808C20.401 4.16339 19.7557 3.71025 19.0168 3.62038C14.9541 3.12654 10.8465 3.12654 6.78382 3.62038C6.04485 3.71025 5.39957 4.16339 5.06428 4.82808L3.24949 8.43005C0.42488 6.8562 -0.336124 9.19835 2.21158 10.2156C2.18599 10.3062 2.13778 10.4443 2.08182 10.6046C1.93154 11.035 1.72541 11.6254 1.75142 11.8854L2.10465 15.4179C1.99487 15.5206 1.92627 15.6667 1.92627 15.8289V20.6125C1.92627 21.2341 2.43019 21.738 3.05181 21.738H5.02151C5.64314 21.738 6.14705 21.2341 6.14705 20.6125V19.2055H6.61326ZM5.06112 18.0799H6.14705L6.70978 17.5172H18.528L19.0908 18.0799H20.5333C20.8673 18.0799 21.1841 17.9316 21.398 17.675L21.8045 17.1871C22.2365 16.6687 22.5033 16.0328 22.5704 15.3614L22.6579 14.4867L19.0908 14.7033C18.9136 14.7033 18.7469 14.6199 18.6405 14.4782L17.7964 13.3527C17.6865 13.2062 17.6547 13.0153 17.7114 12.841C17.7681 12.6668 17.906 12.5311 18.0811 12.4771L22.9205 11.3659C22.8545 10.9054 22.5996 10.4859 22.2072 10.2156C21.7492 10.5385 21.182 10.6987 20.5992 10.644L17.9431 10.3951C14.5886 10.0805 11.212 10.0805 7.85749 10.3951L5.20142 10.644C4.61863 10.6987 4.05139 10.5385 3.59336 10.2156C3.27011 10.4382 3.04022 10.7621 2.93229 11.1268L7.78274 12.2406C7.95785 12.2945 8.09578 12.4302 8.15246 12.6045C8.20914 12.7787 8.17735 12.9696 8.06744 13.1162L7.22328 14.2417C7.11701 14.3834 6.95028 14.4668 6.77309 14.4668L3.11851 14.2448L3.24949 15.5546C3.30445 16.1043 3.49343 16.632 3.79983 17.0916L4.1246 17.5788C4.33335 17.8919 4.68477 18.0799 5.06112 18.0799ZM3.01805 13.2402C3.05051 13.28 3.08594 13.3032 3.12371 13.3032L6.18643 13.544C6.2768 13.5511 6.36658 13.5244 6.43834 13.469C6.68463 13.2789 6.59571 12.8875 6.29141 12.8225L2.92796 12.1038C2.91953 12.1012 2.91159 12.1003 2.90413 12.1011L3.01805 13.2402ZM22.8711 12.3542L19.5724 13.059C19.2682 13.1241 19.1793 13.5154 19.4255 13.7055C19.4973 13.761 19.5871 13.7877 19.6774 13.7806L22.7402 13.5397C22.7444 13.5397 22.7485 13.5394 22.7527 13.5389L22.8711 12.3542ZM4.12045 9.19835L6.06922 5.33503C6.23506 5.00626 6.55417 4.78216 6.91967 4.7377C10.8921 4.25484 14.9085 4.25484 18.8809 4.7377C19.2465 4.78216 19.5655 5.00626 19.7314 5.33503L21.6801 9.19835C21.4199 9.43423 21.0678 9.55747 20.7042 9.52348L18.0482 9.2744C14.6238 8.95336 11.1768 8.95336 7.75238 9.2744L5.09635 9.52348C4.7328 9.55747 4.38063 9.43423 4.12045 9.19835ZM22.7488 17.8094C22.7227 17.8425 22.6962 17.8753 22.6692 17.9076L22.2626 18.3955C21.8878 18.8453 21.3548 19.1289 20.7791 19.1921V20.6124H22.7488V17.8094ZM3.05181 20.6124V17.9987L3.1881 18.2031C3.59826 18.8184 4.28386 19.1922 5.02151 19.2052V20.6124H3.05181ZM16.4587 12.4372C16.2556 12.0974 15.8888 11.8895 15.4928 11.8895H10.3077C9.91181 11.8895 9.54508 12.0974 9.34183 12.4372L7.99503 14.6882C7.78696 15.036 7.78189 15.4688 7.98177 15.8213C8.18171 16.1738 8.55565 16.3916 8.96093 16.3916H16.8397C17.2449 16.3916 17.6189 16.1738 17.8188 15.8213C18.0187 15.4688 18.0136 15.036 17.8055 14.6882L16.4587 12.4372ZM10.3077 13.015L8.96093 15.2661H16.8397L15.4928 13.015H10.3077Z" fill="white"/>
</svg>
