<svg width="26" height="26" viewBox="0 0 26 26" fill="none" xmlns="http://www.w3.org/2000/svg">
<path fill-rule="evenodd" clip-rule="evenodd" d="M6.568 6.53826L8.36635 14.6319H19.6764L21.9892 6.53826H6.568ZM23.051 4.93599C23.3001 4.93599 23.5396 5.05516 23.6912 5.25449C23.8407 5.45383 23.8895 5.71708 23.8222 5.95758L20.699 16.233H8.9145L8.9156 18.4853H20.3892V20.0854H7.63185L6.79225 14.9276L5.16512 7.60965C4.67437 5.40074 4.39053 4.12024 4.31253 3.76816H1.08203V2.16699H4.95495C5.33195 2.16699 5.6537 2.42483 5.73603 2.79316L6.2127 4.93599H23.051ZM9.693 23.1387C9.693 23.4605 9.43086 23.7226 9.10911 23.7226C8.78736 23.7226 8.52515 23.4605 8.52515 23.1387C8.52515 22.8159 8.78736 22.5537 9.10911 22.5537C9.43086 22.5537 9.693 22.8159 9.693 23.1387ZM9.10911 20.9525C7.9044 20.9525 6.9229 21.934 6.9229 23.1387C6.9229 24.3434 7.9044 25.3238 9.10911 25.3238C10.3149 25.3238 11.2953 24.3434 11.2953 23.1387C11.2953 21.934 10.3149 20.9525 9.10911 20.9525ZM19.4812 23.1387C19.4812 23.4605 19.2189 23.7226 18.8962 23.7226C18.5744 23.7226 18.3122 23.4605 18.3122 23.1387C18.3122 22.8159 18.5744 22.5537 18.8962 22.5537C19.2189 22.5537 19.4812 22.8159 19.4812 23.1387ZM18.8962 20.9525C17.6914 20.9525 16.7099 21.934 16.7099 23.1387C16.7099 24.3434 17.6914 25.3238 18.8962 25.3238C20.1008 25.3238 21.0823 24.3434 21.0823 23.1387C21.0823 21.934 20.1008 20.9525 18.8962 20.9525Z" fill="white"/>
</svg>
