<svg width="26" height="26" viewBox="0 0 26 26" fill="none" xmlns="http://www.w3.org/2000/svg">
<path d="M24.8083 0H1.19167C0.541667 0 0 0.541667 0 1.19167V24.8083C0 25.4583 0.541667 26 1.19167 26H24.8083C25.4583 26 26 25.4583 26 24.8083V1.19167C26 0.541667 25.4583 0 24.8083 0ZM23.8333 23.8333H2.16667V7.58333H23.8333V23.8333ZM23.8333 6.5H2.16667V2.16667H23.8333V6.5Z" fill="white"/>
<path d="M4.33333 5.41667C4.93164 5.41667 5.41667 4.93164 5.41667 4.33333C5.41667 3.73502 4.93164 3.25 4.33333 3.25C3.73502 3.25 3.25 3.73502 3.25 4.33333C3.25 4.93164 3.73502 5.41667 4.33333 5.41667Z" fill="white"/>
<path d="M7.58333 5.41667C8.18163 5.41667 8.66669 4.93164 8.66669 4.33333C8.66669 3.73502 8.18163 3.25 7.58333 3.25C6.98502 3.25 6.5 3.73502 6.5 4.33333C6.5 4.93164 6.98502 5.41667 7.58333 5.41667Z" fill="white"/>
<path d="M10.8333 5.41667C11.4316 5.41667 11.9167 4.93164 11.9167 4.33333C11.9167 3.73502 11.4316 3.25 10.8333 3.25C10.2351 3.25 9.75 3.73502 9.75 4.33333C9.75 4.93164 10.2351 5.41667 10.8333 5.41667Z" fill="white"/>
</svg>
