<svg width="26" height="22" viewBox="0 0 26 22" fill="none" xmlns="http://www.w3.org/2000/svg">
<g clip-path="url(#clip0_35_19816)">
<path fill-rule="evenodd" clip-rule="evenodd" d="M24.486 2.27682V4.60605H1.57223V2.27682C1.57223 1.84592 1.89832 1.51982 2.32923 1.51982H23.729C24.1599 1.51982 24.486 1.84592 24.486 2.27682ZM0.0582334 4.60605V2.27682C0.0582334 1.03069 1.08892 0 2.33505 0H23.7232C24.9693 0 26 1.03069 26 2.27682V4.60605V6.12004H24.486H1.57223H0.0582334H0V4.60605H0.0582334ZM3.79082 21.4464H22.151C23.4495 21.4464 24.4802 20.4216 24.4219 19.1696V6.1725H22.9079V19.1696C22.9079 19.6005 22.5818 19.9266 22.151 19.9266H3.785C3.35409 19.9266 3.028 19.6005 3.028 19.1696V6.1725H1.514V19.1696C1.514 20.4157 2.54468 21.4464 3.79082 21.4464ZM16.0309 10.7261H9.91088C9.47999 10.7261 9.15388 10.4 9.15388 9.96911C9.15388 9.53817 9.47999 9.21212 9.91088 9.21212H16.0309C16.4618 9.21212 16.7879 9.53817 16.7879 9.96911C16.7879 10.4 16.4676 10.7261 16.0309 10.7261Z" fill="white"/>
</g>
<defs>
<clipPath id="clip0_35_19816">
<rect width="26" height="21.45" fill="white"/>
</clipPath>
</defs>
</svg>
