<svg width="25" height="26" viewBox="0 0 25 26" fill="none" xmlns="http://www.w3.org/2000/svg">
<g clip-path="url(#clip0_35_19783)">
<path fill-rule="evenodd" clip-rule="evenodd" d="M1.89583 26H0.541667C0.242667 26 0 25.7573 0 25.4583V0.541667C0 0.242667 0.242667 0 0.541667 0H1.89583C2.19483 0 2.4375 0.242667 2.4375 0.541667V9.75H4.60423V2.7082C4.60423 2.4092 4.8469 2.16653 5.1459 2.16653H8.93742H12.7292C13.0282 2.16653 13.2709 2.4092 13.2709 2.7082V9.75H21.9375V0.541667C21.9375 0.242667 22.1802 0 22.4792 0H23.8333C24.1323 0 24.375 0.242667 24.375 0.541667V25.4583C24.375 25.7573 24.1323 26 23.8333 26H22.4792C22.1802 26 21.9375 25.7573 21.9375 25.4583V22.7498H20.3293L20.3253 22.75L20.3125 22.7501H12.7292C12.7235 22.7501 12.7179 22.75 12.7123 22.7498H10.5659H10.5624H4.06244H4.05897H2.4375V25.4583C2.4375 25.7573 2.19483 26 1.89583 26ZM21.9375 21.6665V10.8333H2.4375V21.6665H3.52077V15.7082C3.52077 15.4092 3.76343 15.1665 4.06244 15.1665H7.31244H10.5624C10.8614 15.1665 11.1041 15.4092 11.1041 15.7082V21.6665H12.1875V14.6252C12.1875 14.3262 12.4302 14.0835 12.7292 14.0835H16.5209H20.3125C20.6115 14.0835 20.8541 14.3262 20.8541 14.6252V21.6665H21.9375ZM8.39581 3.24987V5.95819C8.39581 6.25719 8.63842 6.49986 8.93742 6.49986C9.23642 6.49986 9.47911 6.25719 9.47911 5.95819V3.24987H12.1876V9.74984H5.68756V3.24987H8.39581ZM6.77077 16.2498V17.8748C6.77077 18.1738 7.01343 18.4165 7.31244 18.4165C7.61143 18.4165 7.8541 18.1738 7.8541 17.8748V16.2498H10.0208V21.6665H4.6041V16.2498H6.77077ZM15.9792 15.1668V17.8752C15.9792 18.1742 16.2219 18.4168 16.5209 18.4168C16.8199 18.4168 17.0626 18.1742 17.0626 17.8752V15.1668H19.7708V21.6665H13.2708V15.1668H15.9792Z" fill="white"/>
</g>
<defs>
<clipPath id="clip0_35_19783">
<rect width="24.375" height="26" fill="white"/>
</clipPath>
</defs>
</svg>
