<svg width="19" height="26" viewBox="0 0 19 26" fill="none" xmlns="http://www.w3.org/2000/svg">
<g clip-path="url(#clip0_35_19804)">
<path d="M1.81969 1.81518C1.97008 1.81518 2.09039 1.81518 2.2107 1.81518C7.11334 1.81518 12.0235 1.81518 16.9261 1.81518C17.0916 1.81518 17.272 1.80762 17.43 1.86051C18.054 2.04186 18.242 2.76725 17.8285 3.33397C16.8585 4.63363 15.8885 5.93329 14.9184 7.23298C14.8433 7.33872 14.7606 7.44452 14.6779 7.55784C15.3771 8.49485 16.0689 9.42428 16.7607 10.3461C17.1066 10.807 17.445 11.2755 17.7909 11.7289C18.0465 12.0613 18.1518 12.4165 17.9488 12.8094C17.7533 13.1948 17.4149 13.3006 17.0088 13.3006C12.0761 13.293 7.14342 13.3006 2.20318 13.3006C2.08287 13.3006 1.96256 13.3006 1.81217 13.3006C1.81217 13.4442 1.81217 13.5499 1.81217 13.6633C1.81217 17.4414 1.81217 21.2195 1.81217 24.9976C1.81217 25.4282 1.64675 25.7456 1.24822 25.9269C0.924885 26.0781 0.526357 25.9874 0.263178 25.7229C0.0601551 25.5113 0 25.2545 0 24.9749C0 22.3378 0 19.7082 0 17.0711C0.0150388 11.7062 0.0150388 6.36399 0.0150388 1.01422C0.0150388 0.424838 0.345892 0.0319167 0.857213 0.00169204C1.38357 -0.0285327 1.80465 0.349276 1.81969 0.885762C1.82722 1.18046 1.81969 1.4827 1.81969 1.81518ZM15.3321 3.64377C10.8054 3.64377 6.32381 3.64377 1.83473 3.64377C1.83473 6.25821 1.83473 8.84997 1.83473 11.4493C6.32381 11.4493 10.8054 11.4493 15.3245 11.4493C15.2418 11.3284 15.1892 11.2453 15.1215 11.1622C14.3921 10.1799 13.6552 9.19757 12.9258 8.21528C12.5498 7.71658 12.5498 7.37649 12.9183 6.88537C13.5725 6.0013 14.2342 5.11723 14.8959 4.23315C15.0388 4.0518 15.1741 3.8629 15.3321 3.64377Z" fill="white"/>
</g>
<defs>
<clipPath id="clip0_35_19804">
<rect width="18.0556" height="26" fill="white"/>
</clipPath>
</defs>
</svg>
