<svg width="26" height="15" viewBox="0 0 26 15" fill="none" xmlns="http://www.w3.org/2000/svg">
<g clip-path="url(#clip0_35_19810)">
<path fill-rule="evenodd" clip-rule="evenodd" d="M25.98 9.42726C25.9867 8.91354 25.8599 8.42649 25.5997 7.96612L25.4196 7.6392C25.0014 6.89639 24.5774 6.13583 24.1534 5.37522C23.9414 4.99493 23.7294 4.61465 23.5181 4.23659C23.2579 3.76957 22.8509 3.52938 22.3105 3.52938H22.2971C21.9092 3.53384 21.5153 3.53234 21.1254 3.53085H21.1253C20.9319 3.53012 20.7394 3.52938 20.5492 3.52938H19.8219H19.6551V2.76213V1.10085C19.6551 0.727226 19.5684 0.453683 19.3883 0.273544C19.2081 0.093405 18.9412 0 18.5609 0H5.49089C4.76366 0 4.41006 0.353605 4.41006 1.08083V1.86811V2.04157H4.27662H3.87632C3.5494 2.04157 3.20913 2.04157 2.86887 2.04824C2.54196 2.05492 2.2951 2.28842 2.28175 2.60867C2.26841 2.92892 2.49525 3.18912 2.83551 3.22915C2.89556 3.23582 2.9556 3.23582 3.00897 3.23582H3.00898H3.903H7.6592C8.07956 3.23582 8.35979 3.00231 8.35979 2.63536C8.35979 2.44855 8.29304 2.2951 8.15959 2.18835C8.03954 2.08827 7.87274 2.0349 7.66587 2.0349H6.26481H5.62433V1.22094H18.4275V11.2687H17.1732C15.7921 11.2687 14.371 11.2687 12.97 11.2754H12.95C12.9466 11.2653 12.9433 11.2536 12.94 11.2419C12.9366 11.2303 12.9333 11.2186 12.93 11.2086V11.1953C12.603 10.1478 11.7023 9.46728 10.6282 9.46728H10.6082C9.54737 9.47395 8.62663 10.1811 8.33306 11.2153C8.32639 11.242 8.31972 11.2553 8.31305 11.262H8.27303C7.68594 11.2553 7.09212 11.2553 6.51837 11.262H5.89787H5.631V9.38057H5.79777H6.03799C6.2248 9.38057 6.41827 9.38057 6.60507 9.37385C6.932 9.36051 7.17216 9.13369 7.19222 8.81344C7.20556 8.49985 6.99202 8.23968 6.67183 8.19294C6.5784 8.1796 6.4983 8.1796 6.4116 8.1796H6.36491H1.88812H1.83475C1.68797 8.1796 1.53451 8.1796 1.38106 8.21301C1.08083 8.27303 0.900691 8.51986 0.92738 8.82677C0.947395 9.12702 1.14088 9.33383 1.44778 9.37385C1.52117 9.38057 1.59456 9.38057 1.65461 9.38057H1.70131H3.66949H4.4234V10.1678V11.729C4.4234 12.2427 4.64357 12.4629 5.16397 12.4629H5.85119C6.04172 12.4629 6.2339 12.4633 6.42726 12.4637H6.42765H6.42771C7.01265 12.465 7.60805 12.4663 8.19967 12.4563C8.33973 12.4563 8.3464 12.4563 8.38647 12.583C8.63997 13.3769 9.26046 13.9708 10.0611 14.1776C10.8683 14.3844 11.709 14.1642 12.3161 13.5838C12.6231 13.2902 12.8432 12.9166 12.97 12.4763H19.9087C19.9153 12.4929 19.9203 12.5113 19.9253 12.5296C19.9304 12.548 19.9353 12.5663 19.942 12.583C20.2556 13.5504 21.0829 14.1909 22.1103 14.2576C22.1337 14.2576 22.1587 14.2593 22.1837 14.2609C22.2087 14.2626 22.2338 14.2643 22.2571 14.2643C23.2179 14.2643 24.0986 13.6705 24.3921 12.8165C24.5122 12.4763 24.6323 12.4496 24.9859 12.4629C25.2995 12.4763 25.553 12.3962 25.7264 12.2294C25.9066 12.0559 26 11.7957 26 11.4488V10.7082C25.9733 10.2946 25.9733 9.85423 25.98 9.42726ZM22.1904 10.6749H22.197C22.5173 10.6749 22.8109 10.795 23.031 11.0151C23.2579 11.2353 23.378 11.5422 23.378 11.8691C23.378 12.5363 22.8642 13.0634 22.2104 13.07C21.8969 13.0767 21.5966 12.95 21.3698 12.7298C21.1429 12.5029 21.0161 12.2027 21.0161 11.8691C21.0161 11.2019 21.5299 10.6815 22.1904 10.6749ZM24.7724 10.875V11.2687H24.7723C24.6656 11.2687 24.5722 11.2687 24.5455 11.262C24.5217 11.2442 24.4821 11.1414 24.4406 11.0342L24.4255 10.9951C24.0652 10.0678 23.1912 9.47395 22.197 9.47395H22.177C21.1896 9.48062 20.3223 10.0878 19.9687 11.0151C19.922 11.1352 19.8753 11.2553 19.8553 11.2754C19.8352 11.282 19.7685 11.282 19.6885 11.2687V4.73031H19.7152H20.4891H20.4892C21.0629 4.73031 21.6567 4.7303 22.2438 4.72364C22.3906 4.72364 22.4439 4.75032 22.504 4.87041C23.1511 6.04466 23.825 7.25892 24.5122 8.47318C24.7057 8.81344 24.7924 9.16037 24.7857 9.54064C24.7724 9.98762 24.7724 10.4412 24.7724 10.8748V10.875ZM10.6482 13.0634C10.2078 13.0567 9.92765 12.8632 9.77419 12.6964C9.55404 12.4629 9.42726 12.136 9.44727 11.8291C9.48062 11.1886 9.99434 10.6815 10.6215 10.6749H10.6282C10.9484 10.6749 11.242 10.795 11.4688 11.0151C11.6956 11.242 11.8158 11.5422 11.8158 11.8624C11.8158 12.1894 11.689 12.4963 11.4555 12.7298C11.242 12.95 10.9551 13.07 10.6482 13.0634ZM4.27662 6.37164H3.5494C3.20247 6.37831 2.95561 6.61853 2.95561 6.95879C2.94894 7.28571 3.18245 7.53921 3.52271 7.56589C3.56274 7.57256 3.60944 7.57256 3.64947 7.57256H3.70952H3.76956H8.21967H8.78676H10.5682C10.8083 7.57256 11.0151 7.47251 11.1352 7.30572C11.242 7.15226 11.262 6.96546 11.1953 6.77865C11.0563 6.39334 10.6962 6.37876 10.5449 6.37266L10.5214 6.37164H6.85196H5.60431V6.27827V5.7178V4.32341C5.60431 4.12993 5.53759 3.96314 5.41083 3.84304C5.30408 3.73629 5.1573 3.67625 5.00385 3.67625H4.99718C4.65025 3.67625 4.41006 3.94979 4.40339 4.33008V5.52433V6.0047V6.36497C4.36336 6.37164 4.31666 6.37164 4.27662 6.37164ZM3.91635 4.85704C3.91635 5.22399 3.65614 5.4575 3.24916 5.4575C2.77547 5.46418 2.32178 5.46418 1.88812 5.46418C1.66271 5.46418 1.44078 5.46243 1.22415 5.46072C1.01761 5.45909 0.815863 5.4575 0.620479 5.4575C0.487041 5.4575 0.293559 5.43749 0.153451 5.29738C0.0133436 5.15727 0 4.97046 0 4.83703C0.00667183 4.3233 0.360277 4.25658 0.627148 4.25658H1.54118H1.92815H2.32846H3.25584C3.52938 4.26325 3.68283 4.36333 3.7629 4.44339C3.86297 4.54347 3.91635 4.69025 3.91635 4.85704Z" fill="white"/>
</g>
<defs>
<clipPath id="clip0_35_19810">
<rect width="26" height="14.6957" fill="white"/>
</clipPath>
</defs>
</svg>
