<svg width="26" height="23" viewBox="0 0 26 23" fill="none" xmlns="http://www.w3.org/2000/svg">
<g clip-path="url(#clip0_35_19753)">
<path d="M25.994 18.9749C25.9694 18.8395 25.9509 18.6919 25.9264 18.5565V18.5442C25.8772 18.2242 25.8279 17.892 25.7541 17.5659C25.0281 14.5698 23.2685 12.3733 20.5307 11.026C21.4043 9.95547 21.8473 8.65111 21.792 7.31608C21.7304 5.93794 21.1521 4.61518 20.2046 3.68616C18.2174 1.7297 15.172 1.56359 12.9756 3.28626C11.9419 4.09837 11.2898 5.15658 11.0376 6.43628C10.7053 8.12819 11.0991 9.67246 12.2004 11.0198C9.59173 12.3241 7.86292 14.3975 7.05699 17.1907H1.59979C1.60594 16.9692 1.6121 16.7477 1.61825 16.5324C1.63671 15.7572 1.64901 15.025 1.77821 14.3052C2.18427 11.9796 3.53779 10.3 5.79573 9.30943C6.82936 9.91855 7.9183 10.1462 9.02571 9.97393C9.47486 9.90626 9.89937 9.75858 10.3177 9.61707L10.4592 9.56787C10.6746 9.49403 10.8407 9.34635 10.933 9.14947C11.0252 8.94647 11.0314 8.71884 10.9514 8.5035C10.7976 8.09744 10.3546 7.89438 9.90555 8.03588C9.81936 8.06052 9.73941 8.09744 9.67174 8.12819C9.65328 8.13436 9.63482 8.14047 9.62254 8.15282C9.06262 8.38656 8.46586 8.45429 7.84446 8.34353C6.99543 8.20203 6.24485 7.75288 5.72805 7.08845C5.21125 6.42398 4.96515 5.57495 5.03283 4.70131C5.10665 3.62463 5.72805 2.65256 6.70014 2.09269C7.67221 1.53282 8.835 1.48361 9.81324 1.96349C10.4346 2.26496 10.9268 2.71408 11.3144 3.33547C11.4559 3.56927 11.6589 3.71692 11.8927 3.75999C12.1019 3.80306 12.3234 3.75384 12.508 3.62464C12.8894 3.36008 12.9633 2.88635 12.6926 2.45568C11.4436 0.443852 9.25334 -0.423636 6.98315 0.197756C5.59885 0.573052 4.44835 1.56974 3.82696 2.91712C3.21172 4.25833 3.20557 5.76567 3.8085 7.05153C3.98077 7.41449 4.1961 7.74059 4.40528 8.05435L4.41143 8.06052C4.42374 8.07898 4.43604 8.09744 4.44835 8.1159C4.39913 8.14665 4.35607 8.17739 4.30684 8.20203C3.93155 8.43583 3.53779 8.67575 3.1748 8.97104C1.29832 10.4723 0.246267 12.4225 0.0555424 14.7851C-0.0059815 15.5049 0.0001709 16.2371 0.0001709 16.9446C0.0001709 17.2399 0.00632329 17.5414 0.0001709 17.8367C0.0001709 18.1012 0.0247805 18.3965 0.233962 18.6118C0.443143 18.8272 0.744608 18.8518 1.00916 18.8518C2.23349 18.8518 3.45166 18.8518 4.67599 18.8518H6.78626C6.78009 19.0795 6.77398 19.3071 6.7678 19.5409V19.547C6.74934 20.23 6.73088 20.9375 6.7186 21.6388C6.71242 21.8542 6.73706 22.1679 6.9524 22.3894C7.16768 22.6109 7.4815 22.6416 7.72142 22.6416H11.3759C15.8426 22.6416 20.4569 22.6416 24.9973 22.6478C25.1573 22.6478 25.6433 22.6478 25.9386 22.1556L25.994 22.0633V19.0487V18.9749ZM16.3348 3.74153H16.3594C18.4451 3.74153 20.1492 5.43959 20.1616 7.53142C20.1739 9.60479 18.4758 11.3151 16.3717 11.3397H16.3286C15.3504 11.3397 14.4214 10.9521 13.7077 10.2569C12.9756 9.53706 12.5695 8.57734 12.5633 7.56217C12.5572 6.55317 12.9448 5.59956 13.6585 4.87973C14.3722 4.14759 15.3258 3.74769 16.3348 3.74153ZM13.5908 12.2195C13.6092 12.2257 13.6462 12.2318 13.6708 12.2503C15.092 13.0501 16.5931 13.1854 18.1436 12.6625C18.3466 12.5949 18.5312 12.5026 18.7096 12.4103C18.8326 12.3487 18.9434 12.2872 19.0603 12.2441C19.0849 12.2318 19.1157 12.2318 19.1341 12.2257C21.995 13.3577 23.7115 15.4434 24.2406 18.4396C24.3513 19.0733 24.3636 19.7316 24.3759 20.4268C24.3821 20.6114 24.3821 20.796 24.3883 20.9867H8.36745V20.8698C8.36745 20.5007 8.36745 20.1438 8.36745 19.7808C8.37356 18.1935 8.78579 16.7415 9.59173 15.4742C10.5638 13.9422 11.9051 12.8471 13.5908 12.2195Z" fill="white"/>
</g>
<defs>
<clipPath id="clip0_35_19753">
<rect width="26" height="22.75" fill="white"/>
</clipPath>
</defs>
</svg>
