<svg width="1034" height="421" viewBox="0 0 1034 421" fill="none" xmlns="http://www.w3.org/2000/svg">
<path d="M9.086 396H7.756L6.93 393.928H2.282L1.456 396H0.126L3.878 386.662H5.32L9.086 396ZM6.58 392.892L4.606 387.866L2.618 392.892H6.58ZM12.9454 396H11.7974L8.98341 389.238H10.1174L12.3714 394.782L14.6114 389.238H15.7594L12.9454 396ZM22.1327 396H21.0827V395.23C20.5134 395.855 19.7667 396.168 18.8427 396.168C18.2174 396.168 17.6667 395.967 17.1907 395.566C16.7147 395.165 16.4767 394.619 16.4767 393.928C16.4767 393.219 16.71 392.673 17.1767 392.29C17.6527 391.898 18.208 391.702 18.8427 391.702C19.804 391.702 20.5507 392.01 21.0827 392.626V391.408C21.0827 390.96 20.924 390.61 20.6067 390.358C20.2894 390.106 19.8787 389.98 19.3747 389.98C18.5814 389.98 17.8907 390.293 17.3027 390.918L16.8127 390.19C17.5314 389.443 18.432 389.07 19.5147 389.07C20.2894 389.07 20.9194 389.257 21.4047 389.63C21.89 390.003 22.1327 390.577 22.1327 391.352V396ZM19.2207 395.412C20.0607 395.412 20.6814 395.132 21.0827 394.572V393.298C20.6814 392.738 20.0607 392.458 19.2207 392.458C18.7354 392.458 18.334 392.598 18.0167 392.878C17.7087 393.149 17.5547 393.503 17.5547 393.942C17.5547 394.371 17.7087 394.726 18.0167 395.006C18.334 395.277 18.7354 395.412 19.2207 395.412ZM29.8515 396H28.8015V391.576C28.8015 391.007 28.6708 390.605 28.4095 390.372C28.1482 390.129 27.7748 390.008 27.2895 390.008C26.8975 390.008 26.5148 390.111 26.1415 390.316C25.7775 390.521 25.4928 390.769 25.2875 391.058V396H24.2375V389.238H25.2875V390.218C25.5488 389.91 25.8988 389.644 26.3375 389.42C26.7762 389.187 27.2288 389.07 27.6955 389.07C29.1328 389.07 29.8515 389.798 29.8515 391.254V396ZM33.6564 396.168C33.1618 396.168 32.7884 396.033 32.5364 395.762C32.2844 395.491 32.1584 395.099 32.1584 394.586V390.162H31.0384V389.238H32.1584V387.39H33.2084V389.238H34.5804V390.162H33.2084V394.362C33.2084 394.623 33.2644 394.833 33.3764 394.992C33.4978 395.151 33.6704 395.23 33.8944 395.23C34.2024 395.23 34.4404 395.137 34.6084 394.95L34.9164 395.734C34.6084 396.023 34.1884 396.168 33.6564 396.168ZM45.791 396H39.379V395.076C40.3497 394.311 41.101 393.704 41.633 393.256C42.1744 392.799 42.6924 392.318 43.187 391.814C43.691 391.301 44.0457 390.848 44.251 390.456C44.4564 390.055 44.559 389.658 44.559 389.266C44.559 388.706 44.3677 388.281 43.985 387.992C43.6024 387.703 43.145 387.558 42.613 387.558C41.5397 387.558 40.695 387.95 40.079 388.734L39.365 387.992C39.7197 387.525 40.1817 387.166 40.751 386.914C41.3297 386.653 41.9504 386.522 42.613 386.522C43.4624 386.522 44.195 386.76 44.811 387.236C45.4364 387.712 45.749 388.389 45.749 389.266C45.749 390.134 45.3757 391.002 44.629 391.87C43.8824 392.729 42.7437 393.76 41.213 394.964H45.791V396ZM51.1375 396.168C50.5215 396.168 49.9755 396.028 49.4995 395.748C49.0328 395.459 48.6595 395.076 48.3795 394.6C48.1088 394.124 47.9035 393.611 47.7635 393.06C47.6328 392.509 47.5675 391.935 47.5675 391.338C47.5675 390.741 47.6328 390.167 47.7635 389.616C47.9035 389.065 48.1088 388.557 48.3795 388.09C48.6595 387.614 49.0328 387.236 49.4995 386.956C49.9755 386.667 50.5215 386.522 51.1375 386.522C51.7442 386.522 52.2855 386.667 52.7615 386.956C53.2375 387.236 53.6108 387.614 53.8815 388.09C54.1615 388.557 54.3668 389.065 54.4975 389.616C54.6375 390.167 54.7075 390.741 54.7075 391.338C54.7075 391.935 54.6375 392.509 54.4975 393.06C54.3668 393.611 54.1615 394.124 53.8815 394.6C53.6108 395.076 53.2375 395.459 52.7615 395.748C52.2855 396.028 51.7442 396.168 51.1375 396.168ZM49.7375 394.558C50.1108 394.941 50.5775 395.132 51.1375 395.132C51.6975 395.132 52.1642 394.941 52.5375 394.558C52.9108 394.166 53.1675 393.699 53.3075 393.158C53.4475 392.617 53.5175 392.01 53.5175 391.338C53.5175 390.666 53.4475 390.059 53.3075 389.518C53.1675 388.977 52.9108 388.515 52.5375 388.132C52.1642 387.749 51.6975 387.558 51.1375 387.558C50.5775 387.558 50.1108 387.749 49.7375 388.132C49.3642 388.515 49.1075 388.977 48.9675 389.518C48.8275 390.059 48.7575 390.666 48.7575 391.338C48.7575 392.01 48.8275 392.617 48.9675 393.158C49.1075 393.699 49.3642 394.166 49.7375 394.558ZM59.7098 396.168C59.0938 396.168 58.5478 396.028 58.0718 395.748C57.6051 395.459 57.2318 395.076 56.9518 394.6C56.6811 394.124 56.4758 393.611 56.3358 393.06C56.2051 392.509 56.1398 391.935 56.1398 391.338C56.1398 390.741 56.2051 390.167 56.3358 389.616C56.4758 389.065 56.6811 388.557 56.9518 388.09C57.2318 387.614 57.6051 387.236 58.0718 386.956C58.5478 386.667 59.0938 386.522 59.7098 386.522C60.3164 386.522 60.8578 386.667 61.3338 386.956C61.8098 387.236 62.1831 387.614 62.4538 388.09C62.7338 388.557 62.9391 389.065 63.0698 389.616C63.2098 390.167 63.2798 390.741 63.2798 391.338C63.2798 391.935 63.2098 392.509 63.0698 393.06C62.9391 393.611 62.7338 394.124 62.4538 394.6C62.1831 395.076 61.8098 395.459 61.3338 395.748C60.8578 396.028 60.3164 396.168 59.7098 396.168ZM58.3098 394.558C58.6831 394.941 59.1498 395.132 59.7098 395.132C60.2698 395.132 60.7364 394.941 61.1098 394.558C61.4831 394.166 61.7398 393.699 61.8798 393.158C62.0198 392.617 62.0898 392.01 62.0898 391.338C62.0898 390.666 62.0198 390.059 61.8798 389.518C61.7398 388.977 61.4831 388.515 61.1098 388.132C60.7364 387.749 60.2698 387.558 59.7098 387.558C59.1498 387.558 58.6831 387.749 58.3098 388.132C57.9364 388.515 57.6798 388.977 57.5398 389.518C57.3998 390.059 57.3298 390.666 57.3298 391.338C57.3298 392.01 57.3998 392.617 57.5398 393.158C57.6798 393.699 57.9364 394.166 58.3098 394.558ZM70.452 395.482C69.8174 395.939 69.024 396.168 68.072 396.168C67.12 396.168 66.322 395.939 65.678 395.482C65.0434 395.025 64.726 394.409 64.726 393.634C64.726 393.046 64.936 392.537 65.356 392.108C65.7854 391.679 66.3174 391.371 66.952 391.184C66.3547 391.016 65.86 390.745 65.468 390.372C65.076 389.989 64.88 389.513 64.88 388.944C64.88 388.16 65.1974 387.563 65.832 387.152C66.4667 386.732 67.2134 386.522 68.072 386.522C68.9307 386.522 69.6774 386.732 70.312 387.152C70.956 387.563 71.278 388.16 71.278 388.944C71.278 389.513 71.082 389.989 70.69 390.372C70.298 390.745 69.7987 391.016 69.192 391.184C69.8267 391.371 70.354 391.679 70.774 392.108C71.2034 392.537 71.418 393.046 71.418 393.634C71.418 394.399 71.096 395.015 70.452 395.482ZM68.072 390.708C68.2587 390.68 68.4454 390.633 68.632 390.568C68.828 390.503 69.0474 390.414 69.29 390.302C69.5327 390.181 69.7287 390.017 69.878 389.812C70.0274 389.597 70.102 389.359 70.102 389.098C70.102 388.631 69.906 388.258 69.514 387.978C69.1314 387.698 68.6507 387.558 68.072 387.558C67.484 387.558 66.9987 387.698 66.616 387.978C66.2334 388.258 66.042 388.631 66.042 389.098C66.042 389.359 66.1167 389.597 66.266 389.812C66.4154 390.017 66.6114 390.181 66.854 390.302C67.0967 390.414 67.3114 390.503 67.498 390.568C67.694 390.624 67.8854 390.671 68.072 390.708ZM68.072 395.132C68.6694 395.132 69.178 394.983 69.598 394.684C70.0274 394.385 70.242 393.993 70.242 393.508C70.242 393.135 70.0927 392.808 69.794 392.528C69.5047 392.239 69.206 392.038 68.898 391.926C68.5994 391.805 68.324 391.73 68.072 391.702C67.82 391.73 67.54 391.805 67.232 391.926C66.9334 392.038 66.6347 392.239 66.336 392.528C66.0374 392.808 65.888 393.135 65.888 393.508C65.888 393.993 66.098 394.385 66.518 394.684C66.9474 394.983 67.4654 395.132 68.072 395.132Z" fill="black"/>
<path d="M6.804 417H4.816V415.068H0.35V413.5L4.06 407.662H6.804V413.318H8.008V415.068H6.804V417ZM4.816 413.318V409.426L2.296 413.318H4.816ZM14.8635 416.454C14.2662 416.93 13.5428 417.168 12.6935 417.168C11.8442 417.168 11.1162 416.93 10.5095 416.454C9.91218 415.969 9.48285 415.371 9.22152 414.662C8.96018 413.953 8.82952 413.178 8.82952 412.338C8.82952 411.498 8.96018 410.723 9.22152 410.014C9.48285 409.305 9.91218 408.712 10.5095 408.236C11.1162 407.76 11.8442 407.522 12.6935 407.522C13.5428 407.522 14.2662 407.76 14.8635 408.236C15.4608 408.712 15.8902 409.305 16.1515 410.014C16.4222 410.723 16.5575 411.498 16.5575 412.338C16.5575 413.178 16.4222 413.953 16.1515 414.662C15.8902 415.371 15.4608 415.969 14.8635 416.454ZM11.2935 414.564C11.5922 415.124 12.0588 415.404 12.6935 415.404C13.3282 415.404 13.7902 415.124 14.0795 414.564C14.3782 414.004 14.5275 413.262 14.5275 412.338C14.5275 411.414 14.3782 410.677 14.0795 410.126C13.7902 409.566 13.3282 409.286 12.6935 409.286C12.0588 409.286 11.5922 409.566 11.2935 410.126C10.9948 410.677 10.8455 411.414 10.8455 412.338C10.8455 413.262 10.9948 414.004 11.2935 414.564ZM29.5352 417H27.0852L24.2572 413.262L23.5292 414.13V417H21.5412V407.662H23.5292V411.834L26.8332 407.662H29.2832L25.5732 412.044L29.5352 417ZM38.8676 417.168C37.7289 417.168 36.7256 416.869 35.8576 416.272C34.9989 415.665 34.4156 414.853 34.1076 413.836H33.3936V412.772H33.9116C33.9023 412.679 33.8976 412.534 33.8976 412.338C33.8976 412.123 33.9023 411.965 33.9116 411.862H33.3936V410.812H34.1216C34.4296 409.804 35.0129 409.001 35.8716 408.404C36.7303 407.807 37.7289 407.508 38.8676 407.508C40.6129 407.508 41.9149 408.269 42.7736 409.79L41.0656 410.63C40.8603 410.238 40.5569 409.916 40.1556 409.664C39.7636 409.403 39.3343 409.272 38.8676 409.272C38.2983 409.272 37.7896 409.412 37.3416 409.692C36.8936 409.963 36.5436 410.336 36.2916 410.812H39.7216V411.862H35.9696C35.9509 411.965 35.9416 412.123 35.9416 412.338C35.9416 412.441 35.9509 412.585 35.9696 412.772H39.7216V413.836H36.2776C36.5203 414.321 36.8703 414.704 37.3276 414.984C37.7849 415.264 38.2983 415.404 38.8676 415.404C39.3343 415.404 39.7636 415.278 40.1556 415.026C40.5569 414.774 40.8603 414.447 41.0656 414.046L42.7736 414.872C41.8869 416.403 40.5849 417.168 38.8676 417.168Z" fill="black"/>
<rect x="25" y="364" width="24" height="2" fill="#FF0000" fill-opacity="0.08"/>
<path d="M111.168 396H104.756V395.076C105.727 394.311 106.478 393.704 107.01 393.256C107.551 392.799 108.069 392.318 108.564 391.814C109.068 391.301 109.423 390.848 109.628 390.456C109.833 390.055 109.936 389.658 109.936 389.266C109.936 388.706 109.745 388.281 109.362 387.992C108.979 387.703 108.522 387.558 107.99 387.558C106.917 387.558 106.072 387.95 105.456 388.734L104.742 387.992C105.097 387.525 105.559 387.166 106.128 386.914C106.707 386.653 107.327 386.522 107.99 386.522C108.839 386.522 109.572 386.76 110.188 387.236C110.813 387.712 111.126 388.389 111.126 389.266C111.126 390.134 110.753 391.002 110.006 391.87C109.259 392.729 108.121 393.76 106.59 394.964H111.168V396ZM116.514 396.168C115.898 396.168 115.352 396.028 114.876 395.748C114.41 395.459 114.036 395.076 113.756 394.6C113.486 394.124 113.28 393.611 113.14 393.06C113.01 392.509 112.944 391.935 112.944 391.338C112.944 390.741 113.01 390.167 113.14 389.616C113.28 389.065 113.486 388.557 113.756 388.09C114.036 387.614 114.41 387.236 114.876 386.956C115.352 386.667 115.898 386.522 116.514 386.522C117.121 386.522 117.662 386.667 118.138 386.956C118.614 387.236 118.988 387.614 119.258 388.09C119.538 388.557 119.744 389.065 119.874 389.616C120.014 390.167 120.084 390.741 120.084 391.338C120.084 391.935 120.014 392.509 119.874 393.06C119.744 393.611 119.538 394.124 119.258 394.6C118.988 395.076 118.614 395.459 118.138 395.748C117.662 396.028 117.121 396.168 116.514 396.168ZM115.114 394.558C115.488 394.941 115.954 395.132 116.514 395.132C117.074 395.132 117.541 394.941 117.914 394.558C118.288 394.166 118.544 393.699 118.684 393.158C118.824 392.617 118.894 392.01 118.894 391.338C118.894 390.666 118.824 390.059 118.684 389.518C118.544 388.977 118.288 388.515 117.914 388.132C117.541 387.749 117.074 387.558 116.514 387.558C115.954 387.558 115.488 387.749 115.114 388.132C114.741 388.515 114.484 388.977 114.344 389.518C114.204 390.059 114.134 390.666 114.134 391.338C114.134 392.01 114.204 392.617 114.344 393.158C114.484 393.699 114.741 394.166 115.114 394.558ZM125.087 396.168C124.471 396.168 123.925 396.028 123.449 395.748C122.982 395.459 122.609 395.076 122.329 394.6C122.058 394.124 121.853 393.611 121.713 393.06C121.582 392.509 121.517 391.935 121.517 391.338C121.517 390.741 121.582 390.167 121.713 389.616C121.853 389.065 122.058 388.557 122.329 388.09C122.609 387.614 122.982 387.236 123.449 386.956C123.925 386.667 124.471 386.522 125.087 386.522C125.693 386.522 126.235 386.667 126.711 386.956C127.187 387.236 127.56 387.614 127.831 388.09C128.111 388.557 128.316 389.065 128.447 389.616C128.587 390.167 128.657 390.741 128.657 391.338C128.657 391.935 128.587 392.509 128.447 393.06C128.316 393.611 128.111 394.124 127.831 394.6C127.56 395.076 127.187 395.459 126.711 395.748C126.235 396.028 125.693 396.168 125.087 396.168ZM123.687 394.558C124.06 394.941 124.527 395.132 125.087 395.132C125.647 395.132 126.113 394.941 126.487 394.558C126.86 394.166 127.117 393.699 127.257 393.158C127.397 392.617 127.467 392.01 127.467 391.338C127.467 390.666 127.397 390.059 127.257 389.518C127.117 388.977 126.86 388.515 126.487 388.132C126.113 387.749 125.647 387.558 125.087 387.558C124.527 387.558 124.06 387.749 123.687 388.132C123.313 388.515 123.057 388.977 122.917 389.518C122.777 390.059 122.707 390.666 122.707 391.338C122.707 392.01 122.777 392.617 122.917 393.158C123.057 393.699 123.313 394.166 123.687 394.558ZM133.141 396.154C132.068 396.154 131.204 395.781 130.551 395.034L131.139 394.166C131.68 394.801 132.348 395.118 133.141 395.118C133.738 395.118 134.242 394.931 134.653 394.558C135.064 394.185 135.353 393.732 135.521 393.2C135.689 392.668 135.773 392.089 135.773 391.464C135.773 391.296 135.768 391.17 135.759 391.086C135.526 391.459 135.166 391.795 134.681 392.094C134.196 392.393 133.678 392.542 133.127 392.542C132.24 392.542 131.508 392.285 130.929 391.772C130.35 391.249 130.061 390.512 130.061 389.56C130.061 388.72 130.36 388.001 130.957 387.404C131.554 386.807 132.343 386.508 133.323 386.508C133.958 386.508 134.513 386.639 134.989 386.9C135.465 387.161 135.838 387.521 136.109 387.978C136.389 388.435 136.594 388.944 136.725 389.504C136.865 390.064 136.935 390.675 136.935 391.338C136.935 392.215 136.804 393.009 136.543 393.718C136.282 394.418 135.857 395.001 135.269 395.468C134.69 395.925 133.981 396.154 133.141 396.154ZM133.393 391.534C133.85 391.534 134.289 391.408 134.709 391.156C135.138 390.904 135.474 390.568 135.717 390.148C135.661 389.457 135.442 388.851 135.059 388.328C134.676 387.805 134.116 387.544 133.379 387.544C132.716 387.544 132.194 387.749 131.811 388.16C131.428 388.571 131.237 389.023 131.237 389.518C131.237 390.171 131.438 390.671 131.839 391.016C132.24 391.361 132.758 391.534 133.393 391.534Z" fill="black"/>
<path d="M105.804 417H103.816V415.068H99.35V413.5L103.06 407.662H105.804V413.318H107.008V415.068H105.804V417ZM103.816 413.318V409.426L101.296 413.318H103.816ZM113.864 416.454C113.266 416.93 112.543 417.168 111.694 417.168C110.844 417.168 110.116 416.93 109.51 416.454C108.912 415.969 108.483 415.371 108.222 414.662C107.96 413.953 107.83 413.178 107.83 412.338C107.83 411.498 107.96 410.723 108.222 410.014C108.483 409.305 108.912 408.712 109.51 408.236C110.116 407.76 110.844 407.522 111.694 407.522C112.543 407.522 113.266 407.76 113.864 408.236C114.461 408.712 114.89 409.305 115.152 410.014C115.422 410.723 115.558 411.498 115.558 412.338C115.558 413.178 115.422 413.953 115.152 414.662C114.89 415.371 114.461 415.969 113.864 416.454ZM110.294 414.564C110.592 415.124 111.059 415.404 111.694 415.404C112.328 415.404 112.79 415.124 113.08 414.564C113.378 414.004 113.528 413.262 113.528 412.338C113.528 411.414 113.378 410.677 113.08 410.126C112.79 409.566 112.328 409.286 111.694 409.286C111.059 409.286 110.592 409.566 110.294 410.126C109.995 410.677 109.846 411.414 109.846 412.338C109.846 413.262 109.995 414.004 110.294 414.564ZM128.535 417H126.085L123.257 413.262L122.529 414.13V417H120.541V407.662H122.529V411.834L125.833 407.662H128.283L124.573 412.044L128.535 417ZM137.868 417.168C136.729 417.168 135.726 416.869 134.858 416.272C133.999 415.665 133.416 414.853 133.108 413.836H132.394V412.772H132.912C132.902 412.679 132.898 412.534 132.898 412.338C132.898 412.123 132.902 411.965 132.912 411.862H132.394V410.812H133.122C133.43 409.804 134.013 409.001 134.872 408.404C135.73 407.807 136.729 407.508 137.868 407.508C139.613 407.508 140.915 408.269 141.774 409.79L140.066 410.63C139.86 410.238 139.557 409.916 139.156 409.664C138.764 409.403 138.334 409.272 137.868 409.272C137.298 409.272 136.79 409.412 136.342 409.692C135.894 409.963 135.544 410.336 135.292 410.812H138.722V411.862H134.97C134.951 411.965 134.942 412.123 134.942 412.338C134.942 412.441 134.951 412.585 134.97 412.772H138.722V413.836H135.278C135.52 414.321 135.87 414.704 136.328 414.984C136.785 415.264 137.298 415.404 137.868 415.404C138.334 415.404 138.764 415.278 139.156 415.026C139.557 414.774 139.86 414.447 140.066 414.046L141.774 414.872C140.887 416.403 139.585 417.168 137.868 417.168Z" fill="black"/>
<rect x="109" y="359" width="24" height="7" fill="#FF0000" fill-opacity="0.08"/>
<path d="M192.168 396H185.756V395.076C186.727 394.311 187.478 393.704 188.01 393.256C188.551 392.799 189.069 392.318 189.564 391.814C190.068 391.301 190.423 390.848 190.628 390.456C190.833 390.055 190.936 389.658 190.936 389.266C190.936 388.706 190.745 388.281 190.362 387.992C189.979 387.703 189.522 387.558 188.99 387.558C187.917 387.558 187.072 387.95 186.456 388.734L185.742 387.992C186.097 387.525 186.559 387.166 187.128 386.914C187.707 386.653 188.327 386.522 188.99 386.522C189.839 386.522 190.572 386.76 191.188 387.236C191.813 387.712 192.126 388.389 192.126 389.266C192.126 390.134 191.753 391.002 191.006 391.87C190.259 392.729 189.121 393.76 187.59 394.964H192.168V396ZM197.514 396.168C196.898 396.168 196.352 396.028 195.876 395.748C195.41 395.459 195.036 395.076 194.756 394.6C194.486 394.124 194.28 393.611 194.14 393.06C194.01 392.509 193.944 391.935 193.944 391.338C193.944 390.741 194.01 390.167 194.14 389.616C194.28 389.065 194.486 388.557 194.756 388.09C195.036 387.614 195.41 387.236 195.876 386.956C196.352 386.667 196.898 386.522 197.514 386.522C198.121 386.522 198.662 386.667 199.138 386.956C199.614 387.236 199.988 387.614 200.258 388.09C200.538 388.557 200.744 389.065 200.874 389.616C201.014 390.167 201.084 390.741 201.084 391.338C201.084 391.935 201.014 392.509 200.874 393.06C200.744 393.611 200.538 394.124 200.258 394.6C199.988 395.076 199.614 395.459 199.138 395.748C198.662 396.028 198.121 396.168 197.514 396.168ZM196.114 394.558C196.488 394.941 196.954 395.132 197.514 395.132C198.074 395.132 198.541 394.941 198.914 394.558C199.288 394.166 199.544 393.699 199.684 393.158C199.824 392.617 199.894 392.01 199.894 391.338C199.894 390.666 199.824 390.059 199.684 389.518C199.544 388.977 199.288 388.515 198.914 388.132C198.541 387.749 198.074 387.558 197.514 387.558C196.954 387.558 196.488 387.749 196.114 388.132C195.741 388.515 195.484 388.977 195.344 389.518C195.204 390.059 195.134 390.666 195.134 391.338C195.134 392.01 195.204 392.617 195.344 393.158C195.484 393.699 195.741 394.166 196.114 394.558ZM205.457 396H204.295V388.202L202.797 389.784L202.097 389.07L204.435 386.662H205.457V396ZM210.831 396.168C210.215 396.168 209.669 396.028 209.193 395.748C208.726 395.459 208.353 395.076 208.073 394.6C207.802 394.124 207.597 393.611 207.457 393.06C207.326 392.509 207.261 391.935 207.261 391.338C207.261 390.741 207.326 390.167 207.457 389.616C207.597 389.065 207.802 388.557 208.073 388.09C208.353 387.614 208.726 387.236 209.193 386.956C209.669 386.667 210.215 386.522 210.831 386.522C211.438 386.522 211.979 386.667 212.455 386.956C212.931 387.236 213.304 387.614 213.575 388.09C213.855 388.557 214.06 389.065 214.191 389.616C214.331 390.167 214.401 390.741 214.401 391.338C214.401 391.935 214.331 392.509 214.191 393.06C214.06 393.611 213.855 394.124 213.575 394.6C213.304 395.076 212.931 395.459 212.455 395.748C211.979 396.028 211.438 396.168 210.831 396.168ZM209.431 394.558C209.804 394.941 210.271 395.132 210.831 395.132C211.391 395.132 211.858 394.941 212.231 394.558C212.604 394.166 212.861 393.699 213.001 393.158C213.141 392.617 213.211 392.01 213.211 391.338C213.211 390.666 213.141 390.059 213.001 389.518C212.861 388.977 212.604 388.515 212.231 388.132C211.858 387.749 211.391 387.558 210.831 387.558C210.271 387.558 209.804 387.749 209.431 388.132C209.058 388.515 208.801 388.977 208.661 389.518C208.521 390.059 208.451 390.666 208.451 391.338C208.451 392.01 208.521 392.617 208.661 393.158C208.801 393.699 209.058 394.166 209.431 394.558Z" fill="black"/>
<path d="M186.804 417H184.816V415.068H180.35V413.5L184.06 407.662H186.804V413.318H188.008V415.068H186.804V417ZM184.816 413.318V409.426L182.296 413.318H184.816ZM194.864 416.454C194.266 416.93 193.543 417.168 192.694 417.168C191.844 417.168 191.116 416.93 190.51 416.454C189.912 415.969 189.483 415.371 189.222 414.662C188.96 413.953 188.83 413.178 188.83 412.338C188.83 411.498 188.96 410.723 189.222 410.014C189.483 409.305 189.912 408.712 190.51 408.236C191.116 407.76 191.844 407.522 192.694 407.522C193.543 407.522 194.266 407.76 194.864 408.236C195.461 408.712 195.89 409.305 196.152 410.014C196.422 410.723 196.558 411.498 196.558 412.338C196.558 413.178 196.422 413.953 196.152 414.662C195.89 415.371 195.461 415.969 194.864 416.454ZM191.294 414.564C191.592 415.124 192.059 415.404 192.694 415.404C193.328 415.404 193.79 415.124 194.08 414.564C194.378 414.004 194.528 413.262 194.528 412.338C194.528 411.414 194.378 410.677 194.08 410.126C193.79 409.566 193.328 409.286 192.694 409.286C192.059 409.286 191.592 409.566 191.294 410.126C190.995 410.677 190.846 411.414 190.846 412.338C190.846 413.262 190.995 414.004 191.294 414.564ZM209.535 417H207.085L204.257 413.262L203.529 414.13V417H201.541V407.662H203.529V411.834L206.833 407.662H209.283L205.573 412.044L209.535 417ZM218.868 417.168C217.729 417.168 216.726 416.869 215.858 416.272C214.999 415.665 214.416 414.853 214.108 413.836H213.394V412.772H213.912C213.902 412.679 213.898 412.534 213.898 412.338C213.898 412.123 213.902 411.965 213.912 411.862H213.394V410.812H214.122C214.43 409.804 215.013 409.001 215.872 408.404C216.73 407.807 217.729 407.508 218.868 407.508C220.613 407.508 221.915 408.269 222.774 409.79L221.066 410.63C220.86 410.238 220.557 409.916 220.156 409.664C219.764 409.403 219.334 409.272 218.868 409.272C218.298 409.272 217.79 409.412 217.342 409.692C216.894 409.963 216.544 410.336 216.292 410.812H219.722V411.862H215.97C215.951 411.965 215.942 412.123 215.942 412.338C215.942 412.441 215.951 412.585 215.97 412.772H219.722V413.836H216.278C216.52 414.321 216.87 414.704 217.328 414.984C217.785 415.264 218.298 415.404 218.868 415.404C219.334 415.404 219.764 415.278 220.156 415.026C220.557 414.774 220.86 414.447 221.066 414.046L222.774 414.872C221.887 416.403 220.585 417.168 218.868 417.168Z" fill="black"/>
<rect x="190" y="349" width="24" height="17" fill="#FF0000" fill-opacity="0.1"/>
<path d="M277.168 396H270.756V395.076C271.727 394.311 272.478 393.704 273.01 393.256C273.551 392.799 274.069 392.318 274.564 391.814C275.068 391.301 275.423 390.848 275.628 390.456C275.833 390.055 275.936 389.658 275.936 389.266C275.936 388.706 275.745 388.281 275.362 387.992C274.979 387.703 274.522 387.558 273.99 387.558C272.917 387.558 272.072 387.95 271.456 388.734L270.742 387.992C271.097 387.525 271.559 387.166 272.128 386.914C272.707 386.653 273.327 386.522 273.99 386.522C274.839 386.522 275.572 386.76 276.188 387.236C276.813 387.712 277.126 388.389 277.126 389.266C277.126 390.134 276.753 391.002 276.006 391.87C275.259 392.729 274.121 393.76 272.59 394.964H277.168V396ZM282.514 396.168C281.898 396.168 281.352 396.028 280.876 395.748C280.41 395.459 280.036 395.076 279.756 394.6C279.486 394.124 279.28 393.611 279.14 393.06C279.01 392.509 278.944 391.935 278.944 391.338C278.944 390.741 279.01 390.167 279.14 389.616C279.28 389.065 279.486 388.557 279.756 388.09C280.036 387.614 280.41 387.236 280.876 386.956C281.352 386.667 281.898 386.522 282.514 386.522C283.121 386.522 283.662 386.667 284.138 386.956C284.614 387.236 284.988 387.614 285.258 388.09C285.538 388.557 285.744 389.065 285.874 389.616C286.014 390.167 286.084 390.741 286.084 391.338C286.084 391.935 286.014 392.509 285.874 393.06C285.744 393.611 285.538 394.124 285.258 394.6C284.988 395.076 284.614 395.459 284.138 395.748C283.662 396.028 283.121 396.168 282.514 396.168ZM281.114 394.558C281.488 394.941 281.954 395.132 282.514 395.132C283.074 395.132 283.541 394.941 283.914 394.558C284.288 394.166 284.544 393.699 284.684 393.158C284.824 392.617 284.894 392.01 284.894 391.338C284.894 390.666 284.824 390.059 284.684 389.518C284.544 388.977 284.288 388.515 283.914 388.132C283.541 387.749 283.074 387.558 282.514 387.558C281.954 387.558 281.488 387.749 281.114 388.132C280.741 388.515 280.484 388.977 280.344 389.518C280.204 390.059 280.134 390.666 280.134 391.338C280.134 392.01 280.204 392.617 280.344 393.158C280.484 393.699 280.741 394.166 281.114 394.558ZM290.457 396H289.295V388.202L287.797 389.784L287.097 389.07L289.435 386.662H290.457V396ZM295.201 396H294.039V388.202L292.541 389.784L291.841 389.07L294.179 386.662H295.201V396Z" fill="black"/>
<path d="M267.804 417H265.816V415.068H261.35V413.5L265.06 407.662H267.804V413.318H269.008V415.068H267.804V417ZM265.816 413.318V409.426L263.296 413.318H265.816ZM275.864 416.454C275.266 416.93 274.543 417.168 273.694 417.168C272.844 417.168 272.116 416.93 271.51 416.454C270.912 415.969 270.483 415.371 270.222 414.662C269.96 413.953 269.83 413.178 269.83 412.338C269.83 411.498 269.96 410.723 270.222 410.014C270.483 409.305 270.912 408.712 271.51 408.236C272.116 407.76 272.844 407.522 273.694 407.522C274.543 407.522 275.266 407.76 275.864 408.236C276.461 408.712 276.89 409.305 277.152 410.014C277.422 410.723 277.558 411.498 277.558 412.338C277.558 413.178 277.422 413.953 277.152 414.662C276.89 415.371 276.461 415.969 275.864 416.454ZM272.294 414.564C272.592 415.124 273.059 415.404 273.694 415.404C274.328 415.404 274.79 415.124 275.08 414.564C275.378 414.004 275.528 413.262 275.528 412.338C275.528 411.414 275.378 410.677 275.08 410.126C274.79 409.566 274.328 409.286 273.694 409.286C273.059 409.286 272.592 409.566 272.294 410.126C271.995 410.677 271.846 411.414 271.846 412.338C271.846 413.262 271.995 414.004 272.294 414.564ZM290.535 417H288.085L285.257 413.262L284.529 414.13V417H282.541V407.662H284.529V411.834L287.833 407.662H290.283L286.573 412.044L290.535 417ZM299.868 417.168C298.729 417.168 297.726 416.869 296.858 416.272C295.999 415.665 295.416 414.853 295.108 413.836H294.394V412.772H294.912C294.902 412.679 294.898 412.534 294.898 412.338C294.898 412.123 294.902 411.965 294.912 411.862H294.394V410.812H295.122C295.43 409.804 296.013 409.001 296.872 408.404C297.73 407.807 298.729 407.508 299.868 407.508C301.613 407.508 302.915 408.269 303.774 409.79L302.066 410.63C301.86 410.238 301.557 409.916 301.156 409.664C300.764 409.403 300.334 409.272 299.868 409.272C299.298 409.272 298.79 409.412 298.342 409.692C297.894 409.963 297.544 410.336 297.292 410.812H300.722V411.862H296.97C296.951 411.965 296.942 412.123 296.942 412.338C296.942 412.441 296.951 412.585 296.97 412.772H300.722V413.836H297.278C297.52 414.321 297.87 414.704 298.328 414.984C298.785 415.264 299.298 415.404 299.868 415.404C300.334 415.404 300.764 415.278 301.156 415.026C301.557 414.774 301.86 414.447 302.066 414.046L303.774 414.872C302.887 416.403 301.585 417.168 299.868 417.168Z" fill="black"/>
<rect x="271" y="342" width="24" height="24" fill="#FF0000" fill-opacity="0.1"/>
<path d="M356.168 396H349.756V395.076C350.727 394.311 351.478 393.704 352.01 393.256C352.551 392.799 353.069 392.318 353.564 391.814C354.068 391.301 354.423 390.848 354.628 390.456C354.833 390.055 354.936 389.658 354.936 389.266C354.936 388.706 354.745 388.281 354.362 387.992C353.979 387.703 353.522 387.558 352.99 387.558C351.917 387.558 351.072 387.95 350.456 388.734L349.742 387.992C350.097 387.525 350.559 387.166 351.128 386.914C351.707 386.653 352.327 386.522 352.99 386.522C353.839 386.522 354.572 386.76 355.188 387.236C355.813 387.712 356.126 388.389 356.126 389.266C356.126 390.134 355.753 391.002 355.006 391.87C354.259 392.729 353.121 393.76 351.59 394.964H356.168V396ZM361.514 396.168C360.898 396.168 360.352 396.028 359.876 395.748C359.41 395.459 359.036 395.076 358.756 394.6C358.486 394.124 358.28 393.611 358.14 393.06C358.01 392.509 357.944 391.935 357.944 391.338C357.944 390.741 358.01 390.167 358.14 389.616C358.28 389.065 358.486 388.557 358.756 388.09C359.036 387.614 359.41 387.236 359.876 386.956C360.352 386.667 360.898 386.522 361.514 386.522C362.121 386.522 362.662 386.667 363.138 386.956C363.614 387.236 363.988 387.614 364.258 388.09C364.538 388.557 364.744 389.065 364.874 389.616C365.014 390.167 365.084 390.741 365.084 391.338C365.084 391.935 365.014 392.509 364.874 393.06C364.744 393.611 364.538 394.124 364.258 394.6C363.988 395.076 363.614 395.459 363.138 395.748C362.662 396.028 362.121 396.168 361.514 396.168ZM360.114 394.558C360.488 394.941 360.954 395.132 361.514 395.132C362.074 395.132 362.541 394.941 362.914 394.558C363.288 394.166 363.544 393.699 363.684 393.158C363.824 392.617 363.894 392.01 363.894 391.338C363.894 390.666 363.824 390.059 363.684 389.518C363.544 388.977 363.288 388.515 362.914 388.132C362.541 387.749 362.074 387.558 361.514 387.558C360.954 387.558 360.488 387.749 360.114 388.132C359.741 388.515 359.484 388.977 359.344 389.518C359.204 390.059 359.134 390.666 359.134 391.338C359.134 392.01 359.204 392.617 359.344 393.158C359.484 393.699 359.741 394.166 360.114 394.558ZM369.457 396H368.295V388.202L366.797 389.784L366.097 389.07L368.435 386.662H369.457V396ZM377.715 396H371.303V395.076C372.274 394.311 373.025 393.704 373.557 393.256C374.098 392.799 374.616 392.318 375.111 391.814C375.615 391.301 375.97 390.848 376.175 390.456C376.38 390.055 376.483 389.658 376.483 389.266C376.483 388.706 376.292 388.281 375.909 387.992C375.526 387.703 375.069 387.558 374.537 387.558C373.464 387.558 372.619 387.95 372.003 388.734L371.289 387.992C371.644 387.525 372.106 387.166 372.675 386.914C373.254 386.653 373.874 386.522 374.537 386.522C375.386 386.522 376.119 386.76 376.735 387.236C377.36 387.712 377.673 388.389 377.673 389.266C377.673 390.134 377.3 391.002 376.553 391.87C375.806 392.729 374.668 393.76 373.137 394.964H377.715V396Z" fill="black"/>
<path d="M348.804 417H346.816V415.068H342.35V413.5L346.06 407.662H348.804V413.318H350.008V415.068H348.804V417ZM346.816 413.318V409.426L344.296 413.318H346.816ZM356.864 416.454C356.266 416.93 355.543 417.168 354.694 417.168C353.844 417.168 353.116 416.93 352.51 416.454C351.912 415.969 351.483 415.371 351.222 414.662C350.96 413.953 350.83 413.178 350.83 412.338C350.83 411.498 350.96 410.723 351.222 410.014C351.483 409.305 351.912 408.712 352.51 408.236C353.116 407.76 353.844 407.522 354.694 407.522C355.543 407.522 356.266 407.76 356.864 408.236C357.461 408.712 357.89 409.305 358.152 410.014C358.422 410.723 358.558 411.498 358.558 412.338C358.558 413.178 358.422 413.953 358.152 414.662C357.89 415.371 357.461 415.969 356.864 416.454ZM353.294 414.564C353.592 415.124 354.059 415.404 354.694 415.404C355.328 415.404 355.79 415.124 356.08 414.564C356.378 414.004 356.528 413.262 356.528 412.338C356.528 411.414 356.378 410.677 356.08 410.126C355.79 409.566 355.328 409.286 354.694 409.286C354.059 409.286 353.592 409.566 353.294 410.126C352.995 410.677 352.846 411.414 352.846 412.338C352.846 413.262 352.995 414.004 353.294 414.564ZM371.535 417H369.085L366.257 413.262L365.529 414.13V417H363.541V407.662H365.529V411.834L368.833 407.662H371.283L367.573 412.044L371.535 417ZM380.868 417.168C379.729 417.168 378.726 416.869 377.858 416.272C376.999 415.665 376.416 414.853 376.108 413.836H375.394V412.772H375.912C375.902 412.679 375.898 412.534 375.898 412.338C375.898 412.123 375.902 411.965 375.912 411.862H375.394V410.812H376.122C376.43 409.804 377.013 409.001 377.872 408.404C378.73 407.807 379.729 407.508 380.868 407.508C382.613 407.508 383.915 408.269 384.774 409.79L383.066 410.63C382.86 410.238 382.557 409.916 382.156 409.664C381.764 409.403 381.334 409.272 380.868 409.272C380.298 409.272 379.79 409.412 379.342 409.692C378.894 409.963 378.544 410.336 378.292 410.812H381.722V411.862H377.97C377.951 411.965 377.942 412.123 377.942 412.338C377.942 412.441 377.951 412.585 377.97 412.772H381.722V413.836H378.278C378.52 414.321 378.87 414.704 379.328 414.984C379.785 415.264 380.298 415.404 380.868 415.404C381.334 415.404 381.764 415.278 382.156 415.026C382.557 414.774 382.86 414.447 383.066 414.046L384.774 414.872C383.887 416.403 382.585 417.168 380.868 417.168Z" fill="black"/>
<rect x="352" y="333" width="24" height="33" fill="#FF0000" fill-opacity="0.2"/>
<path d="M437.168 396H430.756V395.076C431.727 394.311 432.478 393.704 433.01 393.256C433.551 392.799 434.069 392.318 434.564 391.814C435.068 391.301 435.423 390.848 435.628 390.456C435.833 390.055 435.936 389.658 435.936 389.266C435.936 388.706 435.745 388.281 435.362 387.992C434.979 387.703 434.522 387.558 433.99 387.558C432.917 387.558 432.072 387.95 431.456 388.734L430.742 387.992C431.097 387.525 431.559 387.166 432.128 386.914C432.707 386.653 433.327 386.522 433.99 386.522C434.839 386.522 435.572 386.76 436.188 387.236C436.813 387.712 437.126 388.389 437.126 389.266C437.126 390.134 436.753 391.002 436.006 391.87C435.259 392.729 434.121 393.76 432.59 394.964H437.168V396ZM442.514 396.168C441.898 396.168 441.352 396.028 440.876 395.748C440.41 395.459 440.036 395.076 439.756 394.6C439.486 394.124 439.28 393.611 439.14 393.06C439.01 392.509 438.944 391.935 438.944 391.338C438.944 390.741 439.01 390.167 439.14 389.616C439.28 389.065 439.486 388.557 439.756 388.09C440.036 387.614 440.41 387.236 440.876 386.956C441.352 386.667 441.898 386.522 442.514 386.522C443.121 386.522 443.662 386.667 444.138 386.956C444.614 387.236 444.988 387.614 445.258 388.09C445.538 388.557 445.744 389.065 445.874 389.616C446.014 390.167 446.084 390.741 446.084 391.338C446.084 391.935 446.014 392.509 445.874 393.06C445.744 393.611 445.538 394.124 445.258 394.6C444.988 395.076 444.614 395.459 444.138 395.748C443.662 396.028 443.121 396.168 442.514 396.168ZM441.114 394.558C441.488 394.941 441.954 395.132 442.514 395.132C443.074 395.132 443.541 394.941 443.914 394.558C444.288 394.166 444.544 393.699 444.684 393.158C444.824 392.617 444.894 392.01 444.894 391.338C444.894 390.666 444.824 390.059 444.684 389.518C444.544 388.977 444.288 388.515 443.914 388.132C443.541 387.749 443.074 387.558 442.514 387.558C441.954 387.558 441.488 387.749 441.114 388.132C440.741 388.515 440.484 388.977 440.344 389.518C440.204 390.059 440.134 390.666 440.134 391.338C440.134 392.01 440.204 392.617 440.344 393.158C440.484 393.699 440.741 394.166 441.114 394.558ZM450.457 396H449.295V388.202L447.797 389.784L447.097 389.07L449.435 386.662H450.457V396ZM455.271 396.168C454.524 396.168 453.862 396.023 453.283 395.734C452.704 395.445 452.261 395.076 451.953 394.628L452.639 393.9C452.919 394.273 453.288 394.572 453.745 394.796C454.202 395.02 454.702 395.132 455.243 395.132C455.924 395.132 456.456 394.978 456.839 394.67C457.231 394.353 457.427 393.923 457.427 393.382C457.427 392.822 457.217 392.407 456.797 392.136C456.386 391.865 455.822 391.73 455.103 391.73C454.552 391.73 454.23 391.735 454.137 391.744V390.68C454.24 390.689 454.562 390.694 455.103 390.694C455.738 390.694 456.256 390.568 456.657 390.316C457.068 390.055 457.273 389.667 457.273 389.154C457.273 388.659 457.072 388.272 456.671 387.992C456.279 387.703 455.784 387.558 455.187 387.558C454.244 387.558 453.423 387.936 452.723 388.692L452.079 387.964C452.872 387.003 453.936 386.522 455.271 386.522C456.195 386.522 456.951 386.746 457.539 387.194C458.136 387.633 458.435 388.239 458.435 389.014C458.435 389.63 458.23 390.125 457.819 390.498C457.408 390.862 456.942 391.091 456.419 391.184C456.932 391.231 457.418 391.455 457.875 391.856C458.342 392.257 458.575 392.799 458.575 393.48C458.575 394.273 458.276 394.922 457.679 395.426C457.082 395.921 456.279 396.168 455.271 396.168Z" fill="black"/>
<path d="M429.804 417H427.816V415.068H423.35V413.5L427.06 407.662H429.804V413.318H431.008V415.068H429.804V417ZM427.816 413.318V409.426L425.296 413.318H427.816ZM437.864 416.454C437.266 416.93 436.543 417.168 435.694 417.168C434.844 417.168 434.116 416.93 433.51 416.454C432.912 415.969 432.483 415.371 432.222 414.662C431.96 413.953 431.83 413.178 431.83 412.338C431.83 411.498 431.96 410.723 432.222 410.014C432.483 409.305 432.912 408.712 433.51 408.236C434.116 407.76 434.844 407.522 435.694 407.522C436.543 407.522 437.266 407.76 437.864 408.236C438.461 408.712 438.89 409.305 439.152 410.014C439.422 410.723 439.558 411.498 439.558 412.338C439.558 413.178 439.422 413.953 439.152 414.662C438.89 415.371 438.461 415.969 437.864 416.454ZM434.294 414.564C434.592 415.124 435.059 415.404 435.694 415.404C436.328 415.404 436.79 415.124 437.08 414.564C437.378 414.004 437.528 413.262 437.528 412.338C437.528 411.414 437.378 410.677 437.08 410.126C436.79 409.566 436.328 409.286 435.694 409.286C435.059 409.286 434.592 409.566 434.294 410.126C433.995 410.677 433.846 411.414 433.846 412.338C433.846 413.262 433.995 414.004 434.294 414.564ZM452.535 417H450.085L447.257 413.262L446.529 414.13V417H444.541V407.662H446.529V411.834L449.833 407.662H452.283L448.573 412.044L452.535 417ZM461.868 417.168C460.729 417.168 459.726 416.869 458.858 416.272C457.999 415.665 457.416 414.853 457.108 413.836H456.394V412.772H456.912C456.902 412.679 456.898 412.534 456.898 412.338C456.898 412.123 456.902 411.965 456.912 411.862H456.394V410.812H457.122C457.43 409.804 458.013 409.001 458.872 408.404C459.73 407.807 460.729 407.508 461.868 407.508C463.613 407.508 464.915 408.269 465.774 409.79L464.066 410.63C463.86 410.238 463.557 409.916 463.156 409.664C462.764 409.403 462.334 409.272 461.868 409.272C461.298 409.272 460.79 409.412 460.342 409.692C459.894 409.963 459.544 410.336 459.292 410.812H462.722V411.862H458.97C458.951 411.965 458.942 412.123 458.942 412.338C458.942 412.441 458.951 412.585 458.97 412.772H462.722V413.836H459.278C459.52 414.321 459.87 414.704 460.328 414.984C460.785 415.264 461.298 415.404 461.868 415.404C462.334 415.404 462.764 415.278 463.156 415.026C463.557 414.774 463.86 414.447 464.066 414.046L465.774 414.872C464.887 416.403 463.585 417.168 461.868 417.168Z" fill="black"/>
<rect x="433" y="320" width="24" height="46" fill="#FF0000" fill-opacity="0.3"/>
<path d="M518.168 396H511.756V395.076C512.727 394.311 513.478 393.704 514.01 393.256C514.551 392.799 515.069 392.318 515.564 391.814C516.068 391.301 516.423 390.848 516.628 390.456C516.833 390.055 516.936 389.658 516.936 389.266C516.936 388.706 516.745 388.281 516.362 387.992C515.979 387.703 515.522 387.558 514.99 387.558C513.917 387.558 513.072 387.95 512.456 388.734L511.742 387.992C512.097 387.525 512.559 387.166 513.128 386.914C513.707 386.653 514.327 386.522 514.99 386.522C515.839 386.522 516.572 386.76 517.188 387.236C517.813 387.712 518.126 388.389 518.126 389.266C518.126 390.134 517.753 391.002 517.006 391.87C516.259 392.729 515.121 393.76 513.59 394.964H518.168V396ZM523.514 396.168C522.898 396.168 522.352 396.028 521.876 395.748C521.41 395.459 521.036 395.076 520.756 394.6C520.486 394.124 520.28 393.611 520.14 393.06C520.01 392.509 519.944 391.935 519.944 391.338C519.944 390.741 520.01 390.167 520.14 389.616C520.28 389.065 520.486 388.557 520.756 388.09C521.036 387.614 521.41 387.236 521.876 386.956C522.352 386.667 522.898 386.522 523.514 386.522C524.121 386.522 524.662 386.667 525.138 386.956C525.614 387.236 525.988 387.614 526.258 388.09C526.538 388.557 526.744 389.065 526.874 389.616C527.014 390.167 527.084 390.741 527.084 391.338C527.084 391.935 527.014 392.509 526.874 393.06C526.744 393.611 526.538 394.124 526.258 394.6C525.988 395.076 525.614 395.459 525.138 395.748C524.662 396.028 524.121 396.168 523.514 396.168ZM522.114 394.558C522.488 394.941 522.954 395.132 523.514 395.132C524.074 395.132 524.541 394.941 524.914 394.558C525.288 394.166 525.544 393.699 525.684 393.158C525.824 392.617 525.894 392.01 525.894 391.338C525.894 390.666 525.824 390.059 525.684 389.518C525.544 388.977 525.288 388.515 524.914 388.132C524.541 387.749 524.074 387.558 523.514 387.558C522.954 387.558 522.488 387.749 522.114 388.132C521.741 388.515 521.484 388.977 521.344 389.518C521.204 390.059 521.134 390.666 521.134 391.338C521.134 392.01 521.204 392.617 521.344 393.158C521.484 393.699 521.741 394.166 522.114 394.558ZM531.457 396H530.295V388.202L528.797 389.784L528.097 389.07L530.435 386.662H531.457V396ZM538.595 396H537.433V393.634H532.995V392.668L536.999 386.662H538.595V392.612H539.911V393.634H538.595V396ZM537.433 392.612V387.74L534.157 392.612H537.433Z" fill="black"/>
<path d="M510.804 417H508.816V415.068H504.35V413.5L508.06 407.662H510.804V413.318H512.008V415.068H510.804V417ZM508.816 413.318V409.426L506.296 413.318H508.816ZM518.864 416.454C518.266 416.93 517.543 417.168 516.694 417.168C515.844 417.168 515.116 416.93 514.51 416.454C513.912 415.969 513.483 415.371 513.222 414.662C512.96 413.953 512.83 413.178 512.83 412.338C512.83 411.498 512.96 410.723 513.222 410.014C513.483 409.305 513.912 408.712 514.51 408.236C515.116 407.76 515.844 407.522 516.694 407.522C517.543 407.522 518.266 407.76 518.864 408.236C519.461 408.712 519.89 409.305 520.152 410.014C520.422 410.723 520.558 411.498 520.558 412.338C520.558 413.178 520.422 413.953 520.152 414.662C519.89 415.371 519.461 415.969 518.864 416.454ZM515.294 414.564C515.592 415.124 516.059 415.404 516.694 415.404C517.328 415.404 517.79 415.124 518.08 414.564C518.378 414.004 518.528 413.262 518.528 412.338C518.528 411.414 518.378 410.677 518.08 410.126C517.79 409.566 517.328 409.286 516.694 409.286C516.059 409.286 515.592 409.566 515.294 410.126C514.995 410.677 514.846 411.414 514.846 412.338C514.846 413.262 514.995 414.004 515.294 414.564ZM533.535 417H531.085L528.257 413.262L527.529 414.13V417H525.541V407.662H527.529V411.834L530.833 407.662H533.283L529.573 412.044L533.535 417ZM542.868 417.168C541.729 417.168 540.726 416.869 539.858 416.272C538.999 415.665 538.416 414.853 538.108 413.836H537.394V412.772H537.912C537.902 412.679 537.898 412.534 537.898 412.338C537.898 412.123 537.902 411.965 537.912 411.862H537.394V410.812H538.122C538.43 409.804 539.013 409.001 539.872 408.404C540.73 407.807 541.729 407.508 542.868 407.508C544.613 407.508 545.915 408.269 546.774 409.79L545.066 410.63C544.86 410.238 544.557 409.916 544.156 409.664C543.764 409.403 543.334 409.272 542.868 409.272C542.298 409.272 541.79 409.412 541.342 409.692C540.894 409.963 540.544 410.336 540.292 410.812H543.722V411.862H539.97C539.951 411.965 539.942 412.123 539.942 412.338C539.942 412.441 539.951 412.585 539.97 412.772H543.722V413.836H540.278C540.52 414.321 540.87 414.704 541.328 414.984C541.785 415.264 542.298 415.404 542.868 415.404C543.334 415.404 543.764 415.278 544.156 415.026C544.557 414.774 544.86 414.447 545.066 414.046L546.774 414.872C545.887 416.403 544.585 417.168 542.868 417.168Z" fill="black"/>
<rect x="514" y="291" width="24" height="75" fill="#FF0000" fill-opacity="0.4"/>
<path d="M599.168 396H592.756V395.076C593.727 394.311 594.478 393.704 595.01 393.256C595.551 392.799 596.069 392.318 596.564 391.814C597.068 391.301 597.423 390.848 597.628 390.456C597.833 390.055 597.936 389.658 597.936 389.266C597.936 388.706 597.745 388.281 597.362 387.992C596.979 387.703 596.522 387.558 595.99 387.558C594.917 387.558 594.072 387.95 593.456 388.734L592.742 387.992C593.097 387.525 593.559 387.166 594.128 386.914C594.707 386.653 595.327 386.522 595.99 386.522C596.839 386.522 597.572 386.76 598.188 387.236C598.813 387.712 599.126 388.389 599.126 389.266C599.126 390.134 598.753 391.002 598.006 391.87C597.259 392.729 596.121 393.76 594.59 394.964H599.168V396ZM604.514 396.168C603.898 396.168 603.352 396.028 602.876 395.748C602.41 395.459 602.036 395.076 601.756 394.6C601.486 394.124 601.28 393.611 601.14 393.06C601.01 392.509 600.944 391.935 600.944 391.338C600.944 390.741 601.01 390.167 601.14 389.616C601.28 389.065 601.486 388.557 601.756 388.09C602.036 387.614 602.41 387.236 602.876 386.956C603.352 386.667 603.898 386.522 604.514 386.522C605.121 386.522 605.662 386.667 606.138 386.956C606.614 387.236 606.988 387.614 607.258 388.09C607.538 388.557 607.744 389.065 607.874 389.616C608.014 390.167 608.084 390.741 608.084 391.338C608.084 391.935 608.014 392.509 607.874 393.06C607.744 393.611 607.538 394.124 607.258 394.6C606.988 395.076 606.614 395.459 606.138 395.748C605.662 396.028 605.121 396.168 604.514 396.168ZM603.114 394.558C603.488 394.941 603.954 395.132 604.514 395.132C605.074 395.132 605.541 394.941 605.914 394.558C606.288 394.166 606.544 393.699 606.684 393.158C606.824 392.617 606.894 392.01 606.894 391.338C606.894 390.666 606.824 390.059 606.684 389.518C606.544 388.977 606.288 388.515 605.914 388.132C605.541 387.749 605.074 387.558 604.514 387.558C603.954 387.558 603.488 387.749 603.114 388.132C602.741 388.515 602.484 388.977 602.344 389.518C602.204 390.059 602.134 390.666 602.134 391.338C602.134 392.01 602.204 392.617 602.344 393.158C602.484 393.699 602.741 394.166 603.114 394.558ZM612.457 396H611.295V388.202L609.797 389.784L609.097 389.07L611.435 386.662H612.457V396ZM617.761 396.168C616.324 396.168 615.227 395.669 614.471 394.67L615.185 393.9C615.829 394.721 616.688 395.132 617.761 395.132C618.396 395.132 618.914 394.941 619.315 394.558C619.716 394.175 619.917 393.699 619.917 393.13C619.917 392.523 619.716 392.038 619.315 391.674C618.923 391.301 618.41 391.114 617.775 391.114C616.935 391.114 616.216 391.408 615.619 391.996L614.765 391.702V386.662H620.477V387.698H615.927V390.946C616.487 390.386 617.215 390.106 618.111 390.106C618.932 390.106 619.632 390.377 620.211 390.918C620.79 391.45 621.079 392.173 621.079 393.088C621.079 394.021 620.766 394.768 620.141 395.328C619.516 395.888 618.722 396.168 617.761 396.168Z" fill="black"/>
<path d="M591.804 417H589.816V415.068H585.35V413.5L589.06 407.662H591.804V413.318H593.008V415.068H591.804V417ZM589.816 413.318V409.426L587.296 413.318H589.816ZM599.864 416.454C599.266 416.93 598.543 417.168 597.694 417.168C596.844 417.168 596.116 416.93 595.51 416.454C594.912 415.969 594.483 415.371 594.222 414.662C593.96 413.953 593.83 413.178 593.83 412.338C593.83 411.498 593.96 410.723 594.222 410.014C594.483 409.305 594.912 408.712 595.51 408.236C596.116 407.76 596.844 407.522 597.694 407.522C598.543 407.522 599.266 407.76 599.864 408.236C600.461 408.712 600.89 409.305 601.152 410.014C601.422 410.723 601.558 411.498 601.558 412.338C601.558 413.178 601.422 413.953 601.152 414.662C600.89 415.371 600.461 415.969 599.864 416.454ZM596.294 414.564C596.592 415.124 597.059 415.404 597.694 415.404C598.328 415.404 598.79 415.124 599.08 414.564C599.378 414.004 599.528 413.262 599.528 412.338C599.528 411.414 599.378 410.677 599.08 410.126C598.79 409.566 598.328 409.286 597.694 409.286C597.059 409.286 596.592 409.566 596.294 410.126C595.995 410.677 595.846 411.414 595.846 412.338C595.846 413.262 595.995 414.004 596.294 414.564ZM614.535 417H612.085L609.257 413.262L608.529 414.13V417H606.541V407.662H608.529V411.834L611.833 407.662H614.283L610.573 412.044L614.535 417ZM623.868 417.168C622.729 417.168 621.726 416.869 620.858 416.272C619.999 415.665 619.416 414.853 619.108 413.836H618.394V412.772H618.912C618.902 412.679 618.898 412.534 618.898 412.338C618.898 412.123 618.902 411.965 618.912 411.862H618.394V410.812H619.122C619.43 409.804 620.013 409.001 620.872 408.404C621.73 407.807 622.729 407.508 623.868 407.508C625.613 407.508 626.915 408.269 627.774 409.79L626.066 410.63C625.86 410.238 625.557 409.916 625.156 409.664C624.764 409.403 624.334 409.272 623.868 409.272C623.298 409.272 622.79 409.412 622.342 409.692C621.894 409.963 621.544 410.336 621.292 410.812H624.722V411.862H620.97C620.951 411.965 620.942 412.123 620.942 412.338C620.942 412.441 620.951 412.585 620.97 412.772H624.722V413.836H621.278C621.52 414.321 621.87 414.704 622.328 414.984C622.785 415.264 623.298 415.404 623.868 415.404C624.334 415.404 624.764 415.278 625.156 415.026C625.557 414.774 625.86 414.447 626.066 414.046L627.774 414.872C626.887 416.403 625.585 417.168 623.868 417.168Z" fill="black"/>
<rect x="595" y="268" width="24" height="98" fill="#FF0000" fill-opacity="0.5"/>
<path d="M680.168 396H673.756V395.076C674.727 394.311 675.478 393.704 676.01 393.256C676.551 392.799 677.069 392.318 677.564 391.814C678.068 391.301 678.423 390.848 678.628 390.456C678.833 390.055 678.936 389.658 678.936 389.266C678.936 388.706 678.745 388.281 678.362 387.992C677.979 387.703 677.522 387.558 676.99 387.558C675.917 387.558 675.072 387.95 674.456 388.734L673.742 387.992C674.097 387.525 674.559 387.166 675.128 386.914C675.707 386.653 676.327 386.522 676.99 386.522C677.839 386.522 678.572 386.76 679.188 387.236C679.813 387.712 680.126 388.389 680.126 389.266C680.126 390.134 679.753 391.002 679.006 391.87C678.259 392.729 677.121 393.76 675.59 394.964H680.168V396ZM685.514 396.168C684.898 396.168 684.352 396.028 683.876 395.748C683.41 395.459 683.036 395.076 682.756 394.6C682.486 394.124 682.28 393.611 682.14 393.06C682.01 392.509 681.944 391.935 681.944 391.338C681.944 390.741 682.01 390.167 682.14 389.616C682.28 389.065 682.486 388.557 682.756 388.09C683.036 387.614 683.41 387.236 683.876 386.956C684.352 386.667 684.898 386.522 685.514 386.522C686.121 386.522 686.662 386.667 687.138 386.956C687.614 387.236 687.988 387.614 688.258 388.09C688.538 388.557 688.744 389.065 688.874 389.616C689.014 390.167 689.084 390.741 689.084 391.338C689.084 391.935 689.014 392.509 688.874 393.06C688.744 393.611 688.538 394.124 688.258 394.6C687.988 395.076 687.614 395.459 687.138 395.748C686.662 396.028 686.121 396.168 685.514 396.168ZM684.114 394.558C684.488 394.941 684.954 395.132 685.514 395.132C686.074 395.132 686.541 394.941 686.914 394.558C687.288 394.166 687.544 393.699 687.684 393.158C687.824 392.617 687.894 392.01 687.894 391.338C687.894 390.666 687.824 390.059 687.684 389.518C687.544 388.977 687.288 388.515 686.914 388.132C686.541 387.749 686.074 387.558 685.514 387.558C684.954 387.558 684.488 387.749 684.114 388.132C683.741 388.515 683.484 388.977 683.344 389.518C683.204 390.059 683.134 390.666 683.134 391.338C683.134 392.01 683.204 392.617 683.344 393.158C683.484 393.699 683.741 394.166 684.114 394.558ZM693.457 396H692.295V388.202L690.797 389.784L690.097 389.07L692.435 386.662H693.457V396ZM698.859 396.168C698.234 396.168 697.683 396.037 697.207 395.776C696.731 395.515 696.353 395.16 696.073 394.712C695.802 394.255 695.597 393.746 695.457 393.186C695.326 392.617 695.261 392.005 695.261 391.352C695.261 390.475 695.392 389.681 695.653 388.972C695.914 388.263 696.334 387.679 696.913 387.222C697.501 386.755 698.215 386.522 699.055 386.522C700.128 386.522 700.992 386.895 701.645 387.642L701.057 388.51C700.516 387.875 699.848 387.558 699.055 387.558C698.476 387.558 697.982 387.74 697.571 388.104C697.17 388.468 696.876 388.921 696.689 389.462C696.512 389.994 696.423 390.582 696.423 391.226C696.423 391.385 696.428 391.506 696.437 391.59C696.67 391.217 697.03 390.881 697.515 390.582C698.01 390.283 698.532 390.134 699.083 390.134C699.97 390.134 700.698 390.395 701.267 390.918C701.846 391.431 702.135 392.164 702.135 393.116C702.135 393.965 701.836 394.689 701.239 395.286C700.642 395.874 699.848 396.168 698.859 396.168ZM698.817 395.132C699.489 395.132 700.012 394.931 700.385 394.53C700.768 394.119 700.959 393.662 700.959 393.158C700.959 392.505 700.758 392.005 700.357 391.66C699.956 391.315 699.438 391.142 698.803 391.142C698.346 391.142 697.907 391.273 697.487 391.534C697.067 391.786 696.726 392.122 696.465 392.542C696.53 393.233 696.754 393.839 697.137 394.362C697.52 394.875 698.08 395.132 698.817 395.132Z" fill="black"/>
<path d="M672.804 417H670.816V415.068H666.35V413.5L670.06 407.662H672.804V413.318H674.008V415.068H672.804V417ZM670.816 413.318V409.426L668.296 413.318H670.816ZM680.864 416.454C680.266 416.93 679.543 417.168 678.694 417.168C677.844 417.168 677.116 416.93 676.51 416.454C675.912 415.969 675.483 415.371 675.222 414.662C674.96 413.953 674.83 413.178 674.83 412.338C674.83 411.498 674.96 410.723 675.222 410.014C675.483 409.305 675.912 408.712 676.51 408.236C677.116 407.76 677.844 407.522 678.694 407.522C679.543 407.522 680.266 407.76 680.864 408.236C681.461 408.712 681.89 409.305 682.152 410.014C682.422 410.723 682.558 411.498 682.558 412.338C682.558 413.178 682.422 413.953 682.152 414.662C681.89 415.371 681.461 415.969 680.864 416.454ZM677.294 414.564C677.592 415.124 678.059 415.404 678.694 415.404C679.328 415.404 679.79 415.124 680.08 414.564C680.378 414.004 680.528 413.262 680.528 412.338C680.528 411.414 680.378 410.677 680.08 410.126C679.79 409.566 679.328 409.286 678.694 409.286C678.059 409.286 677.592 409.566 677.294 410.126C676.995 410.677 676.846 411.414 676.846 412.338C676.846 413.262 676.995 414.004 677.294 414.564ZM695.535 417H693.085L690.257 413.262L689.529 414.13V417H687.541V407.662H689.529V411.834L692.833 407.662H695.283L691.573 412.044L695.535 417ZM704.868 417.168C703.729 417.168 702.726 416.869 701.858 416.272C700.999 415.665 700.416 414.853 700.108 413.836H699.394V412.772H699.912C699.902 412.679 699.898 412.534 699.898 412.338C699.898 412.123 699.902 411.965 699.912 411.862H699.394V410.812H700.122C700.43 409.804 701.013 409.001 701.872 408.404C702.73 407.807 703.729 407.508 704.868 407.508C706.613 407.508 707.915 408.269 708.774 409.79L707.066 410.63C706.86 410.238 706.557 409.916 706.156 409.664C705.764 409.403 705.334 409.272 704.868 409.272C704.298 409.272 703.79 409.412 703.342 409.692C702.894 409.963 702.544 410.336 702.292 410.812H705.722V411.862H701.97C701.951 411.965 701.942 412.123 701.942 412.338C701.942 412.441 701.951 412.585 701.97 412.772H705.722V413.836H702.278C702.52 414.321 702.87 414.704 703.328 414.984C703.785 415.264 704.298 415.404 704.868 415.404C705.334 415.404 705.764 415.278 706.156 415.026C706.557 414.774 706.86 414.447 707.066 414.046L708.774 414.872C707.887 416.403 706.585 417.168 704.868 417.168Z" fill="black"/>
<rect x="676" y="249" width="24" height="117" fill="#FF0000" fill-opacity="0.6"/>
<path d="M762.168 396H755.756V395.076C756.727 394.311 757.478 393.704 758.01 393.256C758.551 392.799 759.069 392.318 759.564 391.814C760.068 391.301 760.423 390.848 760.628 390.456C760.833 390.055 760.936 389.658 760.936 389.266C760.936 388.706 760.745 388.281 760.362 387.992C759.979 387.703 759.522 387.558 758.99 387.558C757.917 387.558 757.072 387.95 756.456 388.734L755.742 387.992C756.097 387.525 756.559 387.166 757.128 386.914C757.707 386.653 758.327 386.522 758.99 386.522C759.839 386.522 760.572 386.76 761.188 387.236C761.813 387.712 762.126 388.389 762.126 389.266C762.126 390.134 761.753 391.002 761.006 391.87C760.259 392.729 759.121 393.76 757.59 394.964H762.168V396ZM767.514 396.168C766.898 396.168 766.352 396.028 765.876 395.748C765.41 395.459 765.036 395.076 764.756 394.6C764.486 394.124 764.28 393.611 764.14 393.06C764.01 392.509 763.944 391.935 763.944 391.338C763.944 390.741 764.01 390.167 764.14 389.616C764.28 389.065 764.486 388.557 764.756 388.09C765.036 387.614 765.41 387.236 765.876 386.956C766.352 386.667 766.898 386.522 767.514 386.522C768.121 386.522 768.662 386.667 769.138 386.956C769.614 387.236 769.988 387.614 770.258 388.09C770.538 388.557 770.744 389.065 770.874 389.616C771.014 390.167 771.084 390.741 771.084 391.338C771.084 391.935 771.014 392.509 770.874 393.06C770.744 393.611 770.538 394.124 770.258 394.6C769.988 395.076 769.614 395.459 769.138 395.748C768.662 396.028 768.121 396.168 767.514 396.168ZM766.114 394.558C766.488 394.941 766.954 395.132 767.514 395.132C768.074 395.132 768.541 394.941 768.914 394.558C769.288 394.166 769.544 393.699 769.684 393.158C769.824 392.617 769.894 392.01 769.894 391.338C769.894 390.666 769.824 390.059 769.684 389.518C769.544 388.977 769.288 388.515 768.914 388.132C768.541 387.749 768.074 387.558 767.514 387.558C766.954 387.558 766.488 387.749 766.114 388.132C765.741 388.515 765.484 388.977 765.344 389.518C765.204 390.059 765.134 390.666 765.134 391.338C765.134 392.01 765.204 392.617 765.344 393.158C765.484 393.699 765.741 394.166 766.114 394.558ZM775.457 396H774.295V388.202L772.797 389.784L772.097 389.07L774.435 386.662H775.457V396ZM779.529 396H778.241L782.007 387.698H776.981V386.662H783.351V387.46L779.529 396Z" fill="black"/>
<path d="M753.804 417H751.816V415.068H747.35V413.5L751.06 407.662H753.804V413.318H755.008V415.068H753.804V417ZM751.816 413.318V409.426L749.296 413.318H751.816ZM761.864 416.454C761.266 416.93 760.543 417.168 759.694 417.168C758.844 417.168 758.116 416.93 757.51 416.454C756.912 415.969 756.483 415.371 756.222 414.662C755.96 413.953 755.83 413.178 755.83 412.338C755.83 411.498 755.96 410.723 756.222 410.014C756.483 409.305 756.912 408.712 757.51 408.236C758.116 407.76 758.844 407.522 759.694 407.522C760.543 407.522 761.266 407.76 761.864 408.236C762.461 408.712 762.89 409.305 763.152 410.014C763.422 410.723 763.558 411.498 763.558 412.338C763.558 413.178 763.422 413.953 763.152 414.662C762.89 415.371 762.461 415.969 761.864 416.454ZM758.294 414.564C758.592 415.124 759.059 415.404 759.694 415.404C760.328 415.404 760.79 415.124 761.08 414.564C761.378 414.004 761.528 413.262 761.528 412.338C761.528 411.414 761.378 410.677 761.08 410.126C760.79 409.566 760.328 409.286 759.694 409.286C759.059 409.286 758.592 409.566 758.294 410.126C757.995 410.677 757.846 411.414 757.846 412.338C757.846 413.262 757.995 414.004 758.294 414.564ZM776.535 417H774.085L771.257 413.262L770.529 414.13V417H768.541V407.662H770.529V411.834L773.833 407.662H776.283L772.573 412.044L776.535 417ZM785.868 417.168C784.729 417.168 783.726 416.869 782.858 416.272C781.999 415.665 781.416 414.853 781.108 413.836H780.394V412.772H780.912C780.902 412.679 780.898 412.534 780.898 412.338C780.898 412.123 780.902 411.965 780.912 411.862H780.394V410.812H781.122C781.43 409.804 782.013 409.001 782.872 408.404C783.73 407.807 784.729 407.508 785.868 407.508C787.613 407.508 788.915 408.269 789.774 409.79L788.066 410.63C787.86 410.238 787.557 409.916 787.156 409.664C786.764 409.403 786.334 409.272 785.868 409.272C785.298 409.272 784.79 409.412 784.342 409.692C783.894 409.963 783.544 410.336 783.292 410.812H786.722V411.862H782.97C782.951 411.965 782.942 412.123 782.942 412.338C782.942 412.441 782.951 412.585 782.97 412.772H786.722V413.836H783.278C783.52 414.321 783.87 414.704 784.328 414.984C784.785 415.264 785.298 415.404 785.868 415.404C786.334 415.404 786.764 415.278 787.156 415.026C787.557 414.774 787.86 414.447 788.066 414.046L789.774 414.872C788.887 416.403 787.585 417.168 785.868 417.168Z" fill="black"/>
<rect x="757" y="219" width="24" height="147" fill="#FF0000" fill-opacity="0.7"/>
<path d="M842.168 396H835.756V395.076C836.727 394.311 837.478 393.704 838.01 393.256C838.551 392.799 839.069 392.318 839.564 391.814C840.068 391.301 840.423 390.848 840.628 390.456C840.833 390.055 840.936 389.658 840.936 389.266C840.936 388.706 840.745 388.281 840.362 387.992C839.979 387.703 839.522 387.558 838.99 387.558C837.917 387.558 837.072 387.95 836.456 388.734L835.742 387.992C836.097 387.525 836.559 387.166 837.128 386.914C837.707 386.653 838.327 386.522 838.99 386.522C839.839 386.522 840.572 386.76 841.188 387.236C841.813 387.712 842.126 388.389 842.126 389.266C842.126 390.134 841.753 391.002 841.006 391.87C840.259 392.729 839.121 393.76 837.59 394.964H842.168V396ZM847.514 396.168C846.898 396.168 846.352 396.028 845.876 395.748C845.41 395.459 845.036 395.076 844.756 394.6C844.486 394.124 844.28 393.611 844.14 393.06C844.01 392.509 843.944 391.935 843.944 391.338C843.944 390.741 844.01 390.167 844.14 389.616C844.28 389.065 844.486 388.557 844.756 388.09C845.036 387.614 845.41 387.236 845.876 386.956C846.352 386.667 846.898 386.522 847.514 386.522C848.121 386.522 848.662 386.667 849.138 386.956C849.614 387.236 849.988 387.614 850.258 388.09C850.538 388.557 850.744 389.065 850.874 389.616C851.014 390.167 851.084 390.741 851.084 391.338C851.084 391.935 851.014 392.509 850.874 393.06C850.744 393.611 850.538 394.124 850.258 394.6C849.988 395.076 849.614 395.459 849.138 395.748C848.662 396.028 848.121 396.168 847.514 396.168ZM846.114 394.558C846.488 394.941 846.954 395.132 847.514 395.132C848.074 395.132 848.541 394.941 848.914 394.558C849.288 394.166 849.544 393.699 849.684 393.158C849.824 392.617 849.894 392.01 849.894 391.338C849.894 390.666 849.824 390.059 849.684 389.518C849.544 388.977 849.288 388.515 848.914 388.132C848.541 387.749 848.074 387.558 847.514 387.558C846.954 387.558 846.488 387.749 846.114 388.132C845.741 388.515 845.484 388.977 845.344 389.518C845.204 390.059 845.134 390.666 845.134 391.338C845.134 392.01 845.204 392.617 845.344 393.158C845.484 393.699 845.741 394.166 846.114 394.558ZM855.457 396H854.295V388.202L852.797 389.784L852.097 389.07L854.435 386.662H855.457V396ZM863.001 395.482C862.366 395.939 861.573 396.168 860.621 396.168C859.669 396.168 858.871 395.939 858.227 395.482C857.592 395.025 857.275 394.409 857.275 393.634C857.275 393.046 857.485 392.537 857.905 392.108C858.334 391.679 858.866 391.371 859.501 391.184C858.904 391.016 858.409 390.745 858.017 390.372C857.625 389.989 857.429 389.513 857.429 388.944C857.429 388.16 857.746 387.563 858.381 387.152C859.016 386.732 859.762 386.522 860.621 386.522C861.48 386.522 862.226 386.732 862.861 387.152C863.505 387.563 863.827 388.16 863.827 388.944C863.827 389.513 863.631 389.989 863.239 390.372C862.847 390.745 862.348 391.016 861.741 391.184C862.376 391.371 862.903 391.679 863.323 392.108C863.752 392.537 863.967 393.046 863.967 393.634C863.967 394.399 863.645 395.015 863.001 395.482ZM860.621 390.708C860.808 390.68 860.994 390.633 861.181 390.568C861.377 390.503 861.596 390.414 861.839 390.302C862.082 390.181 862.278 390.017 862.427 389.812C862.576 389.597 862.651 389.359 862.651 389.098C862.651 388.631 862.455 388.258 862.063 387.978C861.68 387.698 861.2 387.558 860.621 387.558C860.033 387.558 859.548 387.698 859.165 387.978C858.782 388.258 858.591 388.631 858.591 389.098C858.591 389.359 858.666 389.597 858.815 389.812C858.964 390.017 859.16 390.181 859.403 390.302C859.646 390.414 859.86 390.503 860.047 390.568C860.243 390.624 860.434 390.671 860.621 390.708ZM860.621 395.132C861.218 395.132 861.727 394.983 862.147 394.684C862.576 394.385 862.791 393.993 862.791 393.508C862.791 393.135 862.642 392.808 862.343 392.528C862.054 392.239 861.755 392.038 861.447 391.926C861.148 391.805 860.873 391.73 860.621 391.702C860.369 391.73 860.089 391.805 859.781 391.926C859.482 392.038 859.184 392.239 858.885 392.528C858.586 392.808 858.437 393.135 858.437 393.508C858.437 393.993 858.647 394.385 859.067 394.684C859.496 394.983 860.014 395.132 860.621 395.132Z" fill="black"/>
<path d="M834.804 417H832.816V415.068H828.35V413.5L832.06 407.662H834.804V413.318H836.008V415.068H834.804V417ZM832.816 413.318V409.426L830.296 413.318H832.816ZM842.864 416.454C842.266 416.93 841.543 417.168 840.694 417.168C839.844 417.168 839.116 416.93 838.51 416.454C837.912 415.969 837.483 415.371 837.222 414.662C836.96 413.953 836.83 413.178 836.83 412.338C836.83 411.498 836.96 410.723 837.222 410.014C837.483 409.305 837.912 408.712 838.51 408.236C839.116 407.76 839.844 407.522 840.694 407.522C841.543 407.522 842.266 407.76 842.864 408.236C843.461 408.712 843.89 409.305 844.152 410.014C844.422 410.723 844.558 411.498 844.558 412.338C844.558 413.178 844.422 413.953 844.152 414.662C843.89 415.371 843.461 415.969 842.864 416.454ZM839.294 414.564C839.592 415.124 840.059 415.404 840.694 415.404C841.328 415.404 841.79 415.124 842.08 414.564C842.378 414.004 842.528 413.262 842.528 412.338C842.528 411.414 842.378 410.677 842.08 410.126C841.79 409.566 841.328 409.286 840.694 409.286C840.059 409.286 839.592 409.566 839.294 410.126C838.995 410.677 838.846 411.414 838.846 412.338C838.846 413.262 838.995 414.004 839.294 414.564ZM857.535 417H855.085L852.257 413.262L851.529 414.13V417H849.541V407.662H851.529V411.834L854.833 407.662H857.283L853.573 412.044L857.535 417ZM866.868 417.168C865.729 417.168 864.726 416.869 863.858 416.272C862.999 415.665 862.416 414.853 862.108 413.836H861.394V412.772H861.912C861.902 412.679 861.898 412.534 861.898 412.338C861.898 412.123 861.902 411.965 861.912 411.862H861.394V410.812H862.122C862.43 409.804 863.013 409.001 863.872 408.404C864.73 407.807 865.729 407.508 866.868 407.508C868.613 407.508 869.915 408.269 870.774 409.79L869.066 410.63C868.86 410.238 868.557 409.916 868.156 409.664C867.764 409.403 867.334 409.272 866.868 409.272C866.298 409.272 865.79 409.412 865.342 409.692C864.894 409.963 864.544 410.336 864.292 410.812H867.722V411.862H863.97C863.951 411.965 863.942 412.123 863.942 412.338C863.942 412.441 863.951 412.585 863.97 412.772H867.722V413.836H864.278C864.52 414.321 864.87 414.704 865.328 414.984C865.785 415.264 866.298 415.404 866.868 415.404C867.334 415.404 867.764 415.278 868.156 415.026C868.557 414.774 868.86 414.447 869.066 414.046L870.774 414.872C869.887 416.403 868.585 417.168 866.868 417.168Z" fill="black"/>
<rect x="838" y="181" width="24" height="185" fill="#FF0000" fill-opacity="0.8"/>
<path d="M923.168 396H916.756V395.076C917.727 394.311 918.478 393.704 919.01 393.256C919.551 392.799 920.069 392.318 920.564 391.814C921.068 391.301 921.423 390.848 921.628 390.456C921.833 390.055 921.936 389.658 921.936 389.266C921.936 388.706 921.745 388.281 921.362 387.992C920.979 387.703 920.522 387.558 919.99 387.558C918.917 387.558 918.072 387.95 917.456 388.734L916.742 387.992C917.097 387.525 917.559 387.166 918.128 386.914C918.707 386.653 919.327 386.522 919.99 386.522C920.839 386.522 921.572 386.76 922.188 387.236C922.813 387.712 923.126 388.389 923.126 389.266C923.126 390.134 922.753 391.002 922.006 391.87C921.259 392.729 920.121 393.76 918.59 394.964H923.168V396ZM928.514 396.168C927.898 396.168 927.352 396.028 926.876 395.748C926.41 395.459 926.036 395.076 925.756 394.6C925.486 394.124 925.28 393.611 925.14 393.06C925.01 392.509 924.944 391.935 924.944 391.338C924.944 390.741 925.01 390.167 925.14 389.616C925.28 389.065 925.486 388.557 925.756 388.09C926.036 387.614 926.41 387.236 926.876 386.956C927.352 386.667 927.898 386.522 928.514 386.522C929.121 386.522 929.662 386.667 930.138 386.956C930.614 387.236 930.988 387.614 931.258 388.09C931.538 388.557 931.744 389.065 931.874 389.616C932.014 390.167 932.084 390.741 932.084 391.338C932.084 391.935 932.014 392.509 931.874 393.06C931.744 393.611 931.538 394.124 931.258 394.6C930.988 395.076 930.614 395.459 930.138 395.748C929.662 396.028 929.121 396.168 928.514 396.168ZM927.114 394.558C927.488 394.941 927.954 395.132 928.514 395.132C929.074 395.132 929.541 394.941 929.914 394.558C930.288 394.166 930.544 393.699 930.684 393.158C930.824 392.617 930.894 392.01 930.894 391.338C930.894 390.666 930.824 390.059 930.684 389.518C930.544 388.977 930.288 388.515 929.914 388.132C929.541 387.749 929.074 387.558 928.514 387.558C927.954 387.558 927.488 387.749 927.114 388.132C926.741 388.515 926.484 388.977 926.344 389.518C926.204 390.059 926.134 390.666 926.134 391.338C926.134 392.01 926.204 392.617 926.344 393.158C926.484 393.699 926.741 394.166 927.114 394.558ZM936.457 396H935.295V388.202L933.797 389.784L933.097 389.07L935.435 386.662H936.457V396ZM941.313 396.154C940.24 396.154 939.376 395.781 938.723 395.034L939.311 394.166C939.852 394.801 940.52 395.118 941.313 395.118C941.91 395.118 942.414 394.931 942.825 394.558C943.236 394.185 943.525 393.732 943.693 393.2C943.861 392.668 943.945 392.089 943.945 391.464C943.945 391.296 943.94 391.17 943.931 391.086C943.698 391.459 943.338 391.795 942.853 392.094C942.368 392.393 941.85 392.542 941.299 392.542C940.412 392.542 939.68 392.285 939.101 391.772C938.522 391.249 938.233 390.512 938.233 389.56C938.233 388.72 938.532 388.001 939.129 387.404C939.726 386.807 940.515 386.508 941.495 386.508C942.13 386.508 942.685 386.639 943.161 386.9C943.637 387.161 944.01 387.521 944.281 387.978C944.561 388.435 944.766 388.944 944.897 389.504C945.037 390.064 945.107 390.675 945.107 391.338C945.107 392.215 944.976 393.009 944.715 393.718C944.454 394.418 944.029 395.001 943.441 395.468C942.862 395.925 942.153 396.154 941.313 396.154ZM941.565 391.534C942.022 391.534 942.461 391.408 942.881 391.156C943.31 390.904 943.646 390.568 943.889 390.148C943.833 389.457 943.614 388.851 943.231 388.328C942.848 387.805 942.288 387.544 941.551 387.544C940.888 387.544 940.366 387.749 939.983 388.16C939.6 388.571 939.409 389.023 939.409 389.518C939.409 390.171 939.61 390.671 940.011 391.016C940.412 391.361 940.93 391.534 941.565 391.534Z" fill="black"/>
<path d="M915.804 417H913.816V415.068H909.35V413.5L913.06 407.662H915.804V413.318H917.008V415.068H915.804V417ZM913.816 413.318V409.426L911.296 413.318H913.816ZM923.864 416.454C923.266 416.93 922.543 417.168 921.694 417.168C920.844 417.168 920.116 416.93 919.51 416.454C918.912 415.969 918.483 415.371 918.222 414.662C917.96 413.953 917.83 413.178 917.83 412.338C917.83 411.498 917.96 410.723 918.222 410.014C918.483 409.305 918.912 408.712 919.51 408.236C920.116 407.76 920.844 407.522 921.694 407.522C922.543 407.522 923.266 407.76 923.864 408.236C924.461 408.712 924.89 409.305 925.152 410.014C925.422 410.723 925.558 411.498 925.558 412.338C925.558 413.178 925.422 413.953 925.152 414.662C924.89 415.371 924.461 415.969 923.864 416.454ZM920.294 414.564C920.592 415.124 921.059 415.404 921.694 415.404C922.328 415.404 922.79 415.124 923.08 414.564C923.378 414.004 923.528 413.262 923.528 412.338C923.528 411.414 923.378 410.677 923.08 410.126C922.79 409.566 922.328 409.286 921.694 409.286C921.059 409.286 920.592 409.566 920.294 410.126C919.995 410.677 919.846 411.414 919.846 412.338C919.846 413.262 919.995 414.004 920.294 414.564ZM938.535 417H936.085L933.257 413.262L932.529 414.13V417H930.541V407.662H932.529V411.834L935.833 407.662H938.283L934.573 412.044L938.535 417ZM947.868 417.168C946.729 417.168 945.726 416.869 944.858 416.272C943.999 415.665 943.416 414.853 943.108 413.836H942.394V412.772H942.912C942.902 412.679 942.898 412.534 942.898 412.338C942.898 412.123 942.902 411.965 942.912 411.862H942.394V410.812H943.122C943.43 409.804 944.013 409.001 944.872 408.404C945.73 407.807 946.729 407.508 947.868 407.508C949.613 407.508 950.915 408.269 951.774 409.79L950.066 410.63C949.86 410.238 949.557 409.916 949.156 409.664C948.764 409.403 948.334 409.272 947.868 409.272C947.298 409.272 946.79 409.412 946.342 409.692C945.894 409.963 945.544 410.336 945.292 410.812H948.722V411.862H944.97C944.951 411.965 944.942 412.123 944.942 412.338C944.942 412.441 944.951 412.585 944.97 412.772H948.722V413.836H945.278C945.52 414.321 945.87 414.704 946.328 414.984C946.785 415.264 947.298 415.404 947.868 415.404C948.334 415.404 948.764 415.278 949.156 415.026C949.557 414.774 949.86 414.447 950.066 414.046L951.774 414.872C950.887 416.403 949.585 417.168 947.868 417.168Z" fill="black"/>
<rect x="919" y="102" width="24" height="264" fill="#FF0000" fill-opacity="0.9"/>
<path d="M1002.17 396H995.756V395.076C996.727 394.311 997.478 393.704 998.01 393.256C998.551 392.799 999.069 392.318 999.564 391.814C1000.07 391.301 1000.42 390.848 1000.63 390.456C1000.83 390.055 1000.94 389.658 1000.94 389.266C1000.94 388.706 1000.74 388.281 1000.36 387.992C999.979 387.703 999.522 387.558 998.99 387.558C997.917 387.558 997.072 387.95 996.456 388.734L995.742 387.992C996.097 387.525 996.559 387.166 997.128 386.914C997.707 386.653 998.327 386.522 998.99 386.522C999.839 386.522 1000.57 386.76 1001.19 387.236C1001.81 387.712 1002.13 388.389 1002.13 389.266C1002.13 390.134 1001.75 391.002 1001.01 391.87C1000.26 392.729 999.121 393.76 997.59 394.964H1002.17V396ZM1007.51 396.168C1006.9 396.168 1006.35 396.028 1005.88 395.748C1005.41 395.459 1005.04 395.076 1004.76 394.6C1004.49 394.124 1004.28 393.611 1004.14 393.06C1004.01 392.509 1003.94 391.935 1003.94 391.338C1003.94 390.741 1004.01 390.167 1004.14 389.616C1004.28 389.065 1004.49 388.557 1004.76 388.09C1005.04 387.614 1005.41 387.236 1005.88 386.956C1006.35 386.667 1006.9 386.522 1007.51 386.522C1008.12 386.522 1008.66 386.667 1009.14 386.956C1009.61 387.236 1009.99 387.614 1010.26 388.09C1010.54 388.557 1010.74 389.065 1010.87 389.616C1011.01 390.167 1011.08 390.741 1011.08 391.338C1011.08 391.935 1011.01 392.509 1010.87 393.06C1010.74 393.611 1010.54 394.124 1010.26 394.6C1009.99 395.076 1009.61 395.459 1009.14 395.748C1008.66 396.028 1008.12 396.168 1007.51 396.168ZM1006.11 394.558C1006.49 394.941 1006.95 395.132 1007.51 395.132C1008.07 395.132 1008.54 394.941 1008.91 394.558C1009.29 394.166 1009.54 393.699 1009.68 393.158C1009.82 392.617 1009.89 392.01 1009.89 391.338C1009.89 390.666 1009.82 390.059 1009.68 389.518C1009.54 388.977 1009.29 388.515 1008.91 388.132C1008.54 387.749 1008.07 387.558 1007.51 387.558C1006.95 387.558 1006.49 387.749 1006.11 388.132C1005.74 388.515 1005.48 388.977 1005.34 389.518C1005.2 390.059 1005.13 390.666 1005.13 391.338C1005.13 392.01 1005.2 392.617 1005.34 393.158C1005.48 393.699 1005.74 394.166 1006.11 394.558ZM1018.97 396H1012.56V395.076C1013.53 394.311 1014.28 393.704 1014.81 393.256C1015.35 392.799 1015.87 392.318 1016.37 391.814C1016.87 391.301 1017.23 390.848 1017.43 390.456C1017.64 390.055 1017.74 389.658 1017.74 389.266C1017.74 388.706 1017.55 388.281 1017.16 387.992C1016.78 387.703 1016.32 387.558 1015.79 387.558C1014.72 387.558 1013.87 387.95 1013.26 388.734L1012.54 387.992C1012.9 387.525 1013.36 387.166 1013.93 386.914C1014.51 386.653 1015.13 386.522 1015.79 386.522C1016.64 386.522 1017.37 386.76 1017.99 387.236C1018.62 387.712 1018.93 388.389 1018.93 389.266C1018.93 390.134 1018.56 391.002 1017.81 391.87C1017.06 392.729 1015.92 393.76 1014.39 394.964H1018.97V396ZM1024.32 396.168C1023.7 396.168 1023.16 396.028 1022.68 395.748C1022.21 395.459 1021.84 395.076 1021.56 394.6C1021.29 394.124 1021.08 393.611 1020.94 393.06C1020.81 392.509 1020.75 391.935 1020.75 391.338C1020.75 390.741 1020.81 390.167 1020.94 389.616C1021.08 389.065 1021.29 388.557 1021.56 388.09C1021.84 387.614 1022.21 387.236 1022.68 386.956C1023.16 386.667 1023.7 386.522 1024.32 386.522C1024.92 386.522 1025.47 386.667 1025.94 386.956C1026.42 387.236 1026.79 387.614 1027.06 388.09C1027.34 388.557 1027.55 389.065 1027.68 389.616C1027.82 390.167 1027.89 390.741 1027.89 391.338C1027.89 391.935 1027.82 392.509 1027.68 393.06C1027.55 393.611 1027.34 394.124 1027.06 394.6C1026.79 395.076 1026.42 395.459 1025.94 395.748C1025.47 396.028 1024.92 396.168 1024.32 396.168ZM1022.92 394.558C1023.29 394.941 1023.76 395.132 1024.32 395.132C1024.88 395.132 1025.34 394.941 1025.72 394.558C1026.09 394.166 1026.35 393.699 1026.49 393.158C1026.63 392.617 1026.7 392.01 1026.7 391.338C1026.7 390.666 1026.63 390.059 1026.49 389.518C1026.35 388.977 1026.09 388.515 1025.72 388.132C1025.34 387.749 1024.88 387.558 1024.32 387.558C1023.76 387.558 1023.29 387.749 1022.92 388.132C1022.54 388.515 1022.29 388.977 1022.15 389.518C1022.01 390.059 1021.94 390.666 1021.94 391.338C1021.94 392.01 1022.01 392.617 1022.15 393.158C1022.29 393.699 1022.54 394.166 1022.92 394.558Z" fill="black"/>
<path d="M996.804 417H994.816V415.068H990.35V413.5L994.06 407.662H996.804V413.318H998.008V415.068H996.804V417ZM994.816 413.318V409.426L992.296 413.318H994.816ZM1004.86 416.454C1004.27 416.93 1003.54 417.168 1002.69 417.168C1001.84 417.168 1001.12 416.93 1000.51 416.454C999.912 415.969 999.483 415.371 999.222 414.662C998.96 413.953 998.83 413.178 998.83 412.338C998.83 411.498 998.96 410.723 999.222 410.014C999.483 409.305 999.912 408.712 1000.51 408.236C1001.12 407.76 1001.84 407.522 1002.69 407.522C1003.54 407.522 1004.27 407.76 1004.86 408.236C1005.46 408.712 1005.89 409.305 1006.15 410.014C1006.42 410.723 1006.56 411.498 1006.56 412.338C1006.56 413.178 1006.42 413.953 1006.15 414.662C1005.89 415.371 1005.46 415.969 1004.86 416.454ZM1001.29 414.564C1001.59 415.124 1002.06 415.404 1002.69 415.404C1003.33 415.404 1003.79 415.124 1004.08 414.564C1004.38 414.004 1004.53 413.262 1004.53 412.338C1004.53 411.414 1004.38 410.677 1004.08 410.126C1003.79 409.566 1003.33 409.286 1002.69 409.286C1002.06 409.286 1001.59 409.566 1001.29 410.126C1000.99 410.677 1000.85 411.414 1000.85 412.338C1000.85 413.262 1000.99 414.004 1001.29 414.564ZM1019.54 417H1017.09L1014.26 413.262L1013.53 414.13V417H1011.54V407.662H1013.53V411.834L1016.83 407.662H1019.28L1015.57 412.044L1019.54 417ZM1028.87 417.168C1027.73 417.168 1026.73 416.869 1025.86 416.272C1025 415.665 1024.42 414.853 1024.11 413.836H1023.39V412.772H1023.91C1023.9 412.679 1023.9 412.534 1023.9 412.338C1023.9 412.123 1023.9 411.965 1023.91 411.862H1023.39V410.812H1024.12C1024.43 409.804 1025.01 409.001 1025.87 408.404C1026.73 407.807 1027.73 407.508 1028.87 407.508C1030.61 407.508 1031.91 408.269 1032.77 409.79L1031.07 410.63C1030.86 410.238 1030.56 409.916 1030.16 409.664C1029.76 409.403 1029.33 409.272 1028.87 409.272C1028.3 409.272 1027.79 409.412 1027.34 409.692C1026.89 409.963 1026.54 410.336 1026.29 410.812H1029.72V411.862H1025.97C1025.95 411.965 1025.94 412.123 1025.94 412.338C1025.94 412.441 1025.95 412.585 1025.97 412.772H1029.72V413.836H1026.28C1026.52 414.321 1026.87 414.704 1027.33 414.984C1027.78 415.264 1028.3 415.404 1028.87 415.404C1029.33 415.404 1029.76 415.278 1030.16 415.026C1030.56 414.774 1030.86 414.447 1031.07 414.046L1032.77 414.872C1031.89 416.403 1030.58 417.168 1028.87 417.168Z" fill="black"/>
<rect x="1000" y="30" width="24" height="336" fill="#FF0000"/>
<path d="M15.5 312H297L551.5 239.5L896.5 76L1014.5 1" stroke="url(#paint0_linear_35_19666)" stroke-width="2"/>
<defs>
<linearGradient id="paint0_linear_35_19666" x1="1020.5" y1="-5.99996" x2="-5.00001" y2="312" gradientUnits="userSpaceOnUse">
<stop stop-color="#FE1818"/>
<stop offset="1" stop-color="#FE1818" stop-opacity="0"/>
</linearGradient>
</defs>
</svg>
