<svg width="64" height="91" viewBox="0 0 64 91" fill="none" xmlns="http://www.w3.org/2000/svg">
<path d="M0 45.8227L32.6531 0L64 45.8227L32.6531 91L0 45.8227Z" fill="black"/>
<path fill-rule="evenodd" clip-rule="evenodd" d="M22.8716 35.7742C21.9497 36.0226 21.0717 36.7066 20.533 37.596C19.9822 38.5055 20.0001 38.1495 20.0001 48.152C20.0001 58.2101 19.9779 57.7904 20.5609 58.7486C20.9131 59.3272 21.3609 59.7719 21.9557 60.1335C22.8634 60.6854 22.5081 60.6674 32.4916 60.6674C42.4751 60.6674 42.1198 60.6854 43.0275 60.1335C44.2616 59.3833 45.0775 57.9435 44.9603 56.7226C44.8869 55.9567 44.1948 55.5751 43.5164 55.9266C43.2425 56.0685 43.1143 56.329 42.9905 56.9953C42.8878 57.5482 42.7359 57.8541 42.4102 58.1641C41.8523 58.695 42.3742 58.6686 32.4727 58.6665C23.8527 58.6647 23.4103 58.657 23.0796 58.5036C22.8888 58.4152 22.6273 58.2302 22.4987 58.0927C21.9687 57.5265 21.9953 58.0506 21.9953 48.152C21.9953 38.2535 21.9687 38.7776 22.4987 38.2114C22.6273 38.0739 22.8888 37.8889 23.0796 37.8004C23.4104 37.647 23.8509 37.6395 32.4916 37.6395C41.1324 37.6395 41.5729 37.647 41.9037 37.8004C42.0945 37.8889 42.3559 38.0739 42.4846 38.2114C43.0051 38.7675 42.9879 38.5218 42.9885 45.4332C42.9888 49.4798 43.0209 51.8743 43.0778 52.0793C43.3179 52.9453 44.4507 53.1033 44.8516 52.3267C45.0503 51.9417 45.0491 39.3164 44.8503 38.5515C44.51 37.2426 43.3814 36.111 42.0768 35.7706C41.3292 35.5755 23.5968 35.5789 22.8716 35.7742ZM39.0686 43.3936C38.91 43.5489 37.1799 45.6312 35.2239 48.0208C33.2679 50.4105 31.5171 52.5311 31.3333 52.7335C30.9685 53.1352 30.6013 53.2616 30.221 53.1167C30.0943 53.0685 29.1057 52.2424 28.0242 51.2809C26.9426 50.3194 25.9541 49.4933 25.8274 49.445C25.0993 49.1677 24.3481 49.9178 24.6075 50.6632C24.7228 50.9946 28.7221 54.5927 29.2799 54.8669C29.5632 55.0061 29.8734 55.0686 30.3949 55.0916C31.6289 55.146 32.1229 54.8578 33.3753 53.353C35.4378 50.8751 40.3528 44.8631 40.5326 44.5982C40.8296 44.1607 40.7983 43.768 40.4376 43.4066C40.189 43.1575 40.0809 43.1111 39.7498 43.1111C39.4236 43.1111 39.3081 43.159 39.0686 43.3936Z" fill="white"/>
</svg>
