<svg width="26" height="27" viewBox="0 0 26 27" fill="none" xmlns="http://www.w3.org/2000/svg">
<g clip-path="url(#clip0_35_26032)">
<path fill-rule="evenodd" clip-rule="evenodd" d="M7.56845 0.144231C6.7322 0.323773 5.54007 0.801843 4.46528 1.38866C3.55421 1.88615 1.78327 3.17926 1.69398 3.4123C1.61531 3.61773 1.76379 3.97102 2.28292 4.81397C2.94407 5.88745 3.77115 6.94877 4.52911 7.69601L5.20193 8.35932L4.58445 8.99945C2.92565 10.7193 2.11408 12.753 2.11408 15.1902C2.11408 17.5408 3.01609 19.7108 4.69013 21.3877C5.73464 22.4339 7.53798 23.5111 7.88162 23.2939C8.14948 23.1247 8.08295 22.7566 7.75464 22.5911C7.59554 22.511 7.19492 22.2919 6.86439 22.1046L6.26351 21.7637L6.26177 21.1321C6.25984 20.4095 6.04762 19.4963 5.77312 19.0299C5.66975 18.8542 5.58519 18.6293 5.58519 18.5302C5.58519 18.4311 5.80513 17.8449 6.07404 17.2278C6.65487 15.8944 6.72208 15.576 6.50976 15.1646C6.3419 14.8394 6.10133 14.6869 5.25669 14.3705C4.7583 14.1837 4.69408 14.1226 4.36664 13.5237C4.17255 13.1688 3.89515 12.6795 3.75013 12.4365C3.44526 11.9255 3.4683 11.8186 4.09667 10.8338C4.44889 10.2817 5.73609 8.87032 5.88737 8.87032C5.92961 8.87032 6.16699 8.99916 6.41488 9.15659C6.84434 9.42943 7.97505 9.84762 8.64652 9.98196C8.81882 10.0164 8.95988 10.0558 8.95988 10.0696C8.95988 10.0832 8.78083 10.283 8.56186 10.5135C7.98238 11.1236 7.70836 11.7745 7.70836 12.5404C7.70836 13.6161 8.2566 14.4814 9.11878 14.7664C9.46686 14.8815 10.7794 14.8514 11.8633 14.7037C12.2986 14.6443 12.3104 14.6497 12.4177 14.9582C12.478 15.1316 12.5278 15.8428 12.5282 16.5387C12.5292 18.1521 12.6732 19.4094 12.9102 19.8747C13.1141 20.2751 13.5826 20.5565 14.0452 20.5565C14.5118 20.5565 15.4663 20.013 15.9542 19.4695C16.7761 18.5537 16.8181 18.4138 16.8181 16.59V14.9897L17.0953 14.6248C17.4117 14.2084 18.6095 13.3863 18.7303 13.5027C18.7744 13.5452 18.8534 13.9219 18.9059 14.3398C19.1562 16.337 18.3972 18.7644 17.0312 20.3351C15.9916 21.5307 14.8501 22.2998 13.3952 22.7851C12.5996 23.0504 12.2954 23.0986 11.0811 23.1515C9.71543 23.211 9.68226 23.2176 9.6515 23.4351C9.5842 23.9106 9.75621 23.9644 11.1749 23.9116C12.2087 23.8731 12.6582 23.8094 13.3423 23.6049C18.9817 21.9189 21.4531 15.4285 18.3528 10.446C17.8824 9.69 16.7945 8.50989 16.1272 8.03191L15.7257 7.7443L16.2405 7.34146C16.5237 7.12001 16.8032 6.93873 16.8618 6.93873C17.0644 6.93873 18.8488 8.82532 19.3176 9.53518C20.5408 11.3878 21.1091 13.5069 20.9781 15.7275C20.826 18.3071 19.7876 20.5693 17.9194 22.3915C15.5021 24.7494 12.0488 25.7518 8.7521 25.0526C6.99437 24.6798 5.08892 23.6329 3.77771 22.3195C1.63999 20.1782 0.624883 17.4565 0.809334 14.3609C0.87355 13.2841 0.867379 13.2269 0.67801 13.1253C0.517761 13.0394 0.443518 13.0547 0.294067 13.2044C0.0661309 13.4328 -0.0673142 14.8733 0.0347942 16.0026C0.531066 21.4874 4.84344 25.6937 10.3098 26.0247C14.8978 26.3024 19.3522 23.4357 21.0101 19.1383C21.5768 17.6694 21.7323 16.8007 21.7332 15.0997C21.7339 13.5464 21.5941 12.6886 21.1439 11.4849C21.0162 11.1435 20.9451 10.8356 20.9861 10.8007C21.0271 10.7658 21.2775 10.6585 21.5427 10.5623C22.7991 10.1063 23.9787 9.36732 24.7393 8.55982C26.2355 6.97147 26.4123 4.86496 25.2819 2.0963C25.0942 1.63678 24.8436 1.13881 24.725 0.989788L24.5093 0.718784L23.8937 0.889924C22.4639 1.28764 20.8623 2.23412 19.9979 3.192C19.1013 4.18571 18.6819 5.59955 18.8719 6.98702C18.9228 7.35885 18.9482 7.68104 18.9282 7.70296C18.9083 7.72479 18.6206 7.48373 18.2889 7.16723C17.9572 6.85064 17.5212 6.46751 17.32 6.31578C17.1186 6.16406 16.775 5.73148 16.5563 5.35453C16.3376 4.97748 15.9251 4.35135 15.6396 3.963C15.1915 3.3532 15.0851 3.26096 14.8605 3.28694C14.429 3.33678 14.4736 3.66872 15.0111 4.4063C15.608 5.2254 15.9386 5.77532 15.8736 5.84061C15.7966 5.91759 12.5134 5.2366 12.4437 5.1292C12.388 5.04334 10.3191 2.21114 9.55074 1.16875L9.22552 0.72767L9.80394 0.788225C10.8271 0.895333 11.8112 1.35341 13.1713 2.35562C13.4413 2.55458 13.7809 2.39783 13.7809 2.07428C13.7809 1.61167 11.7159 0.379016 10.5132 0.123659C9.70106 -0.0488333 8.42581 -0.0398508 7.56845 0.144231ZM9.88956 2.92486C10.7016 4.03717 11.3523 4.96077 11.3359 4.97738C11.2849 5.02837 8.44114 4.43006 8.37384 4.35415C8.33904 4.31484 7.84209 3.63782 7.26955 2.84963C6.11512 1.2604 6.12669 1.34539 7.03149 1.08772C7.32316 1.00466 7.60519 0.92054 7.65822 0.900838C7.71125 0.881039 7.90283 0.873312 8.08391 0.883646C8.39534 0.901417 8.4936 1.01248 9.88956 2.92486ZM6.31374 2.84422C7.244 4.10353 7.32084 4.24019 7.06321 4.17751C6.96621 4.15394 6.0268 3.96561 4.97553 3.75902C3.92436 3.55244 3.04454 3.36363 3.02043 3.33948C2.99633 3.31534 3.13122 3.17752 3.3202 3.03313C3.74107 2.71152 5.31724 1.72737 5.41501 1.72505C5.45397 1.72418 5.85845 2.22775 6.31374 2.84422ZM23.6086 1.94071C23.5966 2.14739 22.0292 5.80053 21.9465 5.81463C21.8686 5.82796 20.9159 3.61271 20.9159 3.41858C20.9159 3.24541 21.5976 2.75797 22.5057 2.28183C23.4164 1.80415 23.6203 1.74118 23.6086 1.94071ZM25.0095 3.63869C25.0909 3.95305 25.1685 4.41297 25.182 4.6606L25.2066 5.11085L24.0524 5.59115C23.4174 5.8552 22.8675 6.06004 22.83 6.04633C22.7925 6.03252 22.9355 5.60834 23.1477 5.10371C23.3599 4.59908 23.6796 3.83851 23.8582 3.41356C24.0368 2.98861 24.2342 2.51054 24.2969 2.35118L24.4109 2.06144L24.6363 2.56423C24.7603 2.84074 24.9282 3.32432 25.0095 3.63869ZM5.1272 4.58276C6.17461 4.78615 7.03149 4.98289 7.03149 5.01997C7.03149 5.09241 4.97042 6.63189 4.77054 6.70877C4.60547 6.77222 3.62257 5.55049 2.98186 4.48531L2.75508 4.10845L2.989 4.1607C3.11762 4.18948 4.07989 4.37936 5.1272 4.58276ZM20.8926 5.44782C21.1778 6.13499 21.4346 6.77135 21.4629 6.86185C21.5024 6.98779 20.6309 9.31247 20.4574 9.54358C20.3275 9.71675 19.7863 8.03549 19.6412 7.00768C19.5606 6.43748 19.5631 6.09751 19.651 5.61973C19.7832 4.90099 20.1191 4.11328 20.2716 4.16427C20.3279 4.18301 20.6073 4.76066 20.8926 5.44782ZM9.81541 5.48829C10.5777 5.64398 11.2184 5.78846 11.2392 5.80942C11.2783 5.84853 10.9314 6.11326 8.63649 7.79558L7.30069 8.7749L6.84424 8.52602C6.3255 8.24323 5.29323 7.45495 5.30133 7.34774C5.3102 7.23069 8.12846 5.2084 8.28494 5.20676C8.36449 5.20589 9.05322 5.3326 9.81541 5.48829ZM14.263 6.36552C15.0849 6.53058 15.7706 6.67864 15.7867 6.69457C15.8531 6.76063 14.4359 7.68007 13.5398 8.15225C12.2513 8.83131 11.1632 9.16827 10.0554 9.23153C9.10683 9.28572 8.25496 9.20121 8.30326 9.05788C8.31975 9.00911 9.24432 8.29828 10.358 7.47822C11.7539 6.45022 12.4427 5.99929 12.5756 6.02624C12.6817 6.04778 13.441 6.20037 14.263 6.36552ZM25.0582 6.62561C24.789 7.47407 24.0376 8.34744 23.0108 9.00534C22.4834 9.34328 21.3104 9.87707 21.2431 9.80966C21.2223 9.78899 21.4515 9.18083 21.7524 8.45822L22.2994 7.14444L23.7048 6.56699C25.2254 5.94212 25.2744 5.94424 25.0582 6.62561ZM15.5614 8.57846C16.6246 9.31102 17.8871 10.8921 18.3072 12.0169C18.4162 12.3088 18.5049 12.5786 18.5043 12.6165C18.5037 12.6542 18.2506 12.8241 17.942 12.9939C17.1073 13.453 16.447 14.0914 16.1914 14.6865C15.9894 15.1565 15.9778 15.2792 16.0433 16.2587C16.1391 17.6948 16.1327 17.7857 15.9058 18.2314C15.6131 18.806 15.2044 19.2301 14.6542 19.53C14.0226 19.8745 13.7826 19.838 13.5509 19.3628C13.3977 19.0486 13.3588 18.6617 13.3034 16.9C13.2321 14.6368 13.1691 14.3547 12.6599 14.0204C12.4365 13.8738 12.3142 13.8688 11.4807 13.9722C9.57012 14.2091 9.02101 14.0975 8.66599 13.4005C8.24773 12.5792 8.46342 11.6938 9.26524 10.9408C10.0541 10.2 10.3261 10.0568 11.4587 9.78552C12.2905 9.58627 12.8211 9.38268 13.7178 8.91881C14.3624 8.58532 14.947 8.30755 15.017 8.30166C15.087 8.29567 15.332 8.42026 15.5614 8.57846ZM3.5034 13.5614C4.01866 14.5491 4.27099 14.8218 4.88008 15.0486C5.58047 15.3094 5.87445 15.4973 5.87445 15.6841C5.87445 15.764 5.65143 16.3171 5.37886 16.9133C4.78742 18.2066 4.7044 18.6849 4.98392 19.188C5.21783 19.6089 5.48877 20.4929 5.48877 20.835C5.48877 21.0729 5.47952 21.0696 5.09374 20.6968C3.75669 19.4048 2.88544 17.2146 2.88544 15.1457C2.88544 14.1709 3.03605 13.023 3.1639 13.0235C3.1964 13.0236 3.34912 13.2657 3.5034 13.5614Z" fill="white"/>
</g>
<defs>
<clipPath id="clip0_35_26032">
<rect width="26" height="26.0432" fill="white"/>
</clipPath>
</defs>
</svg>
