<svg width="26" height="27" viewBox="0 0 26 27" fill="none" xmlns="http://www.w3.org/2000/svg">
<g clip-path="url(#clip0_35_26026)">
<path fill-rule="evenodd" clip-rule="evenodd" d="M7.1868 0.6226C6.65497 0.81253 6.20875 1.21545 5.93381 1.75413C5.71403 2.18482 5.6855 2.3402 5.6855 3.10688C5.6855 3.58324 5.72595 4.11423 5.77525 4.28671C5.86121 4.58689 5.84622 4.61972 5.42311 5.05484C4.68 5.81917 4.33111 6.74603 4.33111 7.95579C4.33111 8.93049 4.24515 8.90101 7.08504 8.90101H9.4778V9.80028C9.4778 10.6271 9.49396 10.7109 9.67852 10.8404C9.97964 11.0516 16.0188 11.0516 16.3199 10.8404C16.5045 10.7109 16.5206 10.6271 16.5206 9.80028V8.90101H18.9134C21.7533 8.90101 21.6673 8.93049 21.6673 7.95579C21.6673 6.74603 21.3184 5.81917 20.5753 5.05484C20.1522 4.61972 20.1372 4.58689 20.2232 4.28671C20.2725 4.11423 20.3126 3.58614 20.312 3.1133C20.3113 2.40206 20.2745 2.17469 20.0992 1.79754C19.7578 1.06324 19.1025 0.600804 18.2835 0.516059C17.3455 0.419104 16.4384 0.956696 16.0385 1.84647C15.7912 2.39664 15.7282 3.6395 15.9196 4.19048L16.0584 4.58996L15.6801 4.92713L15.3017 5.26431L15.2494 4.70853C15.1866 4.03935 14.9327 3.51505 14.4784 3.11538C14.0146 2.70758 13.6416 2.57001 12.9992 2.57001C12.3569 2.57001 11.9838 2.70758 11.52 3.11538C11.0657 3.51505 10.8119 4.03935 10.749 4.70853L10.6967 5.26431L10.3183 4.92713L9.94001 4.58996L10.0788 4.19048C10.2959 3.56543 10.211 2.37122 9.90515 1.7487C9.40159 0.723986 8.24503 0.24482 7.1868 0.6226ZM8.48042 1.67409C8.99897 1.96604 9.11672 2.24333 9.11626 3.17182C9.11599 3.80573 9.07933 4.03202 8.93965 4.26138C8.52882 4.93645 7.63537 5.0174 7.05118 4.43259C6.72838 4.10935 6.72342 4.09325 6.69407 3.26959C6.66716 2.51539 6.68486 2.40369 6.87646 2.1178C7.10608 1.7752 7.58923 1.48506 7.93054 1.48488C8.04792 1.48479 8.29532 1.5699 8.48042 1.67409ZM18.7406 1.70755C19.2087 2.01488 19.3308 2.35476 19.3014 3.26959C19.2749 4.09488 19.2707 4.10872 18.9472 4.43259C18.3631 5.0174 17.4696 4.93645 17.0588 4.26138C16.8227 3.87357 16.8048 2.50245 17.0308 2.11916C17.3747 1.53598 18.1827 1.34144 18.7406 1.70755ZM13.8166 3.88605C14.4686 4.51173 14.4036 6.15345 13.707 6.65025C12.7939 7.30153 11.7351 6.56912 11.7351 5.28619C11.7351 4.65156 11.8555 4.22937 12.1167 3.94755C12.405 3.63643 12.6185 3.56181 13.1163 3.59808C13.4425 3.62177 13.6154 3.69295 13.8166 3.88605ZM7.00585 5.65972C7.59131 5.91983 8.31275 5.91965 8.81956 5.65936C9.02868 5.552 9.25811 5.46418 9.32944 5.46418C9.60475 5.46418 10.3807 6.58323 10.3807 6.98028C10.3807 7.07199 10.2553 7.31781 10.102 7.52655L9.82335 7.90614H7.60666H5.38988L5.43548 7.3368C5.46058 7.0236 5.55196 6.62683 5.63846 6.45498C5.79485 6.14413 6.38961 5.46418 6.505 5.46418C6.53823 5.46418 6.7636 5.55218 7.00585 5.65972ZM17.1789 5.65936C17.6935 5.92363 18.4027 5.91839 19.0309 5.6457L19.5097 5.43786L19.829 5.74492C20.2792 6.17805 20.5102 6.67964 20.563 7.33825L20.6085 7.90614H18.3918H16.1751L15.8964 7.52655C15.7431 7.31781 15.6177 7.07199 15.6177 6.98028C15.6177 6.58323 16.3937 5.46418 16.669 5.46418C16.7403 5.46418 16.9697 5.552 17.1789 5.65936ZM11.9783 7.65742C12.4721 7.94973 13.529 7.94819 14.0252 7.65444L14.3739 7.44796L14.6595 7.66619C15.0976 8.00092 15.4514 8.72935 15.5058 9.40876L15.5521 9.98632H12.9992H10.4463L10.4918 9.41843C10.5444 8.76155 10.7877 8.22811 11.2421 7.77292C11.4173 7.59746 11.5772 7.45393 11.5975 7.45393C11.6178 7.45393 11.7892 7.54545 11.9783 7.65742ZM0.6199 9.19676C0.250874 9.44367 -0.00366215 9.91641 3.9856e-05 10.3481C0.00157483 10.5222 0.156788 11.0309 0.344958 11.4786C0.617281 12.1263 0.736106 12.3099 0.926263 12.3769C1.11344 12.4429 1.20527 12.4251 1.34874 12.2951C1.60228 12.0652 1.57998 11.7727 1.24725 10.9629C1.00491 10.3731 0.979265 10.2442 1.08057 10.122C1.29547 9.8626 1.56003 10.0047 1.92309 10.5742C2.82855 11.9948 3.96994 14.0987 3.96994 14.3472C3.96994 14.7565 4.36768 15.8495 4.99747 17.1708C5.59223 18.4187 5.83521 18.7593 6.13056 18.7593C6.36586 18.7593 6.58843 18.5207 6.58843 18.2684C6.58843 18.1548 6.39087 17.6794 6.14934 17.2122C5.55051 16.0536 4.92316 14.4719 4.9916 14.2933C5.02248 14.2126 5.14609 14.1467 5.26627 14.1467C5.44361 14.1467 5.69841 14.4321 6.61841 15.6616C7.79474 17.2336 8.29776 17.7731 9.52872 18.7827C10.6578 19.7088 11.3998 20.548 11.7915 21.342C12.1047 21.9766 12.1393 22.1199 12.1711 22.9161C12.1992 23.6147 12.1665 23.9371 12.0101 24.5082C11.7086 25.6092 11.8758 25.5425 9.41865 25.5425C7.57443 25.5425 7.31077 25.5249 7.31077 25.4022C7.31077 25.3251 7.45298 24.6963 7.6268 24.005C7.80061 23.3136 7.94282 22.6538 7.94282 22.5389C7.94282 22.3887 7.5207 21.9086 6.44784 20.8385C5.62564 20.0182 4.77932 19.0826 4.56705 18.7593C4.35486 18.4359 3.97039 17.683 3.7127 17.0861C3.455 16.4892 3.21013 15.9397 3.1685 15.8651C3.00417 15.5705 2.37763 15.657 2.29528 15.9856C2.21564 16.3034 3.15297 18.5437 3.71486 19.3786C3.87062 19.6101 4.64623 20.4566 5.43855 21.2599L6.87917 22.7205L6.55087 24.1005C6.18157 25.653 6.19674 25.8911 6.69163 26.3083L6.96342 26.5374H9.30705C11.0821 26.5374 11.7221 26.5074 11.9454 26.414C12.3232 26.2559 12.6943 25.813 12.8305 25.3575C12.8893 25.1608 12.9653 24.9998 12.9992 24.9998C13.0332 24.9998 13.1091 25.1608 13.1679 25.3575C13.3041 25.813 13.6752 26.2559 14.053 26.414C14.2763 26.5074 14.9163 26.5374 16.6914 26.5374H19.035L19.3068 26.3083C19.8017 25.8911 19.8169 25.653 19.4476 24.1005L19.1193 22.7205L20.5599 21.2599C22.1279 19.6701 22.4059 19.3114 22.8836 18.2615C23.8523 16.1321 26.0014 10.6558 26.0012 10.3169C26.0007 9.3146 24.8109 8.64388 23.9577 9.16501C23.575 9.39872 23.3603 9.70514 22.4317 11.343C21.3234 13.2979 21.3638 13.2462 21.0189 13.1471C20.7142 13.0596 20.4101 13.1055 20.0318 13.2961C19.8061 13.4099 17.9531 15.7806 17.7588 16.2043C17.6027 16.5445 17.805 16.86 18.1792 16.86C18.4711 16.86 18.5407 16.7885 19.5038 15.4986C20.4036 14.2936 20.5473 14.1405 20.7553 14.1646C20.9563 14.1879 20.9871 14.2316 20.9697 14.4673C20.9449 14.8025 20.2534 16.4797 19.766 17.387C19.5702 17.7515 19.41 18.1453 19.41 18.2623C19.41 18.52 19.6305 18.7593 19.8679 18.7593C20.1632 18.7593 20.4062 18.4187 21.001 17.1708C21.6307 15.8495 22.0285 14.7565 22.0285 14.3472C22.0285 14.0987 23.1699 11.9948 24.0753 10.5742C24.437 10.0069 24.703 9.8626 24.9151 10.1187C25.0132 10.2371 24.97 10.4169 24.6481 11.231C22.2923 17.1869 21.974 17.9319 21.4312 18.7593C21.2191 19.0826 20.3728 20.0182 19.5506 20.8385C18.4777 21.9086 18.0556 22.3887 18.0556 22.5389C18.0556 22.6538 18.1978 23.3136 18.3716 24.005C18.5454 24.6963 18.6877 25.3251 18.6877 25.4022C18.6877 25.5249 18.424 25.5425 16.5798 25.5425C14.1099 25.5425 14.2728 25.6105 13.9817 24.4574C13.8353 23.8776 13.7999 23.5123 13.828 22.8702C13.8602 22.1322 13.9024 21.9591 14.1938 21.3699C14.3749 21.0035 14.7085 20.4868 14.935 20.2216C15.3681 19.7143 15.4455 19.4137 15.205 19.1727C14.9449 18.9123 14.6659 19.0031 14.2284 19.4905C13.7559 20.017 13.2235 20.8587 13.1321 21.2238C13.0979 21.3606 13.0381 21.4726 12.9992 21.4726C12.9603 21.4726 12.9005 21.3606 12.8663 21.2238C12.6809 20.483 11.5761 19.146 10.2511 18.0591C9.02579 17.054 8.60566 16.6031 7.38138 14.9791C6.73281 14.1187 6.09597 13.3613 5.9664 13.296C5.58835 13.1055 5.28415 13.0596 4.9795 13.1471C4.63458 13.2462 4.67504 13.2979 3.56669 11.343C2.63812 9.70514 2.42341 9.39872 2.04075 9.16501C1.64292 8.92199 1.00933 8.93619 0.6199 9.19676ZM1.58359 13.6557C1.41574 13.8239 1.39669 14.2463 1.55009 14.3999C1.72969 14.5798 2.13953 14.5289 2.29438 14.3074C2.4802 14.0418 2.47171 13.9122 2.25438 13.6945C2.0375 13.4772 1.77691 13.4621 1.58359 13.6557ZM16.2498 17.674C16.0329 17.8912 16.0178 18.1522 16.211 18.3459C16.379 18.514 16.8006 18.5331 16.954 18.3794C17.1336 18.1995 17.0828 17.789 16.8617 17.6339C16.5965 17.4478 16.4671 17.4563 16.2498 17.674Z" fill="white"/>
</g>
<defs>
<clipPath id="clip0_35_26026">
<rect width="26" height="26.0432" fill="white" transform="translate(0 0.494141)"/>
</clipPath>
</defs>
</svg>
