<svg width="26" height="27" viewBox="0 0 26 27" fill="none" xmlns="http://www.w3.org/2000/svg">
<g clip-path="url(#clip0_35_26050)">
<path fill-rule="evenodd" clip-rule="evenodd" d="M11.1968 0.544244C7.13013 0.859732 4.01376 3.23911 3.21759 6.63637C3.05468 7.33134 2.99002 7.98542 2.99002 8.93865V10.2703L2.44305 10.3351C1.38592 10.4605 0.403876 11.2394 0.124401 12.174C-0.0374058 12.715 -0.042729 14.8797 0.116417 15.4537C0.183624 15.6961 0.457221 16.1219 0.741243 16.426C1.32215 17.0481 1.97337 17.2997 3.00222 17.2997C3.89199 17.2997 3.98814 17.1764 3.98814 16.0366C3.98814 15.073 3.89632 14.8558 3.48908 14.8558C3.12 14.8558 2.99002 15.0787 2.99002 15.7112C2.99002 16.2814 2.98026 16.3 2.68082 16.3C2.18265 16.3 1.42219 15.8456 1.19606 15.413C1.03558 15.1059 0.993769 14.7706 0.993769 13.7908C0.993769 12.693 1.02149 12.5151 1.2433 12.1886C1.60506 11.6562 2.02339 11.3856 2.5087 11.3701L2.93457 11.3566L2.99179 12.0004C3.06421 12.8164 3.40491 13.0965 3.79595 12.6619C3.94212 12.4993 3.97783 12.031 4.01354 9.80136C4.06378 6.67181 4.17069 6.19269 5.13532 4.772C6.08576 3.3723 7.57164 2.34774 9.36693 1.85429C10.7131 1.48426 13.2067 1.42739 14.6903 1.73299C16.2601 2.05625 17.6363 2.75543 18.6208 3.72989C19.4439 4.5446 19.8539 5.17869 20.2753 6.28878C20.5383 6.98141 20.5581 7.1847 20.6168 9.78269C20.6746 12.3455 20.6943 12.5524 20.8943 12.6987C21.1596 12.8928 21.1959 12.8934 21.4513 12.7063C21.5946 12.6013 21.6717 12.3678 21.7081 11.9287C21.7539 11.3752 21.7885 11.301 22.0001 11.301C22.4369 11.301 23.2029 11.781 23.4157 12.188C23.7182 12.7668 23.7083 14.9837 23.401 15.4886C23.1232 15.9449 22.7376 16.1942 22.1972 16.2667L21.7662 16.3247L21.7022 15.7042C21.6225 14.9297 21.576 14.8558 21.1688 14.8558C20.7009 14.8558 20.6236 15.1536 20.6236 16.9559C20.6236 19.5592 20.06 21.0759 18.5096 22.6439C17.5807 23.5835 16.6037 24.1332 15.2931 24.4535C14.325 24.6903 14.2773 24.684 14.0551 24.2929C13.7971 23.8387 13.2495 23.6317 12.3059 23.6317C11.3957 23.6317 10.8912 23.8103 10.5392 24.257C10.2009 24.6863 10.2553 25.6074 10.6433 26.0211C11.2964 26.7175 13.2206 26.7072 13.9232 26.0034C14.1275 25.7988 14.3882 25.6313 14.5025 25.6313C14.9124 25.6313 16.4778 25.1757 17.1492 24.861C19.7681 23.6335 21.4407 21.0087 21.6484 17.8004C21.6769 17.3609 21.6821 17.3562 22.2059 17.2816C23.3334 17.1213 24.1634 16.4594 24.5269 15.4303C24.6132 15.1859 24.6711 14.5072 24.6713 13.7371C24.6715 12.5249 24.6523 12.4141 24.3356 11.793C24.0649 11.262 23.8834 11.0646 23.3996 10.7744C23.0643 10.5733 22.5639 10.3831 22.266 10.3435L21.7326 10.2726L21.7307 9.59262C21.7296 9.21871 21.6797 8.44665 21.6198 7.87722C21.2308 4.17779 18.7203 1.51959 14.9012 0.763642C13.5496 0.496144 12.5669 0.437934 11.1968 0.544244ZM8.30737 4.92074C8.18859 5.06416 8.19702 5.22435 8.3555 5.83721C8.46119 6.24568 8.57464 6.68736 8.60769 6.81889C8.6515 6.99307 8.60636 7.07739 8.44134 7.12982C8.04941 7.25446 6.94847 8.17027 6.39518 8.83201C6.10262 9.18182 5.67841 9.84013 5.45251 10.2949L5.04172 11.1217L5.00634 13.4625C4.97607 15.4676 5.00313 15.9606 5.19477 16.9002C5.94491 20.5785 8.69697 22.9613 12.195 22.9613C14.9382 22.9613 17.2173 21.5374 18.4473 19.0549C19.1192 17.699 19.4002 16.3935 19.4022 14.6194C19.4037 13.2058 19.3822 13.1543 18.7382 13.028C17.3028 12.7464 15.1973 11.7707 13.6367 10.6639C12.2966 9.71349 10.384 7.80023 9.8467 6.87255C9.62256 6.48563 9.37902 5.91164 9.30538 5.59682C9.23174 5.28211 9.12206 4.96218 9.06161 4.88575C8.90846 4.69235 8.48015 4.71223 8.30737 4.92074ZM10.0188 8.77014C11.9239 10.9674 15.2407 13.142 17.7067 13.8106L18.4347 14.008L18.3734 15.2373C18.3015 16.6801 18.1027 17.4931 17.545 18.6263C16.3328 21.0891 13.7291 22.3663 10.9624 21.855C10.6339 21.7943 9.95982 21.5452 9.46441 21.3013C8.34507 20.7503 7.44643 19.8342 6.84434 18.6303C6.12302 17.1881 6.03985 16.6889 6.03985 13.8005C6.03985 10.9302 6.03186 10.9644 7.00548 9.67272C7.57319 8.91955 8.97201 7.78568 9.21034 7.88555C9.24627 7.90055 9.61003 8.29857 10.0188 8.77014ZM13.1886 24.7928C13.2622 24.8815 13.305 25.044 13.2839 25.1538C13.2505 25.3273 13.1221 25.3536 12.3043 25.3536C11.3967 25.3536 11.3618 25.3441 11.3258 25.0884C11.2742 24.723 11.4662 24.6352 12.3201 24.6332C12.8289 24.632 13.0961 24.6811 13.1886 24.7928Z" fill="white"/>
</g>
<defs>
<clipPath id="clip0_35_26050">
<rect width="26" height="26.0432" fill="white" transform="translate(0 0.494141)"/>
</clipPath>
</defs>
</svg>
