<svg width="26" height="27" viewBox="0 0 26 27" fill="none" xmlns="http://www.w3.org/2000/svg">
<g clip-path="url(#clip0_35_26038)">
<path fill-rule="evenodd" clip-rule="evenodd" d="M12.2193 0.935135C12.0081 1.00936 11.6881 1.24586 11.448 1.50505C10.8555 2.14503 10.6904 2.82488 10.9301 3.63771C11.0692 4.10908 11.8455 4.91206 12.2478 5.00057L12.5352 5.06385V6.40927V7.75468L8.45117 7.78071C4.48851 7.80603 4.35475 7.81263 3.95167 8.0013C2.67844 8.59744 2.15586 9.59623 2.15586 11.4339V12.4516L1.72715 12.5053C1.10799 12.5829 0.548682 12.8923 0.27223 13.3103C0.0405451 13.6606 0.0341368 13.7096 0.0056161 15.3487C-0.0125252 16.3948 0.0139196 17.1545 0.0757445 17.3631C0.286039 18.0725 1.00619 18.6043 1.76207 18.6083L2.13537 18.6103L2.17265 19.8533C2.20396 20.8955 2.24277 21.1695 2.41291 21.5484C2.80073 22.4126 3.68632 23.1057 4.67371 23.3178L5.11957 23.4136L5.14945 24.9761C5.18085 26.6134 5.23474 26.8372 5.59774 26.8372C5.69161 26.8372 6.92251 26.0657 8.3332 25.1229L10.898 23.4086L16.1617 23.3826L21.4254 23.3566L21.9768 23.1012C22.6425 22.7931 23.2842 22.1637 23.5603 21.5484C23.7302 21.1696 23.769 20.8953 23.8003 19.8533L23.8376 18.6103L24.2109 18.6083C24.9668 18.6043 25.6869 18.0725 25.8972 17.3631C25.9591 17.1545 25.9855 16.3948 25.9674 15.3487C25.9389 13.7096 25.9324 13.6606 25.7008 13.3103C25.4243 12.8923 24.865 12.5829 24.2458 12.5053L23.8171 12.4516V11.4339C23.8171 9.59623 23.2946 8.59744 22.0213 8.0013C21.6182 7.81263 21.4845 7.80603 17.5218 7.78071L13.4378 7.75468V6.40927V5.06385L13.7252 5.00057C14.1275 4.91206 14.9038 4.10908 15.0429 3.63771C15.2913 2.79522 15.116 2.12089 14.4776 1.46455C13.8461 0.815258 13.0752 0.634538 12.2193 0.935135ZM13.614 1.83792C14.2047 2.14385 14.437 3.06888 14.0732 3.66637C13.6073 4.43192 12.3657 4.43192 11.8998 3.66637C11.5417 3.07819 11.7646 2.15552 12.3404 1.84226C12.6537 1.67176 13.2891 1.66959 13.614 1.83792ZM21.6961 8.83439C22.1571 9.04458 22.6947 9.64044 22.8238 10.084C22.8936 10.3243 22.9158 12.0321 22.8967 15.7244L22.8694 21.0204L22.5963 21.4628C22.4271 21.7369 22.155 22.0094 21.8815 22.1789L21.4398 22.4525L16.0624 22.4977C11.6588 22.5347 10.6441 22.566 10.4593 22.6706C10.3352 22.7409 9.3307 23.4019 8.22697 24.1397C7.12333 24.8774 6.17899 25.4811 6.12854 25.4811C6.07095 25.4811 6.03684 25.0286 6.03684 24.2657C6.03684 23.1347 6.02276 23.034 5.83376 22.8166C5.67807 22.6374 5.49377 22.5615 5.04403 22.4915C4.28038 22.3724 3.72784 22.0316 3.37665 21.4628L3.10354 21.0204L3.07628 15.7244C3.05724 12.0321 3.07935 10.3243 3.14921 10.084C3.27827 9.64044 3.81592 9.04458 4.27686 8.83439C4.61775 8.6788 5.10251 8.66967 12.9865 8.66967C20.8705 8.66967 21.3552 8.6788 21.6961 8.83439ZM6.9958 12.2339C6.20462 12.5164 5.64359 13.3785 5.65217 14.2988C5.67266 16.5112 8.70208 17.2215 9.68559 15.2446C10.1157 14.3798 9.96186 13.4059 9.28855 12.7314C8.68466 12.1265 7.82127 11.9392 6.9958 12.2339ZM17.409 12.2199C16.971 12.3589 16.3011 13.0554 16.1655 13.5129C15.6631 15.2073 17.0207 16.7471 18.668 16.3512C20.3748 15.9411 20.906 13.8089 19.596 12.627C19.0408 12.126 18.1984 11.9692 17.409 12.2199ZM8.46813 13.1781C9.04676 13.5846 9.24397 14.4049 8.89233 14.9425C8.36587 15.7473 7.17523 15.7149 6.66817 14.8819C5.98611 13.7615 7.39734 12.4257 8.46813 13.1781ZM18.888 13.1741C19.6861 13.6257 19.6542 14.8537 18.8313 15.3561C17.849 15.9561 16.5936 14.9691 16.9527 13.8792C17.2205 13.0667 18.1193 12.7392 18.888 13.1741ZM2.13492 15.5591L2.15911 17.7062H1.80341C1.55241 17.7062 1.36594 17.6373 1.17 17.4722L0.892284 17.2381V15.6129C0.892284 14.6757 0.931455 13.9144 0.984796 13.8145C1.11675 13.5676 1.52362 13.366 1.83996 13.3907L2.11073 13.412L2.13492 15.5591ZM24.6312 13.5033C24.7762 13.5784 24.9367 13.7181 24.9877 13.8138C25.0416 13.9145 25.0807 14.6711 25.0807 15.6129V17.2381L24.803 17.4722C24.6075 17.637 24.4205 17.7062 24.1712 17.7062H23.8171V15.5968C23.8171 14.4365 23.8442 13.4602 23.8773 13.4271C23.981 13.3231 24.3568 13.3612 24.6312 13.5033ZM10.5496 17.435C10.4503 17.5345 10.3691 17.6755 10.3691 17.7484C10.3691 17.9622 10.9879 18.5207 11.4396 18.7147C12.7208 19.2648 14.7393 18.9601 15.379 18.1201C15.651 17.7629 15.6571 17.6691 15.4234 17.435C15.1833 17.1945 15.1414 17.2023 14.7032 17.5691C13.778 18.3433 12.195 18.3433 11.2698 17.5691C10.8316 17.2023 10.7897 17.1945 10.5496 17.435Z" fill="white"/>
</g>
<defs>
<clipPath id="clip0_35_26038">
<rect width="26" height="26.0432" fill="white" transform="translate(0 0.793945)"/>
</clipPath>
</defs>
</svg>
