<svg width="30" height="26" viewBox="0 0 30 26" fill="none" xmlns="http://www.w3.org/2000/svg">
<path fill-rule="evenodd" clip-rule="evenodd" d="M10.6387 1.15196C8.14441 1.69505 6.08856 3.69612 5.48198 6.17143L5.32121 6.82764L5.0839 6.64098C4.95343 6.53828 4.78712 6.45433 4.71434 6.45433C4.52552 6.45433 4.12144 6.88354 4.1222 7.08324C4.12323 7.32205 5.15809 8.77056 5.41013 8.88584C5.52559 8.93864 5.69443 8.95421 5.78532 8.92045C6.0865 8.80864 7.38419 7.86175 7.44168 7.71187C7.61014 7.27308 7.34573 6.92331 6.8457 6.92331H6.53626L6.59816 6.53621C6.63221 6.32329 6.83172 5.78949 7.04154 5.34996C7.33626 4.73249 7.57544 4.39885 8.09376 3.88231C9.23753 2.7423 10.3369 2.25689 11.9814 2.16582C12.8179 2.11939 12.9653 2.08618 13.0835 1.91754C13.2706 1.65021 13.2545 1.42388 13.0323 1.20167C12.8719 1.04128 12.7257 1.01521 12.024 1.02149C11.5726 1.02562 10.9491 1.08433 10.6387 1.15196ZM19.2698 1.18864C18.8421 1.45277 18.6825 1.67545 18.5536 2.18777C18.4888 2.44505 18.4067 2.6908 18.371 2.73395C18.3355 2.777 17.9914 2.94921 17.6065 3.11655L16.9066 3.42083L16.5257 3.14487C16.0169 2.77634 15.4427 2.71116 14.9443 2.96535C14.3804 3.25312 13.2445 4.49274 13.1672 4.90479C13.0807 5.36571 13.177 5.7727 13.4741 6.20135C13.7039 6.53293 13.7145 6.58724 13.6028 6.86028C13.5358 7.02386 13.3971 7.37448 13.2944 7.63936C13.1117 8.11013 13.0974 8.12232 12.6518 8.18142C12.3644 8.21959 12.0894 8.33159 11.9074 8.48485C11.4176 8.8969 11.3439 9.14415 11.3439 10.3752C11.3439 11.3818 11.3649 11.523 11.5579 11.8103C11.795 12.1636 12.2475 12.4246 12.7577 12.5024C13.0764 12.5509 13.1083 12.5908 13.4066 13.3135C13.685 13.9877 13.7059 14.0962 13.592 14.2737C13.1082 15.0275 13.0287 15.4214 13.2533 15.9543C13.3853 16.2677 13.938 16.8802 14.5609 17.4034C15.231 17.9663 15.972 17.9867 16.5984 17.4597C16.8789 17.2236 16.896 17.2209 17.1875 17.3695C17.3526 17.4537 17.6985 17.6019 17.9562 17.6988C18.3936 17.8635 18.4291 17.9014 18.4921 18.2706C18.5925 18.8587 18.8493 19.2325 19.3153 19.4687C19.666 19.6465 19.8801 19.6795 20.6732 19.6777C22.1182 19.6745 22.6784 19.3147 22.8432 18.2839C22.8935 17.9695 22.961 17.8595 23.1523 17.7809C23.2868 17.7257 23.6255 17.5807 23.9049 17.4587L24.413 17.2371L24.7572 17.4757C25.2541 17.82 25.6572 17.9147 26.1119 17.794C26.6482 17.6514 27.9809 16.3198 28.1232 15.7842C28.2391 15.3478 28.1232 14.7772 27.8572 14.474C27.5678 14.1442 27.5667 14.082 27.8419 13.4753C27.9904 13.1476 28.1357 12.8079 28.1648 12.7205C28.1968 12.6241 28.3581 12.5392 28.5742 12.5051C29.0836 12.4244 29.4843 12.2036 29.7405 11.8624C29.9365 11.6011 29.9665 11.4454 29.995 10.5379C30.0127 9.97229 29.982 9.35848 29.9267 9.17389C29.7744 8.66522 29.3497 8.31442 28.7388 8.19239L28.217 8.08818L27.8944 7.30028C27.5778 6.52693 27.5751 6.50873 27.7472 6.31916C28.0453 5.99097 28.1553 5.69419 28.1553 5.21808C28.1553 4.66561 27.8969 4.25084 27.084 3.49812C26.2275 2.70525 25.5509 2.60713 24.7818 3.1642C24.5273 3.34851 24.3678 3.4076 24.2783 3.35076C24.2063 3.30499 23.8668 3.15951 23.5242 3.02744C22.9091 2.7906 22.9002 2.78216 22.8394 2.37667C22.7605 1.85019 22.4492 1.38646 22.035 1.17841C21.5514 0.935384 19.6684 0.942419 19.2698 1.18864ZM21.5448 2.25689C21.5964 2.32143 21.6677 2.61576 21.7034 2.91104C21.7855 3.59051 21.9482 3.77388 22.6409 3.96851C22.9473 4.05461 23.4865 4.27025 23.8389 4.44772C24.5484 4.80499 24.5783 4.80152 25.2395 4.28339C25.4274 4.13612 25.6583 4.01559 25.7526 4.01559C25.9612 4.01559 27.0085 5.03114 27.0071 5.23205C27.0066 5.31103 26.8381 5.5867 26.6329 5.84464C26.4277 6.10259 26.2592 6.38689 26.2587 6.47637C26.2582 6.56594 26.3852 6.88251 26.541 7.17985C26.6968 7.47728 26.9232 8.01605 27.0441 8.37717C27.2823 9.08844 27.4733 9.2644 28.0103 9.26684C28.1746 9.26759 28.4188 9.30999 28.553 9.36101C28.7956 9.45321 28.7969 9.45922 28.7702 10.3693L28.7433 11.2849L28.1232 11.3787C27.3868 11.4901 27.2307 11.602 27.0943 12.1165C27.0377 12.3298 26.8264 12.8583 26.6246 13.291C26.4228 13.7238 26.2577 14.1277 26.2577 14.1887C26.2577 14.2495 26.4265 14.5257 26.6329 14.8023C26.8393 15.0789 27.0081 15.3491 27.0081 15.403C27.0081 15.5318 25.8699 16.6782 25.742 16.6782C25.6875 16.6782 25.4183 16.5094 25.1437 16.303C24.869 16.0967 24.5842 15.9279 24.5107 15.9279C24.4372 15.9279 24.0907 16.0721 23.7407 16.2484C23.3907 16.4246 22.8693 16.6372 22.5821 16.7206C21.9399 16.9073 21.7961 17.0636 21.7146 17.6631C21.6001 18.5063 21.6599 18.4604 20.676 18.4604C20.1924 18.4604 19.7713 18.4192 19.7402 18.3688C19.7091 18.3185 19.6594 18.0546 19.6297 17.7826C19.5535 17.084 19.4123 16.9069 18.7857 16.7248C18.4906 16.639 17.9628 16.4246 17.6129 16.2484C17.2628 16.0721 16.9015 15.9283 16.81 15.9289C16.7184 15.9294 16.4324 16.0978 16.1745 16.303C15.9166 16.5083 15.6409 16.6767 15.5619 16.6772C15.3589 16.6786 14.3454 15.6302 14.3454 15.4189C14.3454 15.3226 14.4858 15.0706 14.6572 14.8589C15.1352 14.2687 15.1382 14.2078 14.7299 13.3613C14.5274 12.9415 14.3096 12.4081 14.2459 12.176C14.0911 11.6115 13.8917 11.4566 13.2193 11.3786C12.8121 11.3313 12.6278 11.2647 12.5615 11.1409C12.4493 10.9313 12.4416 9.64512 12.5514 9.47188C12.5949 9.40332 12.9075 9.3128 13.2462 9.27078C13.5849 9.22876 13.9042 9.16835 13.9557 9.13655C14.0073 9.10466 14.144 8.79419 14.2595 8.44649C14.3751 8.09887 14.6078 7.52577 14.7766 7.17309C14.9456 6.82042 15.0592 6.46164 15.0294 6.37582C14.9995 6.28999 14.8334 6.03355 14.6602 5.80581C14.4871 5.57807 14.3454 5.32604 14.3454 5.24575C14.3454 5.03855 15.3828 4.01559 15.593 4.01559C15.6891 4.01559 15.9437 4.15676 16.1587 4.32935C16.7363 4.79299 16.8147 4.79993 17.5158 4.44969C17.8614 4.27701 18.4296 4.04186 18.7783 3.92705C19.1271 3.81224 19.4484 3.648 19.4924 3.56208C19.5364 3.47617 19.6007 3.15425 19.6353 2.84669C19.67 2.53913 19.7496 2.25493 19.8123 2.21506C20.0066 2.09153 21.4404 2.12624 21.5448 2.25689ZM19.2229 4.85002C17.4997 5.32069 16.0387 6.61425 15.398 8.23648C15.1028 8.98423 15.0069 9.49908 15.0043 10.3507C14.9962 13.0094 16.8968 15.3318 19.5238 15.8728C20.8594 16.1478 21.9462 15.9963 23.2504 15.3534C24.1846 14.893 25.1229 14.0089 25.5566 13.1804L25.8322 12.654L25.6369 12.3916C25.4177 12.0969 25.0988 12.0091 24.8867 12.1851C24.8089 12.2496 24.5961 12.5272 24.4137 12.8021C23.9502 13.5003 23.3283 14.0238 22.5058 14.408C21.9073 14.6875 21.6737 14.7433 20.9402 14.7819C19.5777 14.8536 18.5861 14.5015 17.6128 13.6004C16.5397 12.607 16.0031 11.1146 16.2164 9.71735C16.6756 6.70908 19.841 4.99127 22.577 6.26561C23.2603 6.58386 24.0833 7.32448 24.5327 8.02543C24.8136 8.46356 24.8841 8.51787 25.1726 8.51787C25.4012 8.51787 25.5397 8.45643 25.6427 8.30936C25.8506 8.01258 25.8307 7.91062 25.4416 7.28021C25.0167 6.59193 24.1011 5.73668 23.3745 5.34939C22.1436 4.69328 20.5141 4.49734 19.2229 4.85002ZM20.0994 7.39352C19.2289 7.57173 18.4808 8.12411 18.0454 8.91003C17.7912 9.36908 17.7691 9.48389 17.7691 10.3469C17.7691 11.0835 17.8065 11.3535 17.9432 11.6045C18.2605 12.1867 18.9179 12.7963 19.5192 13.0662C20.0265 13.2938 20.1776 13.3191 20.8074 13.2813C21.6909 13.2283 22.3197 12.932 22.866 12.3114C24.1978 10.7985 23.7102 8.4403 21.8961 7.62079C21.3429 7.37082 20.6425 7.28228 20.0994 7.39352ZM21.5591 8.74786C21.946 8.94793 22.3814 9.56033 22.4577 10.0116C22.5797 10.7339 22.1298 11.6024 21.4518 11.953C21.0628 12.1541 20.2287 12.1356 19.8044 11.9163C19.0814 11.5429 18.6833 10.5665 18.9386 9.79286C19.2918 8.72291 20.5447 8.22325 21.5591 8.74786ZM25.3812 9.90879C25.1535 10.1603 25.1815 10.6334 25.4345 10.8106C25.7204 11.0109 25.853 10.9947 26.1212 10.7263C26.4004 10.4473 26.4148 10.1757 26.1639 9.92483C25.9298 9.69071 25.5849 9.68367 25.3812 9.90879ZM5.51743 11.9773C5.2608 12.234 5.15331 12.4223 5.15331 12.6153C5.15331 12.8561 5.09487 12.9138 4.66922 13.0937L4.18513 13.2982L3.88433 13.1122C3.53249 12.8948 2.99878 12.8716 2.63832 13.0579C2.26979 13.2485 1.42083 14.1765 1.34739 14.4688C1.26044 14.8154 1.36202 15.3536 1.55449 15.5664C1.70569 15.7334 1.70598 15.7646 1.55853 16.0738C1.47214 16.2549 1.40142 16.4601 1.40142 16.5296C1.40142 16.6001 1.22423 16.7006 1.00071 16.7568C0.769877 16.815 0.481732 16.9812 0.320682 17.1491C0.0559859 17.4252 0.0397591 17.4881 0.0104943 18.3491C-0.0175511 19.1756 -0.000385964 19.2873 0.200247 19.586C0.35717 19.8195 0.552831 19.9582 0.87812 20.0667C1.29064 20.2041 1.3518 20.2623 1.50384 20.6629C1.66771 21.0947 1.66733 21.1163 1.48996 21.4472C1.16036 22.0622 1.26625 22.5309 1.887 23.2044C2.32879 23.6836 2.86006 23.9944 3.2374 23.9944C3.37435 23.9944 3.6412 23.9074 3.83058 23.8009C4.16938 23.6105 4.18194 23.6101 4.63667 23.779C5.05445 23.9341 5.10594 23.9858 5.17526 24.3195C5.32168 25.0242 5.79957 25.3076 6.84166 25.3076C7.88769 25.3076 8.36793 25.007 8.52157 24.2559C8.57157 24.0111 8.66049 23.9272 9.0308 23.7752L9.47943 23.5911L9.83821 23.7928C10.0356 23.9037 10.309 23.9944 10.4459 23.9944C10.8233 23.9944 11.3545 23.6836 11.7963 23.2044C12.4171 22.5309 12.523 22.0622 12.1934 21.4472C12.016 21.1163 12.0156 21.0947 12.1795 20.6629C12.3309 20.2641 12.394 20.2035 12.7998 20.0667C13.516 19.825 13.642 19.5777 13.642 18.4127C13.642 17.4623 13.6358 17.4345 13.3626 17.1494C13.2073 16.9873 12.9141 16.8152 12.7024 16.7618C12.3593 16.6754 12.3055 16.6206 12.1591 16.2085C12.0015 15.7646 12.0022 15.742 12.1859 15.4409C12.3954 15.0971 12.4313 14.6175 12.271 14.3037C12.1189 14.0057 11.3388 13.215 11.0438 13.0597C10.6865 12.8716 10.1519 12.8942 9.799 13.1122L9.49819 13.2982L9.02376 13.0977C8.59811 12.9179 8.54361 12.8612 8.49334 12.5468C8.45469 12.3051 8.33416 12.1058 8.10521 11.9047C7.78057 11.6197 7.75178 11.6132 6.82741 11.6132H5.88165L5.51743 11.9773ZM7.38625 13.0201C7.45979 13.6214 7.59739 13.8517 7.94922 13.9621C8.13972 14.022 8.58535 14.2018 8.93953 14.3617C9.63757 14.6769 9.57632 14.6827 10.2861 14.2352C10.4779 14.1143 10.5209 14.1294 10.8254 14.4246C11.0074 14.601 11.1563 14.7837 11.1563 14.8306C11.1563 14.8775 11.0508 15.0413 10.9218 15.1946C10.6299 15.5415 10.6284 15.7239 10.9124 16.2843C11.0361 16.5284 11.1836 16.9003 11.2402 17.1105C11.3703 17.5934 11.5638 17.7651 12.0943 17.8677C12.4854 17.9434 12.5187 17.9725 12.5468 18.2647C12.6036 18.8552 12.5076 19.0232 12.1134 19.0232C11.66 19.0232 11.3758 19.2262 11.2928 19.6095C11.2565 19.7771 11.1055 20.1558 10.9571 20.4509C10.6276 21.1065 10.6239 21.2313 10.9218 21.6697C11.0508 21.8594 11.1563 22.0466 11.1563 22.0856C11.1563 22.1877 10.5728 22.7751 10.4714 22.7751C10.4245 22.7751 10.2608 22.6695 10.1075 22.5406C9.74656 22.2369 9.52014 22.245 8.7964 22.5874C8.46933 22.7421 8.13729 22.8688 8.0585 22.8688C7.73564 22.869 7.50453 23.1516 7.44206 23.6226L7.38025 24.0882H6.82956C6.3028 24.0882 6.27888 24.0779 6.27888 23.8507C6.27888 23.7201 6.21875 23.4694 6.14531 23.2935C6.03754 23.0356 5.93342 22.9526 5.60748 22.8649C5.38518 22.805 5.00352 22.6548 4.75936 22.5311C4.19517 22.2452 3.92438 22.2474 3.57583 22.5406C3.42256 22.6695 3.2631 22.7751 3.22137 22.7751C3.11856 22.7751 2.52698 22.1958 2.52698 22.0951C2.52698 22.0509 2.63251 21.8594 2.76148 21.6697C3.05938 21.2313 3.05572 21.1065 2.72621 20.4509C2.57782 20.1558 2.42681 19.7771 2.39051 19.6095C2.3074 19.2258 2.0232 19.0232 1.56809 19.0232H1.21382V18.4711V17.9189L1.62512 17.8573C2.09758 17.7864 2.26782 17.6272 2.43412 17.1003C2.49931 16.894 2.65239 16.526 2.77433 16.2827C3.05319 15.726 3.05169 15.5965 2.76148 15.216C2.63251 15.0469 2.52698 14.8759 2.52698 14.836C2.52698 14.796 2.67987 14.6067 2.86672 14.4154L3.20655 14.0674L3.58427 14.341C4.04087 14.6717 4.10175 14.6747 4.66397 14.3931C4.90728 14.2713 5.32683 14.0995 5.59631 14.0113C6.03191 13.8687 6.09672 13.8127 6.18198 13.5059C6.2347 13.3161 6.27803 13.094 6.27832 13.0124C6.27916 12.7729 6.38449 12.7287 6.885 12.758C7.30999 12.7828 7.36046 12.8092 7.38625 13.0201ZM6.08462 15.394C5.18042 15.6496 4.45292 16.2394 4.0057 17.0795C3.82786 17.4136 3.79475 17.6221 3.79409 18.4135C3.79315 19.4959 3.9618 19.9444 4.63377 20.6457C5.26174 21.301 5.78747 21.5059 6.84166 21.5059C7.89219 21.5059 8.37797 21.3177 9.04215 20.6536C9.71336 19.9823 9.89008 19.5156 9.89008 18.4135C9.89008 17.5511 9.86785 17.4355 9.6145 16.978C8.92087 15.7261 7.37096 15.0305 6.08462 15.394ZM7.57159 16.6363C8.28811 16.9356 8.80615 17.68 8.8084 18.4135C8.81028 19.0183 8.42468 19.7255 7.9178 20.047C7.17399 20.5187 6.43421 20.5135 5.70681 20.0316C5.33659 19.7863 4.87164 18.9407 4.87248 18.5139C4.87501 17.0982 6.30158 16.1058 7.57159 16.6363ZM23.9678 20.803C23.0982 20.9737 22.881 21.1154 22.881 21.5122C22.881 21.746 23.1528 22.0247 23.3809 22.0247C23.6683 22.0247 23.5428 22.2959 22.9979 22.8529C22.3072 23.5587 21.5839 24.0189 20.6606 24.3399C20.0218 24.562 19.7862 24.5945 18.8477 24.5908C17.9045 24.5869 17.6809 24.5536 17.0669 24.325C16.6806 24.1812 16.2716 24.0025 16.1578 23.9279C15.8693 23.7389 15.5711 23.8076 15.3417 24.116C15.1615 24.3582 15.1575 24.3977 15.2888 24.6319C15.4511 24.9215 15.9773 25.2056 16.9249 25.5152C17.7797 25.7945 19.7778 25.8227 20.696 25.5685C21.9972 25.2084 23.3965 24.3031 24.1658 23.3239C24.5706 22.8087 24.6183 22.7753 24.7263 22.9321C24.9609 23.2724 25.0496 23.3378 25.2765 23.3378C25.4035 23.3378 25.5964 23.2487 25.7052 23.1399C25.9169 22.9282 25.9173 22.9529 25.681 21.5728C25.5721 20.9365 25.3356 20.6098 24.9972 20.6283C24.8909 20.6341 24.4276 20.7127 23.9678 20.803Z" fill="white"/>
</svg>
