<svg width="26" height="27" viewBox="0 0 26 27" fill="none" xmlns="http://www.w3.org/2000/svg">
<g clip-path="url(#clip0_35_26044)">
<path fill-rule="evenodd" clip-rule="evenodd" d="M0 5.58825V10.3825L2.1441 10.3583L4.28819 10.3341L4.31474 9.67848L4.34128 9.02288H4.68749C4.92249 9.02288 5.20081 9.1237 5.55398 9.33666C6.07777 9.65262 6.67162 9.85933 7.38021 9.97228L7.76389 10.0335V12.7836V15.5337H16.8819H26V9.88194V4.2302H21.9207H17.8415L16.4363 2.84919C15.5773 2.00495 14.8558 1.37594 14.5799 1.2308C13.7898 0.815467 13.3879 0.779115 9.93056 0.810313L6.72569 0.839159L5.96655 1.22348C5.38489 1.518 5.1053 1.6078 4.77037 1.6078H4.33333V1.20087V0.793945H2.16667H0V5.58825ZM3.43056 5.58662V9.47502H2.16667H0.902778V5.58662V1.69822H2.16667H3.43056V5.58662ZM14.0382 1.95992C14.4395 2.1538 14.8368 2.48178 15.5714 3.22591L16.5629 4.2302H14.8066H13.0504L12.5301 3.71449L12.0098 3.19887L11.7376 3.46012C11.5878 3.6039 11.4653 3.76332 11.4653 3.81451C11.4653 3.8656 12.1965 4.64382 13.0903 5.54385C14.7954 7.26089 14.8393 7.3279 14.6271 7.8871C14.5114 8.19185 14.0051 8.4351 13.6641 8.34973C13.501 8.30895 12.9045 7.78664 12.0405 6.92812L10.6749 5.57098L10.2647 5.88458C9.45533 6.50338 8.39312 6.52553 7.58667 5.94037L7.21554 5.67108L6.97062 5.96271C6.83592 6.12304 6.72569 6.29729 6.72569 6.34992C6.72569 6.40264 6.95933 6.58368 7.24479 6.75223L7.76389 7.05888V8.08604C7.76389 9.11141 7.76344 9.11331 7.54623 9.11331C7.16625 9.11331 6.27087 8.78903 5.85 8.49894C5.52933 8.27802 5.33108 8.21301 4.91102 8.1913L4.37847 8.16381L4.35464 5.35042L4.33081 2.53703L4.89685 2.49155C5.32215 2.45737 5.64254 2.3541 6.18457 2.07666L6.90625 1.70727L10.2014 1.70284L13.4965 1.6984L14.0382 1.95992ZM25.0755 9.90455L25.0521 14.6746H16.8819H8.71181L8.68824 10.9569L8.66468 7.23928L9.23253 7.19361C9.55437 7.16775 9.96667 7.06304 10.1839 6.95199L10.5674 6.75603L10.9244 7.053C11.3387 7.39762 11.3575 7.47819 11.0816 7.72985C10.7827 8.00249 10.5713 8.09048 10.0434 8.16191L9.56944 8.22603V9.92444V11.6229L10.0606 11.6636C10.6449 11.7122 11.2033 12.044 11.4368 12.4814C11.5232 12.6432 11.6158 12.9994 11.6425 13.273L11.691 13.7703L16.9045 13.7937L22.1181 13.817V13.4152C22.1181 13.1943 22.1613 12.8989 22.2141 12.7589C22.4427 12.1529 23.2045 11.6509 23.901 11.6473L24.2847 11.6453V9.92716C24.2847 8.28372 24.2771 8.20903 24.1086 8.20903C23.6839 8.20903 22.9937 7.99363 22.7441 7.78329C22.3671 7.46553 22.1783 7.07352 22.1214 6.4909L22.0729 5.99355L18.4194 5.96985L14.7659 5.94625L14.4246 5.61248C14.2369 5.42882 14.0833 5.24616 14.0833 5.20655C14.0833 5.16694 16.5618 5.13448 19.5911 5.13448H25.0988L25.0755 9.90455ZM21.3603 7.23928C21.6194 7.9892 22.2603 8.63557 22.9954 8.88832L23.3368 9.0057L23.3623 9.89632L23.3878 10.7869L22.956 10.9416C22.7186 11.0267 22.3703 11.2241 22.1822 11.3803C21.821 11.6802 21.3078 12.4851 21.3064 12.7539C21.3056 12.9039 21.054 12.9116 16.9181 12.8896L12.5305 12.8661L12.3614 12.4198C12.1398 11.8351 11.5701 11.2649 10.9116 10.969L10.3819 10.7309V9.88411V9.03744L10.8206 8.89149C11.0619 8.81119 11.4297 8.5994 11.6379 8.4209L12.0165 8.09626L12.4229 8.521C12.6463 8.75458 12.9678 9.0038 13.1373 9.07469C13.5372 9.24207 14.1849 9.23927 14.5932 9.06836C14.9126 8.93462 14.916 8.93552 14.8554 9.13618C14.7176 9.59257 14.6982 10.131 14.8058 10.5158C14.9478 11.0238 15.5356 11.7068 16.0208 11.9276C16.5006 12.1459 17.3527 12.1464 17.8299 11.9287C18.3375 11.6971 18.8306 11.1149 18.9984 10.5491C19.1722 9.96278 19.1723 9.8918 18.9996 9.30926C18.5837 7.90646 16.8749 7.30846 15.6754 8.146L15.4167 8.32658L15.4894 8.10956C15.5293 7.99019 15.5582 7.65796 15.5535 7.3713L15.5451 6.85008L18.3937 6.87395L21.2423 6.89782L21.3603 7.23928ZM17.8037 9.00018C18.0318 9.22869 18.0925 9.37383 18.1252 9.77053C18.2004 10.677 17.6443 11.2548 16.7772 11.1714C15.5814 11.0562 15.1798 9.46652 16.1867 8.83307C16.4125 8.69092 16.5901 8.65854 16.9991 8.68486C17.4409 8.71334 17.5664 8.76244 17.8037 9.00018ZM21.6667 18.8343C21.6667 19.2073 21.6471 19.5125 21.6232 19.5125C21.5991 19.5125 21.3186 19.3525 20.9997 19.1569C20.1522 18.6373 19.9141 18.59 18.3264 18.6243C16.9617 18.6539 16.8836 18.6665 15.1667 19.1342C11.4013 20.16 11.4558 20.1413 11.0499 20.5455C10.8463 20.7482 10.6611 20.9723 10.6383 21.0434C10.6075 21.1392 10.1777 20.9431 8.97722 20.2853C8.08645 19.7973 7.05873 19.2353 6.69337 19.0366C5.86815 18.5876 5.50333 18.5011 4.94316 18.6214C3.88546 18.8487 3.3215 20.0058 3.78174 21.0046C3.87337 21.2035 4.04517 21.4515 4.16343 21.5555C4.43968 21.7987 12.3429 26.5268 12.7761 26.7081C13.0533 26.824 13.6482 26.8408 16.6851 26.8178L20.2674 26.7906L20.9343 26.4974C21.3011 26.3361 21.6159 26.2042 21.634 26.2042C21.652 26.2042 21.6667 26.3466 21.6667 26.5207V26.8372H23.8333H26V22.4966V18.1561H23.8333H21.6667V18.8343ZM25.0972 22.4966V25.9329H23.8333H22.5694V22.4966V19.0604H23.8333H25.0972V22.4966ZM7.74285 20.6032C10.5507 22.1096 10.4435 22.0401 10.6786 22.5055C10.7942 22.7344 11.0435 23.0159 11.2703 23.1737C11.6067 23.4076 11.7407 23.4452 12.2182 23.4396C12.5241 23.4361 13.0587 23.3478 13.4062 23.2436C13.7538 23.1394 14.7528 22.8638 15.6262 22.6314C16.4996 22.3989 17.2604 22.18 17.3168 22.1451C17.3921 22.0985 17.3935 21.9869 17.3218 21.724C17.2681 21.5272 17.2122 21.3534 17.1976 21.3377C17.1829 21.3221 16.6387 21.4543 15.9883 21.6316C15.3377 21.8089 14.2829 22.0965 13.6442 22.2706C12.2051 22.6627 11.9841 22.6684 11.6389 22.3227C11.1942 21.8772 11.3206 21.2003 11.8905 20.9753C12.1489 20.8733 12.4909 20.7767 15.5278 19.9488C17.2628 19.4758 17.3065 19.4689 18.5597 19.4681L19.831 19.4673L20.7263 20.0099L21.6215 20.5524L21.6438 22.9035L21.6661 25.2547L20.7862 25.5962L19.9062 25.9378L16.4917 25.9353L13.0772 25.9329L9.04376 23.5262C6.82545 22.2026 4.89874 21.0014 4.76215 20.8572C4.41666 20.492 4.42262 20.0421 4.77777 19.6864C4.94226 19.5216 5.13572 19.4221 5.29136 19.4221C5.43897 19.4221 6.44114 19.905 7.74285 20.6032Z" fill="white"/>
</g>
<defs>
<clipPath id="clip0_35_26044">
<rect width="26" height="26.0432" fill="white" transform="translate(0 0.793945)"/>
</clipPath>
</defs>
</svg>
